<?xml version="1.0" encoding="UTF-8" standalone="no"?>
<!-- Created with Inkscape (http://www.inkscape.org/) -->

<svg
   width="105.83333mm"
   height="105.83333mm"
   viewBox="0 0 105.83333 105.83333"
   version="1.1"
   id="svg5"
   inkscape:version="1.1.1 (3bf5ae0d25, 2021-09-20)"
   sodipodi:docname="twitter-clear.svg"
   xmlns:inkscape="http://www.inkscape.org/namespaces/inkscape"
   xmlns:sodipodi="http://sodipodi.sourceforge.net/DTD/sodipodi-0.dtd"
   xmlns="http://www.w3.org/2000/svg"
   xmlns:svg="http://www.w3.org/2000/svg">
  <sodipodi:namedview
     id="namedview7"
     pagecolor="#ffffff"
     bordercolor="#666666"
     borderopacity="1.0"
     inkscape:pageshadow="2"
     inkscape:pageopacity="0.0"
     inkscape:pagecheckerboard="0"
     inkscape:document-units="mm"
     showgrid="false"
     inkscape:zoom="0.64052329"
     inkscape:cx="199.05599"
     inkscape:cy="272.4335"
     inkscape:window-width="1920"
     inkscape:window-height="1001"
     inkscape:window-x="-9"
     inkscape:window-y="-9"
     inkscape:window-maximized="1"
     inkscape:current-layer="layer1"
     fit-margin-top="0"
     fit-margin-left="0"
     fit-margin-right="0"
     fit-margin-bottom="0" />
  <defs
     id="defs2" />
  <g
     inkscape:label="Layer 1"
     inkscape:groupmode="layer"
     id="layer1"
     transform="translate(-49.525615,-76.375406)">
    <g
       id="g890"
       transform="matrix(0.26458333,0,0,0.26458333,49.525615,76.375406)">
      <g
         id="Dark_Blue">
	<rect
   class="st0"
   width="400"
   height="400"
   id="rect872"
   x="0"
   y="0" />

</g>
      <g
         id="Logo__x2014__FIXED">
	<path
   class="st1"
   d="m 153.6,301.6 c 94.3,0 145.9,-78.2 145.9,-145.9 0,-2.2 0,-4.4 -0.1,-6.6 10,-7.2 18.7,-16.3 25.6,-26.6 -9.2,4.1 -19.1,6.8 -29.5,8.1 10.6,-6.3 18.7,-16.4 22.6,-28.4 -9.9,5.9 -20.9,10.1 -32.6,12.4 -9.4,-10 -22.7,-16.2 -37.4,-16.2 -28.3,0 -51.3,23 -51.3,51.3 0,4 0.5,7.9 1.3,11.7 -42.6,-2.1 -80.4,-22.6 -105.7,-53.6 -4.4,7.6 -6.9,16.4 -6.9,25.8 0,17.8 9.1,33.5 22.8,42.7 -8.4,-0.3 -16.3,-2.6 -23.2,-6.4 0,0.2 0,0.4 0,0.7 0,24.8 17.7,45.6 41.1,50.3 -4.3,1.2 -8.8,1.8 -13.5,1.8 -3.3,0 -6.5,-0.3 -9.6,-0.9 6.5,20.4 25.5,35.2 47.9,35.6 -17.6,13.8 -39.7,22 -63.7,22 -4.1,0 -8.2,-0.2 -12.2,-0.7 22.6,14.4 49.6,22.9 78.5,22.9"
   id="path875" />

</g>
      <g
         id="Annotations">
</g>
    </g>
  </g>
  <style
     type="text/css"
     id="style870">
	.st0{fill:#1D9BF0;}
	.st1{fill:#FFFFFF;}
</style>
</svg>
