<?xml version="1.0" encoding="utf-8"?>
<!-- Generator: Adobe Illustrator 26.3.1, SVG Export Plug-In . SVG Version: 6.00 Build 0)  -->
<svg version="1.1" id="Layer_1" xmlns="http://www.w3.org/2000/svg" xmlns:xlink="http://www.w3.org/1999/xlink" x="0px" y="0px"
	 viewBox="0 0 449.5 560.4" style="enable-background:new 0 0 449.5 560.4;" xml:space="preserve">
<g>
	<path d="M329.5,143.3c-43.7-3.2-80.7,24.4-101.3,24.4c-21,0-53.3-23.7-87.5-23c-45,0.7-86.4,26.2-109.6,66.4
		c-46.7,81.1-11.9,201.3,33.6,267.1c22.2,32.2,48.8,68.4,83.7,67c33.6-1.3,46.3-21.7,86.8-21.7s52,21.7,87.5,21
		c36.1-0.7,59-32.8,81.1-65.1c15.8-23.2,28.2-48.6,36.7-75.4c-0.8-0.3-70.4-27-71.1-107.2c-0.6-67.1,54.8-99.3,57.3-100.9
		C395.1,149.7,346.6,144.6,329.5,143.3L329.5,143.3z"/>
	<path d="M302.5,99.9c18.5-22.4,31-53.6,27.6-84.6c-26.7,1.1-59,17.8-78.1,40.1c-17.1,19.8-32.2,51.6-28.1,82
		C253.7,139.7,284,122.3,302.5,99.9z"/>
</g>
</svg>
