<svg xmlns="http://www.w3.org/2000/svg" role="img" viewBox="-6.26 5.49 312.26 62.76"><title>Collins_Aerospace_Logo.svg</title><style>svg {enable-background:new 0 0 300 74}</style><path d="M285.2 43.1c-.7.4-1.5.8-2.3 1-.9.2-1.7.3-2.6.3-1.1 0-2.2-.2-3.3-.5-.9-.3-1.8-.8-2.5-1.5-.7-.6-1.2-1.4-1.5-2.3-.4-1-.5-2-.5-3s.2-2.1.6-3c.4-.9.9-1.7 1.6-2.4.7-.7 1.5-1.2 2.5-1.5 1-.4 2.1-.6 3.2-.5 1.4 0 2.7.2 4 .8l-.6 4.1c-.4-.2-.9-.4-1.4-.4-.4-.1-.9-.1-1.4-.1-.9-.1-1.9.2-2.6.8-1.2 1.2-1.3 3.2 0 4.5.8.6 1.7.9 2.7.8.4 0 .8 0 1.2-.1l1.2-.3 1.7 3.3zm-21.9-3c.8 0 1.5-.3 2-.9 1.1-1.3 1.1-3.2 0-4.5-.5-.6-1.3-.9-2-.9-.8 0-1.5.3-2.1.9-1.1 1.3-1.1 3.2 0 4.5.6.6 1.4.9 2.1.9m-1.3 4.4c-.9 0-1.8-.2-2.6-.5-.8-.4-1.5-.9-2-1.5-.6-.7-1-1.5-1.3-2.3-.3-1-.5-2-.5-3s.2-2 .5-3c.3-.9.8-1.7 1.4-2.4.6-.7 1.3-1.2 2.1-1.6.8-.4 1.7-.6 2.6-.6.8 0 1.6.2 2.3.5.7.4 1.3.9 1.7 1.5l.1-1.6h4.6v14h-4.6l-.1-1.6c-.4.7-1 1.2-1.7 1.5-.8.4-1.7.6-2.5.6m-15.7-4.4c.8 0 1.5-.3 2.1-.9 1.1-1.3 1.1-3.2 0-4.5-.5-.6-1.3-.9-2.1-.9s-1.5.3-2 .9c-1.1 1.3-1.1 3.2 0 4.5.4.6 1.2.9 2 .9m-7.5-10.2h4.6l.1 1.6c.4-.7 1-1.2 1.7-1.5.8-.4 1.6-.5 2.4-.5.9 0 1.8.2 2.6.5.8.4 1.5.9 2 1.5.6.7 1 1.5 1.3 2.3.3 1 .5 2 .5 3s-.2 2-.5 3c-.3.9-.8 1.7-1.4 2.4-.6.7-1.3 1.2-2.1 1.6-.8.4-1.7.6-2.6.6-.7 0-1.5-.1-2.1-.5-.6-.3-1.2-.7-1.6-1.3V50h-4.9V29.9zm-7.5 3.2c-1 0-1.5.3-1.5.8 0 .3.2.6.4.7.5.3 1.1.4 1.7.6 1.4.3 2.6.9 3.7 1.8.8.8 1.2 1.9 1.1 3.1.1 1.3-.6 2.6-1.7 3.3-1.1.8-2.7 1.2-4.7 1.2-1.1 0-2.1-.1-3.2-.4-.9-.2-1.7-.5-2.4-1l1.6-2.9c1.2.4 2.4.7 3.7.7 1.2 0 1.8-.3 1.8-.8 0-.1 0-.3-.1-.4l-.3-.3-.6-.3c-.3-.1-.6-.2-1-.3-.8-.2-1.5-.4-2.2-.8-.5-.3-1.1-.6-1.5-1-.4-.4-.6-.8-.8-1.3-.2-.5-.3-1.1-.3-1.7-.1-1.3.5-2.5 1.5-3.3 1.3-.9 2.9-1.3 4.5-1.2.9 0 1.9.1 2.8.3.8.2 1.6.4 2.3.8l-.5 3.5c-.7-.3-1.4-.6-2.1-.8-.7-.2-1.5-.3-2.2-.3m-15.7 7.2c.8 0 1.7-.3 2.2-.9 1.1-1.4 1.1-3.4 0-4.9-1.2-1.2-3.2-1.2-4.4 0-1.1 1.4-1.1 3.4 0 4.9.5.6 1.3 1 2.2.9m0 4.2c-1.1 0-2.1-.2-3.1-.6-1.8-.7-3.3-2.1-4.1-3.9-.4-.9-.6-2-.6-3s.2-2 .6-3c.8-1.8 2.2-3.2 4.1-3.9 2-.7 4.2-.7 6.2 0 .9.4 1.7.9 2.5 1.6.7.7 1.2 1.5 1.6 2.4.4.9.6 2 .6 3 0 2-.8 3.9-2.2 5.3-.7.7-1.5 1.2-2.4 1.6-1.1.3-2.2.5-3.2.5m-18.7-14.6h4.8l.1 2.1c.3-.7.8-1.3 1.4-1.8.6-.4 1.4-.6 2.1-.6.6 0 1.1.1 1.6.3l-.4 4.6-.9-.3c-.3-.1-.6-.1-.9-.1-1.9 0-2.9 1.2-2.9 3.7v6h-4.9V29.9zm-25.7 5.2l-2.4-7.1-2.4 7.1h4.8zm-5-11.8h5.7L180 44h-5.8l-1.6-4.8H165l-1.6 4.8H158l8.2-20.7zm-19.9 9.8c-1 0-1.5.3-1.5.8 0 .3.2.6.4.7.5.3 1.1.4 1.7.6 1.4.2 2.6.9 3.7 1.8.8.8 1.2 1.9 1.1 3.1.1 1.3-.6 2.6-1.7 3.3-1.1.8-2.7 1.2-4.7 1.2-1.1 0-2.1-.1-3.2-.4-.9-.2-1.7-.5-2.4-1l1.6-2.9c1.2.4 2.4.7 3.7.7 1.2 0 1.8-.3 1.8-.8 0-.1 0-.3-.1-.4l-.3-.3-.6-.3c-.3-.1-.6-.2-1-.3-.8-.2-1.5-.4-2.2-.8-.5-.3-1-.6-1.5-1-.4-.4-.7-.8-.8-1.3-.2-.5-.3-1.1-.3-1.7-.1-1.3.5-2.5 1.6-3.3 1.3-.9 2.9-1.3 4.5-1.2.9 0 1.9.1 2.8.3.8.2 1.6.4 2.3.8l-.5 3.5c-.7-.3-1.4-.6-2.1-.8-.8-.2-1.5-.3-2.3-.3m-22.4-3.2h4.8l.1 1.7c.4-.7.9-1.2 1.6-1.6.8-.4 1.6-.6 2.4-.6 1.4-.1 2.7.5 3.7 1.5.8 1 1.2 2.5 1.2 4.5V44h-4.9v-7.6c0-1.7-.6-2.5-1.9-2.5-.6 0-1.2.2-1.6.7-.4.6-.6 1.3-.5 2V44h-4.9V29.9zm-8.1 0h4.9V44h-4.9V29.9zm2.5-2.2c-.7 0-1.4-.2-2-.8-1-1-1.1-2.7-.1-3.7l.1-.1c1.1-1 2.8-1 3.9 0 .5.5.8 1.2.8 1.9s-.3 1.4-.8 1.9c-.5.6-1.2.9-1.9.8m-10.9-4.4h4.9V44h-4.9V23.3zm-8 0h4.9V44h-4.9V23.3zm-9.8 17.1c.8 0 1.7-.3 2.2-.9 1.1-1.4 1.1-3.4 0-4.9-.6-.6-1.4-1-2.2-.9-.8 0-1.7.3-2.2.9-1.1 1.4-1.1 3.4 0 4.9.5.6 1.3.9 2.2.9m0 4.1c-1.1 0-2.1-.2-3.1-.6-.9-.4-1.8-1-2.5-1.7s-1.3-1.5-1.6-2.5c-.4-1-.6-2-.6-3s.2-2 .6-2.9c.4-.8.9-1.6 1.6-2.2.7-.6 1.6-1.1 2.5-1.5 1-.4 2-.5 3.1-.5s2.1.2 3.1.6c.9.4 1.7.9 2.5 1.6.7.7 1.2 1.5 1.6 2.4.4.9.6 2 .6 3 0 2-.8 3.9-2.2 5.3-.7.7-1.5 1.2-2.4 1.6-1.1.2-2.2.4-3.2.4m-9-2.4c-1 .8-2.2 1.3-3.4 1.7-1.3.4-2.7.6-4.1.6-1.5 0-3-.2-4.5-.7-1.3-.4-2.4-1.1-3.4-2.1-1-.9-1.7-2.1-2.1-3.3-.5-1.4-.8-3-.7-4.5 0-1.5.3-3 .8-4.3.5-1.3 1.3-2.4 2.3-3.4 1-1 2.3-1.7 3.6-2.2 1.5-.5 3-.8 4.6-.8.6 0 1.2 0 1.8.1 1.2.2 2.4.5 3.5.9.5.2 1 .4 1.4.6L78.2 29l-1.1-.5c-.3-.1-.6-.3-1-.4-.3-.1-.7-.2-1-.2-.4 0-.8-.1-1.2-.1-1.6-.1-3.2.5-4.5 1.6-1.1 1.1-1.7 2.7-1.6 4.3 0 .8.1 1.6.4 2.4.2.7.6 1.3 1.2 1.9.5.5 1.1.9 1.8 1.2.8.3 1.6.4 2.4.4.8 0 1.6-.1 2.4-.4.8-.3 1.5-.7 2.2-1.2l2.4 4.1zM20 11.9c.6-.1 1.1-.2 1.7-.3l2.6 15.1c-.6 0-1.1.1-1.7.3L20 11.9zm-.7 16.7c.6-.4 1.2-.7 1.8-1l-7.6-13.3c-.6.3-1.2.6-1.8 1l7.6 13.3zM15 37c0-.6 0-1.1.1-1.7H-.1c0 .5-.1 1.1-.1 1.6v1.5h15.1c.1-.4.1-.9.1-1.4m20.5 0c0 5.7-4.6 10.3-10.3 10.3-5 0-9.3-3.6-10.1-8.5L.9 44c.3 1.1.7 2.2 1.2 3.2L16.2 42 4.6 51.8c.7 1 1.5 2 2.4 2.9l10.8-9.1-7.1 12.3c1.1.8 2.3 1.5 3.5 2.1L21 48.4l-2.3 13.2c1.4.4 2.9.6 4.4.8L25.2 50l2.2 12.3c1.5-.1 3.1-.4 4.6-.8L30 50l5.8 10.1c1.6-.7 3.1-1.6 4.5-2.6L35 48.3l8.1 6.9c1.3-1.3 2.5-2.7 3.4-4.2l-7.2-6.1 8.9 3.3c.8-1.7 1.5-3.5 1.9-5.4l-7.8-2.9h8.3c.1-1 .2-1.9.2-2.9 0-1.1-.1-2.2-.2-3.3H34.9c.4.9.6 2.1.6 3.3m-20.3-2.3c.2-.9.5-1.7 1-2.5L2 26.9c-.4.8-.7 1.7-.9 2.6l14.1 5.2zm29.2-14.5L32.7 30c.3.3.5.6.8 1l11.6-9.8c-.2-.4-.5-.7-.7-1m-5.8-5c-.4-.3-.8-.5-1.2-.7l-7.6 13.3c.4.2.9.5 1.3.7l7.5-13.3zM18.3 29.4L6.6 19.6l-1.5 1.8 11.6 9.8c.5-.6 1-1.2 1.6-1.8m8-2.6c.5 0 1 .1 1.5.3L30.4 12l-1.5-.3-2.6 15.1zm168.3 9.8c0-1-.2-2-.5-2.9-.3-.8-.8-1.6-1.4-2.2-.6-.6-1.4-1.1-2.2-1.4-.9-.3-1.9-.5-2.9-.5s-2 .2-3 .5c-.9.3-1.7.9-2.3 1.5-.7.7-1.2 1.5-1.5 2.4-.4 1-.5 2-.5 3 0 1.1.2 2.1.6 3.1.4.9 1 1.7 1.7 2.4.8.7 1.7 1.2 2.7 1.5 1.1.4 2.3.5 3.5.5 1.1 0 2.1-.1 3.1-.4.9-.2 1.8-.6 2.6-1.1l-1.6-3.1c-.6.3-1.3.5-1.9.6-.6.1-1.2.2-1.8.2-2.2 0-4.2-.8-4.7-2.4h9.9c.1-.6.2-1.2.2-1.7m-10.1-.9c.4-1.9 1.4-2.9 3.1-2.9.7 0 1.5.2 2 .7.5.6.9 1.3.9 2.1l-6 .1zm115.6.9c0-1-.1-2-.5-2.9-.3-.8-.8-1.6-1.4-2.2-.6-.6-1.4-1.1-2.2-1.4-.9-.3-1.9-.5-2.9-.5s-2 .2-3 .5c-.9.3-1.7.9-2.3 1.5-.7.7-1.2 1.5-1.5 2.4-.4 1-.5 2-.5 3 0 1.1.2 2.1.6 3.1.4.9 1 1.7 1.7 2.4.8.7 1.7 1.2 2.7 1.5 1.1.4 2.3.5 3.5.5 1.1 0 2.1-.1 3.2-.4.9-.2 1.8-.6 2.5-1.1l-1.6-3.1c-.6.3-1.3.5-1.9.6-.6.1-1.2.2-1.8.2-2.2 0-4.2-.8-4.7-2.4h9.9c.1-.6.2-1.2.2-1.7m-10.1-.9c.4-1.9 1.4-2.9 3.1-2.9.7 0 1.5.2 2 .7.5.6.9 1.3.9 2.1l-6 .1z"/></svg>