<?xml version="1.0" encoding="UTF-8"?>
<svg xmlns="http://www.w3.org/2000/svg" xmlns:xlink="http://www.w3.org/1999/xlink" version="1.1" viewBox="0 0 128 128">
  <!-- Generator: Adobe Illustrator 29.4.0, SVG Export Plug-In . SVG Version: 2.1.0 Build 152)  -->
  <defs>
    <style>
      .st0 {
        fill: #fff;
      }

      .st0, .st1, .st2, .st3, .st4, .st5, .st6, .st7, .st8, .st9 {
        fill-rule: evenodd;
      }

      .st1 {
        fill: #ededed;
        fill-opacity: .6;
      }

      .st2 {
        fill: #1e1e1e;
        fill-opacity: .32;
      }

      .st3 {
        fill: url(#linear-gradient);
      }

      .st4 {
        fill: url(#linear-gradient1);
      }

      .st5 {
        fill: url(#linear-gradient2);
      }

      .st6 {
        fill: url(#linear-gradient4);
      }

      .st7 {
        fill: url(#linear-gradient5);
      }

      .st8 {
        fill: url(#linear-gradient3);
      }

      .st9 {
        fill: url(#linear-gradient6);
      }
    </style>
    <linearGradient id="linear-gradient" x1="6841.16" y1="-1733.45" x2="6826.77" y2="-2323.41" gradientTransform="translate(-824.95 -336.8) scale(.13 -.2)" gradientUnits="userSpaceOnUse">
      <stop offset="0" stop-color="#d9d9d9"/>
      <stop offset="1" stop-color="#fff" stop-opacity=".38"/>
    </linearGradient>
    <linearGradient id="linear-gradient1" x1="7884.7" y1="-1446.05" x2="7767.04" y2="-1958.88" gradientTransform="translate(-839.84 -320.38) scale(.11 -.23)" gradientUnits="userSpaceOnUse">
      <stop offset="0" stop-color="#7a7a7a" stop-opacity=".67"/>
      <stop offset="1" stop-color="#969696"/>
    </linearGradient>
    <linearGradient id="linear-gradient2" x1="7323.86" y1="-1761.38" x2="7323.86" y2="-2146.71" gradientTransform="translate(-831.68 -329.84) scale(.12 -.21)" gradientUnits="userSpaceOnUse">
      <stop offset="0" stop-color="#151515" stop-opacity=".76"/>
      <stop offset="1" stop-color="#b5b5b5" stop-opacity=".28"/>
    </linearGradient>
    <linearGradient id="linear-gradient3" x1="4376.02" y1="-2976.68" x2="4555.31" y2="-3337.49" gradientTransform="translate(-772 -372.92) scale(.18 -.14)" gradientUnits="userSpaceOnUse">
      <stop offset="0" stop-color="#818181" stop-opacity=".46"/>
      <stop offset="1" stop-color="#1b1b1b" stop-opacity=".54"/>
    </linearGradient>
    <linearGradient id="linear-gradient4" x1="6325.02" y1="-2532.29" x2="6007.37" y2="-2192.94" gradientTransform="translate(-813.32 -347.17) scale(.14 -.18)" gradientUnits="userSpaceOnUse">
      <stop offset="0" stop-color="#414141" stop-opacity=".33"/>
      <stop offset="1" stop-color="#1e1e1e" stop-opacity=".82"/>
    </linearGradient>
    <linearGradient id="linear-gradient5" x1="8650.38" y1="-1435.81" x2="8556.15" y2="-1766.92" gradientTransform="translate(-847.73 -309.65) scale(.11 -.24)" gradientUnits="userSpaceOnUse">
      <stop offset="0" stop-color="#616161" stop-opacity=".14"/>
      <stop offset="1" stop-color="#f4f4f4" stop-opacity=".23"/>
    </linearGradient>
    <linearGradient id="linear-gradient6" x1="10216.56" y1="-1214.7" x2="9921.13" y2="-1159.1" gradientTransform="translate(-861.44 -286.63) scale(.09 -.28)" gradientUnits="userSpaceOnUse">
      <stop offset="0" stop-color="#a3a3a3" stop-opacity=".36"/>
      <stop offset="1" stop-color="#202020" stop-opacity=".58"/>
    </linearGradient>
  </defs>
  <path class="st3" d="M64.4.5C36.7,13.9,1.9,83.4,30.9,113.9c26.8,33.5,85.4,1.3,68.4-40.5C77.8,37.4,64.3,35.5,64.4.5Z"/>
  <path class="st4" d="M64.4.2C36.8,13.6,1.9,82.9,31,113.5c10.7,12.4,28,16.5,37.7,9.1,26.4-18.8,7.4-53.1,10.4-78.5-11-10.2-14.9-32.8-14.7-43.9Z"/>
  <path class="st5" d="M56.7,4.3c-22.3,15.9-28.2,75-24.1,94.2,8.2,48.1,75.2,28.3,69.6-16.5-6-29.2-48.8-39.2-45.5-77.7Z"/>
  <path class="st8" d="M78.8,49.8c10.4,13.4,12.7,22.6,6.8,27.9-27.7,19.4-61.3,7.4-54-37.3-9.5,22.6-27.1,56.4,11.7,61.2,20.8,3.6,54,2,58.9-16.1-.2-15.9-10.8-22.9-23.4-35.7Z"/>
  <path class="st6" d="M38.1,36.4c-2.9,21.2,35.1,77.9,58.3,71-17.7,35.6-56.9-21.2-64-41.7,1.5-11,2.2-16.4,5.7-29.3Z"/>
  <path class="st7" d="M60.4,49.7c.8,7.9,3.9,20.5,0,28.8s-21.7,23.5-16.8,36.8c11.4,24.8,37.1-4.4,36.9-19,1.1-11.8-6.6-38.7-1.8-52.5l-2.2-2.8-13.6-4c-2.2,3.2-3,7.5-2.5,12.7Z"/>
  <path class="st9" d="M65.3,10.8c-29.3,16.6-17.3,42.6-16,70.8l19.1-55.4c-1.4-5.7-2.3-9.5-3.1-15.4Z"/>
  <path class="st2" d="M68.3,26.1c-14.8,11.7-14.1,31.3-18.6,54,8.1-21.3,4.1-38.2,18.6-54Z"/>
  <path class="st0" d="M45.8,119.7c8,1.1,12.1,2.2,12.5,3,.3,4.2-11.1,1.2-12.5-3Z"/>
  <path class="st1" d="M49.8,10.8c-6.9,7.7-14.4,21.8-18.2,29.7-1,6.5-.5,15.7.6,23.5.9-18.2,7.5-39.2,17.6-53.2Z"/>
</svg>