<?xml version="1.0" encoding="utf-8"?>
<!-- Generator: Adobe Illustrator 29.4.0, SVG Export Plug-In . SVG Version: 9.03 Build 0)  -->
<svg version="1.0"
	 id="svg2" xmlns:sodipodi="http://sodipodi.sourceforge.net/DTD/sodipodi-0.dtd" xmlns:svg="http://www.w3.org/2000/svg" xmlns:inkscape="http://www.inkscape.org/namespaces/inkscape" xmlns:cc="http://creativecommons.org/ns#" xmlns:dc="http://purl.org/dc/elements/1.1/" xmlns:rdf="http://www.w3.org/1999/02/22-rdf-syntax-ns#"
	 xmlns="http://www.w3.org/2000/svg" xmlns:xlink="http://www.w3.org/1999/xlink" x="0px" y="0px" viewBox="0 0 111.16 112.39"
	 style="enable-background:new 0 0 111.16 112.39;" xml:space="preserve">
<style type="text/css">
	.st0{fill:url(#path1948_00000029767622332605855840000008319985218848776844_);}
	.st1{fill:url(#path1950_00000121997263265494872440000003804087099205769378_);}
	.st2{opacity:0.4438;fill:url(#path1894_00000116927435787026454850000012004563209345466802_);enable-background:new    ;}
</style>
<sodipodi:namedview  bordercolor="#666666" borderopacity="1.0" gridtolerance="10.0" guidetolerance="10.0" height="40mm" id="base" inkscape:current-layer="svg2" inkscape:cx="91.558698" inkscape:cy="47.9926" inkscape:deskcolor="#d1d1d1" inkscape:document-units="pt" inkscape:pagecheckerboard="0" inkscape:pageopacity="0.0" inkscape:pageshadow="2" inkscape:showpageshadow="2" inkscape:window-height="2080" inkscape:window-maximized="0" inkscape:window-width="1976" inkscape:window-x="1092" inkscape:window-y="72" inkscape:zoom="2.1461642" objecttolerance="10.0" pagecolor="#ffffff" showgrid="false" units="mm" width="210mm">
	</sodipodi:namedview>
<linearGradient id="path1948_00000167396166821038750280000010334512712916414858_" gradientUnits="userSpaceOnUse" x1="734.9045" y1="-293.4356" x2="843.9209" y2="-387.2295" gradientTransform="matrix(0.5625 0 0 -0.568 -416.141 -163.463)">
	<stop  offset="0.0186" style="stop-color:#333333"/>
	<stop  offset="1" style="stop-color:#000000"/>
</linearGradient>
<path id="path1948" style="fill:url(#path1948_00000167396166821038750280000010334512712916414858_);" d="M54.92,0
	c-4.58,0.02-8.96,0.41-12.81,1.09c-11.35,2-13.41,6.2-13.41,13.94v10.22h26.81v3.41H28.7H18.64c-7.79,0-14.62,4.68-16.75,13.59
	c-2.46,10.21-2.57,16.59,0,27.25c1.91,7.94,6.46,13.59,14.25,13.59h9.22V70.84c0-8.85,7.66-16.66,16.75-16.66h26.78
	c7.45,0,13.41-6.14,13.41-13.62V15.03c0-7.27-6.13-12.72-13.41-13.94C64.28,0.33,59.5-0.02,54.92,0z M40.42,8.22
	c2.77,0,5.03,2.3,5.03,5.12c0,2.82-2.26,5.09-5.03,5.09c-2.78,0-5.03-2.28-5.03-5.09C35.39,10.52,37.64,8.22,40.42,8.22z"/>
<linearGradient id="path1950_00000051365365435130745040000014940536715459951280_" gradientUnits="userSpaceOnUse" x1="886.0673" y1="-443.9974" x2="847.1376" y2="-388.9187" gradientTransform="matrix(0.5625 0 0 -0.568 -416.141 -163.463)">
	<stop  offset="0" style="stop-color:#4D4D4D"/>
	<stop  offset="1" style="stop-color:#5D5D5D"/>
</linearGradient>
<path id="path1950" style="fill:url(#path1950_00000051365365435130745040000014940536715459951280_);" d="M85.64,28.66v11.91
	c0,9.23-7.83,17-16.75,17H42.11c-7.34,0-13.41,6.28-13.41,13.62v25.53c0,7.27,6.32,11.54,13.41,13.62c8.49,2.5,16.63,2.95,26.78,0
	c6.75-1.95,13.41-5.89,13.41-13.62V86.5H55.51v-3.41h26.78H95.7c7.79,0,10.7-5.44,13.41-13.59c2.8-8.4,2.68-16.48,0-27.25
	c-1.93-7.76-5.6-13.59-13.41-13.59L85.64,28.66z M70.58,93.31c2.78,0,5.03,2.28,5.03,5.09c0,2.83-2.25,5.12-5.03,5.12
	c-2.77,0-5.03-2.3-5.03-5.12C65.54,95.59,67.81,93.31,70.58,93.31z"/>
<radialGradient id="path1894_00000154424237791604507090000007026908286778921875_" cx="-2889.2625" cy="-409.7538" r="29.0369" gradientTransform="matrix(1.749057e-08 -0.2399 -1.0547 -3.791546e-07 -376.3373 -565.5692)" gradientUnits="userSpaceOnUse">
	<stop  offset="0" style="stop-color:#B8B8B8;stop-opacity:0.498"/>
	<stop  offset="1" style="stop-color:#7F7F7F;stop-opacity:0"/>
</radialGradient>
<ellipse id="path1894" style="opacity:0.4438;fill:url(#path1894_00000154424237791604507090000007026908286778921875_);enable-background:new    ;" cx="55.82" cy="127.7" rx="35.93" ry="6.97"/>
</svg>
