<?xml version="1.0" encoding="UTF-8"?><svg id="b" xmlns="http://www.w3.org/2000/svg" width="33.28" height="35.06" viewBox="0 0 33.28 35.06"><g id="c"><path d="M0,17.51c0-3.16,.73-6.09,2.19-8.79S5.68,3.89,8.26,2.33,13.64,0,16.64,0s5.79,.78,8.38,2.33,4.61,3.68,6.07,6.39,2.19,5.63,2.19,8.79-.74,6.14-2.23,8.85-3.51,4.84-6.08,6.39-5.35,2.32-8.33,2.32-5.81-.78-8.38-2.34-4.59-3.7-6.06-6.4S0,20.68,0,17.51Zm2.86,0c0,2.58,.58,4.98,1.75,7.22s2.82,4.03,4.96,5.38,4.5,2.03,7.08,2.03,4.91-.67,7.04-2.02,3.79-3.13,4.96-5.37,1.76-4.65,1.76-7.24-.59-5-1.76-7.23-2.83-4.01-4.97-5.34-4.48-2-7.03-2-4.79,.64-6.93,1.92-3.81,3.05-5.03,5.3-1.83,4.7-1.83,7.36Zm10.41,1.78v7.9h-3.54V7.27h6.59c2.41,0,4.28,.55,5.61,1.64s2,2.61,2,4.55c0,1.72-.84,3.05-2.51,3.98,.91,.5,1.54,1.19,1.9,2.06s.54,1.96,.54,3.25,.03,2.2,.08,2.73,.16,.98,.32,1.34v.38h-3.63c-.2-.53-.3-2.05-.3-4.55,0-1.19-.26-2.04-.77-2.57s-1.38-.79-2.58-.79h-3.7Zm0-3.14h3c1.19,0,2.18-.25,2.96-.74s1.18-1.15,1.18-1.98c0-1.09-.28-1.87-.83-2.33s-1.56-.7-3.01-.71h-3.3v5.77Z"/></g></svg>