<?xml version="1.0" encoding="UTF-8" standalone="no"?>
<!-- Created with Inkscape (http://www.inkscape.org/) -->

<svg
   width="117.1673mm"
   height="51.200718mm"
   viewBox="0 0 117.1673 51.200718"
   version="1.1"
   id="svg5"
   inkscape:version="1.1.1 (3bf5ae0d25, 2021-09-20)"
   sodipodi:docname="sel4_summit_about.svg"
   inkscape:export-filename="C:\Users\Birgit Brecknell\Documents\seL4 Foundation\seL4 Summit 2022\sel4_summit_v02.png"
   inkscape:export-xdpi="96"
   inkscape:export-ydpi="96"
   xmlns:inkscape="http://www.inkscape.org/namespaces/inkscape"
   xmlns:sodipodi="http://sodipodi.sourceforge.net/DTD/sodipodi-0.dtd"
   xmlns="http://www.w3.org/2000/svg"
   xmlns:svg="http://www.w3.org/2000/svg">
  <sodipodi:namedview
     id="namedview7"
     pagecolor="#ffffff"
     bordercolor="#666666"
     borderopacity="1.0"
     inkscape:pageshadow="2"
     inkscape:pageopacity="0.0"
     inkscape:pagecheckerboard="0"
     inkscape:document-units="mm"
     showgrid="false"
     inkscape:zoom="1.8116734"
     inkscape:cx="256.94477"
     inkscape:cy="94.111886"
     inkscape:window-width="1920"
     inkscape:window-height="1001"
     inkscape:window-x="-9"
     inkscape:window-y="-9"
     inkscape:window-maximized="1"
     inkscape:current-layer="g1204"
     fit-margin-top="0"
     fit-margin-left="0"
     fit-margin-right="0"
     fit-margin-bottom="0"
     showguides="true"
     inkscape:guide-bbox="true" />
  <defs
     id="defs2">
    <rect
       x="680.69342"
       y="102.26014"
       width="15.612235"
       height="115.53054"
       id="rect9649" />
    <style
       id="style824">.cls-1,.cls-2,.cls-3{fill:#96ca4f;}.cls-2,.cls-3{stroke:#96ca4f;stroke-miterlimit:8;}.cls-3{stroke-width:0.25px;}</style>
  </defs>
  <g
     inkscape:label="Layer 1"
     inkscape:groupmode="layer"
     id="layer1">
    <text
       xml:space="preserve"
       transform="scale(0.26458333)"
       id="text9647"
       style="font-style:normal;font-weight:normal;font-size:40px;line-height:1.25;font-family:sans-serif;white-space:pre;shape-inside:url(#rect9649);fill:#000000;fill-opacity:1;stroke:none" />
    <g
       id="g1204">
      <path
         d="M 19.283456,34.603037 H 15.180947 L 13.549268,30.513143 H 6.0901599 L 4.551719,34.603037 H 0.54244863 L 7.8150785,16.597678 H 11.808809 Z M 12.337162,27.479498 9.7730943,20.798109 7.2401057,27.479498 Z"
         style="font-weight:bold;font-stretch:condensed;font-size:28.2935px;line-height:10;font-family:Arial;-inkscape-font-specification:'Arial Bold Condensed';text-align:center;letter-spacing:5.30504px;word-spacing:0px;text-anchor:middle;fill:#96ca4f;stroke-width:0.390361"
         id="path8011" />
      <path
         d="m 27.239847,16.597678 h 7.474648 q 3.061343,0 4.304526,0.44215 1.243185,0.442151 2.097875,1.55981 0.854689,1.117659 0.854689,2.530084 0,1.301889 -0.730371,2.358138 -0.730371,1.043967 -1.895857,1.547527 1.66276,0.466714 2.595148,1.596656 0.947929,1.129941 0.947929,2.751159 0,1.965115 -1.196566,3.328413 -1.196565,1.351016 -2.828244,1.670347 -1.134406,0.221075 -5.267994,0.221075 h -6.355783 z m 3.760634,2.996799 v 4.163586 h 2.486369 q 2.237733,0 2.766086,-0.06141 0.963468,-0.122819 1.507361,-0.638662 0.543894,-0.528125 0.543894,-1.424708 0,-0.798327 -0.450655,-1.289606 -0.435115,-0.50356 -1.072246,-0.62638 -0.621593,-0.12282 -3.605235,-0.12282 z m 0,7.160385 v 4.81453 h 3.496456 q 2.299893,0 2.952565,-0.184229 0.652671,-0.196511 1.087786,-0.7492 0.450654,-0.56497 0.450654,-1.424708 0,-0.884302 -0.481734,-1.449271 -0.466194,-0.577253 -1.258725,-0.786046 -0.77699,-0.221076 -3.2012,-0.221076 z"
         style="font-weight:bold;font-stretch:condensed;font-size:28.2935px;line-height:10;font-family:Arial;-inkscape-font-specification:'Arial Bold Condensed';text-align:center;letter-spacing:5.30504px;word-spacing:0px;text-anchor:middle;fill:#96ca4f;stroke-width:0.390361"
         id="path8013" />
      <path
         d="m 51.295479,25.710896 q 0,-3.217875 1.196565,-5.293528 1.212106,-2.087933 3.154581,-3.107337 1.942476,-1.019403 4.708563,-1.019403 4.00927,0 6.526719,2.419548 2.532988,2.419546 2.532988,6.890182 0,4.519762 -2.672847,7.062129 -2.346511,2.2476 -6.371321,2.2476 -4.05589,0 -6.402401,-2.223036 -2.672847,-2.542366 -2.672847,-6.976155 z m 3.884953,-0.12282 q 0,3.107337 1.49182,4.667146 1.491822,1.547528 3.698475,1.547528 2.222192,0 3.682935,-1.535246 1.460741,-1.547528 1.460741,-4.740838 0,-3.131902 -1.429662,-4.630301 -1.414123,-1.4984 -3.714014,-1.4984 -2.299892,0 -3.745093,1.510682 -1.445202,1.510682 -1.445202,4.679429 z"
         style="font-weight:bold;font-stretch:condensed;font-size:28.2935px;line-height:10;font-family:Arial;-inkscape-font-specification:'Arial Bold Condensed';text-align:center;letter-spacing:5.30504px;word-spacing:0px;text-anchor:middle;fill:#96ca4f;stroke-width:0.390361"
         id="path8015" />
      <path
         d="m 78.288135,16.597678 h 3.760634 v 9.751879 q 0,2.272164 0.139858,2.959954 0.248637,1.19135 1.181025,1.842295 0.947928,0.650944 2.48637,0.650944 1.305343,0 2.128953,-0.454433 0.82361,-0.466715 1.118866,-1.277324 0.310796,-0.822892 0.310796,-3.512643 v -9.960672 h 3.776173 v 9.457112 q 0,3.62318 -0.497274,5.244399 -0.481733,1.608938 -2.206652,2.616059 -1.709378,0.994839 -4.522084,0.994839 -2.921484,0 -4.568704,-0.822892 -1.631679,-0.835173 -2.37759,-2.333573 -0.730371,-1.510682 -0.730371,-5.551448 z"
         style="font-weight:bold;font-stretch:condensed;font-size:28.2935px;line-height:10;font-family:Arial;-inkscape-font-specification:'Arial Bold Condensed';text-align:center;letter-spacing:5.30504px;word-spacing:0px;text-anchor:middle;fill:#96ca4f;stroke-width:0.390361"
         id="path8017" />
      <path
         d="M 107.33204,34.603037 V 19.643605 h -5.54771 v -3.045927 h 14.84052 v 3.045927 h -5.53218 v 14.959432 z"
         style="font-weight:bold;font-stretch:condensed;font-size:28.2935px;line-height:10;font-family:Arial;-inkscape-font-specification:'Arial Bold Condensed';text-align:center;letter-spacing:5.30504px;word-spacing:0px;text-anchor:middle;fill:#96ca4f;stroke-width:0.390361"
         id="path8019" />
    </g>
  </g>
</svg>
