<?xml version="1.0" encoding="UTF-8" standalone="no"?>
<svg
   xmlns:dc="http://purl.org/dc/elements/1.1/"
   xmlns:cc="http://creativecommons.org/ns#"
   xmlns:rdf="http://www.w3.org/1999/02/22-rdf-syntax-ns#"
   xmlns:svg="http://www.w3.org/2000/svg"
   xmlns="http://www.w3.org/2000/svg"
   xmlns:sodipodi="http://sodipodi.sourceforge.net/DTD/sodipodi-0.dtd"
   xmlns:inkscape="http://www.inkscape.org/namespaces/inkscape"
   id="Layer_1"
   data-name="Layer 1"
   viewBox="0 0 370.15 142.7"
   version="1.1"
   sodipodi:docname="seL4.svg"
   inkscape:version="0.92.4 (5da689c313, 2019-01-14)">
  <metadata
     id="metadata17">
    <rdf:RDF>
      <cc:Work
         rdf:about="">
        <dc:format>image/svg+xml</dc:format>
        <dc:type
           rdf:resource="http://purl.org/dc/dcmitype/StillImage" />
      </cc:Work>
    </rdf:RDF>
  </metadata>
  <sodipodi:namedview
     pagecolor="#ffffff"
     bordercolor="#666666"
     borderopacity="1"
     objecttolerance="10"
     gridtolerance="10"
     guidetolerance="10"
     inkscape:pageopacity="0"
     inkscape:pageshadow="2"
     inkscape:window-width="2635"
     inkscape:window-height="1420"
     id="namedview15"
     showgrid="false"
     inkscape:zoom="1.6538192"
     inkscape:cx="20.002543"
     inkscape:cy="71.652329"
     inkscape:window-x="310"
     inkscape:window-y="97"
     inkscape:window-maximized="0"
     inkscape:current-layer="Layer_1" />
  <defs
     id="defs4">
    <style
       id="style2">.cls-1{fill:none;}.cls-2{fill:#8dc43d;}.cls-3{fill:#fff;}</style>
  </defs>
  <polygon
     class="cls-1"
     points="330.24 69.4 330.24 39.39 306.79 69.4 330.24 69.4"
     id="polygon6" />
  <path
     class="cls-1"
     d="M263.86,98.66c0-4.28-.36-5.65-.63-6.31a3.29,3.29,0,0,0-3.27-2c-2.33,0-3.25,1-3.61,1.81-.28.63-.59,1.93-.59,6.54v5.44h8.1Z"
     transform="translate(-51.16 -54.33)"
     id="path8" />
  <path
     class="cls-2"
     d="M409,123.73V67.49H382L334.7,123.84H321.46V54.33H295v69.51H281.35c.13-1.31.2-2.8.2-4.59v-1.7H265v4.73c0,3.17-.28,5.21-.89,6.42-.49,1-1.6,2.16-4,2.16a3.62,3.62,0,0,1-3.46-1.74c-.34-.61-.78-1.85-.78-5.69V109.6h25.69V103c0-5.49-.7-9.78-2.08-12.75a15.33,15.33,0,0,0-7.1-7c-3.44-1.8-7.9-2.72-13.25-2.72a28.24,28.24,0,0,0-11.62,2.26,14.12,14.12,0,0,0-7,6.29c-1.45,2.78-2.18,6.68-2.18,11.59v17.1a51.17,51.17,0,0,0,.32,6.11h-7.42c0-.7.08-1.38.08-2.13,0-4-.82-7-2.45-9s-5.35-4.38-10.92-6.83a56,56,0,0,1-8.77-4.49A7.38,7.38,0,0,1,206.22,98a14.4,14.4,0,0,1-.48-4.31,5.7,5.7,0,0,1,1.1-3.73,4.22,4.22,0,0,1,3.39-1.4c1.86,0,3.07.59,3.62,1.74.3.62.63,1.81.63,5.64v3.18h15.29v-3.4a28.55,28.55,0,0,0-.49-6.22,9.27,9.27,0,0,0-2.64-4,16.09,16.09,0,0,0-6.52-3.63,34.74,34.74,0,0,0-10.67-1.43,32.42,32.42,0,0,0-11.08,1.74A12.12,12.12,0,0,0,192,86.91c-1.25,2-1.89,5.31-1.89,9.75a17,17,0,0,0,1.78,8c1.16,2.17,4.58,4.71,10.16,7.53,9.37,4.68,11.24,5.91,11.84,6.48,1,.95,1.43,2.88,1.43,6.08,0,2.37-.36,3.89-1.13,4.76a4.84,4.84,0,0,1-3.81,1.34,3.69,3.69,0,0,1-3.67-2.08c-.33-.7-.77-2.16-.77-6.63v-4.84H190.6v4c0,.91.05,1.74.09,2.57H176.07a62.78,62.78,0,0,0-62-51.55c-34.76,0-62.94,27.93-62.94,62.37S79.34,197,114.1,197a62.77,62.77,0,0,0,62-51.67H381.4v20.51H409V145.37h12.28V123.73Zm-318,25.79a14.86,14.86,0,1,1,14.86-14.86A14.85,14.85,0,0,1,91.07,149.52ZM255.76,98.66c0-4.61.31-5.91.59-6.54.36-.82,1.28-1.81,3.61-1.81a3.29,3.29,0,0,1,3.27,2c.27.66.63,2,.63,6.31v5.44h-8.1ZM381.4,123.73H358l23.45-30Z"
     transform="translate(-51.16 -54.33)"
     id="path10"
     style="fill:#96ca50;fill-opacity:1" />
  <circle
     class="cls-3"
     cx="91.07"
     cy="134.66"
     r="14.86"
     transform="translate(-79.66 -29.81) rotate(-13.28)"
     id="circle12" />
</svg>
