<?xml version="1.0" encoding="UTF-8" standalone="no"?>
<!DOCTYPE svg PUBLIC "-//W3C//DTD SVG 1.1//EN" "http://www.w3.org/Graphics/SVG/1.1/DTD/svg11.dtd">
<svg width="100%" height="100%" viewBox="0 0 1543 595" version="1.1" xmlns="http://www.w3.org/2000/svg" xmlns:xlink="http://www.w3.org/1999/xlink" xml:space="preserve" xmlns:serif="http://www.serif.com/" style="fill-rule:evenodd;clip-rule:evenodd;stroke-linejoin:round;stroke-miterlimit:2;">
    <g transform="matrix(1,0,0,1,-213.169,-226.395)">
        <g transform="matrix(4.16667,0,0,4.16667,0,0)">
            <g transform="matrix(1,0,0,1,381.398,127.634)">
                <path d="M0,-3.9L-23.445,-3.9L0,-33.905L0,-3.9ZM-125.638,-28.97C-125.638,-33.58 -125.324,-34.887 -125.05,-35.51C-124.689,-36.336 -123.769,-37.324 -121.442,-37.324C-119.864,-37.324 -118.7,-36.598 -118.163,-35.282C-117.895,-34.624 -117.539,-33.256 -117.539,-28.97L-117.539,-23.535L-125.638,-23.535L-125.638,-28.97ZM-290.323,21.885C-298.529,21.885 -305.179,15.235 -305.179,7.029C-305.179,-1.177 -298.529,-7.827 -290.323,-7.827C-282.117,-7.827 -275.466,-1.177 -275.466,7.029C-275.466,15.235 -282.117,21.885 -290.323,21.885M27.634,-3.9L27.634,-60.14L0.56,-60.14L-46.693,-3.799L-46.693,-3.797L-59.935,-3.797L-59.935,-73.299L-86.396,-73.299L-86.396,-3.799L-100.045,-3.799C-99.913,-5.103 -99.846,-6.595 -99.846,-8.383L-99.846,-10.081L-116.361,-10.081L-116.361,-5.351C-116.361,-2.181 -116.641,-0.143 -117.244,1.063C-117.738,2.048 -118.843,3.224 -121.295,3.224C-123.362,3.224 -124.32,2.276 -124.757,1.484C-125.094,0.879 -125.542,-0.366 -125.542,-4.203L-125.542,-18.034L-99.846,-18.034L-99.846,-24.659C-99.846,-30.145 -100.546,-34.434 -101.926,-37.404C-103.267,-40.291 -105.659,-42.653 -109.032,-44.424C-112.468,-46.227 -116.925,-47.142 -122.279,-47.142C-126.646,-47.142 -130.554,-46.38 -133.893,-44.879C-137.139,-43.42 -139.499,-41.306 -140.908,-38.596C-142.354,-35.815 -143.088,-31.914 -143.088,-27L-143.088,-9.901C-143.088,-7.542 -142.974,-5.526 -142.77,-3.799L-150.189,-3.799C-150.153,-4.493 -150.109,-5.171 -150.109,-5.927C-150.109,-9.906 -150.932,-12.948 -152.556,-14.968C-154.232,-17.048 -157.905,-19.345 -163.475,-21.794C-167.91,-23.756 -170.782,-25.226 -172.252,-26.285C-173.861,-27.439 -174.82,-28.531 -175.182,-29.62C-175.502,-30.583 -175.657,-31.995 -175.657,-33.936C-175.657,-35.529 -175.287,-36.782 -174.553,-37.659C-173.77,-38.591 -172.629,-39.063 -171.164,-39.063C-169.311,-39.063 -168.094,-38.478 -167.544,-37.324C-167.252,-36.707 -166.917,-35.51 -166.917,-31.682L-166.917,-28.502L-151.632,-28.502L-151.632,-31.904C-151.632,-34.74 -151.794,-36.831 -152.115,-38.12C-152.405,-39.291 -153.294,-40.626 -154.758,-42.089C-156.241,-43.571 -158.435,-44.793 -161.277,-45.719C-164.177,-46.664 -167.767,-47.142 -171.95,-47.142C-176.151,-47.142 -179.878,-46.556 -183.026,-45.402C-186.054,-44.29 -188.213,-42.718 -189.444,-40.729C-190.7,-38.699 -191.336,-35.417 -191.336,-30.974C-191.336,-27.886 -190.737,-25.192 -189.554,-22.967C-188.396,-20.793 -184.977,-18.259 -179.394,-15.439C-170.028,-10.749 -168.158,-9.521 -167.557,-8.957C-166.585,-8.003 -166.131,-6.071 -166.131,-2.878C-166.131,-0.501 -166.487,1.011 -167.253,1.882C-168.037,2.773 -169.321,3.224 -171.067,3.224C-173.294,3.224 -174.292,2.095 -174.737,1.148C-175.069,0.442 -175.51,-1.014 -175.51,-5.484L-175.51,-10.328L-190.795,-10.328L-190.795,-6.367C-190.795,-5.453 -190.751,-4.622 -190.703,-3.799L-205.328,-3.799C-210.503,-33.08 -236.27,-55.341 -267.3,-55.341C-302.059,-55.341 -330.237,-27.417 -330.237,7.029C-330.237,41.475 -302.059,69.399 -267.3,69.399C-236.222,69.399 -210.423,47.07 -205.304,17.722L0,17.731L0,38.247L27.634,38.247L27.634,17.731L39.914,17.731L39.914,-3.9L27.634,-3.9Z" style="fill:rgb(150,202,80);fill-rule:nonzero;"/>
            </g>
        </g>
    </g>
</svg>
