<?xml version="1.0" encoding="UTF-8" standalone="no"?>
<!-- Created with Inkscape (http://www.inkscape.org/) -->

<svg
   width="117.1673mm"
   height="51.200718mm"
   viewBox="0 0 117.1673 51.200718"
   version="1.1"
   id="svg5"
   inkscape:version="1.1.1 (3bf5ae0d25, 2021-09-20)"
   sodipodi:docname="sel4_summit_PC.svg"
   inkscape:export-filename="C:\Users\Birgit Brecknell\Documents\seL4 Foundation\seL4 Summit 2022\sel4_summit_v02.png"
   inkscape:export-xdpi="96"
   inkscape:export-ydpi="96"
   xmlns:inkscape="http://www.inkscape.org/namespaces/inkscape"
   xmlns:sodipodi="http://sodipodi.sourceforge.net/DTD/sodipodi-0.dtd"
   xmlns="http://www.w3.org/2000/svg"
   xmlns:svg="http://www.w3.org/2000/svg">
  <sodipodi:namedview
     id="namedview7"
     pagecolor="#ffffff"
     bordercolor="#666666"
     borderopacity="1.0"
     inkscape:pageshadow="2"
     inkscape:pageopacity="0.0"
     inkscape:pagecheckerboard="0"
     inkscape:document-units="mm"
     showgrid="false"
     inkscape:zoom="1.8116734"
     inkscape:cx="256.94477"
     inkscape:cy="94.111886"
     inkscape:window-width="1920"
     inkscape:window-height="1001"
     inkscape:window-x="-9"
     inkscape:window-y="-9"
     inkscape:window-maximized="1"
     inkscape:current-layer="g1204"
     fit-margin-top="0"
     fit-margin-left="0"
     fit-margin-right="0"
     fit-margin-bottom="0"
     showguides="true"
     inkscape:guide-bbox="true" />
  <defs
     id="defs2">
    <rect
       x="680.69342"
       y="102.26014"
       width="15.612235"
       height="115.53054"
       id="rect9649" />
    <style
       id="style824">.cls-1,.cls-2,.cls-3{fill:#96ca4f;}.cls-2,.cls-3{stroke:#96ca4f;stroke-miterlimit:8;}.cls-3{stroke-width:0.25px;}</style>
  </defs>
  <g
     inkscape:label="Layer 1"
     inkscape:groupmode="layer"
     id="layer1">
    <text
       xml:space="preserve"
       transform="scale(0.26458333)"
       id="text9647"
       style="font-style:normal;font-weight:normal;font-size:40px;line-height:1.25;font-family:sans-serif;white-space:pre;shape-inside:url(#rect9649);fill:#000000;fill-opacity:1;stroke:none" />
    <g
       id="g1204">
      <path
         d="M 39.648388,34.603037 V 16.597678 h 6.060525 q 3.387679,0 4.428846,0.25792 1.662759,0.417588 2.735006,1.780885 1.087786,1.363299 1.087786,3.512643 0,1.952832 -0.932388,3.279284 -0.932389,1.31417 -2.330971,1.854576 -1.398583,0.528125 -4.817341,0.528125 h -2.47083 v 6.791926 z m 3.760633,-14.959432 v 5.109297 h 2.082335 q 2.097874,0 2.843784,-0.233357 0.761452,-0.233358 1.243185,-0.835174 0.481734,-0.614098 0.481734,-1.4984 0,-0.896583 -0.497273,-1.510682 -0.497274,-0.614098 -1.227646,-0.822891 -0.73037,-0.208793 -3.092421,-0.208793 z"
         style="font-weight:bold;font-stretch:condensed;font-size:28.2935px;line-height:10;font-family:Arial;-inkscape-font-specification:'Arial Bold Condensed';text-align:center;letter-spacing:5.30504px;word-spacing:0px;text-anchor:middle;fill:#96ca4f;stroke-width:0.390361"
         id="path2473" />
      <path
         d="m 74.985919,27.983059 3.651855,1.117658 q -0.854689,3.021364 -2.843784,4.421508 -1.989096,1.387862 -4.89504,1.387862 -3.651854,0 -5.920667,-2.223036 -2.610687,-2.566931 -2.610687,-6.927028 0,-4.605736 2.626228,-7.209513 2.284351,-2.259882 6.138223,-2.259882 3.139042,0 5.252455,1.694912 1.507362,1.203632 2.206652,3.574051 l -3.729553,0.859738 q -0.357416,-1.461554 -1.429662,-2.235318 -1.056707,-0.786046 -2.501909,-0.786046 -2.066795,0 -3.372139,1.424709 -1.305343,1.424707 -1.305343,4.703992 0,3.402104 1.274264,4.839094 1.274264,1.43699 3.309979,1.43699 1.491821,0 2.579607,-0.908866 1.087787,-0.921147 1.569521,-2.910825 z"
         style="font-weight:bold;font-stretch:condensed;font-size:28.2935px;line-height:10;font-family:Arial;-inkscape-font-specification:'Arial Bold Condensed';text-align:center;letter-spacing:5.30504px;word-spacing:0px;text-anchor:middle;fill:#96ca4f;stroke-width:0.390361"
         id="path2475" />
    </g>
  </g>
</svg>
