<svg width="709" height="719" viewBox="0 0 709 719" fill="none" xmlns="http://www.w3.org/2000/svg">
<rect y="270" width="709" height="449" fill="#C0DF9A"/>
<path d="M25.0227 685V661.727H29.9432V680.943H39.9205V685H25.0227ZM43.0881 685V667.545H47.929V685H43.0881ZM45.5199 665.295C44.8002 665.295 44.1828 665.057 43.6676 664.58C43.16 664.095 42.9062 663.515 42.9062 662.841C42.9062 662.174 43.16 661.602 43.6676 661.125C44.1828 660.64 44.8002 660.398 45.5199 660.398C46.2396 660.398 46.8532 660.64 47.3608 661.125C47.8759 661.602 48.1335 662.174 48.1335 662.841C48.1335 663.515 47.8759 664.095 47.3608 664.58C46.8532 665.057 46.2396 665.295 45.5199 665.295ZM59.6932 685.341C57.928 685.341 56.4015 684.966 55.1136 684.216C53.8333 683.458 52.8447 682.405 52.1477 681.057C51.4508 679.701 51.1023 678.129 51.1023 676.341C51.1023 674.538 51.4508 672.962 52.1477 671.614C52.8447 670.258 53.8333 669.205 55.1136 668.455C56.4015 667.697 57.928 667.318 59.6932 667.318C61.4583 667.318 62.9811 667.697 64.2614 668.455C65.5492 669.205 66.5417 670.258 67.2386 671.614C67.9356 672.962 68.2841 674.538 68.2841 676.341C68.2841 678.129 67.9356 679.701 67.2386 681.057C66.5417 682.405 65.5492 683.458 64.2614 684.216C62.9811 684.966 61.4583 685.341 59.6932 685.341ZM59.7159 681.591C60.5189 681.591 61.1894 681.364 61.7273 680.909C62.2652 680.447 62.6705 679.818 62.9432 679.023C63.2235 678.227 63.3636 677.322 63.3636 676.307C63.3636 675.292 63.2235 674.386 62.9432 673.591C62.6705 672.795 62.2652 672.167 61.7273 671.705C61.1894 671.242 60.5189 671.011 59.7159 671.011C58.9053 671.011 58.2235 671.242 57.6705 671.705C57.125 672.167 56.7121 672.795 56.4318 673.591C56.1591 674.386 56.0227 675.292 56.0227 676.307C56.0227 677.322 56.1591 678.227 56.4318 679.023C56.7121 679.818 57.125 680.447 57.6705 680.909C58.2235 681.364 58.9053 681.591 59.7159 681.591ZM76.2727 674.909V685H71.4318V667.545H76.0455V670.625H76.25C76.6364 669.61 77.2841 668.807 78.1932 668.216C79.1023 667.617 80.2045 667.318 81.5 667.318C82.7121 667.318 83.7689 667.583 84.6705 668.114C85.572 668.644 86.2727 669.402 86.7727 670.386C87.2727 671.364 87.5227 672.53 87.5227 673.886V685H82.6818V674.75C82.6894 673.682 82.4167 672.848 81.8636 672.25C81.3106 671.644 80.5492 671.341 79.5795 671.341C78.928 671.341 78.3523 671.481 77.8523 671.761C77.3598 672.042 76.9735 672.451 76.6932 672.989C76.4205 673.519 76.2803 674.159 76.2727 674.909ZM105.861 672.523L101.429 672.795C101.353 672.417 101.19 672.076 100.94 671.773C100.69 671.462 100.361 671.216 99.9517 671.034C99.5502 670.845 99.0691 670.75 98.5085 670.75C97.7585 670.75 97.1259 670.909 96.6108 671.227C96.0956 671.538 95.8381 671.955 95.8381 672.477C95.8381 672.894 96.0047 673.246 96.3381 673.534C96.6714 673.822 97.2434 674.053 98.054 674.227L101.213 674.864C102.91 675.212 104.175 675.773 105.009 676.545C105.842 677.318 106.259 678.333 106.259 679.591C106.259 680.735 105.921 681.739 105.247 682.602C104.58 683.466 103.664 684.14 102.497 684.625C101.338 685.102 100.001 685.341 98.4858 685.341C96.1752 685.341 94.3343 684.86 92.9631 683.898C91.5994 682.928 90.8002 681.61 90.5653 679.943L95.3267 679.693C95.4706 680.398 95.8191 680.936 96.3722 681.307C96.9252 681.67 97.6335 681.852 98.4972 681.852C99.3456 681.852 100.027 681.689 100.543 681.364C101.065 681.03 101.33 680.602 101.338 680.08C101.33 679.64 101.145 679.28 100.781 679C100.418 678.712 99.857 678.492 99.0994 678.341L96.0767 677.739C94.3722 677.398 93.1032 676.807 92.2699 675.966C91.4441 675.125 91.0312 674.053 91.0312 672.75C91.0312 671.629 91.3343 670.663 91.9403 669.852C92.554 669.042 93.4138 668.417 94.5199 667.977C95.6335 667.538 96.9366 667.318 98.429 667.318C100.634 667.318 102.368 667.784 103.634 668.716C104.906 669.648 105.649 670.917 105.861 672.523ZM130.784 673.364C130.784 675.902 130.303 678.061 129.341 679.841C128.386 681.621 127.083 682.981 125.432 683.92C123.788 684.852 121.939 685.318 119.886 685.318C117.818 685.318 115.962 684.848 114.318 683.909C112.674 682.97 111.375 681.61 110.42 679.83C109.466 678.049 108.989 675.894 108.989 673.364C108.989 670.826 109.466 668.667 110.42 666.886C111.375 665.106 112.674 663.75 114.318 662.818C115.962 661.879 117.818 661.409 119.886 661.409C121.939 661.409 123.788 661.879 125.432 662.818C127.083 663.75 128.386 665.106 129.341 666.886C130.303 668.667 130.784 670.826 130.784 673.364ZM125.795 673.364C125.795 671.72 125.549 670.333 125.057 669.205C124.572 668.076 123.886 667.22 123 666.636C122.114 666.053 121.076 665.761 119.886 665.761C118.697 665.761 117.659 666.053 116.773 666.636C115.886 667.22 115.197 668.076 114.705 669.205C114.22 670.333 113.977 671.72 113.977 673.364C113.977 675.008 114.22 676.394 114.705 677.523C115.197 678.652 115.886 679.508 116.773 680.091C117.659 680.674 118.697 680.966 119.886 680.966C121.076 680.966 122.114 680.674 123 680.091C123.886 679.508 124.572 678.652 125.057 677.523C125.549 676.394 125.795 675.008 125.795 673.364ZM147.054 668.42C146.963 667.504 146.573 666.792 145.884 666.284C145.194 665.777 144.259 665.523 143.077 665.523C142.274 665.523 141.596 665.636 141.043 665.864C140.49 666.083 140.065 666.39 139.77 666.784C139.482 667.178 139.338 667.625 139.338 668.125C139.323 668.542 139.41 668.905 139.599 669.216C139.796 669.527 140.065 669.795 140.406 670.023C140.747 670.242 141.141 670.436 141.588 670.602C142.035 670.761 142.512 670.898 143.02 671.011L145.111 671.511C146.126 671.739 147.058 672.042 147.906 672.42C148.755 672.799 149.49 673.265 150.111 673.818C150.732 674.371 151.213 675.023 151.554 675.773C151.902 676.523 152.08 677.383 152.088 678.352C152.08 679.777 151.717 681.011 150.997 682.057C150.285 683.095 149.255 683.902 147.906 684.477C146.565 685.045 144.948 685.33 143.054 685.33C141.175 685.33 139.539 685.042 138.145 684.466C136.759 683.89 135.675 683.038 134.895 681.909C134.122 680.773 133.717 679.367 133.679 677.693H138.44C138.493 678.473 138.717 679.125 139.111 679.648C139.512 680.163 140.046 680.553 140.713 680.818C141.387 681.076 142.149 681.205 142.997 681.205C143.83 681.205 144.554 681.083 145.168 680.841C145.789 680.598 146.27 680.261 146.611 679.83C146.952 679.398 147.122 678.902 147.122 678.341C147.122 677.818 146.967 677.379 146.656 677.023C146.353 676.667 145.906 676.364 145.315 676.114C144.732 675.864 144.016 675.636 143.168 675.432L140.634 674.795C138.671 674.318 137.122 673.572 135.986 672.557C134.849 671.542 134.285 670.174 134.293 668.455C134.285 667.045 134.66 665.814 135.418 664.761C136.183 663.708 137.232 662.886 138.565 662.295C139.899 661.705 141.414 661.409 143.111 661.409C144.838 661.409 146.346 661.705 147.634 662.295C148.929 662.886 149.937 663.708 150.656 664.761C151.376 665.814 151.747 667.034 151.77 668.42H147.054Z" fill="black"/>
<rect y="102" width="709" height="135" fill="#FFCA5F"/>
<path d="M256.023 121.727H262.091L268.5 137.364H268.773L275.182 121.727H281.25V145H276.477V129.852H276.284L270.261 144.886H267.011L260.989 129.795H260.795V145H256.023V121.727ZM285.213 145V127.545H290.054V145H285.213ZM287.645 125.295C286.925 125.295 286.308 125.057 285.793 124.58C285.285 124.095 285.031 123.515 285.031 122.841C285.031 122.174 285.285 121.602 285.793 121.125C286.308 120.64 286.925 120.398 287.645 120.398C288.365 120.398 288.978 120.64 289.486 121.125C290.001 121.602 290.259 122.174 290.259 122.841C290.259 123.515 290.001 124.095 289.486 124.58C288.978 125.057 288.365 125.295 287.645 125.295ZM301.818 145.341C300.03 145.341 298.492 144.962 297.205 144.205C295.924 143.439 294.939 142.379 294.25 141.023C293.568 139.667 293.227 138.106 293.227 136.341C293.227 134.553 293.572 132.985 294.261 131.636C294.958 130.28 295.947 129.223 297.227 128.466C298.508 127.701 300.03 127.318 301.795 127.318C303.318 127.318 304.652 127.595 305.795 128.148C306.939 128.701 307.845 129.477 308.511 130.477C309.178 131.477 309.545 132.652 309.614 134H305.045C304.917 133.129 304.576 132.428 304.023 131.898C303.477 131.36 302.761 131.091 301.875 131.091C301.125 131.091 300.47 131.295 299.909 131.705C299.356 132.106 298.924 132.693 298.614 133.466C298.303 134.239 298.148 135.174 298.148 136.273C298.148 137.386 298.299 138.333 298.602 139.114C298.913 139.894 299.348 140.489 299.909 140.898C300.47 141.307 301.125 141.511 301.875 141.511C302.428 141.511 302.924 141.398 303.364 141.17C303.811 140.943 304.178 140.614 304.466 140.182C304.761 139.742 304.955 139.216 305.045 138.602H309.614C309.538 139.936 309.174 141.11 308.523 142.125C307.879 143.133 306.989 143.92 305.852 144.489C304.716 145.057 303.371 145.341 301.818 145.341ZM312.713 145V127.545H317.406V130.591H317.588C317.906 129.508 318.44 128.689 319.19 128.136C319.94 127.576 320.804 127.295 321.781 127.295C322.024 127.295 322.285 127.311 322.565 127.341C322.846 127.371 323.092 127.413 323.304 127.466V131.761C323.077 131.693 322.762 131.633 322.361 131.58C321.959 131.527 321.592 131.5 321.259 131.5C320.546 131.5 319.91 131.655 319.349 131.966C318.796 132.269 318.357 132.693 318.031 133.239C317.713 133.784 317.554 134.413 317.554 135.125V145H312.713ZM332.881 145.341C331.116 145.341 329.589 144.966 328.301 144.216C327.021 143.458 326.032 142.405 325.335 141.057C324.638 139.701 324.29 138.129 324.29 136.341C324.29 134.538 324.638 132.962 325.335 131.614C326.032 130.258 327.021 129.205 328.301 128.455C329.589 127.697 331.116 127.318 332.881 127.318C334.646 127.318 336.169 127.697 337.449 128.455C338.737 129.205 339.729 130.258 340.426 131.614C341.123 132.962 341.472 134.538 341.472 136.341C341.472 138.129 341.123 139.701 340.426 141.057C339.729 142.405 338.737 143.458 337.449 144.216C336.169 144.966 334.646 145.341 332.881 145.341ZM332.903 141.591C333.706 141.591 334.377 141.364 334.915 140.909C335.453 140.447 335.858 139.818 336.131 139.023C336.411 138.227 336.551 137.322 336.551 136.307C336.551 135.292 336.411 134.386 336.131 133.591C335.858 132.795 335.453 132.167 334.915 131.705C334.377 131.242 333.706 131.011 332.903 131.011C332.093 131.011 331.411 131.242 330.858 131.705C330.313 132.167 329.9 132.795 329.619 133.591C329.347 134.386 329.21 135.292 329.21 136.307C329.21 137.322 329.347 138.227 329.619 139.023C329.9 139.818 330.313 140.447 330.858 140.909C331.411 141.364 332.093 141.591 332.903 141.591ZM344.71 145V121.727H353.892C355.657 121.727 357.161 122.064 358.403 122.739C359.646 123.405 360.593 124.333 361.244 125.523C361.903 126.705 362.233 128.068 362.233 129.614C362.233 131.159 361.9 132.523 361.233 133.705C360.566 134.886 359.6 135.807 358.335 136.466C357.078 137.125 355.555 137.455 353.767 137.455H347.915V133.511H352.972C353.919 133.511 354.699 133.348 355.312 133.023C355.934 132.689 356.396 132.231 356.699 131.648C357.009 131.057 357.165 130.379 357.165 129.614C357.165 128.841 357.009 128.167 356.699 127.591C356.396 127.008 355.934 126.557 355.312 126.239C354.691 125.913 353.903 125.75 352.949 125.75H349.631V145H344.71ZM368.327 151.545C367.713 151.545 367.137 151.496 366.599 151.398C366.069 151.307 365.63 151.189 365.281 151.045L366.372 147.432C366.94 147.606 367.452 147.701 367.906 147.716C368.368 147.731 368.766 147.625 369.099 147.398C369.44 147.17 369.717 146.784 369.929 146.239L370.213 145.5L363.952 127.545H369.043L372.656 140.364H372.838L376.486 127.545H381.611L374.827 146.886C374.501 147.826 374.058 148.644 373.497 149.341C372.944 150.045 372.243 150.587 371.395 150.966C370.546 151.352 369.524 151.545 368.327 151.545ZM393.372 127.545V131.182H382.861V127.545H393.372ZM385.247 123.364H390.088V139.636C390.088 140.083 390.156 140.432 390.293 140.682C390.429 140.924 390.618 141.095 390.861 141.193C391.111 141.292 391.399 141.341 391.724 141.341C391.952 141.341 392.179 141.322 392.406 141.284C392.634 141.239 392.808 141.205 392.929 141.182L393.69 144.784C393.448 144.86 393.107 144.947 392.668 145.045C392.228 145.152 391.694 145.216 391.065 145.239C389.899 145.284 388.876 145.129 387.997 144.773C387.126 144.417 386.448 143.864 385.963 143.114C385.478 142.364 385.24 141.417 385.247 140.273V123.364ZM401.741 134.909V145H396.901V121.727H401.605V130.625H401.81C402.204 129.595 402.84 128.788 403.719 128.205C404.598 127.614 405.7 127.318 407.026 127.318C408.238 127.318 409.295 127.583 410.196 128.114C411.105 128.636 411.81 129.39 412.31 130.375C412.817 131.352 413.067 132.523 413.06 133.886V145H408.219V134.75C408.226 133.674 407.954 132.837 407.401 132.239C406.855 131.64 406.09 131.341 405.105 131.341C404.446 131.341 403.863 131.481 403.355 131.761C402.855 132.042 402.461 132.451 402.173 132.989C401.893 133.519 401.749 134.159 401.741 134.909ZM424.756 145.341C422.991 145.341 421.464 144.966 420.176 144.216C418.896 143.458 417.907 142.405 417.21 141.057C416.513 139.701 416.165 138.129 416.165 136.341C416.165 134.538 416.513 132.962 417.21 131.614C417.907 130.258 418.896 129.205 420.176 128.455C421.464 127.697 422.991 127.318 424.756 127.318C426.521 127.318 428.044 127.697 429.324 128.455C430.612 129.205 431.604 130.258 432.301 131.614C432.998 132.962 433.347 134.538 433.347 136.341C433.347 138.129 432.998 139.701 432.301 141.057C431.604 142.405 430.612 143.458 429.324 144.216C428.044 144.966 426.521 145.341 424.756 145.341ZM424.778 141.591C425.581 141.591 426.252 141.364 426.79 140.909C427.328 140.447 427.733 139.818 428.006 139.023C428.286 138.227 428.426 137.322 428.426 136.307C428.426 135.292 428.286 134.386 428.006 133.591C427.733 132.795 427.328 132.167 426.79 131.705C426.252 131.242 425.581 131.011 424.778 131.011C423.968 131.011 423.286 131.242 422.733 131.705C422.188 132.167 421.775 132.795 421.494 133.591C421.222 134.386 421.085 135.292 421.085 136.307C421.085 137.322 421.222 138.227 421.494 139.023C421.775 139.818 422.188 140.447 422.733 140.909C423.286 141.364 423.968 141.591 424.778 141.591ZM441.335 134.909V145H436.494V127.545H441.108V130.625H441.312C441.699 129.61 442.347 128.807 443.256 128.216C444.165 127.617 445.267 127.318 446.562 127.318C447.775 127.318 448.831 127.583 449.733 128.114C450.634 128.644 451.335 129.402 451.835 130.386C452.335 131.364 452.585 132.53 452.585 133.886V145H447.744V134.75C447.752 133.682 447.479 132.848 446.926 132.25C446.373 131.644 445.612 131.341 444.642 131.341C443.991 131.341 443.415 131.481 442.915 131.761C442.422 132.042 442.036 132.451 441.756 132.989C441.483 133.519 441.343 134.159 441.335 134.909Z" fill="black"/>
<rect width="709" height="72" fill="#FFCA5F"/>
<path d="M250.453 46L247.422 29.0938H251.391L252.656 39.1406L252.859 40.75L253.156 39.1406L254.984 29.0938H257.891L259.719 39.0938L260.016 40.7031L260.234 39.0625L261.484 29.0938H265.469L262.438 46H258.625L256.766 36.9688L256.406 35.25L256.062 36.9688L254.266 46H250.453ZM276.625 46.3125C275.323 46.3125 274.141 46.099 273.078 45.6719C272.016 45.2448 271.104 44.6615 270.344 43.9219C269.583 43.1927 268.995 42.3333 268.578 41.3438C268.172 40.3438 267.969 39.276 267.969 38.1406V37.5156C267.969 36.224 268.172 35.0469 268.578 33.9844C268.984 32.9115 269.552 31.9896 270.281 31.2188C271.01 30.4479 271.875 29.849 272.875 29.4219C273.875 28.9948 274.964 28.7812 276.141 28.7812C277.359 28.7812 278.443 28.9844 279.391 29.3906C280.349 29.7865 281.161 30.349 281.828 31.0781C282.484 31.8073 282.984 32.6875 283.328 33.7188C283.672 34.7396 283.844 35.8698 283.844 37.1094V38.9531H272.375V39C272.521 39.6771 272.708 40.224 272.938 40.6406C273.167 41.0469 273.474 41.4167 273.859 41.75C274.255 42.0938 274.708 42.3594 275.219 42.5469C275.729 42.7344 276.286 42.8281 276.891 42.8281C277.745 42.8281 278.573 42.6667 279.375 42.3438C280.177 42.0208 280.828 41.5365 281.328 40.8906L283.5 43.2344C282.948 44.0156 282.073 44.724 280.875 45.3594C279.677 45.9948 278.26 46.3125 276.625 46.3125ZM276.109 32.2969C275.62 32.2969 275.172 32.3854 274.766 32.5625C274.359 32.7292 274.005 32.974 273.703 33.2969C273.391 33.6198 273.13 34.0052 272.922 34.4531C272.714 34.901 272.557 35.401 272.453 35.9531H279.578V35.6094C279.578 35.151 279.495 34.7188 279.328 34.3125C279.161 33.9062 278.932 33.5521 278.641 33.25C278.349 32.9583 277.99 32.7292 277.562 32.5625C277.146 32.3854 276.661 32.2969 276.109 32.2969ZM302.875 37.7188C302.875 38.5312 302.818 39.3021 302.703 40.0312C302.589 40.75 302.422 41.4167 302.203 42.0312C301.964 42.7083 301.646 43.3229 301.25 43.875C300.865 44.4271 300.406 44.8854 299.875 45.25C299.396 45.5938 298.854 45.8542 298.25 46.0312C297.656 46.2188 297 46.3125 296.281 46.3125C295.625 46.3125 295.026 46.2292 294.484 46.0625C293.953 45.9062 293.474 45.6719 293.047 45.3594C292.818 45.2031 292.604 45.0312 292.406 44.8438C292.208 44.6458 292.021 44.4323 291.844 44.2031L291.641 46H287.734V22H292.078V30.625C292.286 30.3854 292.51 30.1667 292.75 29.9688C292.99 29.7604 293.245 29.5833 293.516 29.4375C293.901 29.2188 294.318 29.0573 294.766 28.9531C295.224 28.8385 295.719 28.7812 296.25 28.7812C296.979 28.7812 297.646 28.875 298.25 29.0625C298.865 29.25 299.411 29.5208 299.891 29.875C300.276 30.1458 300.625 30.474 300.938 30.8594C301.25 31.2344 301.526 31.6458 301.766 32.0938C302.141 32.8125 302.417 33.6198 302.594 34.5156C302.781 35.4115 302.875 36.3698 302.875 37.3906V37.7188ZM298.531 37.3906C298.531 36.9427 298.51 36.5104 298.469 36.0938C298.427 35.6771 298.359 35.2865 298.266 34.9219C298.151 34.4948 298 34.1146 297.812 33.7812C297.635 33.4375 297.365 33.125 297 32.8438C296.76 32.6667 296.49 32.5365 296.188 32.4531C295.885 32.3594 295.542 32.3125 295.156 32.3125C294.635 32.3125 294.177 32.3854 293.781 32.5312C293.385 32.6771 293.047 32.8906 292.766 33.1719C292.63 33.3073 292.505 33.4635 292.391 33.6406C292.276 33.8073 292.172 33.9896 292.078 34.1875V40.9219C292.203 41.1823 292.344 41.4219 292.5 41.6406C292.667 41.849 292.859 42.0312 293.078 42.1875C293.339 42.3854 293.641 42.5365 293.984 42.6406C294.339 42.7448 294.74 42.7969 295.188 42.7969C295.573 42.7969 295.922 42.75 296.234 42.6562C296.547 42.5625 296.818 42.4323 297.047 42.2656C297.37 42.0365 297.63 41.7396 297.828 41.375C298.036 41 298.193 40.5781 298.297 40.1094C298.38 39.7656 298.438 39.3906 298.469 38.9844C298.51 38.5781 298.531 38.1562 298.531 37.7188V37.3906ZM317.766 41.3594C317.766 41.099 317.703 40.8698 317.578 40.6719C317.464 40.474 317.255 40.2865 316.953 40.1094C316.641 39.9427 316.229 39.7865 315.719 39.6406C315.208 39.4948 314.562 39.349 313.781 39.2031C312.792 39.0052 311.885 38.7604 311.062 38.4688C310.25 38.1667 309.552 37.8021 308.969 37.375C308.385 36.9583 307.927 36.474 307.594 35.9219C307.271 35.3698 307.109 34.7344 307.109 34.0156C307.109 33.3177 307.276 32.651 307.609 32.0156C307.943 31.3802 308.422 30.8229 309.047 30.3438C309.672 29.8646 310.432 29.4844 311.328 29.2031C312.224 28.9219 313.234 28.7812 314.359 28.7812C315.536 28.7812 316.594 28.9219 317.531 29.2031C318.469 29.474 319.266 29.849 319.922 30.3281C320.568 30.8177 321.062 31.3958 321.406 32.0625C321.75 32.7292 321.922 33.4531 321.922 34.2344H317.578C317.578 33.9531 317.531 33.6927 317.438 33.4531C317.344 33.2031 317.203 32.9792 317.016 32.7812C316.755 32.5208 316.401 32.3125 315.953 32.1562C315.516 32 314.984 31.9219 314.359 31.9219C313.828 31.9219 313.365 31.974 312.969 32.0781C312.573 32.1823 312.25 32.3281 312 32.5156C311.771 32.6823 311.594 32.8802 311.469 33.1094C311.354 33.3281 311.297 33.5625 311.297 33.8125C311.297 34.0625 311.349 34.2969 311.453 34.5156C311.557 34.724 311.745 34.9115 312.016 35.0781C312.276 35.2552 312.635 35.4167 313.094 35.5625C313.552 35.6979 314.135 35.8177 314.844 35.9219C315.865 36.0885 316.812 36.3021 317.688 36.5625C318.562 36.8229 319.318 37.1562 319.953 37.5625C320.589 37.9792 321.083 38.4844 321.438 39.0781C321.802 39.6615 321.984 40.3594 321.984 41.1719C321.984 41.9219 321.802 42.6146 321.438 43.25C321.083 43.875 320.578 44.4167 319.922 44.875C319.255 45.3333 318.453 45.6927 317.516 45.9531C316.578 46.2031 315.531 46.3281 314.375 46.3281C313.104 46.3281 311.979 46.1615 311 45.8281C310.031 45.4948 309.219 45.0573 308.562 44.5156C307.906 43.9844 307.406 43.3802 307.062 42.7031C306.729 42.0156 306.562 41.3281 306.562 40.6406H310.703C310.734 41.099 310.859 41.4948 311.078 41.8281C311.297 42.151 311.578 42.4115 311.922 42.6094C312.266 42.8177 312.656 42.9688 313.094 43.0625C313.542 43.1562 314 43.2031 314.469 43.2031C315.031 43.2031 315.521 43.1562 315.938 43.0625C316.365 42.9583 316.714 42.8229 316.984 42.6562C317.245 42.4896 317.438 42.2969 317.562 42.0781C317.698 41.8594 317.766 41.6198 317.766 41.3594ZM334.281 46.3125C332.979 46.3125 331.797 46.099 330.734 45.6719C329.672 45.2448 328.76 44.6615 328 43.9219C327.24 43.1927 326.651 42.3333 326.234 41.3438C325.828 40.3438 325.625 39.276 325.625 38.1406V37.5156C325.625 36.224 325.828 35.0469 326.234 33.9844C326.641 32.9115 327.208 31.9896 327.938 31.2188C328.667 30.4479 329.531 29.849 330.531 29.4219C331.531 28.9948 332.62 28.7812 333.797 28.7812C335.016 28.7812 336.099 28.9844 337.047 29.3906C338.005 29.7865 338.818 30.349 339.484 31.0781C340.141 31.8073 340.641 32.6875 340.984 33.7188C341.328 34.7396 341.5 35.8698 341.5 37.1094V38.9531H330.031V39C330.177 39.6771 330.365 40.224 330.594 40.6406C330.823 41.0469 331.13 41.4167 331.516 41.75C331.911 42.0938 332.365 42.3594 332.875 42.5469C333.385 42.7344 333.943 42.8281 334.547 42.8281C335.401 42.8281 336.229 42.6667 337.031 42.3438C337.833 42.0208 338.484 41.5365 338.984 40.8906L341.156 43.2344C340.604 44.0156 339.729 44.724 338.531 45.3594C337.333 45.9948 335.917 46.3125 334.281 46.3125ZM333.766 32.2969C333.276 32.2969 332.828 32.3854 332.422 32.5625C332.016 32.7292 331.661 32.974 331.359 33.2969C331.047 33.6198 330.786 34.0052 330.578 34.4531C330.37 34.901 330.214 35.401 330.109 35.9531H337.234V35.6094C337.234 35.151 337.151 34.7188 336.984 34.3125C336.818 33.9062 336.589 33.5521 336.297 33.25C336.005 32.9583 335.646 32.7292 335.219 32.5625C334.802 32.3854 334.318 32.2969 333.766 32.2969ZM357.438 28.7812C358.094 28.7812 358.698 28.8281 359.25 28.9219C359.812 29.0052 360.266 29.099 360.609 29.2031L359.969 33.5312C359.396 33.3958 358.807 33.2969 358.203 33.2344C357.609 33.1615 357.042 33.125 356.5 33.125C355.938 33.125 355.427 33.1771 354.969 33.2812C354.521 33.375 354.12 33.5208 353.766 33.7188C353.339 33.9479 352.974 34.2396 352.672 34.5938C352.37 34.9479 352.12 35.3646 351.922 35.8438V46H347.578V29.0938H351.625L351.797 31.4844L351.828 31.8594C352.516 30.901 353.339 30.151 354.297 29.6094C355.255 29.0573 356.302 28.7812 357.438 28.7812ZM369.891 46L363.438 29.0938H367.969L371.688 41.0156L371.922 42.2031L372.156 41.0156L375.859 29.0938H380.391L373.969 46H369.891ZM391.938 46.3125C390.635 46.3125 389.453 46.099 388.391 45.6719C387.328 45.2448 386.417 44.6615 385.656 43.9219C384.896 43.1927 384.307 42.3333 383.891 41.3438C383.484 40.3438 383.281 39.276 383.281 38.1406V37.5156C383.281 36.224 383.484 35.0469 383.891 33.9844C384.297 32.9115 384.865 31.9896 385.594 31.2188C386.323 30.4479 387.188 29.849 388.188 29.4219C389.188 28.9948 390.276 28.7812 391.453 28.7812C392.672 28.7812 393.755 28.9844 394.703 29.3906C395.661 29.7865 396.474 30.349 397.141 31.0781C397.797 31.8073 398.297 32.6875 398.641 33.7188C398.984 34.7396 399.156 35.8698 399.156 37.1094V38.9531H387.688V39C387.833 39.6771 388.021 40.224 388.25 40.6406C388.479 41.0469 388.786 41.4167 389.172 41.75C389.568 42.0938 390.021 42.3594 390.531 42.5469C391.042 42.7344 391.599 42.8281 392.203 42.8281C393.057 42.8281 393.885 42.6667 394.688 42.3438C395.49 42.0208 396.141 41.5365 396.641 40.8906L398.812 43.2344C398.26 44.0156 397.385 44.724 396.188 45.3594C394.99 45.9948 393.573 46.3125 391.938 46.3125ZM391.422 32.2969C390.932 32.2969 390.484 32.3854 390.078 32.5625C389.672 32.7292 389.318 32.974 389.016 33.2969C388.703 33.6198 388.443 34.0052 388.234 34.4531C388.026 34.901 387.87 35.401 387.766 35.9531H394.891V35.6094C394.891 35.151 394.807 34.7188 394.641 34.3125C394.474 33.9062 394.245 33.5521 393.953 33.25C393.661 32.9583 393.302 32.7292 392.875 32.5625C392.458 32.3854 391.974 32.2969 391.422 32.2969ZM415.094 28.7812C415.75 28.7812 416.354 28.8281 416.906 28.9219C417.469 29.0052 417.922 29.099 418.266 29.2031L417.625 33.5312C417.052 33.3958 416.464 33.2969 415.859 33.2344C415.266 33.1615 414.698 33.125 414.156 33.125C413.594 33.125 413.083 33.1771 412.625 33.2812C412.177 33.375 411.776 33.5208 411.422 33.7188C410.995 33.9479 410.63 34.2396 410.328 34.5938C410.026 34.9479 409.776 35.3646 409.578 35.8438V46H405.234V29.0938H409.281L409.453 31.4844L409.484 31.8594C410.172 30.901 410.995 30.151 411.953 29.6094C412.911 29.0573 413.958 28.7812 415.094 28.7812ZM426.562 43.4844C426.562 42.6823 426.828 42.0052 427.359 41.4531C427.891 40.8906 428.63 40.6094 429.578 40.6094C430.516 40.6094 431.25 40.8854 431.781 41.4375C432.323 41.9896 432.594 42.6719 432.594 43.4844C432.594 44.2969 432.318 44.974 431.766 45.5156C431.224 46.0469 430.495 46.3125 429.578 46.3125C428.651 46.3125 427.917 46.0417 427.375 45.5C426.833 44.9583 426.562 44.2865 426.562 43.4844ZM441.453 52.5V29.0938H445.469L445.625 30.75C445.854 30.4688 446.104 30.2188 446.375 30C446.646 29.7708 446.938 29.5729 447.25 29.4062C447.625 29.2083 448.036 29.0573 448.484 28.9531C448.943 28.8385 449.432 28.7812 449.953 28.7812C451.026 28.7812 451.974 28.9896 452.797 29.4062C453.62 29.8125 454.312 30.3906 454.875 31.1406C455.438 31.901 455.859 32.8125 456.141 33.875C456.432 34.9271 456.578 36.0938 456.578 37.375V37.7031C456.578 38.9323 456.432 40.0729 456.141 41.125C455.859 42.1771 455.443 43.0833 454.891 43.8438C454.328 44.6146 453.635 45.2188 452.812 45.6562C451.99 46.0938 451.047 46.3125 449.984 46.3125C449.422 46.3125 448.901 46.25 448.422 46.125C447.953 46.0104 447.516 45.8385 447.109 45.6094C446.87 45.4635 446.641 45.3021 446.422 45.125C446.203 44.9479 445.995 44.75 445.797 44.5312V52.5H441.453ZM452.234 37.375C452.234 36.6667 452.167 36.0052 452.031 35.3906C451.906 34.7656 451.708 34.224 451.438 33.7656C451.156 33.3177 450.797 32.9635 450.359 32.7031C449.932 32.4427 449.411 32.3125 448.797 32.3125C448.443 32.3125 448.12 32.349 447.828 32.4219C447.536 32.4844 447.271 32.5781 447.031 32.7031C446.76 32.849 446.521 33.0312 446.312 33.25C446.115 33.4688 445.943 33.724 445.797 34.0156V41.0781C445.932 41.349 446.094 41.5938 446.281 41.8125C446.479 42.0312 446.703 42.2188 446.953 42.375C447.193 42.5208 447.469 42.6354 447.781 42.7188C448.094 42.7917 448.443 42.8281 448.828 42.8281C449.443 42.8281 449.964 42.6927 450.391 42.4219C450.828 42.151 451.182 41.7812 451.453 41.3125C451.724 40.8438 451.922 40.3021 452.047 39.6875C452.172 39.0625 452.234 38.401 452.234 37.7031V37.375ZM463.281 52.8281C462.865 52.8281 462.5 52.8021 462.188 52.75C461.885 52.6979 461.547 52.6198 461.172 52.5156L461.703 49.2031C461.88 49.2031 462.104 49.2083 462.375 49.2188C462.656 49.2396 462.88 49.25 463.047 49.25C463.391 49.25 463.693 49.1406 463.953 48.9219C464.224 48.7135 464.453 48.4844 464.641 48.2344C464.828 47.9844 464.964 47.7969 465.047 47.6719C465.141 47.5469 465.25 47.3698 465.375 47.1406L466.375 45.2812L459.219 29.0938H463.969L467.844 39L468.312 40.7188L468.953 39.0312L472.812 29.0938H477.609L469.031 48.5312C468.844 48.9583 468.599 49.4219 468.297 49.9219C468.005 50.4219 467.635 50.8854 467.188 51.3125C466.74 51.7396 466.193 52.099 465.547 52.3906C464.911 52.6823 464.156 52.8281 463.281 52.8281Z" fill="black"/>
<rect x="191" y="168" width="148" height="44" fill="#FFE0A2"/>
<path d="M230.098 187.547H226.987C226.93 187.144 226.814 186.787 226.639 186.474C226.464 186.157 226.239 185.887 225.964 185.665C225.69 185.442 225.373 185.272 225.013 185.153C224.658 185.035 224.272 184.976 223.855 184.976C223.102 184.976 222.446 185.163 221.888 185.537C221.329 185.906 220.896 186.446 220.588 187.156C220.28 187.862 220.126 188.719 220.126 189.727C220.126 190.764 220.28 191.635 220.588 192.341C220.901 193.046 221.336 193.579 221.895 193.939C222.454 194.299 223.1 194.479 223.834 194.479C224.246 194.479 224.627 194.424 224.977 194.315C225.332 194.206 225.647 194.048 225.922 193.839C226.196 193.626 226.424 193.368 226.604 193.065C226.788 192.762 226.916 192.417 226.987 192.028L230.098 192.043C230.018 192.71 229.816 193.354 229.494 193.974C229.177 194.59 228.749 195.142 228.209 195.629C227.674 196.112 227.035 196.496 226.291 196.78C225.553 197.059 224.717 197.199 223.784 197.199C222.487 197.199 221.327 196.905 220.304 196.318C219.286 195.731 218.481 194.881 217.889 193.768C217.302 192.656 217.009 191.309 217.009 189.727C217.009 188.141 217.307 186.792 217.903 185.679C218.5 184.566 219.31 183.719 220.332 183.136C221.355 182.549 222.506 182.256 223.784 182.256C224.627 182.256 225.408 182.374 226.128 182.611C226.852 182.848 227.494 183.193 228.053 183.648C228.611 184.098 229.066 184.649 229.416 185.303C229.771 185.956 229.999 186.704 230.098 187.547ZM245.67 189.727C245.67 191.313 245.369 192.663 244.768 193.776C244.171 194.888 243.357 195.738 242.325 196.325C241.297 196.908 240.142 197.199 238.859 197.199C237.566 197.199 236.406 196.905 235.379 196.318C234.351 195.731 233.539 194.881 232.942 193.768C232.346 192.656 232.048 191.309 232.048 189.727C232.048 188.141 232.346 186.792 232.942 185.679C233.539 184.566 234.351 183.719 235.379 183.136C236.406 182.549 237.566 182.256 238.859 182.256C240.142 182.256 241.297 182.549 242.325 183.136C243.357 183.719 244.171 184.566 244.768 185.679C245.369 186.792 245.67 188.141 245.67 189.727ZM242.552 189.727C242.552 188.7 242.398 187.833 242.09 187.128C241.787 186.422 241.359 185.887 240.805 185.523C240.251 185.158 239.602 184.976 238.859 184.976C238.115 184.976 237.467 185.158 236.913 185.523C236.359 185.887 235.928 186.422 235.62 187.128C235.317 187.833 235.165 188.7 235.165 189.727C235.165 190.755 235.317 191.621 235.62 192.327C235.928 193.032 236.359 193.567 236.913 193.932C237.467 194.296 238.115 194.479 238.859 194.479C239.602 194.479 240.251 194.296 240.805 193.932C241.359 193.567 241.787 193.032 242.09 192.327C242.398 191.621 242.552 190.755 242.552 189.727ZM260.114 182.455V197H257.458L251.13 187.845H251.023V197H247.948V182.455H250.647L256.925 191.602H257.053V182.455H260.114ZM270.545 186.638C270.489 186.065 270.245 185.62 269.814 185.303C269.383 184.985 268.798 184.827 268.06 184.827C267.558 184.827 267.134 184.898 266.788 185.04C266.443 185.177 266.178 185.369 265.993 185.615C265.813 185.861 265.723 186.141 265.723 186.453C265.714 186.714 265.768 186.941 265.886 187.135C266.009 187.329 266.178 187.497 266.391 187.639C266.604 187.777 266.85 187.897 267.129 188.001C267.409 188.101 267.707 188.186 268.024 188.257L269.331 188.57C269.965 188.712 270.548 188.901 271.078 189.138C271.608 189.375 272.068 189.666 272.456 190.011C272.844 190.357 273.145 190.764 273.358 191.233C273.576 191.702 273.687 192.239 273.692 192.845C273.687 193.735 273.46 194.507 273.01 195.161C272.565 195.809 271.921 196.313 271.078 196.673C270.24 197.028 269.229 197.206 268.045 197.206C266.871 197.206 265.848 197.026 264.977 196.666C264.111 196.306 263.434 195.774 262.946 195.068C262.463 194.358 262.21 193.48 262.186 192.433H265.162C265.195 192.921 265.335 193.328 265.581 193.655C265.832 193.977 266.166 194.221 266.582 194.386C267.004 194.547 267.48 194.628 268.01 194.628C268.531 194.628 268.983 194.552 269.366 194.401C269.755 194.249 270.055 194.038 270.268 193.768C270.482 193.499 270.588 193.188 270.588 192.838C270.588 192.511 270.491 192.237 270.297 192.014C270.107 191.792 269.828 191.602 269.459 191.446C269.094 191.29 268.647 191.148 268.116 191.02L266.533 190.622C265.306 190.324 264.338 189.857 263.628 189.223C262.918 188.589 262.565 187.734 262.57 186.659C262.565 185.778 262.799 185.009 263.273 184.351C263.751 183.693 264.407 183.179 265.24 182.81C266.073 182.44 267.02 182.256 268.081 182.256C269.161 182.256 270.103 182.44 270.908 182.81C271.717 183.179 272.347 183.693 272.797 184.351C273.247 185.009 273.479 185.771 273.493 186.638H270.545ZM289.127 189.727C289.127 191.313 288.826 192.663 288.225 193.776C287.628 194.888 286.814 195.738 285.782 196.325C284.754 196.908 283.599 197.199 282.316 197.199C281.023 197.199 279.863 196.905 278.836 196.318C277.808 195.731 276.996 194.881 276.4 193.768C275.803 192.656 275.505 191.309 275.505 189.727C275.505 188.141 275.803 186.792 276.4 185.679C276.996 184.566 277.808 183.719 278.836 183.136C279.863 182.549 281.023 182.256 282.316 182.256C283.599 182.256 284.754 182.549 285.782 183.136C286.814 183.719 287.628 184.566 288.225 185.679C288.826 186.792 289.127 188.141 289.127 189.727ZM286.009 189.727C286.009 188.7 285.855 187.833 285.547 187.128C285.244 186.422 284.816 185.887 284.262 185.523C283.708 185.158 283.059 184.976 282.316 184.976C281.572 184.976 280.924 185.158 280.37 185.523C279.816 185.887 279.385 186.422 279.077 187.128C278.774 187.833 278.623 188.7 278.623 189.727C278.623 190.755 278.774 191.621 279.077 192.327C279.385 193.032 279.816 193.567 280.37 193.932C280.924 194.296 281.572 194.479 282.316 194.479C283.059 194.479 283.708 194.296 284.262 193.932C284.816 193.567 285.244 193.032 285.547 192.327C285.855 191.621 286.009 190.755 286.009 189.727ZM291.405 197V182.455H294.48V194.464H300.716V197H291.405ZM302.752 197V182.455H312.554V184.99H305.828V188.456H312.049V190.991H305.828V194.464H312.582V197H302.752Z" fill="black"/>
<rect x="15" y="168" width="148" height="44" fill="#FFE0A2"/>
<path d="M57.7102 184.99V182.455H69.6562V184.99H65.2031V197H62.1634V184.99H57.7102ZM74.6989 182.455V197H71.6236V182.455H74.6989ZM77.229 182.455H81.0217L85.0273 192.227H85.1978L89.2035 182.455H92.9961V197H90.0131V187.533H89.8924L86.1282 196.929H84.0969L80.3327 187.497H80.212V197H77.229V182.455ZM95.5298 197V182.455H105.331V184.99H98.6051V188.456H104.827V190.991H98.6051V194.464H105.359V197H95.5298ZM107.776 197V182.455H113.515C114.613 182.455 115.551 182.651 116.327 183.044C117.108 183.432 117.703 183.984 118.11 184.699C118.522 185.409 118.728 186.245 118.728 187.206C118.728 188.172 118.519 189.003 118.103 189.699C117.686 190.39 117.082 190.92 116.292 191.29C115.506 191.659 114.554 191.844 113.436 191.844H109.594V189.372H112.939C113.526 189.372 114.014 189.292 114.402 189.131C114.791 188.97 115.079 188.728 115.269 188.406C115.463 188.084 115.56 187.684 115.56 187.206C115.56 186.723 115.463 186.316 115.269 185.984C115.079 185.653 114.788 185.402 114.395 185.232C114.007 185.056 113.517 184.969 112.925 184.969H110.851V197H107.776ZM115.631 190.381L119.246 197H115.851L112.314 190.381H115.631Z" fill="black"/>
<rect x="192" y="533" width="147" height="59" fill="#668B37"/>
<path d="M239.339 559.453C239.273 558.833 238.994 558.35 238.501 558.004C238.014 557.659 237.379 557.486 236.598 557.486C236.049 557.486 235.578 557.569 235.185 557.734C234.792 557.9 234.491 558.125 234.283 558.409C234.074 558.693 233.968 559.018 233.963 559.382C233.963 559.685 234.032 559.948 234.169 560.17C234.311 560.393 234.503 560.582 234.744 560.739C234.986 560.89 235.253 561.018 235.547 561.122C235.84 561.226 236.136 561.314 236.435 561.385L237.798 561.726C238.348 561.854 238.875 562.027 239.382 562.244C239.893 562.462 240.35 562.737 240.753 563.068C241.16 563.4 241.482 563.8 241.719 564.268C241.955 564.737 242.074 565.286 242.074 565.916C242.074 566.768 241.856 567.519 241.42 568.168C240.985 568.812 240.355 569.316 239.531 569.68C238.712 570.04 237.72 570.22 236.555 570.22C235.424 570.22 234.441 570.045 233.608 569.695C232.779 569.344 232.131 568.833 231.662 568.161C231.198 567.488 230.947 566.669 230.909 565.703H233.501C233.539 566.21 233.696 566.631 233.97 566.967C234.245 567.304 234.602 567.554 235.043 567.72C235.488 567.886 235.985 567.969 236.534 567.969C237.107 567.969 237.609 567.884 238.04 567.713C238.475 567.538 238.816 567.296 239.062 566.989C239.309 566.676 239.434 566.312 239.439 565.895C239.434 565.516 239.323 565.204 239.105 564.957C238.887 564.706 238.582 564.498 238.189 564.332C237.801 564.162 237.346 564.01 236.825 563.878L235.17 563.452C233.973 563.144 233.026 562.678 232.33 562.053C231.638 561.423 231.293 560.587 231.293 559.545C231.293 558.688 231.525 557.938 231.989 557.294C232.457 556.65 233.094 556.151 233.899 555.795C234.704 555.436 235.616 555.256 236.634 555.256C237.666 555.256 238.57 555.436 239.347 555.795C240.128 556.151 240.741 556.645 241.186 557.28C241.631 557.91 241.861 558.634 241.875 559.453H239.339ZM244.423 570V555.455H253.883V557.663H247.058V561.612H253.393V563.821H247.058V567.791H253.94V570H244.423ZM256.571 570V555.455H262.026C263.143 555.455 264.081 555.649 264.838 556.037C265.601 556.425 266.176 556.97 266.564 557.67C266.957 558.366 267.154 559.179 267.154 560.107C267.154 561.039 266.955 561.849 266.557 562.536C266.164 563.217 265.584 563.745 264.817 564.119C264.05 564.489 263.108 564.673 261.99 564.673H258.105V562.486H261.635C262.289 562.486 262.824 562.396 263.24 562.216C263.657 562.031 263.965 561.764 264.164 561.413C264.367 561.058 264.469 560.623 264.469 560.107C264.469 559.59 264.367 559.15 264.164 558.786C263.96 558.416 263.65 558.137 263.233 557.947C262.817 557.753 262.279 557.656 261.621 557.656H259.206V570H256.571ZM264.086 563.409L267.686 570H264.746L261.209 563.409H264.086ZM272.214 555.455V570H269.579V555.455H272.214ZM276.935 570H274.123L279.244 555.455H282.496L287.624 570H284.812L280.927 558.438H280.813L276.935 570ZM277.028 564.297H284.698V566.413H277.028V564.297ZM289.54 570V555.455H292.175V567.791H298.581V570H289.54Z" fill="white"/>
<rect x="481" y="424" width="147" height="59" fill="#668B37"/>
<path d="M534.381 446.455L538.166 457.903H538.315L542.094 446.455H544.991L539.864 461H536.611L531.49 446.455H534.381ZM549.542 446.455V461H546.907V446.455H549.542ZM552.396 461V446.455H557.85C558.968 446.455 559.905 446.649 560.663 447.037C561.425 447.425 562 447.97 562.388 448.67C562.781 449.366 562.978 450.179 562.978 451.107C562.978 452.039 562.779 452.849 562.381 453.536C561.988 454.217 561.408 454.745 560.641 455.119C559.874 455.489 558.932 455.673 557.815 455.673H553.93V453.486H557.46C558.113 453.486 558.648 453.396 559.065 453.216C559.481 453.031 559.789 452.764 559.988 452.413C560.192 452.058 560.293 451.623 560.293 451.107C560.293 450.59 560.192 450.15 559.988 449.786C559.784 449.416 559.474 449.137 559.058 448.947C558.641 448.753 558.103 448.656 557.445 448.656H555.031V461H552.396ZM559.91 454.409L563.511 461H560.57L557.033 454.409H559.91ZM564.764 448.663V446.455H576.369V448.663H571.874V461H569.26V448.663H564.764Z" fill="white"/>
<rect x="16" y="533" width="147" height="59" fill="#668B37"/>
<path d="M58.7955 557.663V555.455H70.4006V557.663H65.9048V570H63.2912V557.663H58.7955ZM75.2727 555.455V570H72.6378V555.455H75.2727ZM78.1261 555.455H81.3505L85.6687 565.994H85.8391L90.1573 555.455H93.3817V570H90.8533V560.007H90.7184L86.6985 569.957H84.8093L80.7894 559.986H80.6545V570H78.1261V555.455ZM96.2511 570V555.455H105.711V557.663H98.886V561.612H105.221V563.821H98.886V567.791H105.768V570H96.2511ZM108.4 570V555.455H113.854C114.971 555.455 115.909 555.649 116.667 556.037C117.429 556.425 118.004 556.97 118.392 557.67C118.785 558.366 118.982 559.179 118.982 560.107C118.982 561.039 118.783 561.849 118.385 562.536C117.992 563.217 117.412 563.745 116.645 564.119C115.878 564.489 114.936 564.673 113.819 564.673H109.934V562.486H113.463C114.117 562.486 114.652 562.396 115.069 562.216C115.485 562.031 115.793 561.764 115.992 561.413C116.195 561.058 116.297 560.623 116.297 560.107C116.297 559.59 116.195 559.15 115.992 558.786C115.788 558.416 115.478 558.137 115.061 557.947C114.645 557.753 114.107 557.656 113.449 557.656H111.034V570H108.4ZM115.914 563.409L119.515 570H116.574L113.037 563.409H115.914Z" fill="white"/>
<rect x="367" y="307" width="147" height="106" fill="#668B37"/>
<path d="M433.388 328.455V343H431.044L424.19 333.092H424.07V343H421.435V328.455H423.793L430.639 338.369H430.767V328.455H433.388ZM436.259 343V328.455H445.577V330.663H438.894V334.612H444.938V336.821H438.894V343H436.259ZM455.882 332.453C455.816 331.833 455.537 331.35 455.044 331.004C454.557 330.659 453.922 330.486 453.141 330.486C452.592 330.486 452.121 330.569 451.728 330.734C451.335 330.9 451.034 331.125 450.826 331.409C450.617 331.693 450.511 332.018 450.506 332.382C450.506 332.685 450.575 332.948 450.712 333.17C450.854 333.393 451.046 333.582 451.287 333.739C451.529 333.89 451.796 334.018 452.09 334.122C452.383 334.226 452.679 334.314 452.978 334.385L454.341 334.726C454.891 334.854 455.418 335.027 455.925 335.244C456.436 335.462 456.893 335.737 457.296 336.068C457.703 336.4 458.025 336.8 458.262 337.268C458.498 337.737 458.617 338.286 458.617 338.916C458.617 339.768 458.399 340.519 457.963 341.168C457.528 341.812 456.898 342.316 456.074 342.68C455.255 343.04 454.263 343.22 453.098 343.22C451.967 343.22 450.984 343.045 450.151 342.695C449.322 342.344 448.674 341.833 448.205 341.161C447.741 340.488 447.49 339.669 447.452 338.703H450.044C450.082 339.21 450.239 339.631 450.513 339.967C450.788 340.304 451.145 340.554 451.586 340.72C452.031 340.886 452.528 340.969 453.077 340.969C453.65 340.969 454.152 340.884 454.583 340.713C455.018 340.538 455.359 340.296 455.605 339.989C455.852 339.676 455.977 339.312 455.982 338.895C455.977 338.516 455.866 338.204 455.648 337.957C455.43 337.706 455.125 337.498 454.732 337.332C454.344 337.162 453.889 337.01 453.368 336.878L451.713 336.452C450.516 336.144 449.569 335.678 448.873 335.053C448.181 334.423 447.836 333.587 447.836 332.545C447.836 331.688 448.068 330.938 448.532 330.294C449 329.65 449.637 329.151 450.442 328.795C451.247 328.436 452.158 328.256 453.176 328.256C454.209 328.256 455.113 328.436 455.89 328.795C456.671 329.151 457.284 329.645 457.729 330.28C458.174 330.91 458.404 331.634 458.418 332.453H455.882Z" fill="white"/>
<rect x="392" y="357" width="97" height="44" fill="#4C6729"/>
<path d="M416.264 386V371.455H419.339V383.464H425.575V386H416.264ZM430.066 386L425.904 371.455H429.263L431.671 381.561H431.792L434.448 371.455H437.324L439.973 381.582H440.101L442.509 371.455H445.868L441.706 386H438.709L435.939 376.49H435.826L433.063 386H430.066ZM450.589 371.455V386H447.514V371.455H450.589ZM453.12 386V371.455H458.858C459.962 371.455 460.901 371.665 461.678 372.087C462.454 372.503 463.046 373.083 463.453 373.827C463.865 374.565 464.071 375.418 464.071 376.384C464.071 377.349 463.863 378.202 463.446 378.94C463.03 379.679 462.426 380.254 461.635 380.666C460.849 381.078 459.898 381.284 458.78 381.284H455.123V378.82H458.283C458.875 378.82 459.363 378.718 459.746 378.514C460.134 378.306 460.423 378.019 460.613 377.655C460.807 377.286 460.904 376.862 460.904 376.384C460.904 375.901 460.807 375.479 460.613 375.119C460.423 374.755 460.134 374.473 459.746 374.274C459.358 374.071 458.865 373.969 458.269 373.969H456.195V386H453.12Z" fill="white"/>
<rect x="481" y="533" width="147" height="59" fill="#668B37"/>
<path d="M502.435 570V555.455H511.895V557.663H505.07V561.612H511.405V563.821H505.07V567.791H511.952V570H502.435ZM513.944 557.663V555.455H525.549V557.663H521.053V570H518.44V557.663H513.944ZM527.786 570V555.455H530.421V561.612H537.161V555.455H539.803V570H537.161V563.821H530.421V570H527.786ZM542.669 570V555.455H552.129V557.663H545.304V561.612H551.639V563.821H545.304V567.791H552.186V570H542.669ZM554.817 570V555.455H560.272C561.389 555.455 562.327 555.649 563.085 556.037C563.847 556.425 564.422 556.97 564.81 557.67C565.203 558.366 565.4 559.179 565.4 560.107C565.4 561.039 565.201 561.849 564.803 562.536C564.41 563.217 563.83 563.745 563.063 564.119C562.296 564.489 561.354 564.673 560.237 564.673H556.352V562.486H559.881C560.535 562.486 561.07 562.396 561.487 562.216C561.903 562.031 562.211 561.764 562.41 561.413C562.613 561.058 562.715 560.623 562.715 560.107C562.715 559.59 562.613 559.15 562.41 558.786C562.206 558.416 561.896 558.137 561.479 557.947C561.063 557.753 560.525 557.656 559.867 557.656H557.452V570H554.817ZM562.332 563.409L565.933 570H562.992L559.455 563.409H562.332ZM579.778 555.455V570H577.435L570.581 560.092H570.46V570H567.825V555.455H570.183L577.03 565.369H577.158V555.455H579.778ZM582.65 570V555.455H592.11V557.663H585.284V561.612H591.62V563.821H585.284V567.791H592.167V570H582.65ZM594.159 557.663V555.455H605.764V557.663H601.268V570H598.654V557.663H594.159Z" fill="white"/>
<rect x="191" y="307" width="147" height="59" fill="#668B37"/>
<path d="M244.381 329.455L248.166 340.903H248.315L252.094 329.455H254.991L249.864 344H246.611L241.49 329.455H244.381ZM259.542 329.455V344H256.907V329.455H259.542ZM262.396 344V329.455H267.85C268.968 329.455 269.905 329.649 270.663 330.037C271.425 330.425 272 330.97 272.388 331.67C272.781 332.366 272.978 333.179 272.978 334.107C272.978 335.039 272.779 335.849 272.381 336.536C271.988 337.217 271.408 337.745 270.641 338.119C269.874 338.489 268.932 338.673 267.815 338.673H263.93V336.486H267.46C268.113 336.486 268.648 336.396 269.065 336.216C269.481 336.031 269.789 335.764 269.988 335.413C270.192 335.058 270.293 334.623 270.293 334.107C270.293 333.59 270.192 333.15 269.988 332.786C269.784 332.416 269.474 332.137 269.058 331.947C268.641 331.753 268.103 331.656 267.445 331.656H265.031V344H262.396ZM269.91 337.409L273.511 344H270.57L267.033 337.409H269.91ZM274.764 331.663V329.455H286.369V331.663H281.874V344H279.26V331.663H274.764Z" fill="white"/>
<rect x="367" y="168" width="148" height="44" fill="#FFE0A2"/>
<path d="M424.892 182.455L428.408 193.506H428.543L432.065 182.455H435.474L430.46 197H426.497L421.476 182.455H424.892ZM437.225 197V182.455H446.856V184.99H440.3V188.456H446.217V190.991H440.3V197H437.225ZM456.815 186.638C456.758 186.065 456.514 185.62 456.083 185.303C455.653 184.985 455.068 184.827 454.329 184.827C453.827 184.827 453.404 184.898 453.058 185.04C452.712 185.177 452.447 185.369 452.262 185.615C452.083 185.861 451.993 186.141 451.993 186.453C451.983 186.714 452.038 186.941 452.156 187.135C452.279 187.329 452.447 187.497 452.66 187.639C452.873 187.777 453.119 187.897 453.399 188.001C453.678 188.101 453.976 188.186 454.294 188.257L455.6 188.57C456.235 188.712 456.817 188.901 457.348 189.138C457.878 189.375 458.337 189.666 458.725 190.011C459.114 190.357 459.414 190.764 459.627 191.233C459.845 191.702 459.957 192.239 459.961 192.845C459.957 193.735 459.729 194.507 459.279 195.161C458.834 195.809 458.19 196.313 457.348 196.673C456.51 197.028 455.499 197.206 454.315 197.206C453.141 197.206 452.118 197.026 451.247 196.666C450.38 196.306 449.703 195.774 449.216 195.068C448.733 194.358 448.479 193.48 448.456 192.433H451.431C451.465 192.921 451.604 193.328 451.85 193.655C452.101 193.977 452.435 194.221 452.852 194.386C453.273 194.547 453.749 194.628 454.279 194.628C454.8 194.628 455.252 194.552 455.636 194.401C456.024 194.249 456.325 194.038 456.538 193.768C456.751 193.499 456.858 193.188 456.858 192.838C456.858 192.511 456.761 192.237 456.566 192.014C456.377 191.792 456.098 191.602 455.728 191.446C455.364 191.29 454.916 191.148 454.386 191.02L452.802 190.622C451.576 190.324 450.608 189.857 449.897 189.223C449.187 188.589 448.834 187.734 448.839 186.659C448.834 185.778 449.069 185.009 449.542 184.351C450.02 183.693 450.676 183.179 451.51 182.81C452.343 182.44 453.29 182.256 454.35 182.256C455.43 182.256 456.372 182.44 457.177 182.81C457.987 183.179 458.617 183.693 459.066 184.351C459.516 185.009 459.748 185.771 459.762 186.638H456.815Z" fill="black"/>
<rect x="543" y="168" width="148" height="44" fill="#FFE0A2"/>
<path d="M593.264 197V182.455H596.339V194.464H602.575V197H593.264ZM607.066 197L602.904 182.455H606.263L608.671 192.561H608.792L611.448 182.455H614.324L616.973 192.582H617.101L619.509 182.455H622.868L618.706 197H615.709L612.939 187.49H612.826L610.063 197H607.066ZM627.589 182.455V197H624.514V182.455H627.589ZM630.12 197V182.455H635.858C636.962 182.455 637.901 182.665 638.678 183.087C639.454 183.503 640.046 184.083 640.453 184.827C640.865 185.565 641.071 186.418 641.071 187.384C641.071 188.349 640.863 189.202 640.446 189.94C640.03 190.679 639.426 191.254 638.635 191.666C637.849 192.078 636.898 192.284 635.78 192.284H632.123V189.82H635.283C635.875 189.82 636.363 189.718 636.746 189.514C637.134 189.306 637.423 189.019 637.613 188.655C637.807 188.286 637.904 187.862 637.904 187.384C637.904 186.901 637.807 186.479 637.613 186.119C637.423 185.755 637.134 185.473 636.746 185.274C636.358 185.071 635.865 184.969 635.269 184.969H633.195V197H630.12Z" fill="black"/>
<path d="M441 212L429.243 231.877L452.336 232.12L441 212ZM440 307L451.757 287.123L428.664 286.88L440 307ZM438.811 229.978L438.19 288.98L442.189 289.022L442.81 230.02L438.811 229.978Z" fill="black"/>
<path d="M264 212L252.243 231.877L275.336 232.12L264 212ZM263 307L274.757 287.123L251.664 286.88L263 307ZM261.811 229.978L261.19 288.98L265.189 289.022L265.81 230.02L261.811 229.978Z" fill="black"/>
<path d="M265 366L253.453 386L276.547 386L265 366ZM265 533L276.547 513L253.453 513L265 533ZM263 384L263 515L267 515L267 384L263 384Z" fill="black"/>
<path d="M89 212L77.453 232L100.547 232L89 212ZM89 533L100.547 513L77.453 513L89 533ZM87 230L87 515L91 515L91 230L87 230Z" fill="black"/>
<path fill-rule="evenodd" clip-rule="evenodd" d="M440 413L428.884 433.065L438.431 433.007L439 459.462V461.452H461V470.999L481 459.452L461 447.905V457.452H442.957L442.43 432.983L451.977 432.926L440 413Z" fill="black"/>
<path d="M609 212L597.453 232L620.547 232L609 212ZM609 424L620.547 404L597.453 404L609 424ZM607 230L607 406L611 406L611 230L607 230Z" fill="black"/>
<path d="M554 483L542.453 503L565.547 503L554 483ZM554 533L565.547 513L542.453 513L554 533ZM552 501L552 515L556 515L556 501L552 501Z" fill="black"/>
</svg>
