<svg width="2984" height="1417" xmlns="http://www.w3.org/2000/svg" xmlns:xlink="http://www.w3.org/1999/xlink" xml:space="preserve" overflow="hidden"><g transform="translate(-595 -540)"><g><rect x="1208" y="687" width="2368" height="272" fill="#9AA8BC" fill-opacity="1"/><text fill="#000000" fill-opacity="1" font-family="Roboto,Roboto_MSFontService,sans-serif" font-style="normal" font-variant="normal" font-weight="400" font-stretch="normal" font-size="83" text-anchor="start" direction="ltr" writing-mode="lr-tb" unicode-bidi="normal" text-decoration="none" transform="matrix(1 0 0 1 1240.75 852)">Runtime</text><rect x="2998" y="794" width="249" height="131" fill="#47678B" fill-opacity="1"/><text fill="#FFFFFF" fill-opacity="1" font-family="Roboto,Roboto_MSFontService,sans-serif" font-style="normal" font-variant="normal" font-weight="400" font-stretch="normal" font-size="83" text-anchor="start" direction="ltr" writing-mode="lr-tb" unicode-bidi="normal" text-decoration="none" transform="matrix(1 0 0 1 3044.35 888)">lwIP</text><rect x="2597" y="792" width="248" height="131" fill="#47678B" fill-opacity="1"/><text fill="#FFFFFF" fill-opacity="1" font-family="Roboto,Roboto_MSFontService,sans-serif" font-style="normal" font-variant="normal" font-weight="400" font-stretch="normal" font-size="83" text-anchor="start" direction="ltr" writing-mode="lr-tb" unicode-bidi="normal" text-decoration="none" transform="matrix(1 0 0 1 2646.84 886)">VFS</text><rect x="2088" y="786" width="248" height="131" fill="#47678B" fill-opacity="1"/><text fill="#FFFFFF" fill-opacity="1" font-family="Roboto,Roboto_MSFontService,sans-serif" font-style="normal" font-variant="normal" font-weight="400" font-stretch="normal" font-size="83" text-anchor="start" direction="ltr" writing-mode="lr-tb" unicode-bidi="normal" text-decoration="none" transform="matrix(1 0 0 1 2105.41 880)">Timer</text><rect x="1672" y="784" width="371" height="131" fill="#47678B" fill-opacity="1"/><text fill="#FFFFFF" fill-opacity="1" font-family="Roboto,Roboto_MSFontService,sans-serif" font-style="normal" font-variant="normal" font-weight="400" font-stretch="normal" font-size="83" text-anchor="start" direction="ltr" writing-mode="lr-tb" unicode-bidi="normal" text-decoration="none" transform="matrix(1 0 0 1 1707.77 878)">Console</text><rect x="1208" y="545" width="2368" height="199" fill="#FFE6B1" fill-opacity="1"/><text fill="#000000" fill-opacity="1" font-family="Roboto,Roboto_MSFontService,sans-serif" font-style="normal" font-variant="normal" font-weight="400" font-stretch="normal" font-size="83" text-anchor="start" direction="ltr" writing-mode="lr-tb" unicode-bidi="normal" text-decoration="none" transform="matrix(1 0 0 1 1240.75 673)">Application</text><rect x="1828" y="579" width="588" height="131" fill="#C59C52" fill-opacity="1"/><text fill="#FFFFFF" fill-opacity="1" font-family="Roboto,Roboto_MSFontService,sans-serif" font-style="normal" font-variant="normal" font-weight="400" font-stretch="normal" font-size="83" text-anchor="start" direction="ltr" writing-mode="lr-tb" unicode-bidi="normal" text-decoration="none" transform="matrix(1 0 0 1 1879.69 673)">webserver.py</text><rect x="2647" y="584" width="588" height="131" fill="#C59C52" fill-opacity="1"/><text fill="#FFFFFF" fill-opacity="1" font-family="Roboto,Roboto_MSFontService,sans-serif" font-style="normal" font-variant="normal" font-weight="400" font-stretch="normal" font-size="83" text-anchor="start" direction="ltr" writing-mode="lr-tb" unicode-bidi="normal" text-decoration="none" transform="matrix(1 0 0 1 2775.34 678)">Microdot</text><text fill="#000000" fill-opacity="1" font-family="Roboto,Roboto_MSFontService,sans-serif" font-style="normal" font-variant="normal" font-weight="400" font-stretch="normal" font-size="83" text-anchor="start" direction="ltr" writing-mode="lr-tb" unicode-bidi="normal" text-decoration="none" transform="matrix(1 0 0 1 662.386 772)">MicroPython</text><rect x="1205" y="1053" width="2368" height="900" fill="#CBE4AA" fill-opacity="1"/><rect x="1891" y="1634" width="287" height="226" fill="#789A47" fill-opacity="1"/><text fill="#FFFFFF" fill-opacity="1" font-family="Roboto,Roboto_MSFontService,sans-serif" font-style="normal" font-variant="normal" font-weight="400" font-stretch="normal" font-size="83" text-anchor="start" direction="ltr" writing-mode="lr-tb" unicode-bidi="normal" text-decoration="none" transform="matrix(1 0 0 1 1928.07 1726)">Timer</text><text fill="#FFFFFF" fill-opacity="1" font-family="Roboto,Roboto_MSFontService,sans-serif" font-style="normal" font-variant="normal" font-weight="400" font-stretch="normal" font-size="83" text-anchor="start" direction="ltr" writing-mode="lr-tb" unicode-bidi="normal" text-decoration="none" transform="matrix(1 0 0 1 1927.49 1825)">Driver</text><rect x="2120" y="1228" width="305" height="328" fill="#789A47" fill-opacity="1"/><text fill="#FFFFFF" fill-opacity="1" font-family="Roboto,Roboto_MSFontService,sans-serif" font-style="normal" font-variant="normal" font-weight="400" font-stretch="normal" font-size="83" text-anchor="start" direction="ltr" writing-mode="lr-tb" unicode-bidi="normal" text-decoration="none" transform="matrix(1 0 0 1 2195.47 1323)">NFS</text><rect x="2150" y="1371" width="248" height="111" fill="#47678B" fill-opacity="1"/><text fill="#FFFFFF" fill-opacity="1" font-family="Roboto,Roboto_MSFontService,sans-serif" font-style="normal" font-variant="normal" font-weight="400" font-stretch="normal" font-size="83" text-anchor="start" direction="ltr" writing-mode="lr-tb" unicode-bidi="normal" text-decoration="none" transform="matrix(1 0 0 1 2195.87 1455)">lwIP</text><rect x="1384" y="1634" width="287" height="226" fill="#789A47" fill-opacity="1"/><text fill="#FFFFFF" fill-opacity="1" font-family="Roboto,Roboto_MSFontService,sans-serif" font-style="normal" font-variant="normal" font-weight="400" font-stretch="normal" font-size="83" text-anchor="start" direction="ltr" writing-mode="lr-tb" unicode-bidi="normal" text-decoration="none" transform="matrix(1 0 0 1 1424.59 1726)">Serial</text><text fill="#FFFFFF" fill-opacity="1" font-family="Roboto,Roboto_MSFontService,sans-serif" font-style="normal" font-variant="normal" font-weight="400" font-stretch="normal" font-size="83" text-anchor="start" direction="ltr" writing-mode="lr-tb" unicode-bidi="normal" text-decoration="none" transform="matrix(1 0 0 1 1420.28 1825)">Driver</text><rect x="1240" y="1249" width="286" height="104" fill="#789A47" fill-opacity="1"/><text fill="#FFFFFF" fill-opacity="1" font-family="Roboto,Roboto_MSFontService,sans-serif" font-style="normal" font-variant="normal" font-weight="400" font-stretch="normal" font-size="83" text-anchor="start" direction="ltr" writing-mode="lr-tb" unicode-bidi="normal" text-decoration="none" transform="matrix(1 0 0 1 1262.75 1330)">Tx</text><text fill="#FFFFFF" fill-opacity="1" font-family="Roboto,Roboto_MSFontService,sans-serif" font-style="normal" font-variant="normal" font-weight="400" font-stretch="normal" font-size="83" text-anchor="start" direction="ltr" writing-mode="lr-tb" unicode-bidi="normal" text-decoration="none" transform="matrix(1 0 0 1 1352.7 1330)">-</text><text fill="#FFFFFF" fill-opacity="1" font-family="Roboto,Roboto_MSFontService,sans-serif" font-style="normal" font-variant="normal" font-weight="400" font-stretch="normal" font-size="83" text-anchor="start" direction="ltr" writing-mode="lr-tb" unicode-bidi="normal" text-decoration="none" transform="matrix(1 0 0 1 1375.61 1330)">Virt</text><rect x="1587" y="1249" width="286" height="105" fill="#789A47" fill-opacity="1"/><text fill="#FFFFFF" fill-opacity="1" font-family="Roboto,Roboto_MSFontService,sans-serif" font-style="normal" font-variant="normal" font-weight="400" font-stretch="normal" font-size="83" text-anchor="start" direction="ltr" writing-mode="lr-tb" unicode-bidi="normal" text-decoration="none" transform="matrix(1 0 0 1 1608.89 1330)">Rx</text><text fill="#FFFFFF" fill-opacity="1" font-family="Roboto,Roboto_MSFontService,sans-serif" font-style="normal" font-variant="normal" font-weight="400" font-stretch="normal" font-size="83" text-anchor="start" direction="ltr" writing-mode="lr-tb" unicode-bidi="normal" text-decoration="none" transform="matrix(1 0 0 1 1700.55 1330)">-</text><text fill="#FFFFFF" fill-opacity="1" font-family="Roboto,Roboto_MSFontService,sans-serif" font-style="normal" font-variant="normal" font-weight="400" font-stretch="normal" font-size="83" text-anchor="start" direction="ltr" writing-mode="lr-tb" unicode-bidi="normal" text-decoration="none" transform="matrix(1 0 0 1 1723.47 1330)">Virt</text><path d="M1510.98 1613.13 1390.21 1378.29 1399.38 1373.57 1520.15 1608.41ZM1526.96 1599.11 1527.36 1633.7 1499.45 1613.26ZM1383.39 1387.59 1383 1353 1410.91 1373.44Z" fill="#000000" fill-rule="nonzero" fill-opacity="1"/><path d="M19.2837 17.8718 191.714 256.371 183.356 262.413 10.9266 23.9139ZM5.59041 34.1344 0 0 30.6618 16.0083ZM197.05 246.15 202.64 280.285 171.978 264.276Z" fill="#000000" fill-rule="nonzero" fill-opacity="1" transform="matrix(1 0 0 -1 1527 1634.28)"/><rect x="2954" y="1630" width="341" height="227" fill="#789A47" fill-opacity="1"/><text fill="#FFFFFF" fill-opacity="1" font-family="Roboto,Roboto_MSFontService,sans-serif" font-style="normal" font-variant="normal" font-weight="400" font-stretch="normal" font-size="83" text-anchor="start" direction="ltr" writing-mode="lr-tb" unicode-bidi="normal" text-decoration="none" transform="matrix(1 0 0 1 2971.19 1723)">Ethernet</text><text fill="#FFFFFF" fill-opacity="1" font-family="Roboto,Roboto_MSFontService,sans-serif" font-style="normal" font-variant="normal" font-weight="400" font-stretch="normal" font-size="83" text-anchor="start" direction="ltr" writing-mode="lr-tb" unicode-bidi="normal" text-decoration="none" transform="matrix(1 0 0 1 3017.6 1822)">Driver</text><rect x="2595" y="1410" width="303" height="103" fill="#789A47" fill-opacity="1"/><text fill="#FFFFFF" fill-opacity="1" font-family="Roboto,Roboto_MSFontService,sans-serif" font-style="normal" font-variant="normal" font-weight="400" font-stretch="normal" font-size="83" text-anchor="start" direction="ltr" writing-mode="lr-tb" unicode-bidi="normal" text-decoration="none" transform="matrix(1 0 0 1 2626.15 1490)">Tx</text><text fill="#FFFFFF" fill-opacity="1" font-family="Roboto,Roboto_MSFontService,sans-serif" font-style="normal" font-variant="normal" font-weight="400" font-stretch="normal" font-size="83" text-anchor="start" direction="ltr" writing-mode="lr-tb" unicode-bidi="normal" text-decoration="none" transform="matrix(1 0 0 1 2716.1 1490)">-</text><text fill="#FFFFFF" fill-opacity="1" font-family="Roboto,Roboto_MSFontService,sans-serif" font-style="normal" font-variant="normal" font-weight="400" font-stretch="normal" font-size="83" text-anchor="start" direction="ltr" writing-mode="lr-tb" unicode-bidi="normal" text-decoration="none" transform="matrix(1 0 0 1 2739.01 1490)">Virt</text><rect x="3163" y="1409" width="341" height="103" fill="#789A47" fill-opacity="1"/><text fill="#FFFFFF" fill-opacity="1" font-family="Roboto,Roboto_MSFontService,sans-serif" font-style="normal" font-variant="normal" font-weight="400" font-stretch="normal" font-size="83" text-anchor="start" direction="ltr" writing-mode="lr-tb" unicode-bidi="normal" text-decoration="none" transform="matrix(1 0 0 1 3212.22 1489)">Rx</text><text fill="#FFFFFF" fill-opacity="1" font-family="Roboto,Roboto_MSFontService,sans-serif" font-style="normal" font-variant="normal" font-weight="400" font-stretch="normal" font-size="83" text-anchor="start" direction="ltr" writing-mode="lr-tb" unicode-bidi="normal" text-decoration="none" transform="matrix(1 0 0 1 3303.88 1489)">-</text><text fill="#FFFFFF" fill-opacity="1" font-family="Roboto,Roboto_MSFontService,sans-serif" font-style="normal" font-variant="normal" font-weight="400" font-stretch="normal" font-size="83" text-anchor="start" direction="ltr" writing-mode="lr-tb" unicode-bidi="normal" text-decoration="none" transform="matrix(1 0 0 1 3326.8 1489)">Virt</text><rect x="2828" y="1258" width="268" height="102" fill="#789A47" fill-opacity="1"/><text fill="#FFFFFF" fill-opacity="1" font-family="Roboto,Roboto_MSFontService,sans-serif" font-style="normal" font-variant="normal" font-weight="400" font-stretch="normal" font-size="83" text-anchor="start" direction="ltr" writing-mode="lr-tb" unicode-bidi="normal" text-decoration="none" transform="matrix(1 0 0 1 2868.87 1338)">Copy</text><rect x="3163" y="1102" width="341" height="103" fill="#789A47" fill-opacity="1"/><text fill="#FFFFFF" fill-opacity="1" font-family="Roboto,Roboto_MSFontService,sans-serif" font-style="normal" font-variant="normal" font-weight="400" font-stretch="normal" font-size="83" text-anchor="start" direction="ltr" writing-mode="lr-tb" unicode-bidi="normal" text-decoration="none" transform="matrix(1 0 0 1 3240.29 1182)">Copy</text><path d="M24.973 8.22239 188.769 101.023 183.686 109.995 19.8896 17.1949ZM19.2924 28.7092 0 0 34.5427 1.79159ZM189.367 89.5084 208.659 118.218 174.116 116.426Z" fill="#000000" fill-rule="nonzero" fill-opacity="1" transform="matrix(1 0 0 -1 3125 1630.22)"/><path d="M3098.12 1627.55 2769.1 1525.56 2772.15 1515.71 3101.17 1617.7ZM3099.3 1606.32 3124.27 1630.26 3090.14 1635.87ZM2770.97 1536.94 2746 1513 2780.13 1507.38Z" fill="#000000" fill-rule="nonzero" fill-opacity="1"/><path d="M2457.78 1450.84 2568.95 1450.84 2568.95 1461.16 2457.78 1461.16ZM2462.94 1471.47 2432 1456 2462.94 1440.53ZM2563.8 1440.53 2594.73 1456 2563.8 1471.47Z" fill="#000000" fill-rule="nonzero" fill-opacity="1"/><path d="M3327.84 1383.29 3327.84 1230.78 3338.16 1230.78 3338.16 1383.29ZM3348.47 1378.14 3333 1409.08 3317.53 1378.14ZM3317.53 1235.94 3333 1205 3348.47 1235.94Z" fill="#000000" fill-rule="nonzero" fill-opacity="1"/><path d="M2801.86 1314.16 2454.78 1314.16 2454.78 1303.84 2801.86 1303.84ZM2796.7 1293.53 2827.64 1309 2796.7 1324.47ZM2459.94 1324.47 2429 1309 2459.94 1293.53Z" fill="#000000" fill-rule="nonzero" fill-opacity="1"/><path d="M25.7811-5.15618 226.9-5.1556 226.9 5.1569 25.7811 5.15632ZM30.9375 15.4688 0 0 30.9375-15.4687ZM221.744-15.4681 252.681 0.000721785 221.744 15.4694Z" fill="#000000" fill-rule="nonzero" fill-opacity="1" transform="matrix(1 0 0 -1 1873 1301)"/><path d="M2087.19 1485.16 2046.03 1485.36 2051.16 1480.21 2051.16 1607.94 2040.84 1607.94 2040.84 1475.08 2087.14 1474.85ZM2081.41 1464.75 2112.92 1479 2082.61 1495.66ZM2061.47 1602.78 2046 1633.72 2030.53 1602.78Z" fill="#000000" fill-rule="nonzero" fill-opacity="1"/><path d="M3121.78 1303.84 3253.48 1303.84 3253.68 1373.43 3243.36 1373.46 3243.18 1309.01 3248.34 1314.16 3121.78 1314.16ZM3126.94 1324.47 3096 1309 3126.94 1293.53ZM3263.8 1367.75 3249.43 1399.21 3232.88 1368.83Z" fill="#000000" fill-rule="nonzero" fill-opacity="1"/><text fill="#000000" fill-opacity="1" font-family="Roboto,Roboto_MSFontService,sans-serif" font-style="normal" font-variant="normal" font-weight="400" font-stretch="normal" font-size="83" text-anchor="start" direction="ltr" writing-mode="lr-tb" unicode-bidi="normal" text-decoration="none" transform="matrix(1 0 0 1 858.891 1411)">LionsOS</text><path d="M1862.68 940.781 1862.68 1025.56 1383 1025.56 1388.16 1020.4 1388.16 1223.78 1377.84 1223.78 1377.84 1015.25 1857.52 1015.25 1852.37 1020.4 1852.37 940.781ZM1842.05 945.938 1857.52 915 1872.99 945.938ZM1398.47 1218.62 1383 1249.56 1367.53 1218.62Z" fill="#000000" fill-rule="nonzero" fill-opacity="1"/><path d="M1929.58 934.781 1929.58 1108.55 1730 1108.55 1735.16 1103.4 1735.16 1223.89 1724.84 1223.89 1724.84 1098.24 1924.42 1098.24 1919.27 1103.4 1919.27 934.781ZM1908.96 939.937 1924.42 909 1939.89 939.937ZM1745.47 1218.73 1730 1249.67 1714.53 1218.73Z" fill="#000000" fill-rule="nonzero" fill-opacity="1"/><path d="M2217.55 942.781 2217.55 1166.58 1966 1166.58 1971.16 1161.43 1971.16 1608.54 1960.84 1608.54 1960.84 1156.27 2212.4 1156.27 2207.24 1161.43 2207.24 942.781ZM2196.93 947.938 2212.4 917 2227.87 947.938ZM1981.47 1603.38 1966 1634.32 1950.53 1603.38Z" fill="#000000" fill-rule="nonzero" fill-opacity="1"/><path d="M3044.03 948.781 3044.03 1171.85 2736 1171.85 2741.16 1166.69 2741.16 1384.6 2730.84 1384.6 2730.84 1161.53 3038.87 1161.53 3033.71 1166.69 3033.71 948.781ZM3023.4 953.937 3038.87 923 3054.34 953.937ZM2751.47 1379.44 2736 1410.38 2720.53 1379.44Z" fill="#000000" fill-rule="nonzero" fill-opacity="1"/><path d="M25.7812-5.15625 94.7563-5.15625 94.7563 153.426 89.6 148.27 153.419 148.27 153.419 158.582 84.4438 158.582 84.4438 0 89.6 5.15625 25.7812 5.15625ZM30.9375 15.4688 0 0 30.9375-15.4688ZM148.263 137.957 179.2 153.426 148.263 168.895Z" fill="#000000" fill-rule="nonzero" fill-opacity="1" transform="matrix(1.83697e-16 1 1 -1.83697e-16 3180 923)"/><path d="M2726.38 948.781 2726.38 1119.01 2273 1119.01 2278.16 1113.86 2278.16 1202.78 2267.84 1202.78 2267.84 1108.7 2721.22 1108.7 2716.07 1113.86 2716.07 948.781ZM2705.76 953.937 2721.22 923 2736.69 953.937ZM2288.47 1197.62 2273 1228.56 2257.53 1197.62Z" fill="#000000" fill-rule="nonzero" fill-opacity="1"/></g></g></svg>