<svg width="121" height="20" viewBox="0 0 121 20" fill="none" xmlns="http://www.w3.org/2000/svg">
<g id="logo/li&#230;&#160;&#135;+Li Auto/&#233;&#187;&#145;">
<path id="Union" fill-rule="evenodd" clip-rule="evenodd" d="M46.0889 18.9999L41.5111 10.6444H27.3556L31.9556 18.9999H46.0889ZM16.578 7.28887C16.4222 7.02221 13.3111 1.35555 13.1555 1.06667H0L2.45558 5.53332L4.91132 9.99998C6.33332 12.5777 7.71109 14.9777 10.1555 16.7777C11.3558 17.6666 12.6 18.2666 14.0889 18.6C15.5555 18.9555 17.0224 18.9777 18.5113 18.9777H30.1779L27.8889 14.8111L25.5999 10.6444C24.7582 10.6533 24.4746 10.6586 24.3041 10.6618C24.1668 10.6644 24.1028 10.6656 23.8794 10.6662L22.7777 10.6666C21.1555 10.6666 19.4668 10.5111 18.4002 9.64442C17.578 8.97776 17.0668 8.19998 16.578 7.28887ZM40.7777 9.33331L36.2221 1H22.0668L26.6224 9.33331H40.7777ZM62.7217 3.877C63.0577 4.213 63.4637 4.381 63.9397 4.381C64.4017 4.381 64.8007 4.213 65.1367 3.877C65.4587 3.555 65.6197 3.156 65.6197 2.68C65.6197 2.218 65.4587 1.826 65.1367 1.504C64.8007 1.168 64.4017 1 63.9397 1C63.4777 1 63.0717 1.168 62.7217 1.504C62.3857 1.826 62.2177 2.218 62.2177 2.68C62.2177 3.142 62.3857 3.541 62.7217 3.877ZM62.5957 6.082V18.283H65.2417V6.082H62.5957ZM60.3789 18.283V15.637H52.8609V1.798H50.0889V18.283H60.3789ZM87.2623 18.283H84.3223L82.9573 14.146H76.7203L75.3763 18.283H72.4363L78.3583 1.798H81.3193L87.2623 18.283ZM79.7443 4.759L77.5183 11.647H82.1383L79.8913 4.759H79.7443ZM98.8021 18.283V6.082H96.1561V13.012C96.1141 15.056 95.1761 16.085 93.3421 16.099C92.5441 16.099 91.9771 15.882 91.6411 15.448C91.3051 15.014 91.1371 14.272 91.1371 13.222V6.082H88.5121V13.705C88.5121 15.315 88.8901 16.526 89.6461 17.338C90.3741 18.122 91.4311 18.514 92.8171 18.514C93.6851 18.514 94.4341 18.297 95.0641 17.863C95.5681 17.513 95.9671 17.03 96.2611 16.414H96.4081L96.5341 18.283H98.8021ZM107.482 16.036V18.367C106.964 18.465 106.425 18.514 105.865 18.514C104.619 18.514 103.716 18.241 103.156 17.695C102.596 17.149 102.316 16.239 102.316 14.965V8.455H100.489V6.082H102.316V2.911H104.941V6.082H107.482V8.455H104.941V14.902C104.941 15.336 104.997 15.637 105.109 15.805C105.221 15.959 105.417 16.05 105.697 16.078C106.257 16.12 106.852 16.106 107.482 16.036ZM110.522 16.75C111.558 17.926 112.916 18.514 114.596 18.514C116.276 18.514 117.641 17.926 118.691 16.75C119.727 15.588 120.245 14.055 120.245 12.151C120.245 10.289 119.727 8.777 118.691 7.615C117.641 6.439 116.276 5.851 114.596 5.851C112.916 5.851 111.558 6.439 110.522 7.615C109.5 8.777 108.989 10.289 108.989 12.151C108.989 14.055 109.5 15.588 110.522 16.75ZM116.738 15.007C116.22 15.679 115.506 16.015 114.596 16.015C113.686 16.015 112.979 15.679 112.475 15.007C111.957 14.321 111.698 13.369 111.698 12.151C111.698 10.947 111.95 10.016 112.454 9.358C112.972 8.686 113.686 8.35 114.596 8.35C115.52 8.35 116.241 8.686 116.759 9.358C117.277 10.03 117.536 10.961 117.536 12.151C117.536 13.369 117.27 14.321 116.738 15.007Z" fill="black"/>
</g>
</svg>
