<svg id="Artwork" xmlns="http://www.w3.org/2000/svg" viewBox="0 0 172.6 59.88"><path d="M172.38,32.24A17.71,17.71,0,1,0,190.3,50,17.84,17.84,0,0,0,172.38,32.24Zm0,27A9.28,9.28,0,1,1,181.69,50,9.28,9.28,0,0,1,172.42,59.22Z" transform="translate(-17.7 -17.69)"/><path d="M100,66.68V33.11h5a5.87,5.87,0,0,1,5.51,2.49l15.9,18.13V36.82a5.19,5.19,0,0,1,.16-1.59,3,3,0,0,1,2-2,5.25,5.25,0,0,1,1.59-.15h4.7V66.68h-5a7.1,7.1,0,0,1-3.11-.49,7,7,0,0,1-2.41-2L108.39,46.05V63a5.19,5.19,0,0,1-.16,1.59,3,3,0,0,1-2,2,5.19,5.19,0,0,1-1.59.16Z" transform="translate(-17.7 -17.69)"/><path d="M149.35,66.68V33.11h-4.68a5.25,5.25,0,0,0-1.59.15,3,3,0,0,0-2,2,5.19,5.19,0,0,0-.16,1.59V66.68Z" transform="translate(-17.7 -17.69)"/><path d="M63.5,44.41c.52,1.27.63,1.84,1.1,2.83A4.55,4.55,0,0,0,66,49.07c1.25.9,2.82.93,4.73.93H82.32A32.31,32.31,0,1,0,17.7,50H29.25c1.9,0,3.48,0,4.72-.93a4.65,4.65,0,0,0,1.45-1.83c.47-1,.57-1.56,1.1-2.83a14.6,14.6,0,0,1,27,0Z" transform="translate(-17.7 -17.69)"/><path d="M79,64.35A32.37,32.37,0,0,1,66.85,77.57h0l-13-13c-1.54-1.53-2.58-2.48-3.87-2.48s-2.34,1-3.87,2.48l-13,13a32.28,32.28,0,0,1-12.1-13.22h0l11.5-11.51a9,9,0,0,1,3.16-2.38A12.13,12.13,0,0,1,40,50H60a12.18,12.18,0,0,1,4.33.46,9,9,0,0,1,3.15,2.38L79,64.35" transform="translate(-17.7 -17.69)"/></svg>