<svg id="Layer_1" data-name="Layer 1" xmlns="http://www.w3.org/2000/svg" viewBox="0 0 717 356"><defs><style>.cls-1{stroke:#000;}.cls-1,.cls-2{stroke-miterlimit:10;stroke-width:7px;}.cls-2{fill:#8cc63f;stroke:#8cc63f;}</style></defs><rect class="cls-1" x="3.5" y="3.5" width="710" height="349"/><path class="cls-2" d="M293.19,63.75l13.08,13.56c8-21.76,26.34-37.43,47.76-40.25,22-2.91,38.47,8.95,41.18,11,1.62,1.22,17.32,13.3,22,34.77,2.54,11.76.72,21.5-.91,30.19A83.26,83.26,0,0,1,408,137.7c-3.51,6.65-7.22,11.14-14.63,20.13-6.15,7.43-11.61,13.31-15.56,17.38a88.24,88.24,0,0,0-14.19,21c-5.3,11-6.71,20.29-8.78,32.54a192.9,192.9,0,0,0-2.63,37h20.95a295.53,295.53,0,0,1,1.35-29.88c.92-9.51,1.55-14.38,3.45-20.44,3.62-11.61,9.39-19.6,14.49-26.54,4.84-6.58,5.16-5.84,15.55-18.3,9.39-11.24,14.08-16.87,17.39-22.87,5.68-10.29,7.63-19.3,9.15-26.53s4.07-20,1.63-36.14a82,82,0,0,0-7.88-25.61c-13.25-26-37.45-35-43.28-37a72.84,72.84,0,0,0-48.39.84C308.9,33.76,296.13,57.84,293.19,63.75Z" transform="translate(3 4)"/><circle class="cls-2" cx="367.69" cy="318.79" r="15"/></svg>