<?xml version="1.0" encoding="UTF-8" standalone="no"?>
<!-- Created with Inkscape (http://www.inkscape.org/) -->

<svg
   width="277.98245mm"
   height="52.294266mm"
   viewBox="0 0 277.98245 52.294266"
   version="1.1"
   id="svg1"
   sodipodi:docname="happy-sel4-day.svg"
   inkscape:version="1.3.2 (091e20e, 2023-11-25)"
   xmlns:inkscape="http://www.inkscape.org/namespaces/inkscape"
   xmlns:sodipodi="http://sodipodi.sourceforge.net/DTD/sodipodi-0.dtd"
   xmlns="http://www.w3.org/2000/svg"
   xmlns:svg="http://www.w3.org/2000/svg">
  <sodipodi:namedview
     id="namedview1"
     pagecolor="#ffffff"
     bordercolor="#000000"
     borderopacity="0.25"
     inkscape:showpageshadow="2"
     inkscape:pageopacity="0.0"
     inkscape:pagecheckerboard="0"
     inkscape:deskcolor="#d1d1d1"
     inkscape:document-units="mm"
     inkscape:zoom="0.4204826"
     inkscape:cx="492.29148"
     inkscape:cy="269.92794"
     inkscape:window-width="1312"
     inkscape:window-height="820"
     inkscape:window-x="41"
     inkscape:window-y="38"
     inkscape:window-maximized="0"
     inkscape:current-layer="layer1" />
  <defs
     id="defs1">
    <clipPath
       clipPathUnits="userSpaceOnUse"
       id="clipPath3">
      <path
         d="m 0,60.84376 h 841.8 v 473.5125 H 0 Z"
         transform="matrix(2.2808268,0,0,-2.2808268,-51.422015,543.17479)"
         id="path3" />
    </clipPath>
    <clipPath
       clipPathUnits="userSpaceOnUse"
       id="clipPath4">
      <path
         d="m 0,60.84376 h 841.8 v 473.5125 H 0 Z"
         transform="matrix(2.2808268,0,0,-2.2808268,-791.32202,543.17479)"
         id="path4" />
    </clipPath>
    <clipPath
       clipPathUnits="userSpaceOnUse"
       id="clipPath5">
      <path
         d="m 0,60.84376 h 841.8 v 473.5125 H 0 Z"
         transform="matrix(2.2808268,0,0,-2.2808268,-1426.572,543.17479)"
         id="path5" />
    </clipPath>
  </defs>
  <g
     inkscape:label="Layer 1"
     inkscape:groupmode="layer"
     id="layer1"
     transform="translate(110.06666,-61.912499)">
    <g
       id="g3"
       transform="matrix(0.26458333,0,0,0.26458333,-118.83218,-26.477854)"
       style="fill:#a5d162;fill-opacity:1">
      <path
         style="font-weight:300;font-size:280px;font-family:Noteworthy;fill:#a5d162;stroke:#a6d062;stroke-opacity:0.81568629;fill-rule:nonzero;fill-opacity:1"
         d="m 186.9,-221.2 q -5.6,4.2 -5.95,4.55 -2.45,2.45 -3.85,6.3 -7.7,19.95 -9.1,109.9 12.6,2.8 12.6,8.4 0,3.5 -3.15,8.05 -3.5,1.4 -10.15,4.2 0,15.4 3.5,45.15 0.35,1.75 3.5,10.5 2.45,7 2.45,9.8 0,4.2 -3.15,8.4 -3.15,4.2 -7.35,4.2 -9.45,0 -12.95,-14 -0.35,-1.75 -2.8,-22.05 -2.45,-20.65 -2.45,-26.6 0,-6.3 1.05,-11.9 -21.7,0.35 -51.1,5.95 -25.2,4.9 -50.4,10.15 l -6.3,6.3 q 0.35,13.3 0.35,26.95 1.4,20.65 6.65,26.6 -1.4,4.55 -4.55,4.55 -2.8,0 -7,1.4 -3.85,1.75 -5.95,1.75 -6.65,0 -8.4,-26.25 -0.7,-16.45 -1.05,-32.9 l -2.45,-3.5 q -1.4,0.35 -1.4,0.35 -4.55,0 -8.4,-2.45 -3.85,-2.8 -3.85,-7 0,-2.8 3.15,-7.7 3.15,-5.25 6.3,-5.25 0.7,0 1.75,0.35 1.4,0.35 2.1,0.35 0,0 1.75,-0.35 0.35,-15.4 0.35,-61.6 0,-61.25 8.4,-83.3 3.85,-9.45 12.6,-9.45 5.6,0 10.85,3.85 5.25,3.5 5.25,9.1 0,2.1 -3.15,9.45 -3.5,8.75 -3.85,10.15 -9.45,33.6 -9.45,101.5 0,15.75 5.95,15.75 1.75,0 18.55,-3.5 37.8,-7 50.4,-7 3.15,0 10.5,-1.75 7.7,-2.1 14.7,-2.1 7.35,0 7,-9.8 l -0.7,-30.8 q -0.7,-29.75 2.8,-59.5 5.25,-46.9 18.9,-46.9 7,0 12.6,7.35 4.55,6.65 4.9,14.35 z m 119,231.35 q 0,4.9 -7.7,4.9 -8.4,0 -10.15,-7 Q 287.7,7 287.7,-5.6 q 0,-3.5 -1.05,-5.6 -19.6,14.35 -42.35,14.35 -15.75,0 -30.45,-8.75 -16.8,-9.8 -16.8,-24.5 0,-14.35 19.95,-28 18.2,-12.6 33.6,-12.6 h 34.65 q 2.1,-2.1 2.1,-7.35 0,-23.45 -3.85,-35.35 -6.3,-19.95 -24.85,-19.95 -13.3,0 -24.5,16.8 -10.15,15.4 -10.15,29.4 0,0.7 0,2.1 0,1.4 0,1.75 0,2.8 -2.8,2.8 -3.5,0 -7.7,-4.2 -4.2,-4.2 -4.2,-7.35 0,-9.8 5.95,-24.5 5.95,-15.05 12.95,-22.75 8.75,-9.45 21.7,-9.45 19.95,0 36.75,12.6 17.85,13.65 18.2,32.9 z M 287.35,-45.5 q 0,-14 -21.7,-14 -17.15,0 -30.1,5.95 -16.45,7.7 -16.45,23.1 0,9.45 8.75,14.7 7.35,4.55 17.5,4.55 15.05,0 28.35,-9.8 13.65,-9.8 13.65,-24.5 z m 140.84,-40.25 q 0,34.65 -10.15,58.1 -13.65,32.55 -43.05,32.55 -19.25,0 -33.6,-17.85 -2.45,1.05 -2.45,21.7 0,45.5 4.55,64.4 0.35,1.75 3.15,8.4 3.15,6.65 3.15,8.05 0,5.6 -7,5.6 -8.4,0 -11.9,-2.45 -3.15,-2.45 -5.6,-16.1 -2.1,-11.55 -2.1,-18.2 v -88.9 q 0,-12.25 1.4,-32.9 1.4,-24.15 1.75,-32.9 0.35,-9.45 0,-24.5 -0.35,-19.25 -0.35,-24.85 0,-24.15 12.6,-24.15 6.3,0 6.3,4.55 0,8.75 -1.4,25.55 -1.4,16.8 -1.4,25.2 h 1.4 q 8.05,-10.85 16.1,-22.05 9.45,-12.25 23.45,-12.25 23.45,0 35.35,21 9.8,16.8 9.8,42 z m -17.15,1.4 q 0,-18.55 -3.85,-31.85 -5.95,-19.6 -19.25,-19.6 -9.8,0 -23.8,17.15 -12.25,15.05 -17.15,30.8 -3.85,11.9 -6.3,35 -1.75,16.8 -1.75,16.1 0,1.05 3.15,3.5 2.1,1.4 4.2,3.15 5.6,8.05 11.2,16.45 5.95,8.05 17.5,8.05 19.25,0 29.05,-31.5 7,-22.4 7,-47.25 z m 134.05,-1.4 q 0,34.65 -10.15,58.1 -13.65,32.55 -43.05,32.55 -19.25,0 -33.6,-17.85 -2.45,1.05 -2.45,21.7 0,45.5 4.55,64.4 0.35,1.75 3.15,8.4 3.15,6.65 3.15,8.05 0,5.6 -7,5.6 -8.4,0 -11.9,-2.45 -3.15,-2.45 -5.6,-16.1 -2.1,-11.55 -2.1,-18.2 v -88.9 q 0,-12.25 1.4,-32.9 1.4,-24.15 1.75,-32.9 0.35,-9.45 0,-24.5 -0.35,-19.25 -0.35,-24.85 0,-24.15 12.6,-24.15 6.3,0 6.3,4.55 0,8.75 -1.4,25.55 -1.4,16.8 -1.4,25.2 h 1.4 q 8.05,-10.85 16.1,-22.05 9.45,-12.25 23.45,-12.25 23.45,0 35.35,21 9.8,16.8 9.8,42 z m -17.15,1.4 q 0,-18.55 -3.85,-31.85 -5.95,-19.6 -19.25,-19.6 -9.8,0 -23.8,17.15 -12.25,15.05 -17.15,30.8 -3.85,11.9 -6.3,35 -1.75,16.8 -1.75,16.1 0,1.05 3.15,3.5 2.1,1.4 4.2,3.15 5.6,8.05 11.2,16.45 5.95,8.05 17.5,8.05 19.25,0 29.05,-31.5 7,-22.4 7,-47.25 z m 141.04999,-52.85 q -2.8,15.4 -5.25,30.8 -3.15,16.45 -3.15,30.8 l -0.35,109.55 q 0,23.45 -14.35,37.1 -14,14 -37.8,14 -12.95,0 -29.05,-7 -18.55,-7.7 -25.55,-19.25 -1.75,-3.15 -1.75,-6.3 0,-10.15 9.8,-10.15 2.1,0 4.55,1.4 5.95,6.3 11.9,12.25 11.9,10.85 30.1,10.85 23.1,0 30.8,-16.1 4.55,-10.15 4.55,-36.75 0,-3.5 -1.4,-14 -1.4,-8.75 -0.7,-15.4 -9.8,9.1 -14,11.55 -7.7,4.9 -16.8,4.9 -23.8,0 -36.05,-18.55 -10.85,-16.1 -10.85,-40.95 0,-47.25 1.4,-79.8 1.4,-11.2 12.25,-11.2 13.3,0 11.9,4.55 -6.65,18.2 -6.65,81.55 0,49 28,49 17.15,0 27.3,-26.25 7.7,-20.3 7.35,-40.95 l -0.35,-39.9 q 0.35,-5.95 0.7,-15.05 0.7,-9.1 11.55,-8.4 12.6,1.05 11.9,7.7 z"
         id="text3"
         clip-path="url(#clipPath3)"
         transform="matrix(0.58458333,0,0,0.58458333,30.060453,476.06907)"
         aria-label="Happy" />
      <g
         id="g4"
         style="fill:#a5d162;fill-opacity:1" />
      <path
         style="font-weight:300;font-size:280px;font-family:Noteworthy;fill:#a5d162;stroke:#a6d062;stroke-opacity:0.81568629;fill-opacity:1"
         d="M 116.2,-20.65 Q 116.2,-8.4 97.65,0 82.25,6.65 67.9,6.65 58.45,6.65 46.2,2.1 39.55,-0.7 24.85,-12.6 8.75,-25.55 8.75,-30.45 q 0,-10.85 12.95,-9.8 h 2.1 q 0.7,10.5 22.4,22.75 19.6,11.2 31.5,11.2 15.4,0 15.4,-10.5 0,-6.3 -18.9,-17.5 Q 48.3,-49.35 38.85,-58.45 19.6,-77 19.6,-101.15 q 0,-18.2 9.45,-34.65 10.85,-19.6 27.3,-19.6 11.9,0 28.7,11.2 16.8,10.85 19.6,22.05 2.8,9.45 2.8,22.05 0,13.65 -4.9,29.75 -3.15,2.45 -7.35,2.45 -2.45,0 -7.7,-1.75 -5.25,-2.1 -5.25,-4.2 0,1.4 3.85,-7.7 2.8,-5.95 2.8,-21.7 0,-37.45 -23.45,-37.45 -12.25,0 -19.6,16.45 -6.3,13.3 -6.3,26.95 0,17.15 19.95,33.25 6.65,5.6 36.75,24.15 19.95,12.25 19.95,19.25 z m 108.864,-14 q 0,15.4 -20.65,27.65 -18.55,11.2 -35,11.2 -46.9,0 -46.9,-59.5 0,-26.25 9.45,-56.35 12.6,-39.2 32.2,-39.2 16.8,0 36.75,17.15 19.95,16.8 19.95,33.6 0,21.7 -17.5,37.8 -17.5,16.1 -39.55,16.1 -2.1,0 -9.1,-3.5 -6.65,-3.5 -9.1,-3.5 -4.55,0 -4.55,2.8 0,40.25 26.6,40.25 13.65,0 25.2,-9.1 7,-5.25 15.4,-16.45 6.65,-8.75 8.75,-8.75 8.05,0 8.05,9.8 z m -24.15,-64.4 q 0,-12.25 -7,-22.75 -7,-10.85 -18.55,-10.85 -14,0 -22.75,17.5 -7.35,14.7 -7.35,30.45 0,10.15 6.3,17.15 6.65,6.65 16.8,6.65 14.35,0 23.8,-12.25 8.75,-11.2 8.75,-25.9 z M 355.558,-7.7 q -32.2,12.25 -72.8,12.25 -30.1,0 -41.3,-23.45 -8.05,-16.45 -8.05,-50.4 0,-21.7 3.15,-64.75 3.5,-43.05 3.5,-64.4 0,-4.55 -0.7,-13.3 -0.7,-8.75 -0.7,-13.3 0,-3.5 0.35,-7.35 3.85,-4.55 10.5,-4.55 12.25,0 12.25,28.7 0,24.85 -4.55,74.55 -4.55,49.7 -4.55,74.55 0,47.25 31.5,47.25 10.5,0 29.4,-5.95 19.25,-5.95 29.75,-5.95 5.6,0 8.75,5.25 3.5,4.9 3.5,10.85 z m 213.654,-57.4 -2.45,2.1 q -12.95,-2.45 -43.4,-2.45 -8.75,0 -11.2,3.85 -2.45,3.5 -2.45,13.3 0,29.75 3.5,40.25 0.35,1.05 2.8,4.9 2.45,3.85 2.45,5.25 0,1.75 -2.45,5.95 h -11.2 q -2.8,0 -7.7,-5.95 -4.9,-5.95 -4.9,-9.1 0,-1.4 0.7,-4.2 1.05,-3.15 1.05,-4.55 0,-5.6 0.35,-17.15 0.35,-11.55 0.35,-17.15 0,-12.6 -3.85,-12.6 -15.75,0 -46.9,4.55 -30.8,4.2 -46.55,4.2 -9.1,0 -22.4,-7.7 -14.35,-8.75 -14.35,-17.15 0,-10.85 21.35,-31.15 15.4,-13.3 30.8,-26.95 25.55,-22.4 74.9,-69.3 7,-9.1 14,-17.85 9.1,-10.85 18.55,-10.85 5.25,0 9.45,3.85 4.55,3.85 4.55,9.1 0,2.8 -2.8,11.55 -3.5,11.55 -3.85,12.6 -1.75,7.7 -9.8,61.25 -5.95,39.55 -5.95,50.05 0,3.85 3.15,6.3 3.15,-0.35 10.15,-0.35 7,-0.35 10.5,-0.35 26.95,0 33.6,9.8 z m -66.15,-123.2 h -3.85 q -23.1,14.35 -64.75,50.75 -49.7,43.05 -49.7,56 0,10.5 12.95,10.15 h 1.4 l 94.85,-8.05 z"
         id="text4"
         clip-path="url(#clipPath4)"
         transform="matrix(0.58458333,0,0,0.58458333,462.59366,476.06907)"
         aria-label="seL4" />
      <g
         id="g5"
         style="fill:#a5d162;fill-opacity:1" />
      <path
         style="font-weight:300;font-size:280px;font-family:Noteworthy;fill:#a5d162;stroke:#a6d062;stroke-opacity:0.81568629;fill-opacity:1"
         d="m 119.7,-222.25 q 0,8.05 -2.1,20.65 -2.45,16.45 -3.15,20.65 -1.05,10.85 -3.5,72.1 -2.1,56 -2.1,61.95 0,37.45 6.65,52.85 -2.45,3.85 -6.3,3.85 -3.5,0 -8.05,-3.5 -4.2,-3.5 -5.25,-7 0,-7 -2.1,-21.35 Q 73.15,4.2 54.25,4.2 q -22.75,0 -35,-17.15 -10.5,-14.7 -10.5,-38.85 0,-29.4 10.85,-60.9 14,-41.3 37.1,-41.3 9.8,0 19.95,7.35 2.1,1.4 16.45,14.7 3.5,-23.8 3.5,-104.3 2.45,-2.45 6.65,-2.45 6.65,0 11.55,4.9 4.9,4.9 4.9,11.55 z M 93.45,-93.1 q 0,-15.4 -7,-27.65 -8.4,-14.7 -22.75,-14.7 -17.5,0 -28,35.7 -8.4,26.95 -8.4,50.75 0,15.4 4.9,26.6 6.65,14.7 19.95,14.7 21.7,0 32.9,-33.6 8.4,-24.15 8.4,-51.8 z M 232.4,10.15 q 0,4.9 -7.7,4.9 -8.4,0 -10.15,-7 Q 214.2,7 214.2,-5.6 q 0,-3.5 -1.05,-5.6 -19.6,14.35 -42.35,14.35 -15.75,0 -30.45,-8.75 -16.8,-9.8 -16.8,-24.5 0,-14.35 19.95,-28 18.2,-12.6 33.6,-12.6 h 34.65 q 2.1,-2.1 2.1,-7.35 0,-23.45 -3.85,-35.35 -6.3,-19.95 -24.85,-19.95 -13.3,0 -24.5,16.8 -10.15,15.4 -10.15,29.4 0,0.7 0,2.1 0,1.4 0,1.75 0,2.8 -2.8,2.8 -3.5,0 -7.7,-4.2 -4.2,-4.2 -4.2,-7.35 0,-9.8 5.95,-24.5 5.95,-15.05 12.95,-22.75 8.75,-9.45 21.7,-9.45 19.95,0 36.75,12.6 17.85,13.65 18.2,32.9 z M 213.85,-45.5 q 0,-14 -21.7,-14 -17.15,0 -30.1,5.95 -16.45,7.7 -16.45,23.1 0,9.45 8.75,14.7 7.35,4.55 17.5,4.55 15.05,0 28.35,-9.8 13.65,-9.8 13.65,-24.5 z m 144.62,-91.7 q -2.8,15.4 -5.25,30.8 -3.15,16.45 -3.15,30.8 l -0.35,109.55 q 0,23.45 -14.35,37.1 -14,14 -37.8,14 -12.95,0 -29.05,-7 -18.55,-7.7 -25.55,-19.25 -1.75,-3.15 -1.75,-6.3 0,-10.15 9.8,-10.15 2.1,0 4.55,1.4 5.95,6.3 11.9,12.25 11.9,10.85 30.1,10.85 23.1,0 30.8,-16.1 4.55,-10.15 4.55,-36.75 0,-3.5 -1.4,-14 -1.4,-8.75 -0.7,-15.4 -9.8,9.1 -14,11.55 -7.7,4.9 -16.8,4.9 -23.8,0 -36.05,-18.55 -10.85,-16.1 -10.85,-40.95 0,-47.25 1.4,-79.8 1.4,-11.2 12.25,-11.2 13.3,0 11.9,4.55 -6.65,18.2 -6.65,81.55 0,49 28,49 17.15,0 27.3,-26.25 7.7,-20.3 7.35,-40.95 l -0.35,-39.9 q 0.35,-5.95 0.7,-15.05 0.7,-9.1 11.55,-8.4 12.6,1.05 11.9,7.7 z m 68.88001,-91.35 q -2.1,2.8 -5.25,9.45 -14,50.4 -17.5,110.6 0,2.1 -1.05,7.7 -0.7,5.25 -0.7,8.4 0,4.2 5.6,26.6 -1.4,1.4 -4.9,4.2 -1.4,0.35 -5.25,0.35 -4.9,0 -7.7,-1.4 -3.5,-7 -3.5,-25.2 0,-3.5 0,-3.5 l 10.15,-121.8 q 0,-1.4 -2.1,-8.4 -2.1,-7.35 -2.45,-8.05 8.05,-7 17.85,-7 8.75,0 16.8,8.05 z m -10.85,208.25 q 0,24.15 -26.95,24.15 -4.9,0 -18.55,-6.3 -2.8,-5.25 -2.8,-11.55 0,-10.5 5.95,-14 4.2,-2.8 14.7,-2.8 27.65,0 27.65,10.5 z"
         id="text5"
         clip-path="url(#clipPath5)"
         transform="matrix(0.58458333,0,0,0.58458333,833.95022,476.06907)"
         aria-label="day!" />
    </g>
  </g>
</svg>
