<?xml version="1.0" encoding="UTF-8"?>
<svg xmlns="http://www.w3.org/2000/svg" xmlns:xlink="http://www.w3.org/1999/xlink" version="1.1" viewBox="0 0 578.13 280.89">
  <defs>
    <style>
      .cls-1 {
        fill: url(#radial-gradient);
      }

      .cls-1, .cls-2, .cls-3 {
        stroke-width: 0px;
      }

      .cls-4 {
        mix-blend-mode: hard-light;
        opacity: .7;
      }

      .cls-2 {
        fill: url(#radial-gradient-2);
      }

      .cls-3 {
        fill: url(#radial-gradient-3);
      }

      .cls-5 {
        isolation: isolate;
      }
    </style>
    <radialGradient id="radial-gradient" cx="420.16" cy="140.73" fx="420.16" fy="140.73" r="149.6" gradientTransform="translate(821.18 303.74) rotate(-171.8) scale(1 .74)" gradientUnits="userSpaceOnUse">
      <stop offset="0" stop-color="#fff"/>
      <stop offset="1" stop-color="#6db33f"/>
    </radialGradient>
    <radialGradient id="radial-gradient-2" cx="56.99" cy="167.55" fx="56.99" fy="167.55" r="66.86" gradientTransform="translate(95.72 298.41) rotate(-171.8) scale(1 .74)" xlink:href="#radial-gradient"/>
    <radialGradient id="radial-gradient-3" cx="186.87" cy="167.55" fx="186.87" fy="167.55" r="67.66" gradientTransform="translate(354.14 316.93) rotate(-171.8) scale(1 .74)" xlink:href="#radial-gradient"/>
  </defs>
  <g class="cls-5">
    <g id="Layer_1" data-name="Layer 1">
      <g class="cls-4">
        <path id="L4" class="cls-1" d="M262.57,0v1.14h-.37v236.27h190.44v-.15h36.98v44.22h58.3v-44.22h30.22v-50.93h-30.22V41.12h-58.3l-120.58,140.84-1.18,1.28v.07l-2.91,3.37h-27.38V0h-75ZM489.61,112.03v74.29h-64.34l64.34-74.29Z"/>
        <g>
          <path class="cls-2" d="M35.51,197.7c0,6.26,1.76,11.3,5.3,15.14,3.53,3.84,8.64,5.76,15.32,5.76,6.11,0,10.98-1.43,14.61-4.29,3.62-2.86,5.44-7.14,5.44-12.86,0-4.64-1.43-8.17-4.3-10.59-2.86-2.41-6.21-4.33-10.02-5.76l-27.78-9.38c-10.88-3.57-19.09-8.62-24.63-15.14-5.54-6.52-8.31-14.87-8.31-25.06,0-5.9,1.05-11.48,3.15-16.75,2.1-5.27,5.44-9.87,10.02-13.8,4.58-3.93,10.45-7.06,17.61-9.38,7.16-2.32,15.8-3.48,25.92-3.48,17.94,0,31.22,3.58,39.81,10.72,8.59,7.15,12.89,17.24,12.89,30.28v5.9h-35.51c0-7.5-1.29-13-3.87-16.48-2.58-3.48-7.12-5.23-13.6-5.23-4.97,0-9.31,1.3-13.03,3.89-3.72,2.59-5.58,6.48-5.58,11.66,0,3.58,1.19,6.79,3.58,9.65,2.38,2.86,6.92,5.27,13.6,7.24l23.77,7.5c12.41,3.93,21.19,9.07,26.35,15.41,5.16,6.34,7.73,14.97,7.73,25.86,0,7.68-1.43,14.34-4.3,19.97-2.86,5.63-6.83,10.32-11.88,14.07-5.06,3.75-11.08,6.43-18.04,8.04-6.97,1.61-14.66,2.41-23.05,2.41-11.08,0-20.29-.98-27.64-2.95-7.35-1.96-13.17-4.91-17.47-8.84-4.3-3.93-7.3-8.71-9.02-14.34-1.72-5.63-2.58-11.93-2.58-18.89v-5.09h35.51v4.82Z"/>
          <path class="cls-3" d="M167.53,185.11c0,4.29.33,8.44,1,12.46.67,4.02,1.76,7.6,3.29,10.72,1.53,3.13,3.53,5.63,6.01,7.5,2.48,1.88,5.54,2.81,9.16,2.81,6.68,0,11.55-2.23,14.61-6.7,3.05-4.46,5.15-11.26,6.3-20.37h35.51c-.76,16.8-5.54,29.57-14.32,38.32-8.78,8.76-22.62,13.13-41.53,13.13-14.32,0-25.49-2.24-33.51-6.7-8.02-4.46-13.94-10.36-17.76-17.69-3.82-7.32-6.16-15.54-7.02-24.66-.86-9.11-1.29-18.22-1.29-27.34,0-9.65.72-18.94,2.15-27.87,1.43-8.93,4.3-16.88,8.59-23.85,4.3-6.97,10.45-12.5,18.47-16.62,8.02-4.11,18.71-6.16,32.08-6.16,11.46,0,20.86,1.74,28.21,5.23,7.35,3.48,13.12,8.4,17.33,14.74,4.2,6.34,7.06,14.03,8.59,23.05,1.53,9.02,2.29,19.07,2.29,30.15v8.31h-78.18v11.52ZM206.77,137c-.57-4.2-1.57-7.77-3.01-10.72-1.43-2.95-3.44-5.18-6.01-6.7-2.58-1.52-5.87-2.28-9.88-2.28s-7.3.85-9.88,2.55c-2.58,1.7-4.63,3.93-6.16,6.7-1.53,2.77-2.63,5.85-3.29,9.25-.67,3.4-1,6.79-1,10.18v5.63h40.38c-.19-5.54-.57-10.41-1.15-14.61Z"/>
        </g>
      </g>
    </g>
  </g>
</svg>