<?xml version="1.0" encoding="UTF-8" standalone="no"?>
<!-- Created with Inkscape (http://www.inkscape.org/) -->

<svg
   width="239.97708mm"
   height="112.97708mm"
   viewBox="0 0 239.97708 112.97708"
   version="1.1"
   id="svg1"
   xml:space="preserve"
   inkscape:version="1.3.2 (091e20e, 2023-11-25)"
   sodipodi:docname="program-at-a-glance-2024.svg"
   inkscape:export-filename="program-2024.png"
   inkscape:export-xdpi="96"
   inkscape:export-ydpi="96"
   xmlns:inkscape="http://www.inkscape.org/namespaces/inkscape"
   xmlns:sodipodi="http://sodipodi.sourceforge.net/DTD/sodipodi-0.dtd"
   xmlns="http://www.w3.org/2000/svg"
   xmlns:svg="http://www.w3.org/2000/svg"><sodipodi:namedview
     id="namedview1"
     pagecolor="#ffffff"
     bordercolor="#000000"
     borderopacity="0.25"
     inkscape:showpageshadow="2"
     inkscape:pageopacity="0.0"
     inkscape:pagecheckerboard="true"
     inkscape:deskcolor="#d1d1d1"
     inkscape:document-units="mm"
     showborder="true"
     inkscape:zoom="2.3786088"
     inkscape:cx="714.70349"
     inkscape:cy="109.09739"
     inkscape:window-width="1424"
     inkscape:window-height="916"
     inkscape:window-x="41"
     inkscape:window-y="38"
     inkscape:window-maximized="0"
     inkscape:current-layer="g2"><inkscape:page
       x="0"
       y="0"
       width="239.97708"
       height="112.97708"
       id="page1"
       margin="0"
       bleed="0" /><inkscape:page
       x="-19.711464"
       y="-18.785418"
       width="279.39999"
       height="215.90001"
       id="page2"
       margin="0"
       bleed="0" /></sodipodi:namedview><defs
     id="defs1"><clipPath
       clipPathUnits="userSpaceOnUse"
       id="clipPath2"><path
         d="M -2,-2 H 907 V 427 H -2 Z"
         id="path2" /></clipPath><clipPath
       clipPathUnits="userSpaceOnUse"
       id="clipPath4"><path
         d="M -2,-2 H 907 V 427 H -2 Z"
         id="path4" /></clipPath><clipPath
       clipPathUnits="userSpaceOnUse"
       id="clipPath6"><path
         d="M -2,-2 H 907 V 427 H -2 Z"
         id="path6" /></clipPath><clipPath
       clipPathUnits="userSpaceOnUse"
       id="clipPath8"><path
         d="M -2,-2 H 907 V 427 H -2 Z"
         id="path8" /></clipPath><clipPath
       clipPathUnits="userSpaceOnUse"
       id="clipPath10"><path
         d="M -2,-2 H 907 V 427 H -2 Z"
         id="path10" /></clipPath><clipPath
       clipPathUnits="userSpaceOnUse"
       id="clipPath12"><path
         d="M -2,-2 H 907 V 427 H -2 Z"
         id="path12" /></clipPath><clipPath
       clipPathUnits="userSpaceOnUse"
       id="clipPath14"><path
         d="M -2,-2 H 907 V 427 H -2 Z"
         id="path14" /></clipPath><clipPath
       clipPathUnits="userSpaceOnUse"
       id="clipPath16"><path
         d="M -2,-2 H 907 V 427 H -2 Z"
         id="path16" /></clipPath><clipPath
       clipPathUnits="userSpaceOnUse"
       id="clipPath18"><path
         d="M -2,-2 H 907 V 427 H -2 Z"
         id="path18" /></clipPath><clipPath
       clipPathUnits="userSpaceOnUse"
       id="clipPath20"><path
         d="M -2,-2 H 907 V 427 H -2 Z"
         id="path20" /></clipPath><clipPath
       clipPathUnits="userSpaceOnUse"
       id="clipPath22"><path
         d="M -2,-2 H 907 V 427 H -2 Z"
         id="path22" /></clipPath><clipPath
       clipPathUnits="userSpaceOnUse"
       id="clipPath24"><path
         d="M -2,-2 H 907 V 427 H -2 Z"
         id="path24" /></clipPath><clipPath
       clipPathUnits="userSpaceOnUse"
       id="clipPath26"><path
         d="M -2,-2 H 907 V 427 H -2 Z"
         id="path26" /></clipPath><clipPath
       clipPathUnits="userSpaceOnUse"
       id="clipPath28"><path
         d="M -2,-2 H 907 V 427 H -2 Z"
         id="path28" /></clipPath><clipPath
       clipPathUnits="userSpaceOnUse"
       id="clipPath30"><path
         d="M -2,-2 H 907 V 427 H -2 Z"
         id="path30" /></clipPath><clipPath
       clipPathUnits="userSpaceOnUse"
       id="clipPath32"><path
         d="M -2,-2 H 907 V 427 H -2 Z"
         id="path32" /></clipPath><clipPath
       clipPathUnits="userSpaceOnUse"
       id="clipPath34"><path
         d="M -2,-2 H 907 V 427 H -2 Z"
         id="path34" /></clipPath><clipPath
       clipPathUnits="userSpaceOnUse"
       id="clipPath36"><path
         d="M -2,-2 H 907 V 427 H -2 Z"
         id="path36" /></clipPath><clipPath
       clipPathUnits="userSpaceOnUse"
       id="clipPath38"><path
         d="M -2,-2 H 907 V 427 H -2 Z"
         id="path38" /></clipPath><clipPath
       clipPathUnits="userSpaceOnUse"
       id="clipPath40"><path
         d="M -2,-2 H 907 V 427 H -2 Z"
         id="path40" /></clipPath><clipPath
       clipPathUnits="userSpaceOnUse"
       id="clipPath42"><path
         d="M -2,-2 H 907 V 427 H -2 Z"
         id="path42" /></clipPath><clipPath
       clipPathUnits="userSpaceOnUse"
       id="clipPath44"><path
         d="M -2,-2 H 907 V 427 H -2 Z"
         id="path44" /></clipPath><clipPath
       clipPathUnits="userSpaceOnUse"
       id="clipPath46"><path
         d="M -2,-2 H 907 V 427 H -2 Z"
         id="path46" /></clipPath><clipPath
       clipPathUnits="userSpaceOnUse"
       id="clipPath48"><path
         d="M -2,-2 H 907 V 427 H -2 Z"
         id="path48" /></clipPath><clipPath
       clipPathUnits="userSpaceOnUse"
       id="clipPath50"><path
         d="M -2,-2 H 907 V 427 H -2 Z"
         id="path50" /></clipPath><clipPath
       clipPathUnits="userSpaceOnUse"
       id="clipPath52"><path
         d="M -2,-2 H 907 V 427 H -2 Z"
         id="path52" /></clipPath><clipPath
       clipPathUnits="userSpaceOnUse"
       id="clipPath54"><path
         d="M -2,-2 H 907 V 427 H -2 Z"
         id="path54" /></clipPath><clipPath
       clipPathUnits="userSpaceOnUse"
       id="clipPath56"><path
         d="M -2,-2 H 907 V 427 H -2 Z"
         id="path56" /></clipPath><clipPath
       clipPathUnits="userSpaceOnUse"
       id="clipPath58"><path
         d="M -2,-2 H 907 V 427 H -2 Z"
         id="path58" /></clipPath><clipPath
       clipPathUnits="userSpaceOnUse"
       id="clipPath60"><path
         d="M -2,-2 H 907 V 427 H -2 Z"
         id="path60" /></clipPath><clipPath
       clipPathUnits="userSpaceOnUse"
       id="clipPath62"><path
         d="M -2,-2 H 907 V 427 H -2 Z"
         id="path62" /></clipPath><clipPath
       clipPathUnits="userSpaceOnUse"
       id="clipPath64"><path
         d="M -2,-2 H 907 V 427 H -2 Z"
         id="path64" /></clipPath><clipPath
       clipPathUnits="userSpaceOnUse"
       id="clipPath66"><path
         d="M -2,-2 H 907 V 427 H -2 Z"
         id="path66" /></clipPath><clipPath
       clipPathUnits="userSpaceOnUse"
       id="clipPath68"><path
         d="M -2,-2 H 907 V 427 H -2 Z"
         id="path68" /></clipPath><clipPath
       clipPathUnits="userSpaceOnUse"
       id="clipPath70"><path
         d="M -2,-2 H 907 V 427 H -2 Z"
         id="path70" /></clipPath><clipPath
       clipPathUnits="userSpaceOnUse"
       id="clipPath72"><path
         d="M -2,-2 H 907 V 427 H -2 Z"
         id="path72" /></clipPath><clipPath
       clipPathUnits="userSpaceOnUse"
       id="clipPath74"><path
         d="M -2,-2 H 907 V 427 H -2 Z"
         id="path74" /></clipPath><clipPath
       clipPathUnits="userSpaceOnUse"
       id="clipPath76"><path
         d="M -2,-2 H 907 V 427 H -2 Z"
         id="path76" /></clipPath><clipPath
       clipPathUnits="userSpaceOnUse"
       id="clipPath77"><path
         d="M -2,-2 H 907 V 427 H -2 Z"
         transform="translate(-36,-14.296387)"
         id="path77" /></clipPath><clipPath
       clipPathUnits="userSpaceOnUse"
       id="clipPath78"><path
         d="M -2,-2 H 907 V 427 H -2 Z"
         transform="translate(-21,-29.24512)"
         id="path78" /></clipPath><clipPath
       clipPathUnits="userSpaceOnUse"
       id="clipPath79"><path
         d="M -2,-2 H 907 V 427 H -2 Z"
         transform="translate(-172,-29.24512)"
         id="path79" /></clipPath><clipPath
       clipPathUnits="userSpaceOnUse"
       id="clipPath80"><path
         d="M -2,-2 H 907 V 427 H -2 Z"
         transform="translate(-359,-14.296387)"
         id="path80" /></clipPath><clipPath
       clipPathUnits="userSpaceOnUse"
       id="clipPath81"><path
         d="M -2,-2 H 907 V 427 H -2 Z"
         transform="translate(-326,-29.24512)"
         id="path81" /></clipPath><clipPath
       clipPathUnits="userSpaceOnUse"
       id="clipPath82"><path
         d="M -2,-2 H 907 V 427 H -2 Z"
         transform="translate(-510,-14.296387)"
         id="path82" /></clipPath><clipPath
       clipPathUnits="userSpaceOnUse"
       id="clipPath83"><path
         d="M -2,-2 H 907 V 427 H -2 Z"
         transform="translate(-474,-29.24512)"
         id="path83" /></clipPath><clipPath
       clipPathUnits="userSpaceOnUse"
       id="clipPath84"><path
         d="M -2,-2 H 907 V 427 H -2 Z"
         transform="translate(-661,-14.296387)"
         id="path84" /></clipPath><clipPath
       clipPathUnits="userSpaceOnUse"
       id="clipPath85"><path
         d="M -2,-2 H 907 V 427 H -2 Z"
         transform="translate(-627,-29.24512)"
         id="path85" /></clipPath><clipPath
       clipPathUnits="userSpaceOnUse"
       id="clipPath86"><path
         d="M -2,-2 H 907 V 427 H -2 Z"
         transform="translate(-812,-14.296387)"
         id="path86" /></clipPath><clipPath
       clipPathUnits="userSpaceOnUse"
       id="clipPath87"><path
         d="M -2,-2 H 907 V 427 H -2 Z"
         transform="translate(-781,-29.24512)"
         id="path87" /></clipPath><clipPath
       clipPathUnits="userSpaceOnUse"
       id="clipPath88"><path
         d="M -2,-2 H 907 V 427 H -2 Z"
         transform="translate(-346,-59.62675)"
         id="path88" /></clipPath><clipPath
       clipPathUnits="userSpaceOnUse"
       id="clipPath89"><path
         d="M -2,-2 H 907 V 427 H -2 Z"
         transform="translate(-507,-59.62675)"
         id="path89" /></clipPath><clipPath
       clipPathUnits="userSpaceOnUse"
       id="clipPath90"><path
         d="M -2,-2 H 907 V 427 H -2 Z"
         transform="translate(-648,-59.62675)"
         id="path90" /></clipPath><clipPath
       clipPathUnits="userSpaceOnUse"
       id="clipPath91"><path
         d="M -2,-2 H 907 V 427 H -2 Z"
         transform="translate(-784,-147.62675)"
         id="path91" /></clipPath><clipPath
       clipPathUnits="userSpaceOnUse"
       id="clipPath92"><path
         d="M -2,-2 H 907 V 427 H -2 Z"
         transform="translate(-775,-165.55804)"
         id="path92" /></clipPath><clipPath
       clipPathUnits="userSpaceOnUse"
       id="clipPath93"><path
         d="M -2,-2 H 907 V 427 H -2 Z"
         transform="translate(-795,-201.42062)"
         id="path93" /></clipPath><clipPath
       clipPathUnits="userSpaceOnUse"
       id="clipPath94"><path
         d="M -2,-2 H 907 V 427 H -2 Z"
         transform="translate(-812,-237.2832)"
         id="path94" /></clipPath><clipPath
       clipPathUnits="userSpaceOnUse"
       id="clipPath95"><path
         d="M -2,-2 H 907 V 427 H -2 Z"
         transform="translate(-357,-124.62675)"
         id="path95" /></clipPath><clipPath
       clipPathUnits="userSpaceOnUse"
       id="clipPath96"><path
         d="M -2,-2 H 907 V 427 H -2 Z"
         transform="translate(-508,-124.62675)"
         id="path96" /></clipPath><clipPath
       clipPathUnits="userSpaceOnUse"
       id="clipPath97"><path
         d="M -2,-2 H 907 V 427 H -2 Z"
         transform="translate(-659,-124.62675)"
         id="path97" /></clipPath><clipPath
       clipPathUnits="userSpaceOnUse"
       id="clipPath98"><path
         d="M -2,-2 H 907 V 427 H -2 Z"
         transform="translate(-42,-168.62675)"
         id="path98" /></clipPath><clipPath
       clipPathUnits="userSpaceOnUse"
       id="clipPath99"><path
         d="M -2,-2 H 907 V 427 H -2 Z"
         transform="translate(-23,-186.55804)"
         id="path99" /></clipPath><clipPath
       clipPathUnits="userSpaceOnUse"
       id="clipPath100"><path
         d="M -2,-2 H 907 V 427 H -2 Z"
         transform="translate(-50,-204.48933)"
         id="path100" /></clipPath><clipPath
       clipPathUnits="userSpaceOnUse"
       id="clipPath101"><path
         d="M -2,-2 H 907 V 427 H -2 Z"
         transform="translate(-21,-222.42062)"
         id="path101" /></clipPath><clipPath
       clipPathUnits="userSpaceOnUse"
       id="clipPath102"><path
         d="M -2,-2 H 907 V 427 H -2 Z"
         transform="translate(-19,-258.2832)"
         id="path102" /></clipPath><clipPath
       clipPathUnits="userSpaceOnUse"
       id="clipPath103"><path
         d="M -2,-2 H 907 V 427 H -2 Z"
         transform="translate(-35,-276.21448)"
         id="path103" /></clipPath><clipPath
       clipPathUnits="userSpaceOnUse"
       id="clipPath104"><path
         d="M -2,-2 H 907 V 427 H -2 Z"
         transform="translate(-195,-219.62675)"
         id="path104" /></clipPath><clipPath
       clipPathUnits="userSpaceOnUse"
       id="clipPath105"><path
         d="M -2,-2 H 907 V 427 H -2 Z"
         transform="translate(-166,-237.55804)"
         id="path105" /></clipPath><clipPath
       clipPathUnits="userSpaceOnUse"
       id="clipPath106"><path
         d="M -2,-2 H 907 V 427 H -2 Z"
         transform="translate(-155,-255.48933)"
         id="path106" /></clipPath><clipPath
       clipPathUnits="userSpaceOnUse"
       id="clipPath107"><path
         d="M -2,-2 H 907 V 427 H -2 Z"
         transform="translate(-168,-273.42062)"
         id="path107" /></clipPath><clipPath
       clipPathUnits="userSpaceOnUse"
       id="clipPath108"><path
         d="M -2,-2 H 907 V 427 H -2 Z"
         transform="translate(-186,-309.2832)"
         id="path108" /></clipPath><clipPath
       clipPathUnits="userSpaceOnUse"
       id="clipPath109"><path
         d="M -2,-2 H 907 V 427 H -2 Z"
         transform="translate(-357,-239.62675)"
         id="path109" /></clipPath><clipPath
       clipPathUnits="userSpaceOnUse"
       id="clipPath110"><path
         d="M -2,-2 H 907 V 427 H -2 Z"
         transform="translate(-508,-239.62675)"
         id="path110" /></clipPath><clipPath
       clipPathUnits="userSpaceOnUse"
       id="clipPath111"><path
         d="M -2,-2 H 907 V 427 H -2 Z"
         transform="translate(-659,-239.62675)"
         id="path111" /></clipPath><clipPath
       clipPathUnits="userSpaceOnUse"
       id="clipPath112"><path
         d="M -2,-2 H 907 V 427 H -2 Z"
         transform="translate(-357,-309.62677)"
         id="path112" /></clipPath><clipPath
       clipPathUnits="userSpaceOnUse"
       id="clipPath113"><path
         d="M -2,-2 H 907 V 427 H -2 Z"
         transform="translate(-508,-309.62677)"
         id="path113" /></clipPath><clipPath
       clipPathUnits="userSpaceOnUse"
       id="clipPath114"><path
         d="M -2,-2 H 907 V 427 H -2 Z"
         transform="translate(-659,-309.62677)"
         id="path114" /></clipPath><clipPath
       clipPathUnits="userSpaceOnUse"
       id="clipPath115"><path
         d="M -2,-2 H 907 V 427 H -2 Z"
         transform="translate(-339,-389.62677)"
         id="path115" /></clipPath><clipPath
       clipPathUnits="userSpaceOnUse"
       id="clipPath116"><path
         d="M -2,-2 H 907 V 427 H -2 Z"
         transform="translate(-503,-389.62677)"
         id="path116" /></clipPath></defs><g
     id="g1"
     inkscape:groupmode="layer"
     inkscape:label="1"
     transform="matrix(0.26458333,0,0,0.26458334,-19.711458,-18.785417)"><g
       id="g2"
       transform="translate(-18.918622,-18.918621)"><path
         id="path1"
         d="m 302,405 h 453 v 21 H 302 Z"
         style="fill:#ffffff;fill-opacity:1;fill-rule:nonzero;stroke:none"
         transform="translate(75.5,72)"
         clip-path="url(#clipPath2)" /><path
         id="path3"
         d="M -1,-1 H 906 V 35 H -1 Z"
         style="fill:#385378;fill-opacity:1;fill-rule:nonzero;stroke:none"
         transform="translate(75.5,72)"
         clip-path="url(#clipPath4)" /><path
         id="path5"
         d="M -1,34 H 302 V 95 H -1 Z"
         style="fill:#ffffff;fill-opacity:1;fill-rule:nonzero;stroke:none"
         transform="translate(75.5,72)"
         clip-path="url(#clipPath6)" /><path
         id="path7"
         d="M 301,34 H 453 V 75 H 301 Z"
         style="fill:#96ca50;fill-opacity:1;fill-rule:nonzero;stroke:none"
         transform="translate(75.5,72)"
         clip-path="url(#clipPath8)" /><path
         id="path9"
         d="M 452,34 H 604 V 75 H 452 Z"
         style="fill:#ffca5f;fill-opacity:1;fill-rule:nonzero;stroke:none"
         transform="translate(75.5,72)"
         clip-path="url(#clipPath10)" /><path
         id="path11"
         d="M 603,34 H 755 V 75 H 603 Z"
         style="fill:#96ca50;fill-opacity:1;fill-rule:nonzero;stroke:none"
         transform="translate(75.5,72)"
         clip-path="url(#clipPath12)" /><path
         id="path13"
         d="M 754,34 H 906 V 75 H 754 Z"
         style="fill:#ffffff;fill-opacity:1;fill-rule:nonzero;stroke:none"
         transform="translate(75.5,72)"
         clip-path="url(#clipPath14)" /><path
         id="path15"
         d="M 301,74 H 755 V 85 H 301 Z"
         style="fill:#d6dbe4;fill-opacity:1;fill-rule:nonzero;stroke:none"
         transform="translate(75.5,72)"
         clip-path="url(#clipPath16)" /><path
         id="path17"
         d="M 754,74 H 906 V 85 H 754 Z"
         style="fill:#ad5d55;fill-opacity:1;fill-rule:nonzero;stroke:none"
         transform="translate(75.5,72)"
         clip-path="url(#clipPath18)" /><path
         id="path19"
         d="M 301,84 H 755 V 95 H 301 Z"
         style="fill:#8897ae;fill-opacity:1;fill-rule:nonzero;stroke:none"
         transform="translate(75.5,72)"
         clip-path="url(#clipPath20)" /><path
         id="path21"
         d="M 754,84 H 906 V 95 H 754 Z"
         style="fill:#ad5d55;fill-opacity:1;fill-rule:nonzero;stroke:none"
         transform="translate(75.5,72)"
         clip-path="url(#clipPath22)" /><path
         id="path23"
         d="M -1,94 H 151 V 340 H -1 Z"
         style="fill:#d6dbe4;fill-opacity:1;fill-rule:nonzero;stroke:none"
         transform="translate(75.5,72)"
         clip-path="url(#clipPath24)" /><path
         id="path25"
         d="m 150,94 h 152 v 86 H 150 Z"
         style="fill:#ffffff;fill-opacity:1;fill-rule:nonzero;stroke:none"
         transform="translate(75.5,72)"
         clip-path="url(#clipPath26)" /><path
         id="path27"
         d="m 301,94 h 454 v 61 H 301 Z"
         style="fill:#8897ae;fill-opacity:1;fill-rule:nonzero;stroke:none"
         transform="translate(75.5,72)"
         clip-path="url(#clipPath28)" /><path
         id="path29"
         d="m 754,94 h 152 v 61 H 754 Z"
         style="fill:#ad5d55;fill-opacity:1;fill-rule:nonzero;stroke:none"
         transform="translate(75.5,72)"
         clip-path="url(#clipPath30)" /><path
         id="path31"
         d="m 301,154 h 454 v 26 H 301 Z"
         style="fill:#d6dbe4;fill-opacity:1;fill-rule:nonzero;stroke:none"
         transform="translate(75.5,72)"
         clip-path="url(#clipPath32)" /><path
         id="path33"
         d="m 754,154 h 152 v 26 H 754 Z"
         style="fill:#ad5d55;fill-opacity:1;fill-rule:nonzero;stroke:none"
         transform="translate(75.5,72)"
         clip-path="url(#clipPath34)" /><path
         id="path35"
         d="m 150,179 h 605 v 26 H 150 Z"
         style="fill:#d6dbe4;fill-opacity:1;fill-rule:nonzero;stroke:none"
         transform="translate(75.5,72)"
         clip-path="url(#clipPath36)" /><path
         id="path37"
         d="m 754,179 h 152 v 26 H 754 Z"
         style="fill:#ad5d55;fill-opacity:1;fill-rule:nonzero;stroke:none"
         transform="translate(75.5,72)"
         clip-path="url(#clipPath38)" /><path
         id="path39"
         d="M 150,204 H 302 V 340 H 150 Z"
         style="fill:#d6dbe4;fill-opacity:1;fill-rule:nonzero;stroke:none"
         transform="translate(75.5,72)"
         clip-path="url(#clipPath40)" /><path
         id="path41"
         d="m 301,204 h 303 v 61 H 301 Z"
         style="fill:#8897ae;fill-opacity:1;fill-rule:nonzero;stroke:none"
         transform="translate(75.5,72)"
         clip-path="url(#clipPath42)" /><path
         id="path43"
         d="m 603,204 h 152 v 61 H 603 Z"
         style="fill:#ffca5f;fill-opacity:1;fill-rule:nonzero;stroke:none"
         transform="translate(75.5,72)"
         clip-path="url(#clipPath44)" /><path
         id="path45"
         d="m 754,204 h 152 v 61 H 754 Z"
         style="fill:#ad5d55;fill-opacity:1;fill-rule:nonzero;stroke:none"
         transform="translate(75.5,72)"
         clip-path="url(#clipPath46)" /><path
         id="path47"
         d="m 301,264 h 454 v 11 H 301 Z"
         style="fill:#d6dbe4;fill-opacity:1;fill-rule:nonzero;stroke:none"
         transform="translate(75.5,72)"
         clip-path="url(#clipPath48)" /><path
         id="path49"
         d="m 754,264 h 152 v 11 H 754 Z"
         style="fill:#ad5d55;fill-opacity:1;fill-rule:nonzero;stroke:none"
         transform="translate(75.5,72)"
         clip-path="url(#clipPath50)" /><path
         id="path51"
         d="m 301,274 h 303 v 61 H 301 Z"
         style="fill:#8897ae;fill-opacity:1;fill-rule:nonzero;stroke:none"
         transform="translate(75.5,72)"
         clip-path="url(#clipPath52)" /><path
         id="path53"
         d="m 603,274 h 152 v 61 H 603 Z"
         style="fill:#ffca5f;fill-opacity:1;fill-rule:nonzero;stroke:none"
         transform="translate(75.5,72)"
         clip-path="url(#clipPath54)" /><path
         id="path55"
         d="m 754,274 h 152 v 26 H 754 Z"
         style="fill:#ad5d55;fill-opacity:1;fill-rule:nonzero;stroke:none"
         transform="translate(75.5,72)"
         clip-path="url(#clipPath56)" /><path
         id="path57"
         d="m 754,299 h 152 v 36 H 754 Z"
         style="fill:#ffffff;fill-opacity:1;fill-rule:nonzero;stroke:none"
         transform="translate(75.5,72)"
         clip-path="url(#clipPath58)" /><path
         id="path59"
         d="m 301,334 h 303 v 6 H 301 Z"
         style="fill:#d6dbe4;fill-opacity:1;fill-rule:nonzero;stroke:none"
         transform="translate(75.5,72)"
         clip-path="url(#clipPath60)" /><path
         id="path61"
         d="m 603,334 h 303 v 6 H 603 Z"
         style="fill:#ffffff;fill-opacity:1;fill-rule:nonzero;stroke:none"
         transform="translate(75.5,72)"
         clip-path="url(#clipPath62)" /><path
         id="path63"
         d="m -1,339 h 303 v 87 H -1 Z"
         style="fill:#ffffff;fill-opacity:1;fill-rule:nonzero;stroke:none"
         transform="translate(75.5,72)"
         clip-path="url(#clipPath64)" /><path
         id="path65"
         d="m 301,339 h 303 v 26 H 301 Z"
         style="fill:#d6dbe4;fill-opacity:1;fill-rule:nonzero;stroke:none"
         transform="translate(75.5,72)"
         clip-path="url(#clipPath66)" /><path
         id="path67"
         d="m 603,339 h 303 v 26 H 603 Z"
         style="fill:#ffffff;fill-opacity:1;fill-rule:nonzero;stroke:none"
         transform="translate(75.5,72)"
         clip-path="url(#clipPath68)" /><path
         id="path69"
         d="m 301,364 h 303 v 41 H 301 Z"
         style="fill:#96ca50;fill-opacity:1;fill-rule:nonzero;stroke:none"
         transform="translate(75.5,72)"
         clip-path="url(#clipPath70)" /><path
         id="path71"
         d="m 603,364 h 303 v 41 H 603 Z"
         style="fill:#ffffff;fill-opacity:1;fill-rule:nonzero;stroke:none"
         transform="translate(75.5,72)"
         clip-path="url(#clipPath72)" /><path
         id="path73"
         d="m 754,404 h 152 v 22 H 754 Z"
         style="fill:#ffffff;fill-opacity:1;fill-rule:nonzero;stroke:none"
         transform="translate(75.5,72)"
         clip-path="url(#clipPath74)" /><path
         id="path75"
         d="M -0.5,-1 V 426 M -1,94.5 H 151 M 150.5,-1 V 426 M 150,179.5 H 302 M -1,339.5 H 302 M 301.5,-1 V 426 M 452.5,-1 V 426 M 301,364.5 H 604 M 603.5,-1 V 426 M 301,84.5 h 454 m -454,70 h 454 m -454,50 h 454 m -454,60 h 454 m -454,10 h 454 m -454,60 h 454 m -454,70 H 755 M 754.5,-1 V 426 M -1,-0.5 h 907 m -907,35 h 907 m -605,40 h 605 m -152,225 H 906 M -1,425.5 H 906 M 905.5,-1 v 427"
         style="fill:none;stroke:#ffffff;stroke-width:1;stroke-linecap:butt;stroke-linejoin:miter;stroke-miterlimit:10;stroke-dasharray:none;stroke-opacity:1"
         transform="translate(75.5,72)"
         clip-path="url(#clipPath76)" /><text
         id="text76"
         xml:space="preserve"
         transform="translate(111.5,86.296387)"
         clip-path="url(#clipPath77)"><tspan
           style="font-variant:normal;font-weight:700;font-size:13px;font-family:Arial;writing-mode:lr-tb;fill:#d6dbe4;fill-opacity:1;fill-rule:nonzero;stroke:none"
           x="0 12.025 19.253 26.481001 33.709 40.937 48.867001 56.797001 60.397999 68.328003 72.656998"
           y="0"
           sodipodi:role="line"
           id="tspan76">Weekend of </tspan></text><text
         id="text77"
         xml:space="preserve"
         transform="translate(96.5,101.24512)"
         clip-path="url(#clipPath78)"><tspan
           style="font-variant:normal;font-weight:700;font-size:13px;font-family:Arial;writing-mode:lr-tb;fill:#d6dbe4;fill-opacity:1;fill-rule:nonzero;stroke:none"
           x="0 10.101 17.329 21.658001 25.259001 32.487 39.715 43.316002 52.702 56.303001 63.530998 70.759003 74.360001 77.960999 85.189003 92.417 99.644997"
           y="0"
           sodipodi:role="line"
           id="tspan77">Oct 12 &amp; 13, 2024</tspan></text><text
         id="text78"
         xml:space="preserve"
         transform="translate(247.5,101.24512)"
         clip-path="url(#clipPath79)"><tspan
           style="font-variant:normal;font-weight:700;font-size:13px;font-family:Arial;writing-mode:lr-tb;fill:#d6dbe4;fill-opacity:1;fill-rule:nonzero;stroke:none"
           x="0 10.829 18.759001 26.688999 30.290001 40.390999 47.618999 51.948002 55.549 62.777 70.004997 73.606003 77.207001 84.434998 91.663002 98.890999"
           y="0"
           sodipodi:role="line"
           id="tspan78">Mon Oct 14, 2024</tspan></text><text
         id="text79"
         xml:space="preserve"
         transform="translate(434.5,86.296387)"
         clip-path="url(#clipPath80)"><tspan
           style="font-variant:normal;font-weight:700;font-size:13px;font-family:Arial;writing-mode:lr-tb;fill:#d6dbe4;fill-opacity:1;fill-rule:nonzero;stroke:none"
           x="0 9.3859997 16.614 23.841999 27.443001"
           y="0"
           sodipodi:role="line"
           id="tspan79">Day 1</tspan></text><text
         id="text80"
         xml:space="preserve"
         transform="translate(401.5,101.24512)"
         clip-path="url(#clipPath81)"><tspan
           style="font-variant:normal;font-weight:700;font-size:13px;font-family:Arial;writing-mode:lr-tb;fill:#d6dbe4;fill-opacity:1;fill-rule:nonzero;stroke:none"
           x="0 6.9679999 14.898 22.125999 25.726999 35.827999 43.056 47.384998 50.986 58.214001 65.442001 69.042999 72.643997 79.872002 87.099998 94.328003"
           y="0"
           sodipodi:role="line"
           id="tspan80">Tue Oct 15, 2024</tspan></text><text
         id="text81"
         xml:space="preserve"
         transform="translate(585.5,86.296387)"
         clip-path="url(#clipPath82)"><tspan
           style="font-variant:normal;font-weight:700;font-size:13px;font-family:Arial;writing-mode:lr-tb;fill:#d6dbe4;fill-opacity:1;fill-rule:nonzero;stroke:none"
           x="0 9.3859997 16.614 23.841999 27.443001"
           y="0"
           sodipodi:role="line"
           id="tspan81">Day 2</tspan></text><text
         id="text82"
         xml:space="preserve"
         transform="translate(549.5,101.24512)"
         clip-path="url(#clipPath83)"><tspan
           style="font-variant:normal;font-weight:700;font-size:13px;font-family:Arial;writing-mode:lr-tb;fill:#d6dbe4;fill-opacity:1;fill-rule:nonzero;stroke:none"
           x="0 12.025 19.253 27.183001 30.784 40.884998 48.112999 52.442001 56.042999 63.271 70.499001 74.099998 77.700996 84.929001 92.156998 99.385002"
           y="0"
           sodipodi:role="line"
           id="tspan82">Wed Oct 16, 2024</tspan></text><text
         id="text83"
         xml:space="preserve"
         transform="translate(736.5,86.296387)"
         clip-path="url(#clipPath84)"><tspan
           style="font-variant:normal;font-weight:700;font-size:13px;font-family:Arial;writing-mode:lr-tb;fill:#d6dbe4;fill-opacity:1;fill-rule:nonzero;stroke:none"
           x="0 9.3859997 16.614 23.841999 27.443001"
           y="0"
           sodipodi:role="line"
           id="tspan83">Day 3</tspan></text><text
         id="text84"
         xml:space="preserve"
         transform="translate(702.5,101.24512)"
         clip-path="url(#clipPath85)"><tspan
           style="font-variant:normal;font-weight:700;font-size:13px;font-family:Arial;writing-mode:lr-tb;fill:#d6dbe4;fill-opacity:1;fill-rule:nonzero;stroke:none"
           x="0 7.9299998 15.86 23.790001 27.391001 37.492001 44.720001 49.049 52.650002 59.877998 67.106003 70.707001 74.307999 81.536003 88.764 95.991997"
           y="0"
           sodipodi:role="line"
           id="tspan84">Thu Oct 17, 2024</tspan></text><text
         id="text85"
         xml:space="preserve"
         transform="translate(887.5,86.296387)"
         clip-path="url(#clipPath86)"><tspan
           style="font-variant:normal;font-weight:700;font-size:13px;font-family:Arial;writing-mode:lr-tb;fill:#d6dbe4;fill-opacity:1;fill-rule:nonzero;stroke:none"
           x="0 9.3859997 16.614 23.841999 27.443001"
           y="0"
           sodipodi:role="line"
           id="tspan85">Day 4</tspan></text><text
         id="text86"
         xml:space="preserve"
         transform="translate(856.5,101.24512)"
         clip-path="url(#clipPath87)"><tspan
           style="font-variant:normal;font-weight:700;font-size:13px;font-family:Arial;writing-mode:lr-tb;fill:#d6dbe4;fill-opacity:1;fill-rule:nonzero;stroke:none"
           x="0 7.9299998 12.987 16.587999 20.188999 30.290001 37.518002 41.847 45.448002 52.675999 59.903999 63.505001 67.106003 74.334 81.561996 88.790001"
           y="0"
           sodipodi:role="line"
           id="tspan86">Fri Oct 18, 2024</tspan></text><text
         id="text87"
         xml:space="preserve"
         transform="translate(421.5,131.62675)"
         clip-path="url(#clipPath88)"><tspan
           style="font-variant:normal;font-weight:700;font-size:15.6px;font-family:Arial;writing-mode:lr-tb;fill:#000000;fill-opacity:1;fill-rule:nonzero;stroke:none"
           x="0 11.263199 19.936798 28.610397 38.126396 47.642399 52.837196"
           y="0"
           sodipodi:role="line"
           id="tspan87">Keynote</tspan></text><text
         id="text88"
         xml:space="preserve"
         transform="translate(582.5,131.62675)"
         clip-path="url(#clipPath89)"><tspan
           style="font-variant:normal;font-weight:700;font-size:15.6px;font-family:Arial;writing-mode:lr-tb;fill:#000000;fill-opacity:1;fill-rule:nonzero;stroke:none"
           x="0 10.3896 19.063198 28.579199 37.252796"
           y="0"
           sodipodi:role="line"
           id="tspan88">Panel</tspan></text><text
         id="text89"
         xml:space="preserve"
         transform="translate(723.5,131.62675)"
         clip-path="url(#clipPath90)"><tspan
           style="font-variant:normal;font-weight:700;font-size:15.6px;font-family:Arial;writing-mode:lr-tb;fill:#000000;fill-opacity:1;fill-rule:nonzero;stroke:none"
           x="0 11.263199 19.936798 28.610397 38.126396 47.642399 52.837196"
           y="0"
           sodipodi:role="line"
           id="tspan89">Keynote</tspan></text><text
         id="text90"
         xml:space="preserve"
         transform="translate(859.5,219.62675)"
         clip-path="url(#clipPath91)"><tspan
           style="font-variant:normal;font-weight:700;font-size:15.6px;font-family:Arial;writing-mode:lr-tb;fill:#000000;fill-opacity:1;fill-rule:nonzero;stroke:none"
           x="0 8.657999 14.726399 23.399998 27.721199 37.237198 41.558399 51.074398 60.590397 64.911598 74.427597 83.101196"
           y="0"
           sodipodi:role="line"
           id="tspan90">Training day</tspan></text><text
         id="text91"
         xml:space="preserve"
         transform="translate(850.5,237.55804)"
         clip-path="url(#clipPath92)"><tspan
           style="font-variant:normal;font-weight:700;font-size:15.6px;font-family:Arial;writing-mode:lr-tb;fill:#000000;fill-opacity:1;fill-rule:nonzero;stroke:none"
           x="0 15.209999 26.473198 37.736397 48.125996 62.836796 67.157997 72.352798 81.868797 93.131996 104.3952"
           y="0"
           sodipodi:role="line"
           id="tspan91">@UNSW (TBC)</tspan></text><text
         id="text92"
         xml:space="preserve"
         transform="translate(870.5,273.42062)"
         clip-path="url(#clipPath93)"><tspan
           style="font-variant:normal;font-weight:700;font-size:15.6px;font-family:Arial;writing-mode:lr-tb;fill:#000000;fill-opacity:1;fill-rule:nonzero;stroke:none"
           x="0 9.5159998 13.837199 23.353199 32.869198 41.542797 45.863998 57.985195"
           y="0"
           sodipodi:role="line"
           id="tspan92">Lions OS</tspan></text><text
         id="text93"
         xml:space="preserve"
         transform="translate(887.5,309.2832)"
         clip-path="url(#clipPath94)"><tspan
           style="font-variant:normal;font-weight:700;font-size:15.6px;font-family:Arial;writing-mode:lr-tb;fill:#000000;fill-opacity:1;fill-rule:nonzero;stroke:none"
           x="0 11.263199 20.7792 29.452799"
           y="0"
           sodipodi:role="line"
           id="tspan93">Rust</tspan></text><text
         id="text94"
         xml:space="preserve"
         transform="translate(432.5,196.62675)"
         clip-path="url(#clipPath95)"><tspan
           style="font-variant:normal;font-weight:700;font-size:15.6px;font-family:Arial;writing-mode:lr-tb;fill:#000000;fill-opacity:1;fill-rule:nonzero;stroke:none"
           x="0 8.3615999 17.035198 21.3564 30.029999"
           y="0"
           sodipodi:role="line"
           id="tspan94">Talks</tspan></text><text
         id="text95"
         xml:space="preserve"
         transform="translate(583.5,196.62675)"
         clip-path="url(#clipPath96)"><tspan
           style="font-variant:normal;font-weight:700;font-size:15.6px;font-family:Arial;writing-mode:lr-tb;fill:#000000;fill-opacity:1;fill-rule:nonzero;stroke:none"
           x="0 8.3615999 17.035198 21.3564 30.029999"
           y="0"
           sodipodi:role="line"
           id="tspan95">Talks</tspan></text><text
         id="text96"
         xml:space="preserve"
         transform="translate(734.5,196.62675)"
         clip-path="url(#clipPath97)"><tspan
           style="font-variant:normal;font-weight:700;font-size:15.6px;font-family:Arial;writing-mode:lr-tb;fill:#000000;fill-opacity:1;fill-rule:nonzero;stroke:none"
           x="0 8.3615999 17.035198 21.3564 30.029999"
           y="0"
           sodipodi:role="line"
           id="tspan96">Talks</tspan></text><text
         id="text97"
         xml:space="preserve"
         transform="translate(117.5,240.62675)"
         clip-path="url(#clipPath98)"><tspan
           style="font-variant:normal;font-weight:700;font-size:15.6px;font-family:Arial;writing-mode:lr-tb;fill:#000000;fill-opacity:1;fill-rule:nonzero;stroke:none"
           x="0 10.3896 19.9056 25.100399 33.773998 43.289997 48.484798 52.805996 61.479595"
           y="0"
           sodipodi:role="line"
           id="tspan97">Potential</tspan></text><text
         id="text98"
         xml:space="preserve"
         transform="translate(98.5,258.55804)"
         clip-path="url(#clipPath99)"><tspan
           style="font-variant:normal;font-weight:700;font-size:15.6px;font-family:Arial;writing-mode:lr-tb;fill:#000000;fill-opacity:1;fill-rule:nonzero;stroke:none"
           x="0 9.5159998 19.032 27.705599 37.221596 41.542797 53.663998 62.337597 66.658798 75.332397 79.653595 89.169594 98.685593"
           y="0"
           sodipodi:role="line"
           id="tspan98">bush walking </tspan></text><text
         id="text99"
         xml:space="preserve"
         transform="translate(125.5,276.48933)"
         clip-path="url(#clipPath100)"><tspan
           style="font-variant:normal;font-weight:700;font-size:15.6px;font-family:Arial;writing-mode:lr-tb;fill:#000000;fill-opacity:1;fill-rule:nonzero;stroke:none"
           x="0 4.3211999 12.9948 22.510799 26.831999 36.348 45.021599"
           y="0"
           sodipodi:role="line"
           id="tspan99">led by </tspan></text><text
         id="text100"
         xml:space="preserve"
         transform="translate(96.5,294.42062)"
         clip-path="url(#clipPath101)"><tspan
           style="font-variant:normal;font-weight:700;font-size:15.6px;font-family:Arial;writing-mode:lr-tb;fill:#000000;fill-opacity:1;fill-rule:nonzero;stroke:none"
           x="0 12.1212 20.794798 26.863197 36.379196 45.895199 51.089996 55.411198 66.674393 75.347992 79.669197 88.342796 97.016396 103.08479"
           y="0"
           sodipodi:role="line"
           id="tspan100">Gernot Heiser </tspan></text><text
         id="text101"
         xml:space="preserve"
         transform="translate(94.5,330.2832)"
         clip-path="url(#clipPath102)"><tspan
           style="font-variant:normal;font-weight:700;font-size:15.6px;font-family:Arial;writing-mode:lr-tb;fill:#000000;fill-opacity:1;fill-rule:nonzero;stroke:none"
           x="0 5.1947999 13.868399 23.384399 32.900398 38.095196 46.768799 55.442398 60.637196 64.958397 74.474396 78.795593 92.663994 96.985191 101.3064 106.50119"
           y="0"
           sodipodi:role="line"
           id="tspan101">(contact him if </tspan></text><text
         id="text102"
         xml:space="preserve"
         transform="translate(110.5,348.21448)"
         clip-path="url(#clipPath103)"><tspan
           style="font-variant:normal;font-weight:700;font-size:15.6px;font-family:Arial;writing-mode:lr-tb;fill:#000000;fill-opacity:1;fill-rule:nonzero;stroke:none"
           x="0 4.3211999 13.837199 19.032 27.705599 33.773998 42.447598 51.121197 56.315998 64.989594 74.505592"
           y="0"
           sodipodi:role="line"
           id="tspan102">interested)</tspan></text><text
         id="text103"
         xml:space="preserve"
         transform="translate(270.5,291.62675)"
         clip-path="url(#clipPath104)"><tspan
           style="font-variant:normal;font-weight:700;font-size:15.6px;font-family:Arial;writing-mode:lr-tb;fill:#000000;fill-opacity:1;fill-rule:nonzero;stroke:none"
           x="0 4.3211999 13.837199 19.032 28.547998 34.616398 48.484798 57.158398"
           y="0"
           sodipodi:role="line"
           id="tspan103">Informal</tspan></text><text
         id="text104"
         xml:space="preserve"
         transform="translate(241.5,309.55804)"
         clip-path="url(#clipPath105)"><tspan
           style="font-variant:normal;font-weight:700;font-size:15.6px;font-family:Arial;writing-mode:lr-tb;fill:#000000;fill-opacity:1;fill-rule:nonzero;stroke:none"
           x="0 10.3896 19.9056 28.579199 32.900398 41.573997 45.895199 49.639198 60.902397 69.575996 74.770798 79.091995 87.765594 92.086792 97.281593 101.60279 110.27639"
           y="0"
           sodipodi:role="line"
           id="tspan104">Social Activities</tspan></text><text
         id="text105"
         xml:space="preserve"
         transform="translate(230.5,327.48933)"
         clip-path="url(#clipPath106)"><tspan
           style="font-variant:normal;font-weight:700;font-size:15.6px;font-family:Arial;writing-mode:lr-tb;fill:#000000;fill-opacity:1;fill-rule:nonzero;stroke:none"
           x="0 9.5159998 15.584399 25.100399 33.773998 43.289997 47.611198 56.284798 64.958397 74.474396 78.795593 88.311592 96.985191 101.3064 105.62759 115.14359 123.81719 132.4908 136.812"
           y="0"
           sodipodi:role="line"
           id="tspan105">organised by local </tspan></text><text
         id="text106"
         xml:space="preserve"
         transform="translate(243.5,345.42062)"
         clip-path="url(#clipPath107)"><tspan
           style="font-variant:normal;font-weight:700;font-size:15.6px;font-family:Arial;writing-mode:lr-tb;fill:#000000;fill-opacity:1;fill-rule:nonzero;stroke:none"
           x="0 10.3896 19.063198 28.579199 38.095196 46.768799 55.442398 60.637196 69.310799 73.631996 83.147995 91.821594 97.889992 106.56359 110.8848"
           y="0"
           sodipodi:role="line"
           id="tspan106">Sydney-siders. </tspan></text><text
         id="text107"
         xml:space="preserve"
         transform="translate(261.5,381.2832)"
         clip-path="url(#clipPath108)"><tspan
           style="font-variant:normal;font-weight:700;font-size:15.6px;font-family:Arial;writing-mode:lr-tb;fill:#000000;fill-opacity:1;fill-rule:nonzero;stroke:none"
           x="0 10.3896 15.584399 24.257998 32.931599 37.252796 42.447598 51.963596 61.479595 70.153198"
           y="0"
           sodipodi:role="line"
           id="tspan107">Stay tuned</tspan></text><text
         id="text108"
         xml:space="preserve"
         transform="translate(432.5,311.62675)"
         clip-path="url(#clipPath109)"><tspan
           style="font-variant:normal;font-weight:700;font-size:15.6px;font-family:Arial;writing-mode:lr-tb;fill:#000000;fill-opacity:1;fill-rule:nonzero;stroke:none"
           x="0 8.3615999 17.035198 21.3564 30.029999"
           y="0"
           sodipodi:role="line"
           id="tspan108">Talks</tspan></text><text
         id="text109"
         xml:space="preserve"
         transform="translate(583.5,311.62675)"
         clip-path="url(#clipPath110)"><tspan
           style="font-variant:normal;font-weight:700;font-size:15.6px;font-family:Arial;writing-mode:lr-tb;fill:#000000;fill-opacity:1;fill-rule:nonzero;stroke:none"
           x="0 8.3615999 17.035198 21.3564 30.029999"
           y="0"
           sodipodi:role="line"
           id="tspan109">Talks</tspan></text><text
         id="text110"
         xml:space="preserve"
         transform="translate(734.5,311.62675)"
         clip-path="url(#clipPath111)"><tspan
           style="font-variant:normal;font-weight:700;font-size:15.6px;font-family:Arial;writing-mode:lr-tb;fill:#000000;fill-opacity:1;fill-rule:nonzero;stroke:none"
           x="0 11.263199 20.7792 30.295198"
           y="0"
           sodipodi:role="line"
           id="tspan110">BoFs</tspan></text><text
         id="text111"
         xml:space="preserve"
         transform="translate(432.5,381.62677)"
         clip-path="url(#clipPath112)"><tspan
           style="font-variant:normal;font-weight:700;font-size:15.6px;font-family:Arial;writing-mode:lr-tb;fill:#000000;fill-opacity:1;fill-rule:nonzero;stroke:none"
           x="0 8.3615999 17.035198 21.3564 30.029999"
           y="0"
           sodipodi:role="line"
           id="tspan111">Talks</tspan></text><text
         id="text112"
         xml:space="preserve"
         transform="translate(583.5,381.62677)"
         clip-path="url(#clipPath113)"><tspan
           style="font-variant:normal;font-weight:700;font-size:15.6px;font-family:Arial;writing-mode:lr-tb;fill:#000000;fill-opacity:1;fill-rule:nonzero;stroke:none"
           x="0 8.3615999 17.035198 21.3564 30.029999"
           y="0"
           sodipodi:role="line"
           id="tspan112">Talks</tspan></text><text
         id="text113"
         xml:space="preserve"
         transform="translate(734.5,381.62677)"
         clip-path="url(#clipPath114)"><tspan
           style="font-variant:normal;font-weight:700;font-size:15.6px;font-family:Arial;writing-mode:lr-tb;fill:#000000;fill-opacity:1;fill-rule:nonzero;stroke:none"
           x="0 11.263199 20.7792 30.295198"
           y="0"
           sodipodi:role="line"
           id="tspan113">BoFs</tspan></text><text
         id="text114"
         xml:space="preserve"
         transform="translate(414.5,461.62677)"
         clip-path="url(#clipPath115)"><tspan
           style="font-variant:normal;font-weight:700;font-size:15.6px;font-family:Arial;writing-mode:lr-tb;fill:#000000;fill-opacity:1;fill-rule:nonzero;stroke:none"
           x="0 11.263199 19.936798 28.610397 37.283997 46.799995 51.994797 56.315998 65.831993"
           y="0"
           sodipodi:role="line"
           id="tspan114">Reception</tspan></text><text
         id="text115"
         xml:space="preserve"
         transform="translate(578.5,461.62677)"
         clip-path="url(#clipPath116)"><tspan
           style="font-variant:normal;font-weight:700;font-size:15.6px;font-family:Arial;writing-mode:lr-tb;fill:#000000;fill-opacity:1;fill-rule:nonzero;stroke:none"
           x="0 11.263199 15.584399 25.100399 34.616398 43.289997"
           y="0"
           sodipodi:role="line"
           id="tspan115">Dinner</tspan></text></g></g></svg>
