<?xml version="1.0" encoding="UTF-8" standalone="no"?>
<!-- Created with Inkscape (http://www.inkscape.org/) -->

<svg
   width="133.13097mm"
   height="64.181602mm"
   viewBox="0 0 133.13097 64.181602"
   version="1.1"
   id="svg5"
   xml:space="preserve"
   sodipodi:docname="program-at-a-glance-2023.svg"
   inkscape:version="1.2 (dc2aeda, 2022-05-15)"
   xmlns:inkscape="http://www.inkscape.org/namespaces/inkscape"
   xmlns:sodipodi="http://sodipodi.sourceforge.net/DTD/sodipodi-0.dtd"
   xmlns="http://www.w3.org/2000/svg"
   xmlns:svg="http://www.w3.org/2000/svg"><sodipodi:namedview
     id="namedview2263"
     pagecolor="#ffffff"
     bordercolor="#000000"
     borderopacity="0.25"
     inkscape:showpageshadow="2"
     inkscape:pageopacity="0.0"
     inkscape:pagecheckerboard="0"
     inkscape:deskcolor="#d1d1d1"
     inkscape:document-units="mm"
     showgrid="false"
     inkscape:zoom="1.0185118"
     inkscape:cx="411.87543"
     inkscape:cy="208.63773"
     inkscape:window-width="1412"
     inkscape:window-height="818"
     inkscape:window-x="0"
     inkscape:window-y="25"
     inkscape:window-maximized="0"
     inkscape:current-layer="svg5" /><defs
     id="defs2"><clipPath
       clipPathUnits="userSpaceOnUse"
       id="clipPath180"><path
         d="M -2,-2 H 725 V 349 H -2 Z"
         id="path178" /></clipPath><clipPath
       clipPathUnits="userSpaceOnUse"
       id="clipPath278"><path
         d="M -2,-2 H 725 V 349 H -2 Z"
         id="path276" /></clipPath><clipPath
       clipPathUnits="userSpaceOnUse"
       id="clipPath284"><path
         d="M 482,51 H 722 V 67 H 482 Z"
         id="path282" /></clipPath><clipPath
       clipPathUnits="userSpaceOnUse"
       id="clipPath298"><path
         d="M -2,-2 H 725 V 349 H -2 Z"
         id="path296" /></clipPath><clipPath
       clipPathUnits="userSpaceOnUse"
       id="clipPath304"><path
         d="M 482,69 H 722 V 85 H 482 Z"
         id="path302" /></clipPath><clipPath
       clipPathUnits="userSpaceOnUse"
       id="clipPath318"><path
         d="M -2,-2 H 725 V 349 H -2 Z"
         id="path316" /></clipPath><clipPath
       clipPathUnits="userSpaceOnUse"
       id="clipPath324"><path
         d="m 0,96 h 239 v 16 H 0 Z"
         id="path322" /></clipPath><clipPath
       clipPathUnits="userSpaceOnUse"
       id="clipPath338"><path
         d="M -2,-2 H 725 V 349 H -2 Z"
         id="path336" /></clipPath><clipPath
       clipPathUnits="userSpaceOnUse"
       id="clipPath344"><path
         d="m 241,96 h 239 v 16 H 241 Z"
         id="path342" /></clipPath><clipPath
       clipPathUnits="userSpaceOnUse"
       id="clipPath358"><path
         d="M -2,-2 H 725 V 349 H -2 Z"
         id="path356" /></clipPath><clipPath
       clipPathUnits="userSpaceOnUse"
       id="clipPath372"><path
         d="M -2,-2 H 725 V 349 H -2 Z"
         id="path370" /></clipPath><clipPath
       clipPathUnits="userSpaceOnUse"
       id="clipPath378"><path
         d="m 0,114 h 239 v 16 H 0 Z"
         id="path376" /></clipPath><clipPath
       clipPathUnits="userSpaceOnUse"
       id="clipPath392"><path
         d="M -2,-2 H 725 V 349 H -2 Z"
         id="path390" /></clipPath><clipPath
       clipPathUnits="userSpaceOnUse"
       id="clipPath398"><path
         d="m 241,114 h 239 v 16 H 241 Z"
         id="path396" /></clipPath><clipPath
       clipPathUnits="userSpaceOnUse"
       id="clipPath412"><path
         d="M -2,-2 H 725 V 349 H -2 Z"
         id="path410" /></clipPath><clipPath
       clipPathUnits="userSpaceOnUse"
       id="clipPath418"><path
         d="m 0,141 h 239 v 16 H 0 Z"
         id="path416" /></clipPath><clipPath
       clipPathUnits="userSpaceOnUse"
       id="clipPath432"><path
         d="M -2,-2 H 725 V 349 H -2 Z"
         id="path430" /></clipPath><clipPath
       clipPathUnits="userSpaceOnUse"
       id="clipPath438"><path
         d="m 241,141 h 239 v 16 H 241 Z"
         id="path436" /></clipPath><clipPath
       clipPathUnits="userSpaceOnUse"
       id="clipPath452"><path
         d="M -2,-2 H 725 V 349 H -2 Z"
         id="path450" /></clipPath><clipPath
       clipPathUnits="userSpaceOnUse"
       id="clipPath470"><path
         d="M -2,-2 H 725 V 349 H -2 Z"
         id="path468" /></clipPath><clipPath
       clipPathUnits="userSpaceOnUse"
       id="clipPath476"><path
         d="m 0,159 h 239 v 16 H 0 Z"
         id="path474" /></clipPath><clipPath
       clipPathUnits="userSpaceOnUse"
       id="clipPath490"><path
         d="M -2,-2 H 725 V 349 H -2 Z"
         id="path488" /></clipPath><clipPath
       clipPathUnits="userSpaceOnUse"
       id="clipPath496"><path
         d="m 241,159 h 239 v 16 H 241 Z"
         id="path494" /></clipPath><clipPath
       clipPathUnits="userSpaceOnUse"
       id="clipPath510"><path
         d="M -2,-2 H 725 V 349 H -2 Z"
         id="path508" /></clipPath><clipPath
       clipPathUnits="userSpaceOnUse"
       id="clipPath516"><path
         d="m 0,213 h 239 v 16 H 0 Z"
         id="path514" /></clipPath><clipPath
       clipPathUnits="userSpaceOnUse"
       id="clipPath530"><path
         d="M -2,-2 H 725 V 349 H -2 Z"
         id="path528" /></clipPath><clipPath
       clipPathUnits="userSpaceOnUse"
       id="clipPath536"><path
         d="m 241,213 h 239 v 16 H 241 Z"
         id="path534" /></clipPath><clipPath
       clipPathUnits="userSpaceOnUse"
       id="clipPath550"><path
         d="M -2,-2 H 725 V 349 H -2 Z"
         id="path548" /></clipPath><clipPath
       clipPathUnits="userSpaceOnUse"
       id="clipPath568"><path
         d="M -2,-2 H 725 V 349 H -2 Z"
         id="path566" /></clipPath><clipPath
       clipPathUnits="userSpaceOnUse"
       id="clipPath574"><path
         d="m 0,231 h 239 v 16 H 0 Z"
         id="path572" /></clipPath><clipPath
       clipPathUnits="userSpaceOnUse"
       id="clipPath588"><path
         d="M -2,-2 H 725 V 349 H -2 Z"
         id="path586" /></clipPath><clipPath
       clipPathUnits="userSpaceOnUse"
       id="clipPath594"><path
         d="m 241,231 h 239 v 16 H 241 Z"
         id="path592" /></clipPath><clipPath
       clipPathUnits="userSpaceOnUse"
       id="clipPath608"><path
         d="M -2,-2 H 725 V 349 H -2 Z"
         id="path606" /></clipPath><clipPath
       clipPathUnits="userSpaceOnUse"
       id="clipPath614"><path
         d="m 0,258 h 239 v 16 H 0 Z"
         id="path612" /></clipPath><clipPath
       clipPathUnits="userSpaceOnUse"
       id="clipPath628"><path
         d="M -2,-2 H 725 V 349 H -2 Z"
         id="path626" /></clipPath><clipPath
       clipPathUnits="userSpaceOnUse"
       id="clipPath634"><path
         d="m 241,258 h 239 v 16 H 241 Z"
         id="path632" /></clipPath><clipPath
       clipPathUnits="userSpaceOnUse"
       id="clipPath648"><path
         d="M -2,-2 H 725 V 349 H -2 Z"
         id="path646" /></clipPath><clipPath
       clipPathUnits="userSpaceOnUse"
       id="clipPath662"><path
         d="M -2,-2 H 725 V 349 H -2 Z"
         id="path660" /></clipPath><clipPath
       clipPathUnits="userSpaceOnUse"
       id="clipPath668"><path
         d="m 0,276 h 239 v 16 H 0 Z"
         id="path666" /></clipPath><clipPath
       clipPathUnits="userSpaceOnUse"
       id="clipPath682"><path
         d="M -2,-2 H 725 V 349 H -2 Z"
         id="path680" /></clipPath><clipPath
       clipPathUnits="userSpaceOnUse"
       id="clipPath688"><path
         d="m 241,276 h 239 v 16 H 241 Z"
         id="path686" /></clipPath><clipPath
       clipPathUnits="userSpaceOnUse"
       id="clipPath702"><path
         d="M -2,-2 H 725 V 349 H -2 Z"
         id="path700" /></clipPath><clipPath
       clipPathUnits="userSpaceOnUse"
       id="clipPath716"><path
         d="M -2,-2 H 725 V 349 H -2 Z"
         id="path714" /></clipPath><clipPath
       clipPathUnits="userSpaceOnUse"
       id="clipPath722"><path
         d="m 241,303 h 239 v 16 H 241 Z"
         id="path720" /></clipPath><clipPath
       clipPathUnits="userSpaceOnUse"
       id="clipPath736"><path
         d="M -2,-2 H 725 V 349 H -2 Z"
         id="path734" /></clipPath></defs><g
     id="layer1"
     transform="matrix(0.73517158,0,0,0.73517158,-174.44234,-13.638272)" /><g
     id="g172"
     transform="matrix(0.25935218,0,0,0.2593522,-12.704598,-13.638267)"><g
       id="g174"
       transform="matrix(0.70705395,0,0,0.70705395,50.4,54.000001)"><g
         id="g176"
         clip-path="url(#clipPath180)"><path
           d="M -1,-1 H 724 V 51 H -1 Z"
           style="fill:#385378;fill-opacity:1;fill-rule:nonzero;stroke:none"
           id="path182" /><path
           d="M -1,50 H 482 V 87 H -1 Z"
           style="fill:#96ca50;fill-opacity:1;fill-rule:nonzero;stroke:none"
           id="path184" /><path
           d="M 481,50 H 724 V 69 H 481 Z"
           style="fill:#ffca5f;fill-opacity:1;fill-rule:nonzero;stroke:none"
           id="path186" /><path
           d="M 481,68 H 724 V 87 H 481 Z"
           style="fill:#8897ae;fill-opacity:1;fill-rule:nonzero;stroke:none"
           id="path188" /><path
           d="M -1,86 H 724 V 96 H -1 Z"
           style="fill:#d6dbe4;fill-opacity:1;fill-rule:nonzero;stroke:none"
           id="path190" /><path
           d="m -1,95 h 725 v 37 H -1 Z"
           style="fill:#8897ae;fill-opacity:1;fill-rule:nonzero;stroke:none"
           id="path192" /><path
           d="m -1,131 h 725 v 10 H -1 Z"
           style="fill:#d6dbe4;fill-opacity:1;fill-rule:nonzero;stroke:none"
           id="path194" /><path
           d="m -1,140 h 483 v 37 H -1 Z"
           style="fill:#8897ae;fill-opacity:1;fill-rule:nonzero;stroke:none"
           id="path196" /><path
           d="m 481,140 h 243 v 37 H 481 Z"
           style="fill:#ffca5f;fill-opacity:1;fill-rule:nonzero;stroke:none"
           id="path198" /><path
           d="m -1,176 h 725 v 37 H -1 Z"
           style="fill:#d6dbe4;fill-opacity:1;fill-rule:nonzero;stroke:none"
           id="path200" /><path
           d="m -1,212 h 483 v 19 H -1 Z"
           style="fill:#8897ae;fill-opacity:1;fill-rule:nonzero;stroke:none"
           id="path202" /><path
           d="m 481,212 h 243 v 19 H 481 Z"
           style="fill:#ffca5f;fill-opacity:1;fill-rule:nonzero;stroke:none"
           id="path204" /><path
           d="m -1,230 h 242 v 19 H -1 Z"
           style="fill:#8897ae;fill-opacity:1;fill-rule:nonzero;stroke:none"
           id="path206" /><path
           d="m 240,230 h 484 v 19 H 240 Z"
           style="fill:#ffca5f;fill-opacity:1;fill-rule:nonzero;stroke:none"
           id="path208" /><path
           d="m -1,248 h 725 v 10 H -1 Z"
           style="fill:#d6dbe4;fill-opacity:1;fill-rule:nonzero;stroke:none"
           id="path210" /><path
           d="m -1,257 h 483 v 37 H -1 Z"
           style="fill:#8897ae;fill-opacity:1;fill-rule:nonzero;stroke:none"
           id="path212" /><path
           d="m 481,257 h 243 v 37 H 481 Z"
           style="fill:#ac5d55;fill-opacity:1;fill-rule:nonzero;stroke:none"
           id="path214" /><path
           d="m -1,293 h 483 v 10 H -1 Z"
           style="fill:#d6dbe4;fill-opacity:1;fill-rule:nonzero;stroke:none"
           id="path216" /><path
           d="m 481,293 h 243 v 10 H 481 Z"
           style="fill:#ac5d55;fill-opacity:1;fill-rule:nonzero;stroke:none"
           id="path218" /><path
           d="m -1,302 h 483 v 37 H -1 Z"
           style="fill:#8897ae;fill-opacity:1;fill-rule:nonzero;stroke:none"
           id="path220" /><path
           d="m 481,302 h 243 v 28 H 481 Z"
           style="fill:#ac5d55;fill-opacity:1;fill-rule:nonzero;stroke:none"
           id="path222" /><path
           d="m 481,329 h 243 v 10 H 481 Z"
           style="fill:#d6dbe4;fill-opacity:1;fill-rule:nonzero;stroke:none"
           id="path224" /><path
           d="m -1,338 h 242 v 10 H -1 Z"
           style="fill:#d6dbe4;fill-opacity:1;fill-rule:nonzero;stroke:none"
           id="path226" /><path
           d="m 240,338 h 242 v 10 H 240 Z"
           style="fill:#8897ae;fill-opacity:1;fill-rule:nonzero;stroke:none"
           id="path228" /><path
           d="m 481,338 h 243 v 10 H 481 Z"
           style="fill:#d6dbe4;fill-opacity:1;fill-rule:nonzero;stroke:none"
           id="path230" /><g
           id="g232"><path
             d="m -1,0 v 0 h -1 v -1 h 1 z m 0,-1 v 0 -1 h 1 v 1 z m 0,52 v 0 h -1 v -1 h 1 z m 0,3 v 0 h -1 v -1 h 1 z m 0,3 v 0 h -1 v -1 h 1 z m 0,3 v 0 h -1 v -1 h 1 z m 0,3 v 0 h -1 v -1 h 1 z m 0,3 v 0 h -1 v -1 h 1 z m 0,3 v 0 h -1 v -1 h 1 z m 0,3 v 0 h -1 v -1 h 1 z m 0,3 v 0 h -1 v -1 h 1 z m 0,3 v 0 h -1 v -1 h 1 z m 0,3 v 0 h -1 v -1 h 1 z m 0,3 v 0 h -1 v -1 h 1 z m 0,3 v 0 h -1 v -1 h 1 z m 0,3 v 0 h -1 v -1 h 1 z m 0,3 v 0 h -1 v -1 h 1 z m 0,3 v 0 h -1 v -1 h 1 z m 0,3 v 0 h -1 v -1 h 1 z m 0,3 v 0 h -1 v -1 h 1 z m 0,3 v 0 h -1 v -1 h 1 z m 0,3 v 0 h -1 v -1 h 1 z m 0,3 v 0 h -1 v -1 h 1 z m 0,3 v 0 h -1 v -1 h 1 z m 0,3 v 0 h -1 v -1 h 1 z m 0,3 v 0 h -1 v -1 h 1 z m 0,3 v 0 h -1 v -1 h 1 z m 0,3 v 0 h -1 v -1 h 1 z m 0,3 v 0 h -1 v -1 h 1 z m 0,3 v 0 h -1 v -1 h 1 z m 0,3 v 0 h -1 v -1 h 1 z m 0,3 v 0 h -1 v -1 h 1 z m 0,3 v 0 h -1 v -1 h 1 z m 0,3 v 0 h -1 v -1 h 1 z m 0,3 v 0 h -1 v -1 h 1 z m 0,3 v 0 h -1 v -1 h 1 z m 0,3 v 0 h -1 v -1 h 1 z m 0,3 v 0 h -1 v -1 h 1 z m 0,3 v 0 h -1 v -1 h 1 z m 0,3 v 0 h -1 v -1 h 1 z m 0,3 v 0 h -1 v -1 h 1 z m 0,3 v 0 h -1 v -1 h 1 z m 0,3 v 0 h -1 v -1 h 1 z m 0,3 v 0 h -1 v -1 h 1 z m 0,3 v 0 h -1 v -1 h 1 z m 0,3 v 0 h -1 v -1 h 1 z m 0,3 v 0 h -1 v -1 h 1 z m 0,3 v 0 h -1 v -1 h 1 z m 0,3 v 0 h -1 v -1 h 1 z m 0,3 v 0 h -1 v -1 h 1 z m 0,3 v 0 h -1 v -1 h 1 z m 0,3 v 0 h -1 v -1 h 1 z m 0,3 v 0 h -1 v -1 h 1 z m 0,3 v 0 h -1 v -1 h 1 z m 0,3 v 0 h -1 v -1 h 1 z m 0,3 v 0 h -1 v -1 h 1 z m 0,3 v 0 h -1 v -1 h 1 z m 0,3 v 0 h -1 v -1 h 1 z m 0,3 v 0 h -1 v -1 h 1 z m 0,3 v 0 h -1 v -1 h 1 z m 0,3 v 0 h -1 v -1 h 1 z m 0,3 v 0 h -1 v -1 h 1 z m 0,3 v 0 h -1 v -1 h 1 z m 0,3 v 0 h -1 v -1 h 1 z m 0,3 v 0 h -1 v -1 h 1 z m 0,3 v 0 h -1 v -1 h 1 z m 0,3 v 0 h -1 v -1 h 1 z m 0,3 v 0 h -1 v -1 h 1 z m 0,3 v 0 h -1 v -1 h 1 z m 0,3 v 0 h -1 v -1 h 1 z m 0,3 v 0 h -1 v -1 h 1 z m 0,3 v 0 h -1 v -1 h 1 z m 0,3 v 0 h -1 v -1 h 1 z m 0,3 v 0 h -1 v -1 h 1 z m 0,3 v 0 h -1 v -1 h 1 z m 0,3 v 0 h -1 v -1 h 1 z m 0,3 v 0 h -1 v -1 h 1 z m 0,3 v 0 h -1 v -1 h 1 z m 0,3 v 0 h -1 v -1 h 1 z m 0,3 v 0 h -1 v -1 h 1 z m 0,3 v 0 h -1 v -1 h 1 z m 0,3 v 0 h -1 v -1 h 1 z m 0,3 v 0 h -1 v -1 h 1 z m 0,3 v 0 h -1 v -1 h 1 z m 0,3 v 0 h -1 v -1 h 1 z m 0,3 v 0 h -1 v -1 h 1 z m 0,3 v 0 h -1 v -1 h 1 z m 0,3 v 0 h -1 v -1 h 1 z m 0,3 v 0 h -1 v -1 h 1 z m 0,3 v 0 h -1 v -1 h 1 z m 0,3 v 0 h -1 v -1 h 1 z m 0,3 v 0 h -1 v -1 h 1 z m 0,3 v 0 h -1 v -1 h 1 z m 0,3 v 0 h -1 v -1 h 1 z m 0,3 v 0 h -1 v -1 h 1 z m 0,3 v 0 h -1 v -1 h 1 z m 0,3 v 0 h -1 v -1 h 1 z m 0,3 v 0 h -1 v -1 h 1 z m 0,3 v 0 h -1 v -1 h 1 z m 0,3 v 0 h -1 v -1 h 1 z m 0,3 v 0 h -1 v -1 h 1 z m 0,3 v 0 h -1 v -1 h 1 z M 240,-1 v 0 -1 h 1 v 1 z m 241,0 v 0 -1 h 1 v 1 z m 121,0 v 0 -1 h 1 v 1 z m 121,0 v 0 -1 h 1 v 1 z"
             style="fill:#000000;fill-opacity:0.14902;fill-rule:nonzero;stroke:none"
             id="path234" /></g><path
           d="M -1,-2 V 348 M -2,338 H 241 M 240,-2 V 348 M -2,113 H 482 M -2,158 H 482 M -2,230 H 482 M -2,275 H 482 M -2,293 H 482 M -2,302 H 482 M 239,320 H 482 M 481,-2 V 348 M 602,85 v 11 m 0,34 v 11 m 0,7 v 92 m 0,7 v 11 m 0,70 v 20 M -2,-1 H 724 M -2,50 H 724 M 480,68 H 724 M -2,86 H 724 M -2,95 H 724 M -2,131 h 726 m -726,9 h 726 m -244,9 H 724 M -2,176 H 724 M -2,185 H 724 M -2,194 H 724 M -2,203 H 724 M -2,212 H 724 M 480,239 H 724 M -2,248 H 724 M -2,257 H 724 M 480,329 H 724 M -2,347 H 724 M 723,-2 v 350"
           style="fill:none;stroke:#d6dbe4;stroke-width:2;stroke-linecap:butt;stroke-linejoin:miter;stroke-miterlimit:10;stroke-dasharray:none;stroke-opacity:1"
           id="path236" /><text
           xml:space="preserve"
           transform="translate(96,20.843208)"
           style="font-variant:normal;font-weight:bold;font-size:16.9px;font-family:Arial;-inkscape-font-specification:Arial-BoldMT;writing-mode:lr-tb;fill:#d6dbe4;fill-opacity:1;fill-rule:nonzero;stroke:none"
           id="text240"><tspan
             x="0 12.2018 21.5982 30.9946 35.6759"
             y="0"
             id="tspan238">Day 1</tspan></text><text
           xml:space="preserve"
           transform="translate(60,40.265778)"
           style="font-variant:normal;font-weight:bold;font-size:16.9px;font-family:Arial;-inkscape-font-specification:Arial-BoldMT;writing-mode:lr-tb;fill:#d6dbe4;fill-opacity:1;fill-rule:nonzero;stroke:none"
           id="text244"><tspan
             x="0 11.2554 20.6518 30.9608 35.642101 45.038502 54.434898 60.062599 70.371597 75.052902 79.7342 89.1306 98.527 107.9234"
             y="0"
             id="tspan242">Sep 19th, 2023</tspan></text><text
           xml:space="preserve"
           transform="translate(337,20.843208)"
           style="font-variant:normal;font-weight:bold;font-size:16.9px;font-family:Arial;-inkscape-font-specification:Arial-BoldMT;writing-mode:lr-tb;fill:#d6dbe4;fill-opacity:1;fill-rule:nonzero;stroke:none"
           id="text248"><tspan
             x="0 12.2018 21.5982 30.9946 35.6759"
             y="0"
             id="tspan246">Day 2</tspan></text><text
           xml:space="preserve"
           transform="translate(301,40.265778)"
           style="font-variant:normal;font-weight:bold;font-size:16.9px;font-family:Arial;-inkscape-font-specification:Arial-BoldMT;writing-mode:lr-tb;fill:#d6dbe4;fill-opacity:1;fill-rule:nonzero;stroke:none"
           id="text252"><tspan
             x="0 11.2554 20.6518 30.9608 35.642101 45.038502 54.434898 60.062599 70.371597 75.052902 79.7342 89.1306 98.527 107.9234"
             y="0"
             id="tspan250">Sep 20th, 2023</tspan></text><text
           xml:space="preserve"
           transform="translate(579,20.843208)"
           style="font-variant:normal;font-weight:bold;font-size:16.9px;font-family:Arial;-inkscape-font-specification:Arial-BoldMT;writing-mode:lr-tb;fill:#d6dbe4;fill-opacity:1;fill-rule:nonzero;stroke:none"
           id="text256"><tspan
             x="0 12.2018 21.5982 30.9946 35.6759"
             y="0"
             id="tspan254">Day 3</tspan></text><text
           xml:space="preserve"
           transform="translate(543,40.265778)"
           style="font-variant:normal;font-weight:bold;font-size:16.9px;font-family:Arial;-inkscape-font-specification:Arial-BoldMT;writing-mode:lr-tb;fill:#d6dbe4;fill-opacity:1;fill-rule:nonzero;stroke:none"
           id="text260"><tspan
             x="0 11.2554 20.6518 30.9608 35.642101 45.038502 54.434898 63.831299 69.459 74.140297 78.821602 88.218002 97.614403 107.0108"
             y="0"
             id="tspan258">Sep 21st, 2023</tspan></text><text
           xml:space="preserve"
           transform="translate(91,72.4103)"
           style="font-variant:normal;font-weight:bold;font-size:14.3px;font-family:Arial;-inkscape-font-specification:Arial-BoldMT;writing-mode:lr-tb;fill:#000000;fill-opacity:1;fill-rule:nonzero;stroke:none"
           id="text264"><tspan
             x="0 10.324599 18.275398 26.226198 34.949196 43.672195 48.434097"
             y="0"
             id="tspan262">Keynote</tspan></text><text
           xml:space="preserve"
           transform="translate(332,72.4103)"
           style="font-variant:normal;font-weight:bold;font-size:14.3px;font-family:Arial;-inkscape-font-specification:Arial-BoldMT;writing-mode:lr-tb;fill:#000000;fill-opacity:1;fill-rule:nonzero;stroke:none"
           id="text268"><tspan
             x="0 10.324599 18.275398 26.226198 34.949196 43.672195 48.434097"
             y="0"
             id="tspan266">Keynote</tspan></text></g></g><g
       id="g270"><g
         id="g272"
         transform="matrix(0.70705396,0,0,0.70705396,50.4,54)"><g
           id="g274"
           clip-path="url(#clipPath278)"><g
             id="g280"
             clip-path="url(#clipPath284)"><text
               xml:space="preserve"
               transform="translate(537,63.4103)"
               style="font-variant:normal;font-weight:bold;font-size:14.3px;font-family:Arial;-inkscape-font-specification:Arial-BoldMT;writing-mode:lr-tb;fill:#000000;fill-opacity:1;fill-rule:nonzero;stroke:none"
               id="text288"><tspan
                 x="0 9.5237989 13.4849 24.595999 32.546799 36.507896 46.832497 50.793598 61.118195 69.841194 82.553894 95.266594 103.98959 112.71259 116.67369 121.43559"
                 y="0"
                 id="tspan286">SIGs &amp; Community</tspan></text></g></g></g></g><g
       id="g290"><g
         id="g292"
         transform="matrix(0.70705396,0,0,0.70705396,50.4,54)"><g
           id="g294"
           clip-path="url(#clipPath298)"><g
             id="g300"
             clip-path="url(#clipPath304)"><text
               xml:space="preserve"
               transform="translate(588,81.4103)"
               style="font-variant:normal;font-weight:bold;font-size:14.3px;font-family:Arial;-inkscape-font-specification:Arial-BoldMT;writing-mode:lr-tb;fill:#000000;fill-opacity:1;fill-rule:nonzero;stroke:none"
               id="text308"><tspan
                 x="0 7.6647997 15.615599 19.576698"
                 y="0"
                 id="tspan306">Talk</tspan></text></g></g></g></g><g
       id="g310"><g
         id="g312"
         transform="matrix(0.70705396,0,0,0.70705396,50.4,54)"><g
           id="g314"
           clip-path="url(#clipPath318)"><g
             id="g320"
             clip-path="url(#clipPath324)"><text
               xml:space="preserve"
               transform="translate(105,108.4103)"
               style="font-variant:normal;font-weight:bold;font-size:14.3px;font-family:Arial;-inkscape-font-specification:Arial-BoldMT;writing-mode:lr-tb;fill:#000000;fill-opacity:1;fill-rule:nonzero;stroke:none"
               id="text328"><tspan
                 x="0 7.6647997 15.615599 19.576698"
                 y="0"
                 id="tspan326">Talk</tspan></text></g></g></g></g><g
       id="g330"><g
         id="g332"
         transform="matrix(0.70705396,0,0,0.70705396,50.4,54)"><g
           id="g334"
           clip-path="url(#clipPath338)"><g
             id="g340"
             clip-path="url(#clipPath344)"><text
               xml:space="preserve"
               transform="translate(346,108.4103)"
               style="font-variant:normal;font-weight:bold;font-size:14.3px;font-family:Arial;-inkscape-font-specification:Arial-BoldMT;writing-mode:lr-tb;fill:#000000;fill-opacity:1;fill-rule:nonzero;stroke:none"
               id="text348"><tspan
                 x="0 7.6647997 15.615599 19.576698"
                 y="0"
                 id="tspan346">Talk</tspan></text></g></g></g></g><g
       id="g350"><g
         id="g352"
         transform="matrix(0.70705396,0,0,0.70705396,50.4,54)"><g
           id="g354"
           clip-path="url(#clipPath358)"><text
             xml:space="preserve"
             transform="translate(563,117.4103)"
             style="font-variant:normal;font-weight:bold;font-size:14.3px;font-family:Arial;-inkscape-font-specification:Arial-BoldMT;writing-mode:lr-tb;fill:#000000;fill-opacity:1;fill-rule:nonzero;stroke:none"
             id="text362"><tspan
               x="0 9.5237989 18.246799 26.969799 32.532497 37.294399 41.255497 48.920296 56.871098 60.832195 68.782997"
               y="0"
               id="tspan360">Short Talks</tspan></text></g></g></g><g
       id="g364"><g
         id="g366"
         transform="matrix(0.70705396,0,0,0.70705396,50.4,54)"><g
           id="g368"
           clip-path="url(#clipPath372)"><g
             id="g374"
             clip-path="url(#clipPath378)"><text
               xml:space="preserve"
               transform="translate(105,126.4103)"
               style="font-variant:normal;font-weight:bold;font-size:14.3px;font-family:Arial;-inkscape-font-specification:Arial-BoldMT;writing-mode:lr-tb;fill:#000000;fill-opacity:1;fill-rule:nonzero;stroke:none"
               id="text382"><tspan
                 x="0 7.6647997 15.615599 19.576698"
                 y="0"
                 id="tspan380">Talk</tspan></text></g></g></g></g><g
       id="g384"><g
         id="g386"
         transform="matrix(0.70705396,0,0,0.70705396,50.4,54)"><g
           id="g388"
           clip-path="url(#clipPath392)"><g
             id="g394"
             clip-path="url(#clipPath398)"><text
               xml:space="preserve"
               transform="translate(346,126.4103)"
               style="font-variant:normal;font-weight:bold;font-size:14.3px;font-family:Arial;-inkscape-font-specification:Arial-BoldMT;writing-mode:lr-tb;fill:#000000;fill-opacity:1;fill-rule:nonzero;stroke:none"
               id="text402"><tspan
                 x="0 7.6647997 15.615599 19.576698"
                 y="0"
                 id="tspan400">Talk</tspan></text></g></g></g></g><g
       id="g404"><g
         id="g406"
         transform="matrix(0.70705396,0,0,0.70705396,50.4,54)"><g
           id="g408"
           clip-path="url(#clipPath412)"><g
             id="g414"
             clip-path="url(#clipPath418)"><text
               xml:space="preserve"
               transform="translate(105,153.41031)"
               style="font-variant:normal;font-weight:bold;font-size:14.3px;font-family:Arial;-inkscape-font-specification:Arial-BoldMT;writing-mode:lr-tb;fill:#000000;fill-opacity:1;fill-rule:nonzero;stroke:none"
               id="text422"><tspan
                 x="0 7.6647997 15.615599 19.576698"
                 y="0"
                 id="tspan420">Talk</tspan></text></g></g></g></g><g
       id="g424"><g
         id="g426"
         transform="matrix(0.70705396,0,0,0.70705396,50.4,54)"><g
           id="g428"
           clip-path="url(#clipPath432)"><g
             id="g434"
             clip-path="url(#clipPath438)"><text
               xml:space="preserve"
               transform="translate(346,153.41031)"
               style="font-variant:normal;font-weight:bold;font-size:14.3px;font-family:Arial;-inkscape-font-specification:Arial-BoldMT;writing-mode:lr-tb;fill:#000000;fill-opacity:1;fill-rule:nonzero;stroke:none"
               id="text442"><tspan
                 x="0 7.6647997 15.615599 19.576698"
                 y="0"
                 id="tspan440">Talk</tspan></text></g></g></g></g><g
       id="g444"><g
         id="g446"
         transform="matrix(0.70705396,0,0,0.70705396,50.4,54)"><g
           id="g448"
           clip-path="url(#clipPath452)"><text
             xml:space="preserve"
             transform="translate(527,167.41031)"
             style="font-variant:normal;font-weight:bold;font-size:14.3px;font-family:Arial;-inkscape-font-specification:Arial-BoldMT;writing-mode:lr-tb;fill:#000000;fill-opacity:1;fill-rule:nonzero;stroke:none"
             id="text456"><tspan
               x="0 10.324599 19.047598"
               y="0"
               id="tspan454">BoF</tspan></text><text
             xml:space="preserve"
             transform="translate(648,167.41031)"
             style="font-variant:normal;font-weight:bold;font-size:14.3px;font-family:Arial;-inkscape-font-specification:Arial-BoldMT;writing-mode:lr-tb;fill:#000000;fill-opacity:1;fill-rule:nonzero;stroke:none"
             id="text460"><tspan
               x="0 10.324599 19.047598"
               y="0"
               id="tspan458">BoF</tspan></text></g></g></g><g
       id="g462"><g
         id="g464"
         transform="matrix(0.70705396,0,0,0.70705396,50.4,54)"><g
           id="g466"
           clip-path="url(#clipPath470)"><g
             id="g472"
             clip-path="url(#clipPath476)"><text
               xml:space="preserve"
               transform="translate(105,171.41031)"
               style="font-variant:normal;font-weight:bold;font-size:14.3px;font-family:Arial;-inkscape-font-specification:Arial-BoldMT;writing-mode:lr-tb;fill:#000000;fill-opacity:1;fill-rule:nonzero;stroke:none"
               id="text480"><tspan
                 x="0 7.6647997 15.615599 19.576698"
                 y="0"
                 id="tspan478">Talk</tspan></text></g></g></g></g><g
       id="g482"><g
         id="g484"
         transform="matrix(0.70705396,0,0,0.70705396,50.4,54)"><g
           id="g486"
           clip-path="url(#clipPath490)"><g
             id="g492"
             clip-path="url(#clipPath496)"><text
               xml:space="preserve"
               transform="translate(346,171.41031)"
               style="font-variant:normal;font-weight:bold;font-size:14.3px;font-family:Arial;-inkscape-font-specification:Arial-BoldMT;writing-mode:lr-tb;fill:#000000;fill-opacity:1;fill-rule:nonzero;stroke:none"
               id="text500"><tspan
                 x="0 7.6647997 15.615599 19.576698"
                 y="0"
                 id="tspan498">Talk</tspan></text></g></g></g></g><g
       id="g502"><g
         id="g504"
         transform="matrix(0.70705396,0,0,0.70705396,50.4,54)"><g
           id="g506"
           clip-path="url(#clipPath510)"><g
             id="g512"
             clip-path="url(#clipPath516)"><text
               xml:space="preserve"
               transform="translate(105,225.41031)"
               style="font-variant:normal;font-weight:bold;font-size:14.3px;font-family:Arial;-inkscape-font-specification:Arial-BoldMT;writing-mode:lr-tb;fill:#000000;fill-opacity:1;fill-rule:nonzero;stroke:none"
               id="text520"><tspan
                 x="0 7.6647997 15.615599 19.576698"
                 y="0"
                 id="tspan518">Talk</tspan></text></g></g></g></g><g
       id="g522"><g
         id="g524"
         transform="matrix(0.70705396,0,0,0.70705396,50.4,54)"><g
           id="g526"
           clip-path="url(#clipPath530)"><g
             id="g532"
             clip-path="url(#clipPath536)"><text
               xml:space="preserve"
               transform="translate(346,225.41031)"
               style="font-variant:normal;font-weight:bold;font-size:14.3px;font-family:Arial;-inkscape-font-specification:Arial-BoldMT;writing-mode:lr-tb;fill:#000000;fill-opacity:1;fill-rule:nonzero;stroke:none"
               id="text540"><tspan
                 x="0 7.6647997 15.615599 19.576698"
                 y="0"
                 id="tspan538">Talk</tspan></text></g></g></g></g><g
       id="g542"><g
         id="g544"
         transform="matrix(0.70705396,0,0,0.70705396,50.4,54)"><g
           id="g546"
           clip-path="url(#clipPath550)"><text
             xml:space="preserve"
             transform="translate(527,230.41031)"
             style="font-variant:normal;font-weight:bold;font-size:14.3px;font-family:Arial;-inkscape-font-specification:Arial-BoldMT;writing-mode:lr-tb;fill:#000000;fill-opacity:1;fill-rule:nonzero;stroke:none"
             id="text554"><tspan
               x="0 10.324599 19.047598"
               y="0"
               id="tspan552">BoF</tspan></text><text
             xml:space="preserve"
             transform="translate(648,230.41031)"
             style="font-variant:normal;font-weight:bold;font-size:14.3px;font-family:Arial;-inkscape-font-specification:Arial-BoldMT;writing-mode:lr-tb;fill:#000000;fill-opacity:1;fill-rule:nonzero;stroke:none"
             id="text558"><tspan
               x="0 10.324599 19.047598"
               y="0"
               id="tspan556">BoF</tspan></text></g></g></g><g
       id="g560"><g
         id="g562"
         transform="matrix(0.70705396,0,0,0.70705396,50.4,54)"><g
           id="g564"
           clip-path="url(#clipPath568)"><g
             id="g570"
             clip-path="url(#clipPath574)"><text
               xml:space="preserve"
               transform="translate(105,243.41031)"
               style="font-variant:normal;font-weight:bold;font-size:14.3px;font-family:Arial;-inkscape-font-specification:Arial-BoldMT;writing-mode:lr-tb;fill:#000000;fill-opacity:1;fill-rule:nonzero;stroke:none"
               id="text578"><tspan
                 x="0 7.6647997 15.615599 19.576698"
                 y="0"
                 id="tspan576">Talk</tspan></text></g></g></g></g><g
       id="g580"><g
         id="g582"
         transform="matrix(0.70705396,0,0,0.70705396,50.4,54)"><g
           id="g584"
           clip-path="url(#clipPath588)"><g
             id="g590"
             clip-path="url(#clipPath594)"><text
               xml:space="preserve"
               transform="translate(341,243.41031)"
               style="font-variant:normal;font-weight:bold;font-size:14.3px;font-family:Arial;-inkscape-font-specification:Arial-BoldMT;writing-mode:lr-tb;fill:#000000;fill-opacity:1;fill-rule:nonzero;stroke:none"
               id="text598"><tspan
                 x="0 9.5237989 17.474598 26.197598 34.148399"
                 y="0"
                 id="tspan596">Panel</tspan></text></g></g></g></g><g
       id="g600"><g
         id="g602"
         transform="matrix(0.70705396,0,0,0.70705396,50.4,54)"><g
           id="g604"
           clip-path="url(#clipPath608)"><g
             id="g610"
             clip-path="url(#clipPath614)"><text
               xml:space="preserve"
               transform="translate(105,270.4103)"
               style="font-variant:normal;font-weight:bold;font-size:14.3px;font-family:Arial;-inkscape-font-specification:Arial-BoldMT;writing-mode:lr-tb;fill:#000000;fill-opacity:1;fill-rule:nonzero;stroke:none"
               id="text618"><tspan
                 x="0 7.6647997 15.615599 19.576698"
                 y="0"
                 id="tspan616">Talk</tspan></text></g></g></g></g><g
       id="g620"><g
         id="g622"
         transform="matrix(0.70705396,0,0,0.70705396,50.4,54)"><g
           id="g624"
           clip-path="url(#clipPath628)"><g
             id="g630"
             clip-path="url(#clipPath634)"><text
               xml:space="preserve"
               transform="translate(346,270.4103)"
               style="font-variant:normal;font-weight:bold;font-size:14.3px;font-family:Arial;-inkscape-font-specification:Arial-BoldMT;writing-mode:lr-tb;fill:#000000;fill-opacity:1;fill-rule:nonzero;stroke:none"
               id="text638"><tspan
                 x="0 7.6647997 15.615599 19.576698"
                 y="0"
                 id="tspan636">Talk</tspan></text></g></g></g></g><g
       id="g640"><g
         id="g642"
         transform="matrix(0.70705396,0,0,0.70705396,50.4,54)"><g
           id="g644"
           clip-path="url(#clipPath648)"><text
             xml:space="preserve"
             transform="translate(574,297.4103)"
             style="font-variant:normal;font-weight:bold;font-size:14.3px;font-family:Arial;-inkscape-font-specification:Arial-BoldMT;writing-mode:lr-tb;fill:#000000;fill-opacity:1;fill-rule:nonzero;stroke:none"
             id="text652"><tspan
               x="0 7.9364996 13.499199 21.449999 25.411098 34.134098 38.095196 46.818195"
               y="0"
               id="tspan650">Training</tspan></text></g></g></g><g
       id="g654"><g
         id="g656"
         transform="matrix(0.70705396,0,0,0.70705396,50.4,54)"><g
           id="g658"
           clip-path="url(#clipPath662)"><g
             id="g664"
             clip-path="url(#clipPath668)"><text
               xml:space="preserve"
               transform="translate(105,288.4103)"
               style="font-variant:normal;font-weight:bold;font-size:14.3px;font-family:Arial;-inkscape-font-specification:Arial-BoldMT;writing-mode:lr-tb;fill:#000000;fill-opacity:1;fill-rule:nonzero;stroke:none"
               id="text672"><tspan
                 x="0 7.6647997 15.615599 19.576698"
                 y="0"
                 id="tspan670">Talk</tspan></text></g></g></g></g><g
       id="g674"><g
         id="g676"
         transform="matrix(0.70705396,0,0,0.70705396,50.4,54)"><g
           id="g678"
           clip-path="url(#clipPath682)"><g
             id="g684"
             clip-path="url(#clipPath688)"><text
               xml:space="preserve"
               transform="translate(346,288.4103)"
               style="font-variant:normal;font-weight:bold;font-size:14.3px;font-family:Arial;-inkscape-font-specification:Arial-BoldMT;writing-mode:lr-tb;fill:#000000;fill-opacity:1;fill-rule:nonzero;stroke:none"
               id="text692"><tspan
                 x="0 7.6647997 15.615599 19.576698"
                 y="0"
                 id="tspan690">Talk</tspan></text></g></g></g></g><g
       id="g694"><g
         id="g696"
         transform="matrix(0.70705396,0,0,0.70705396,50.4,54)"><g
           id="g698"
           clip-path="url(#clipPath702)"><text
             xml:space="preserve"
             transform="translate(81,324.4103)"
             style="font-variant:normal;font-weight:bold;font-size:14.3px;font-family:Arial;-inkscape-font-specification:Arial-BoldMT;writing-mode:lr-tb;fill:#000000;fill-opacity:1;fill-rule:nonzero;stroke:none"
             id="text706"><tspan
               x="0 9.5237989 18.246799 26.969799 32.532497 37.294399 41.255497 48.920296 56.871098 60.832195 68.782997"
               y="0"
               id="tspan704">Short Talks</tspan></text></g></g></g><g
       id="g708"><g
         id="g710"
         transform="matrix(0.70705396,0,0,0.70705396,50.4,54)"><g
           id="g712"
           clip-path="url(#clipPath716)"><g
             id="g718"
             clip-path="url(#clipPath722)"><text
               xml:space="preserve"
               transform="translate(346,315.4103)"
               style="font-variant:normal;font-weight:bold;font-size:14.3px;font-family:Arial;-inkscape-font-specification:Arial-BoldMT;writing-mode:lr-tb;fill:#000000;fill-opacity:1;fill-rule:nonzero;stroke:none"
               id="text726"><tspan
                 x="0 7.6647997 15.615599 19.576698"
                 y="0"
                 id="tspan724">Talk</tspan></text></g></g></g></g><g
       id="g728"><g
         id="g730"
         transform="matrix(0.70705396,0,0,0.70705396,50.4,54)"><g
           id="g732"
           clip-path="url(#clipPath736)"><text
             xml:space="preserve"
             transform="translate(322,338.4103)"
             style="font-variant:normal;font-weight:bold;font-size:14.3px;font-family:Arial;-inkscape-font-specification:Arial-BoldMT;writing-mode:lr-tb;fill:#000000;fill-opacity:1;fill-rule:nonzero;stroke:none"
             id="text740"><tspan
               x="0 9.5237989 18.246799 26.969799 32.532497 37.294399 41.255497 48.920296 56.871098 60.832195 68.782997"
               y="0"
               id="tspan738">Short Talks</tspan></text></g></g></g></g></svg>
