<?xml version="1.0" encoding="UTF-8" standalone="no"?>
<!-- Created with Inkscape (http://www.inkscape.org/) -->

<svg
   width="331.24274mm"
   height="300.138mm"
   viewBox="0 0 331.24275 300.138"
   version="1.1"
   id="svg5"
   inkscape:version="1.3.2 (091e20e, 2023-11-25)"
   sodipodi:docname="sel4_summit_2022_location.svg"
   inkscape:export-filename="C:\Users\Birgit Brecknell\Documents\}} seL4 Foundation\seL4 Summit 2022\logo\sel4_summit_large_text.png"
   inkscape:export-xdpi="96"
   inkscape:export-ydpi="96"
   xml:space="preserve"
   xmlns:inkscape="http://www.inkscape.org/namespaces/inkscape"
   xmlns:sodipodi="http://sodipodi.sourceforge.net/DTD/sodipodi-0.dtd"
   xmlns:xlink="http://www.w3.org/1999/xlink"
   xmlns="http://www.w3.org/2000/svg"
   xmlns:svg="http://www.w3.org/2000/svg"><sodipodi:namedview
     id="namedview7"
     pagecolor="#ffffff"
     bordercolor="#666666"
     borderopacity="1.0"
     inkscape:pageshadow="2"
     inkscape:pageopacity="0.0"
     inkscape:pagecheckerboard="0"
     inkscape:document-units="mm"
     showgrid="false"
     inkscape:zoom="0.32026164"
     inkscape:cx="596.38738"
     inkscape:cy="711.91792"
     inkscape:window-width="1312"
     inkscape:window-height="641"
     inkscape:window-x="200"
     inkscape:window-y="136"
     inkscape:window-maximized="0"
     inkscape:current-layer="g12656"
     fit-margin-top="0"
     fit-margin-left="0"
     fit-margin-right="0"
     fit-margin-bottom="0"
     showguides="true"
     inkscape:guide-bbox="true"
     inkscape:snap-nodes="false"
     inkscape:showpageshadow="2"
     inkscape:deskcolor="#d1d1d1" /><defs
     id="defs2"><color-profile
       name="Agfa-:-Swop-Standard"
       xlink:href="file:///WINDOWS/system32/spool/drivers/color/RSWOP.icm"
       id="color-profile2" /><rect
       x="680.69342"
       y="102.26014"
       width="15.612235"
       height="115.53054"
       id="rect9649" /><style
       id="style824">.cls-1,.cls-2,.cls-3{fill:#96ca4f;}.cls-2,.cls-3{stroke:#96ca4f;stroke-miterlimit:8;}.cls-3{stroke-width:0.25px;}</style></defs><g
     inkscape:label="Layer 1"
     inkscape:groupmode="layer"
     id="layer1"><g
       id="g1204"
       transform="scale(1.9530976)"
       sodipodi:insensitive="true" /><g
       id="g12656"><text
         xml:space="preserve"
         transform="scale(0.38298209)"
         id="text9647"
         style="font-style:normal;font-weight:normal;font-size:40px;line-height:1.25;font-family:sans-serif;white-space:pre;shape-inside:url(#rect9649);display:inline;fill:#000000;fill-opacity:1;stroke:none" /><g
         id="g3802"
         transform="scale(1.4474914)" /><g
         id="g244"
         transform="matrix(1.4474914,0,0,1.4474914,-33.823496,65.78132)"><g
           id="g224"><path
             style="font-weight:bold;font-stretch:condensed;font-size:16.2278px;line-height:10;font-family:Arial;-inkscape-font-specification:'Arial Bold Condensed';text-align:center;letter-spacing:12.312px;word-spacing:0px;text-anchor:middle;fill:#96ca4f;stroke-width:1.43233"
             d="m 68.405515,161.90537 v -12.11732 h 3.777165 l 2.26838,8.26556 2.247571,-8.26556 h 3.78757 v 12.11732 h -2.341217 v -9.53846 l -2.486895,9.53846 h -2.434867 l -2.466083,-9.53846 v 9.53846 z"
             id="path20888" /><path
             style="font-weight:bold;font-stretch:condensed;font-size:16.2278px;line-height:10;font-family:Arial;-inkscape-font-specification:'Arial Bold Condensed';text-align:center;letter-spacing:12.312px;word-spacing:0px;text-anchor:middle;fill:#96ca4f;stroke-width:1.43233"
             d="m 86.097693,149.5814 h 2.518111 v 6.56287 q 0,1.52913 0.09364,1.992 0.166487,0.80176 0.79081,1.23983 0.634731,0.43807 1.664867,0.43807 0.874056,0 1.425542,-0.30582 0.551487,-0.31409 0.74919,-0.85962 0.208109,-0.55379 0.208109,-2.36395 v -6.70338 h 2.528519 v 6.36449 q 0,2.43835 -0.33298,3.5294 -0.32256,1.08279 -1.47757,1.76056 -1.144591,0.66952 -3.027972,0.66952 -1.956217,0 -3.059191,-0.5538 -1.092569,-0.56206 -1.592029,-1.57045 -0.489055,-1.01667 -0.489055,-3.73604 z"
             id="path20885" /><path
             style="font-weight:bold;font-stretch:condensed;font-size:16.2278px;line-height:10;font-family:Arial;-inkscape-font-specification:'Arial Bold Condensed';text-align:center;letter-spacing:12.312px;word-spacing:0px;text-anchor:middle;fill:#96ca4f;stroke-width:1.43233"
             d="m 101.68797,161.90537 v -12.11732 h 2.45567 l 5.11947,8.09199 v -8.09199 h 2.35162 v 12.11732 h -2.53892 l -5.03622,-7.90187 v 7.90187 z"
             id="path20882" /><path
             style="font-weight:bold;font-stretch:condensed;font-size:16.2278px;line-height:10;font-family:Arial;-inkscape-font-specification:'Arial Bold Condensed';text-align:center;letter-spacing:12.312px;word-spacing:0px;text-anchor:middle;fill:#96ca4f;stroke-width:1.43233"
             d="m 117.22622,161.90537 v -12.11732 h 2.51811 v 12.11732 z"
             id="path20879" /><path
             style="font-weight:bold;font-stretch:condensed;font-size:16.2278px;line-height:10;font-family:Arial;-inkscape-font-specification:'Arial Bold Condensed';text-align:center;letter-spacing:12.312px;word-spacing:0px;text-anchor:middle;fill:#96ca4f;stroke-width:1.43233"
             d="m 133.80501,157.24359 2.44527,0.75216 q -0.57229,2.03333 -1.90419,2.97561 -1.3319,0.93401 -3.27771,0.93401 -2.44527,0 -3.96445,-1.49607 -1.74811,-1.72751 -1.74811,-4.66178 0,-3.09959 1.75851,-4.85188 1.52959,-1.52088 4.11014,-1.52088 2.10189,0 3.51703,1.14066 1.00932,0.81001 1.47756,2.40528 l -2.4973,0.57859 q -0.23933,-0.98361 -0.9573,-1.50434 -0.70757,-0.529 -1.67527,-0.529 -1.38391,0 -2.25797,0.95881 -0.87405,0.95881 -0.87405,3.16571 0,2.28956 0.85324,3.25664 0.85325,0.96706 2.21635,0.96706 0.99892,0 1.7273,-0.61164 0.72837,-0.61992 1.05095,-1.95894 z"
             id="path20876" /><path
             style="font-weight:bold;font-stretch:condensed;font-size:16.2278px;line-height:10;font-family:Arial;-inkscape-font-specification:'Arial Bold Condensed';text-align:center;letter-spacing:12.312px;word-spacing:0px;text-anchor:middle;fill:#96ca4f;stroke-width:1.43233"
             d="m 141.86175,161.90537 v -12.11732 h 2.51813 v 4.76923 h 4.95297 v -4.76923 h 2.52852 v 12.11732 h -2.52852 v -5.29823 h -4.95297 v 5.29823 z"
             id="path20873" /></g><g
           id="g230"><path
             d="m 173.3514,159.77968 v 2.12569 h -8.28428 q 0.13326,-1.20538 0.80996,-2.28857 0.68694,-1.09134 2.65548,-2.85867 1.55843,-1.40898 1.91728,-1.90578 0.53316,-0.72485 0.53316,-1.45784 0,-0.78187 -0.44087,-1.18093 -0.44088,-0.39908 -1.15858,-0.39908 -1.56869,0 -1.69172,1.86506 l -2.34789,-0.22805 q 0.2153,-1.82434 1.27135,-2.67949 1.0663,-0.85516 2.82978,-0.85516 1.93778,0 2.92205,1.00175 0.98428,1.00177 0.98428,2.29672 0,0.73299 -0.25632,1.42526 -0.24606,0.68412 -0.76896,1.38453 -0.5229,0.69229 -1.743,1.77549 -1.13805,1.01804 -1.44563,1.34382 -0.29734,0.32577 -0.4819,0.63525 z"
             style="font-weight:bold;font-stretch:condensed;font-size:16.2278px;line-height:10;font-family:Arial;-inkscape-font-specification:'Arial Bold Condensed';text-align:center;letter-spacing:3.91736px;word-spacing:0px;text-anchor:middle;fill:#96ca4f;stroke-width:0.449048"
             id="path20515" /><path
             d="m 180.33778,149.71325 q 1.79426,0 2.90156,1.36011 1.1073,1.35197 1.1073,4.74003 0,3.37991 -1.1073,4.74001 -1.1073,1.35197 -2.8913,1.35197 -1.79425,0 -2.90156,-1.34383 -1.10729,-1.34381 -1.10729,-4.77259 0,-3.36362 1.10729,-4.71559 1.10731,-1.36011 2.8913,-1.36011 z m 0,1.89764 q -0.69718,0 -1.11755,0.73299 -0.41012,0.733 -0.41012,3.46951 0,2.7365 0.41012,3.4695 0.42037,0.72484 1.11755,0.72484 0.70746,0 1.11756,-0.733 0.41012,-0.73299 0.41012,-3.46134 0,-2.73651 -0.41012,-3.46951 -0.4101,-0.73299 -1.11756,-0.73299 z"
             style="font-weight:bold;font-stretch:condensed;font-size:16.2278px;line-height:10;font-family:Arial;-inkscape-font-specification:'Arial Bold Condensed';text-align:center;letter-spacing:3.91736px;word-spacing:0px;text-anchor:middle;fill:#96ca4f;stroke-width:0.449048"
             id="path20517" /><path
             d="m 195.89557,159.77968 v 2.12569 h -8.2843 q 0.1333,-1.20538 0.80998,-2.28857 0.68695,-1.09134 2.6555,-2.85867 1.55841,-1.40898 1.91726,-1.90578 0.53316,-0.72485 0.53316,-1.45784 0,-0.78187 -0.44087,-1.18093 -0.44088,-0.39908 -1.15857,-0.39908 -1.56869,0 -1.69172,1.86506 l -2.3479,-0.22805 q 0.2153,-1.82434 1.27135,-2.67949 1.0663,-0.85516 2.82978,-0.85516 1.93778,0 2.92206,1.00175 0.98427,1.00177 0.98427,2.29672 0,0.73299 -0.25631,1.42526 -0.24607,0.68412 -0.76897,1.38453 -0.52289,0.69229 -1.74298,1.77549 -1.13807,1.01804 -1.44565,1.34382 -0.29733,0.32577 -0.48188,0.63525 z"
             style="font-weight:bold;font-stretch:condensed;font-size:16.2278px;line-height:10;font-family:Arial;-inkscape-font-specification:'Arial Bold Condensed';text-align:center;letter-spacing:3.91736px;word-spacing:0px;text-anchor:middle;fill:#96ca4f;stroke-width:0.449048"
             id="path20519" /><path
             d="m 207.16761,159.77968 v 2.12569 h -8.28427 q 0.13329,-1.20538 0.80996,-2.28857 0.68694,-1.09134 2.65549,-2.85867 1.55844,-1.40898 1.9173,-1.90578 0.53312,-0.72485 0.53312,-1.45784 0,-0.78187 -0.44086,-1.18093 -0.44088,-0.39908 -1.15857,-0.39908 -1.56869,0 -1.69173,1.86506 l -2.34789,-0.22805 q 0.21531,-1.82434 1.27135,-2.67949 1.06629,-0.85516 2.82978,-0.85516 1.9378,0 2.92205,1.00175 0.98427,1.00177 0.98427,2.29672 0,0.73299 -0.2563,1.42526 -0.24608,0.68412 -0.76898,1.38453 -0.52289,0.69229 -1.74298,1.77549 -1.13806,1.01804 -1.44564,1.34382 -0.29734,0.32577 -0.48189,0.63525 z"
             style="font-weight:bold;font-stretch:condensed;font-size:16.2278px;line-height:10;font-family:Arial;-inkscape-font-specification:'Arial Bold Condensed';text-align:center;letter-spacing:3.91736px;word-spacing:0px;text-anchor:middle;fill:#96ca4f;stroke-width:0.449048"
             id="path20521" /></g></g><g
         style="clip-rule:evenodd;fill-rule:evenodd;stroke-width:3.00253;stroke-linejoin:round;stroke-miterlimit:2"
         id="g4"
         transform="matrix(0.08812007,0,0,0.08812007,97.667529,183.89608)"><g
           transform="translate(-213.169,-226.395)"
           id="g3"
           style="stroke-width:3.00253">
        <g
   transform="scale(4.16667)"
   id="g2"
   style="stroke-width:3.00253">
            <g
   transform="translate(381.398,127.634)"
   id="g1"
   style="stroke-width:3.00253">
                <path
   d="M 0,-3.9 H -23.445 L 0,-33.905 Z m -125.638,-25.07 c 0,-4.61 0.314,-5.917 0.588,-6.54 0.361,-0.826 1.281,-1.814 3.608,-1.814 1.578,0 2.742,0.726 3.279,2.042 0.268,0.658 0.624,2.026 0.624,6.312 v 5.435 h -8.099 z m -164.685,50.855 c -8.206,0 -14.856,-6.65 -14.856,-14.856 0,-8.206 6.65,-14.856 14.856,-14.856 8.206,0 14.857,6.65 14.857,14.856 0,8.206 -6.651,14.856 -14.857,14.856 M 27.634,-3.9 V -60.14 H 0.56 l -47.253,56.341 v 0.002 h -13.242 v -69.502 h -26.461 v 69.5 h -13.649 c 0.132,-1.304 0.199,-2.796 0.199,-4.584 v -1.698 h -16.515 v 4.73 c 0,3.17 -0.28,5.208 -0.883,6.414 -0.494,0.985 -1.599,2.161 -4.051,2.161 -2.067,0 -3.025,-0.948 -3.462,-1.74 -0.337,-0.605 -0.785,-1.85 -0.785,-5.687 v -13.831 h 25.696 v -6.625 c 0,-5.486 -0.7,-9.775 -2.08,-12.745 -1.341,-2.887 -3.733,-5.249 -7.106,-7.02 -3.436,-1.803 -7.893,-2.718 -13.247,-2.718 -4.367,0 -8.275,0.762 -11.614,2.263 -3.246,1.459 -5.606,3.573 -7.015,6.283 -1.446,2.781 -2.18,6.682 -2.18,11.596 v 17.099 c 0,2.359 0.114,4.375 0.318,6.102 h -7.419 c 0.036,-0.694 0.08,-1.372 0.08,-2.128 0,-3.979 -0.823,-7.021 -2.447,-9.041 -1.676,-2.08 -5.349,-4.377 -10.919,-6.826 -4.435,-1.962 -7.307,-3.432 -8.777,-4.491 -1.609,-1.154 -2.568,-2.246 -2.93,-3.335 -0.32,-0.963 -0.475,-2.375 -0.475,-4.316 0,-1.593 0.37,-2.846 1.104,-3.723 0.783,-0.932 1.924,-1.404 3.389,-1.404 1.853,0 3.07,0.585 3.62,1.739 0.292,0.617 0.627,1.814 0.627,5.642 v 3.18 h 15.285 v -3.402 c 0,-2.836 -0.162,-4.927 -0.483,-6.216 -0.29,-1.171 -1.179,-2.506 -2.643,-3.969 -1.483,-1.482 -3.677,-2.704 -6.519,-3.63 -2.9,-0.945 -6.49,-1.423 -10.673,-1.423 -4.201,0 -7.928,0.586 -11.076,1.74 -3.028,1.112 -5.187,2.684 -6.418,4.673 -1.256,2.03 -1.892,5.312 -1.892,9.755 0,3.088 0.599,5.782 1.782,8.007 1.158,2.174 4.577,4.708 10.16,7.528 9.366,4.69 11.236,5.918 11.837,6.482 0.972,0.954 1.426,2.886 1.426,6.079 0,2.377 -0.356,3.889 -1.122,4.76 -0.784,0.891 -2.068,1.342 -3.814,1.342 -2.227,0 -3.225,-1.129 -3.67,-2.076 -0.332,-0.706 -0.773,-2.162 -0.773,-6.632 v -4.844 h -15.285 v 3.961 c 0,0.914 0.044,1.745 0.092,2.568 h -14.625 c -5.175,-29.281 -30.942,-51.542 -61.972,-51.542 -34.759,0 -62.937,27.924 -62.937,62.37 0,34.446 28.178,62.37 62.937,62.37 31.078,0 56.877,-22.329 61.996,-51.677 L 0,17.731 V 38.247 H 27.634 V 17.731 h 12.28 V -3.9 Z"
   style="fill:#96ca50;fill-rule:nonzero;stroke-width:3.00253"
   id="path1" />
            </g>
        </g>
    </g></g><g
         id="g2-9"><polygon
           class="cls-2"
           points="102.2,1.81 105.34,10.07 0.2,45.29 "
           id="polygon830"
           transform="matrix(1.5727619,0,0,1.5727619,-0.0061861,0)"
           style="fill:#96ca4f;stroke:#96ca4f;stroke-miterlimit:8" /><polygon
           class="cls-1"
           points="105.31,0 108.62,1.35 102.01,1.34 "
           id="polygon828"
           transform="matrix(1.5727619,0,0,1.5727619,-0.0061861,0)"
           style="fill:#96ca4f" /><polygon
           class="cls-1"
           points="105.31,9.32 108.33,1.31 102.28,1.31 "
           id="polygon832"
           transform="matrix(1.5727619,0,0,1.5727619,-0.0061861,0)"
           style="fill:#96ca4f" /><polygon
           class="cls-2"
           points="210.42,45.29 108.42,1.81 105.28,10.07 "
           id="polygon834"
           transform="matrix(1.5727619,0,0,1.5727619,-0.0061861,0)"
           style="fill:#96ca4f;stroke:#96ca4f;stroke-miterlimit:8" /><path
           class="cls-1"
           d="m 261.46548,97.542695 v -36.26789 h -17.45766 l -30.48011,36.330801 h -8.5401 V 52.781891 h -17.06448 v 44.823715 h -8.80746 c 0,-0.833564 0.12579,-1.792948 0.12579,-2.956792 v -1.069479 h -10.64759 v 3.051158 a 9.9398554,9.9398554 0 0 1 -0.58192,4.136367 2.6422401,2.6422401 0 0 1 -2.6108,1.38403 2.3591429,2.3591429 0 0 1 -2.23332,-1.11666 7.8638097,7.8638097 0 0 1 -0.50328,-3.664538 v -8.933288 h 16.56119 v -4.293641 a 20.445906,20.445906 0 0 0 -1.33685,-8.225545 9.9241278,9.9241278 0 0 0 -4.59247,-4.529553 18.36986,18.36986 0 0 0 -8.5401,-1.745766 18.071034,18.071034 0 0 0 -7.48634,1.462668 9.0433811,9.0433811 0 0 0 -4.52956,4.041998 16.57691,16.57691 0 0 0 -1.39975,7.486348 v 11.009333 a 31.455239,31.455239 0 0 0 0.20446,3.931904 h -4.71829 c 0,-0.440373 0,-0.880746 0,-1.368302 a 9.1849297,9.1849297 0 0 0 -1.57276,-5.834947 19.801073,19.801073 0 0 0 -7.03025,-4.403734 34.600762,34.600762 0 0 1 -5.66194,-2.893881 4.7182858,4.7182858 0 0 1 -1.91877,-2.076046 9.4365716,9.4365716 0 0 1 -0.29883,-2.783789 3.6488077,3.6488077 0 0 1 0.70775,-2.390598 2.6736952,2.6736952 0 0 1 2.18614,-0.912201 2.3591429,2.3591429 0 0 1 2.34341,1.11666 9.216385,9.216385 0 0 1 0.39319,3.648808 v 2.044591 h 9.86122 v -2.296233 a 17.536296,17.536296 0 0 0 -0.31455,-4.010544 5.8506744,5.8506744 0 0 0 -1.69859,-2.563601 10.50605,10.50605 0 0 0 -4.19927,-2.343415 22.490496,22.490496 0 0 0 -6.8887,-0.912202 20.949188,20.949188 0 0 0 -7.14034,1.11666 7.8638097,7.8638097 0 0 0 -4.13636,3.019703 12.330454,12.330454 0 0 0 -1.22675,6.291048 10.773419,10.773419 0 0 0 1.14811,5.15866 c 0.7392,1.399757 2.95679,3.03543 6.55842,4.859834 6.03941,3.019703 7.2347,3.821811 7.62789,4.183547 a 5.5833049,5.5833049 0 0 1 0.92793,3.916177 4.7182858,4.7182858 0 0 1 -0.72347,3.145525 3.1455239,3.1455239 0 0 1 -2.46923,0.86502 2.3591429,2.3591429 0 0 1 -2.35915,-1.33685 10.285863,10.285863 0 0 1 -0.47182,-4.29364 v -3.145523 h -9.89268 v 2.547874 c 0,0.597649 0,1.132388 0,1.651399 h -9.43657 a 40.23125,40.23125 0 1 0 0,13.88749 H 243.709 v 13.24265 h 17.8194 v -13.2112 h 7.8638 V 97.542695 Z M 56.377329,114.18252 a 9.5938478,9.5938478 0 1 1 9.609576,-9.59385 9.5938478,9.5938478 0 0 1 -9.609576,9.59385 z M 162.60167,81.374702 a 11.905808,11.905808 0 0 1 0.37747,-4.215002 c 0.23591,-0.534738 0.83356,-1.179571 2.32768,-1.179571 a 2.1389563,2.1389563 0 0 1 2.12324,1.32112 11.622711,11.622711 0 0 1 0.39318,4.073453 v 3.50726 h -5.22157 z M 243.709,97.542695 H 228.57904 L 243.709,78.197724 Z"
           id="path858"
           style="fill:#96ca4f;stroke-width:1.57276" /><path
           id="path1025"
           style="font-weight:bold;font-stretch:condensed;font-size:5.22315px;line-height:10;font-family:Arial;-inkscape-font-specification:'Arial Bold Condensed';text-align:center;letter-spacing:3.91736px;word-spacing:0px;text-anchor:middle;fill:#96ca4f;stroke-width:1.10081"
           d="m 229.63035,124.24694 v -7.82702 h -2.88805 v -1.59368 h 7.72573 v 1.59368 h -2.87996 v 7.82702 z m -18.45273,0 v -9.4207 h 1.95772 v 9.4207 z m -23.7111,0 v -9.4207 h 2.93659 l 1.76356,6.42612 1.7474,-6.42612 h 2.94467 v 9.4207 h -1.8202 v -7.41575 l -1.93345,7.41575 h -1.89301 l -1.91728,-7.41575 v 7.41575 z m -23.74345,0 v -9.4207 h 2.93659 l 1.76356,6.42612 1.7474,-6.42612 h 2.94468 v 9.4207 h -1.82021 v -7.41575 l -1.93344,7.41575 h -1.89302 l -1.91727,-7.41575 v 7.41575 z m -22.22257,-9.4207 h 1.95772 v 5.10234 q 0,1.18884 0.0728,1.5487 0.12945,0.62333 0.61482,0.96392 0.49347,0.34058 1.29436,0.34058 0.67954,0 1.1083,-0.23776 0.42876,-0.24417 0.58247,-0.66831 0.16179,-0.43056 0.16179,-1.83788 v -5.21159 h 1.96582 v 4.94812 q 0,1.8957 -0.25887,2.74395 -0.25079,0.84182 -1.14876,1.36876 -0.88987,0.52052 -2.35411,0.52052 -1.52088,0 -2.3784,-0.43055 -0.84942,-0.43698 -1.23773,-1.22096 -0.38022,-0.79042 -0.38022,-2.90461 z m -21.9637,6.35544 1.91727,-0.17995 q 0.3236,1.80575 2.11952,1.80575 0.88988,0 1.39953,-0.36629 0.50966,-0.37272 0.50966,-0.91894 0,-0.32131 -0.17799,-0.54622 -0.17797,-0.2249 -0.54202,-0.36629 -0.36404,-0.1478 -1.76357,-0.48839 -1.25391,-0.30202 -1.83638,-0.65546 -0.58246,-0.35344 -0.93032,-0.92536 -0.33977,-0.57835 -0.33977,-1.24024 0,-0.77114 0.43685,-1.38805 0.44494,-0.6169 1.22156,-0.93178 0.77661,-0.31488 1.91727,-0.31488 1.71503,0 2.67771,0.739 0.96268,0.739 1.01931,2.11419 l -1.96581,0.0836 q -0.12945,-0.75829 -0.5582,-1.06032 -0.42876,-0.30202 -1.22155,-0.30202 -0.7928,0 -1.22156,0.26348 -0.42875,0.26346 -0.42875,0.65547 0,0.38556 0.38831,0.64903 0.38831,0.26349 1.78783,0.57836 1.48043,0.34058 2.1357,0.71972 0.66336,0.37272 1.01122,0.97035 0.34786,0.5912 0.34786,1.43945 0,1.22739 -0.95459,2.06278 -0.9465,0.8354 -2.96894,0.8354 -3.57568,0 -3.98016,-3.23234 z" /><path
           sodipodi:type="star"
           style="fill:#96ca4f;fill-opacity:1;stroke:none;stroke-width:1.88976"
           id="path43980-0"
           inkscape:flatsided="true"
           sodipodi:sides="3"
           sodipodi:cx="479.11505"
           sodipodi:cy="21.527058"
           sodipodi:r1="87.493645"
           sodipodi:r2="31.308516"
           sodipodi:arg1="-2.1473854"
           sodipodi:arg2="-1.1001879"
           inkscape:rounded="0"
           inkscape:randomized="0"
           transform="matrix(-0.98951672,0.41064238,0.22664249,0.05302387,557.02697,-162.28845)"
           inkscape:transform-center-x="-0.51998471"
           inkscape:transform-center-y="0.07633973"
           d="M 431.41635,-51.821231 566.48588,16.892913 439.44292,99.509492 Z" /><path
           sodipodi:type="star"
           style="fill:#96ca4f;fill-opacity:1;stroke-width:1.88976"
           id="path1277"
           inkscape:flatsided="true"
           sodipodi:sides="3"
           sodipodi:cx="56.30154"
           sodipodi:cy="30.910648"
           sodipodi:r1="10.973231"
           sodipodi:r2="8.780798"
           sodipodi:arg1="0.49692007"
           sodipodi:arg2="1.5441176"
           inkscape:rounded="0"
           inkscape:randomized="0"
           transform="matrix(0.60915989,-0.47402208,0.38258089,0.61381474,76.640889,26.430762)"
           inkscape:transform-center-x="0.69767945"
           inkscape:transform-center-y="1.8525304"
           d="m 65.947614,36.141811 -18.999431,0.507001 9.06064,-16.70749 z" /><path
           sodipodi:type="star"
           style="fill:#96ca4f;fill-opacity:1;stroke:none;stroke-width:1.88976"
           id="path43980-0-9"
           inkscape:flatsided="true"
           sodipodi:sides="3"
           sodipodi:cx="479.11505"
           sodipodi:cy="21.527058"
           sodipodi:r1="87.493645"
           sodipodi:r2="31.308516"
           sodipodi:arg1="-2.1473854"
           sodipodi:arg2="-1.1001879"
           inkscape:rounded="0"
           inkscape:randomized="0"
           transform="matrix(0.98951672,0.41064238,-0.22664249,0.05302387,-225.78424,-162.28845)"
           inkscape:transform-center-x="-0.51998471"
           inkscape:transform-center-y="0.07633973"
           d="M 431.41635,-51.821231 566.48588,16.892913 439.44292,99.509492 Z" /><path
           sodipodi:type="star"
           style="fill:#96ca4f;fill-opacity:1;stroke-width:1.88976"
           id="path1277-2"
           inkscape:flatsided="true"
           sodipodi:sides="3"
           sodipodi:cx="56.30154"
           sodipodi:cy="30.910648"
           sodipodi:r1="10.973231"
           sodipodi:r2="8.780798"
           sodipodi:arg1="0.49692007"
           sodipodi:arg2="1.5441176"
           inkscape:rounded="0"
           inkscape:randomized="0"
           transform="matrix(-0.60915989,-0.47402208,-0.38258089,0.61381474,254.60184,26.430762)"
           inkscape:transform-center-x="0.69767945"
           inkscape:transform-center-y="1.8525304"
           d="m 65.947614,36.141811 -18.999431,0.507001 9.06064,-16.70749 z" /></g></g></g></svg>
