<?xml version="1.0" encoding="UTF-8" standalone="no"?>
<!-- Created with Inkscape (http://www.inkscape.org/) -->

<svg
   width="331.24274mm"
   height="249.72548mm"
   viewBox="0 0 331.24275 249.72548"
   version="1.1"
   id="svg5"
   inkscape:version="1.3.2 (091e20e, 2023-11-25)"
   sodipodi:docname="sel4_summit_2026_location.svg"
   inkscape:export-filename="C:\Users\Birgit Brecknell\Documents\}} seL4 Foundation\summit\summit location logos\sel4_summit_2024.png"
   inkscape:export-xdpi="96"
   inkscape:export-ydpi="96"
   xmlns:inkscape="http://www.inkscape.org/namespaces/inkscape"
   xmlns:sodipodi="http://sodipodi.sourceforge.net/DTD/sodipodi-0.dtd"
   xmlns:xlink="http://www.w3.org/1999/xlink"
   xmlns="http://www.w3.org/2000/svg"
   xmlns:svg="http://www.w3.org/2000/svg">
  <sodipodi:namedview
     id="namedview7"
     pagecolor="#ffffff"
     bordercolor="#666666"
     borderopacity="1.0"
     inkscape:pageshadow="2"
     inkscape:pageopacity="0.0"
     inkscape:pagecheckerboard="0"
     inkscape:document-units="mm"
     showgrid="false"
     inkscape:zoom="0.5"
     inkscape:cx="613"
     inkscape:cy="499"
     inkscape:window-width="1464"
     inkscape:window-height="916"
     inkscape:window-x="49"
     inkscape:window-y="38"
     inkscape:window-maximized="0"
     inkscape:current-layer="layer1"
     fit-margin-top="0"
     fit-margin-left="0"
     fit-margin-right="0"
     fit-margin-bottom="0"
     showguides="true"
     inkscape:guide-bbox="true"
     inkscape:snap-nodes="false"
     inkscape:showpageshadow="2"
     inkscape:deskcolor="#d1d1d1" />
  <defs
     id="defs2">
    <rect
       x="5.6568542"
       y="618.01135"
       width="84.852814"
       height="45.254833"
       id="rect8" />
    <rect
       x="1100"
       y="546"
       width="122"
       height="58"
       id="rect7" />
    <rect
       x="1000"
       y="542"
       width="182"
       height="90"
       id="rect4" />
    <rect
       x="1016"
       y="562"
       width="132"
       height="82"
       id="rect1" />
    <rect
       x="27.598793"
       y="613.79718"
       width="397.42264"
       height="142.40977"
       id="rect1965" />
    <color-profile
       name="Agfa-:-Swop-Standard"
       xlink:href="file:///WINDOWS/system32/spool/drivers/color/RSWOP.icm"
       id="color-profile2" />
    <rect
       x="680.69342"
       y="102.26014"
       width="15.612235"
       height="115.53054"
       id="rect9649" />
    <style
       id="style824">.cls-1,.cls-2,.cls-3{fill:#96ca4f;}.cls-2,.cls-3{stroke:#96ca4f;stroke-miterlimit:8;}.cls-3{stroke-width:0.25px;}</style>
  </defs>
  <g
     inkscape:label="Layer 1"
     inkscape:groupmode="layer"
     id="layer1"
     transform="translate(-1.9162771)">
    <g
       id="g1204"
       transform="scale(1.9530976)"
       sodipodi:insensitive="true" />
    <text
       xml:space="preserve"
       transform="scale(0.38298209)"
       id="text9647"
       style="font-style:normal;font-weight:normal;font-size:40px;line-height:1.25;font-family:sans-serif;white-space:pre;shape-inside:url(#rect9649);display:inline;fill:#000000;fill-opacity:1;stroke:none" />
    <g
       id="g3802"
       transform="scale(1.4474914)" />
    <g
       id="g258"
       transform="matrix(1.4474914,0,0,1.4474914,-36.980741,-174.82124)">
      <g
         id="g216">
        <path
           style="font-weight:bold;font-stretch:condensed;font-size:5.22315px;line-height:10;font-family:Arial;-inkscape-font-specification:'Arial Bold Condensed';text-align:center;letter-spacing:3.91736px;word-spacing:0px;text-anchor:middle;fill:#96ca4f;stroke-width:1.39672"
           d="m 124.84334,129.04298 2.43265,-0.22832 q 0.41056,2.29113 2.68924,2.29113 1.12907,0 1.77572,-0.46474 0.64665,-0.47291 0.64665,-1.16596 0,-0.40766 -0.22584,-0.69305 -0.22579,-0.28535 -0.68772,-0.46475 -0.46186,-0.18752 -2.2376,-0.61967 -1.59098,-0.38319 -2.33,-0.83164 -0.73904,-0.44845 -1.18041,-1.1741 -0.43108,-0.73383 -0.43108,-1.57362 0,-0.97842 0.55427,-1.76115 0.56454,-0.78275 1.54989,-1.18226 0.98539,-0.39953 2.43266,-0.39953 2.17603,0 3.39748,0.93767 1.22147,0.93764 1.2933,2.68249 l -2.49421,0.10603 q -0.1642,-0.9621 -0.70824,-1.34531 -0.54401,-0.38324 -1.54992,-0.38324 -1.00591,0 -1.5499,0.33432 -0.54402,0.33428 -0.54402,0.83166 0,0.48921 0.49269,0.8235 0.49269,0.33432 2.26841,0.7338 1.87836,0.43216 2.70978,0.91321 0.84167,0.4729 1.28304,1.23117 0.44136,0.75012 0.44136,1.82639 0,1.55731 -1.21118,2.61725 -1.20093,1.05995 -3.767,1.05995 -4.53683,0 -5.05004,-4.10121 z"
           id="path20783" />
        <path
           style="font-weight:bold;font-stretch:condensed;font-size:5.22315px;line-height:10;font-family:Arial;-inkscape-font-specification:'Arial Bold Condensed';text-align:center;letter-spacing:3.91736px;word-spacing:0px;text-anchor:middle;fill:#96ca4f;stroke-width:1.39672"
           d="m 140.41343,120.98737 h 2.48396 v 6.47387 q 0,1.50838 0.0924,1.96497 0.16419,0.79089 0.7801,1.22303 0.62612,0.43213 1.64227,0.43213 0.86221,0 1.40622,-0.30167 0.54401,-0.30981 0.73903,-0.84796 0.20528,-0.54627 0.20528,-2.33189 v -6.61248 h 2.49424 v 6.27818 q 0,2.40529 -0.32846,3.48152 -0.3182,1.06811 -1.45754,1.7367 -1.12909,0.66044 -2.9869,0.66044 -1.92971,0 -3.0177,-0.5463 -1.07776,-0.55441 -1.57046,-1.54917 -0.48243,-1.00287 -0.48243,-3.68536 z"
           id="path20781" />
        <path
           style="font-weight:bold;font-stretch:condensed;font-size:5.22315px;line-height:10;font-family:Arial;-inkscape-font-specification:'Arial Bold Condensed';text-align:center;letter-spacing:3.91736px;word-spacing:0px;text-anchor:middle;fill:#96ca4f;stroke-width:1.39672"
           d="m 155.79882,133.14421 v -11.95299 h 3.72594 l 2.23761,8.15347 2.2171,-8.15347 h 3.73621 v 11.95299 h -2.30947 v -9.4091 l -2.45317,9.4091 h -2.40187 l -2.43263,-9.4091 v 9.4091 z"
           id="path20779" />
        <path
           style="font-weight:bold;font-stretch:condensed;font-size:5.22315px;line-height:10;font-family:Arial;-inkscape-font-specification:'Arial Bold Condensed';text-align:center;letter-spacing:3.91736px;word-spacing:0px;text-anchor:middle;fill:#96ca4f;stroke-width:1.39672"
           d="m 173.25758,133.14421 v -11.95299 h 3.72595 l 2.23761,8.15347 2.2171,-8.15347 h 3.7362 v 11.95299 h -2.30947 v -9.4091 l -2.45316,9.4091 h -2.40186 l -2.43265,-9.4091 v 9.4091 z"
           id="path20777" />
        <path
           style="font-weight:bold;font-stretch:condensed;font-size:5.22315px;line-height:10;font-family:Arial;-inkscape-font-specification:'Arial Bold Condensed';text-align:center;letter-spacing:3.91736px;word-spacing:0px;text-anchor:middle;fill:#96ca4f;stroke-width:1.39672"
           d="m 190.71633,133.14421 v -11.95299 h 2.48396 v 11.95299 z"
           id="path20775" />
        <path
           style="font-weight:bold;font-stretch:condensed;font-size:5.22315px;line-height:10;font-family:Arial;-inkscape-font-specification:'Arial Bold Condensed';text-align:center;letter-spacing:3.91736px;word-spacing:0px;text-anchor:middle;fill:#96ca4f;stroke-width:1.39672"
           d="m 202.40656,133.14421 v -9.93094 h -3.66438 v -2.02205 h 9.80242 v 2.02205 h -3.6541 v 9.93094 z"
           id="path20771" />
      </g>
      <g
         id="g208"
         transform="translate(-92.007478,-44.68935)">
        <path
           d="m 166.0461,175.19597 2.34563,-0.34684 q 0.30462,1.34702 1.88868,1.34702 0.8428,0 1.25912,-0.25811 0.41632,-0.25811 0.41632,-0.66947 0,-0.28232 -0.18277,-0.44364 -0.19293,-0.16132 -0.76157,-0.2823 -2.88379,-0.60495 -3.66567,-1.15344 -0.9748,-0.68562 -0.9748,-1.87938 0,-1.19379 0.9545,-1.91166 0.95449,-0.71787 2.77209,-0.71787 1.73637,0 2.6401,0.54042 0.90372,0.53236 1.26928,1.72613 l -2.20347,0.39523 q -0.29447,-1.03246 -1.66529,-1.03246 -0.86311,0 -1.22866,0.20166 -0.36555,0.1936 -0.36555,0.50816 0,0.28231 0.33509,0.46783 0.33509,0.19358 2.08161,0.58076 1.95976,0.43556 2.6604,1.05665 0.69049,0.62108 0.69049,1.65352 0,1.24217 -1.07635,2.04878 -1.06619,0.8066 -2.95487,0.8066 -1.71606,0 -2.80256,-0.66948 -1.0865,-0.67754 -1.43175,-1.96811 z"
           style="font-weight:bold;font-stretch:condensed;font-size:16.2278px;line-height:10;font-family:Arial;-inkscape-font-specification:'Arial Bold Condensed';text-align:center;letter-spacing:3.91736px;word-spacing:0px;text-anchor:middle;fill:#96ca4f;stroke-width:0.444728"
           id="path21173" />
        <path
           d="m 182.64348,174.91366 2.32532,0.37911 q -0.4671,1.29056 -1.45205,1.9197 -0.98497,0.62109 -2.3964,0.62109 -1.95976,0 -3.02596,-1.04051 -1.25911,-1.20991 -1.25911,-3.38774 0,-2.14555 1.26927,-3.43613 1.07635,-1.0889 2.78225,-1.0889 1.89884,0 2.97519,1.11311 1.23881,1.27443 1.23881,3.75877 l -0.0103,0.2581 h -5.85898 q 0.0203,1.01632 0.56863,1.57288 0.55849,0.55655 1.34036,0.55655 1.12712,0 1.50283,-1.22603 z m 0.13201,-2.29075 q -0.0305,-1.00019 -0.53818,-1.50028 -0.50771,-0.50817 -1.20835,-0.50817 -0.74125,0 -1.24896,0.5243 -0.51787,0.53236 -0.50772,1.48415 z"
           style="font-weight:bold;font-stretch:condensed;font-size:16.2278px;line-height:10;font-family:Arial;-inkscape-font-specification:'Arial Bold Condensed';text-align:center;letter-spacing:3.91736px;word-spacing:0px;text-anchor:middle;fill:#96ca4f;stroke-width:0.444728"
           id="path21170" />
        <path
           d="m 187.62445,177.83356 v -11.72799 h 2.45731 v 9.73568 h 6.13315 v 1.99231 z"
           style="font-weight:bold;font-stretch:condensed;font-size:16.2278px;line-height:10;font-family:Arial;-inkscape-font-specification:'Arial Bold Condensed';text-align:center;letter-spacing:3.91736px;word-spacing:0px;text-anchor:middle;fill:#96ca4f;stroke-width:0.444728"
           id="path21167" />
        <path
           d="m 203.73443,177.83356 v -2.37948 h -4.99587 v -1.98424 l 5.29033,-7.50946 h 1.96993 v 7.5014 h 1.51296 v 1.9923 h -1.51296 v 2.37948 z m 0,-4.37178 v -4.04108 l -2.80256,4.04108 z"
           style="font-weight:bold;font-stretch:condensed;font-size:16.2278px;line-height:10;font-family:Arial;-inkscape-font-specification:'Arial Bold Condensed';text-align:center;letter-spacing:3.91736px;word-spacing:0px;text-anchor:middle;fill:#96ca4f;stroke-width:0.444728"
           id="path21164" />
      </g>
    </g>
    <path
       style="fill:#a1c961;fill-opacity:1"
       d="m 161.94053,181.29749 c -9.99513,-0.75842 -20.71684,-3.73806 -27.78125,-7.72061 -15.00956,-8.46163 -23.76932,-21.46149 -26.07004,-38.68909 -0.72017,-5.39257 -0.4359,-13.49084 0.65952,-18.78855 1.71372,-8.28801 4.26803,-14.49667 8.73678,-21.236126 8.32814,-12.559971 21.06176,-21.565501 35.59144,-25.171141 5.27873,-1.30995 6.80869,-1.4649 14.55209,-1.4738 6.68672,-0.008 7.70471,0.0506 10.45104,0.59878 13.06106,2.60685 22.95402,7.84902 32.01589,16.96489 5.39708,5.42923 8.38204,9.611851 11.62868,16.294477 2.50258,5.15111 4.22325,10.84603 5.19618,17.19792 0.61531,4.01707 0.61595,12.4547 0.001,16.40416 -2.18758,14.05526 -8.21781,24.78144 -18.5472,32.99055 -11.44832,9.09838 -29.22883,13.93405 -46.43437,12.62854 z m 15.82302,-3.26379 c 17.90723,-2.69197 31.61289,-10.79785 39.40534,-23.30531 8.49774,-13.63948 9.83997,-31.78136 3.53656,-47.80079 -1.60792,-4.08635 -2.21084,-5.29102 -4.53261,-9.056376 -8.78287,-14.243761 -23.54102,-23.966851 -40.26033,-26.524661 -3.73161,-0.57088 -12.44483,-0.63805 -16.08865,-0.12403 -18.69405,2.63711 -35.03279,14.34374 -43.47223,31.147667 -3.94706,7.85908 -5.86063,16.1039 -5.85766,25.23841 0.004,12.84254 4.1123,24.16625 12.03253,33.16676 6.10098,6.93311 14.9446,12.28307 25.00078,15.12426 3.64185,1.02895 9.41869,2.12726 13.09033,2.48878 3.57448,0.35196 13.86062,0.13916 17.14594,-0.35471 z m -15.69073,-1.65763 c -8.96571,-0.7751 -19.93975,-3.80973 -24.98773,-6.9098 l -0.91065,-0.55925 1.83669,-0.83255 c 2.74134,-1.24263 7.77029,-2.84277 10.3458,-3.2919 2.92975,-0.51091 8.26712,-0.50604 11.45185,0.0104 1.59742,0.25906 5.31877,1.35236 10.31875,3.03159 9.37326,3.14796 12.34749,3.77455 17.87445,3.76561 2.03729,-0.003 4.2801,-0.12394 4.98401,-0.26811 1.68655,-0.34542 1.30639,-0.0595 -1.28278,0.96482 -4.75517,1.88121 -11.58601,3.42884 -17.59185,3.98568 -2.81024,0.26056 -9.55129,0.3185 -12.03854,0.10348 z m -29.64723,-9.69336 c -3.02738,-2.09159 -5.84221,-4.41368 -5.35024,-4.41368 0.0685,0 1.42256,-0.28618 3.00896,-0.63595 4.75058,-1.04743 7.6796,-1.30949 12.65434,-1.13219 3.28854,0.1172 5.38857,0.34199 7.71945,0.8263 4.8256,1.00267 4.91624,1.10322 1.15033,1.27602 -4.73215,0.21715 -10.33434,1.77819 -15.25163,4.24985 -2.0715,1.04123 -2.18466,1.03632 -3.93121,-0.17035 z m 53.83767,-2.15535 c -3.21459,-0.52569 -6.24941,-1.33705 -9.62639,-2.57365 -1.60731,-0.58857 -2.94773,-1.09131 -2.9787,-1.11723 -0.031,-0.0259 1.63591,-0.0483 3.70417,-0.0498 5.10181,-0.004 8.27678,-0.67466 11.93201,-2.52157 l 1.55695,-0.7867 1.75034,0.91402 c 5.10389,2.66518 11.36207,3.17838 16.6842,1.36822 1.07609,-0.366 1.99111,-0.63087 2.03338,-0.58859 0.13145,0.13145 -2.51103,1.78343 -4.08818,2.55578 -1.86152,0.91161 -5.10252,1.98096 -7.71968,2.54706 -2.75461,0.59584 -10.27233,0.73911 -13.2481,0.25248 z m -13.50742,-5.82154 c -3.65086,-0.59865 -7.02771,-1.45582 -10.15386,-2.57746 -9.21361,-3.30577 -15.14964,-4.44473 -23.14313,-4.4405 -6.08492,0.003 -10.43824,0.61127 -16.3904,2.28937 l -2.49186,0.70254 -0.61825,-0.76943 c -0.66883,-0.83239 -2.55828,-4.36588 -2.85195,-5.3335 -0.16386,-0.53988 -0.0928,-0.59531 0.76319,-0.59531 h 0.94387 v -2.11667 -2.11667 h 2.72035 2.72035 l 0.0612,-2.69335 c 0.0337,-1.48134 0.10568,-2.73783 0.16005,-2.7922 0.0544,-0.0544 1.33274,-0.1104 2.84085,-0.12452 l 2.74199,-0.0257 0.0767,2.14627 0.0767,2.14627 2.30457,0.0763 2.30457,0.0763 0.0754,2.71198 c 0.069,2.48184 0.11896,2.71198 0.58876,2.71198 0.48404,0 0.51751,-0.24551 0.58605,-4.29949 l 0.0727,-4.29947 1.67558,-0.0793 c 1.27833,-0.0605 1.87864,0.0405 2.53211,0.42602 l 0.85653,0.50538 0.31494,-5.05623 c 0.45165,-7.251 0.46195,-7.09289 -0.50869,-7.81051 -0.82697,-0.6114 -1.43434,-1.72304 -1.60323,-2.93427 -0.0806,-0.57799 0.0246,-0.67815 0.8338,-0.79375 0.70904,-0.10129 0.94586,-0.2718 1.01059,-0.7276 0.0646,-0.45473 0.25868,-0.59532 0.8219,-0.59532 0.71932,0 0.74152,-0.0448 0.90751,-1.83078 0.0936,-1.00694 0.0979,-2.01897 0.01,-2.24896 -0.11498,-0.29964 -0.002,-0.41817 0.39701,-0.41817 0.52284,0 0.55747,0.13862 0.55747,2.23138 v 2.23138 l 0.72761,0.0837 c 0.52096,0.0599 0.75161,0.25279 0.81215,0.67904 0.0686,0.48292 0.25295,0.59531 0.97657,0.59531 0.49061,0 0.94239,0.0893 1.00395,0.19844 0.0616,0.10914 -0.0656,0.82317 -0.28264,1.58673 -0.31014,1.09124 -0.59192,1.51026 -1.31692,1.95834 l -0.92235,0.57004 0.17485,3.8625 c 0.22847,5.04706 0.30341,5.42124 1.03588,5.17221 0.31297,-0.10641 1.25124,-0.24672 2.08505,-0.3118 l 1.51603,-0.11834 0.0715,5.64563 c 0.0713,5.62869 0.0733,5.64587 0.66678,5.73017 l 0.59532,0.0845 V 132.52183 117.0253 h 5.02708 5.02708 v 8.72132 8.72132 l 2.4474,0.0761 2.44739,0.0761 0.1323,7.80175 c 0.12139,7.15898 0.17043,7.80909 0.59531,7.89075 0.43538,0.0837 0.46302,-0.61508 0.46302,-11.70436 0,-11.04374 0.0294,-11.79529 0.46302,-11.82387 0.25466,-0.0168 0.58208,-0.0582 0.7276,-0.092 0.14552,-0.0338 0.47295,-0.0796 0.72761,-0.10177 0.34325,-0.0299 0.46302,-0.2753 0.46302,-0.94885 0,-0.7711 -0.16721,-1.02128 -1.10519,-1.65365 -0.88246,-0.59493 -1.25497,-1.11131 -1.8484,-2.56225 -0.40877,-0.99944 -0.67831,-1.92218 -0.59899,-2.05052 0.0793,-0.12835 0.56175,-0.23336 1.07205,-0.23336 1.34425,0 1.95136,-0.40952 1.95136,-1.31626 0,-0.69702 0.0923,-0.7761 0.99219,-0.85058 l 0.99219,-0.0821 0.16827,-3.43959 c 0.20476,-4.18539 0.14787,-3.83645 0.62548,-3.83645 0.31611,0 0.39726,0.39036 0.39875,1.91823 0.001,1.05502 0.0778,2.7219 0.17055,3.70416 l 0.16868,1.78594 h 0.88778 c 0.81165,0 0.88778,0.0686 0.88778,0.8003 0,0.908 0.70302,1.31637 2.26618,1.31637 1.09726,0 1.10332,0.11285 0.13464,2.50459 -0.61381,1.5155 -0.91705,1.93164 -1.70595,2.34104 -0.85389,0.44313 -0.95945,0.61151 -0.95945,1.53031 0,0.79326 0.10724,1.04064 0.46302,1.06803 1.34569,0.10359 1.92905,0.134 3.43958,0.17932 0.9095,0.0273 1.63955,0.13892 1.62231,0.24806 -0.0172,0.10914 -0.0172,5.4157 0,11.79235 l 0.0313,11.59392 0.59532,-0.0846 c 0.58866,-0.0836 0.59612,-0.13699 0.66756,-4.7809 l 0.0722,-4.69635 h 1.58139 1.5814 v -5.02707 -5.02709 h 1.05833 1.05834 v -2.38125 -2.38125 h 1.98437 1.98438 v 1.19063 1.19062 h 1.19062 1.19062 v 10.99777 10.99779 l 0.72761,-0.0837 0.7276,-0.0837 0.0709,-6.27281 0.0709,-6.2728 2.04575,-0.0772 2.04576,-0.0772 0.0774,-1.90175 c 0.0752,-1.84835 0.0975,-1.90406 0.79375,-1.98437 0.5595,-0.0645 0.73467,-0.24194 0.80006,-0.81024 0.0799,-0.6942 0.14971,-0.7276 1.52136,-0.7276 1.42098,0 1.43763,0.009 1.43763,0.79375 0,0.76435 0.0441,0.79375 1.19063,0.79375 h 1.19062 v 8.35276 8.35278 l 0.59531,-0.0846 c 0.56475,-0.0802 0.5992,-0.21701 0.67104,-2.66423 l 0.0757,-2.57969 h 1.97479 1.9748 v 0.79375 c 0,0.65914 0.10657,0.79375 0.62838,0.79375 0.69164,0 0.95912,-0.7471 0.95912,-2.67891 v -1.02526 h 2.11666 2.11667 v 3.58018 c 0,2.94883 0.0705,3.60722 0.39952,3.73349 0.32983,0.12658 0.25275,0.41355 -0.44191,1.64534 -1.76967,3.13803 -2.26072,3.6402 -4.822,4.93121 -5.8773,2.96243 -12.3319,2.87606 -18.46191,-0.24706 l -2.29192,-1.1677 -2.33828,1.17537 c -1.28606,0.64644 -3.29079,1.41528 -4.45495,1.70853 -2.81725,0.70965 -8.19931,0.89674 -11.2774,0.39202 z"
       id="path5" />
    <text
       xml:space="preserve"
       transform="scale(0.26458333)"
       id="text1"
       style="white-space:pre;shape-inside:url(#rect1);display:inline;fill:none" />
    <text
       xml:space="preserve"
       style="font-size:3.175px;fill:none;stroke-width:0.264583"
       x="286.80835"
       y="157.69167"
       id="text2"><tspan
         sodipodi:role="line"
         id="tspan2"
         style="stroke-width:0.264583"
         x="286.80835"
         y="157.69167">2025</tspan></text>
    <text
       xml:space="preserve"
       style="font-size:3.175px;fill:none;stroke-width:0.264583"
       x="294.21667"
       y="170.39166"
       id="text3"><tspan
         sodipodi:role="line"
         id="tspan3"
         style="stroke-width:0.264583"
         x="294.21667"
         y="170.39166">202</tspan></text>
    <text
       xml:space="preserve"
       transform="scale(0.26458333)"
       id="text4"
       style="font-size:29.3333px;white-space:pre;shape-inside:url(#rect4);display:inline;fill:none" />
    <text
       xml:space="preserve"
       style="font-size:7.7611px;fill:none;stroke-width:0.264583"
       x="286.80835"
       y="150.28334"
       id="text5"><tspan
         sodipodi:role="line"
         id="tspan5"
         style="font-style:normal;font-variant:normal;font-weight:bold;font-stretch:normal;font-size:7.7611px;font-family:Sans;-inkscape-font-specification:'Sans, Bold';font-variant-ligatures:normal;font-variant-caps:normal;font-variant-numeric:normal;font-variant-east-asian:normal;stroke-width:0.264583"
         x="286.80835"
         y="150.28334">5</tspan><tspan
         sodipodi:role="line"
         style="font-style:normal;font-variant:normal;font-weight:bold;font-stretch:normal;font-size:7.7611px;font-family:Sans;-inkscape-font-specification:'Sans, Bold';font-variant-ligatures:normal;font-variant-caps:normal;font-variant-numeric:normal;font-variant-east-asian:normal;stroke-width:0.264583"
         x="286.80835"
         y="159.98471"
         id="tspan6" /></text>
    <text
       xml:space="preserve"
       style="font-weight:bold;font-stretch:condensed;font-size:7.7611px;font-family:Arial;-inkscape-font-specification:'Arial, Bold Condensed';fill:#231a4f;stroke-width:0.264583"
       x="228.24818"
       y="263.98212"
       id="text6"><tspan
         sodipodi:role="line"
         id="tspan1"
         style="stroke-width:0.264583"
         x="228.24818"
         y="263.98212" /></text>
    <text
       xml:space="preserve"
       transform="scale(0.26458333)"
       id="text7"
       style="font-weight:bold;font-stretch:condensed;font-size:29.3333px;font-family:Arial;-inkscape-font-specification:'Arial, Bold Condensed';white-space:pre;shape-inside:url(#rect8);display:inline;fill:#ff0000;stroke-width:0;stroke-miterlimit:15" />
    <text
       xml:space="preserve"
       style="font-style:normal;font-variant:normal;font-weight:bold;font-stretch:condensed;font-size:7.7611px;font-family:Arial;-inkscape-font-specification:'Arial, Bold Condensed';font-variant-ligatures:normal;font-variant-caps:normal;font-variant-numeric:normal;font-variant-east-asian:normal;fill:#ff0000;stroke-width:0;stroke-miterlimit:15"
       x="256.11667"
       y="216.95833"
       id="text11"><tspan
         sodipodi:role="line"
         id="tspan10"
         style="stroke-width:0"
         x="256.11667"
         y="216.95833" /></text>
    <text
       xml:space="preserve"
       style="font-weight:bold;font-stretch:condensed;font-size:7.7611px;font-family:Arial;-inkscape-font-specification:'Arial, Bold Condensed';fill:#96184f;fill-opacity:1;stroke-miterlimit:15"
       x="209.81458"
       y="212.72499"
       id="text20"
       transform="matrix(0,0,0,0,210.14048,207.1467)"><tspan
         sodipodi:role="line"
         id="tspan19"
         x="209.81458"
         y="212.72499">0</tspan></text>
    <g
       id="g39"
       transform="translate(1.5875023)">
      <g
         id="g35"
         transform="translate(33.78719,0.26454735)">
        <text
           xml:space="preserve"
           style="font-weight:bold;font-stretch:condensed;font-size:22.2775px;font-family:Arial;-inkscape-font-specification:'Arial, Bold Condensed';fill:#96ca4f;fill-opacity:1;stroke-width:0;stroke-miterlimit:15"
           x="233.74724"
           y="232.82544"
           id="text21"
           transform="scale(0.93331432,1.0714504)"><tspan
             sodipodi:role="line"
             id="tspan20"
             style="fill:#96ca4f;fill-opacity:1;stroke-width:0"
             x="233.74724"
             y="232.82544">2</tspan></text>
        <text
           xml:space="preserve"
           style="font-weight:bold;font-stretch:condensed;font-size:22.2775px;font-family:Arial;-inkscape-font-specification:'Arial, Bold Condensed';fill:#96ca4f;fill-opacity:1;stroke-width:0;stroke-miterlimit:15"
           x="197.60324"
           y="232.82547"
           id="text21-6"
           transform="scale(0.9333144,1.0714503)"><tspan
             sodipodi:role="line"
             id="tspan20-3"
             style="fill:#96ca4f;fill-opacity:1;stroke-width:0"
             x="197.60324"
             y="232.82547">2</tspan></text>
        <text
           xml:space="preserve"
           style="font-weight:bold;font-stretch:condensed;font-size:22.1583px;font-family:Arial;-inkscape-font-specification:'Arial, Bold Condensed';fill:#96ca4f;fill-opacity:1;stroke-width:0;stroke-miterlimit:15"
           x="248.55333"
           y="235.24196"
           id="text22"
           transform="scale(0.94408559,1.059226)"><tspan
             sodipodi:role="line"
             id="tspan21"
             style="fill:#96ca4f;fill-opacity:1;stroke-width:0"
             x="248.55333"
             y="235.24196">6</tspan></text>
        <text
           xml:space="preserve"
           style="font-weight:bold;font-stretch:condensed;font-size:24.3204px;font-family:Arial;-inkscape-font-specification:'Arial, Bold Condensed';fill:#96ca4f;fill-opacity:1;stroke-width:0;stroke-miterlimit:15"
           x="261.68735"
           y="191.38347"
           id="text29"
           transform="scale(0.76833064,1.301523)"><tspan
             sodipodi:role="line"
             id="tspan29"
             style="fill:#96ca4f;fill-opacity:1;stroke-width:0"
             x="261.68735"
             y="191.38347">o</tspan></text>
      </g>
      <g
         id="g38">
        <text
           xml:space="preserve"
           style="font-weight:bold;font-stretch:condensed;font-size:21.6107px;font-family:Arial;-inkscape-font-specification:'Arial, Bold Condensed';fill:#96ca4f;fill-opacity:1;stroke-width:0;stroke-miterlimit:15"
           x="58.310745"
           y="225.17543"
           id="text8"
           transform="scale(0.90169194,1.1090262)"><tspan
             sodipodi:role="line"
             id="tspan4"
             style="fill:#96ca4f;fill-opacity:1;stroke-width:0"
             x="58.310745"
             y="225.17543">V</tspan></text>
        <text
           xml:space="preserve"
           style="font-weight:bold;font-stretch:condensed;font-size:21.6107px;font-family:Arial;-inkscape-font-specification:'Arial, Bold Condensed';fill:#96ca4f;fill-opacity:1;stroke-width:0;stroke-miterlimit:15"
           x="170.48956"
           y="225.17543"
           id="text8-9"
           transform="scale(0.90169195,1.1090262)"><tspan
             sodipodi:role="line"
             id="tspan4-3"
             style="fill:#96ca4f;fill-opacity:1;stroke-width:0"
             x="170.48956"
             y="225.17543">V</tspan></text>
        <text
           xml:space="preserve"
           style="font-weight:bold;font-stretch:condensed;font-size:20.8182px;font-family:Arial;-inkscape-font-specification:'Arial, Bold Condensed';fill:#96ca4f;fill-opacity:1;stroke-width:0;stroke-miterlimit:15"
           x="80.286263"
           y="216.91077"
           id="text10"
           transform="scale(0.86859692,1.151282)"><tspan
             sodipodi:role="line"
             id="tspan8"
             style="fill:#96ca4f;fill-opacity:1;stroke-width:0"
             x="80.286263"
             y="216.91077">A</tspan></text>
        <text
           xml:space="preserve"
           style="font-weight:bold;font-stretch:condensed;font-size:21.1722px;font-family:Arial;-inkscape-font-specification:'Arial, Bold Condensed';fill:#96ca4f;fill-opacity:1;stroke-width:0;stroke-miterlimit:15"
           x="111.90561"
           y="227.87183"
           id="text13"
           transform="scale(0.91352432,1.0946616)"><tspan
             sodipodi:role="line"
             id="tspan12"
             style="fill:#96ca4f;fill-opacity:1;stroke-width:0"
             x="111.90561"
             y="227.87183">C</tspan></text>
        <text
           xml:space="preserve"
           style="font-weight:bold;font-stretch:condensed;font-size:21.5516px;font-family:Arial;-inkscape-font-specification:'Arial, Bold Condensed';fill:#96ca4f;fill-opacity:1;stroke-width:0;stroke-miterlimit:15"
           x="127.44678"
           y="231.95825"
           id="text14"
           transform="scale(0.92990653,1.0753769)"><tspan
             sodipodi:role="line"
             id="tspan13"
             style="fill:#96ca4f;fill-opacity:1;stroke-width:0"
             x="127.44678"
             y="231.95825">O</tspan></text>
        <text
           xml:space="preserve"
           style="font-weight:bold;font-stretch:condensed;font-size:22.3133px;font-family:Arial;-inkscape-font-specification:'Arial, Bold Condensed';fill:#96ca4f;fill-opacity:1;stroke-width:0;stroke-miterlimit:15"
           x="143.58994"
           y="236.18886"
           id="text15"
           transform="scale(0.94688478,1.0560947)"><tspan
             sodipodi:role="line"
             id="tspan14"
             style="fill:#96ca4f;fill-opacity:1;stroke-width:0"
             x="143.58994"
             y="236.18886">U</tspan></text>
        <text
           xml:space="preserve"
           style="font-weight:bold;font-stretch:condensed;font-size:21.1945px;font-family:Arial;-inkscape-font-specification:'Arial, Bold Condensed';fill:#96ca4f;fill-opacity:1;stroke-width:0;stroke-miterlimit:15"
           x="191.69476"
           y="220.84241"
           id="text17"
           transform="scale(0.88434079,1.1307858)"><tspan
             sodipodi:role="line"
             id="tspan16"
             style="fill:#96ca4f;fill-opacity:1;stroke-width:0"
             x="191.69476"
             y="220.84241">E</tspan></text>
        <text
           xml:space="preserve"
           style="font-weight:bold;font-stretch:condensed;font-size:21.1924px;font-family:Arial;-inkscape-font-specification:'Arial, Bold Condensed';fill:#96ca4f;fill-opacity:1;stroke-width:0;stroke-miterlimit:15"
           x="207.97195"
           y="220.81949"
           id="text18"
           transform="scale(0.88424898,1.1309032)"><tspan
             sodipodi:role="line"
             id="tspan17"
             style="fill:#96ca4f;fill-opacity:1;stroke-width:0"
             x="207.97195"
             y="220.81949">R</tspan></text>
        <text
           xml:space="preserve"
           style="font-weight:bold;font-stretch:condensed;font-size:22.5612px;font-family:Arial;-inkscape-font-specification:'Arial, Bold Condensed';fill:#96ca4f;fill-opacity:1;stroke-width:0;stroke-miterlimit:15"
           x="90.646378"
           y="235.07416"
           id="text30"
           transform="scale(0.94133037,1.0623263)"><tspan
             sodipodi:role="line"
             id="tspan30"
             style="fill:#96ca4f;fill-opacity:1;stroke-width:0"
             x="90.646378"
             y="235.07416">N</tspan></text>
      </g>
    </g>
  </g>
</svg>
