<?xml version="1.0" encoding="UTF-8" standalone="no"?>
<!-- Created with Inkscape (http://www.inkscape.org/) -->

<svg
   width="331.24274mm"
   height="250mm"
   viewBox="0 0 331.24275 250"
   version="1.1"
   id="svg5"
   inkscape:version="1.3.2 (091e20e, 2023-11-25)"
   sodipodi:docname="sel4_summit_2025_location.svg"
   inkscape:export-filename="C:\Users\Birgit Brecknell\Documents\}} seL4 Foundation\summit\summit location logos\sel4_summit_2024.png"
   inkscape:export-xdpi="96"
   inkscape:export-ydpi="96"
   xmlns:inkscape="http://www.inkscape.org/namespaces/inkscape"
   xmlns:sodipodi="http://sodipodi.sourceforge.net/DTD/sodipodi-0.dtd"
   xmlns:xlink="http://www.w3.org/1999/xlink"
   xmlns="http://www.w3.org/2000/svg"
   xmlns:svg="http://www.w3.org/2000/svg">
  <sodipodi:namedview
     id="namedview7"
     pagecolor="#ffffff"
     bordercolor="#666666"
     borderopacity="1.0"
     inkscape:pageshadow="2"
     inkscape:pageopacity="0.0"
     inkscape:pagecheckerboard="0"
     inkscape:document-units="mm"
     showgrid="false"
     inkscape:zoom="0.35355339"
     inkscape:cx="448.3057"
     inkscape:cy="889.54033"
     inkscape:window-width="1464"
     inkscape:window-height="916"
     inkscape:window-x="49"
     inkscape:window-y="38"
     inkscape:window-maximized="0"
     inkscape:current-layer="g12656"
     fit-margin-top="0"
     fit-margin-left="0"
     fit-margin-right="0"
     fit-margin-bottom="0"
     showguides="true"
     inkscape:guide-bbox="true"
     inkscape:snap-nodes="false"
     inkscape:showpageshadow="2"
     inkscape:deskcolor="#d1d1d1" />
  <defs
     id="defs2">
    <rect
       x="1100"
       y="546"
       width="122"
       height="58"
       id="rect7" />
    <rect
       x="1000"
       y="542"
       width="182"
       height="90"
       id="rect4" />
    <rect
       x="1016"
       y="562"
       width="132"
       height="82"
       id="rect1" />
    <rect
       x="27.598793"
       y="613.79717"
       width="397.42263"
       height="142.40977"
       id="rect1965" />
    <color-profile
       name="Agfa-:-Swop-Standard"
       xlink:href="file:///WINDOWS/system32/spool/drivers/color/RSWOP.icm"
       id="color-profile2" />
    <rect
       x="680.69342"
       y="102.26014"
       width="15.612235"
       height="115.53054"
       id="rect9649" />
    <style
       id="style824">.cls-1,.cls-2,.cls-3{fill:#96ca4f;}.cls-2,.cls-3{stroke:#96ca4f;stroke-miterlimit:8;}.cls-3{stroke-width:0.25px;}</style>
  </defs>
  <g
     inkscape:label="Layer 1"
     inkscape:groupmode="layer"
     id="layer1">
    <g
       id="g1204"
       transform="scale(1.9530976)"
       sodipodi:insensitive="true" />
    <g
       id="g12656">
      <g
         id="g26"
         transform="translate(0,-0.29618734)">
        <path
           style="font-weight:bold;font-stretch:condensed;font-size:25.2799px;font-family:Arial;-inkscape-font-specification:'Arial, Bold Condensed';fill:#96ca4f;fill-opacity:1;stroke-width:0.264584"
           d="m 169.2527,249.99242 v -17.36875 h 12.53607 v 2.93824 h -9.12238 v 3.85051 h 8.48809 v 2.92638 h -8.48809 v 4.72724 h 9.4453 v 2.92638 z"
           id="path26" />
        <path
           style="font-weight:bold;font-stretch:condensed;font-size:25.2799px;font-family:Arial;-inkscape-font-specification:'Arial, Bold Condensed';fill:#96ca4f;fill-opacity:1;stroke-width:0.264584"
           d="m 150.42418,232.62367 h 3.4137 v 9.40708 q 0,2.23922 0.12685,2.9027 0.21913,1.06629 1.03794,1.71792 0.83036,0.63977 2.26043,0.63977 1.45311,0 2.1912,-0.60423 0.73811,-0.61608 0.88803,-1.50466 0.14992,-0.88858 0.14992,-2.95008 v -9.6085 h 3.4137 v 9.12274 q 0,3.1278 -0.27679,4.41919 -0.27679,1.29141 -1.02642,2.17999 -0.73809,0.88857 -1.98363,1.42172 -1.24553,0.5213 -3.25222,0.5213 -2.42188,0 -3.67894,-0.56869 -1.24554,-0.58054 -1.9721,-1.49281 -0.72657,-0.92412 -0.95721,-1.93117 -0.33446,-1.49282 -0.33446,-4.40735 z"
           id="path25" />
        <path
           style="font-weight:bold;font-stretch:condensed;font-size:25.2799px;font-family:Arial;-inkscape-font-specification:'Arial, Bold Condensed';fill:#96ca4f;fill-opacity:1;stroke-width:0.264584"
           d="m 138.44739,243.9027 v -2.92639 h 7.35789 v 6.91906 q -1.07255,1.0663 -3.11384,1.88378 -2.02976,0.80565 -4.11718,0.80565 -2.65253,0 -4.62464,-1.13738 -1.97209,-1.14923 -2.9639,-3.26996 -0.99182,-2.1326 -0.99182,-4.63246 0,-2.71313 1.10715,-4.82202 1.10714,-2.10889 3.24069,-3.23442 1.62612,-0.86489 4.04799,-0.86489 3.14844,0 4.91294,1.3625 1.77604,1.35063 2.28348,3.74387 l -3.39062,0.65162 q -0.35752,-1.27955 -1.34933,-2.01411 -0.98029,-0.7464 -2.45647,-0.7464 -2.23735,0 -3.56362,1.45726 -1.31473,1.45727 -1.31473,4.32441 0,3.09226 1.3378,4.64431 1.3378,1.5402 3.50595,1.5402 1.07254,0 2.14508,-0.42652 1.08409,-0.43836 1.85677,-1.05445 v -2.20366 z"
           id="path24" />
        <path
           style="font-weight:bold;font-stretch:condensed;font-size:25.2799px;font-family:Arial;-inkscape-font-specification:'Arial, Bold Condensed';fill:#96ca4f;fill-opacity:1;stroke-width:0.264584"
           d="m 127.86477,249.99242 h -3.71354 l -1.47619,-3.94529 h -6.75818 l -1.39544,3.94529 h -3.6213 l 6.5852,-17.36875 h 3.60975 z m -6.28533,-6.87168 -2.32962,-6.44515 -2.28347,6.44515 z"
           id="path23" />
        <path
           style="font-weight:bold;font-stretch:condensed;font-size:25.2799px;font-family:Arial;-inkscape-font-specification:'Arial, Bold Condensed';fill:#96ca4f;fill-opacity:1;stroke-width:0.264584"
           d="m 92.891073,249.99242 v -17.36875 h 7.184897 q 2.71018,0 3.93265,0.47392 1.23401,0.46206 1.97211,1.65868 0.73809,1.19661 0.73809,2.73682 0,1.95487 -1.11867,3.23442 -1.11868,1.2677 -3.34449,1.59944 1.10714,0.66347 1.82217,1.45727 0.72656,0.7938 1.94903,2.81975 l 2.06436,3.38845 h -4.0826 l -2.468,-3.77942 q -1.31473,-2.02596 -1.799105,-2.54726 -0.48438,-0.53314 -1.02641,-0.72271 -0.54204,-0.20141 -1.718382,-0.20141 H 96.30476 v 7.2508 z m 3.413687,-10.02316 h 2.525665 q 2.456485,0 3.067715,-0.21326 0.61123,-0.21326 0.95721,-0.73456 0.34599,-0.5213 0.34599,-1.30324 0,-0.87674 -0.46131,-1.40988 -0.44978,-0.54499 -1.28013,-0.68717 -0.41518,-0.0592 -2.491072,-0.0592 H 96.30476 Z"
           id="path22" />
        <path
           style="font-weight:bold;font-stretch:condensed;font-size:25.2799px;font-family:Arial;-inkscape-font-specification:'Arial, Bold Condensed';fill:#96ca4f;fill-opacity:1;stroke-width:0.264584"
           d="m 76.620921,249.99242 v -17.36875 h 5.478044 q 3.113837,0 4.059521,0.26066 1.453124,0.39097 2.433405,1.70607 0.980282,1.30325 0.980282,3.37659 0,1.59944 -0.565105,2.68943 -0.565102,1.08999 -1.441589,1.71792 -0.864955,0.61608 -1.764508,0.8175 -1.222469,0.24879 -3.540547,0.24879 h -2.225816 v 6.55179 z m 3.413687,-14.43051 v 4.92864 h 1.868302 q 2.018226,0 2.698658,-0.27249 0.680431,-0.2725 1.06101,-0.85304 0.392114,-0.58053 0.392114,-1.35063 0,-0.94782 -0.542039,-1.5639 -0.542038,-0.61608 -1.372394,-0.7701 -0.611235,-0.11848 -2.456471,-0.11848 z"
           id="text9" />
      </g>
      <text
         xml:space="preserve"
         transform="scale(0.38298209)"
         id="text9647"
         style="font-style:normal;font-weight:normal;font-size:40px;line-height:1.25;font-family:sans-serif;white-space:pre;shape-inside:url(#rect9649);display:inline;fill:#000000;fill-opacity:1;stroke:none" />
      <g
         id="g3802"
         transform="scale(1.4474914)" />
      <g
         id="g258"
         transform="matrix(1.4474914,0,0,1.4474914,-36.98074,-174.82124)">
        <g
           id="g216">
          <path
             style="font-weight:bold;font-stretch:condensed;font-size:5.22315px;line-height:10;font-family:Arial;-inkscape-font-specification:'Arial Bold Condensed';text-align:center;letter-spacing:3.91736px;word-spacing:0px;text-anchor:middle;fill:#96ca4f;stroke-width:1.39672"
             d="m 124.84334,129.04298 2.43265,-0.22832 q 0.41056,2.29113 2.68924,2.29113 1.12907,0 1.77572,-0.46474 0.64665,-0.47291 0.64665,-1.16596 0,-0.40766 -0.22584,-0.69305 -0.22579,-0.28535 -0.68772,-0.46475 -0.46186,-0.18752 -2.2376,-0.61967 -1.59098,-0.38319 -2.33,-0.83164 -0.73904,-0.44845 -1.18041,-1.1741 -0.43108,-0.73383 -0.43108,-1.57362 0,-0.97842 0.55427,-1.76115 0.56454,-0.78275 1.54989,-1.18226 0.98539,-0.39953 2.43266,-0.39953 2.17603,0 3.39748,0.93767 1.22147,0.93764 1.2933,2.68249 l -2.49421,0.10603 q -0.1642,-0.9621 -0.70824,-1.34531 -0.54401,-0.38324 -1.54992,-0.38324 -1.00591,0 -1.5499,0.33432 -0.54402,0.33428 -0.54402,0.83166 0,0.48921 0.49269,0.8235 0.49269,0.33432 2.26841,0.7338 1.87836,0.43216 2.70978,0.91321 0.84167,0.4729 1.28304,1.23117 0.44136,0.75012 0.44136,1.82639 0,1.55731 -1.21118,2.61725 -1.20093,1.05995 -3.767,1.05995 -4.53683,0 -5.05004,-4.10121 z"
             id="path20783" />
          <path
             style="font-weight:bold;font-stretch:condensed;font-size:5.22315px;line-height:10;font-family:Arial;-inkscape-font-specification:'Arial Bold Condensed';text-align:center;letter-spacing:3.91736px;word-spacing:0px;text-anchor:middle;fill:#96ca4f;stroke-width:1.39672"
             d="m 140.41343,120.98737 h 2.48396 v 6.47387 q 0,1.50838 0.0924,1.96497 0.16419,0.79089 0.7801,1.22303 0.62612,0.43213 1.64227,0.43213 0.86221,0 1.40622,-0.30167 0.54401,-0.30981 0.73903,-0.84796 0.20528,-0.54627 0.20528,-2.33189 v -6.61248 h 2.49424 v 6.27818 q 0,2.40529 -0.32846,3.48152 -0.3182,1.06811 -1.45754,1.7367 -1.12909,0.66044 -2.9869,0.66044 -1.92971,0 -3.0177,-0.5463 -1.07776,-0.55441 -1.57046,-1.54917 -0.48243,-1.00287 -0.48243,-3.68536 z"
             id="path20781" />
          <path
             style="font-weight:bold;font-stretch:condensed;font-size:5.22315px;line-height:10;font-family:Arial;-inkscape-font-specification:'Arial Bold Condensed';text-align:center;letter-spacing:3.91736px;word-spacing:0px;text-anchor:middle;fill:#96ca4f;stroke-width:1.39672"
             d="m 155.79882,133.14421 v -11.95299 h 3.72594 l 2.23761,8.15347 2.2171,-8.15347 h 3.73621 v 11.95299 h -2.30947 v -9.4091 l -2.45317,9.4091 h -2.40187 l -2.43263,-9.4091 v 9.4091 z"
             id="path20779" />
          <path
             style="font-weight:bold;font-stretch:condensed;font-size:5.22315px;line-height:10;font-family:Arial;-inkscape-font-specification:'Arial Bold Condensed';text-align:center;letter-spacing:3.91736px;word-spacing:0px;text-anchor:middle;fill:#96ca4f;stroke-width:1.39672"
             d="m 173.25758,133.14421 v -11.95299 h 3.72595 l 2.23761,8.15347 2.2171,-8.15347 h 3.7362 v 11.95299 h -2.30947 v -9.4091 l -2.45316,9.4091 h -2.40186 l -2.43265,-9.4091 v 9.4091 z"
             id="path20777" />
          <path
             style="font-weight:bold;font-stretch:condensed;font-size:5.22315px;line-height:10;font-family:Arial;-inkscape-font-specification:'Arial Bold Condensed';text-align:center;letter-spacing:3.91736px;word-spacing:0px;text-anchor:middle;fill:#96ca4f;stroke-width:1.39672"
             d="m 190.71633,133.14421 v -11.95299 h 2.48396 v 11.95299 z"
             id="path20775" />
          <path
             style="font-weight:bold;font-stretch:condensed;font-size:5.22315px;line-height:10;font-family:Arial;-inkscape-font-specification:'Arial Bold Condensed';text-align:center;letter-spacing:3.91736px;word-spacing:0px;text-anchor:middle;fill:#96ca4f;stroke-width:1.39672"
             d="m 202.40656,133.14421 v -9.93094 h -3.66438 v -2.02205 h 9.80242 v 2.02205 h -3.6541 v 9.93094 z"
             id="path20771" />
        </g>
        <g
           id="g208"
           transform="translate(-92.007478,-44.68935)">
          <path
             d="m 166.0461,175.19597 2.34563,-0.34684 q 0.30462,1.34702 1.88868,1.34702 0.8428,0 1.25912,-0.25811 0.41632,-0.25811 0.41632,-0.66947 0,-0.28232 -0.18277,-0.44364 -0.19293,-0.16132 -0.76157,-0.2823 -2.88379,-0.60495 -3.66567,-1.15344 -0.9748,-0.68562 -0.9748,-1.87938 0,-1.19379 0.9545,-1.91166 0.95449,-0.71787 2.77209,-0.71787 1.73637,0 2.6401,0.54042 0.90372,0.53236 1.26928,1.72613 l -2.20347,0.39523 q -0.29447,-1.03246 -1.66529,-1.03246 -0.86311,0 -1.22866,0.20166 -0.36555,0.1936 -0.36555,0.50816 0,0.28231 0.33509,0.46783 0.33509,0.19358 2.08161,0.58076 1.95976,0.43556 2.6604,1.05665 0.69049,0.62108 0.69049,1.65352 0,1.24217 -1.07635,2.04878 -1.06619,0.8066 -2.95487,0.8066 -1.71606,0 -2.80256,-0.66948 -1.0865,-0.67754 -1.43175,-1.96811 z"
             style="font-weight:bold;font-stretch:condensed;font-size:16.2278px;line-height:10;font-family:Arial;-inkscape-font-specification:'Arial Bold Condensed';text-align:center;letter-spacing:3.91736px;word-spacing:0px;text-anchor:middle;fill:#96ca4f;stroke-width:0.444728"
             id="path21173" />
          <path
             d="m 182.64348,174.91366 2.32532,0.37911 q -0.4671,1.29056 -1.45205,1.9197 -0.98497,0.62109 -2.3964,0.62109 -1.95976,0 -3.02596,-1.04051 -1.25911,-1.20991 -1.25911,-3.38774 0,-2.14555 1.26927,-3.43613 1.07635,-1.0889 2.78225,-1.0889 1.89884,0 2.97519,1.11311 1.23881,1.27443 1.23881,3.75877 l -0.0103,0.2581 h -5.85898 q 0.0203,1.01632 0.56863,1.57288 0.55849,0.55655 1.34036,0.55655 1.12712,0 1.50283,-1.22603 z m 0.13201,-2.29075 q -0.0305,-1.00019 -0.53818,-1.50028 -0.50771,-0.50817 -1.20835,-0.50817 -0.74125,0 -1.24896,0.5243 -0.51787,0.53236 -0.50772,1.48415 z"
             style="font-weight:bold;font-stretch:condensed;font-size:16.2278px;line-height:10;font-family:Arial;-inkscape-font-specification:'Arial Bold Condensed';text-align:center;letter-spacing:3.91736px;word-spacing:0px;text-anchor:middle;fill:#96ca4f;stroke-width:0.444728"
             id="path21170" />
          <path
             d="m 187.62445,177.83356 v -11.72799 h 2.45731 v 9.73568 h 6.13315 v 1.99231 z"
             style="font-weight:bold;font-stretch:condensed;font-size:16.2278px;line-height:10;font-family:Arial;-inkscape-font-specification:'Arial Bold Condensed';text-align:center;letter-spacing:3.91736px;word-spacing:0px;text-anchor:middle;fill:#96ca4f;stroke-width:0.444728"
             id="path21167" />
          <path
             d="m 203.73443,177.83356 v -2.37948 h -4.99587 v -1.98424 l 5.29033,-7.50946 h 1.96993 v 7.5014 h 1.51296 v 1.9923 h -1.51296 v 2.37948 z m 0,-4.37178 v -4.04108 l -2.80256,4.04108 z"
             style="font-weight:bold;font-stretch:condensed;font-size:16.2278px;line-height:10;font-family:Arial;-inkscape-font-specification:'Arial Bold Condensed';text-align:center;letter-spacing:3.91736px;word-spacing:0px;text-anchor:middle;fill:#96ca4f;stroke-width:0.444728"
             id="path21164" />
        </g>
      </g>
      <path
         style="fill:#9ac162;fill-opacity:1;stroke-width:0.999994"
         d="m 98.793191,176.09269 c -0.219384,-0.17619 -0.264902,-1.49934 -0.386132,-11.22454 -0.257089,-20.62419 -0.218339,-21.62458 1.287762,-33.24356 0.296835,-2.29001 0.642859,-5.35645 0.768929,-6.81434 0.23791,-2.75117 0.3877,-3.32235 0.87133,-3.32235 0.74303,0 0.80599,0.29185 1.37908,6.39123 0.38058,4.05036 0.59869,4.02063 0.69612,-0.0949 l 0.0791,-3.34042 0.83042,-0.1423 0.83042,-0.14232 10e-4,-4.49132 0.001,-4.4913 2.61016,-13.98074 c 2.64128,-14.147465 2.69508,-14.380195 3.32472,-14.380195 0.58896,0 0.6861,0.50907 2.75707,14.449125 l 2.06153,13.87648 v 4.53143 4.53147 h 5.5361 5.53609 v -7.41026 c 0,-6.22543 -0.0379,-7.50196 -0.23726,-7.98385 -0.42364,-1.02419 -0.31167,-1.65575 0.55681,-3.14074 0.94311,-1.61257 1.2407,-2.51171 1.40645,-4.2492 0.14304,-1.499415 0.21451,-1.662285 0.72947,-1.662285 0.51349,0 0.67315,0.363065 0.85314,1.939895 0.18822,1.64901 0.4779,2.49112 1.2902,3.75053 0.95015,1.47316 1.00577,1.79933 0.60496,3.54816 -0.49305,2.15134 -0.24445,2.18606 0.94419,0.13184 0.53342,-0.9219 0.96987,-1.75367 0.96987,-1.84837 0,-0.0947 -0.17285,-0.17218 -0.38414,-0.17218 -0.85274,0 -1.0712,-0.73391 -0.64748,-2.17519 0.36177,-1.23056 1.11566,-2.22727 2.47575,-3.27313 l 1.24483,-0.95723 v -2.397145 -2.39715 l -0.43498,-0.40771 c -0.37551,-0.35199 -0.43226,-0.52288 -0.4151,-1.25006 0.0292,-1.23723 0.61177,-2.83445 1.37826,-3.77878 0.36196,-0.44596 0.80048,-0.98906 0.97447,-1.20688 0.28894,-0.36171 0.31628,-0.6338 0.31548,-3.14003 -5.9e-4,-2.30696 -0.0448,-2.82545 -0.2768,-3.25535 -0.49088,-0.90969 -0.36441,-1.63019 0.61802,-3.52057 1.01285,-1.94898 1.31591,-2.92005 1.31861,-4.22527 9.3e-4,-0.60975 0.0834,-0.98968 0.25043,-1.15841 0.65551,-0.66215 1.08876,-0.0398 1.31764,1.89281 0.1701,1.43632 0.44501,2.16631 1.59283,4.22946 0.54915,0.98708 0.62572,1.95427 0.24172,3.05366 -0.1746,0.49988 -0.23726,1.38433 -0.23726,3.34873 v 2.66942 l 0.6261,0.50826 c 0.93096,0.75574 1.92186,2.85813 2.02069,4.28738 0.0702,1.0164 0.0476,1.1159 -0.33666,1.47717 -0.41006,0.38549 -0.41204,0.39935 -0.41204,2.88889 v 2.501545 l 0.69656,0.50531 c 1.76077,1.27732 2.95362,2.96002 3.16642,4.46673 0.0832,0.58926 0.0416,0.73923 -0.30146,1.08577 -0.21892,0.22115 -0.39977,0.48869 -0.40189,0.59454 -0.006,0.27998 1.32666,3.13283 1.46696,3.14126 0.23698,0.0142 0.11077,-1.27938 -0.20335,-2.08441 -0.3912,-1.00258 -0.32048,-1.29758 0.83269,-3.47366 0.87815,-1.65709 1.22452,-2.7612 1.22733,-3.91226 0.002,-0.97409 0.21786,-1.387575 0.72314,-1.387575 0.49401,0 0.61979,0.315985 0.83579,2.099795 0.18272,1.50894 0.49601,2.44947 1.13675,3.41261 1.01882,1.53145 1.24388,2.70597 0.71607,3.73699 -0.21262,0.41533 -0.2464,1.49014 -0.2464,7.83912 v 7.35782 h 8.38324 8.38322 l -0.002,-5.95181 -0.002,-5.9518 1.67475,-11.26448 c 0.92112,-6.195465 1.73936,-11.426265 1.81832,-11.623985 0.16691,-0.41796 0.79611,-0.48897 1.09621,-0.1237 0.10753,0.13088 0.32272,1.50768 0.48361,3.09407 0.15944,1.57204 0.68196,5.61822 1.16116,8.991485 1.27645,8.98531 1.36371,10.06807 1.36371,16.91982 v 5.9104 h 22.15157 22.15156 l 0.38844,0.39237 c 0.46808,0.47286 1.79967,3.24841 5.86069,12.2161 l 3.06877,6.77652 v 16.19527 16.19526 l -0.37543,0.1728 c -0.27254,0.12542 -0.46763,0.12295 -0.71179,-0.01 l -0.33636,-0.18183 v -15.81259 -15.81257 h -6.7224 -6.7224 v 15.71875 c 0,14.42658 -0.0215,15.73677 -0.26157,15.93804 -0.35775,0.29992 -2.59893,0.29992 -2.95668,0 -0.24007,-0.20127 -0.26158,-1.51146 -0.26158,-15.93804 v -15.71875 h -5.53609 -5.53609 v 15.71875 c 0,13.59885 -0.0312,15.7449 -0.23136,15.9127 -0.34437,0.28871 -2.0021,0.39569 -2.6718,0.17242 l -0.57667,-0.19225 v -15.80786 -15.80786 l -5.57564,0.0419 -5.57563,0.042 -0.0403,15.76289 -0.0403,15.7629 -0.49735,0.17515 c -0.63661,0.22416 -1.68728,0.22416 -2.32387,0 l -0.49736,-0.17515 -0.0403,-15.7629 -0.0403,-15.76289 h -4.58704 -4.58706 l -0.0403,15.78251 -0.0403,15.78251 -0.40502,0.15555 c -0.26843,0.10304 -0.50795,0.0999 -0.71023,-0.01 -0.29793,-0.16106 -0.30619,-0.54206 -0.34554,-15.93808 l -0.0403,-15.77305 h -9.80676 -9.80678 l -0.0791,15.80212 c -0.078,15.57926 -0.0835,15.80367 -0.3929,15.91331 -0.25349,0.0898 -0.70165,0.0613 -0.90971,-0.0577 -0.0205,-0.0121 -0.0738,-5.91718 -0.11868,-13.12326 l -0.0815,-13.10194 -12.3202,-0.0409 c -8.9704,-0.0298 -12.37867,0.008 -12.53529,0.1394 -0.17812,0.14933 -0.2151,2.41536 -0.2151,13.18282 0,12.26716 -0.0157,13.00393 -0.2768,13.02781 -0.52863,0.0484 -0.89636,-0.0343 -1.0188,-0.22899 -0.0677,-0.10765 -0.12422,-3.91666 -0.12555,-8.46439 l -0.002,-8.2686 h -4.58704 -4.58705 v 8.39359 8.3936 l -0.3559,0.13384 c -0.19574,0.0736 -0.49824,0.081 -0.67223,0.0165 -0.31405,-0.1165 -0.31693,-0.29962 -0.39544,-25.1845 l -0.0791,-25.06713 -5.7338,-0.0419 -5.73381,-0.042 v 24.97559 c 0,19.21242 -0.0438,25.01983 -0.18982,25.16731 -0.1044,0.10547 -0.42469,0.19174 -0.71178,0.19174 h -0.52293 v -15.71875 c 0,-13.26535 -0.0346,-15.74768 -0.22106,-15.90408 -0.14372,-0.1205 -0.76625,-0.16925 -1.77945,-0.13939 l -1.558401,0.0459 -0.03936,15.73832 c -0.03648,14.57126 -0.05916,15.75312 -0.307036,15.93803 -0.147211,0.10983 -0.311632,0.19973 -0.36537,0.19973 -0.05376,0 -0.209627,-0.0898 -0.34641,-0.19973 z m 88.607549,-16.49727 c 0,-13.31499 -0.0281,-15.0992 -0.23727,-15.0992 -0.20922,0 -0.23725,1.78421 -0.23725,15.0992 0,13.31498 0.0281,15.09919 0.23725,15.09919 0.20923,0 0.23727,-1.78421 0.23727,-15.09919 z m 14.67146,0.0421 c -0.038,-14.19444 -0.0562,-15.06015 -0.31717,-15.11092 -0.26204,-0.0509 -0.27679,0.75175 -0.27679,15.05708 0,15.0172 0.002,15.1109 0.31715,15.1109 0.31546,0 0.31694,-0.0801 0.27681,-15.05706 z m 14.59075,-0.054 c 0,-14.30533 -0.0148,-15.10803 -0.27681,-15.05706 -0.26094,0.0508 -0.27912,0.91647 -0.31717,15.11091 -0.0401,14.97687 -0.0388,15.05706 0.27681,15.05706 0.3152,0 0.31717,-0.0937 0.31717,-15.11091 z m -90.70063,-2.42492 c -0.69593,-1.31146 -3.20133,-5.37458 -3.3436,-5.42248 -0.0914,-0.0308 -0.83195,1.11371 -1.64535,2.54342 -0.8134,1.4297 -1.5827,2.76121 -1.70956,2.95894 l -0.23066,0.35952 h 3.58116 3.58118 z m -3.54086,-7.93132 c 0.42617,-0.26135 0.7903,0.19699 2.67991,3.37331 0.95549,1.60614 1.76867,2.92026 1.80706,2.92026 0.0384,0 0.0698,-2.51763 0.0698,-5.59475 v -5.59474 l -4.5475,0.0424 -4.54751,0.0424 -0.0416,5.75131 c -0.0228,3.16321 -0.002,5.85415 0.0452,5.97986 0.0517,0.13617 0.93182,-1.18331 2.17692,-3.2637 1.14957,-1.92074 2.21051,-3.5661 2.35765,-3.65635 z m 31.13001,-18.15273 v -17.25617 h -12.57484 -12.57484 v 17.25622 17.25622 h 12.57484 12.57484 z m -16.2046,11.38473 c -0.77844,-0.0295 -1.49721,-0.12237 -1.59729,-0.20627 -0.25826,-0.21652 -0.46133,-10.84824 -0.23724,-12.42149 0.18398,-1.29173 0.76644,-2.60278 1.82581,-4.1096 0.78025,-1.10979 3.44033,-3.75483 3.7762,-3.75483 0.84443,0 3.85702,3.57112 4.75235,5.6334 0.75949,1.74944 0.84008,2.84366 0.76466,10.38454 -0.0371,3.71245 -0.0589,3.97412 -0.35589,4.27412 -0.29986,0.3029 -0.50387,0.31784 -3.91481,0.28669 -1.97915,-0.0181 -4.23536,-0.057 -5.01379,-0.0866 z m 7.81764,-7.19051 c -0.004,-5.57079 -0.0127,-5.73396 -0.36325,-6.59473 -0.19772,-0.48544 -0.64091,-1.31089 -0.98483,-1.83434 -0.74226,-1.12966 -2.39759,-2.95524 -2.67966,-2.95524 -0.2506,0 -2.24169,2.10698 -2.88053,3.0482 -0.26379,0.38865 -0.66713,1.08172 -0.89633,1.54016 l -0.41671,0.83353 v 5.83728 5.83728 h 4.11252 4.11253 z m -4.94346,-1.49277 c -1.34352,-0.31869 -2.17064,-1.47948 -2.17064,-3.04627 0,-2.15115 1.63636,-3.41778 3.78993,-2.93361 1.31856,0.29643 2.11454,1.45307 2.11906,3.0792 0.002,0.85061 -0.0662,1.09781 -0.46185,1.66346 -0.73441,1.05013 -2.01954,1.5354 -3.2765,1.23722 z m 1.98143,-1.92042 c 0.63451,-0.68041 0.59792,-1.44724 -0.10284,-2.15508 -0.40781,-0.41193 -0.67231,-0.54326 -1.09429,-0.54326 -0.78617,0 -1.00477,0.11674 -1.38654,0.74077 -0.5655,0.92429 -0.14048,1.9979 0.96244,2.43117 0.56838,0.22329 1.12221,0.0615 1.6212,-0.4736 z m -11.95035,-11.12214 c -0.63608,-0.0967 -0.77535,-0.62873 -0.7155,-2.7335 l 0.0515,-1.81016 0.5804,-0.53693 c 0.96777,-0.8953 2.46653,-0.93822 3.30171,-0.0946 0.39248,0.39647 0.44493,0.58832 0.55082,2.0152 0.151,2.03445 -0.0179,2.98323 -0.55767,3.13335 -0.42762,0.11892 -2.49132,0.13602 -3.21124,0.0265 z m 2.26219,-2.82993 c 0,-1.22298 -0.0302,-1.35705 -0.328,-1.45252 -0.18041,-0.0578 -0.5363,-0.0181 -0.79088,0.0885 -0.4563,0.19092 -0.46286,0.21148 -0.46286,1.45252 v 1.25887 h 0.79087 0.79087 z m 3.95435,2.82999 c -0.21748,-0.0395 -0.46172,-0.13612 -0.54275,-0.21493 -0.24548,-0.23874 -0.37845,-1.98567 -0.24477,-3.21578 0.11376,-1.04649 0.17969,-1.20851 0.68122,-1.6728 0.93845,-0.86875 2.45043,-0.9063 3.26729,-0.0811 0.38715,0.39108 0.43256,0.56895 0.51715,2.02544 0.1273,2.1918 -0.004,2.98826 -0.51465,3.13162 -0.43593,0.12227 -2.53973,0.14064 -3.16349,0.0276 z m 2.21444,-2.82999 c 0,-1.22298 -0.0302,-1.35705 -0.32801,-1.45252 -0.18041,-0.0578 -0.5363,-0.0181 -0.79087,0.0885 -0.45631,0.19092 -0.46286,0.21148 -0.46286,1.45252 v 1.25887 h 0.79088 0.79086 z m 3.83538,2.8409 c -0.59146,-0.12921 -0.7441,-0.63962 -0.73339,-2.45221 0.007,-1.22596 0.0796,-1.8131 0.26865,-2.1806 0.30499,-0.59284 1.38327,-1.17488 2.17586,-1.17452 0.71438,3.1e-4 1.59654,0.45892 1.84361,0.95842 0.23378,0.47263 0.27572,4.26889 0.0511,4.62759 -0.10957,0.17505 -0.53541,0.24186 -1.69794,0.26639 -0.85342,0.0181 -1.71197,-0.002 -1.9079,-0.0451 z m 2.33341,-2.83434 c 0,-1.28672 -0.0155,-1.34474 -0.38445,-1.43828 -0.21146,-0.0536 -0.56735,-0.0273 -0.79088,0.0587 -0.38983,0.14972 -0.40641,0.20839 -0.40641,1.43829 v 1.28219 h 0.79088 0.79086 z m 3.84722,2.83445 c -0.65523,-0.14231 -0.76312,-0.47782 -0.75789,-2.35704 0.006,-2.13148 0.21948,-2.67604 1.2314,-3.14014 0.82947,-0.3804 1.6097,-0.39072 2.32038,-0.0307 0.82523,0.41809 0.94627,0.81301 0.94891,3.09589 0.002,1.68251 -0.041,2.05405 -0.25886,2.23691 -0.2606,0.21879 -2.73643,0.35736 -3.48394,0.19501 z m 2.32157,-2.76626 c 0,-1.10469 -0.0413,-1.29494 -0.31311,-1.44188 -0.40389,-0.21836 -1.07564,-0.0465 -1.2728,0.32568 -0.0847,0.15986 -0.154,0.76276 -0.154,1.33975 v 1.04908 h 0.86996 0.86995 z m -48.16925,24.48067 c -0.042,-0.24168 -0.36372,-3.02784 -0.71485,-6.19147 -0.35114,-3.16366 -0.66209,-5.82398 -0.691,-5.91186 -0.0289,-0.0879 -0.0965,0.02 -0.15009,0.23966 -0.11317,0.4637 -1.20687,11.21749 -1.20687,11.86696 v 0.4361 h 1.41962 1.41961 z m 24.12679,-8.10884 v -8.54823 h -4.58705 -4.58705 v 8.54823 8.54823 h 4.58705 4.58705 z m 47.76754,1.71763 c -9.4e-4,-6.23162 -0.0253,-6.86642 -0.27681,-7.23929 -0.15168,-0.22478 -0.76757,-0.99772 -1.36867,-1.71764 l -1.09291,-1.30893 h -8.51617 -8.51617 v 8.44171 c 0,4.64294 0.0474,8.48964 0.10548,8.54823 0.058,0.0585 4.50665,0.10655 9.88588,0.10655 h 9.78045 z m 10.82145,6.55098 c 0.0473,-0.15379 0.19816,-1.48134 0.33538,-2.95011 0.34005,-3.63988 0.63334,-4.52671 1.39891,-4.22996 0.41466,0.16074 0.52625,0.63202 0.98122,4.14426 l 0.42949,3.31543 h 5.65361 5.65362 l 0.0901,-0.51929 c 0.0496,-0.28561 0.27844,-1.88541 0.50865,-3.55511 0.41643,-3.02038 0.55124,-3.43525 1.11625,-3.43525 0.59776,0 0.83163,0.90874 1.30308,5.06353 l 0.26849,2.36623 h 5.68549 5.68547 l 0.50517,-3.57731 c 0.49121,-3.47859 0.59668,-3.84323 1.11363,-3.85001 0.59246,-0.007 0.83362,0.8024 1.2358,4.15183 0.1319,1.09849 0.27949,2.30282 0.32799,2.67631 l 0.0882,0.67907 h 6.55455 c 3.60499,0 6.55452,-0.0287 6.55452,-0.0638 0,-0.0351 -1.80438,-3.86382 -4.00973,-8.50828 l -4.00974,-8.44448 -21.96112,-0.0405 -21.96112,-0.0405 -0.45876,0.43996 c -0.25233,0.24196 -0.91488,1.02814 -1.47235,1.74702 l -1.01359,1.30708 v 6.80176 6.80175 h 4.65547 c 4.29563,0 4.66212,-0.0216 4.74137,-0.27962 z m -8.78083,-16.46319 1.12788,-1.32405 -0.0415,-5.70628 -0.0415,-5.70624 -2.33306,-0.0443 -2.33308,-0.0443 v 5.82541 5.82539 l 1.06768,1.2812 c 0.58722,0.70466 1.14825,1.26677 1.24674,1.24913 0.0985,-0.0177 0.68658,-0.62789 1.30691,-1.35612 z m -2.51411,-4.29517 c -0.13048,-0.0555 -0.28465,-0.17445 -0.34258,-0.26433 -0.20717,-0.32149 -0.31816,-2.34936 -0.20423,-3.73111 0.10753,-1.30307 0.15388,-1.44463 0.63192,-1.92754 0.54848,-0.55403 0.96539,-0.63593 1.77895,-0.34944 0.93667,0.32983 1.06274,0.74244 1.05723,3.46024 -0.004,1.63375 -0.0655,2.49485 -0.1893,2.61987 -0.20152,0.20359 -2.34988,0.35483 -2.73199,0.19231 z m 1.42358,-3.24355 c 0,-1.49219 -0.0353,-1.73889 -0.23728,-1.6606 -0.18983,0.0736 -0.23725,0.42389 -0.23725,1.75257 0,1.36957 0.0415,1.66059 0.23725,1.66059 0.19649,0 0.23728,-0.30125 0.23728,-1.75256 z m -61.21338,1.37021 c 0,-3.69803 -0.0308,-4.22901 -0.25019,-4.31406 -0.43813,-0.16984 -7.02525,-0.1085 -7.35257,0.0684 -0.29042,0.15699 -0.30594,0.37594 -0.30594,4.31405 v 4.14866 h 3.95435 3.95435 z m -5.49182,2.62453 c -0.44521,-0.1917 -0.59922,-0.75352 -0.59273,-2.16229 0.006,-1.51012 0.1329,-1.89568 0.89032,-2.72569 0.75937,-0.83221 1.35226,-0.92702 2.18899,-0.35006 0.93486,0.64459 1.129,1.23361 1.0753,3.26259 -0.026,0.98156 -0.0828,1.81904 -0.12632,1.86105 -0.16634,0.1607 -3.10107,0.25841 -3.43556,0.11444 z m 2.19316,-1.80279 c 0.0802,-1.25481 -0.17158,-2.0372 -0.65569,-2.0372 -0.35568,0 -0.54853,0.32136 -0.69943,1.16541 -0.17171,0.96041 -0.0155,1.2313 0.71008,1.2313 0.53282,0 0.62534,-0.0515 0.64504,-0.35951 z m 3.03092,-7.03031 c -0.0361,-0.19772 -0.79584,-5.03008 -1.68827,-10.73856 -0.89241,-5.708475 -1.6731,-10.296455 -1.73487,-10.195495 -0.0618,0.10098 -0.96469,4.8075 -2.00648,10.458945 -1.0418,5.65147 -1.92328,10.40122 -1.95886,10.55499 -0.0602,0.2603 0.19512,0.27962 3.69474,0.27962 h 3.75943 z m 16.37021,-2.31681 0.0478,-0.83885 h -1.11547 -1.11549 v 0.77228 c 0,0.42475 0.0504,0.82323 0.11209,0.88554 0.0617,0.0623 0.54213,0.0923 1.06767,0.0667 l 0.95554,-0.0467 z m 18.37948,0.80762 c 0,-0.15418 -2.08066,-4.71591 -2.26315,-4.9619 -0.11329,-0.15269 -1.37426,-0.19972 -5.35613,-0.19972 h -5.20793 l -0.34833,0.38133 c -0.29662,0.32471 -2.64186,4.60074 -2.64186,4.81683 0,0.041 3.5589,0.0745 7.90869,0.0745 4.34979,0 7.90871,-0.0501 7.90871,-0.11116 z m 4.58704,-0.76767 v -0.8788 h -1.02813 -1.02814 v 0.77228 c 0,0.42474 0.0474,0.82019 0.10549,0.87878 0.058,0.0586 0.52066,0.10655 1.02813,0.10655 h 0.92268 z m 24.20064,0.31823 c 0,-0.19351 -1.74547,-14.590715 -1.82756,-15.074255 -0.05,-0.29458 -0.12968,-0.49646 -0.17706,-0.44861 -0.12513,0.12641 -2.40373,15.341885 -2.31885,15.484255 0.0785,0.13169 4.32347,0.16961 4.32347,0.0386 z m -47.46152,-2.86974 c 0.55166,-0.28818 0.85011,-1.04971 0.63519,-1.62073 -0.084,-0.22306 -0.35614,-0.70569 -0.60485,-1.07253 -0.24873,-0.36685 -0.5036,-0.83271 -0.56641,-1.03528 -0.17331,-0.55908 -0.41903,-0.35886 -1.15344,0.93987 -0.89242,1.57817 -0.87265,2.25136 0.0816,2.77441 0.55404,0.30372 1.04553,0.30808 1.60801,0.0142 z m 23.24875,-0.17885 c 0.6736,-0.57254 0.63992,-1.14462 -0.14603,-2.48102 -0.348,-0.59169 -0.6327,-1.1531 -0.6327,-1.24759 0,-0.35439 -0.32509,-0.15147 -0.68821,0.42962 -0.67693,1.08319 -1.15449,2.1887 -1.08613,2.5143 0.23122,1.10147 1.66276,1.54145 2.55307,0.78469 z m -5.99848,-3.38978 c 0,-0.41681 -0.8072,-1.63966 -1.43651,-2.17621 -1.1391,-0.97118 -1.48992,-1.04331 -5.09325,-1.04715 -2.46942,-0.002 -3.41931,0.0523 -3.81826,0.22063 -1.01663,0.42908 -2.78043,2.32926 -2.78043,2.99543 0,0.28284 0.28291,0.29558 6.56422,0.29558 6.22134,0 6.56423,-0.015 6.56423,-0.28828 z m -3.638,-7.301265 v -2.63637 h -2.84714 -2.84714 v 2.63637 2.636375 h 2.84714 2.84714 z m 0.70448,-4.5873 c -0.46464,-2.137 -1.90318,-3.54006 -3.63071,-3.5412 -0.43497,-2.6e-4 -1.01465,0.1188 -1.28814,0.26456 -1.0683,0.56943 -1.94534,1.84768 -2.19682,3.2018 l -0.10921,0.58775 h 3.66818 3.66817 z m -2.52348,-7.07664 v -1.75757 l -1.06768,-0.0473 -1.06768,-0.0473 v 1.85206 1.85207 l 1.06768,-0.0473 1.06768,-0.0473 z m -0.3455,-3.46135 c 0.94127,-0.50642 0.95926,-1.23603 0.0686,-2.78691 -0.36972,-0.64387 -0.71908,-1.1731 -0.77635,-1.17608 -0.0572,-0.002 -0.43096,0.51061 -0.83041,1.14132 -0.89355,1.41082 -0.94729,1.99239 -0.23964,2.59389 0.5254,0.44657 1.20837,0.53409 1.77772,0.22778 z m -9.89086,93.149905 c -0.24788,-0.19348 -0.27339,-0.77904 -0.2945,-6.76279 -0.0166,-4.66839 0.0316,-6.75761 0.16725,-7.26998 0.56136,-2.1202 2.37985,-4.28811 4.51116,-5.378 1.9153,-0.97942 3.00715,-1.24124 5.14067,-1.23268 1.60802,0.006 1.97966,0.0638 3.20424,0.49423 3.0846,1.08428 5.14814,3.33327 5.83205,6.35611 0.16906,0.74727 0.20596,2.35045 0.16737,7.26999 -0.0272,3.47122 -0.0984,6.35721 -0.15817,6.41332 -0.0598,0.0561 -4.20141,0.15143 -9.20367,0.21182 -7.43793,0.0897 -9.14446,0.0712 -9.3664,-0.10207 z m 3.67214,-7.15183 c 0,-3.68994 0.0605,-5.90241 0.16918,-6.19148 0.30216,-0.80337 1.36677,-2.06572 2.23061,-2.64493 1.32982,-0.89164 2.73506,-1.55968 3.28079,-1.55968 0.99926,0 3.28675,1.48991 4.27587,2.78499 1.13588,1.48726 1.11572,1.34862 1.11572,7.67545 v 5.67731 h 1.27072 1.2707 l -0.0448,-6.19147 -0.0448,-6.19147 -0.57405,-1.21423 c -1.26363,-2.67286 -3.79922,-4.1384 -7.16007,-4.1384 -3.70832,0 -6.57243,1.69814 -8.04229,4.76827 -0.34766,0.72615 -0.35741,0.89194 -0.4034,6.85572 l -0.0472,6.11158 h 1.35152 1.35152 z m 9.64861,0.21346 c 0,-6.21176 0.0136,-6.12792 -1.1857,-7.34099 -0.78874,-0.79783 -2.26877,-1.67078 -2.83271,-1.67078 -0.71046,0 -1.99106,0.77829 -3.12553,1.89955 l -1.08111,1.06855 v 5.78595 5.78592 h 4.11252 4.11253 z m -25.37095,4.59566 c -0.045,-0.0736 -0.10261,-2.14066 -0.12797,-4.59367 -0.0402,-3.88397 -0.01,-4.59348 0.23613,-5.49329 0.49421,-1.8088 2.09188,-3.82113 2.85069,-3.5906 0.90734,0.27569 2.15737,2.17081 2.73376,4.14452 0.23424,0.80216 0.28175,1.62645 0.29099,5.0484 0.008,3.24415 -0.0338,4.14436 -0.20606,4.35399 -0.18666,0.22725 -0.60102,0.2643 -2.95644,0.2643 -1.50663,0 -2.77612,-0.0601 -2.8211,-0.13365 z m 4.46032,-5.13909 c 0.0287,-2.27245 -0.0174,-3.98045 -0.11677,-4.32633 -0.25456,-0.88603 -1.38026,-2.55473 -1.65229,-2.44929 -0.12632,0.049 -0.4846,0.61023 -0.79621,1.24727 l -0.56655,1.15824 v 4.1082 4.1082 l 1.5422,-0.0457 1.54219,-0.0457 z m 33.80923,5.07301 c -0.17439,-0.56407 -0.24754,-7.9693 -0.0887,-8.97405 0.3003,-1.89884 1.56426,-4.22565 2.48824,-4.58051 0.8292,-0.31846 1.83871,0.69431 2.83708,2.84618 0.49873,1.07499 0.547,1.32486 0.6944,3.59506 0.16035,2.46966 0.0596,6.29429 -0.1831,6.95353 -0.13039,0.3541 -0.1742,0.35952 -2.90931,0.35952 -2.08317,0 -2.79235,-0.0499 -2.83867,-0.19973 z m 4.50054,-4.89641 c 0,-3.18967 -0.04,-3.78814 -0.31165,-4.67355 -0.31478,-1.02561 -1.11947,-2.2138 -1.49926,-2.2138 -0.11341,0 -0.46409,0.49584 -0.77936,1.10188 l -0.5732,1.10187 v 4.17086 4.17086 h 1.58175 1.58172 z m 3.51471,4.81652 c -0.0739,-0.1538 -0.12617,-2.29285 -0.11605,-4.75345 0.0197,-4.79716 0.0455,-4.98519 0.92176,-6.73207 0.42567,-0.84855 1.56454,-2.13639 1.88776,-2.13466 0.67164,0.004 1.7716,1.27552 2.62148,3.03133 l 0.58172,1.20178 v 4.67921 c 0,3.98535 -0.0353,4.70169 -0.23725,4.83089 -0.13051,0.0834 -1.42701,0.15279 -2.88112,0.15414 -2.36273,0.002 -2.65814,-0.0273 -2.77829,-0.27717 z m 4.394,-5.27044 c 0,-4.08965 -0.002,-4.1164 -0.4027,-4.91324 -0.22149,-0.44065 -0.53881,-0.98094 -0.70515,-1.20064 -0.41176,-0.54387 -0.71951,-0.33395 -1.42293,0.97056 l -0.55362,1.02669 -0.0499,3.89202 c -0.0275,2.14062 -0.012,3.99207 0.0347,4.11434 0.064,0.16838 0.45022,0.22231 1.59206,0.22231 h 1.50763 z m -12.0337,-10.78744 c -0.28235,-1.0486 -0.0992,-7.00675 0.24529,-7.98013 0.52595,-1.48611 2.17684,-2.90809 4.07772,-3.51237 2.74719,-0.8733 6.41345,0.0841 7.68471,2.0066 0.87287,1.32008 0.88255,1.37504 0.94366,5.35635 0.0316,2.05677 0.0127,3.98013 -0.0419,4.27411 l -0.0993,0.5345 h -6.3137 -6.3137 z m 11.40101,-4.14024 c 0,-3.46628 -0.008,-3.55511 -0.38621,-4.20675 -1.42087,-2.44918 -6.20887,-2.69216 -8.52302,-0.43255 -0.99188,0.96853 -1.05574,1.26634 -1.05574,4.9244 v 3.25596 h 4.98248 4.98249 z m -61.12298,-11.8891 c -0.2181,-0.2203 -0.24826,-1.06737 -0.24615,-6.91049 9.5e-4,-3.66266 0.0636,-6.75685 0.1383,-6.87598 0.32787,-0.5227 2.82859,-0.57865 3.61592,-0.081 l 0.3559,0.22499 v 6.68231 c 0,6.27078 -0.0179,6.69858 -0.28928,6.94674 -0.40867,0.37359 -3.20771,0.38404 -3.57469,0.0133 z m 2.3613,-3.8233 v -2.55648 h -0.5536 -0.55362 l -0.0434,2.6063 -0.0434,2.60631 0.59712,-0.0498 0.59713,-0.0498 z m 0.0438,-6.43115 -0.0438,-2.35675 h -0.5536 -0.55362 l -0.0438,2.35675 -0.0438,2.35676 h 0.64115 0.64117 z"
         id="path9-7" />
      <text
         xml:space="preserve"
         transform="scale(0.26458333)"
         id="text1"
         style="white-space:pre;shape-inside:url(#rect1);display:inline;fill:none" />
      <text
         xml:space="preserve"
         style="font-size:3.175px;fill:none;stroke-width:0.264583"
         x="286.80835"
         y="157.69167"
         id="text2"><tspan
           sodipodi:role="line"
           id="tspan2"
           style="stroke-width:0.264583"
           x="286.80835"
           y="157.69167">2025</tspan></text>
      <text
         xml:space="preserve"
         style="font-size:3.175px;fill:none;stroke-width:0.264583"
         x="294.21667"
         y="170.39166"
         id="text3"><tspan
           sodipodi:role="line"
           id="tspan3"
           style="stroke-width:0.264583"
           x="294.21667"
           y="170.39166">202</tspan></text>
      <text
         xml:space="preserve"
         transform="scale(0.26458333)"
         id="text4"
         style="font-size:29.3333px;white-space:pre;shape-inside:url(#rect4);display:inline;fill:none" />
      <text
         xml:space="preserve"
         style="font-size:7.7611px;fill:none;stroke-width:0.264583"
         x="286.80835"
         y="150.28334"
         id="text5"><tspan
           sodipodi:role="line"
           id="tspan5"
           style="font-style:normal;font-variant:normal;font-weight:bold;font-stretch:normal;font-size:7.7611px;font-family:Sans;-inkscape-font-specification:'Sans, Bold';font-variant-ligatures:normal;font-variant-caps:normal;font-variant-numeric:normal;font-variant-east-asian:normal;stroke-width:0.264583"
           x="286.80835"
           y="150.28334">5</tspan><tspan
           sodipodi:role="line"
           style="font-style:normal;font-variant:normal;font-weight:bold;font-stretch:normal;font-size:7.7611px;font-family:Sans;-inkscape-font-specification:'Sans, Bold';font-variant-ligatures:normal;font-variant-caps:normal;font-variant-numeric:normal;font-variant-east-asian:normal;stroke-width:0.264583"
           x="286.80835"
           y="159.98473"
           id="tspan6" /></text>
      <g
         id="g9"
         transform="translate(0,-0.37417734)">
        <path
           d="m 208.10846,247.18028 v 3.05738 h -11.12832 q 0.18077,-1.73369 1.0846,-3.27996 0.90381,-1.55796 3.57009,-4.12335 2.14658,-2.0734 2.63239,-2.81139 0.65527,-1.01912 0.65527,-2.01482 0,-1.10112 -0.57619,-1.68682 -0.56489,-0.59743 -1.5704,-0.59743 -0.99419,0 -1.58167,0.62085 -0.5875,0.62086 -0.67788,2.06167 l -3.16337,-0.32798 q 0.28243,-2.71768 1.77375,-3.9008 1.49129,-1.18313 3.72826,-1.18313 2.45162,0 3.85256,1.37056 1.40091,1.37054 1.40091,3.4088 0,1.1597 -0.40672,2.21397 -0.39542,1.04255 -1.26535,2.19053 -0.57619,0.76141 -2.07879,2.19053 -1.50261,1.42912 -1.90932,1.89769 -0.39543,0.46855 -0.64398,0.9137 z"
           style="font-weight:bold;font-size:40px;line-height:1.25;font-family:Arial;-inkscape-font-specification:'Arial, Bold';white-space:pre;shape-inside:url(#rect1965);fill:#96ca4f;stroke-width:0.589007"
           id="path13622" />
        <path
           d="m 219.06665,232.70166 q 2.40644,0 3.76217,1.78055 1.61558,2.10854 1.61558,6.99332 0,4.87305 -1.62688,7.00502 -1.34443,1.75711 -3.75087,1.75711 -2.41772,0 -3.89773,-1.92111 -1.48001,-1.93282 -1.48001,-6.87618 0,-4.84962 1.62688,-6.98158 1.34443,-1.75713 3.75086,-1.75713 z m 0,2.72939 q -0.57619,0 -1.0281,0.38657 -0.4519,0.37484 -0.70045,1.35883 -0.32764,1.27683 -0.32764,4.29908 0,3.02223 0.29374,4.1585 0.29374,1.12455 0.73435,1.4994 0.45191,0.37485 1.0281,0.37485 0.57619,0 1.02811,-0.37485 0.45191,-0.38657 0.70045,-1.37055 0.32764,-1.26512 0.32764,-4.28735 0,-3.02225 -0.29374,-4.14679 -0.29374,-1.13628 -0.74566,-1.51112 -0.44061,-0.38657 -1.0168,-0.38657 z"
           style="font-weight:bold;font-size:40px;line-height:1.25;font-family:Arial;-inkscape-font-specification:'Arial, Bold';white-space:pre;shape-inside:url(#rect1965);fill:#96ca4f;stroke-width:0.589007"
           id="path13624" />
        <path
           d="m 241.15315,247.18028 v 3.05738 h -11.12831 q 0.18076,-1.73369 1.08458,-3.27996 0.90382,-1.55796 3.5701,-4.12335 2.14657,-2.0734 2.63238,-2.81139 0.65528,-1.01912 0.65528,-2.01482 0,-1.10112 -0.57619,-1.68682 -0.5649,-0.59743 -1.5704,-0.59743 -0.9942,0 -1.58168,0.62085 -0.58748,0.62086 -0.67786,2.06167 l -3.1634,-0.32798 q 0.28245,-2.71768 1.77376,-3.9008 1.49131,-1.18313 3.72828,-1.18313 2.45161,0 3.85254,1.37056 1.40092,1.37054 1.40092,3.4088 0,1.1597 -0.40671,2.21397 -0.39543,1.04255 -1.26536,2.19053 -0.57619,0.76141 -2.0788,2.19053 -1.50259,1.42912 -1.90933,1.89769 -0.39541,0.46855 -0.64397,0.9137 z"
           style="font-weight:bold;font-size:40px;line-height:1.25;font-family:Arial;-inkscape-font-specification:'Arial, Bold';white-space:pre;shape-inside:url(#rect1965);fill:#96ca4f;stroke-width:0.589007"
           id="path13626" />
        <path
           style="font-weight:bold;font-stretch:condensed;font-size:29.3333px;font-family:Arial;-inkscape-font-specification:'Arial, Bold Condensed';white-space:pre;fill:#96ca4f;fill-opacity:1;stroke-width:0.264584"
           d="m 247.26877,245.62355 3.10366,-0.33286 q 0.13304,1.0904 0.78706,1.73316 0.65395,0.63129 1.50749,0.63129 0.97543,0 1.65159,-0.81493 0.67616,-0.82641 0.67616,-2.47922 0,-1.54952 -0.67616,-2.31854 -0.66509,-0.7805 -1.74028,-0.7805 -1.34125,0 -2.40537,1.22813 l -2.52726,-0.37876 1.59618,-8.75763 h 8.23581 v 3.01868 h -5.87479 l -0.48771,2.85799 q 1.04191,-0.53946 2.12824,-0.53946 2.07282,0 3.51375,1.561 1.44101,1.56099 1.44101,4.05169 0,2.0775 -1.16387,3.70736 -1.58511,2.22671 -4.40058,2.22671 -2.25012,0 -3.669,-1.25108 -1.4188,-1.2511 -1.69593,-3.36303 z"
           id="path9" />
      </g>
      <text
         xml:space="preserve"
         style="font-weight:bold;font-stretch:condensed;font-size:7.7611px;font-family:Arial;-inkscape-font-specification:'Arial, Bold Condensed';fill:#231a4f;stroke-width:0.264583"
         x="228.24818"
         y="263.98212"
         id="text6"><tspan
           sodipodi:role="line"
           id="tspan1"
           style="stroke-width:0.264583"
           x="228.24818"
           y="263.98212" /></text>
    </g>
  </g>
</svg>
