<?xml version="1.0" encoding="UTF-8" standalone="no"?>
<!-- Created with Inkscape (http://www.inkscape.org/) -->

<svg
   width="331.24274mm"
   height="270mm"
   viewBox="0 0 331.24275 270"
   version="1.1"
   id="svg5"
   inkscape:version="1.3.2 (091e20e, 2023-11-25)"
   sodipodi:docname="sel4_summit_2024_location.svg"
   inkscape:export-filename="C:\Users\Birgit Brecknell\Documents\}} seL4 Foundation\summit\summit location logos\sel4_summit_2024.png"
   inkscape:export-xdpi="96"
   inkscape:export-ydpi="96"
   xmlns:inkscape="http://www.inkscape.org/namespaces/inkscape"
   xmlns:sodipodi="http://sodipodi.sourceforge.net/DTD/sodipodi-0.dtd"
   xmlns:xlink="http://www.w3.org/1999/xlink"
   xmlns="http://www.w3.org/2000/svg"
   xmlns:svg="http://www.w3.org/2000/svg">
  <sodipodi:namedview
     id="namedview7"
     pagecolor="#ffffff"
     bordercolor="#666666"
     borderopacity="1.0"
     inkscape:pageshadow="2"
     inkscape:pageopacity="0.0"
     inkscape:pagecheckerboard="0"
     inkscape:document-units="mm"
     showgrid="false"
     inkscape:zoom="0.5"
     inkscape:cx="447"
     inkscape:cy="643"
     inkscape:window-width="1464"
     inkscape:window-height="916"
     inkscape:window-x="49"
     inkscape:window-y="38"
     inkscape:window-maximized="0"
     inkscape:current-layer="g88"
     fit-margin-top="0"
     fit-margin-left="0"
     fit-margin-right="0"
     fit-margin-bottom="0"
     showguides="true"
     inkscape:guide-bbox="true"
     inkscape:snap-nodes="false"
     inkscape:showpageshadow="2"
     inkscape:deskcolor="#d1d1d1" />
  <defs
     id="defs2">
    <rect
       x="27.598793"
       y="613.79718"
       width="397.42264"
       height="142.40977"
       id="rect1965" />
    <color-profile
       name="Agfa-:-Swop-Standard"
       xlink:href="file:///WINDOWS/system32/spool/drivers/color/RSWOP.icm"
       id="color-profile2" />
    <rect
       x="680.69342"
       y="102.26014"
       width="15.612235"
       height="115.53054"
       id="rect9649" />
    <style
       id="style824">.cls-1,.cls-2,.cls-3{fill:#96ca4f;}.cls-2,.cls-3{stroke:#96ca4f;stroke-miterlimit:8;}.cls-3{stroke-width:0.25px;}</style>
  </defs>
  <g
     inkscape:label="Layer 1"
     inkscape:groupmode="layer"
     id="layer1">
    <g
       id="g1204"
       transform="scale(1.9530976)"
       sodipodi:insensitive="true" />
    <g
       id="g12656">
      <g
         id="g88"
         transform="scale(1.4474914)">
        <text
           xml:space="preserve"
           transform="scale(0.26458333)"
           id="text9647"
           style="font-style:normal;font-weight:normal;font-size:40px;line-height:1.25;font-family:sans-serif;white-space:pre;shape-inside:url(#rect9649);display:inline;fill:#000000;fill-opacity:1;stroke:none" />
        <g
           id="g3802" />
        <g
           id="g3"
           transform="translate(-0.22713959,12.174373)">
          <g
             id="g2"
             transform="translate(0,-0.36556538)">
            <path
               d="m 54.815006,168.82611 2.247863,-0.21876 q 0.202932,1.13287 0.819534,1.66415 0.624406,0.53128 1.678092,0.53128 1.116127,0 1.678093,-0.46877 0.569771,-0.47659 0.569771,-1.10944 0,-0.40628 -0.241958,-0.68754 -0.234152,-0.28907 -0.827338,-0.50003 -0.405865,-0.14063 -1.849805,-0.50003 -1.857609,-0.46095 -2.606897,-1.13287 -1.053686,-0.94536 -1.053686,-2.30482 0,-0.87505 0.49172,-1.6329 0.499525,-0.76566 1.42833,-1.16413 0.93661,-0.39846 2.255669,-0.39846 2.154202,0 3.239108,0.94537 1.092712,0.94536 1.147347,2.52357 l -2.310304,0.10157 q -0.148296,-0.88285 -0.640016,-1.26569 -0.483916,-0.39065 -1.459551,-0.39065 -1.006855,0 -1.576626,0.41408 -0.366839,0.26564 -0.366839,0.71098 0,0.40628 0.343424,0.69536 0.437084,0.3672 2.122982,0.76566 1.685897,0.39847 2.489821,0.82817 0.811728,0.4219 1.264423,1.16414 0.4605,0.7344 0.4605,1.82041 0,0.98443 -0.546356,1.84385 -0.546356,0.85942 -1.545406,1.28133 -0.999051,0.41408 -2.489821,0.41408 -2.169813,0 -3.33277,-1.00006 -1.162957,-1.00786 -1.389304,-2.92985 z"
               style="font-weight:bold;font-size:40px;line-height:1.25;font-family:Arial;-inkscape-font-specification:'Arial, Bold';white-space:pre;shape-inside:url(#rect1965);fill:#96ca4f;stroke-width:0.406916"
               id="path13608" />
            <path
               d="m 69.040124,172.75602 v -4.82059 l -4.191328,-6.63318 h 2.708363 l 2.692753,4.53151 2.638118,-4.53151 h 2.661532 l -4.206939,6.6488 v 4.80497 z"
               style="font-weight:bold;font-size:40px;line-height:1.25;font-family:Arial;-inkscape-font-specification:'Arial, Bold';white-space:pre;shape-inside:url(#rect1965);fill:#96ca4f;stroke-width:0.406916"
               id="path13610" />
            <path
               d="m 77.741996,161.30225 h 4.222549 q 1.428327,0 2.177617,0.21876 1.00686,0.2969 1.72492,1.05475 0.71807,0.75786 1.09272,1.85948 0.37464,1.09381 0.37464,2.70327 0,1.41414 -0.35123,2.43764 -0.42928,1.25007 -1.2254,2.02355 -0.60099,0.58597 -1.62345,0.91411 -0.7649,0.24221 -2.044935,0.24221 h -4.347431 z m 2.310304,1.93761 v 7.58636 h 1.724923 q 0.967831,0 1.39711,-0.10938 0.561969,-0.14063 0.928809,-0.47659 0.37464,-0.33595 0.60879,-1.10163 0.23415,-0.77347 0.23415,-2.10168 0,-1.3282 -0.23415,-2.03917 -0.23415,-0.71097 -0.65562,-1.10944 -0.42148,-0.39846 -1.069301,-0.53909 -0.483915,-0.10938 -1.896635,-0.10938 z"
               style="font-weight:bold;font-size:40px;line-height:1.25;font-family:Arial;-inkscape-font-specification:'Arial, Bold';white-space:pre;shape-inside:url(#rect1965);fill:#96ca4f;stroke-width:0.406916"
               id="path13612" />
            <path
               d="m 90.440812,172.75602 v -11.45377 h 2.24786 l 4.68305,7.64887 v -7.64887 h 2.146407 v 11.45377 h -2.318117 l -4.6128,-7.46917 v 7.46917 z"
               style="font-weight:bold;font-size:40px;line-height:1.25;font-family:Arial;-inkscape-font-specification:'Arial, Bold';white-space:pre;shape-inside:url(#rect1965);fill:#96ca4f;stroke-width:0.406916"
               id="path13614" />
            <path
               d="m 102.6245,172.75602 v -11.45377 h 8.48413 v 1.93761 h -6.17382 v 2.5392 h 5.74454 v 1.9298 h -5.74454 v 3.11736 h 6.39237 v 1.9298 z"
               style="font-weight:bold;font-size:40px;line-height:1.25;font-family:Arial;-inkscape-font-specification:'Arial, Bold';white-space:pre;shape-inside:url(#rect1965);fill:#96ca4f;stroke-width:0.406916"
               id="path13616" />
            <path
               d="m 116.79701,172.75602 v -4.82059 l -4.19133,-6.63318 h 2.70836 l 2.69276,4.53151 2.63811,-4.53151 h 2.66154 l -4.20694,6.6488 v 4.80497 z"
               style="font-weight:bold;font-size:40px;line-height:1.25;font-family:Arial;-inkscape-font-specification:'Arial, Bold';white-space:pre;shape-inside:url(#rect1965);fill:#96ca4f;stroke-width:0.406916"
               id="path13618" />
          </g>
          <g
             id="g955"
             transform="matrix(1,0,0,0.96543177,-9.3221625,5.6482235)"
             style="stroke-width:1.01775">
            <path
               d="m 148.88986,170.60041 v 2.11219 h -7.688 q 0.12488,-1.19772 0.74929,-2.26596 0.6244,-1.07632 2.4664,-2.84862 1.48297,-1.43241 1.81859,-1.94225 0.45269,-0.70406 0.45269,-1.39194 0,-0.76071 -0.39806,-1.16534 -0.39025,-0.41273 -1.08491,-0.41273 -0.68684,0 -1.0927,0.42891 -0.40587,0.42892 -0.46831,1.42431 l -2.18542,-0.22659 q 0.19512,-1.87751 1.2254,-2.69487 1.03026,-0.81736 2.57567,-0.81736 1.6937,0 2.66154,0.94685 0.96782,0.94684 0.96782,2.35497 0,0.80118 -0.28098,1.52952 -0.27318,0.72025 -0.87417,1.51333 -0.39806,0.52602 -1.43613,1.51333 -1.03808,0.98731 -1.31906,1.31102 -0.27318,0.3237 -0.44489,0.63123 z"
               style="font-weight:bold;font-size:40px;line-height:1.25;font-family:Arial;-inkscape-font-specification:'Arial, Bold';white-space:pre;shape-inside:url(#rect1965);fill:#96ca4f;stroke-width:0.414137"
               id="path13622" />
            <path
               d="m 156.46033,160.59785 q 1.66249,0 2.5991,1.23009 1.11612,1.45669 1.11612,4.83134 0,3.36655 -1.12393,4.83942 -0.9288,1.2139 -2.59129,1.2139 -1.67028,0 -2.69275,-1.3272 -1.02246,-1.33529 -1.02246,-4.75041 0,-3.35036 1.12393,-4.82323 0.9288,-1.21391 2.59128,-1.21391 z m 0,1.8856 q -0.39806,0 -0.71026,0.26706 -0.3122,0.25896 -0.48391,0.93875 -0.22635,0.8821 -0.22635,2.97002 0,2.08791 0.20293,2.8729 0.20293,0.7769 0.50733,1.03586 0.3122,0.25897 0.71026,0.25897 0.39806,0 0.71027,-0.25897 0.3122,-0.26706 0.48391,-0.94684 0.22635,-0.87401 0.22635,-2.96192 0,-2.08792 -0.20293,-2.86481 -0.20293,-0.785 -0.51514,-1.04396 -0.3044,-0.26706 -0.70246,-0.26706 z"
               style="font-weight:bold;font-size:40px;line-height:1.25;font-family:Arial;-inkscape-font-specification:'Arial, Bold';white-space:pre;shape-inside:url(#rect1965);fill:#96ca4f;stroke-width:0.414137"
               id="path13624" />
            <path
               d="m 171.7188,170.60041 v 2.11219 h -7.688 q 0.12488,-1.19772 0.74928,-2.26596 0.62441,-1.07632 2.46641,-2.84862 1.48296,-1.43241 1.81858,-1.94225 0.4527,-0.70406 0.4527,-1.39194 0,-0.76071 -0.39806,-1.16534 -0.39026,-0.41273 -1.08491,-0.41273 -0.68685,0 -1.09271,0.42891 -0.40586,0.42892 -0.4683,1.42431 l -2.18543,-0.22659 q 0.19513,-1.87751 1.2254,-2.69487 1.03027,-0.81736 2.57568,-0.81736 1.6937,0 2.66153,0.94685 0.96783,0.94684 0.96783,2.35497 0,0.80118 -0.28098,1.52952 -0.27318,0.72025 -0.87417,1.51333 -0.39806,0.52602 -1.43614,1.51333 -1.03807,0.98731 -1.31906,1.31102 -0.27317,0.3237 -0.44489,0.63123 z"
               style="font-weight:bold;font-size:40px;line-height:1.25;font-family:Arial;-inkscape-font-specification:'Arial, Bold';white-space:pre;shape-inside:url(#rect1965);fill:#96ca4f;stroke-width:0.414137"
               id="path13626" />
            <path
               d="m 180.25711,172.7126 v -2.38735 h -4.68305 v -1.99079 l 4.96403,-7.5343 h 1.842 v 7.5262 h 1.42052 v 1.99889 h -1.42052 v 2.38735 z m 0,-4.38624 v -4.05443 l -2.63032,4.05443 z"
               style="font-weight:bold;font-size:40px;line-height:1.25;font-family:Arial;-inkscape-font-specification:'Arial, Bold';white-space:pre;shape-inside:url(#rect1965);fill:#96ca4f;stroke-width:0.414137"
               id="path13628" />
          </g>
        </g>
        <g
           transform="matrix(0.17968023,0,0,0.179715,-116.11015,-12.826771)"
           id="g2826"
           style="stroke-width:0.715751">
          <path
             d="m 778,784 1010,1"
             stroke="#96ca50"
             stroke-width="14.315"
             fill="none"
             fill-rule="evenodd"
             id="path2808" />
          <path
             d="m 811,539 c 75.198,66.699 121.865,146.365 140,239"
             stroke="#96ca50"
             stroke-width="14.315"
             fill="none"
             fill-rule="evenodd"
             id="path2810" />
          <path
             d="M 802,535.961 C 907.499,521.369 991.832,529.716 1055,561"
             stroke="#96ca50"
             stroke-width="14.315"
             fill="none"
             fill-rule="evenodd"
             id="path2812" />
          <path
             d="m 1004,471 c 48.76,52.799 87.76,157.465 117,314"
             stroke="#96ca50"
             stroke-width="14.315"
             fill="none"
             fill-rule="evenodd"
             id="path2814" />
          <path
             d="m 1125,355 c 52.55,75.511 97.22,216.177 134,422"
             stroke="#96ca50"
             stroke-width="14.315"
             fill="none"
             fill-rule="evenodd"
             id="path2816" />
          <path
             d="m 1117,350 c 135.96,5.63 300.63,151.963 494,439"
             stroke="#96ca50"
             stroke-width="14.315"
             fill="none"
             fill-rule="evenodd"
             id="path2818" />
          <path
             d="M 1728,563.174 C 1587.8,513.244 1431.47,586.515 1259,783"
             stroke="#96ca50"
             stroke-width="14.315"
             fill="none"
             fill-rule="evenodd"
             id="path2820" />
          <path
             d="m 994,467.367 c 64.78,-11.639 133.12,6.904 205,55.633"
             stroke="#96ca50"
             stroke-width="14.315"
             fill="none"
             fill-rule="evenodd"
             id="path2822" />
          <path
             d="m 1716,566 c -46.81,58.719 -79.48,129.052 -98,211"
             stroke="#96ca50"
             stroke-width="14.315"
             fill="none"
             fill-rule="evenodd"
             id="path2824" />
        </g>
      </g>
    </g>
  </g>
</svg>
