<?xml version="1.0" encoding="UTF-8" standalone="no"?>
<!-- Created with Inkscape (http://www.inkscape.org/) -->

<svg
   width="331.24274mm"
   height="270mm"
   viewBox="0 0 331.24275 270"
   version="1.1"
   id="svg5"
   inkscape:version="1.3.2 (091e20e, 2023-11-25)"
   sodipodi:docname="sel4_summit_2026_location.svg"
   inkscape:export-filename="C:\Users\Birgit Brecknell\Documents\}} seL4 Foundation\summit\summit location logos\sel4_summit_2024.png"
   inkscape:export-xdpi="96"
   inkscape:export-ydpi="96"
   xmlns:inkscape="http://www.inkscape.org/namespaces/inkscape"
   xmlns:sodipodi="http://sodipodi.sourceforge.net/DTD/sodipodi-0.dtd"
   xmlns:xlink="http://www.w3.org/1999/xlink"
   xmlns="http://www.w3.org/2000/svg"
   xmlns:svg="http://www.w3.org/2000/svg">
  <sodipodi:namedview
     id="namedview7"
     pagecolor="#ffffff"
     bordercolor="#666666"
     borderopacity="1.0"
     inkscape:pageshadow="2"
     inkscape:pageopacity="0.0"
     inkscape:pagecheckerboard="0"
     inkscape:document-units="mm"
     showgrid="false"
     inkscape:zoom="0.5"
     inkscape:cx="565"
     inkscape:cy="657"
     inkscape:window-width="1464"
     inkscape:window-height="916"
     inkscape:window-x="49"
     inkscape:window-y="38"
     inkscape:window-maximized="0"
     inkscape:current-layer="layer1"
     fit-margin-top="0"
     fit-margin-left="0"
     fit-margin-right="0"
     fit-margin-bottom="0"
     showguides="true"
     inkscape:guide-bbox="true"
     inkscape:snap-nodes="false"
     inkscape:showpageshadow="2"
     inkscape:deskcolor="#d1d1d1" />
  <defs
     id="defs2">
    <rect
       x="5.6568542"
       y="618.01135"
       width="84.852814"
       height="45.254833"
       id="rect8" />
    <rect
       x="1100"
       y="546"
       width="122"
       height="58"
       id="rect7" />
    <rect
       x="1000"
       y="542"
       width="182"
       height="90"
       id="rect4" />
    <rect
       x="1016"
       y="562"
       width="132"
       height="82"
       id="rect1" />
    <rect
       x="27.598793"
       y="613.79718"
       width="397.42264"
       height="142.40977"
       id="rect1965" />
    <color-profile
       name="Agfa-:-Swop-Standard"
       xlink:href="file:///WINDOWS/system32/spool/drivers/color/RSWOP.icm"
       id="color-profile2" />
    <rect
       x="680.69342"
       y="102.26014"
       width="15.612235"
       height="115.53054"
       id="rect9649" />
    <style
       id="style824">.cls-1,.cls-2,.cls-3{fill:#96ca4f;}.cls-2,.cls-3{stroke:#96ca4f;stroke-miterlimit:8;}.cls-3{stroke-width:0.25px;}</style>
  </defs>
  <g
     inkscape:label="Layer 1"
     inkscape:groupmode="layer"
     id="layer1"
     transform="translate(-1.9162759)">
    <g
       id="g1204"
       transform="scale(1.9530976)"
       sodipodi:insensitive="true" />
    <text
       xml:space="preserve"
       transform="scale(0.38298209)"
       id="text9647"
       style="font-style:normal;font-weight:normal;font-size:40px;line-height:1.25;font-family:sans-serif;white-space:pre;shape-inside:url(#rect9649);display:inline;fill:#000000;fill-opacity:1;stroke:none" />
    <g
       id="g3802"
       transform="scale(1.4474914)" />
    <path
       style="fill:#a1c961;fill-opacity:1;stroke-width:1"
       d="M 158.67263,204.10299 C 142.84174,202.90176 125.86004,198.18241 114.671,191.87461 90.897958,178.47258 77.023728,157.8826 73.379708,130.59649 c -1.14064,-8.54108 -0.69041,-21.3676 1.04459,-29.75843 2.71429,-13.127062 6.75996,-22.960712 13.83783,-33.635082 13.190612,-19.89324 33.358892,-34.156741 56.371872,-39.867565 8.36077,-2.07478 10.78402,-2.3202 23.04849,-2.334303 10.59083,-0.01326 12.20317,0.08017 16.55299,0.948385 20.6869,4.128885 36.35596,12.431752 50.7087,26.870023 8.54822,8.59914 13.27599,15.22382 18.4182,25.80818 3.96374,8.15864 6.68904,17.178602 8.23002,27.239112 0.97458,6.36248 0.97559,19.72651 10e-4,25.9819 -3.46483,22.26157 -13.01586,39.25034 -29.37618,52.25243 -18.13254,14.41056 -46.2944,22.06959 -73.54557,20.00185 z m 25.06146,-5.16939 c 28.36255,-4.2637 50.0704,-17.10229 62.41256,-36.91236 13.45923,-21.60304 15.58514,-50.33724 5.60142,-75.709792 -2.54673,-6.47221 -3.50167,-8.38024 -7.17902,-14.34404 -13.91084,-22.56013 -37.2857,-37.960141 -63.76676,-42.011361 -5.91034,-0.904188 -19.71087,-1.010576 -25.48217,-0.196448 -29.60876,4.176811 -55.487049,22.718489 -68.853942,49.333559 -6.25159,12.44769 -9.28242,25.506342 -9.27772,39.974132 0.006,20.3408 6.51331,38.27597 19.05785,52.53152 9.663102,10.98108 23.670162,19.45467 39.597752,23.95472 5.76818,1.62971 14.91789,3.36928 20.73325,3.94188 5.66148,0.55745 21.95328,0.22041 27.15678,-0.56181 z m -24.85193,-2.62545 c -14.20044,-1.22766 -31.58178,-6.03409 -39.57708,-10.94416 l -1.44235,-0.88579 2.90908,-1.31864 c 4.34189,-1.96814 12.30704,-4.50255 16.38629,-5.2139 4.64031,-0.80922 13.09397,-0.8015 18.13814,0.0165 2.53009,0.41031 8.42419,2.14195 16.34346,4.80162 14.84593,4.98593 19.5567,5.97837 28.31063,5.9642 3.22679,-0.004 6.77908,-0.19631 7.89398,-0.42465 2.67126,-0.54709 2.06914,-0.0943 -2.03175,1.52815 -7.53152,2.97957 -18.35062,5.4308 -27.86303,6.31275 -4.45103,0.41269 -15.12791,0.50446 -19.06737,0.16391 z m -46.95708,-15.35294 c -4.79494,-3.31278 -9.25325,-6.99065 -8.47403,-6.99065 0.10847,0 2.25313,-0.45327 4.76577,-1.00726 7.52425,-1.65898 12.16342,-2.07404 20.04271,-1.79323 5.20859,0.18563 8.53474,0.54167 12.22653,1.30874 7.64308,1.5881 7.78664,1.74735 1.82197,2.02104 -7.49506,0.34394 -16.36816,2.81642 -24.15646,6.73117 -3.28096,1.64917 -3.4602,1.64139 -6.22649,-0.26981 z m 85.27136,-3.41378 c -5.09146,-0.83261 -9.89818,-2.11769 -15.24686,-4.0763 -2.54575,-0.9322 -4.66879,-1.72847 -4.71784,-1.76953 -0.0491,-0.041 2.59106,-0.0765 5.86689,-0.0788 8.08056,-0.006 13.10927,-1.06857 18.89864,-3.99382 l 2.46598,-1.24602 2.7723,1.44767 c 8.08385,4.22127 17.99594,5.03412 26.42544,2.16708 1.70438,-0.5797 3.15365,-0.99921 3.2206,-0.93225 0.20819,0.20819 -3.97712,2.8247 -6.47511,4.04799 -2.94839,1.44387 -8.08168,3.13758 -12.22689,4.0342 -4.36293,0.94373 -16.26995,1.17064 -20.98315,0.3999 z m -21.39387,-9.22049 c -5.78245,-0.94818 -11.13091,-2.30582 -16.0823,-4.08235 -14.59307,-5.23587 -23.99491,-7.03982 -36.65548,-7.03313 -9.63767,0.004 -16.53272,0.96817 -25.960102,3.62605 l -3.94676,1.11272 -0.97923,-1.21867 c -1.05933,-1.31839 -4.05196,-6.91494 -4.51708,-8.44753 -0.25954,-0.85508 -0.14693,-0.94288 1.20878,-0.94288 h 1.49496 v -3.3525 -3.35252 h 4.30866 4.308653 l 0.097,-4.26589 c 0.0533,-2.34623 0.16739,-4.33634 0.2535,-4.42245 0.0862,-0.0862 2.110859,-0.17486 4.499499,-0.19723 l 4.34293,-0.0407 0.12144,3.3994 0.12143,3.39939 3.65012,0.12084 3.65011,0.12085 0.11938,4.2954 c 0.10935,3.93088 0.18841,4.29539 0.93251,4.29539 0.76666,0 0.81967,-0.38885 0.92822,-6.8098 l 0.1151,-6.80975 2.6539,-0.12556 c 2.02469,-0.0958 2.9755,0.0641 4.0105,0.67476 l 1.35662,0.80045 0.49882,-8.00837 c 0.71535,-11.48456 0.73166,-11.23415 -0.80569,-12.37075 -1.30981,-0.96837 -2.27179,-2.72906 -2.53929,-4.64748 -0.12762,-0.91545 0.0389,-1.07409 1.32062,-1.25719 1.12302,-0.16043 1.49811,-0.43049 1.60064,-1.1524 0.10228,-0.72024 0.40971,-0.94292 1.30177,-0.94292 1.1393,0 1.17447,-0.0709 1.43736,-2.8997 0.14826,-1.59485 0.15507,-3.19776 0.0159,-3.56203 -0.18211,-0.47459 -0.003,-0.66232 0.62881,-0.66232 0.82811,0 0.88295,0.21955 0.88295,3.53419 v 3.5342 l 1.15244,0.13263 c 0.82512,0.0949 1.19044,0.4004 1.28634,1.07551 0.10861,0.76488 0.40063,0.94289 1.54674,0.94289 0.77705,0 1.49262,0.14147 1.59012,0.3143 0.0976,0.17287 -0.1039,1.30379 -0.44766,2.51315 -0.49122,1.72838 -0.93752,2.39205 -2.08582,3.10175 l -1.46087,0.90286 0.27693,6.11766 c 0.36187,7.99384 0.48056,8.58648 1.64069,8.19206 0.49571,-0.16854 1.98179,-0.39078 3.30243,-0.49385 l 2.40118,-0.18743 0.11333,8.94189 c 0.11288,8.91505 0.11613,8.94227 1.05608,9.07579 l 0.9429,0.13382 v -24.54436 -24.54434 h 7.96219 7.9622 v 13.81335 13.81336 l 3.87633,0.12055 3.87634,0.12055 0.20953,12.35688 c 0.19226,11.33883 0.26994,12.36852 0.94289,12.49785 0.68958,0.13249 0.73337,-0.9742 0.73337,-18.53808 0,-17.49173 0.0466,-18.68209 0.73335,-18.72736 0.40335,-0.0265 0.92193,-0.0921 1.15242,-0.14575 0.23048,-0.0535 0.74908,-0.12601 1.15243,-0.1612 0.54367,-0.0473 0.73337,-0.43603 0.73337,-1.50284 0,-1.22132 -0.26485,-1.61756 -1.75048,-2.61915 -1.39769,-0.94228 -1.9877,-1.76017 -2.92761,-4.05825 -0.64743,-1.58297 -1.07434,-3.04446 -0.94871,-3.24773 0.12556,-0.2033 0.88973,-0.36961 1.69798,-0.36961 2.1291,0 3.09068,-0.64863 3.09068,-2.08477 0,-1.104 0.14619,-1.22925 1.57149,-1.3472 l 1.57149,-0.12999 0.26652,-5.44782 c 0.32431,-6.629072 0.23421,-6.076412 0.99067,-6.076412 0.50068,0 0.6292,0.61829 0.63156,3.03821 0.001,1.671012 0.12321,4.311112 0.27014,5.866882 l 0.26715,2.82868 h 1.40613 c 1.28554,0 1.40612,0.10861 1.40612,1.26756 0,1.43815 1.11348,2.08495 3.58931,2.08495 1.7379,0 1.74751,0.17873 0.21325,3.96692 -0.97219,2.40035 -1.45247,3.05945 -2.70199,3.70788 -1.35245,0.70186 -1.51962,0.96854 -1.51962,2.4238 0,1.25641 0.16984,1.64823 0.73335,1.69161 2.13139,0.16407 3.05535,0.21223 5.44781,0.28402 1.44052,0.0432 2.59682,0.22002 2.56952,0.39289 -0.0273,0.17286 -0.0273,8.5777 0,18.67744 l 0.0495,18.36315 0.94292,-0.13397 c 0.93235,-0.13248 0.94417,-0.21697 1.0573,-7.57228 l 0.11437,-7.43837 h 2.50469 2.50473 v -7.96217 -7.96221 h 1.67624 1.67627 v -3.77157 -3.77157 h 3.14296 3.14298 v 1.88579 1.88578 h 1.88578 1.88578 v 17.41893 17.41897 l 1.15243,-0.13249 1.15241,-0.13263 0.1123,-9.93526 0.1123,-9.93523 3.24018,-0.12232 3.2402,-0.12232 0.12262,-3.01211 c 0.11907,-2.92752 0.15443,-3.01577 1.25719,-3.14297 0.88616,-0.10213 1.1636,-0.38319 1.26718,-1.2833 0.12659,-1.09952 0.23712,-1.15242 2.40962,-1.15242 2.25064,0 2.27701,0.0147 2.27701,1.25719 0,1.21063 0.0699,1.25719 1.88579,1.25719 h 1.88577 v 13.22961 13.22964 l 0.94289,-0.13396 c 0.89449,-0.12704 0.94905,-0.34372 1.06284,-4.21977 l 0.11996,-4.08587 h 3.12778 3.12782 v 1.25719 c 0,1.04398 0.16878,1.25719 0.99526,1.25719 1.09546,0 1.51911,-1.18331 1.51911,-4.24303 v -1.62387 h 3.35249 3.35251 v 5.67051 c 0,4.67054 0.11171,5.71333 0.63279,5.91333 0.5224,0.20048 0.40032,0.65501 -0.69993,2.60598 -2.8029,4.97021 -3.58066,5.76557 -7.63736,7.81035 -9.30883,4.69208 -19.53202,4.55528 -29.2411,-0.3913 l -3.63009,-1.84948 -3.70349,1.86162 c -2.03695,1.02387 -5.21216,2.24161 -7.05603,2.70608 -4.46214,1.12398 -12.98656,1.4203 -17.86183,0.62089 z"
       id="path5" />
    <text
       xml:space="preserve"
       transform="scale(0.26458333)"
       id="text1"
       style="white-space:pre;shape-inside:url(#rect1);display:inline;fill:none" />
    <text
       xml:space="preserve"
       style="font-size:3.175px;fill:none;stroke-width:0.264583"
       x="163.48828"
       y="157.69167"
       id="text2"><tspan
         sodipodi:role="line"
         id="tspan2"
         style="stroke-width:0.264583"
         x="163.48828"
         y="157.69167">2025</tspan></text>
    <text
       xml:space="preserve"
       style="font-size:3.175px;fill:none;stroke-width:0.264583"
       x="164.48822"
       y="170.39166"
       id="text3"><tspan
         sodipodi:role="line"
         id="tspan3"
         style="stroke-width:0.264583"
         x="164.48822"
         y="170.39166">202</tspan></text>
    <text
       xml:space="preserve"
       transform="scale(0.26458333)"
       id="text4"
       style="font-size:29.3333px;white-space:pre;shape-inside:url(#rect4);display:inline;fill:none" />
    <text
       xml:space="preserve"
       style="font-size:7.7611px;fill:none;stroke-width:0.264583"
       x="164.72197"
       y="150.28334"
       id="text5"><tspan
         sodipodi:role="line"
         id="tspan5"
         style="font-style:normal;font-variant:normal;font-weight:bold;font-stretch:normal;font-size:7.7611px;font-family:Sans;-inkscape-font-specification:'Sans, Bold';font-variant-ligatures:normal;font-variant-caps:normal;font-variant-numeric:normal;font-variant-east-asian:normal;stroke-width:0.264583"
         x="164.72197"
         y="150.28334">5</tspan><tspan
         sodipodi:role="line"
         style="font-style:normal;font-variant:normal;font-weight:bold;font-stretch:normal;font-size:7.7611px;font-family:Sans;-inkscape-font-specification:'Sans, Bold';font-variant-ligatures:normal;font-variant-caps:normal;font-variant-numeric:normal;font-variant-east-asian:normal;stroke-width:0.264583"
         x="164.72197"
         y="159.98471"
         id="tspan6" /></text>
    <text
       xml:space="preserve"
       style="font-weight:bold;font-stretch:condensed;font-size:7.7611px;font-family:Arial;-inkscape-font-specification:'Arial, Bold Condensed';fill:#231a4f;stroke-width:0.264583"
       x="228.24818"
       y="263.98212"
       id="text6"><tspan
         sodipodi:role="line"
         id="tspan1"
         style="stroke-width:0.264583"
         x="228.24818"
         y="263.98212" /></text>
    <text
       xml:space="preserve"
       transform="scale(0.26458333)"
       id="text7"
       style="font-weight:bold;font-stretch:condensed;font-size:29.3333px;font-family:Arial;-inkscape-font-specification:'Arial, Bold Condensed';white-space:pre;shape-inside:url(#rect8);display:inline;fill:#ff0000;stroke-width:0;stroke-miterlimit:15" />
    <text
       xml:space="preserve"
       style="font-style:normal;font-variant:normal;font-weight:bold;font-stretch:condensed;font-size:7.7611px;font-family:Arial;-inkscape-font-specification:'Arial, Bold Condensed';font-variant-ligatures:normal;font-variant-caps:normal;font-variant-numeric:normal;font-variant-east-asian:normal;fill:#ff0000;stroke-width:0;stroke-miterlimit:15"
       x="256.11667"
       y="216.95833"
       id="text11"><tspan
         sodipodi:role="line"
         id="tspan10"
         style="stroke-width:0"
         x="256.11667"
         y="216.95833" /></text>
    <text
       xml:space="preserve"
       style="font-weight:bold;font-stretch:condensed;font-size:7.7611px;font-family:Arial;-inkscape-font-specification:'Arial, Bold Condensed';fill:#96184f;fill-opacity:1;stroke-miterlimit:15"
       x="209.81458"
       y="212.72499"
       id="text20"
       transform="matrix(0,0,0,0,167.53765,207.1467)"><tspan
         sodipodi:role="line"
         id="tspan19"
         x="209.81458"
         y="212.72499">0</tspan></text>
    <g
       id="g39"
       transform="translate(1.5874971,17.431047)">
      <g
         id="g35"
         transform="translate(33.78719,0.26454735)">
        <text
           xml:space="preserve"
           style="font-weight:bold;font-stretch:condensed;font-size:22.2775px;font-family:Arial;-inkscape-font-specification:'Arial, Bold Condensed';fill:#96ca4f;fill-opacity:1;stroke-width:0;stroke-miterlimit:15"
           x="233.74724"
           y="232.82544"
           id="text21"
           transform="scale(0.93331432,1.0714504)"><tspan
             sodipodi:role="line"
             id="tspan20"
             style="fill:#96ca4f;fill-opacity:1;stroke-width:0"
             x="233.74724"
             y="232.82544">2</tspan></text>
        <text
           xml:space="preserve"
           style="font-weight:bold;font-stretch:condensed;font-size:22.2775px;font-family:Arial;-inkscape-font-specification:'Arial, Bold Condensed';fill:#96ca4f;fill-opacity:1;stroke-width:0;stroke-miterlimit:15"
           x="197.60324"
           y="232.82547"
           id="text21-6"
           transform="scale(0.9333144,1.0714503)"><tspan
             sodipodi:role="line"
             id="tspan20-3"
             style="fill:#96ca4f;fill-opacity:1;stroke-width:0"
             x="197.60324"
             y="232.82547">2</tspan></text>
        <text
           xml:space="preserve"
           style="font-weight:bold;font-stretch:condensed;font-size:22.1583px;font-family:Arial;-inkscape-font-specification:'Arial, Bold Condensed';fill:#96ca4f;fill-opacity:1;stroke-width:0;stroke-miterlimit:15"
           x="248.55333"
           y="235.24196"
           id="text22"
           transform="scale(0.94408559,1.059226)"><tspan
             sodipodi:role="line"
             id="tspan21"
             style="fill:#96ca4f;fill-opacity:1;stroke-width:0"
             x="248.55333"
             y="235.24196">6</tspan></text>
        <text
           xml:space="preserve"
           style="font-weight:bold;font-stretch:condensed;font-size:24.3204px;font-family:Arial;-inkscape-font-specification:'Arial, Bold Condensed';fill:#96ca4f;fill-opacity:1;stroke-width:0;stroke-miterlimit:15"
           x="261.68735"
           y="191.38347"
           id="text29"
           transform="scale(0.76833064,1.301523)"><tspan
             sodipodi:role="line"
             id="tspan29"
             style="fill:#96ca4f;fill-opacity:1;stroke-width:0"
             x="261.68735"
             y="191.38347">o</tspan></text>
      </g>
      <g
         id="g38">
        <text
           xml:space="preserve"
           style="font-weight:bold;font-stretch:condensed;font-size:21.6107px;font-family:Arial;-inkscape-font-specification:'Arial, Bold Condensed';fill:#96ca4f;fill-opacity:1;stroke-width:0;stroke-miterlimit:15"
           x="58.310745"
           y="225.17543"
           id="text8"
           transform="scale(0.90169194,1.1090262)"><tspan
             sodipodi:role="line"
             id="tspan4"
             style="fill:#96ca4f;fill-opacity:1;stroke-width:0"
             x="58.310745"
             y="225.17543">V</tspan></text>
        <text
           xml:space="preserve"
           style="font-weight:bold;font-stretch:condensed;font-size:21.6107px;font-family:Arial;-inkscape-font-specification:'Arial, Bold Condensed';fill:#96ca4f;fill-opacity:1;stroke-width:0;stroke-miterlimit:15"
           x="170.48956"
           y="225.17543"
           id="text8-9"
           transform="scale(0.90169195,1.1090262)"><tspan
             sodipodi:role="line"
             id="tspan4-3"
             style="fill:#96ca4f;fill-opacity:1;stroke-width:0"
             x="170.48956"
             y="225.17543">V</tspan></text>
        <text
           xml:space="preserve"
           style="font-weight:bold;font-stretch:condensed;font-size:20.8182px;font-family:Arial;-inkscape-font-specification:'Arial, Bold Condensed';fill:#96ca4f;fill-opacity:1;stroke-width:0;stroke-miterlimit:15"
           x="80.286263"
           y="216.91077"
           id="text10"
           transform="scale(0.86859692,1.151282)"><tspan
             sodipodi:role="line"
             id="tspan8"
             style="fill:#96ca4f;fill-opacity:1;stroke-width:0"
             x="80.286263"
             y="216.91077">A</tspan></text>
        <text
           xml:space="preserve"
           style="font-weight:bold;font-stretch:condensed;font-size:21.1722px;font-family:Arial;-inkscape-font-specification:'Arial, Bold Condensed';fill:#96ca4f;fill-opacity:1;stroke-width:0;stroke-miterlimit:15"
           x="111.90561"
           y="227.87183"
           id="text13"
           transform="scale(0.91352432,1.0946616)"><tspan
             sodipodi:role="line"
             id="tspan12"
             style="fill:#96ca4f;fill-opacity:1;stroke-width:0"
             x="111.90561"
             y="227.87183">C</tspan></text>
        <text
           xml:space="preserve"
           style="font-weight:bold;font-stretch:condensed;font-size:21.5516px;font-family:Arial;-inkscape-font-specification:'Arial, Bold Condensed';fill:#96ca4f;fill-opacity:1;stroke-width:0;stroke-miterlimit:15"
           x="127.44678"
           y="231.95825"
           id="text14"
           transform="scale(0.92990653,1.0753769)"><tspan
             sodipodi:role="line"
             id="tspan13"
             style="fill:#96ca4f;fill-opacity:1;stroke-width:0"
             x="127.44678"
             y="231.95825">O</tspan></text>
        <text
           xml:space="preserve"
           style="font-weight:bold;font-stretch:condensed;font-size:22.3133px;font-family:Arial;-inkscape-font-specification:'Arial, Bold Condensed';fill:#96ca4f;fill-opacity:1;stroke-width:0;stroke-miterlimit:15"
           x="143.58994"
           y="236.18886"
           id="text15"
           transform="scale(0.94688478,1.0560947)"><tspan
             sodipodi:role="line"
             id="tspan14"
             style="fill:#96ca4f;fill-opacity:1;stroke-width:0"
             x="143.58994"
             y="236.18886">U</tspan></text>
        <text
           xml:space="preserve"
           style="font-weight:bold;font-stretch:condensed;font-size:21.1945px;font-family:Arial;-inkscape-font-specification:'Arial, Bold Condensed';fill:#96ca4f;fill-opacity:1;stroke-width:0;stroke-miterlimit:15"
           x="191.69476"
           y="220.84241"
           id="text17"
           transform="scale(0.88434079,1.1307858)"><tspan
             sodipodi:role="line"
             id="tspan16"
             style="fill:#96ca4f;fill-opacity:1;stroke-width:0"
             x="191.69476"
             y="220.84241">E</tspan></text>
        <text
           xml:space="preserve"
           style="font-weight:bold;font-stretch:condensed;font-size:21.1924px;font-family:Arial;-inkscape-font-specification:'Arial, Bold Condensed';fill:#96ca4f;fill-opacity:1;stroke-width:0;stroke-miterlimit:15"
           x="207.97195"
           y="220.81949"
           id="text18"
           transform="scale(0.88424898,1.1309032)"><tspan
             sodipodi:role="line"
             id="tspan17"
             style="fill:#96ca4f;fill-opacity:1;stroke-width:0"
             x="207.97195"
             y="220.81949">R</tspan></text>
        <text
           xml:space="preserve"
           style="font-weight:bold;font-stretch:condensed;font-size:22.5612px;font-family:Arial;-inkscape-font-specification:'Arial, Bold Condensed';fill:#96ca4f;fill-opacity:1;stroke-width:0;stroke-miterlimit:15"
           x="90.646378"
           y="235.07416"
           id="text30"
           transform="scale(0.94133037,1.0623263)"><tspan
             sodipodi:role="line"
             id="tspan30"
             style="fill:#96ca4f;fill-opacity:1;stroke-width:0"
             x="90.646378"
             y="235.07416">N</tspan></text>
      </g>
    </g>
  </g>
</svg>
