<?xml version="1.0" encoding="UTF-8" standalone="no"?>
<!-- Created with Inkscape (http://www.inkscape.org/) -->

<svg
   width="331.24274mm"
   height="270mm"
   viewBox="0 0 331.24275 270"
   version="1.1"
   id="svg5"
   inkscape:version="1.3.2 (091e20e, 2023-11-25)"
   sodipodi:docname="sel4_summit_2025_location.svg"
   inkscape:export-filename="C:\Users\Birgit Brecknell\Documents\}} seL4 Foundation\summit\summit location logos\sel4_summit_2024.png"
   inkscape:export-xdpi="96"
   inkscape:export-ydpi="96"
   xmlns:inkscape="http://www.inkscape.org/namespaces/inkscape"
   xmlns:sodipodi="http://sodipodi.sourceforge.net/DTD/sodipodi-0.dtd"
   xmlns:xlink="http://www.w3.org/1999/xlink"
   xmlns="http://www.w3.org/2000/svg"
   xmlns:svg="http://www.w3.org/2000/svg">
  <sodipodi:namedview
     id="namedview7"
     pagecolor="#ffffff"
     bordercolor="#666666"
     borderopacity="1.0"
     inkscape:pageshadow="2"
     inkscape:pageopacity="0.0"
     inkscape:pagecheckerboard="0"
     inkscape:document-units="mm"
     showgrid="false"
     inkscape:zoom="0.35355339"
     inkscape:cx="675.99408"
     inkscape:cy="844.2855"
     inkscape:window-width="1464"
     inkscape:window-height="916"
     inkscape:window-x="49"
     inkscape:window-y="38"
     inkscape:window-maximized="0"
     inkscape:current-layer="g12656"
     fit-margin-top="0"
     fit-margin-left="0"
     fit-margin-right="0"
     fit-margin-bottom="0"
     showguides="true"
     inkscape:guide-bbox="true"
     inkscape:snap-nodes="false"
     inkscape:showpageshadow="2"
     inkscape:deskcolor="#d1d1d1" />
  <defs
     id="defs2">
    <rect
       x="1100"
       y="546"
       width="122"
       height="58"
       id="rect7" />
    <rect
       x="1000"
       y="542"
       width="182"
       height="90"
       id="rect4" />
    <rect
       x="1016"
       y="562"
       width="132"
       height="82"
       id="rect1" />
    <rect
       x="27.598793"
       y="613.79718"
       width="397.42264"
       height="142.40977"
       id="rect1965" />
    <color-profile
       name="Agfa-:-Swop-Standard"
       xlink:href="file:///WINDOWS/system32/spool/drivers/color/RSWOP.icm"
       id="color-profile2" />
    <rect
       x="680.69342"
       y="102.26014"
       width="15.612235"
       height="115.53054"
       id="rect9649" />
    <style
       id="style824">.cls-1,.cls-2,.cls-3{fill:#96ca4f;}.cls-2,.cls-3{stroke:#96ca4f;stroke-miterlimit:8;}.cls-3{stroke-width:0.25px;}</style>
  </defs>
  <g
     inkscape:label="Layer 1"
     inkscape:groupmode="layer"
     id="layer1">
    <g
       id="g1204"
       transform="scale(1.9530976)"
       sodipodi:insensitive="true" />
    <g
       id="g12656">
      <text
         xml:space="preserve"
         transform="scale(0.38298209)"
         id="text9647"
         style="font-style:normal;font-weight:normal;font-size:40px;line-height:1.25;font-family:sans-serif;white-space:pre;shape-inside:url(#rect9649);display:inline;fill:#000000;fill-opacity:1;stroke:none" />
      <g
         id="g3802"
         transform="scale(1.4474914)" />
      <path
         style="fill:#9ac162;fill-opacity:1;fill-rule:nonzero;stroke:#96ca4f;stroke-width:0.999997;stroke-opacity:1"
         d="m 56.493428,192.8658 c -0.358249,-0.288 -0.432578,-2.45095 -0.630545,-18.3487 -0.41982,-33.71431 -0.356542,-35.34964 2.102889,-54.34316 0.484726,-3.74347 1.049766,-8.75616 1.255645,-11.13937 0.3885,-4.49734 0.633104,-5.43105 1.422858,-5.43105 1.213354,0 1.316158,0.47709 2.252019,10.44773 0.621469,6.62112 0.977634,6.5725 1.136739,-0.15508 l 0.129162,-5.46058 1.356053,-0.23262 1.356053,-0.23264 0.0013,-7.34194 0.0013,-7.341916 4.262352,-22.854281 c 4.313137,-23.126805 4.401002,-23.507239 5.429189,-23.507239 0.961742,0 1.120385,0.83217 4.502226,23.619935 l 3.366457,22.683829 v 7.407512 7.40758 h 9.040309 9.040306 V 95.930297 c 0,-10.176692 -0.062,-12.263441 -0.38743,-13.051194 -0.6918,-1.674245 -0.50895,-2.706647 0.90925,-5.134158 1.5401,-2.636053 2.02604,-4.105887 2.29669,-6.946146 0.23359,-2.451077 0.3503,-2.717311 1.19122,-2.717311 0.83852,0 1.09923,0.593478 1.39316,3.171118 0.30735,2.695636 0.7804,4.072223 2.10687,6.130968 1.55157,2.408178 1.64239,2.941378 0.9879,5.800173 -0.80516,3.516795 -0.3992,3.573561 1.54183,0.215526 0.87106,-1.507035 1.58377,-2.866719 1.58377,-3.02153 0,-0.154759 -0.28226,-0.281464 -0.6273,-0.281464 -1.39249,0 -1.74925,-1.199715 -1.05731,-3.555784 0.59075,-2.011587 1.82184,-3.640914 4.04284,-5.350559 l 2.03278,-1.564778 v -3.918609 -3.918608 l -0.71032,-0.666477 c -0.61319,-0.575405 -0.70586,-0.854759 -0.67783,-2.043476 0.0476,-2.022496 0.99899,-4.633478 2.25065,-6.17716 0.59108,-0.729006 1.30717,-1.616811 1.5913,-1.972882 0.47183,-0.59129 0.51648,-1.036067 0.51517,-5.133001 -9.7e-4,-3.771181 -0.0733,-4.618749 -0.45201,-5.321514 -0.80161,-1.487057 -0.59508,-2.664867 1.00922,-5.755061 1.65395,-3.186001 2.14885,-4.773405 2.15325,-6.907053 0.001,-0.996745 0.13617,-1.617814 0.40894,-1.893631 1.07044,-1.082414 1.77795,-0.06496 2.15169,3.094169 0.27777,2.347952 0.72667,3.541262 2.60106,6.913897 0.89675,1.613556 1.02177,3.194632 0.39472,4.991787 -0.28512,0.817172 -0.38743,2.262977 -0.38743,5.474151 v 4.36372 l 1.0224,0.830845 c 1.52023,1.235399 3.13835,4.672171 3.29975,7.008546 0.11468,1.661523 0.0777,1.824181 -0.54978,2.414738 -0.66962,0.630164 -0.67285,0.652829 -0.67285,4.722467 v 4.089254 l 1.13747,0.826034 c 2.87529,2.088035 4.8232,4.838726 5.17069,7.301741 0.13585,0.963274 0.068,1.208424 -0.49227,1.774901 -0.35749,0.361512 -0.65281,0.798867 -0.6563,0.971892 -0.0103,0.457692 2.16642,5.121245 2.39552,5.135021 0.387,0.02328 0.18088,-2.091392 -0.33206,-3.407379 -0.63881,-1.638923 -0.52333,-2.121145 1.35978,-5.678383 1.434,-2.708834 1.9996,-4.513719 2.00418,-6.395348 0.004,-1.592345 0.35576,-2.268251 1.18089,-2.268251 0.8067,0 1.01211,0.516529 1.36482,3.432515 0.2984,2.466642 0.80998,4.004124 1.85629,5.578575 1.66373,2.503445 2.03123,4.423432 1.16933,6.10883 -0.34721,0.678942 -0.40237,2.435937 -0.40237,12.81461 v 12.027792 h 13.68966 13.6896 l -0.004,-9.7294 -0.004,-9.729384 2.73483,-18.414011 c 1.50419,-10.127708 2.84035,-18.678482 2.96928,-19.001687 0.27256,-0.683239 1.30002,-0.799305 1.79008,-0.202213 0.1756,0.213944 0.52701,2.464584 0.78973,5.057866 0.26035,2.569807 1.11363,9.184077 1.89615,14.698349 2.08441,14.688237 2.22691,16.458238 2.22691,27.65878 v 9.6617 h 36.17302 36.17302 l 0.63432,0.6414 c 0.76436,0.77298 2.93882,5.31016 9.57038,19.96962 l 5.01123,11.07754 v 26.47438 26.47433 l -0.61308,0.28249 c -0.44505,0.20502 -0.76363,0.20098 -1.16233,-0.0163 l -0.54926,-0.29726 v -25.84886 -25.84878 h -10.97754 -10.97754 v 25.69541 c 0,23.58308 -0.0351,25.72484 -0.42714,26.05385 -0.5842,0.49029 -4.24398,0.49029 -4.82818,0 -0.39203,-0.32901 -0.42716,-2.47077 -0.42716,-26.05385 v -25.69541 h -9.04031 -9.04032 v 25.69541 c 0,22.22998 -0.051,25.73813 -0.37779,26.01243 -0.56237,0.47196 -3.26938,0.64683 -4.36301,0.28186 l -0.94167,-0.31426 V 166.78677 140.9457 l -9.10492,0.0684 -9.10486,0.0686 -0.0658,25.76753 -0.0658,25.76757 -0.81217,0.28633 c -1.03957,0.36643 -2.7553,0.36643 -3.79484,0 l -0.81217,-0.28633 -0.0658,-25.76757 -0.0658,-25.76753 h -7.49054 -7.49056 l -0.0658,25.79961 -0.0658,25.79964 -0.66138,0.25427 c -0.43833,0.16843 -0.82945,0.16328 -1.15979,-0.0163 -0.48649,-0.2633 -0.49999,-0.88611 -0.56427,-26.05396 l -0.0658,-25.78413 h -16.01422 -16.01426 l -0.12915,25.83168 c -0.12742,25.46736 -0.13634,25.83421 -0.64161,26.01342 -0.41393,0.14676 -1.14577,0.10021 -1.48553,-0.0944 -0.0334,-0.0198 -0.12047,-9.67279 -0.1938,-21.45254 l -0.13323,-21.4177 -20.11862,-0.0668 c -14.64846,-0.0486 -20.21408,0.0131 -20.46984,0.22787 -0.29087,0.24412 -0.35126,3.94839 -0.35126,21.54991 0,20.05311 -0.0256,21.2575 -0.452,21.29654 -0.86324,0.0791 -1.46374,-0.0562 -1.66369,-0.37434 -0.11057,-0.17596 -0.20285,-6.40255 -0.20502,-13.83671 l -0.004,-13.51666 h -7.490535 -7.490539 v 13.721 13.72099 l -0.581175,0.21878 c -0.319651,0.12027 -0.813604,0.13239 -1.097731,0.0271 -0.512839,-0.19046 -0.517545,-0.4898 -0.645742,-41.16901 l -0.129149,-40.97717 -9.36318,-0.0684 -9.363212,-0.0686 v 40.82751 c 0,31.4065 -0.07161,40.89985 -0.309944,41.14094 -0.170484,0.1724 -0.693532,0.31343 -1.162337,0.31343 h -0.852702 v -25.69546 c 0,-21.68484 -0.05657,-25.74269 -0.36096,-25.99836 -0.234679,-0.19698 -1.251269,-0.27667 -2.905811,-0.22786 l -2.544837,0.0751 -0.06429,25.72739 c -0.05953,23.8196 -0.09656,25.75156 -0.501378,26.05385 -0.240388,0.17952 -0.508893,0.32649 -0.596644,0.32649 -0.08779,0 -0.342317,-0.14676 -0.565681,-0.32649 z M 201.18761,165.89777 c 0,-21.76597 -0.0458,-24.68261 -0.38747,-24.68261 -0.34165,0 -0.38741,2.91664 -0.38741,24.68261 0,21.76597 0.0458,24.68259 0.38741,24.68259 0.34166,0 0.38747,-2.91662 0.38747,-24.68259 z m 23.95817,0.0687 c -0.0621,-23.20361 -0.0918,-24.61879 -0.51793,-24.70177 -0.42791,-0.0832 -0.45199,1.22889 -0.45199,24.61376 0,24.54858 0.004,24.70175 0.5179,24.70175 0.51514,0 0.51755,-0.13093 0.45202,-24.61374 z m 23.82636,-0.0884 c 0,-23.38488 -0.0242,-24.69706 -0.45203,-24.61374 -0.42609,0.0831 -0.45576,1.49815 -0.51791,24.70177 -0.0656,24.48264 -0.0633,24.61372 0.45202,24.61372 0.51471,0 0.51792,-0.15313 0.51792,-24.70175 z m -148.11212,-3.964 c -1.136437,-2.14385 -5.227704,-8.78582 -5.46003,-8.86411 -0.149205,-0.0503 -1.358548,1.82056 -2.686817,4.1577 -1.328269,2.33713 -2.584514,4.51375 -2.791666,4.83698 l -0.376671,0.58771 h 5.847954 5.84799 z m -5.782149,-12.96532 c 0.695923,-0.42723 1.290547,0.32202 4.376242,5.51435 1.560277,2.62556 2.888187,4.77374 2.950897,4.77374 0.0626,0 0.11404,-4.11557 0.11404,-9.14574 v -9.14568 l -7.425969,0.0693 -7.425972,0.0693 -0.06801,9.40165 c -0.03716,5.17089 -0.0039,9.56976 0.07367,9.77527 0.08447,0.2226 1.521639,-1.93436 3.554858,-5.33518 1.877212,-3.13981 3.609718,-5.8295 3.84999,-5.977 z m 50.834619,-29.67419 v -28.2086 h -20.53444 -20.53444 v 28.20869 28.20867 h 20.53444 20.53444 z m -26.46176,18.61059 c -1.27117,-0.0481 -2.44491,-0.20004 -2.60834,-0.3372 -0.42173,-0.35394 -0.75333,-17.73358 -0.3874,-20.30538 0.30043,-2.11157 1.25158,-4.25472 2.9815,-6.71793 1.27414,-1.81418 5.61798,-6.13802 6.16646,-6.13802 1.37892,0 6.29842,5.83771 7.76047,9.2089 1.24022,2.85981 1.37184,4.64852 1.24867,16.97558 -0.0604,6.06873 -0.096,6.49648 -0.58115,6.9869 -0.48966,0.49513 -0.82281,0.51956 -6.39279,0.46863 -3.23192,-0.0296 -6.91627,-0.0933 -8.18742,-0.14152 z m 12.76603,-11.75431 c -0.006,-9.10656 -0.0207,-9.37328 -0.59319,-10.78039 -0.32286,-0.79353 -1.04657,-2.1429 -1.60819,-2.99858 -1.21208,-1.84664 -3.9152,-4.83093 -4.37583,-4.83093 -0.40921,0 -3.66063,3.44428 -4.70383,4.9829 -0.43078,0.63532 -1.08943,1.76827 -1.4637,2.51769 l -0.68048,1.36257 v 9.54218 9.54218 h 6.71566 6.71568 z m -8.07255,-2.44023 c -2.19394,-0.52096 -3.5446,-2.4185 -3.5446,-4.97972 0,-3.51649 2.67213,-5.58703 6.18886,-4.79557 2.15318,0.48459 3.453,2.37534 3.46037,5.03357 0.004,1.39047 -0.10813,1.79458 -0.75418,2.71924 -1.19929,1.71665 -3.29786,2.50992 -5.35045,2.02248 z m 3.23563,-3.1393 c 1.03614,-1.11225 0.97637,-2.36579 -0.16794,-3.5229 -0.66594,-0.67338 -1.09786,-0.88807 -1.78696,-0.88807 -1.28379,0 -1.64076,0.19084 -2.26418,1.21094 -0.92347,1.51094 -0.22941,3.26595 1.57164,3.97422 0.92816,0.36501 1.83253,0.10059 2.64739,-0.77419 z m -19.51466,-18.18133 c -1.03872,-0.15803 -1.26613,-1.02779 -1.16839,-4.468436 l 0.0841,-2.959052 0.94778,-0.877719 c 1.58035,-1.463556 4.02779,-1.533713 5.39162,-0.154592 0.64091,0.648095 0.72656,0.961717 0.89947,3.294233 0.24659,3.325706 -0.0292,4.876666 -0.91066,5.122056 -0.6983,0.19442 -4.06828,0.22237 -5.24389,0.0435 z m 3.69409,-4.625999 c 0,-1.999213 -0.0492,-2.218366 -0.5356,-2.374438 -0.2946,-0.09455 -0.87577,-0.02959 -1.2915,0.144803 -0.74511,0.312079 -0.75583,0.345691 -0.75583,2.374438 v 2.057846 h 1.29148 1.29145 z m 6.45738,4.626169 c -0.35515,-0.0644 -0.75397,-0.22253 -0.88631,-0.35134 -0.40086,-0.39028 -0.61798,-3.24596 -0.3997,-5.256819 0.18577,-1.710713 0.29344,-1.975557 1.11242,-2.734535 1.53247,-1.420142 4.0015,-1.481526 5.33542,-0.132557 0.63222,0.639297 0.70636,0.930061 0.84448,3.310968 0.20789,3.582943 -0.006,4.884903 -0.84041,5.119253 -0.71186,0.19988 -4.14732,0.2299 -5.1659,0.045 z m 3.61613,-4.626169 c 0,-1.999213 -0.0492,-2.218366 -0.53562,-2.374438 -0.2946,-0.09455 -0.87579,-0.02959 -1.29148,0.144803 -0.74514,0.312079 -0.75584,0.345691 -0.75584,2.374438 v 2.057846 h 1.29148 1.29146 z m 6.26309,4.644009 c -0.96585,-0.21123 -1.21511,-1.04559 -1.19761,-4.00862 0.0116,-2.004078 0.12997,-2.963879 0.43871,-3.564611 0.49804,-0.969127 2.25884,-1.920579 3.55313,-1.919987 1.16656,4.88e-4 2.60711,0.750179 3.01057,1.566707 0.38176,0.772613 0.45023,6.978341 0.0833,7.564701 -0.17892,0.28616 -0.87432,0.39537 -2.77271,0.43546 -1.39362,0.0296 -2.7956,-0.004 -3.11554,-0.0738 z m 3.81041,-4.633294 c 0,-2.10338 -0.0253,-2.198235 -0.62779,-2.351155 -0.34532,-0.08773 -0.92648,-0.04451 -1.29149,0.09596 -0.63659,0.244739 -0.66366,0.340648 -0.66366,2.351168 v 2.095981 h 1.29148 1.29146 z m 6.28242,4.633474 c -1.06999,-0.23265 -1.24615,-0.78111 -1.23761,-3.85305 0.0103,-3.484331 0.35841,-4.374502 2.01084,-5.133171 1.35451,-0.621842 2.6286,-0.638718 3.78914,-0.05017 1.34758,0.683469 1.54523,1.329043 1.54955,5.060851 0.004,2.7504 -0.0669,3.35774 -0.42272,3.65667 -0.42554,0.35765 -4.46852,0.58417 -5.6892,0.31878 z m 3.79108,-4.522013 c 0,-1.805837 -0.0675,-2.11681 -0.51131,-2.357033 -0.65954,-0.356933 -1.75649,-0.07589 -2.07845,0.532389 -0.13829,0.26132 -0.2515,1.246899 -0.2515,2.190077 v 1.71495 h 1.42065 1.42061 z M 63.120456,137.88464 c -0.06853,-0.39508 -0.593942,-4.9496 -1.167325,-10.12119 -0.573397,-5.17161 -1.081184,-9.52044 -1.128395,-9.6641 -0.04718,-0.14364 -0.157524,0.0327 -0.245106,0.39178 -0.184793,0.75801 -1.970772,18.33719 -1.970772,19.3989 v 0.71287 h 2.318207 2.318194 z m 39.398524,-13.25551 v -13.97375 h -7.490544 -7.490552 v 13.97375 13.97377 h 7.490552 7.490544 z m 78.00333,2.80781 c -0.001,-10.1868 -0.0413,-11.22452 -0.45202,-11.83405 -0.24768,-0.36744 -1.25343,-1.63096 -2.23502,-2.80781 l -1.78468,-2.1397 h -13.90671 -13.90674 v 13.79963 c 0,7.58979 0.0774,13.87798 0.17226,13.97376 0.0948,0.0957 7.35926,0.17419 16.14343,0.17419 h 15.97125 z m 17.6712,10.70895 c 0.0773,-0.2514 0.32359,-2.42154 0.54767,-4.82253 0.55528,-5.95011 1.03422,-7.3998 2.28437,-6.91471 0.67713,0.26276 0.85937,1.03315 1.60234,6.7746 l 0.70133,5.41973 h 9.23222 9.23224 l 0.1471,-0.84888 c 0.081,-0.46688 0.45466,-3.08207 0.8306,-5.81153 0.68002,-4.9374 0.90015,-5.61559 1.82281,-5.61559 0.97613,0 1.35803,1.48553 2.1279,8.27733 l 0.43843,3.86808 h 9.2843 9.28425 l 0.8249,-5.84781 c 0.80215,-5.68646 0.97439,-6.28252 1.81855,-6.2936 0.96749,-0.0116 1.3613,1.31168 2.01804,6.78698 0.21538,1.79569 0.4564,3.7644 0.53561,4.37496 l 0.14399,1.11006 h 10.70344 c 5.88687,0 10.7034,-0.0468 10.7034,-0.10432 0,-0.0573 -2.94652,-6.31618 -6.5478,-13.90846 l -6.54784,-13.80417 -35.86203,-0.0661 -35.86202,-0.0662 -0.74914,0.71922 c -0.41206,0.39553 -1.49397,1.68069 -2.40433,2.85585 l -1.65517,2.13669 v 11.11879 11.11881 h 7.60229 c 7.01467,0 7.61313,-0.0352 7.74255,-0.4571 z m -14.33892,-26.91233 1.84182,-2.16441 -0.0679,-9.32803 -0.0679,-9.327976 -3.80981,-0.07229 -3.80988,-0.07229 v 9.522786 9.52274 l 1.7435,2.09436 c 0.95893,1.15192 1.87506,2.07078 2.0359,2.04196 0.16079,-0.0291 1.12117,-1.02642 2.13415,-2.21686 z m -4.10546,-7.0213 c -0.21308,-0.0906 -0.46484,-0.28517 -0.55943,-0.4321 -0.33831,-0.52553 -0.51955,-3.84047 -0.33352,-6.099222 0.1756,-2.130124 0.25129,-2.361536 1.03192,-3.150948 0.89566,-0.905672 1.57646,-1.039554 2.90498,-0.571237 1.52956,0.539194 1.73544,1.213698 1.72644,5.656447 -0.006,2.67069 -0.10697,4.07833 -0.30912,4.2827 -0.32909,0.3328 -3.83732,0.58003 -4.46127,0.31436 z m 2.32466,-5.30219 c 0,-2.439293 -0.0576,-2.842573 -0.38748,-2.714595 -0.31,0.120273 -0.38742,0.692937 -0.38742,2.864905 0,2.23884 0.0679,2.71456 0.38742,2.71456 0.32086,0 0.38748,-0.49246 0.38748,-2.86487 z m -99.960081,2.23984 c 0,-6.045133 -0.05027,-6.913128 -0.408557,-7.052168 -0.71546,-0.277631 -11.472088,-0.177348 -12.006592,0.111782 -0.474256,0.256612 -0.499598,0.614535 -0.499598,7.052146 v 6.7818 h 6.457377 6.45737 z m -8.968034,4.29032 c -0.727011,-0.31336 -0.97852,-1.23177 -0.967913,-3.53468 0.01029,-2.46859 0.217039,-3.09887 1.453869,-4.455677 1.240045,-1.360405 2.208216,-1.515396 3.57458,-0.57224 1.526602,1.053703 1.843643,2.016567 1.755945,5.333327 -0.04243,1.60457 -0.135191,2.9736 -0.20629,3.04225 -0.271617,0.2627 -5.063974,0.42244 -5.610191,0.18709 z m 3.581395,-2.94699 c 0.130948,-2.05124 -0.280193,-3.33022 -1.070731,-3.33022 -0.580828,0 -0.895734,0.52534 -1.142165,1.90508 -0.280398,1.56998 -0.02533,2.0128 1.15956,2.0128 0.870072,0 1.021155,-0.0843 1.053336,-0.58766 z m 4.949411,-11.492433 c -0.05889,-0.323218 -1.299592,-8.222668 -2.756907,-17.554288 -1.45729,-9.331632 -2.732125,-16.831572 -2.833014,-16.666547 -0.100928,0.165075 -1.575304,7.858801 -3.276529,17.0972 -1.701226,9.238425 -3.140682,17.002848 -3.19877,17.254211 -0.09836,0.42552 0.318635,0.457087 6.033416,0.457087 h 6.139083 z m 26.732179,-3.787286 0.0782,-1.371262 h -1.82154 -1.82158 v 1.262425 c 0,0.694352 0.0824,1.34574 0.18305,1.447592 0.10079,0.101878 0.88528,0.150836 1.74348,0.109082 l 1.56038,-0.07641 z m 30.01329,1.320219 c 0,-0.252045 -3.39769,-7.709085 -3.69568,-8.111207 -0.18499,-0.249601 -2.24412,-0.326485 -8.74643,-0.326485 h -8.50446 l -0.56879,0.623346 c -0.48439,0.530807 -4.31411,7.520817 -4.31411,7.874071 0,0.06715 5.81162,0.121816 12.91472,0.121816 7.10312,0 12.91475,-0.08194 12.91475,-0.181721 z m 7.49054,-1.254912 v -1.436569 h -1.67891 -1.67894 v 1.262425 c 0,0.694326 0.0773,1.340762 0.17226,1.436543 0.0948,0.09583 0.85022,0.174195 1.67892,0.174195 h 1.50671 z m 39.5191,0.520208 c 0,-0.316336 -2.85029,-23.851399 -2.98436,-24.641828 -0.0815,-0.481553 -0.21177,-0.811563 -0.28913,-0.733353 -0.20434,0.20665 -3.92523,25.079336 -3.78662,25.31206 0.12818,0.215269 7.06011,0.277257 7.06011,0.06303 z m -77.5036,-4.691157 c 0.90085,-0.471096 1.38819,-1.715962 1.03725,-2.649406 -0.13715,-0.364625 -0.58157,-1.153574 -0.9877,-1.753265 -0.40618,-0.599677 -0.82239,-1.361228 -0.92495,-1.69237 -0.283,-0.91393 -0.68427,-0.586608 -1.88353,1.536415 -1.45731,2.579827 -1.42503,3.680276 0.13339,4.535304 0.90473,0.496514 1.70733,0.503627 2.62585,0.02328 z m 37.96469,-0.292372 c 1.09997,-0.935926 1.04498,-1.871094 -0.23846,-4.055706 -0.56829,-0.967236 -1.0332,-1.884974 -1.0332,-2.03945 0,-0.579315 -0.53085,-0.247594 -1.12383,0.702302 -1.10541,1.770695 -1.88525,3.57787 -1.77362,4.110131 0.37758,1.800577 2.71525,2.519807 4.16911,1.282723 z m -9.79539,-5.541259 c 0,-0.68136 -1.31812,-2.680342 -2.34578,-3.557444 -1.86014,-1.587584 -2.43301,-1.70549 -8.31717,-1.711768 -4.03251,-0.0039 -5.58365,0.08554 -6.23514,0.360651 -1.66014,0.701427 -4.54037,3.807636 -4.54037,4.896624 0,0.462361 0.46197,0.4832 10.71922,0.4832 10.15931,0 10.71924,-0.02444 10.71924,-0.471263 z m -5.94077,-11.93536 v -4.309655 h -4.64932 -4.64932 v 4.309655 4.309681 h 4.64932 4.64932 z m 1.1504,-7.498833 c -0.75876,-3.493345 -3.10785,-5.786924 -5.92887,-5.788789 -0.71029,-4.24e-4 -1.65689,0.194199 -2.1035,0.43248 -1.74451,0.930845 -3.1767,3.020397 -3.58736,5.233978 l -0.17834,0.960792 h 5.99005 5.99005 z m -4.12079,-11.568162 v -2.873086 l -1.74348,-0.07744 -1.7435,-0.07731 v 3.027537 3.027588 l 1.7435,-0.07744 1.74348,-0.07731 z m -0.56419,-5.658264 c 1.53708,-0.827835 1.56645,-2.02054 0.11199,-4.555757 -0.60375,-1.052507 -1.17426,-1.917646 -1.26778,-1.922521 -0.0935,-0.0039 -0.70374,0.834704 -1.35603,1.865716 -1.45915,2.306262 -1.5469,3.256955 -0.39133,4.240219 0.85798,0.730009 1.97326,0.873076 2.90297,0.372343 z M 110.4704,192.88548 c -0.40478,-0.31627 -0.44645,-1.2735 -0.48092,-11.05512 -0.0271,-7.63138 0.0516,-11.04664 0.27311,-11.8842 0.91667,-3.46591 3.88624,-7.00977 7.36663,-8.7914 3.12764,-1.60105 4.91061,-2.02905 8.39459,-2.01506 2.62586,0.0103 3.23274,0.10433 5.23244,0.80791 5.0371,1.77249 8.4068,5.44889 9.52361,10.39032 0.27608,1.22155 0.33633,3.84227 0.27332,11.88422 -0.0444,5.6744 -0.16062,10.39213 -0.25827,10.48384 -0.0977,0.0917 -6.86083,0.24755 -15.0294,0.34626 -12.14599,0.14676 -14.9327,0.11642 -15.29511,-0.16685 z m 5.99651,-11.69107 c 0,-6.03193 0.0989,-9.64865 0.27625,-10.12119 0.49344,-1.31326 2.23192,-3.37683 3.64256,-4.32367 2.17156,-1.45756 4.46628,-2.5496 5.35745,-2.5496 1.63177,0 5.36719,2.43555 6.9824,4.55262 1.85487,2.43121 1.82193,2.20459 1.82193,12.54704 v 9.28066 h 2.07508 2.07503 l -0.0733,-10.12116 -0.0733,-10.12118 -0.93743,-1.98491 c -2.06347,-4.3693 -6.20403,-6.76502 -11.69223,-6.76502 -6.05561,0 -10.73264,2.77596 -13.13289,7.79468 -0.56772,1.18703 -0.58364,1.45805 -0.65874,11.20704 l -0.0771,9.99055 h 2.20701 2.20699 z m 15.75597,0.34896 c 0,-10.15436 0.0221,-10.0173 -1.93624,-12.00032 -1.28799,-1.30421 -3.70484,-2.73121 -4.62575,-2.73121 -1.16017,0 -3.25135,1.27227 -5.10392,3.1052 l -1.76543,1.74674 v 9.45827 9.45822 h 6.71566 6.71568 z m -41.430208,7.5125 c -0.07354,-0.12053 -0.167566,-3.49932 -0.208965,-7.50926 -0.0657,-6.34912 -0.01633,-7.50894 0.385581,-8.97986 0.807047,-2.95685 3.416002,-6.24639 4.655134,-5.86956 1.481653,0.45068 3.522931,3.54862 4.464168,6.77505 0.38249,1.31128 0.46007,2.65875 0.47518,8.2526 0.013,5.3032 -0.0552,6.77477 -0.33651,7.11745 -0.304797,0.37147 -0.981437,0.43206 -4.827784,0.43206 -2.46029,0 -4.533365,-0.0982 -4.606804,-0.21848 z m 7.283605,-8.40086 c 0.0468,-3.71479 -0.02854,-6.50684 -0.190669,-7.07223 -0.415705,-1.44841 -2.253948,-4.17621 -2.69817,-4.00387 -0.206265,0.0801 -0.791335,0.99756 -1.30019,2.03892 l -0.925164,1.89338 v 6.71566 6.71564 l 2.518378,-0.0747 2.518365,-0.0747 z m 55.209733,8.29282 c -0.28478,-0.92208 -0.40423,-13.02737 -0.14481,-14.66984 0.49038,-3.10403 2.5544,-6.90767 4.06322,-7.48776 1.35408,-0.52058 3.00259,1.135 4.63289,4.65265 0.81443,1.75729 0.89326,2.16575 1.13394,5.87682 0.26187,4.03717 0.0973,10.28928 -0.29899,11.36692 -0.21291,0.57886 -0.28446,0.58773 -4.75084,0.58773 -3.40177,0 -4.55984,-0.0814 -4.63548,-0.32652 z m 7.34928,-8.00414 c 0,-5.21414 -0.0654,-6.19247 -0.50892,-7.63984 -0.51404,-1.67655 -1.82807,-3.61889 -2.44826,-3.61889 -0.1852,0 -0.75785,0.81056 -1.27268,1.80124 l -0.93602,1.80123 v 6.8181 6.81809 h 2.58296 2.58292 z m 5.73944,7.87357 c -0.12073,-0.25144 -0.20602,-3.74812 -0.18951,-7.77046 0.0321,-7.84191 0.0742,-8.14928 1.50522,-11.0049 0.69511,-1.38712 2.55486,-3.49237 3.08267,-3.48952 1.09676,0.006 2.89298,2.08507 4.28083,4.9553 l 0.94994,1.96456 v 7.64908 c 0,6.51485 -0.0576,7.68584 -0.38744,7.89706 -0.21311,0.1363 -2.33026,0.24974 -4.7048,0.25195 -3.85831,0.004 -4.34067,-0.0445 -4.5369,-0.45307 z m 7.1753,-8.61558 c 0,-6.68534 -0.004,-6.72906 -0.65759,-8.03167 -0.36169,-0.72033 -0.87987,-1.60354 -1.1515,-1.96267 -0.6724,-0.88908 -1.17494,-0.54592 -2.32361,1.58657 l -0.90406,1.67833 -0.0814,6.36227 c -0.0449,3.49926 -0.0195,6.52581 0.0567,6.7257 0.10452,0.27525 0.73519,0.36341 2.59979,0.36341 h 2.46193 z M 153.89926,162.5675 c -0.46108,-1.71418 -0.16193,-11.45394 0.40056,-13.04511 0.85887,-2.42935 3.55472,-4.75384 6.65883,-5.74166 4.48609,-1.42759 10.47302,0.13745 12.54896,3.28017 1.42537,2.15794 1.44119,2.24779 1.54098,8.75601 0.0515,3.36219 0.0207,6.50631 -0.0684,6.98689 l -0.16209,0.87373 h -10.31014 -10.31013 z m 18.6176,-6.76807 c 0,-5.6663 -0.013,-5.81152 -0.63067,-6.87676 -2.32024,-4.00366 -10.13894,-4.40085 -13.91788,-0.70709 -1.61973,1.58327 -1.72401,2.07009 -1.72401,8.0499 v 5.32252 h 8.13627 8.13629 z M 72.704398,136.36435 c -0.356165,-0.3601 -0.405407,-1.74483 -0.401949,-11.29654 0.0013,-5.98735 0.103756,-11.0454 0.22582,-11.24013 0.53543,-0.85449 4.619045,-0.94593 5.904719,-0.1324 l 0.581187,0.36778 v 10.92356 c 0,10.25081 -0.02919,10.95014 -0.472391,11.35581 -0.667343,0.6107 -5.238122,0.6278 -5.837386,0.0217 z m 3.855942,-6.24991 v -4.17907 h -0.904001 -0.904053 l -0.07097,4.26049 -0.07097,4.26053 0.975087,-0.0813 0.975088,-0.0813 z m 0.07161,-10.513 -0.07161,-3.85256 h -0.904001 -0.904053 l -0.07161,3.85256 -0.07161,3.8526 h 1.046997 1.047022 z"
         id="path9-7" />
      <text
         xml:space="preserve"
         transform="scale(0.26458333)"
         id="text1"
         style="white-space:pre;shape-inside:url(#rect1);display:inline;fill:none" />
      <text
         xml:space="preserve"
         style="font-size:3.175px;fill:none;stroke-width:0.264583"
         x="161.57201"
         y="157.69167"
         id="text2"><tspan
           sodipodi:role="line"
           id="tspan2"
           style="stroke-width:0.264583"
           x="161.57201"
           y="157.69167">2025</tspan></text>
      <text
         xml:space="preserve"
         style="font-size:3.175px;fill:none;stroke-width:0.264583"
         x="162.57195"
         y="170.39166"
         id="text3"><tspan
           sodipodi:role="line"
           id="tspan3"
           style="stroke-width:0.264583"
           x="162.57195"
           y="170.39166">202</tspan></text>
      <text
         xml:space="preserve"
         transform="scale(0.26458333)"
         id="text4"
         style="font-size:29.3333px;white-space:pre;shape-inside:url(#rect4);display:inline;fill:none" />
      <text
         xml:space="preserve"
         style="font-size:7.7611px;fill:none;stroke-width:0.264583"
         x="162.80569"
         y="150.28334"
         id="text5"><tspan
           sodipodi:role="line"
           id="tspan5"
           style="font-style:normal;font-variant:normal;font-weight:bold;font-stretch:normal;font-size:7.7611px;font-family:Sans;-inkscape-font-specification:'Sans, Bold';font-variant-ligatures:normal;font-variant-caps:normal;font-variant-numeric:normal;font-variant-east-asian:normal;stroke-width:0.264583"
           x="162.80569"
           y="150.28334">5</tspan><tspan
           sodipodi:role="line"
           style="font-style:normal;font-variant:normal;font-weight:bold;font-stretch:normal;font-size:7.7611px;font-family:Sans;-inkscape-font-specification:'Sans, Bold';font-variant-ligatures:normal;font-variant-caps:normal;font-variant-numeric:normal;font-variant-east-asian:normal;stroke-width:0.264583"
           x="162.80569"
           y="159.98471"
           id="tspan6" /></text>
      <g
         id="g1"
         transform="translate(-1.7881671,17.672517)">
        <g
           id="g26"
           transform="translate(0,-0.29618734)">
          <path
             style="font-weight:bold;font-stretch:condensed;font-size:25.2799px;font-family:Arial;-inkscape-font-specification:'Arial, Bold Condensed';fill:#96ca4f;fill-opacity:1;stroke-width:0.264584"
             d="m 169.2527,249.99242 v -17.36875 h 12.53607 v 2.93824 h -9.12238 v 3.85051 h 8.48809 v 2.92638 h -8.48809 v 4.72724 h 9.4453 v 2.92638 z"
             id="path26" />
          <path
             style="font-weight:bold;font-stretch:condensed;font-size:25.2799px;font-family:Arial;-inkscape-font-specification:'Arial, Bold Condensed';fill:#96ca4f;fill-opacity:1;stroke-width:0.264584"
             d="m 150.42418,232.62367 h 3.4137 v 9.40708 q 0,2.23922 0.12685,2.9027 0.21913,1.06629 1.03794,1.71792 0.83036,0.63977 2.26043,0.63977 1.45311,0 2.1912,-0.60423 0.73811,-0.61608 0.88803,-1.50466 0.14992,-0.88858 0.14992,-2.95008 v -9.6085 h 3.4137 v 9.12274 q 0,3.1278 -0.27679,4.41919 -0.27679,1.29141 -1.02642,2.17999 -0.73809,0.88857 -1.98363,1.42172 -1.24553,0.5213 -3.25222,0.5213 -2.42188,0 -3.67894,-0.56869 -1.24554,-0.58054 -1.9721,-1.49281 -0.72657,-0.92412 -0.95721,-1.93117 -0.33446,-1.49282 -0.33446,-4.40735 z"
             id="path25" />
          <path
             style="font-weight:bold;font-stretch:condensed;font-size:25.2799px;font-family:Arial;-inkscape-font-specification:'Arial, Bold Condensed';fill:#96ca4f;fill-opacity:1;stroke-width:0.264584"
             d="m 138.44739,243.9027 v -2.92639 h 7.35789 v 6.91906 q -1.07255,1.0663 -3.11384,1.88378 -2.02976,0.80565 -4.11718,0.80565 -2.65253,0 -4.62464,-1.13738 -1.97209,-1.14923 -2.9639,-3.26996 -0.99182,-2.1326 -0.99182,-4.63246 0,-2.71313 1.10715,-4.82202 1.10714,-2.10889 3.24069,-3.23442 1.62612,-0.86489 4.04799,-0.86489 3.14844,0 4.91294,1.3625 1.77604,1.35063 2.28348,3.74387 l -3.39062,0.65162 q -0.35752,-1.27955 -1.34933,-2.01411 -0.98029,-0.7464 -2.45647,-0.7464 -2.23735,0 -3.56362,1.45726 -1.31473,1.45727 -1.31473,4.32441 0,3.09226 1.3378,4.64431 1.3378,1.5402 3.50595,1.5402 1.07254,0 2.14508,-0.42652 1.08409,-0.43836 1.85677,-1.05445 v -2.20366 z"
             id="path24" />
          <path
             style="font-weight:bold;font-stretch:condensed;font-size:25.2799px;font-family:Arial;-inkscape-font-specification:'Arial, Bold Condensed';fill:#96ca4f;fill-opacity:1;stroke-width:0.264584"
             d="m 127.86477,249.99242 h -3.71354 l -1.47619,-3.94529 h -6.75818 l -1.39544,3.94529 h -3.6213 l 6.5852,-17.36875 h 3.60975 z m -6.28533,-6.87168 -2.32962,-6.44515 -2.28347,6.44515 z"
             id="path23" />
          <path
             style="font-weight:bold;font-stretch:condensed;font-size:25.2799px;font-family:Arial;-inkscape-font-specification:'Arial, Bold Condensed';fill:#96ca4f;fill-opacity:1;stroke-width:0.264584"
             d="m 92.891073,249.99242 v -17.36875 h 7.184897 q 2.71018,0 3.93265,0.47392 1.23401,0.46206 1.97211,1.65868 0.73809,1.19661 0.73809,2.73682 0,1.95487 -1.11867,3.23442 -1.11868,1.2677 -3.34449,1.59944 1.10714,0.66347 1.82217,1.45727 0.72656,0.7938 1.94903,2.81975 l 2.06436,3.38845 h -4.0826 l -2.468,-3.77942 q -1.31473,-2.02596 -1.799105,-2.54726 -0.48438,-0.53314 -1.02641,-0.72271 -0.54204,-0.20141 -1.718382,-0.20141 H 96.30476 v 7.2508 z m 3.413687,-10.02316 h 2.525665 q 2.456485,0 3.067715,-0.21326 0.61123,-0.21326 0.95721,-0.73456 0.34599,-0.5213 0.34599,-1.30324 0,-0.87674 -0.46131,-1.40988 -0.44978,-0.54499 -1.28013,-0.68717 -0.41518,-0.0592 -2.491072,-0.0592 H 96.30476 Z"
             id="path22" />
          <path
             style="font-weight:bold;font-stretch:condensed;font-size:25.2799px;font-family:Arial;-inkscape-font-specification:'Arial, Bold Condensed';fill:#96ca4f;fill-opacity:1;stroke-width:0.264584"
             d="m 76.620921,249.99242 v -17.36875 h 5.478044 q 3.113837,0 4.059521,0.26066 1.453124,0.39097 2.433405,1.70607 0.980282,1.30325 0.980282,3.37659 0,1.59944 -0.565105,2.68943 -0.565102,1.08999 -1.441589,1.71792 -0.864955,0.61608 -1.764508,0.8175 -1.222469,0.24879 -3.540547,0.24879 h -2.225816 v 6.55179 z m 3.413687,-14.43051 v 4.92864 h 1.868302 q 2.018226,0 2.698658,-0.27249 0.680431,-0.2725 1.06101,-0.85304 0.392114,-0.58053 0.392114,-1.35063 0,-0.94782 -0.542039,-1.5639 -0.542038,-0.61608 -1.372394,-0.7701 -0.611235,-0.11848 -2.456471,-0.11848 z"
             id="text9" />
        </g>
        <g
           id="g9"
           transform="translate(0,-0.37417734)">
          <path
             d="m 208.10846,247.18028 v 3.05738 h -11.12832 q 0.18077,-1.73369 1.0846,-3.27996 0.90381,-1.55796 3.57009,-4.12335 2.14658,-2.0734 2.63239,-2.81139 0.65527,-1.01912 0.65527,-2.01482 0,-1.10112 -0.57619,-1.68682 -0.56489,-0.59743 -1.5704,-0.59743 -0.99419,0 -1.58167,0.62085 -0.5875,0.62086 -0.67788,2.06167 l -3.16337,-0.32798 q 0.28243,-2.71768 1.77375,-3.9008 1.49129,-1.18313 3.72826,-1.18313 2.45162,0 3.85256,1.37056 1.40091,1.37054 1.40091,3.4088 0,1.1597 -0.40672,2.21397 -0.39542,1.04255 -1.26535,2.19053 -0.57619,0.76141 -2.07879,2.19053 -1.50261,1.42912 -1.90932,1.89769 -0.39543,0.46855 -0.64398,0.9137 z"
             style="font-weight:bold;font-size:40px;line-height:1.25;font-family:Arial;-inkscape-font-specification:'Arial, Bold';white-space:pre;shape-inside:url(#rect1965);fill:#96ca4f;stroke-width:0.589007"
             id="path13622" />
          <path
             d="m 219.06665,232.70166 q 2.40644,0 3.76217,1.78055 1.61558,2.10854 1.61558,6.99332 0,4.87305 -1.62688,7.00502 -1.34443,1.75711 -3.75087,1.75711 -2.41772,0 -3.89773,-1.92111 -1.48001,-1.93282 -1.48001,-6.87618 0,-4.84962 1.62688,-6.98158 1.34443,-1.75713 3.75086,-1.75713 z m 0,2.72939 q -0.57619,0 -1.0281,0.38657 -0.4519,0.37484 -0.70045,1.35883 -0.32764,1.27683 -0.32764,4.29908 0,3.02223 0.29374,4.1585 0.29374,1.12455 0.73435,1.4994 0.45191,0.37485 1.0281,0.37485 0.57619,0 1.02811,-0.37485 0.45191,-0.38657 0.70045,-1.37055 0.32764,-1.26512 0.32764,-4.28735 0,-3.02225 -0.29374,-4.14679 -0.29374,-1.13628 -0.74566,-1.51112 -0.44061,-0.38657 -1.0168,-0.38657 z"
             style="font-weight:bold;font-size:40px;line-height:1.25;font-family:Arial;-inkscape-font-specification:'Arial, Bold';white-space:pre;shape-inside:url(#rect1965);fill:#96ca4f;stroke-width:0.589007"
             id="path13624" />
          <path
             d="m 241.15315,247.18028 v 3.05738 h -11.12831 q 0.18076,-1.73369 1.08458,-3.27996 0.90382,-1.55796 3.5701,-4.12335 2.14657,-2.0734 2.63238,-2.81139 0.65528,-1.01912 0.65528,-2.01482 0,-1.10112 -0.57619,-1.68682 -0.5649,-0.59743 -1.5704,-0.59743 -0.9942,0 -1.58168,0.62085 -0.58748,0.62086 -0.67786,2.06167 l -3.1634,-0.32798 q 0.28245,-2.71768 1.77376,-3.9008 1.49131,-1.18313 3.72828,-1.18313 2.45161,0 3.85254,1.37056 1.40092,1.37054 1.40092,3.4088 0,1.1597 -0.40671,2.21397 -0.39543,1.04255 -1.26536,2.19053 -0.57619,0.76141 -2.0788,2.19053 -1.50259,1.42912 -1.90933,1.89769 -0.39541,0.46855 -0.64397,0.9137 z"
             style="font-weight:bold;font-size:40px;line-height:1.25;font-family:Arial;-inkscape-font-specification:'Arial, Bold';white-space:pre;shape-inside:url(#rect1965);fill:#96ca4f;stroke-width:0.589007"
             id="path13626" />
          <path
             style="font-weight:bold;font-stretch:condensed;font-size:29.3333px;font-family:Arial;-inkscape-font-specification:'Arial, Bold Condensed';white-space:pre;fill:#96ca4f;fill-opacity:1;stroke-width:0.264584"
             d="m 247.26877,245.62355 3.10366,-0.33286 q 0.13304,1.0904 0.78706,1.73316 0.65395,0.63129 1.50749,0.63129 0.97543,0 1.65159,-0.81493 0.67616,-0.82641 0.67616,-2.47922 0,-1.54952 -0.67616,-2.31854 -0.66509,-0.7805 -1.74028,-0.7805 -1.34125,0 -2.40537,1.22813 l -2.52726,-0.37876 1.59618,-8.75763 h 8.23581 v 3.01868 h -5.87479 l -0.48771,2.85799 q 1.04191,-0.53946 2.12824,-0.53946 2.07282,0 3.51375,1.561 1.44101,1.56099 1.44101,4.05169 0,2.0775 -1.16387,3.70736 -1.58511,2.22671 -4.40058,2.22671 -2.25012,0 -3.669,-1.25108 -1.4188,-1.2511 -1.69593,-3.36303 z"
             id="path9" />
        </g>
      </g>
      <text
         xml:space="preserve"
         style="font-weight:bold;font-stretch:condensed;font-size:7.7611px;font-family:Arial;-inkscape-font-specification:'Arial, Bold Condensed';fill:#231a4f;stroke-width:0.264583"
         x="228.24818"
         y="263.98212"
         id="text6"><tspan
           sodipodi:role="line"
           id="tspan1"
           style="stroke-width:0.264583"
           x="228.24818"
           y="263.98212" /></text>
    </g>
  </g>
</svg>
