<?xml version="1.0" encoding="UTF-8" standalone="no"?>
<!-- Created with Inkscape (http://www.inkscape.org/) -->

<svg
   width="331.24274mm"
   height="250mm"
   viewBox="0 0 331.24275 250"
   version="1.1"
   id="svg5"
   inkscape:version="1.3.2 (091e20e, 2023-11-25)"
   sodipodi:docname="sel4_summit_2026.svg"
   inkscape:export-filename="C:\Users\Birgit Brecknell\Documents\}} seL4 Foundation\summit\summit location logos\sel4_summit_2024.png"
   inkscape:export-xdpi="96"
   inkscape:export-ydpi="96"
   xmlns:inkscape="http://www.inkscape.org/namespaces/inkscape"
   xmlns:sodipodi="http://sodipodi.sourceforge.net/DTD/sodipodi-0.dtd"
   xmlns:xlink="http://www.w3.org/1999/xlink"
   xmlns="http://www.w3.org/2000/svg"
   xmlns:svg="http://www.w3.org/2000/svg">
  <sodipodi:namedview
     id="namedview7"
     pagecolor="#ffffff"
     bordercolor="#666666"
     borderopacity="1.0"
     inkscape:pageshadow="2"
     inkscape:pageopacity="0.0"
     inkscape:pagecheckerboard="0"
     inkscape:document-units="mm"
     showgrid="false"
     inkscape:zoom="1"
     inkscape:cx="979"
     inkscape:cy="911.5"
     inkscape:window-width="1464"
     inkscape:window-height="916"
     inkscape:window-x="48"
     inkscape:window-y="38"
     inkscape:window-maximized="0"
     inkscape:current-layer="g12656"
     fit-margin-top="0"
     fit-margin-left="0"
     fit-margin-right="0"
     fit-margin-bottom="0"
     showguides="true"
     inkscape:guide-bbox="true"
     inkscape:snap-nodes="false"
     inkscape:showpageshadow="2"
     inkscape:deskcolor="#d1d1d1" />
  <defs
     id="defs2">
    <rect
       x="5.6568543"
       y="618.01133"
       width="84.852814"
       height="45.254834"
       id="rect8" />
    <rect
       x="1100"
       y="546"
       width="122"
       height="58"
       id="rect7" />
    <rect
       x="1000"
       y="542"
       width="182"
       height="90"
       id="rect4" />
    <rect
       x="1016"
       y="562"
       width="132"
       height="82"
       id="rect1" />
    <rect
       x="27.598793"
       y="613.79717"
       width="397.42263"
       height="142.40977"
       id="rect1965" />
    <color-profile
       name="Agfa-:-Swop-Standard"
       xlink:href="file:///WINDOWS/system32/spool/drivers/color/RSWOP.icm"
       id="color-profile2" />
    <rect
       x="680.69342"
       y="102.26014"
       width="15.612235"
       height="115.53054"
       id="rect9649" />
    <style
       id="style824">.cls-1,.cls-2,.cls-3{fill:#96ca4f;}.cls-2,.cls-3{stroke:#96ca4f;stroke-miterlimit:8;}.cls-3{stroke-width:0.25px;}</style>
  </defs>
  <g
     inkscape:label="Layer 1"
     inkscape:groupmode="layer"
     id="layer1">
    <g
       id="g1204"
       transform="scale(1.9530976)"
       sodipodi:insensitive="true" />
    <g
       id="g12656">
      <g
         id="g26"
         transform="translate(0,-0.29618734)">
        <path
           style="font-weight:bold;font-stretch:condensed;font-size:25.2799px;font-family:Arial;-inkscape-font-specification:'Arial, Bold Condensed';fill:#96ca4f;fill-opacity:1;stroke-width:0.264584"
           d="m 169.2527,249.99242 v -17.36875 h 12.53607 v 2.93824 h -9.12238 v 3.85051 h 8.48809 v 2.92638 h -8.48809 v 4.72724 h 9.4453 v 2.92638 z"
           id="path26" />
        <path
           style="font-weight:bold;font-stretch:condensed;font-size:25.2799px;font-family:Arial;-inkscape-font-specification:'Arial, Bold Condensed';fill:#96ca4f;fill-opacity:1;stroke-width:0.264584"
           d="m 150.42418,232.62367 h 3.4137 v 9.40708 q 0,2.23922 0.12685,2.9027 0.21913,1.06629 1.03794,1.71792 0.83036,0.63977 2.26043,0.63977 1.45311,0 2.1912,-0.60423 0.73811,-0.61608 0.88803,-1.50466 0.14992,-0.88858 0.14992,-2.95008 v -9.6085 h 3.4137 v 9.12274 q 0,3.1278 -0.27679,4.41919 -0.27679,1.29141 -1.02642,2.17999 -0.73809,0.88857 -1.98363,1.42172 -1.24553,0.5213 -3.25222,0.5213 -2.42188,0 -3.67894,-0.56869 -1.24554,-0.58054 -1.9721,-1.49281 -0.72657,-0.92412 -0.95721,-1.93117 -0.33446,-1.49282 -0.33446,-4.40735 z"
           id="path25" />
        <path
           style="font-weight:bold;font-stretch:condensed;font-size:25.2799px;font-family:Arial;-inkscape-font-specification:'Arial, Bold Condensed';fill:#96ca4f;fill-opacity:1;stroke-width:0.264584"
           d="m 138.44739,243.9027 v -2.92639 h 7.35789 v 6.91906 q -1.07255,1.0663 -3.11384,1.88378 -2.02976,0.80565 -4.11718,0.80565 -2.65253,0 -4.62464,-1.13738 -1.97209,-1.14923 -2.9639,-3.26996 -0.99182,-2.1326 -0.99182,-4.63246 0,-2.71313 1.10715,-4.82202 1.10714,-2.10889 3.24069,-3.23442 1.62612,-0.86489 4.04799,-0.86489 3.14844,0 4.91294,1.3625 1.77604,1.35063 2.28348,3.74387 l -3.39062,0.65162 q -0.35752,-1.27955 -1.34933,-2.01411 -0.98029,-0.7464 -2.45647,-0.7464 -2.23735,0 -3.56362,1.45726 -1.31473,1.45727 -1.31473,4.32441 0,3.09226 1.3378,4.64431 1.3378,1.5402 3.50595,1.5402 1.07254,0 2.14508,-0.42652 1.08409,-0.43836 1.85677,-1.05445 v -2.20366 z"
           id="path24" />
        <path
           style="font-weight:bold;font-stretch:condensed;font-size:25.2799px;font-family:Arial;-inkscape-font-specification:'Arial, Bold Condensed';fill:#96ca4f;fill-opacity:1;stroke-width:0.264584"
           d="m 127.86477,249.99242 h -3.71354 l -1.47619,-3.94529 h -6.75818 l -1.39544,3.94529 h -3.6213 l 6.5852,-17.36875 h 3.60975 z m -6.28533,-6.87168 -2.32962,-6.44515 -2.28347,6.44515 z"
           id="path23" />
        <path
           style="font-weight:bold;font-stretch:condensed;font-size:25.2799px;font-family:Arial;-inkscape-font-specification:'Arial, Bold Condensed';fill:#96ca4f;fill-opacity:1;stroke-width:0.264584"
           d="m 92.891073,249.99242 v -17.36875 h 7.184897 q 2.71018,0 3.93265,0.47392 1.23401,0.46206 1.97211,1.65868 0.73809,1.19661 0.73809,2.73682 0,1.95487 -1.11867,3.23442 -1.11868,1.2677 -3.34449,1.59944 1.10714,0.66347 1.82217,1.45727 0.72656,0.7938 1.94903,2.81975 l 2.06436,3.38845 h -4.0826 l -2.468,-3.77942 q -1.31473,-2.02596 -1.799105,-2.54726 -0.48438,-0.53314 -1.02641,-0.72271 -0.54204,-0.20141 -1.718382,-0.20141 H 96.30476 v 7.2508 z m 3.413687,-10.02316 h 2.525665 q 2.456485,0 3.067715,-0.21326 0.61123,-0.21326 0.95721,-0.73456 0.34599,-0.5213 0.34599,-1.30324 0,-0.87674 -0.46131,-1.40988 -0.44978,-0.54499 -1.28013,-0.68717 -0.41518,-0.0592 -2.491072,-0.0592 H 96.30476 Z"
           id="path22" />
        <path
           style="font-weight:bold;font-stretch:condensed;font-size:25.2799px;font-family:Arial;-inkscape-font-specification:'Arial, Bold Condensed';fill:#96ca4f;fill-opacity:1;stroke-width:0.264584"
           d="m 76.620921,249.99242 v -17.36875 h 5.478044 q 3.113837,0 4.059521,0.26066 1.453124,0.39097 2.433405,1.70607 0.980282,1.30325 0.980282,3.37659 0,1.59944 -0.565105,2.68943 -0.565102,1.08999 -1.441589,1.71792 -0.864955,0.61608 -1.764508,0.8175 -1.222469,0.24879 -3.540547,0.24879 h -2.225816 v 6.55179 z m 3.413687,-14.43051 v 4.92864 h 1.868302 q 2.018226,0 2.698658,-0.27249 0.680431,-0.2725 1.06101,-0.85304 0.392114,-0.58053 0.392114,-1.35063 0,-0.94782 -0.542039,-1.5639 -0.542038,-0.61608 -1.372394,-0.7701 -0.611235,-0.11848 -2.456471,-0.11848 z"
           id="text9" />
      </g>
      <text
         xml:space="preserve"
         transform="scale(0.38298209)"
         id="text9647"
         style="font-style:normal;font-weight:normal;font-size:40px;line-height:1.25;font-family:sans-serif;white-space:pre;shape-inside:url(#rect9649);display:inline;fill:#000000;fill-opacity:1;stroke:none" />
      <g
         id="g985"
         transform="matrix(1.4474914,0,0,1.4474914,1.9162771,0)">
        <polygon
           class="cls-2"
           points="0.2,45.29 102.2,1.81 105.34,10.07 "
           id="polygon830"
           transform="matrix(1.0865432,0,0,1.0865432,-0.00427367,0)" />
        <polygon
           class="cls-1"
           points="102.01,1.34 105.31,0 108.62,1.35 "
           id="polygon828"
           transform="matrix(1.0865432,0,0,1.0865432,-0.00427367,0)" />
        <polygon
           class="cls-1"
           points="102.28,1.31 105.31,9.32 108.33,1.31 "
           id="polygon832"
           transform="matrix(1.0865432,0,0,1.0865432,-0.00427367,0)" />
        <polygon
           class="cls-2"
           points="105.28,10.07 210.42,45.29 108.42,1.81 "
           id="polygon834"
           transform="matrix(1.0865432,0,0,1.0865432,-0.00427367,0)" />
        <path
           class="cls-1"
           d="M 180.63353,67.387409 V 42.331723 H 168.5729 l -21.0572,25.099148 h -5.89993 V 36.46439 h -11.789 v 30.966481 h -6.08464 c 0,-0.575868 0.0869,-1.238659 0.0869,-2.042701 v -0.73885 h -7.35589 v 2.107894 a 6.866953,6.866953 0 0 1 -0.40202,2.857609 1.8253926,1.8253926 0 0 1 -1.80367,0.956158 1.6298148,1.6298148 0 0 1 -1.54289,-0.771446 5.432716,5.432716 0 0 1 -0.34769,-2.531645 v -6.171566 h 11.4413 v -2.966263 a 14.125062,14.125062 0 0 0 -0.92356,-5.682621 6.8560876,6.8560876 0 0 0 -3.17271,-3.129244 12.690825,12.690825 0 0 0 -5.89993,-1.206063 12.484381,12.484381 0 0 0 -5.17194,1.010485 6.2476234,6.2476234 0 0 0 -3.12925,2.792416 11.452165,11.452165 0 0 0 -0.96702,5.171946 v 7.605802 a 21.730864,21.730864 0 0 0 0.14125,2.716358 h -3.25963 c 0,-0.304232 0,-0.608464 0,-0.945292 a 6.3454123,6.3454123 0 0 0 -1.08654,-4.031076 13.679579,13.679579 0 0 0 -4.856852,-3.042321 23.90395,23.90395 0 0 1 -3.911555,-1.999239 3.2596296,3.2596296 0 0 1 -1.325583,-1.434237 6.5192592,6.5192592 0 0 1 -0.206443,-1.923182 2.5207802,2.5207802 0 0 1 0.488944,-1.651545 1.8471234,1.8471234 0 0 1 1.510295,-0.630195 1.6298148,1.6298148 0 0 1 1.61895,0.771445 6.3671432,6.3671432 0 0 1 0.271635,2.520781 v 1.412506 h 6.812629 v -1.586353 a 12.114957,12.114957 0 0 0 -0.21731,-2.770686 4.0419407,4.0419407 0 0 0 -1.173468,-1.771065 7.2581086,7.2581086 0 0 0 -2.90107,-1.618949 15.537568,15.537568 0 0 0 -4.75906,-0.630195 14.472755,14.472755 0 0 0 -4.932906,0.771445 5.432716,5.432716 0 0 0 -2.857608,2.086163 8.5184987,8.5184987 0 0 0 -0.847504,4.346173 7.4428209,7.4428209 0 0 0 0.793177,3.563862 c 0.510675,0.967023 2.042701,2.097028 4.530885,3.357418 4.172326,2.086163 4.998098,2.6403 5.269734,2.890205 a 3.8572284,3.8572284 0 0 1 0.641061,2.705493 3.2596296,3.2596296 0 0 1 -0.49981,2.173086 2.1730864,2.1730864 0 0 1 -1.705873,0.597599 1.6298148,1.6298148 0 0 1 -1.629815,-0.923562 7.1059925,7.1059925 0 0 1 -0.325963,-2.966263 V 64.50807 h -6.834357 v 1.7602 c 0,0.412886 0,0.782311 0,1.14087 h -6.519259 a 27.793775,27.793775 0 1 0 0,9.594177 H 168.36646 V 86.15201 H 180.677 v -9.126963 h 5.43271 V 67.387409 Z M 38.9483,78.883036 a 6.6279135,6.6279135 0 1 1 6.638779,-6.627913 6.6279135,6.6279135 0 0 1 -6.638779,6.627913 z m 73.38513,-22.665291 a 8.225132,8.225132 0 0 1 0.26077,-2.911936 c 0.16298,-0.369424 0.57587,-0.814907 1.60808,-0.814907 a 1.4776988,1.4776988 0 0 1 1.46684,0.912696 8.0295542,8.0295542 0 0 1 0.27163,2.814147 v 2.422992 h -3.60732 z m 56.03303,11.169664 h -10.45254 l 10.45254,-13.364481 z"
           id="path858"
           style="stroke-width:1.08654" />
        <path
           id="path1025"
           style="font-weight:bold;font-stretch:condensed;font-size:5.22315px;line-height:10;font-family:Arial;-inkscape-font-specification:'Arial Bold Condensed';text-align:center;letter-spacing:3.91736px;word-spacing:0px;text-anchor:middle;fill:#96ca4f;stroke-width:0.760493"
           d="m 158.64022,85.836046 v -5.407299 h -1.99521 v -1.100995 h 5.33732 v 1.100995 h -1.98962 v 5.407299 z m -12.74808,0 v -6.508294 h 1.35249 v 6.508294 z m -16.38082,0 v -6.508294 h 2.02874 l 1.21836,4.439491 1.20719,-4.439491 h 2.03433 v 6.508294 h -1.25749 v -5.123172 l -1.33572,5.123172 h -1.30779 l -1.32455,-5.123172 v 5.123172 z m -16.40317,0 v -6.508294 h 2.02874 l 1.21836,4.439491 1.20719,-4.439491 h 2.03433 v 6.508294 h -1.25749 v -5.123172 l -1.33572,5.123172 h -1.30779 l -1.32455,-5.123172 v 5.123172 z M 97.755675,79.327752 h 1.352495 v 3.524957 q 0,0.821305 0.05029,1.069916 0.08943,0.430631 0.424752,0.665925 0.340915,0.235291 0.894208,0.235291 0.46946,0 0.76567,-0.164255 0.29621,-0.168689 0.4024,-0.461707 0.11177,-0.297447 0.11177,-1.269695 v -3.600432 h 1.35809 v 3.418409 q 0,1.30965 -0.17884,1.895661 -0.17326,0.581574 -0.79362,0.945612 -0.61477,0.359599 -1.62634,0.359599 -1.050703,0 -1.643117,-0.297447 -0.586826,-0.301885 -0.855087,-0.843502 -0.262676,-0.546057 -0.262676,-2.00665 z m -15.173628,4.390657 1.324547,-0.124314 q 0.223554,1.247498 1.464271,1.247498 0.614769,0 0.966865,-0.253051 0.352097,-0.257491 0.352097,-0.634847 0,-0.221975 -0.122967,-0.377358 -0.122948,-0.155369 -0.374452,-0.253049 -0.251495,-0.102108 -1.218362,-0.337403 -0.866267,-0.208656 -1.268662,-0.452828 -0.402393,-0.244172 -0.642713,-0.639286 -0.234729,-0.399555 -0.234729,-0.856822 0,-0.532739 0.301794,-0.95893 0.307386,-0.426191 0.843914,-0.643725 0.536526,-0.217536 1.324548,-0.217536 1.184829,0 1.8499,0.510541 0.665067,0.510542 0.704189,1.460591 l -1.358082,0.05773 q -0.08943,-0.52386 -0.385628,-0.732517 -0.296209,-0.208655 -0.843912,-0.208655 -0.547705,0 -0.843912,0.182028 -0.296205,0.182009 -0.296205,0.452828 0,0.266369 0.268262,0.448388 0.268264,0.182029 1.235127,0.399555 1.022754,0.235292 1.475448,0.497224 0.458285,0.25749 0.698602,0.670361 0.240319,0.408434 0.240319,0.994447 0,0.847941 -0.659479,1.425076 -0.653891,0.577132 -2.051094,0.577132 -2.470259,0 -2.749698,-2.233062 z" />
        <path
           sodipodi:type="star"
           style="fill:#96ca4f;fill-opacity:1;stroke:none;stroke-width:1.88976"
           id="path43980-0"
           inkscape:flatsided="true"
           sodipodi:sides="3"
           sodipodi:cx="479.11505"
           sodipodi:cy="21.527058"
           sodipodi:r1="87.493645"
           sodipodi:r2="31.308516"
           sodipodi:arg1="-2.1473854"
           sodipodi:arg2="-1.1001879"
           inkscape:rounded="0"
           inkscape:randomized="0"
           transform="matrix(-0.68360801,0.28369245,0.15657605,0.03663156,384.8223,-112.11704)"
           inkscape:transform-center-x="-0.51998471"
           inkscape:transform-center-y="0.07633973"
           d="M 431.41635,-51.821231 566.48588,16.892913 439.44292,99.509492 Z" />
        <path
           sodipodi:type="star"
           style="fill:#96ca4f;fill-opacity:1;stroke-width:1.88976"
           id="path1277"
           inkscape:flatsided="true"
           sodipodi:sides="3"
           sodipodi:cx="56.30154"
           sodipodi:cy="30.910648"
           sodipodi:r1="10.973231"
           sodipodi:r2="8.780798"
           sodipodi:arg1="0.49692007"
           sodipodi:arg2="1.5441176"
           inkscape:rounded="0"
           inkscape:randomized="0"
           transform="matrix(0.42083835,-0.32747834,0.26430616,0.42405415,52.947388,18.259702)"
           inkscape:transform-center-x="0.69767945"
           inkscape:transform-center-y="1.8525304"
           d="m 65.947614,36.141811 -18.999431,0.507001 9.06064,-16.70749 z" />
        <path
           sodipodi:type="star"
           style="fill:#96ca4f;fill-opacity:1;stroke:none;stroke-width:1.88976"
           id="path43980-0-9"
           inkscape:flatsided="true"
           sodipodi:sides="3"
           sodipodi:cx="479.11505"
           sodipodi:cy="21.527058"
           sodipodi:r1="87.493645"
           sodipodi:r2="31.308516"
           sodipodi:arg1="-2.1473854"
           sodipodi:arg2="-1.1001879"
           inkscape:rounded="0"
           inkscape:randomized="0"
           transform="matrix(0.68360801,0.28369245,-0.15657605,0.03663156,-155.98313,-112.11704)"
           inkscape:transform-center-x="-0.51998471"
           inkscape:transform-center-y="0.07633973"
           d="M 431.41635,-51.821231 566.48588,16.892913 439.44292,99.509492 Z" />
        <path
           sodipodi:type="star"
           style="fill:#96ca4f;fill-opacity:1;stroke-width:1.88976"
           id="path1277-2"
           inkscape:flatsided="true"
           sodipodi:sides="3"
           sodipodi:cx="56.30154"
           sodipodi:cy="30.910648"
           sodipodi:r1="10.973231"
           sodipodi:r2="8.780798"
           sodipodi:arg1="0.49692007"
           sodipodi:arg2="1.5441176"
           inkscape:rounded="0"
           inkscape:randomized="0"
           transform="matrix(-0.42083835,-0.32747834,-0.26430616,0.42405415,175.89178,18.259702)"
           inkscape:transform-center-x="0.69767945"
           inkscape:transform-center-y="1.8525304"
           d="m 65.947614,36.141811 -18.999431,0.507001 9.06064,-16.70749 z" />
      </g>
      <g
         id="g3802"
         transform="scale(1.4474914)" />
      <g
         id="g258"
         transform="matrix(1.4474914,0,0,1.4474914,-36.98074,8.8786689)">
        <g
           id="g216">
          <path
             style="font-weight:bold;font-stretch:condensed;font-size:5.22315px;line-height:10;font-family:Arial;-inkscape-font-specification:'Arial Bold Condensed';text-align:center;letter-spacing:3.91736px;word-spacing:0px;text-anchor:middle;fill:#96ca4f;stroke-width:1.39672"
             d="m 124.84334,129.04298 2.43265,-0.22832 q 0.41056,2.29113 2.68924,2.29113 1.12907,0 1.77572,-0.46474 0.64665,-0.47291 0.64665,-1.16596 0,-0.40766 -0.22584,-0.69305 -0.22579,-0.28535 -0.68772,-0.46475 -0.46186,-0.18752 -2.2376,-0.61967 -1.59098,-0.38319 -2.33,-0.83164 -0.73904,-0.44845 -1.18041,-1.1741 -0.43108,-0.73383 -0.43108,-1.57362 0,-0.97842 0.55427,-1.76115 0.56454,-0.78275 1.54989,-1.18226 0.98539,-0.39953 2.43266,-0.39953 2.17603,0 3.39748,0.93767 1.22147,0.93764 1.2933,2.68249 l -2.49421,0.10603 q -0.1642,-0.9621 -0.70824,-1.34531 -0.54401,-0.38324 -1.54992,-0.38324 -1.00591,0 -1.5499,0.33432 -0.54402,0.33428 -0.54402,0.83166 0,0.48921 0.49269,0.8235 0.49269,0.33432 2.26841,0.7338 1.87836,0.43216 2.70978,0.91321 0.84167,0.4729 1.28304,1.23117 0.44136,0.75012 0.44136,1.82639 0,1.55731 -1.21118,2.61725 -1.20093,1.05995 -3.767,1.05995 -4.53683,0 -5.05004,-4.10121 z"
             id="path20783" />
          <path
             style="font-weight:bold;font-stretch:condensed;font-size:5.22315px;line-height:10;font-family:Arial;-inkscape-font-specification:'Arial Bold Condensed';text-align:center;letter-spacing:3.91736px;word-spacing:0px;text-anchor:middle;fill:#96ca4f;stroke-width:1.39672"
             d="m 140.41343,120.98737 h 2.48396 v 6.47387 q 0,1.50838 0.0924,1.96497 0.16419,0.79089 0.7801,1.22303 0.62612,0.43213 1.64227,0.43213 0.86221,0 1.40622,-0.30167 0.54401,-0.30981 0.73903,-0.84796 0.20528,-0.54627 0.20528,-2.33189 v -6.61248 h 2.49424 v 6.27818 q 0,2.40529 -0.32846,3.48152 -0.3182,1.06811 -1.45754,1.7367 -1.12909,0.66044 -2.9869,0.66044 -1.92971,0 -3.0177,-0.5463 -1.07776,-0.55441 -1.57046,-1.54917 -0.48243,-1.00287 -0.48243,-3.68536 z"
             id="path20781" />
          <path
             style="font-weight:bold;font-stretch:condensed;font-size:5.22315px;line-height:10;font-family:Arial;-inkscape-font-specification:'Arial Bold Condensed';text-align:center;letter-spacing:3.91736px;word-spacing:0px;text-anchor:middle;fill:#96ca4f;stroke-width:1.39672"
             d="m 155.79882,133.14421 v -11.95299 h 3.72594 l 2.23761,8.15347 2.2171,-8.15347 h 3.73621 v 11.95299 h -2.30947 v -9.4091 l -2.45317,9.4091 h -2.40187 l -2.43263,-9.4091 v 9.4091 z"
             id="path20779" />
          <path
             style="font-weight:bold;font-stretch:condensed;font-size:5.22315px;line-height:10;font-family:Arial;-inkscape-font-specification:'Arial Bold Condensed';text-align:center;letter-spacing:3.91736px;word-spacing:0px;text-anchor:middle;fill:#96ca4f;stroke-width:1.39672"
             d="m 173.25758,133.14421 v -11.95299 h 3.72595 l 2.23761,8.15347 2.2171,-8.15347 h 3.7362 v 11.95299 h -2.30947 v -9.4091 l -2.45316,9.4091 h -2.40186 l -2.43265,-9.4091 v 9.4091 z"
             id="path20777" />
          <path
             style="font-weight:bold;font-stretch:condensed;font-size:5.22315px;line-height:10;font-family:Arial;-inkscape-font-specification:'Arial Bold Condensed';text-align:center;letter-spacing:3.91736px;word-spacing:0px;text-anchor:middle;fill:#96ca4f;stroke-width:1.39672"
             d="m 190.71633,133.14421 v -11.95299 h 2.48396 v 11.95299 z"
             id="path20775" />
          <path
             style="font-weight:bold;font-stretch:condensed;font-size:5.22315px;line-height:10;font-family:Arial;-inkscape-font-specification:'Arial Bold Condensed';text-align:center;letter-spacing:3.91736px;word-spacing:0px;text-anchor:middle;fill:#96ca4f;stroke-width:1.39672"
             d="m 202.40656,133.14421 v -9.93094 h -3.66438 v -2.02205 h 9.80242 v 2.02205 h -3.6541 v 9.93094 z"
             id="path20771" />
        </g>
        <g
           id="g208"
           transform="translate(-92.007478,-44.68935)">
          <path
             d="m 166.0461,175.19597 2.34563,-0.34684 q 0.30462,1.34702 1.88868,1.34702 0.8428,0 1.25912,-0.25811 0.41632,-0.25811 0.41632,-0.66947 0,-0.28232 -0.18277,-0.44364 -0.19293,-0.16132 -0.76157,-0.2823 -2.88379,-0.60495 -3.66567,-1.15344 -0.9748,-0.68562 -0.9748,-1.87938 0,-1.19379 0.9545,-1.91166 0.95449,-0.71787 2.77209,-0.71787 1.73637,0 2.6401,0.54042 0.90372,0.53236 1.26928,1.72613 l -2.20347,0.39523 q -0.29447,-1.03246 -1.66529,-1.03246 -0.86311,0 -1.22866,0.20166 -0.36555,0.1936 -0.36555,0.50816 0,0.28231 0.33509,0.46783 0.33509,0.19358 2.08161,0.58076 1.95976,0.43556 2.6604,1.05665 0.69049,0.62108 0.69049,1.65352 0,1.24217 -1.07635,2.04878 -1.06619,0.8066 -2.95487,0.8066 -1.71606,0 -2.80256,-0.66948 -1.0865,-0.67754 -1.43175,-1.96811 z"
             style="font-weight:bold;font-stretch:condensed;font-size:16.2278px;line-height:10;font-family:Arial;-inkscape-font-specification:'Arial Bold Condensed';text-align:center;letter-spacing:3.91736px;word-spacing:0px;text-anchor:middle;fill:#96ca4f;stroke-width:0.444728"
             id="path21173" />
          <path
             d="m 182.64348,174.91366 2.32532,0.37911 q -0.4671,1.29056 -1.45205,1.9197 -0.98497,0.62109 -2.3964,0.62109 -1.95976,0 -3.02596,-1.04051 -1.25911,-1.20991 -1.25911,-3.38774 0,-2.14555 1.26927,-3.43613 1.07635,-1.0889 2.78225,-1.0889 1.89884,0 2.97519,1.11311 1.23881,1.27443 1.23881,3.75877 l -0.0103,0.2581 h -5.85898 q 0.0203,1.01632 0.56863,1.57288 0.55849,0.55655 1.34036,0.55655 1.12712,0 1.50283,-1.22603 z m 0.13201,-2.29075 q -0.0305,-1.00019 -0.53818,-1.50028 -0.50771,-0.50817 -1.20835,-0.50817 -0.74125,0 -1.24896,0.5243 -0.51787,0.53236 -0.50772,1.48415 z"
             style="font-weight:bold;font-stretch:condensed;font-size:16.2278px;line-height:10;font-family:Arial;-inkscape-font-specification:'Arial Bold Condensed';text-align:center;letter-spacing:3.91736px;word-spacing:0px;text-anchor:middle;fill:#96ca4f;stroke-width:0.444728"
             id="path21170" />
          <path
             d="m 187.62445,177.83356 v -11.72799 h 2.45731 v 9.73568 h 6.13315 v 1.99231 z"
             style="font-weight:bold;font-stretch:condensed;font-size:16.2278px;line-height:10;font-family:Arial;-inkscape-font-specification:'Arial Bold Condensed';text-align:center;letter-spacing:3.91736px;word-spacing:0px;text-anchor:middle;fill:#96ca4f;stroke-width:0.444728"
             id="path21167" />
          <path
             d="m 203.73443,177.83356 v -2.37948 h -4.99587 v -1.98424 l 5.29033,-7.50946 h 1.96993 v 7.5014 h 1.51296 v 1.9923 h -1.51296 v 2.37948 z m 0,-4.37178 v -4.04108 l -2.80256,4.04108 z"
             style="font-weight:bold;font-stretch:condensed;font-size:16.2278px;line-height:10;font-family:Arial;-inkscape-font-specification:'Arial Bold Condensed';text-align:center;letter-spacing:3.91736px;word-spacing:0px;text-anchor:middle;fill:#96ca4f;stroke-width:0.444728"
             id="path21164" />
        </g>
      </g>
      <text
         xml:space="preserve"
         transform="scale(0.26458333)"
         id="text1"
         style="white-space:pre;shape-inside:url(#rect1);display:inline;fill:none" />
      <text
         xml:space="preserve"
         style="font-size:3.175px;fill:none;stroke-width:0.264583"
         x="286.80835"
         y="157.69167"
         id="text2"><tspan
           sodipodi:role="line"
           id="tspan2"
           style="stroke-width:0.264583"
           x="286.80835"
           y="157.69167">2025</tspan></text>
      <text
         xml:space="preserve"
         style="font-size:3.175px;fill:none;stroke-width:0.264583"
         x="294.21667"
         y="170.39166"
         id="text3"><tspan
           sodipodi:role="line"
           id="tspan3"
           style="stroke-width:0.264583"
           x="294.21667"
           y="170.39166">202</tspan></text>
      <text
         xml:space="preserve"
         transform="scale(0.26458333)"
         id="text4"
         style="font-size:29.3333px;white-space:pre;shape-inside:url(#rect4);display:inline;fill:none" />
      <text
         xml:space="preserve"
         style="font-size:7.7611px;fill:none;stroke-width:0.264583"
         x="286.80835"
         y="150.28334"
         id="text5"><tspan
           sodipodi:role="line"
           id="tspan5"
           style="font-style:normal;font-variant:normal;font-weight:bold;font-stretch:normal;font-size:7.7611px;font-family:Sans;-inkscape-font-specification:'Sans, Bold';font-variant-ligatures:normal;font-variant-caps:normal;font-variant-numeric:normal;font-variant-east-asian:normal;stroke-width:0.264583"
           x="286.80835"
           y="150.28334">5</tspan><tspan
           sodipodi:role="line"
           style="font-style:normal;font-variant:normal;font-weight:bold;font-stretch:normal;font-size:7.7611px;font-family:Sans;-inkscape-font-specification:'Sans, Bold';font-variant-ligatures:normal;font-variant-caps:normal;font-variant-numeric:normal;font-variant-east-asian:normal;stroke-width:0.264583"
           x="286.80835"
           y="159.98473"
           id="tspan6" /></text>
      <g
         id="g9"
         transform="translate(0,-0.37417734)">
        <path
           d="m 208.10846,247.18028 v 3.05738 h -11.12832 q 0.18077,-1.73369 1.0846,-3.27996 0.90381,-1.55796 3.57009,-4.12335 2.14658,-2.0734 2.63239,-2.81139 0.65527,-1.01912 0.65527,-2.01482 0,-1.10112 -0.57619,-1.68682 -0.56489,-0.59743 -1.5704,-0.59743 -0.99419,0 -1.58167,0.62085 -0.5875,0.62086 -0.67788,2.06167 l -3.16337,-0.32798 q 0.28243,-2.71768 1.77375,-3.9008 1.49129,-1.18313 3.72826,-1.18313 2.45162,0 3.85256,1.37056 1.40091,1.37054 1.40091,3.4088 0,1.1597 -0.40672,2.21397 -0.39542,1.04255 -1.26535,2.19053 -0.57619,0.76141 -2.07879,2.19053 -1.50261,1.42912 -1.90932,1.89769 -0.39543,0.46855 -0.64398,0.9137 z"
           style="font-weight:bold;font-size:40px;line-height:1.25;font-family:Arial;-inkscape-font-specification:'Arial, Bold';white-space:pre;shape-inside:url(#rect1965);fill:#96ca4f;stroke-width:0.589007"
           id="path13622" />
        <path
           d="m 219.06665,232.70166 q 2.40644,0 3.76217,1.78055 1.61558,2.10854 1.61558,6.99332 0,4.87305 -1.62688,7.00502 -1.34443,1.75711 -3.75087,1.75711 -2.41772,0 -3.89773,-1.92111 -1.48001,-1.93282 -1.48001,-6.87618 0,-4.84962 1.62688,-6.98158 1.34443,-1.75713 3.75086,-1.75713 z m 0,2.72939 q -0.57619,0 -1.0281,0.38657 -0.4519,0.37484 -0.70045,1.35883 -0.32764,1.27683 -0.32764,4.29908 0,3.02223 0.29374,4.1585 0.29374,1.12455 0.73435,1.4994 0.45191,0.37485 1.0281,0.37485 0.57619,0 1.02811,-0.37485 0.45191,-0.38657 0.70045,-1.37055 0.32764,-1.26512 0.32764,-4.28735 0,-3.02225 -0.29374,-4.14679 -0.29374,-1.13628 -0.74566,-1.51112 -0.44061,-0.38657 -1.0168,-0.38657 z"
           style="font-weight:bold;font-size:40px;line-height:1.25;font-family:Arial;-inkscape-font-specification:'Arial, Bold';white-space:pre;shape-inside:url(#rect1965);fill:#96ca4f;stroke-width:0.589007"
           id="path13624" />
        <path
           d="m 241.15315,247.18028 v 3.05738 h -11.12831 q 0.18076,-1.73369 1.08458,-3.27996 0.90382,-1.55796 3.5701,-4.12335 2.14657,-2.0734 2.63238,-2.81139 0.65528,-1.01912 0.65528,-2.01482 0,-1.10112 -0.57619,-1.68682 -0.5649,-0.59743 -1.5704,-0.59743 -0.9942,0 -1.58168,0.62085 -0.58748,0.62086 -0.67786,2.06167 l -3.1634,-0.32798 q 0.28245,-2.71768 1.77376,-3.9008 1.49131,-1.18313 3.72828,-1.18313 2.45161,0 3.85254,1.37056 1.40092,1.37054 1.40092,3.4088 0,1.1597 -0.40671,2.21397 -0.39543,1.04255 -1.26536,2.19053 -0.57619,0.76141 -2.0788,2.19053 -1.50259,1.42912 -1.90933,1.89769 -0.39541,0.46855 -0.64397,0.9137 z"
           style="font-weight:bold;font-size:40px;line-height:1.25;font-family:Arial;-inkscape-font-specification:'Arial, Bold';white-space:pre;shape-inside:url(#rect1965);fill:#96ca4f;stroke-width:0.589007"
           id="path13626" />
        <path
           style="font-weight:bold;font-stretch:condensed;font-size:29.3333px;font-family:Arial;-inkscape-font-specification:'Arial, Bold Condensed';white-space:pre;fill:#96ca4f;fill-opacity:1;stroke-width:0.264584"
           d="m 247.26877,245.62355 3.10366,-0.33286 q 0.13304,1.0904 0.78706,1.73316 0.65395,0.63129 1.50749,0.63129 0.97543,0 1.65159,-0.81493 0.67616,-0.82641 0.67616,-2.47922 0,-1.54952 -0.67616,-2.31854 -0.66509,-0.7805 -1.74028,-0.7805 -1.34125,0 -2.40537,1.22813 l -2.52726,-0.37876 1.59618,-8.75763 h 8.23581 v 3.01868 h -5.87479 l -0.48771,2.85799 q 1.04191,-0.53946 2.12824,-0.53946 2.07282,0 3.51375,1.561 1.44101,1.56099 1.44101,4.05169 0,2.0775 -1.16387,3.70736 -1.58511,2.22671 -4.40058,2.22671 -2.25012,0 -3.669,-1.25108 -1.4188,-1.2511 -1.69593,-3.36303 z"
           id="path9" />
      </g>
      <text
         xml:space="preserve"
         style="font-weight:bold;font-stretch:condensed;font-size:7.7611px;font-family:Arial;-inkscape-font-specification:'Arial, Bold Condensed';fill:#231a4f;stroke-width:0.264583"
         x="228.24818"
         y="263.98212"
         id="text6"><tspan
           sodipodi:role="line"
           id="tspan1"
           style="stroke-width:0.264583"
           x="228.24818"
           y="263.98212" /></text>
      <text
         xml:space="preserve"
         transform="scale(0.26458333)"
         id="text7"
         style="fill:#ff0000;font-size:29.33329773px;-inkscape-font-specification:'Arial, Bold Condensed';font-family:Arial;font-weight:bold;font-stretch:condensed;stroke-miterlimit:15;stroke-width:0;white-space:pre;shape-inside:url(#rect8)" />
      <text
         xml:space="preserve"
         style="font-weight:bold;font-stretch:condensed;font-size:22.6931px;font-family:Arial;-inkscape-font-specification:'Arial, Bold Condensed';fill:#ff0000;stroke-width:0;stroke-miterlimit:15"
         x="151.32455"
         y="239.82753"
         id="text10"
         transform="scale(0.96287907,1.038552)"><tspan
           sodipodi:role="line"
           id="tspan9"
           style="font-style:normal;font-variant:normal;font-weight:bold;font-stretch:condensed;font-size:22.6931px;font-family:Arial;-inkscape-font-specification:'Arial, Bold Condensed';font-variant-ligatures:normal;font-variant-caps:normal;font-variant-numeric:normal;font-variant-east-asian:normal;stroke-width:0"
           x="151.32455"
           y="239.82753">TBD 2026</tspan></text>
      <text
         xml:space="preserve"
         style="font-style:normal;font-variant:normal;font-weight:bold;font-stretch:condensed;font-size:7.7611px;font-family:Arial;-inkscape-font-specification:'Arial, Bold Condensed';font-variant-ligatures:normal;font-variant-caps:normal;font-variant-numeric:normal;font-variant-east-asian:normal;fill:#ff0000;stroke-width:0;stroke-miterlimit:15"
         x="256.11667"
         y="216.95833"
         id="text11"><tspan
           sodipodi:role="line"
           id="tspan10"
           style="stroke-width:0"
           x="256.11667"
           y="216.95833" /></text>
    </g>
  </g>
</svg>
