<?xml version="1.0" encoding="UTF-8" standalone="no"?>
<!-- Created with Inkscape (http://www.inkscape.org/) -->

<svg
   width="331.24274mm"
   height="270mm"
   viewBox="0 0 331.24275 270"
   version="1.1"
   id="svg5"
   inkscape:version="1.3.2 (091e20e, 2023-11-25)"
   sodipodi:docname="sel4_summit_2022_location.svg"
   inkscape:export-filename="C:\Users\Birgit Brecknell\Documents\}} seL4 Foundation\seL4 Summit 2022\logo\sel4_summit_large_text.png"
   inkscape:export-xdpi="96"
   inkscape:export-ydpi="96"
   xml:space="preserve"
   xmlns:inkscape="http://www.inkscape.org/namespaces/inkscape"
   xmlns:sodipodi="http://sodipodi.sourceforge.net/DTD/sodipodi-0.dtd"
   xmlns:xlink="http://www.w3.org/1999/xlink"
   xmlns="http://www.w3.org/2000/svg"
   xmlns:svg="http://www.w3.org/2000/svg"><sodipodi:namedview
     id="namedview7"
     pagecolor="#ffffff"
     bordercolor="#666666"
     borderopacity="1.0"
     inkscape:pageshadow="2"
     inkscape:pageopacity="0.0"
     inkscape:pagecheckerboard="0"
     inkscape:document-units="mm"
     showgrid="false"
     inkscape:zoom="0.32026164"
     inkscape:cx="715.04037"
     inkscape:cy="568.28536"
     inkscape:window-width="1312"
     inkscape:window-height="641"
     inkscape:window-x="200"
     inkscape:window-y="108"
     inkscape:window-maximized="0"
     inkscape:current-layer="g12656"
     fit-margin-top="0"
     fit-margin-left="0"
     fit-margin-right="0"
     fit-margin-bottom="0"
     showguides="true"
     inkscape:guide-bbox="true"
     inkscape:snap-nodes="false"
     inkscape:showpageshadow="2"
     inkscape:deskcolor="#d1d1d1" /><defs
     id="defs2"><color-profile
       name="Agfa-:-Swop-Standard"
       xlink:href="file:///WINDOWS/system32/spool/drivers/color/RSWOP.icm"
       id="color-profile2" /><rect
       x="680.69342"
       y="102.26014"
       width="15.612235"
       height="115.53054"
       id="rect9649" /><style
       id="style824">.cls-1,.cls-2,.cls-3{fill:#96ca4f;}.cls-2,.cls-3{stroke:#96ca4f;stroke-miterlimit:8;}.cls-3{stroke-width:0.25px;}</style></defs><g
     inkscape:label="Layer 1"
     inkscape:groupmode="layer"
     id="layer1"><g
       id="g1204"
       transform="scale(1.9530976)"
       sodipodi:insensitive="true" /><g
       id="g12656"><text
         xml:space="preserve"
         transform="scale(0.38298209)"
         id="text9647"
         style="font-style:normal;font-weight:normal;font-size:40px;line-height:1.25;font-family:sans-serif;white-space:pre;shape-inside:url(#rect9649);display:inline;fill:#000000;fill-opacity:1;stroke:none" /><g
         id="g3802"
         transform="scale(1.4474914)" /><g
         id="g244"
         transform="matrix(1.4474914,0,0,1.4474914,-33.823496,33.78132)"><g
           id="g224"><path
             style="font-weight:bold;font-stretch:condensed;font-size:16.2278px;line-height:10;font-family:Arial;-inkscape-font-specification:'Arial Bold Condensed';text-align:center;letter-spacing:12.312px;word-spacing:0px;text-anchor:middle;fill:#96ca4f;stroke-width:1.43233"
             d="m 68.405515,161.90537 v -12.11732 h 3.777165 l 2.26838,8.26556 2.247571,-8.26556 h 3.78757 v 12.11732 h -2.341217 v -9.53846 l -2.486895,9.53846 h -2.434867 l -2.466083,-9.53846 v 9.53846 z"
             id="path20888" /><path
             style="font-weight:bold;font-stretch:condensed;font-size:16.2278px;line-height:10;font-family:Arial;-inkscape-font-specification:'Arial Bold Condensed';text-align:center;letter-spacing:12.312px;word-spacing:0px;text-anchor:middle;fill:#96ca4f;stroke-width:1.43233"
             d="m 86.097693,149.5814 h 2.518111 v 6.56287 q 0,1.52913 0.09364,1.992 0.166487,0.80176 0.79081,1.23983 0.634731,0.43807 1.664867,0.43807 0.874056,0 1.425542,-0.30582 0.551487,-0.31409 0.74919,-0.85962 0.208109,-0.55379 0.208109,-2.36395 v -6.70338 h 2.528519 v 6.36449 q 0,2.43835 -0.33298,3.5294 -0.32256,1.08279 -1.47757,1.76056 -1.144591,0.66952 -3.027972,0.66952 -1.956217,0 -3.059191,-0.5538 -1.092569,-0.56206 -1.592029,-1.57045 -0.489055,-1.01667 -0.489055,-3.73604 z"
             id="path20885" /><path
             style="font-weight:bold;font-stretch:condensed;font-size:16.2278px;line-height:10;font-family:Arial;-inkscape-font-specification:'Arial Bold Condensed';text-align:center;letter-spacing:12.312px;word-spacing:0px;text-anchor:middle;fill:#96ca4f;stroke-width:1.43233"
             d="m 101.68797,161.90537 v -12.11732 h 2.45567 l 5.11947,8.09199 v -8.09199 h 2.35162 v 12.11732 h -2.53892 l -5.03622,-7.90187 v 7.90187 z"
             id="path20882" /><path
             style="font-weight:bold;font-stretch:condensed;font-size:16.2278px;line-height:10;font-family:Arial;-inkscape-font-specification:'Arial Bold Condensed';text-align:center;letter-spacing:12.312px;word-spacing:0px;text-anchor:middle;fill:#96ca4f;stroke-width:1.43233"
             d="m 117.22622,161.90537 v -12.11732 h 2.51811 v 12.11732 z"
             id="path20879" /><path
             style="font-weight:bold;font-stretch:condensed;font-size:16.2278px;line-height:10;font-family:Arial;-inkscape-font-specification:'Arial Bold Condensed';text-align:center;letter-spacing:12.312px;word-spacing:0px;text-anchor:middle;fill:#96ca4f;stroke-width:1.43233"
             d="m 133.80501,157.24359 2.44527,0.75216 q -0.57229,2.03333 -1.90419,2.97561 -1.3319,0.93401 -3.27771,0.93401 -2.44527,0 -3.96445,-1.49607 -1.74811,-1.72751 -1.74811,-4.66178 0,-3.09959 1.75851,-4.85188 1.52959,-1.52088 4.11014,-1.52088 2.10189,0 3.51703,1.14066 1.00932,0.81001 1.47756,2.40528 l -2.4973,0.57859 q -0.23933,-0.98361 -0.9573,-1.50434 -0.70757,-0.529 -1.67527,-0.529 -1.38391,0 -2.25797,0.95881 -0.87405,0.95881 -0.87405,3.16571 0,2.28956 0.85324,3.25664 0.85325,0.96706 2.21635,0.96706 0.99892,0 1.7273,-0.61164 0.72837,-0.61992 1.05095,-1.95894 z"
             id="path20876" /><path
             style="font-weight:bold;font-stretch:condensed;font-size:16.2278px;line-height:10;font-family:Arial;-inkscape-font-specification:'Arial Bold Condensed';text-align:center;letter-spacing:12.312px;word-spacing:0px;text-anchor:middle;fill:#96ca4f;stroke-width:1.43233"
             d="m 141.86175,161.90537 v -12.11732 h 2.51813 v 4.76923 h 4.95297 v -4.76923 h 2.52852 v 12.11732 h -2.52852 v -5.29823 h -4.95297 v 5.29823 z"
             id="path20873" /></g><g
           id="g230"><path
             d="m 173.3514,159.77968 v 2.12569 h -8.28428 q 0.13326,-1.20538 0.80996,-2.28857 0.68694,-1.09134 2.65548,-2.85867 1.55843,-1.40898 1.91728,-1.90578 0.53316,-0.72485 0.53316,-1.45784 0,-0.78187 -0.44087,-1.18093 -0.44088,-0.39908 -1.15858,-0.39908 -1.56869,0 -1.69172,1.86506 l -2.34789,-0.22805 q 0.2153,-1.82434 1.27135,-2.67949 1.0663,-0.85516 2.82978,-0.85516 1.93778,0 2.92205,1.00175 0.98428,1.00177 0.98428,2.29672 0,0.73299 -0.25632,1.42526 -0.24606,0.68412 -0.76896,1.38453 -0.5229,0.69229 -1.743,1.77549 -1.13805,1.01804 -1.44563,1.34382 -0.29734,0.32577 -0.4819,0.63525 z"
             style="font-weight:bold;font-stretch:condensed;font-size:16.2278px;line-height:10;font-family:Arial;-inkscape-font-specification:'Arial Bold Condensed';text-align:center;letter-spacing:3.91736px;word-spacing:0px;text-anchor:middle;fill:#96ca4f;stroke-width:0.449048"
             id="path20515" /><path
             d="m 180.33778,149.71325 q 1.79426,0 2.90156,1.36011 1.1073,1.35197 1.1073,4.74003 0,3.37991 -1.1073,4.74001 -1.1073,1.35197 -2.8913,1.35197 -1.79425,0 -2.90156,-1.34383 -1.10729,-1.34381 -1.10729,-4.77259 0,-3.36362 1.10729,-4.71559 1.10731,-1.36011 2.8913,-1.36011 z m 0,1.89764 q -0.69718,0 -1.11755,0.73299 -0.41012,0.733 -0.41012,3.46951 0,2.7365 0.41012,3.4695 0.42037,0.72484 1.11755,0.72484 0.70746,0 1.11756,-0.733 0.41012,-0.73299 0.41012,-3.46134 0,-2.73651 -0.41012,-3.46951 -0.4101,-0.73299 -1.11756,-0.73299 z"
             style="font-weight:bold;font-stretch:condensed;font-size:16.2278px;line-height:10;font-family:Arial;-inkscape-font-specification:'Arial Bold Condensed';text-align:center;letter-spacing:3.91736px;word-spacing:0px;text-anchor:middle;fill:#96ca4f;stroke-width:0.449048"
             id="path20517" /><path
             d="m 195.89557,159.77968 v 2.12569 h -8.2843 q 0.1333,-1.20538 0.80998,-2.28857 0.68695,-1.09134 2.6555,-2.85867 1.55841,-1.40898 1.91726,-1.90578 0.53316,-0.72485 0.53316,-1.45784 0,-0.78187 -0.44087,-1.18093 -0.44088,-0.39908 -1.15857,-0.39908 -1.56869,0 -1.69172,1.86506 l -2.3479,-0.22805 q 0.2153,-1.82434 1.27135,-2.67949 1.0663,-0.85516 2.82978,-0.85516 1.93778,0 2.92206,1.00175 0.98427,1.00177 0.98427,2.29672 0,0.73299 -0.25631,1.42526 -0.24607,0.68412 -0.76897,1.38453 -0.52289,0.69229 -1.74298,1.77549 -1.13807,1.01804 -1.44565,1.34382 -0.29733,0.32577 -0.48188,0.63525 z"
             style="font-weight:bold;font-stretch:condensed;font-size:16.2278px;line-height:10;font-family:Arial;-inkscape-font-specification:'Arial Bold Condensed';text-align:center;letter-spacing:3.91736px;word-spacing:0px;text-anchor:middle;fill:#96ca4f;stroke-width:0.449048"
             id="path20519" /><path
             d="m 207.16761,159.77968 v 2.12569 h -8.28427 q 0.13329,-1.20538 0.80996,-2.28857 0.68694,-1.09134 2.65549,-2.85867 1.55844,-1.40898 1.9173,-1.90578 0.53312,-0.72485 0.53312,-1.45784 0,-0.78187 -0.44086,-1.18093 -0.44088,-0.39908 -1.15857,-0.39908 -1.56869,0 -1.69173,1.86506 l -2.34789,-0.22805 q 0.21531,-1.82434 1.27135,-2.67949 1.06629,-0.85516 2.82978,-0.85516 1.9378,0 2.92205,1.00175 0.98427,1.00177 0.98427,2.29672 0,0.73299 -0.2563,1.42526 -0.24608,0.68412 -0.76898,1.38453 -0.52289,0.69229 -1.74298,1.77549 -1.13806,1.01804 -1.44564,1.34382 -0.29734,0.32577 -0.48189,0.63525 z"
             style="font-weight:bold;font-stretch:condensed;font-size:16.2278px;line-height:10;font-family:Arial;-inkscape-font-specification:'Arial Bold Condensed';text-align:center;letter-spacing:3.91736px;word-spacing:0px;text-anchor:middle;fill:#96ca4f;stroke-width:0.449048"
             id="path20521" /></g></g><path
         style="fill:#96c94f;fill-opacity:1;stroke:#96ca4f;stroke-width:1;stroke-opacity:1"
         d="M 37.719473,189.37384 V 187.951 h 5.921427 5.921426 v -1.59601 c 0,-0.87788 -0.426292,-2.13865 -0.947416,-2.80192 -0.521081,-0.66325 -0.947433,-1.67243 -0.947433,-2.24263 0,-0.63786 0.36451,-1.13216 0.947433,-1.2848 0.872895,-0.22852 0.947416,-0.6469 0.947416,-5.31915 0,-3.7246 -0.184667,-5.31556 -0.695499,-5.99175 -1.051551,-1.39193 -0.926868,-3.56529 0.221794,-3.86602 0.838643,-0.21958 0.947437,-0.64694 0.947437,-3.72188 0,-1.91058 0.213167,-3.60568 0.473707,-3.7669 0.260539,-0.16116 0.473706,-1.66779 0.473706,-3.34795 0,-2.15951 0.177071,-3.05482 0.603963,-3.05482 0.407826,0 0.884948,-1.84818 1.469271,-5.69135 0.475949,-3.13026 1.029161,-5.69136 1.229403,-5.69136 0.200229,0 0.735432,2.45969 1.189344,5.46603 0.655595,4.34208 1.009164,5.56454 1.719513,5.94518 0.567818,0.30425 0.894226,0.99243 0.894226,1.8853 v 1.40615 h 13.724721 13.72472 l 0.131405,-6.75848 0.131417,-6.75848 1.539559,-0.1486 1.53959,-0.14862 v -9.2184 c 0,-8.05719 -0.0937,-9.21842 -0.74308,-9.21842 -0.63615,0 -0.71363,-0.63127 -0.53843,-4.38707 0.22291,-4.77822 1.28133,-11.73844 1.78506,-11.73844 0.17314,0 0.71696,1.70696 1.20838,3.79324 0.49142,2.08628 1.00009,3.79394 1.13036,3.79478 0.43186,0.003 -0.0762,-10.1935 -0.516,-10.35465 -0.49035,-0.17968 -0.56808,-4.6424 -0.12733,-7.31183 0.31929,-1.93404 1.11262,-2.436014 1.12433,-0.71141 0.003,0.58692 0.2139,1.38728 0.46648,1.77855 0.31868,0.49371 0.46976,-0.44973 0.49376,-3.08282 0.019,-2.086837 0.19463,-4.647945 0.39029,-5.69135 0.31831,-1.697511 0.39477,-1.781081 0.72654,-0.794268 0.20392,0.606585 0.45538,1.018152 0.55882,0.914612 0.39354,-0.394019 2.1685,-13.514842 2.14957,-15.890171 -0.0178,-2.164569 0.10167,-2.489968 0.90976,-2.489968 1.01663,0 1.10103,0.269609 0.96514,3.082817 -0.0908,1.878014 1.699247,14.463434 2.116477,14.881163 0.11904,0.119183 0.21651,-0.03229 0.21651,-0.336572 0,-0.30434 0.21317,-0.553324 0.47371,-0.553324 0.28709,0 0.47371,2.055216 0.47371,5.217077 0,5.143544 0.54346,6.810314 1.15551,3.543924 0.19123,-1.02059 0.51251,-1.55002 0.82376,-1.35744 0.50865,0.31475 0.19544,14.16253 -0.39841,17.61471 -0.14574,0.84778 -0.0625,1.5414 0.18542,1.5414 0.24781,0 0.72252,-1.54733 1.0549,-3.43854 0.33237,-1.89118 0.75489,-3.71755 0.93892,-4.05857 0.56367,-1.04466 2.40375,8.42711 2.40088,12.35848 -10e-4,2.9726 -0.14054,3.67567 -0.72327,3.67567 -0.62498,0 -0.70354,1.24275 -0.59214,9.36702 l 0.12837,9.36705 h 1.42114 1.42116 l 0.23684,6.63991 0.23686,6.63992 9.59271,0.12835 c 5.27601,0.0705 9.6055,0.0705 9.62109,0 0.0162,-0.0707 0.1375,-6.42447 0.27077,-14.11964 0.18168,-10.48716 0.41186,-14.43909 0.91906,-15.77941 0.42602,-1.12582 0.67665,-3.58644 0.67665,-6.64305 0,-2.67019 0.21469,-5.60049 0.47707,-6.51175 0.7291,-2.53234 0.75321,-24.024264 0.0293,-26.2201 -1.50459,-4.564392 1.89582,-9.825831 7.42132,-11.482957 2.02314,-0.606754 2.97097,-1.14624 3.13811,-1.786186 0.26216,-1.003652 1.25069,-0.700753 1.25069,0.383225 0,0.370914 0.58623,0.815456 1.30272,0.987869 6.20297,1.492639 9.39821,6.128843 8.21783,11.923735 -0.68564,3.366031 -0.70883,8.984044 -0.0778,18.846204 0.26707,4.17367 0.64988,10.2999 0.85068,13.61386 0.22035,3.63651 0.59371,6.25349 0.94171,6.60068 0.85483,0.85284 1.02013,0.031 1.29922,-6.46043 0.13463,-3.13023 0.4415,-9.21288 0.68201,-13.51696 0.5647,-10.106 0.57037,-16.671928 0.016,-18.607167 -0.69932,-2.441287 -0.52178,-4.642632 0.5538,-6.867119 1.19189,-2.465094 3.10773,-3.999497 6.46507,-5.177919 1.36786,-0.480114 2.48701,-1.036264 2.48701,-1.235893 0,-0.199624 0.31975,-0.362955 0.71056,-0.362955 0.39081,0 0.71058,0.202384 0.71058,0.449742 0,0.247357 1.30816,0.817235 2.90707,1.266396 5.3182,1.493994 8.12338,5.610601 7.23004,10.610181 -0.65645,3.674007 -0.18991,26.122304 0.57379,27.608214 0.4439,0.8637 0.66372,3.02578 0.67502,6.63992 0.0128,3.74987 0.2201,5.71527 0.6938,6.54491 0.37235,0.65214 0.68455,1.87935 0.69378,2.7271 l 0.0162,1.5414 h 14.92199 14.922 v -1.8971 c 0,-1.29904 0.2066,-1.89712 0.65532,-1.89712 0.67412,0 1.22166,1.38404 1.23309,3.11694 0.003,0.54047 1.10551,2.56802 2.4488,4.50565 13.58956,19.60232 13.18323,18.95247 13.18692,21.08926 10e-4,1.43285 0.3563,2.32849 1.40521,3.5571 l 1.40189,1.64206 0.0194,14.34697 0.0191,14.34697 h 3.31599 3.31599 v -8.50977 -8.50977 l -2.01327,-0.14592 -2.01328,-0.14592 -0.13536,-4.59831 -0.13536,-4.5983 2.14856,-2.24503 2.14855,-2.24504 v -13.66926 c 0,-8.79665 -0.16884,-13.66928 -0.4737,-13.66928 -0.26055,0 -0.47371,-1.19381 -0.47371,-2.65294 0,-2.25912 0.14145,-2.68998 0.95285,-2.9024 0.86886,-0.2275 0.94686,-0.6104 0.88466,-4.34269 -0.077,-4.61985 0.51352,-6.51696 2.86237,-9.19535 1.42199,-1.62149 1.49719,-1.8989 1.40511,-5.18259 -0.0738,-2.62964 0.34497,-5.33687 1.72981,-11.18467 1.0049,-4.243396 2.04108,-7.643854 2.30261,-7.556585 1.06102,0.354105 3.7103,13.056945 3.79723,18.207135 0.0609,3.60409 0.17707,4.03113 1.6133,5.9285 2.11186,2.7899 3.00519,4.92655 2.91285,6.96705 -0.21454,4.74053 -0.008,6.10679 0.96149,6.3606 0.80498,0.21075 0.94742,0.64694 0.94742,2.901 0,1.45913 -0.21316,2.65294 -0.4737,2.65294 -0.30366,0 -0.47372,4.42348 -0.47372,12.32184 v 12.32187 l 10.04352,0.12799 10.0435,0.12799 4.65371,7.78982 c 3.17947,5.32215 4.4998,7.9439 4.16792,8.27618 -0.29549,0.29587 -0.48578,3.79309 -0.48578,8.92854 v 8.44219 h 4.5003 4.50029 v 1.42284 1.42285 H 165.6216 37.718685 Z m 48.55573,-4.26852 v -2.60854 L 72.65592,182.37096 59.036629,182.24515 v 2.10273 c 0,1.15653 -0.130704,2.4436 -0.290314,2.86022 -0.262516,0.68488 1.042302,0.74541 13.619279,0.63163 l 13.909609,-0.12582 z m 20.606607,-10.37624 c 0,-10.84147 0.13159,-13.53713 0.73065,-14.97274 0.48843,-1.17033 0.68475,-2.87988 0.59215,-5.15642 l -0.13858,-3.40561 -10.303287,-0.12781 -10.3033,-0.12781 v 3.58158 c 0,2.14024 0.29135,4.27974 0.724,5.31645 0.59161,1.41757 0.71897,4.08181 0.69646,14.56886 -0.0143,7.0587 -0.0212,12.99408 -0.0143,13.18972 0.008,0.19565 4.06439,0.35571 9.01471,0.35571 h 9.000597 z m -13.264027,-6.1287 c 0,-10.0905 0.19762,-11.2384 1.83416,-10.65352 0.4242,0.15165 0.61471,0.10273 0.42336,-0.10879 -0.41867,-0.46255 1.00473,-1.62762 2.01438,-1.64879 0.39545,-0.009 1.51462,0.52617 2.486997,1.1877 l 1.76797,1.20281 v 9.94277 9.94278 h -4.263427 -4.26344 z m 6.632007,0.18106 c 0,-4.28275 -0.13248,-8.13231 -0.294257,-8.55456 -0.16185,-0.42227 -0.96124,-1.10716 -1.77643,-1.52195 -0.8152,-0.41482 -1.32366,-0.58613 -1.1299,-0.38072 0.19374,0.20543 -0.0726,0.67152 -0.59214,1.03577 -0.88205,0.61855 -0.94442,1.20874 -0.94442,8.93528 v 8.27302 h 2.36858 2.368567 z m 29.60717,16.32388 v -2.60854 l -10.3033,-0.12781 -10.30329,-0.12781 v 2.86418 2.86418 l 10.30329,-0.12781 10.3033,-0.12781 z m 13.50085,-7.84087 V 166.5779 l -5.44772,0.0637 -5.44771,0.0637 v 10.62295 10.62298 h 5.44771 5.44772 z m 54.95089,-3.30471 v -13.99126 h -26.29116 -26.29115 v 13.99126 13.99126 h 26.29115 26.29116 z m 16.10628,0 v -13.99126 h -6.86886 -6.86885 v 13.99126 13.99126 h 6.86885 6.86886 z m 14.21143,-0.0279 v -14.01906 l -1.38511,-1.75074 c -0.76183,-0.9629 -1.45463,-2.28431 -1.53956,-2.93643 -0.14986,-1.15035 -0.27812,-1.1898 -4.29947,-1.32275 l -4.145,-0.13695 v 17.09257 17.09253 h 5.68456 5.68458 z m 24.99313,-8.39066 0.12312,-22.17259 h -6.87352 -6.87356 v 22.30418 22.3042 l 6.75042,-0.13158 6.75045,-0.13157 z m 27.95516,13.87185 c -0.0711,-4.69582 -0.28899,-8.53749 -0.48442,-8.53704 -0.19541,4.7e-4 -5.89774,8.4e-4 -12.67185,8.4e-4 h -12.3166 v 8.53705 8.53704 h 12.801 12.80098 z m -225.380359,5.45505 v -2.60852 h -2.6221 c -2.445589,0 -2.589089,0.0616 -2.131709,0.91737 0.269704,0.50455 0.490376,1.67841 0.490376,2.60855 0,1.68813 0.0038,1.69114 2.131723,1.69114 h 2.13171 z m 0,-10.81356 c 0,-3.90492 0.187942,-6.02182 0.568455,-6.40279 0.442123,-0.44265 -0.157915,-0.56913 -2.700165,-0.56913 -2.542288,0 -3.142314,0.12658 -2.700177,0.56913 0.380512,0.38097 0.568454,2.49787 0.568454,6.40279 v 5.83362 h 2.131723 2.13171 z m 30.317712,-0.0949 v -5.9285 H 73.258979 c -15.800823,0 -14.575409,-0.59856 -14.321789,6.99562 l 0.162388,4.86137 h 13.706265 13.70625 z m 43.217917,0.35571 c 0.12606,-3.06503 0.14019,-5.73287 0.0318,-5.92851 -0.10873,-0.19565 -4.76806,-0.3557 -10.35434,-0.3557 h -10.15692 v 5.9285 5.92849 h 10.12525 10.12526 z m 107.89701,-9.60418 c 0,-4.92235 -1.18957,-5.22287 -1.94603,-0.49161 -0.44879,2.80702 -0.0864,4.28586 1.04997,4.28586 0.80428,0 0.89606,-0.38866 0.89606,-3.79425 z m 43.58173,3.32089 c 0,-0.26033 -1.51006,-2.92815 -3.35572,-5.9285 l -3.35571,-5.45513 h -9.1977 -9.19775 v 5.92849 5.9285 h 12.55344 c 8.03675,0 12.55344,-0.17029 12.55344,-0.47336 z M 64.809606,164.155 c 0.174751,-1.77133 1.329097,-2.4497 1.339982,-0.78747 0.01275,1.93164 0.620405,2.36137 3.115281,2.20274 2.165217,-0.13765 2.336616,-0.24262 2.564248,-1.57036 0.325655,-1.89932 1.144685,-1.81245 1.332219,0.14126 l 0.150217,1.56412 2.687534,-0.14126 c 2.263408,-0.11905 2.711343,-0.29097 2.838312,-1.08985 0.08285,-0.52171 0.25636,-1.26271 0.385394,-1.64667 0.206538,-0.61466 0.287318,-0.61466 0.675566,0 0.242531,0.38396 0.44424,1.17834 0.448241,1.76525 0.0076,0.99646 0.211152,1.06713 3.086387,1.06713 h 3.079146 v -1.69117 c 0,-0.93014 -0.2223,-2.10703 -0.494021,-2.61534 -0.271705,-0.50829 -0.538172,-1.72146 -0.592136,-2.69592 l -0.09814,-1.77176 -13.672796,-0.12581 c -12.360943,-0.11383 -13.644922,-0.0532 -13.382432,0.63162 0.159712,0.41668 0.290378,2.25693 0.290378,4.0895 0,2.76684 0.120443,3.28561 0.710552,3.0589 0.432832,-0.16634 0.710591,-7.6e-4 0.710591,0.42355 0,0.51845 0.597846,0.69654 2.338541,0.69654 2.279748,0 2.342301,-0.0377 2.486999,-1.5049 z m 50.807274,-0.30143 c 0.59876,-1.78688 1.21294,-1.54069 1.21294,0.48619 0,1.36355 0.008,1.36706 2.6957,1.22523 2.64077,-0.13928 2.70465,-0.17604 3.13573,-1.80221 0.45788,-1.72725 0.61156,-1.61467 1.45668,1.06711 0.20675,0.65602 0.79914,0.83 2.82621,0.83 h 2.56465 l 0.29506,-3.43853 c 0.5013,-5.84164 1.44572,-5.31623 -9.82134,-5.46386 l -9.78471,-0.12817 v 2.11591 c 0,1.16373 -0.21316,2.24779 -0.4737,2.40901 -0.26054,0.16114 -0.47373,1.25112 -0.47373,2.42203 v 2.12888 l 2.92033,-0.14124 c 2.83806,-0.13714 2.93516,-0.18543 3.44618,-1.71039 z m -59.422539,-1.75075 v -2.60854 h -2.13171 -2.131723 v 2.60854 2.60852 h 2.131723 2.13171 z m 87.060559,-2.96425 0.13391,-5.33565 h -5.43365 -5.43369 l -0.14807,5.25851 c -0.0815,2.89219 -0.0526,5.35316 0.0641,5.46887 0.11662,0.11561 2.56809,0.15039 5.44773,0.077 l 5.2357,-0.13317 z m -87.625472,-3.55712 c -0.130345,-1.80364 -0.282691,-2.03146 -1.44838,-2.16573 -1.224075,-0.14108 -1.302701,-0.0384 -1.302701,1.6995 0,2.1562 0.231518,2.48192 1.764184,2.48192 1.039485,0 1.120609,-0.16562 0.986897,-2.01569 z m 143.152972,1.83647 c 0,-0.0987 0.32262,-0.95227 0.71693,-1.8971 l 0.71693,-1.7179 h -25.78515 -25.78516 l -0.98608,1.59739 c -0.54232,0.87856 -0.98604,1.73227 -0.98604,1.89711 0,0.16493 11.72441,0.29972 26.05428,0.29972 14.32987,0 26.05429,-0.0806 26.05429,-0.17925 z m 15.54275,-1.59932 -0.14699,-1.77854 -5.5463,-0.13355 -5.54628,-0.13335 -0.73044,1.41416 c -0.40172,0.77778 -0.73041,1.63817 -0.73041,1.91199 0,0.32312 2.25445,0.49782 6.42374,0.49782 h 6.42373 z m -64.15116,-11.06841 3.13182,-5.96993 v -6.37439 c 0,-4.78496 -0.17028,-6.61792 -0.68318,-7.35095 -0.46975,-0.67149 -0.76343,-2.88982 -0.94009,-7.10116 -0.62248,-14.84002 -1.03518,-21.35858 -1.40113,-22.13158 -0.28597,-0.604 -0.95715,-0.82999 -2.4651,-0.82999 h -2.07216 l -0.12733,22.88403 c -0.16633,29.89273 -0.0607,34.4145 0.7832,33.52257 0.35317,-0.37329 2.05145,-3.36515 3.77395,-6.6486 z m -6.81618,1.46424 v -5.21707 h -5.44772 -5.44771 v 5.21707 5.21708 h 5.44771 5.44772 z m 60.41071,-1.06712 c 2.71713,-6.22859 5.36783,-12.12049 5.76106,-12.80556 0.11229,-0.19565 -11.06416,-0.35572 -24.83656,-0.35572 h -25.04073 l -4.83123,9.41675 c -2.65719,5.17923 -4.83124,9.55446 -4.83124,9.72275 0,0.16833 11.48339,0.30598 25.51865,0.30598 h 25.51865 z m 9.93635,4.50566 c -0.18801,-0.97821 -0.80834,-4.49233 -1.37848,-7.80918 -0.57016,-3.31683 -1.14433,-6.13842 -1.27592,-6.27018 -0.22621,-0.22647 -6.07102,12.51276 -6.78609,14.79078 -0.33303,1.06096 -0.30575,1.06712 4.72369,1.06712 h 5.05864 z m 10.3708,1.18569 c -0.60838,-1.05085 -7.40835,-10.97592 -8.61985,-12.58132 -0.64512,-0.85487 -1.26921,-1.45794 -1.38687,-1.34015 -0.33981,0.34023 1.86119,13.26421 2.37086,13.92147 0.29919,0.38581 1.77269,0.59285 4.21942,0.59285 2.87498,0 3.6789,-0.13946 3.41644,-0.59285 z m -116.00959,-4.61773 c 0,-2.10106 -0.15953,-2.63282 -0.829,-2.7619 -0.61611,-0.11879 -0.829,0.15364 -0.829,1.06065 v 1.22047 h -8.763727 -8.76371 v -1.18569 c 0,-0.73777 -0.26845,-1.1857 -0.71058,-1.1857 -0.54279,0 -0.71057,0.59723 -0.71057,2.52948 0,1.39124 0.15988,2.69072 0.35529,2.88777 0.1954,0.19704 4.83189,0.28597 10.30328,0.19761 l 9.948017,-0.1606 z m -3.46467,-12.2192 c 0.11408,-5.41271 0.11598,-10.32152 0.003,-10.90843 -0.19937,-1.04779 -0.32667,-1.06715 -7.016697,-1.06715 h -6.81365 v 10.59226 c 0,5.82574 0.14216,10.73454 0.3158,10.90845 0.17368,0.17387 3.23786,0.31618 6.80922,0.31618 h 6.493407 z m 149.02848,1.42284 -0.13339,-5.57279 h -6.632 -6.63202 l -0.13337,5.57279 -0.1334,5.57279 h 6.89893 6.89893 z m -110.27208,-2.48996 v -5.69137 h -5.44772 -5.44771 v 5.69137 5.69135 h 5.44771 5.44772 z m 19.44794,-3.8938 4.47464,-0.13767 0.1244,-16.95549 0.1244,-16.95552 h -3.48281 c -3.27245,0 -3.51601,0.073 -4.03256,1.20802 -0.33858,0.74398 -0.54974,3.92142 -0.54974,8.27192 0,4.19766 -0.19223,7.18281 -0.47374,7.35699 -0.27679,0.17138 -0.47501,2.89367 -0.47682,6.54936 -0.001,5.24948 -0.1418,6.46674 -0.86481,7.56451 -0.97306,1.47746 -0.87413,4.52872 0.12019,3.70261 0.30925,-0.25696 2.57587,-0.52911 5.03692,-0.6048 z m 15.13324,-1.35447 c 0,-0.7997 -0.26648,-1.9202 -0.59215,-2.48997 -0.57303,-1.0025 -0.92395,-5.47844 -1.66528,-21.24079 -0.39991,-8.50276 -0.59119,-8.96339 -3.72202,-8.96339 h -2.07371 v 17.0741 17.07406 h 4.02657 4.02659 z m 76.6238,-0.79881 c 0.15218,-0.45837 -1.58507,-0.59286 -7.6589,-0.59286 -6.72381,0 -7.85577,0.10407 -7.85577,0.72317 0,0.6236 1.05459,0.70524 7.65889,0.59286 5.61087,-0.0956 7.71153,-0.28885 7.85578,-0.72317 z M 143.35781,109.93203 V 94.99219 h -3.80142 c -3.64474,0 -3.82051,0.0502 -4.26345,1.21659 -0.2541,0.66912 -0.46199,4.20468 -0.46199,7.85681 0,3.65211 -0.19528,7.00555 -0.43399,7.45207 -0.23867,0.44654 -0.50514,3.63417 -0.59212,7.0837 l -0.15809,6.27183 4.85558,-6.7e-4 4.85557,-6.9e-4 z m -6.53072,-6.75301 c 0.10738,-3.66141 0.28286,-4.64433 0.84615,-4.7422 1.41148,-0.24527 1.7719,0.64896 2.00472,4.97386 l 0.23619,4.38708 h -1.61133 -1.61132 z m 115.86629,18.72857 0.1443,-2.25282 h -5.94737 -5.94739 v 2.0552 c 0,1.13038 0.14842,2.2039 0.33003,2.38565 0.18153,0.18174 2.79288,0.27066 5.80301,0.19761 l 5.47297,-0.13283 z m -146.75901,-5.09851 c 0,-1.58094 -0.21052,-2.84568 -0.4737,-2.84568 -0.26054,0 -0.47373,0.32014 -0.47373,0.71142 0,0.60362 -1.18429,0.71142 -7.816287,0.71142 h -7.81631 v 2.13426 2.13427 h 8.29001 8.290017 z m 146.65896,0.2925 c 0.31593,-0.8243 -0.80992,-3.27898 -2.63576,-5.74671 -1.22931,-1.66146 -1.40563,-2.30109 -1.41942,-5.14909 -0.0161,-3.19846 -1.36083,-11.92208 -1.77472,-11.50769 -0.75023,0.75112 -2.00427,8.89229 -1.76013,11.42665 0.26854,2.7876 0.22735,2.92183 -1.6556,5.39631 -1.06206,1.39569 -1.93391,2.78295 -1.93745,3.08282 -0.003,0.29988 -0.13322,1.01824 -0.28795,1.59636 -0.27687,1.034 -0.1939,1.05357 5.09891,1.20288 2.95919,0.0835 5.54693,0.19738 5.7505,0.25316 0.2036,0.0558 0.48333,-0.19386 0.62162,-0.55469 z m -151.09869,-5.62815 c -0.12337,-1.10863 -0.24087,-3.46565 -0.26093,-5.23785 l -0.0366,-3.22216 -3.434447,0.13928 -3.43443,0.13928 -0.13446,5.09851 -0.13446,5.0985 h 3.82981 3.829817 z M 99.955823,97.28171 c 0.223817,-2.41105 0.117517,-4.034103 -0.36539,-5.572771 -0.37463,-1.194017 -0.95177,-3.985083 -1.28252,-6.202331 l -0.60134,-4.031392 -0.63493,4.979947 c -0.34921,2.738964 -0.84287,5.051088 -1.09698,5.138026 -0.25633,0.08766 -0.46202,2.146401 -0.46202,4.624231 v 4.46614 h 2.06369 2.06369 z m 50.507707,-7.26944 v -2.608551 h -7.57943 -7.57943 v 2.608551 2.608539 h 7.57943 7.57943 z m 24.63317,0 v -2.608551 h -7.57946 -7.57942 v 2.608551 2.608539 h 7.57942 7.57946 z m -23.79374,-7.35142 c 0.17564,-2.909029 -1.05695,-4.768068 -4.20147,-6.336931 -4.15975,-2.075366 -7.78592,-1.441248 -10.86154,1.899391 -1.8874,2.050035 -2.23437,3.312276 -1.58127,5.752758 0.28758,1.074631 0.31438,1.077667 8.40196,0.948556 l 8.11346,-0.129596 z m 24.45361,1.62119 c 1.54418,-4.028877 -1.9568,-8.28144 -7.43693,-9.033473 -2.53731,-0.348191 -6.43369,1.194089 -8.13705,3.220825 -1.27384,1.515694 -1.92753,4.041866 -1.44213,5.573056 0.30223,0.953367 0.61585,0.989785 8.52116,0.989785 7.0471,0 8.24806,-0.106163 8.49495,-0.750193 z"
         id="path3" /></g></g></svg>
