<?xml version="1.0" encoding="UTF-8" standalone="no"?>
<!-- Created with Inkscape (http://www.inkscape.org/) -->

<svg
   width="331.24274mm"
   height="250.67035mm"
   viewBox="0 0 331.24275 250.67035"
   version="1.1"
   id="svg5"
   inkscape:version="1.3.2 (091e20e, 2023-11-25)"
   sodipodi:docname="sel4_summit_2022.svg"
   inkscape:export-filename="C:\Users\Birgit Brecknell\Documents\}} seL4 Foundation\seL4 Summit 2022\logo\sel4_summit_large_text.png"
   inkscape:export-xdpi="96"
   inkscape:export-ydpi="96"
   xmlns:inkscape="http://www.inkscape.org/namespaces/inkscape"
   xmlns:sodipodi="http://sodipodi.sourceforge.net/DTD/sodipodi-0.dtd"
   xmlns:xlink="http://www.w3.org/1999/xlink"
   xmlns="http://www.w3.org/2000/svg"
   xmlns:svg="http://www.w3.org/2000/svg">
  <sodipodi:namedview
     id="namedview7"
     pagecolor="#ffffff"
     bordercolor="#666666"
     borderopacity="1.0"
     inkscape:pageshadow="2"
     inkscape:pageopacity="0.0"
     inkscape:pagecheckerboard="0"
     inkscape:document-units="mm"
     showgrid="false"
     inkscape:zoom="0.32026164"
     inkscape:cx="490.22419"
     inkscape:cy="624.48941"
     inkscape:window-width="1312"
     inkscape:window-height="899"
     inkscape:window-x="48"
     inkscape:window-y="38"
     inkscape:window-maximized="0"
     inkscape:current-layer="g12656"
     fit-margin-top="0"
     fit-margin-left="0"
     fit-margin-right="0"
     fit-margin-bottom="0"
     showguides="true"
     inkscape:guide-bbox="true"
     inkscape:snap-nodes="false"
     inkscape:showpageshadow="2"
     inkscape:deskcolor="#d1d1d1" />
  <defs
     id="defs2">
    <color-profile
       name="Agfa-:-Swop-Standard"
       xlink:href="file:///WINDOWS/system32/spool/drivers/color/RSWOP.icm"
       id="color-profile2" />
    <rect
       x="680.69342"
       y="102.26014"
       width="15.612235"
       height="115.53054"
       id="rect9649" />
    <style
       id="style824">.cls-1,.cls-2,.cls-3{fill:#96ca4f;}.cls-2,.cls-3{stroke:#96ca4f;stroke-miterlimit:8;}.cls-3{stroke-width:0.25px;}</style>
  </defs>
  <g
     inkscape:label="Layer 1"
     inkscape:groupmode="layer"
     id="layer1"
     transform="translate(-3.0154329)">
    <g
       id="g1204"
       transform="scale(1.9530976)"
       sodipodi:insensitive="true" />
    <g
       id="g12656">
      <text
         xml:space="preserve"
         transform="scale(0.38298209)"
         id="text9647"
         style="font-style:normal;font-weight:normal;font-size:40px;line-height:1.25;font-family:sans-serif;white-space:pre;shape-inside:url(#rect9649);display:inline;fill:#000000;fill-opacity:1;stroke:none" />
      <g
         id="g2"
         transform="translate(3.0154329)">
        <polygon
           class="cls-2"
           points="0.2,45.29 102.2,1.81 105.34,10.07 "
           id="polygon830"
           transform="matrix(1.5727619,0,0,1.5727619,-0.0061861,0)" />
        <polygon
           class="cls-1"
           points="102.01,1.34 105.31,0 108.62,1.35 "
           id="polygon828"
           transform="matrix(1.5727619,0,0,1.5727619,-0.0061861,0)" />
        <polygon
           class="cls-1"
           points="102.28,1.31 105.31,9.32 108.33,1.31 "
           id="polygon832"
           transform="matrix(1.5727619,0,0,1.5727619,-0.0061861,0)" />
        <polygon
           class="cls-2"
           points="105.28,10.07 210.42,45.29 108.42,1.81 "
           id="polygon834"
           transform="matrix(1.5727619,0,0,1.5727619,-0.0061861,0)" />
        <path
           class="cls-1"
           d="m 261.46548,97.542695 v -36.26789 h -17.45766 l -30.48011,36.330801 h -8.5401 V 52.781891 h -17.06448 v 44.823715 h -8.80746 c 0,-0.833564 0.12579,-1.792948 0.12579,-2.956792 v -1.069479 h -10.64759 v 3.051158 a 9.9398554,9.9398554 0 0 1 -0.58192,4.136367 2.6422401,2.6422401 0 0 1 -2.6108,1.38403 2.3591429,2.3591429 0 0 1 -2.23332,-1.11666 7.8638097,7.8638097 0 0 1 -0.50328,-3.664538 v -8.933288 h 16.56119 v -4.293641 a 20.445906,20.445906 0 0 0 -1.33685,-8.225545 9.9241278,9.9241278 0 0 0 -4.59247,-4.529553 18.36986,18.36986 0 0 0 -8.5401,-1.745766 18.071034,18.071034 0 0 0 -7.48634,1.462668 9.0433811,9.0433811 0 0 0 -4.52956,4.041998 16.57691,16.57691 0 0 0 -1.39975,7.486348 v 11.009333 a 31.455239,31.455239 0 0 0 0.20446,3.931904 h -4.71829 c 0,-0.440373 0,-0.880746 0,-1.368302 a 9.1849297,9.1849297 0 0 0 -1.57276,-5.834947 19.801073,19.801073 0 0 0 -7.03025,-4.403734 34.600762,34.600762 0 0 1 -5.66194,-2.893881 4.7182858,4.7182858 0 0 1 -1.91877,-2.076046 9.4365716,9.4365716 0 0 1 -0.29883,-2.783789 3.6488077,3.6488077 0 0 1 0.70775,-2.390598 2.6736952,2.6736952 0 0 1 2.18614,-0.912201 2.3591429,2.3591429 0 0 1 2.34341,1.11666 9.216385,9.216385 0 0 1 0.39319,3.648808 v 2.044591 h 9.86122 v -2.296233 a 17.536296,17.536296 0 0 0 -0.31455,-4.010544 5.8506744,5.8506744 0 0 0 -1.69859,-2.563601 10.50605,10.50605 0 0 0 -4.19927,-2.343415 22.490496,22.490496 0 0 0 -6.8887,-0.912202 20.949188,20.949188 0 0 0 -7.14034,1.11666 7.8638097,7.8638097 0 0 0 -4.13636,3.019703 12.330454,12.330454 0 0 0 -1.22675,6.291048 10.773419,10.773419 0 0 0 1.14811,5.15866 c 0.7392,1.399757 2.95679,3.03543 6.55842,4.859834 6.03941,3.019703 7.2347,3.821811 7.62789,4.183547 a 5.5833049,5.5833049 0 0 1 0.92793,3.916177 4.7182858,4.7182858 0 0 1 -0.72347,3.145525 3.1455239,3.1455239 0 0 1 -2.46923,0.86502 2.3591429,2.3591429 0 0 1 -2.35915,-1.33685 10.285863,10.285863 0 0 1 -0.47182,-4.29364 v -3.145523 h -9.89268 v 2.547874 c 0,0.597649 0,1.132388 0,1.651399 h -9.43657 a 40.23125,40.23125 0 1 0 0,13.88749 H 243.709 v 13.24265 h 17.8194 v -13.2112 h 7.8638 V 97.542695 Z M 56.377329,114.18252 a 9.5938478,9.5938478 0 1 1 9.609576,-9.59385 9.5938478,9.5938478 0 0 1 -9.609576,9.59385 z M 162.60167,81.374702 a 11.905808,11.905808 0 0 1 0.37747,-4.215002 c 0.23591,-0.534738 0.83356,-1.179571 2.32768,-1.179571 a 2.1389563,2.1389563 0 0 1 2.12324,1.32112 11.622711,11.622711 0 0 1 0.39318,4.073453 v 3.50726 h -5.22157 z M 243.709,97.542695 H 228.57904 L 243.709,78.197724 Z"
           id="path858"
           style="stroke-width:1.57276" />
        <path
           id="path1025"
           style="font-weight:bold;font-stretch:condensed;font-size:5.22315px;line-height:10;font-family:Arial;-inkscape-font-specification:'Arial Bold Condensed';text-align:center;letter-spacing:3.91736px;word-spacing:0px;text-anchor:middle;fill:#96ca4f;stroke-width:1.10081"
           d="m 229.63035,124.24694 v -7.82702 h -2.88805 v -1.59368 h 7.72573 v 1.59368 h -2.87996 v 7.82702 z m -18.45273,0 v -9.4207 h 1.95772 v 9.4207 z m -23.7111,0 v -9.4207 h 2.93659 l 1.76356,6.42612 1.7474,-6.42612 h 2.94467 v 9.4207 h -1.8202 v -7.41575 l -1.93345,7.41575 h -1.89301 l -1.91728,-7.41575 v 7.41575 z m -23.74345,0 v -9.4207 h 2.93659 l 1.76356,6.42612 1.7474,-6.42612 h 2.94468 v 9.4207 h -1.82021 v -7.41575 l -1.93344,7.41575 h -1.89302 l -1.91727,-7.41575 v 7.41575 z m -22.22257,-9.4207 h 1.95772 v 5.10234 q 0,1.18884 0.0728,1.5487 0.12945,0.62333 0.61482,0.96392 0.49347,0.34058 1.29436,0.34058 0.67954,0 1.1083,-0.23776 0.42876,-0.24417 0.58247,-0.66831 0.16179,-0.43056 0.16179,-1.83788 v -5.21159 h 1.96582 v 4.94812 q 0,1.8957 -0.25887,2.74395 -0.25079,0.84182 -1.14876,1.36876 -0.88987,0.52052 -2.35411,0.52052 -1.52088,0 -2.3784,-0.43055 -0.84942,-0.43698 -1.23773,-1.22096 -0.38022,-0.79042 -0.38022,-2.90461 z m -21.9637,6.35544 1.91727,-0.17995 q 0.3236,1.80575 2.11952,1.80575 0.88988,0 1.39953,-0.36629 0.50966,-0.37272 0.50966,-0.91894 0,-0.32131 -0.17799,-0.54622 -0.17797,-0.2249 -0.54202,-0.36629 -0.36404,-0.1478 -1.76357,-0.48839 -1.25391,-0.30202 -1.83638,-0.65546 -0.58246,-0.35344 -0.93032,-0.92536 -0.33977,-0.57835 -0.33977,-1.24024 0,-0.77114 0.43685,-1.38805 0.44494,-0.6169 1.22156,-0.93178 0.77661,-0.31488 1.91727,-0.31488 1.71503,0 2.67771,0.739 0.96268,0.739 1.01931,2.11419 l -1.96581,0.0836 q -0.12945,-0.75829 -0.5582,-1.06032 -0.42876,-0.30202 -1.22155,-0.30202 -0.7928,0 -1.22156,0.26348 -0.42875,0.26346 -0.42875,0.65547 0,0.38556 0.38831,0.64903 0.38831,0.26349 1.78783,0.57836 1.48043,0.34058 2.1357,0.71972 0.66336,0.37272 1.01122,0.97035 0.34786,0.5912 0.34786,1.43945 0,1.22739 -0.95459,2.06278 -0.9465,0.8354 -2.96894,0.8354 -3.57568,0 -3.98016,-3.23234 z" />
        <path
           sodipodi:type="star"
           style="fill:#96ca4f;fill-opacity:1;stroke:none;stroke-width:1.88976"
           id="path43980-0"
           inkscape:flatsided="true"
           sodipodi:sides="3"
           sodipodi:cx="479.11505"
           sodipodi:cy="21.527058"
           sodipodi:r1="87.493645"
           sodipodi:r2="31.308516"
           sodipodi:arg1="-2.1473854"
           sodipodi:arg2="-1.1001879"
           inkscape:rounded="0"
           inkscape:randomized="0"
           transform="matrix(-0.98951672,0.41064238,0.22664249,0.05302387,557.02697,-162.28845)"
           inkscape:transform-center-x="-0.51998471"
           inkscape:transform-center-y="0.07633973"
           d="M 431.41635,-51.821231 566.48588,16.892913 439.44292,99.509492 Z" />
        <path
           sodipodi:type="star"
           style="fill:#96ca4f;fill-opacity:1;stroke-width:1.88976"
           id="path1277"
           inkscape:flatsided="true"
           sodipodi:sides="3"
           sodipodi:cx="56.30154"
           sodipodi:cy="30.910648"
           sodipodi:r1="10.973231"
           sodipodi:r2="8.780798"
           sodipodi:arg1="0.49692007"
           sodipodi:arg2="1.5441176"
           inkscape:rounded="0"
           inkscape:randomized="0"
           transform="matrix(0.60915989,-0.47402208,0.38258089,0.61381474,76.640889,26.430762)"
           inkscape:transform-center-x="0.69767945"
           inkscape:transform-center-y="1.8525304"
           d="m 65.947614,36.141811 -18.999431,0.507001 9.06064,-16.70749 z" />
        <path
           sodipodi:type="star"
           style="fill:#96ca4f;fill-opacity:1;stroke:none;stroke-width:1.88976"
           id="path43980-0-9"
           inkscape:flatsided="true"
           sodipodi:sides="3"
           sodipodi:cx="479.11505"
           sodipodi:cy="21.527058"
           sodipodi:r1="87.493645"
           sodipodi:r2="31.308516"
           sodipodi:arg1="-2.1473854"
           sodipodi:arg2="-1.1001879"
           inkscape:rounded="0"
           inkscape:randomized="0"
           transform="matrix(0.98951672,0.41064238,-0.22664249,0.05302387,-225.78424,-162.28845)"
           inkscape:transform-center-x="-0.51998471"
           inkscape:transform-center-y="0.07633973"
           d="M 431.41635,-51.821231 566.48588,16.892913 439.44292,99.509492 Z" />
        <path
           sodipodi:type="star"
           style="fill:#96ca4f;fill-opacity:1;stroke-width:1.88976"
           id="path1277-2"
           inkscape:flatsided="true"
           sodipodi:sides="3"
           sodipodi:cx="56.30154"
           sodipodi:cy="30.910648"
           sodipodi:r1="10.973231"
           sodipodi:r2="8.780798"
           sodipodi:arg1="0.49692007"
           sodipodi:arg2="1.5441176"
           inkscape:rounded="0"
           inkscape:randomized="0"
           transform="matrix(-0.60915989,-0.47402208,-0.38258089,0.61381474,254.60184,26.430762)"
           inkscape:transform-center-x="0.69767945"
           inkscape:transform-center-y="1.8525304"
           d="m 65.947614,36.141811 -18.999431,0.507001 9.06064,-16.70749 z" />
      </g>
      <g
         id="g3802"
         transform="scale(1.4474914)" />
      <g
         id="g258"
         transform="matrix(1.4474914,0,0,1.4474914,-35.881589,8.8786689)">
        <g
           id="g216">
          <path
             style="font-weight:bold;font-stretch:condensed;font-size:5.22315px;line-height:10;font-family:Arial;-inkscape-font-specification:'Arial Bold Condensed';text-align:center;letter-spacing:3.91736px;word-spacing:0px;text-anchor:middle;fill:#96ca4f;stroke-width:1.39672"
             d="m 124.84334,129.04298 2.43265,-0.22832 q 0.41056,2.29113 2.68924,2.29113 1.12907,0 1.77572,-0.46474 0.64665,-0.47291 0.64665,-1.16596 0,-0.40766 -0.22584,-0.69305 -0.22579,-0.28535 -0.68772,-0.46475 -0.46186,-0.18752 -2.2376,-0.61967 -1.59098,-0.38319 -2.33,-0.83164 -0.73904,-0.44845 -1.18041,-1.1741 -0.43108,-0.73383 -0.43108,-1.57362 0,-0.97842 0.55427,-1.76115 0.56454,-0.78275 1.54989,-1.18226 0.98539,-0.39953 2.43266,-0.39953 2.17603,0 3.39748,0.93767 1.22147,0.93764 1.2933,2.68249 l -2.49421,0.10603 q -0.1642,-0.9621 -0.70824,-1.34531 -0.54401,-0.38324 -1.54992,-0.38324 -1.00591,0 -1.5499,0.33432 -0.54402,0.33428 -0.54402,0.83166 0,0.48921 0.49269,0.8235 0.49269,0.33432 2.26841,0.7338 1.87836,0.43216 2.70978,0.91321 0.84167,0.4729 1.28304,1.23117 0.44136,0.75012 0.44136,1.82639 0,1.55731 -1.21118,2.61725 -1.20093,1.05995 -3.767,1.05995 -4.53683,0 -5.05004,-4.10121 z"
             id="path20783" />
          <path
             style="font-weight:bold;font-stretch:condensed;font-size:5.22315px;line-height:10;font-family:Arial;-inkscape-font-specification:'Arial Bold Condensed';text-align:center;letter-spacing:3.91736px;word-spacing:0px;text-anchor:middle;fill:#96ca4f;stroke-width:1.39672"
             d="m 140.41343,120.98737 h 2.48396 v 6.47387 q 0,1.50838 0.0924,1.96497 0.16419,0.79089 0.7801,1.22303 0.62612,0.43213 1.64227,0.43213 0.86221,0 1.40622,-0.30167 0.54401,-0.30981 0.73903,-0.84796 0.20528,-0.54627 0.20528,-2.33189 v -6.61248 h 2.49424 v 6.27818 q 0,2.40529 -0.32846,3.48152 -0.3182,1.06811 -1.45754,1.7367 -1.12909,0.66044 -2.9869,0.66044 -1.92971,0 -3.0177,-0.5463 -1.07776,-0.55441 -1.57046,-1.54917 -0.48243,-1.00287 -0.48243,-3.68536 z"
             id="path20781" />
          <path
             style="font-weight:bold;font-stretch:condensed;font-size:5.22315px;line-height:10;font-family:Arial;-inkscape-font-specification:'Arial Bold Condensed';text-align:center;letter-spacing:3.91736px;word-spacing:0px;text-anchor:middle;fill:#96ca4f;stroke-width:1.39672"
             d="m 155.79882,133.14421 v -11.95299 h 3.72594 l 2.23761,8.15347 2.2171,-8.15347 h 3.73621 v 11.95299 h -2.30947 v -9.4091 l -2.45317,9.4091 h -2.40187 l -2.43263,-9.4091 v 9.4091 z"
             id="path20779" />
          <path
             style="font-weight:bold;font-stretch:condensed;font-size:5.22315px;line-height:10;font-family:Arial;-inkscape-font-specification:'Arial Bold Condensed';text-align:center;letter-spacing:3.91736px;word-spacing:0px;text-anchor:middle;fill:#96ca4f;stroke-width:1.39672"
             d="m 173.25758,133.14421 v -11.95299 h 3.72595 l 2.23761,8.15347 2.2171,-8.15347 h 3.7362 v 11.95299 h -2.30947 v -9.4091 l -2.45316,9.4091 h -2.40186 l -2.43265,-9.4091 v 9.4091 z"
             id="path20777" />
          <path
             style="font-weight:bold;font-stretch:condensed;font-size:5.22315px;line-height:10;font-family:Arial;-inkscape-font-specification:'Arial Bold Condensed';text-align:center;letter-spacing:3.91736px;word-spacing:0px;text-anchor:middle;fill:#96ca4f;stroke-width:1.39672"
             d="m 190.71633,133.14421 v -11.95299 h 2.48396 v 11.95299 z"
             id="path20775" />
          <path
             style="font-weight:bold;font-stretch:condensed;font-size:5.22315px;line-height:10;font-family:Arial;-inkscape-font-specification:'Arial Bold Condensed';text-align:center;letter-spacing:3.91736px;word-spacing:0px;text-anchor:middle;fill:#96ca4f;stroke-width:1.39672"
             d="m 202.40656,133.14421 v -9.93094 h -3.66438 v -2.02205 h 9.80242 v 2.02205 h -3.6541 v 9.93094 z"
             id="path20771" />
        </g>
        <g
           id="g208"
           transform="translate(-92.007478,-44.68935)">
          <path
             d="m 166.0461,175.19597 2.34563,-0.34684 q 0.30462,1.34702 1.88868,1.34702 0.8428,0 1.25912,-0.25811 0.41632,-0.25811 0.41632,-0.66947 0,-0.28232 -0.18277,-0.44364 -0.19293,-0.16132 -0.76157,-0.2823 -2.88379,-0.60495 -3.66567,-1.15344 -0.9748,-0.68562 -0.9748,-1.87938 0,-1.19379 0.9545,-1.91166 0.95449,-0.71787 2.77209,-0.71787 1.73637,0 2.6401,0.54042 0.90372,0.53236 1.26928,1.72613 l -2.20347,0.39523 q -0.29447,-1.03246 -1.66529,-1.03246 -0.86311,0 -1.22866,0.20166 -0.36555,0.1936 -0.36555,0.50816 0,0.28231 0.33509,0.46783 0.33509,0.19358 2.08161,0.58076 1.95976,0.43556 2.6604,1.05665 0.69049,0.62108 0.69049,1.65352 0,1.24217 -1.07635,2.04878 -1.06619,0.8066 -2.95487,0.8066 -1.71606,0 -2.80256,-0.66948 -1.0865,-0.67754 -1.43175,-1.96811 z"
             style="font-weight:bold;font-stretch:condensed;font-size:16.2278px;line-height:10;font-family:Arial;-inkscape-font-specification:'Arial Bold Condensed';text-align:center;letter-spacing:3.91736px;word-spacing:0px;text-anchor:middle;fill:#96ca4f;stroke-width:0.444728"
             id="path21173" />
          <path
             d="m 182.64348,174.91366 2.32532,0.37911 q -0.4671,1.29056 -1.45205,1.9197 -0.98497,0.62109 -2.3964,0.62109 -1.95976,0 -3.02596,-1.04051 -1.25911,-1.20991 -1.25911,-3.38774 0,-2.14555 1.26927,-3.43613 1.07635,-1.0889 2.78225,-1.0889 1.89884,0 2.97519,1.11311 1.23881,1.27443 1.23881,3.75877 l -0.0103,0.2581 h -5.85898 q 0.0203,1.01632 0.56863,1.57288 0.55849,0.55655 1.34036,0.55655 1.12712,0 1.50283,-1.22603 z m 0.13201,-2.29075 q -0.0305,-1.00019 -0.53818,-1.50028 -0.50771,-0.50817 -1.20835,-0.50817 -0.74125,0 -1.24896,0.5243 -0.51787,0.53236 -0.50772,1.48415 z"
             style="font-weight:bold;font-stretch:condensed;font-size:16.2278px;line-height:10;font-family:Arial;-inkscape-font-specification:'Arial Bold Condensed';text-align:center;letter-spacing:3.91736px;word-spacing:0px;text-anchor:middle;fill:#96ca4f;stroke-width:0.444728"
             id="path21170" />
          <path
             d="m 187.62445,177.83356 v -11.72799 h 2.45731 v 9.73568 h 6.13315 v 1.99231 z"
             style="font-weight:bold;font-stretch:condensed;font-size:16.2278px;line-height:10;font-family:Arial;-inkscape-font-specification:'Arial Bold Condensed';text-align:center;letter-spacing:3.91736px;word-spacing:0px;text-anchor:middle;fill:#96ca4f;stroke-width:0.444728"
             id="path21167" />
          <path
             d="m 203.73443,177.83356 v -2.37948 h -4.99587 v -1.98424 l 5.29033,-7.50946 h 1.96993 v 7.5014 h 1.51296 v 1.9923 h -1.51296 v 2.37948 z m 0,-4.37178 v -4.04108 l -2.80256,4.04108 z"
             style="font-weight:bold;font-stretch:condensed;font-size:16.2278px;line-height:10;font-family:Arial;-inkscape-font-specification:'Arial Bold Condensed';text-align:center;letter-spacing:3.91736px;word-spacing:0px;text-anchor:middle;fill:#96ca4f;stroke-width:0.444728"
             id="path21164" />
        </g>
      </g>
      <g
         id="g5"
         transform="translate(-2.0653686)">
        <g
           id="g3"
           transform="translate(6.6091795)">
          <path
             style="font-weight:bold;font-stretch:condensed;font-size:16.2278px;line-height:10;font-family:Arial;-inkscape-font-specification:'Arial Bold Condensed';text-align:center;letter-spacing:12.312px;word-spacing:0px;text-anchor:middle;fill:#96ca4f;stroke-width:2.07329"
             d="M 75.932825,250.67035 V 234.0802 h 5.467414 l 3.283461,11.3166 3.253339,-11.3166 h 5.482475 v 16.59015 h -3.388891 v -13.05937 l -3.599759,13.05937 h -3.524449 l -3.569634,-13.05937 v 13.05937 z"
             id="path20888" />
          <path
             style="font-weight:bold;font-stretch:condensed;font-size:16.2278px;line-height:10;font-family:Arial;-inkscape-font-specification:'Arial Bold Condensed';text-align:center;letter-spacing:12.312px;word-spacing:0px;text-anchor:middle;fill:#96ca4f;stroke-width:2.07329"
             d="m 98.48536,233.79727 h 3.64494 v 8.98541 q 0,2.09356 0.13555,2.72729 0.24099,1.09772 1.14469,1.69748 0.91877,0.59977 2.40988,0.59977 1.26519,0 2.06346,-0.4187 0.79827,-0.43002 1.08445,-1.17693 0.30123,-0.75821 0.30123,-3.23654 v -9.17778 h 3.66001 v 8.7138 q 0,3.33841 -0.48198,4.83219 -0.4669,1.48248 -2.13877,2.41043 -1.65679,0.91666 -4.38297,0.91666 -2.83161,0 -4.42815,-0.75823 -1.581486,-0.76953 -2.30445,-2.15015 -0.707903,-1.39195 -0.707903,-5.1151 z"
             id="path20885" />
          <path
             style="font-weight:bold;font-stretch:condensed;font-size:16.2278px;line-height:10;font-family:Arial;-inkscape-font-specification:'Arial Bold Condensed';text-align:center;letter-spacing:12.312px;word-spacing:0px;text-anchor:middle;fill:#96ca4f;stroke-width:2.07329"
             d="M 117.9954,250.67035 V 234.0802 h 3.55456 l 7.41039,11.07895 V 234.0802 h 3.40395 v 16.59015 h -3.67507 l -7.28988,-10.81867 v 10.81867 z"
             id="path20882" />
          <path
             style="font-weight:bold;font-stretch:condensed;font-size:16.2278px;line-height:10;font-family:Arial;-inkscape-font-specification:'Arial Bold Condensed';text-align:center;letter-spacing:12.312px;word-spacing:0px;text-anchor:middle;fill:#96ca4f;stroke-width:2.07329"
             d="M 137.43013,250.67035 V 234.0802 h 3.64494 v 16.59015 z"
             id="path20879" />
          <path
             style="font-weight:bold;font-stretch:condensed;font-size:16.2278px;line-height:10;font-family:Arial;-inkscape-font-specification:'Arial Bold Condensed';text-align:center;letter-spacing:12.312px;word-spacing:0px;text-anchor:middle;fill:#96ca4f;stroke-width:2.07329"
             d="m 158.37103,244.28778 3.53951,1.0298 q -0.82839,2.78389 -2.7563,4.07399 -1.92791,1.27878 -4.74446,1.27878 -3.5395,0 -5.7385,-2.04831 -2.53037,-2.36518 -2.53037,-6.38258 0,-4.24373 2.54542,-6.64284 2.21407,-2.08228 5.94939,-2.08228 3.04247,0 5.09087,1.56172 1.46099,1.10901 2.13876,3.29313 l -3.61482,0.79217 q -0.34643,-1.34669 -1.38568,-2.05964 -1.02421,-0.72427 -2.42494,-0.72427 -2.0032,0 -3.2684,1.31273 -1.26518,1.31273 -1.26518,4.33427 0,3.13469 1.23506,4.45875 1.23507,1.32402 3.20815,1.32402 1.44593,0 2.50025,-0.8374 1.05431,-0.84875 1.52124,-2.68204 z"
             id="path20876" />
          <path
             style="font-weight:bold;font-stretch:condensed;font-size:16.2278px;line-height:10;font-family:Arial;-inkscape-font-specification:'Arial Bold Condensed';text-align:center;letter-spacing:12.312px;word-spacing:0px;text-anchor:middle;fill:#96ca4f;stroke-width:2.07329"
             d="M 166.97637,250.67035 V 234.0802 h 3.64497 v 6.52968 h 7.16938 v -6.52968 h 3.66001 v 16.59015 h -3.66001 v -7.25395 h -7.16938 v 7.25395 z"
             id="path20873" />
        </g>
        <g
           id="g4"
           transform="translate(-2.4784423)">
          <path
             d="m 216.93589,247.76 v 2.91035 h -11 q 0.17694,-1.65032 1.07548,-3.13335 0.91213,-1.49418 3.52599,-3.91388 2.06932,-1.92907 2.54579,-2.60925 0.70794,-0.99242 0.70794,-1.99598 0,-1.07047 -0.58539,-1.61684 -0.58541,-0.54639 -1.53839,-0.54639 -2.08293,0 -2.24629,2.55351 l -3.11756,-0.31223 q 0.28589,-2.49776 1.68811,-3.66856 1.41585,-1.17083 3.75744,-1.17083 2.57301,0 3.87994,1.37152 1.30694,1.37156 1.30694,3.1445 0,1.00356 -0.34035,1.95137 -0.32672,0.93664 -1.02103,1.8956 -0.69431,0.94783 -2.31439,2.43086 -1.51111,1.39383 -1.91953,1.83986 -0.39481,0.44603 -0.63987,0.86974 z"
             style="font-weight:bold;font-stretch:condensed;font-size:16.2278px;line-height:10;font-family:Arial;-inkscape-font-specification:'Arial Bold Condensed';text-align:center;letter-spacing:3.91736px;word-spacing:0px;text-anchor:middle;fill:#96ca4f;stroke-width:0.649993"
             id="path20515" />
          <path
             d="m 226.23047,233.97779 q 2.4648,0 3.98593,1.86215 1.52112,1.85102 1.52112,6.48971 0,4.62753 -1.52112,6.48967 -1.52113,1.85103 -3.97184,1.85103 -2.46479,0 -3.98593,-1.83988 -1.52111,-1.83985 -1.52111,-6.53428 0,-4.60523 1.52111,-6.45625 1.52114,-1.86215 3.97184,-1.86215 z m 0,2.5981 q -0.95773,0 -1.53521,1.00356 -0.56338,1.00357 -0.56338,4.7502 0,3.74662 0.56338,4.75019 0.57748,0.9924 1.53521,0.9924 0.97185,0 1.53522,-1.00357 0.56338,-1.00356 0.56338,-4.73902 0,-3.74663 -0.56338,-4.7502 -0.56337,-1.00356 -1.53522,-1.00356 z"
             style="font-weight:bold;font-stretch:condensed;font-size:16.2278px;line-height:10;font-family:Arial;-inkscape-font-specification:'Arial Bold Condensed';text-align:center;letter-spacing:3.91736px;word-spacing:0px;text-anchor:middle;fill:#96ca4f;stroke-width:0.649993"
             id="path20517" />
          <path
             d="m 246.53915,247.76 v 2.91035 h -11 q 0.177,-1.65032 1.0755,-3.13335 0.91216,-1.49418 3.52601,-3.91388 2.06929,-1.92907 2.54576,-2.60925 0.70795,-0.99242 0.70795,-1.99598 0,-1.07047 -0.5854,-1.61684 -0.58541,-0.54639 -1.53837,-0.54639 -2.08291,0 -2.24629,2.55351 l -3.11756,-0.31223 q 0.28588,-2.49776 1.6881,-3.66856 1.41586,-1.17083 3.75744,-1.17083 2.57301,0 3.87994,1.37152 1.30692,1.37156 1.30692,3.1445 0,1.00356 -0.34033,1.95137 -0.32673,0.93664 -1.02104,1.8956 -0.69431,0.94783 -2.31436,2.43086 -1.51113,1.39383 -1.91954,1.83986 -0.39481,0.44603 -0.63986,0.86974 z"
             style="font-weight:bold;font-stretch:condensed;font-size:16.2278px;line-height:10;font-family:Arial;-inkscape-font-specification:'Arial Bold Condensed';text-align:center;letter-spacing:3.91736px;word-spacing:0px;text-anchor:middle;fill:#96ca4f;stroke-width:0.649993"
             id="path20519" />
          <path
             d="m 261.34078,247.76 v 2.91035 h -11 q 0.17698,-1.65032 1.07548,-3.13335 0.91213,-1.49418 3.52601,-3.91388 2.06932,-1.92907 2.54581,-2.60925 0.7079,-0.99242 0.7079,-1.99598 0,-1.07047 -0.58539,-1.61684 -0.58541,-0.54639 -1.53836,-0.54639 -2.08295,0 -2.24632,2.55351 l -3.11757,-0.31223 q 0.28589,-2.49776 1.68812,-3.66856 1.41584,-1.17083 3.75743,-1.17083 2.57305,0 3.87996,1.37152 1.30693,1.37156 1.30693,3.1445 0,1.00356 -0.34033,1.95137 -0.32674,0.93664 -1.02106,1.8956 -0.6943,0.94783 -2.31436,2.43086 -1.51114,1.39383 -1.91954,1.83986 -0.39483,0.44603 -0.63986,0.86974 z"
             style="font-weight:bold;font-stretch:condensed;font-size:16.2278px;line-height:10;font-family:Arial;-inkscape-font-specification:'Arial Bold Condensed';text-align:center;letter-spacing:3.91736px;word-spacing:0px;text-anchor:middle;fill:#96ca4f;stroke-width:0.649993"
             id="path20521" />
        </g>
      </g>
    </g>
  </g>
</svg>
