<?xml version="1.0" encoding="UTF-8" standalone="no"?>
<!-- Created with Inkscape (http://www.inkscape.org/) -->

<svg
   width="331.24274mm"
   height="250mm"
   viewBox="0 0 331.24275 250"
   version="1.1"
   id="svg5"
   inkscape:version="1.3.2 (091e20e, 2023-11-25)"
   sodipodi:docname="sel4_summit_2022_location.svg"
   inkscape:export-filename="C:\Users\Birgit Brecknell\Documents\}} seL4 Foundation\seL4 Summit 2022\logo\sel4_summit_large_text.png"
   inkscape:export-xdpi="96"
   inkscape:export-ydpi="96"
   xml:space="preserve"
   xmlns:inkscape="http://www.inkscape.org/namespaces/inkscape"
   xmlns:sodipodi="http://sodipodi.sourceforge.net/DTD/sodipodi-0.dtd"
   xmlns:xlink="http://www.w3.org/1999/xlink"
   xmlns="http://www.w3.org/2000/svg"
   xmlns:svg="http://www.w3.org/2000/svg"><sodipodi:namedview
     id="namedview7"
     pagecolor="#ffffff"
     bordercolor="#666666"
     borderopacity="1.0"
     inkscape:pageshadow="2"
     inkscape:pageopacity="0.0"
     inkscape:pagecheckerboard="0"
     inkscape:document-units="mm"
     showgrid="false"
     inkscape:zoom="0.32026164"
     inkscape:cx="501.15274"
     inkscape:cy="621.36695"
     inkscape:window-width="1312"
     inkscape:window-height="641"
     inkscape:window-x="200"
     inkscape:window-y="192"
     inkscape:window-maximized="0"
     inkscape:current-layer="g12656"
     fit-margin-top="0"
     fit-margin-left="0"
     fit-margin-right="0"
     fit-margin-bottom="0"
     showguides="true"
     inkscape:guide-bbox="true"
     inkscape:snap-nodes="false"
     inkscape:showpageshadow="2"
     inkscape:deskcolor="#d1d1d1" /><defs
     id="defs2"><color-profile
       name="Agfa-:-Swop-Standard"
       xlink:href="file:///WINDOWS/system32/spool/drivers/color/RSWOP.icm"
       id="color-profile2" /><rect
       x="680.69342"
       y="102.26014"
       width="15.612235"
       height="115.53054"
       id="rect9649" /><style
       id="style824">.cls-1,.cls-2,.cls-3{fill:#96ca4f;}.cls-2,.cls-3{stroke:#96ca4f;stroke-miterlimit:8;}.cls-3{stroke-width:0.25px;}</style></defs><g
     inkscape:label="Layer 1"
     inkscape:groupmode="layer"
     id="layer1"><g
       id="g1204"
       transform="scale(1.9530976)"
       sodipodi:insensitive="true" /><g
       id="g12656"><text
         xml:space="preserve"
         transform="scale(0.38298209)"
         id="text9647"
         style="font-style:normal;font-weight:normal;font-size:40px;line-height:1.25;font-family:sans-serif;white-space:pre;shape-inside:url(#rect9649);display:inline;fill:#000000;fill-opacity:1;stroke:none" /><g
         id="g3802"
         transform="scale(1.4474914)" /><g
         id="g258"
         transform="matrix(1.4474914,0,0,1.4474914,-38.070867,-174.82124)"><g
           id="g216"><path
             style="font-weight:bold;font-stretch:condensed;font-size:5.22315px;line-height:10;font-family:Arial;-inkscape-font-specification:'Arial Bold Condensed';text-align:center;letter-spacing:3.91736px;word-spacing:0px;text-anchor:middle;fill:#96ca4f;stroke-width:1.39672"
             d="m 124.84334,129.04298 2.43265,-0.22832 q 0.41056,2.29113 2.68924,2.29113 1.12907,0 1.77572,-0.46474 0.64665,-0.47291 0.64665,-1.16596 0,-0.40766 -0.22584,-0.69305 -0.22579,-0.28535 -0.68772,-0.46475 -0.46186,-0.18752 -2.2376,-0.61967 -1.59098,-0.38319 -2.33,-0.83164 -0.73904,-0.44845 -1.18041,-1.1741 -0.43108,-0.73383 -0.43108,-1.57362 0,-0.97842 0.55427,-1.76115 0.56454,-0.78275 1.54989,-1.18226 0.98539,-0.39953 2.43266,-0.39953 2.17603,0 3.39748,0.93767 1.22147,0.93764 1.2933,2.68249 l -2.49421,0.10603 q -0.1642,-0.9621 -0.70824,-1.34531 -0.54401,-0.38324 -1.54992,-0.38324 -1.00591,0 -1.5499,0.33432 -0.54402,0.33428 -0.54402,0.83166 0,0.48921 0.49269,0.8235 0.49269,0.33432 2.26841,0.7338 1.87836,0.43216 2.70978,0.91321 0.84167,0.4729 1.28304,1.23117 0.44136,0.75012 0.44136,1.82639 0,1.55731 -1.21118,2.61725 -1.20093,1.05995 -3.767,1.05995 -4.53683,0 -5.05004,-4.10121 z"
             id="path20783" /><path
             style="font-weight:bold;font-stretch:condensed;font-size:5.22315px;line-height:10;font-family:Arial;-inkscape-font-specification:'Arial Bold Condensed';text-align:center;letter-spacing:3.91736px;word-spacing:0px;text-anchor:middle;fill:#96ca4f;stroke-width:1.39672"
             d="m 140.41343,120.98737 h 2.48396 v 6.47387 q 0,1.50838 0.0924,1.96497 0.16419,0.79089 0.7801,1.22303 0.62612,0.43213 1.64227,0.43213 0.86221,0 1.40622,-0.30167 0.54401,-0.30981 0.73903,-0.84796 0.20528,-0.54627 0.20528,-2.33189 v -6.61248 h 2.49424 v 6.27818 q 0,2.40529 -0.32846,3.48152 -0.3182,1.06811 -1.45754,1.7367 -1.12909,0.66044 -2.9869,0.66044 -1.92971,0 -3.0177,-0.5463 -1.07776,-0.55441 -1.57046,-1.54917 -0.48243,-1.00287 -0.48243,-3.68536 z"
             id="path20781" /><path
             style="font-weight:bold;font-stretch:condensed;font-size:5.22315px;line-height:10;font-family:Arial;-inkscape-font-specification:'Arial Bold Condensed';text-align:center;letter-spacing:3.91736px;word-spacing:0px;text-anchor:middle;fill:#96ca4f;stroke-width:1.39672"
             d="m 155.79882,133.14421 v -11.95299 h 3.72594 l 2.23761,8.15347 2.2171,-8.15347 h 3.73621 v 11.95299 h -2.30947 v -9.4091 l -2.45317,9.4091 h -2.40187 l -2.43263,-9.4091 v 9.4091 z"
             id="path20779" /><path
             style="font-weight:bold;font-stretch:condensed;font-size:5.22315px;line-height:10;font-family:Arial;-inkscape-font-specification:'Arial Bold Condensed';text-align:center;letter-spacing:3.91736px;word-spacing:0px;text-anchor:middle;fill:#96ca4f;stroke-width:1.39672"
             d="m 173.25758,133.14421 v -11.95299 h 3.72595 l 2.23761,8.15347 2.2171,-8.15347 h 3.7362 v 11.95299 h -2.30947 v -9.4091 l -2.45316,9.4091 h -2.40186 l -2.43265,-9.4091 v 9.4091 z"
             id="path20777" /><path
             style="font-weight:bold;font-stretch:condensed;font-size:5.22315px;line-height:10;font-family:Arial;-inkscape-font-specification:'Arial Bold Condensed';text-align:center;letter-spacing:3.91736px;word-spacing:0px;text-anchor:middle;fill:#96ca4f;stroke-width:1.39672"
             d="m 190.71633,133.14421 v -11.95299 h 2.48396 v 11.95299 z"
             id="path20775" /><path
             style="font-weight:bold;font-stretch:condensed;font-size:5.22315px;line-height:10;font-family:Arial;-inkscape-font-specification:'Arial Bold Condensed';text-align:center;letter-spacing:3.91736px;word-spacing:0px;text-anchor:middle;fill:#96ca4f;stroke-width:1.39672"
             d="m 202.40656,133.14421 v -9.93094 h -3.66438 v -2.02205 h 9.80242 v 2.02205 h -3.6541 v 9.93094 z"
             id="path20771" /></g><g
           id="g208"
           transform="translate(-92.007478,-44.68935)"><path
             d="m 166.0461,175.19597 2.34563,-0.34684 q 0.30462,1.34702 1.88868,1.34702 0.8428,0 1.25912,-0.25811 0.41632,-0.25811 0.41632,-0.66947 0,-0.28232 -0.18277,-0.44364 -0.19293,-0.16132 -0.76157,-0.2823 -2.88379,-0.60495 -3.66567,-1.15344 -0.9748,-0.68562 -0.9748,-1.87938 0,-1.19379 0.9545,-1.91166 0.95449,-0.71787 2.77209,-0.71787 1.73637,0 2.6401,0.54042 0.90372,0.53236 1.26928,1.72613 l -2.20347,0.39523 q -0.29447,-1.03246 -1.66529,-1.03246 -0.86311,0 -1.22866,0.20166 -0.36555,0.1936 -0.36555,0.50816 0,0.28231 0.33509,0.46783 0.33509,0.19358 2.08161,0.58076 1.95976,0.43556 2.6604,1.05665 0.69049,0.62108 0.69049,1.65352 0,1.24217 -1.07635,2.04878 -1.06619,0.8066 -2.95487,0.8066 -1.71606,0 -2.80256,-0.66948 -1.0865,-0.67754 -1.43175,-1.96811 z"
             style="font-weight:bold;font-stretch:condensed;font-size:16.2278px;line-height:10;font-family:Arial;-inkscape-font-specification:'Arial Bold Condensed';text-align:center;letter-spacing:3.91736px;word-spacing:0px;text-anchor:middle;fill:#96ca4f;stroke-width:0.444728"
             id="path21173" /><path
             d="m 182.64348,174.91366 2.32532,0.37911 q -0.4671,1.29056 -1.45205,1.9197 -0.98497,0.62109 -2.3964,0.62109 -1.95976,0 -3.02596,-1.04051 -1.25911,-1.20991 -1.25911,-3.38774 0,-2.14555 1.26927,-3.43613 1.07635,-1.0889 2.78225,-1.0889 1.89884,0 2.97519,1.11311 1.23881,1.27443 1.23881,3.75877 l -0.0103,0.2581 h -5.85898 q 0.0203,1.01632 0.56863,1.57288 0.55849,0.55655 1.34036,0.55655 1.12712,0 1.50283,-1.22603 z m 0.13201,-2.29075 q -0.0305,-1.00019 -0.53818,-1.50028 -0.50771,-0.50817 -1.20835,-0.50817 -0.74125,0 -1.24896,0.5243 -0.51787,0.53236 -0.50772,1.48415 z"
             style="font-weight:bold;font-stretch:condensed;font-size:16.2278px;line-height:10;font-family:Arial;-inkscape-font-specification:'Arial Bold Condensed';text-align:center;letter-spacing:3.91736px;word-spacing:0px;text-anchor:middle;fill:#96ca4f;stroke-width:0.444728"
             id="path21170" /><path
             d="m 187.62445,177.83356 v -11.72799 h 2.45731 v 9.73568 h 6.13315 v 1.99231 z"
             style="font-weight:bold;font-stretch:condensed;font-size:16.2278px;line-height:10;font-family:Arial;-inkscape-font-specification:'Arial Bold Condensed';text-align:center;letter-spacing:3.91736px;word-spacing:0px;text-anchor:middle;fill:#96ca4f;stroke-width:0.444728"
             id="path21167" /><path
             d="m 203.73443,177.83356 v -2.37948 h -4.99587 v -1.98424 l 5.29033,-7.50946 h 1.96993 v 7.5014 h 1.51296 v 1.9923 h -1.51296 v 2.37948 z m 0,-4.37178 v -4.04108 l -2.80256,4.04108 z"
             style="font-weight:bold;font-stretch:condensed;font-size:16.2278px;line-height:10;font-family:Arial;-inkscape-font-specification:'Arial Bold Condensed';text-align:center;letter-spacing:3.91736px;word-spacing:0px;text-anchor:middle;fill:#96ca4f;stroke-width:0.444728"
             id="path21164" /></g></g><g
         id="g244"
         transform="matrix(1.4474914,0,0,1.4474914,-33.823487,15.64337)"><g
           id="g224"><path
             style="font-weight:bold;font-stretch:condensed;font-size:16.2278px;line-height:10;font-family:Arial;-inkscape-font-specification:'Arial Bold Condensed';text-align:center;letter-spacing:12.312px;word-spacing:0px;text-anchor:middle;fill:#96ca4f;stroke-width:1.43233"
             d="m 68.405515,161.90537 v -12.11732 h 3.777165 l 2.26838,8.26556 2.247571,-8.26556 h 3.78757 v 12.11732 h -2.341217 v -9.53846 l -2.486895,9.53846 h -2.434867 l -2.466083,-9.53846 v 9.53846 z"
             id="path20888" /><path
             style="font-weight:bold;font-stretch:condensed;font-size:16.2278px;line-height:10;font-family:Arial;-inkscape-font-specification:'Arial Bold Condensed';text-align:center;letter-spacing:12.312px;word-spacing:0px;text-anchor:middle;fill:#96ca4f;stroke-width:1.43233"
             d="m 86.097693,149.5814 h 2.518111 v 6.56287 q 0,1.52913 0.09364,1.992 0.166487,0.80176 0.79081,1.23983 0.634731,0.43807 1.664867,0.43807 0.874056,0 1.425542,-0.30582 0.551487,-0.31409 0.74919,-0.85962 0.208109,-0.55379 0.208109,-2.36395 v -6.70338 h 2.528519 v 6.36449 q 0,2.43835 -0.33298,3.5294 -0.32256,1.08279 -1.47757,1.76056 -1.144591,0.66952 -3.027972,0.66952 -1.956217,0 -3.059191,-0.5538 -1.092569,-0.56206 -1.592029,-1.57045 -0.489055,-1.01667 -0.489055,-3.73604 z"
             id="path20885" /><path
             style="font-weight:bold;font-stretch:condensed;font-size:16.2278px;line-height:10;font-family:Arial;-inkscape-font-specification:'Arial Bold Condensed';text-align:center;letter-spacing:12.312px;word-spacing:0px;text-anchor:middle;fill:#96ca4f;stroke-width:1.43233"
             d="m 101.68797,161.90537 v -12.11732 h 2.45567 l 5.11947,8.09199 v -8.09199 h 2.35162 v 12.11732 h -2.53892 l -5.03622,-7.90187 v 7.90187 z"
             id="path20882" /><path
             style="font-weight:bold;font-stretch:condensed;font-size:16.2278px;line-height:10;font-family:Arial;-inkscape-font-specification:'Arial Bold Condensed';text-align:center;letter-spacing:12.312px;word-spacing:0px;text-anchor:middle;fill:#96ca4f;stroke-width:1.43233"
             d="m 117.22622,161.90537 v -12.11732 h 2.51811 v 12.11732 z"
             id="path20879" /><path
             style="font-weight:bold;font-stretch:condensed;font-size:16.2278px;line-height:10;font-family:Arial;-inkscape-font-specification:'Arial Bold Condensed';text-align:center;letter-spacing:12.312px;word-spacing:0px;text-anchor:middle;fill:#96ca4f;stroke-width:1.43233"
             d="m 133.80501,157.24359 2.44527,0.75216 q -0.57229,2.03333 -1.90419,2.97561 -1.3319,0.93401 -3.27771,0.93401 -2.44527,0 -3.96445,-1.49607 -1.74811,-1.72751 -1.74811,-4.66178 0,-3.09959 1.75851,-4.85188 1.52959,-1.52088 4.11014,-1.52088 2.10189,0 3.51703,1.14066 1.00932,0.81001 1.47756,2.40528 l -2.4973,0.57859 q -0.23933,-0.98361 -0.9573,-1.50434 -0.70757,-0.529 -1.67527,-0.529 -1.38391,0 -2.25797,0.95881 -0.87405,0.95881 -0.87405,3.16571 0,2.28956 0.85324,3.25664 0.85325,0.96706 2.21635,0.96706 0.99892,0 1.7273,-0.61164 0.72837,-0.61992 1.05095,-1.95894 z"
             id="path20876" /><path
             style="font-weight:bold;font-stretch:condensed;font-size:16.2278px;line-height:10;font-family:Arial;-inkscape-font-specification:'Arial Bold Condensed';text-align:center;letter-spacing:12.312px;word-spacing:0px;text-anchor:middle;fill:#96ca4f;stroke-width:1.43233"
             d="m 141.86175,161.90537 v -12.11732 h 2.51813 v 4.76923 h 4.95297 v -4.76923 h 2.52852 v 12.11732 h -2.52852 v -5.29823 h -4.95297 v 5.29823 z"
             id="path20873" /></g><g
           id="g230"><path
             d="m 173.3514,159.77968 v 2.12569 h -8.28428 q 0.13326,-1.20538 0.80996,-2.28857 0.68694,-1.09134 2.65548,-2.85867 1.55843,-1.40898 1.91728,-1.90578 0.53316,-0.72485 0.53316,-1.45784 0,-0.78187 -0.44087,-1.18093 -0.44088,-0.39908 -1.15858,-0.39908 -1.56869,0 -1.69172,1.86506 l -2.34789,-0.22805 q 0.2153,-1.82434 1.27135,-2.67949 1.0663,-0.85516 2.82978,-0.85516 1.93778,0 2.92205,1.00175 0.98428,1.00177 0.98428,2.29672 0,0.73299 -0.25632,1.42526 -0.24606,0.68412 -0.76896,1.38453 -0.5229,0.69229 -1.743,1.77549 -1.13805,1.01804 -1.44563,1.34382 -0.29734,0.32577 -0.4819,0.63525 z"
             style="font-weight:bold;font-stretch:condensed;font-size:16.2278px;line-height:10;font-family:Arial;-inkscape-font-specification:'Arial Bold Condensed';text-align:center;letter-spacing:3.91736px;word-spacing:0px;text-anchor:middle;fill:#96ca4f;stroke-width:0.449048"
             id="path20515" /><path
             d="m 180.33778,149.71325 q 1.79426,0 2.90156,1.36011 1.1073,1.35197 1.1073,4.74003 0,3.37991 -1.1073,4.74001 -1.1073,1.35197 -2.8913,1.35197 -1.79425,0 -2.90156,-1.34383 -1.10729,-1.34381 -1.10729,-4.77259 0,-3.36362 1.10729,-4.71559 1.10731,-1.36011 2.8913,-1.36011 z m 0,1.89764 q -0.69718,0 -1.11755,0.73299 -0.41012,0.733 -0.41012,3.46951 0,2.7365 0.41012,3.4695 0.42037,0.72484 1.11755,0.72484 0.70746,0 1.11756,-0.733 0.41012,-0.73299 0.41012,-3.46134 0,-2.73651 -0.41012,-3.46951 -0.4101,-0.73299 -1.11756,-0.73299 z"
             style="font-weight:bold;font-stretch:condensed;font-size:16.2278px;line-height:10;font-family:Arial;-inkscape-font-specification:'Arial Bold Condensed';text-align:center;letter-spacing:3.91736px;word-spacing:0px;text-anchor:middle;fill:#96ca4f;stroke-width:0.449048"
             id="path20517" /><path
             d="m 195.89557,159.77968 v 2.12569 h -8.2843 q 0.1333,-1.20538 0.80998,-2.28857 0.68695,-1.09134 2.6555,-2.85867 1.55841,-1.40898 1.91726,-1.90578 0.53316,-0.72485 0.53316,-1.45784 0,-0.78187 -0.44087,-1.18093 -0.44088,-0.39908 -1.15857,-0.39908 -1.56869,0 -1.69172,1.86506 l -2.3479,-0.22805 q 0.2153,-1.82434 1.27135,-2.67949 1.0663,-0.85516 2.82978,-0.85516 1.93778,0 2.92206,1.00175 0.98427,1.00177 0.98427,2.29672 0,0.73299 -0.25631,1.42526 -0.24607,0.68412 -0.76897,1.38453 -0.52289,0.69229 -1.74298,1.77549 -1.13807,1.01804 -1.44565,1.34382 -0.29733,0.32577 -0.48188,0.63525 z"
             style="font-weight:bold;font-stretch:condensed;font-size:16.2278px;line-height:10;font-family:Arial;-inkscape-font-specification:'Arial Bold Condensed';text-align:center;letter-spacing:3.91736px;word-spacing:0px;text-anchor:middle;fill:#96ca4f;stroke-width:0.449048"
             id="path20519" /><path
             d="m 207.16761,159.77968 v 2.12569 h -8.28427 q 0.13329,-1.20538 0.80996,-2.28857 0.68694,-1.09134 2.65549,-2.85867 1.55844,-1.40898 1.9173,-1.90578 0.53312,-0.72485 0.53312,-1.45784 0,-0.78187 -0.44086,-1.18093 -0.44088,-0.39908 -1.15857,-0.39908 -1.56869,0 -1.69173,1.86506 l -2.34789,-0.22805 q 0.21531,-1.82434 1.27135,-2.67949 1.06629,-0.85516 2.82978,-0.85516 1.9378,0 2.92205,1.00175 0.98427,1.00177 0.98427,2.29672 0,0.73299 -0.2563,1.42526 -0.24608,0.68412 -0.76898,1.38453 -0.52289,0.69229 -1.74298,1.77549 -1.13806,1.01804 -1.44564,1.34382 -0.29734,0.32577 -0.48189,0.63525 z"
             style="font-weight:bold;font-stretch:condensed;font-size:16.2278px;line-height:10;font-family:Arial;-inkscape-font-specification:'Arial Bold Condensed';text-align:center;letter-spacing:3.91736px;word-spacing:0px;text-anchor:middle;fill:#96ca4f;stroke-width:0.449048"
             id="path20521" /></g></g><g
         style="clip-rule:evenodd;fill-rule:evenodd;stroke-width:3.00253;stroke-linejoin:round;stroke-miterlimit:2"
         id="g4"
         transform="matrix(0.08812007,0,0,0.08812007,97.667529,98.802894)"><g
           transform="translate(-213.169,-226.395)"
           id="g3"
           style="stroke-width:3.00253">
        <g
   transform="scale(4.16667)"
   id="g2"
   style="stroke-width:3.00253">
            <g
   transform="translate(381.398,127.634)"
   id="g1"
   style="stroke-width:3.00253">
                <path
   d="M 0,-3.9 H -23.445 L 0,-33.905 Z m -125.638,-25.07 c 0,-4.61 0.314,-5.917 0.588,-6.54 0.361,-0.826 1.281,-1.814 3.608,-1.814 1.578,0 2.742,0.726 3.279,2.042 0.268,0.658 0.624,2.026 0.624,6.312 v 5.435 h -8.099 z m -164.685,50.855 c -8.206,0 -14.856,-6.65 -14.856,-14.856 0,-8.206 6.65,-14.856 14.856,-14.856 8.206,0 14.857,6.65 14.857,14.856 0,8.206 -6.651,14.856 -14.857,14.856 M 27.634,-3.9 V -60.14 H 0.56 l -47.253,56.341 v 0.002 h -13.242 v -69.502 h -26.461 v 69.5 h -13.649 c 0.132,-1.304 0.199,-2.796 0.199,-4.584 v -1.698 h -16.515 v 4.73 c 0,3.17 -0.28,5.208 -0.883,6.414 -0.494,0.985 -1.599,2.161 -4.051,2.161 -2.067,0 -3.025,-0.948 -3.462,-1.74 -0.337,-0.605 -0.785,-1.85 -0.785,-5.687 v -13.831 h 25.696 v -6.625 c 0,-5.486 -0.7,-9.775 -2.08,-12.745 -1.341,-2.887 -3.733,-5.249 -7.106,-7.02 -3.436,-1.803 -7.893,-2.718 -13.247,-2.718 -4.367,0 -8.275,0.762 -11.614,2.263 -3.246,1.459 -5.606,3.573 -7.015,6.283 -1.446,2.781 -2.18,6.682 -2.18,11.596 v 17.099 c 0,2.359 0.114,4.375 0.318,6.102 h -7.419 c 0.036,-0.694 0.08,-1.372 0.08,-2.128 0,-3.979 -0.823,-7.021 -2.447,-9.041 -1.676,-2.08 -5.349,-4.377 -10.919,-6.826 -4.435,-1.962 -7.307,-3.432 -8.777,-4.491 -1.609,-1.154 -2.568,-2.246 -2.93,-3.335 -0.32,-0.963 -0.475,-2.375 -0.475,-4.316 0,-1.593 0.37,-2.846 1.104,-3.723 0.783,-0.932 1.924,-1.404 3.389,-1.404 1.853,0 3.07,0.585 3.62,1.739 0.292,0.617 0.627,1.814 0.627,5.642 v 3.18 h 15.285 v -3.402 c 0,-2.836 -0.162,-4.927 -0.483,-6.216 -0.29,-1.171 -1.179,-2.506 -2.643,-3.969 -1.483,-1.482 -3.677,-2.704 -6.519,-3.63 -2.9,-0.945 -6.49,-1.423 -10.673,-1.423 -4.201,0 -7.928,0.586 -11.076,1.74 -3.028,1.112 -5.187,2.684 -6.418,4.673 -1.256,2.03 -1.892,5.312 -1.892,9.755 0,3.088 0.599,5.782 1.782,8.007 1.158,2.174 4.577,4.708 10.16,7.528 9.366,4.69 11.236,5.918 11.837,6.482 0.972,0.954 1.426,2.886 1.426,6.079 0,2.377 -0.356,3.889 -1.122,4.76 -0.784,0.891 -2.068,1.342 -3.814,1.342 -2.227,0 -3.225,-1.129 -3.67,-2.076 -0.332,-0.706 -0.773,-2.162 -0.773,-6.632 v -4.844 h -15.285 v 3.961 c 0,0.914 0.044,1.745 0.092,2.568 h -14.625 c -5.175,-29.281 -30.942,-51.542 -61.972,-51.542 -34.759,0 -62.937,27.924 -62.937,62.37 0,34.446 28.178,62.37 62.937,62.37 31.078,0 56.877,-22.329 61.996,-51.677 L 0,17.731 V 38.247 H 27.634 V 17.731 h 12.28 V -3.9 Z"
   style="fill:#96ca50;fill-rule:nonzero;stroke-width:3.00253"
   id="path1" />
            </g>
        </g>
    </g></g></g></g></svg>
