<?xml version="1.0" encoding="utf-8"?>
<!-- Generator: Adobe Illustrator 25.2.3, SVG Export Plug-In . SVG Version: 6.00 Build 0)  -->
<svg version="1.1" id="Ebene_1" xmlns="http://www.w3.org/2000/svg" xmlns:xlink="http://www.w3.org/1999/xlink" x="0px" y="0px"
	 viewBox="0 0 258 72" style="enable-background:new 0 0 258 72;" xml:space="preserve">
<style type="text/css">
	.st0{fill:#FFFFFF;}
	.st1{fill:#179C7D;}
</style>
<g>
	<rect id="Logoweiß" class="st0" width="41.69" height="41.69"/>
	<g>
		<path class="st1" d="M0,41.67c9.92-5.08,24.45-13.29,41.69-25.3v-4.03C26.52,22.22,11.08,30.16,0,35.4V41.67z"/>
		<path class="st1" d="M0,29.64c11.04-4.48,26.48-11.39,41.69-20.4V7.25C27.39,14.31,12.54,18.73,0,21.48V29.64z"/>
		<path class="st1" d="M41.69,41.69V21.42C32.2,29.38,22.8,36.28,14.91,41.69H41.69z"/>
		<path class="st1" d="M9.57,41.69c7.5-4.43,16.6-10.21,25.66-16.96c2.12-1.58,4.27-3.2,6.46-4.88v-2.51
			C28.28,27.35,14.58,35.69,3.89,41.69H9.57z"/>
		<path class="st1" d="M0,18.54c12.2-2.14,27.12-5.97,41.69-12.87V3.41C27,9.97,12.3,12.75,0,13.74V18.54z"/>
		<path class="st1" d="M0,0v11.62c0.91-0.06,1.84-0.12,2.79-0.19c10.14-0.78,23.97-2.56,38.91-8.98V0H0z"/>
	</g>
	<g>
		<path d="M243.89,41.69h5.33v-7.52c0-2.95,0-8.36,4.34-8.36c0.96,0,1.91,0.16,2.39,0.44v-5.37c-0.56-0.16-1.12-0.16-1.64-0.16
			c-3.18,0-5.37,3.23-5.61,5.13h-0.08v-4.66h-4.73V41.69z M238.55,36.2c-1.99,1.11-4.22,2.07-6.81,2.07c-3.3,0-5.61-1.87-5.85-5.18
			h14.17c0-7.17-2.15-12.38-9.75-12.38c-6.37,0-9.51,4.9-9.51,10.83c0,6.73,3.94,10.63,10.71,10.63c2.87,0,5.09-0.56,7.05-1.63V36.2
			z M225.89,29.43c0.24-2.75,1.75-4.82,4.74-4.82c2.99,0,4.19,2.23,4.34,4.82H225.89z M208.85,41.69h5.33V25.09h4.66v-3.9h-4.66
			v-2.55c0-1.59,0.56-3.15,2.35-3.15c1.15,0,1.83,0.44,2.3,0.72l0.44-4.42c-1.03-0.24-2.55-0.44-3.9-0.44
			c-4.22,0-6.53,2.87-6.53,6.97v2.87h-3.94v3.9h3.94V41.69z M187.63,30.94c0-3.06,1.67-6.09,5.14-6.09c3.5,0,5.18,2.95,5.18,6.09
			c0,3.43-1.07,7.09-5.18,7.09C188.7,38.03,187.63,34.32,187.63,30.94 M182.05,31.58c0,5.89,3.95,10.59,10.72,10.59
			c6.81,0,10.75-4.7,10.75-10.59c0-6.77-4.65-10.87-10.75-10.87C186.71,20.71,182.05,24.81,182.05,31.58 M159.83,41.69h5.34V31.65
			c0-2.62,0.84-6.81,4.7-6.81c3.42,0,3.46,3.39,3.46,5.9v10.95h5.33V28.75c0-4.62-2.11-8.04-6.97-8.04c-2.79,0-5.1,1.28-6.44,3.27
			h-0.09V11.83h-5.34V41.69z M135.51,41.69h5.34V31.65c0-2.62,0.84-6.81,4.7-6.81c3.42,0,3.46,3.39,3.46,5.9v10.95h5.34V28.75
			c0-4.62-2.11-8.04-6.97-8.04c-2.79,0-5.06,0.92-6.73,3.27h-0.09v-2.79h-5.05V41.69z M130.01,21.18h-5.34v10.03
			c0,2.63-0.83,6.81-4.7,6.81c-3.43,0-3.46-3.39-3.46-5.9V21.18h-5.33v12.94c0,4.62,2.11,8.04,6.97,8.04c2.79,0,5.1-1.28,6.73-3.27
			h0.08v2.79h5.06V21.18z M93.62,35.76c0-3.15,3.54-3.54,5.93-3.54h2.31c0,1.59-0.24,3.06-1.12,4.22c-0.84,1.11-2.11,1.83-3.74,1.83
			C95.09,38.27,93.62,37.51,93.62,35.76 M90.91,26.84c1.79-1.36,4.06-2.23,6.33-2.23c3.14,0,4.62,1.11,4.62,4.42h-2.95
			c-2.23,0-4.86,0.19-6.89,1.19c-2.03,1-3.5,2.79-3.5,5.85c0,3.9,3.54,6.09,7.17,6.09c2.43,0,5.1-1.28,6.33-3.54h0.08
			c0.04,0.63,0.04,1.99,0.24,3.06h4.7c-0.12-1.6-0.2-3.03-0.24-4.58c-0.04-1.51-0.08-3.07-0.08-5.14v-2.63
			c0-6.05-2.59-8.64-8.84-8.64c-2.27,0-5.06,0.6-7.13,1.55L90.91,26.84z M74.86,41.69h5.34v-7.52c0-2.95,0-8.36,4.34-8.36
			c0.96,0,1.91,0.16,2.39,0.44v-5.37c-0.56-0.16-1.11-0.16-1.63-0.16c-3.18,0-5.38,3.23-5.61,5.13H79.6v-4.66h-4.74V41.69z
			 M55.59,41.69h5.57V29.51h9.4v-4.38h-9.4v-6.85h9.87V13.9H55.59V41.69z"/>
	</g>
	<g>
		<path d="M209.73,54.21h3.02l5.24,13.35h-2.96l-1.15-3.06h-5.41l-1.17,3.06h-2.77L209.73,54.21z M211.2,56.88h-0.04l-1.93,5.51h3.9
			L211.2,56.88z"/>
		<path d="M219.48,54.21h2.68v13.35h-2.68V54.21z"/>
		<path d="M229.48,56.08c-0.23,0-0.46,0.02-0.69,0.08c-0.24,0.05-0.47,0.15-0.69,0.29c-0.21,0.13-0.38,0.32-0.52,0.57
			c-0.14,0.24-0.21,0.55-0.21,0.92c0,0.28,0.09,0.52,0.27,0.71c0.18,0.19,0.4,0.36,0.67,0.52c0.29,0.15,0.61,0.29,0.96,0.42
			c0.33,0.14,0.68,0.29,1.05,0.44c0.37,0.14,0.73,0.31,1.07,0.5c0.36,0.2,0.67,0.45,0.94,0.75c0.27,0.28,0.49,0.62,0.67,1.01
			c0.15,0.41,0.23,0.9,0.23,1.47c-0.03,1.44-0.52,2.47-1.47,3.1c-0.96,0.62-2.13,0.94-3.54,0.94c-0.69,0-1.27-0.05-1.74-0.15
			c-0.48-0.09-1.05-0.21-1.68-0.36l0.25-2.41c0.94,0.53,1.95,0.81,3.02,0.82c0.55,0,1.08-0.14,1.59-0.42
			c0.51-0.28,0.77-0.71,0.78-1.3c0-0.32-0.08-0.59-0.23-0.82c-0.18-0.23-0.4-0.42-0.67-0.57c-0.59-0.31-1.26-0.6-2.01-0.88
			c-0.37-0.15-0.72-0.33-1.05-0.54c-0.34-0.19-0.66-0.42-0.96-0.69c-0.27-0.28-0.49-0.62-0.67-1.01c-0.18-0.4-0.27-0.86-0.27-1.39
			c0.03-1.48,0.52-2.54,1.47-3.17c0.92-0.6,1.98-0.9,3.19-0.9c1.15,0,2.21,0.16,3.19,0.48l-0.25,2.2
			C231.34,56.28,230.43,56.09,229.48,56.08z"/>
		<path d="M235.65,54.21h7.88v2.1h-5.2v3.29h4.76v2.1h-4.76v3.75h5.24v2.1h-7.92V54.21z"/>
		<path d="M256,67.36c-0.99,0.27-2.01,0.41-3.04,0.42c-2.19,0-3.95-0.55-5.26-1.66c-1.36-1.08-2.05-2.75-2.06-5.01
			c0.09-4.7,2.53-7.08,7.32-7.13c0.96,0,1.96,0.19,3.02,0.55l-0.19,2.26c-0.5-0.28-0.98-0.48-1.45-0.59
			c-0.47-0.08-0.95-0.11-1.43-0.11c-1.39,0.01-2.47,0.47-3.25,1.38c-0.82,0.9-1.22,2.06-1.22,3.46c0,1.39,0.4,2.52,1.21,3.39
			c0.79,0.9,1.9,1.36,3.33,1.38c0.55,0,1.1-0.06,1.64-0.17c0.54-0.1,0.96-0.23,1.28-0.38L256,67.36z"/>
	</g>
</g>
</svg>
