<?xml version="1.0" encoding="UTF-8"?>
<svg id="Layer_1" data-name="Layer 1" xmlns="http://www.w3.org/2000/svg" version="1.1" viewBox="0 0 176.74 63.97">
  <defs>
    <style>
      .cls-1 {
        isolation: isolate;
      }

      .cls-2 {
        fill: #202020;
        stroke-width: 0px;
      }
    </style>
  </defs>
  <g class="cls-1">
    <g class="cls-1">
      <path class="cls-2" d="M35.43,10.33h5.23l14.64,33.98h-6.91l-3.17-7.78h-14.74l-3.07,7.78h-6.77l14.78-33.98ZM43.11,31.35l-5.23-13.82-5.33,13.82h10.56Z"/>
      <path class="cls-2" d="M63.89,21.27v3.22h.14c.29-.45.66-.9,1.13-1.37s1.03-.88,1.7-1.25c.67-.37,1.43-.67,2.28-.91.85-.24,1.8-.36,2.86-.36,1.63,0,3.14.31,4.51.94s2.56,1.48,3.55,2.57,1.76,2.37,2.3,3.84c.54,1.47.82,3.06.82,4.75s-.26,3.29-.79,4.78c-.53,1.49-1.28,2.78-2.26,3.89-.98,1.11-2.16,1.98-3.55,2.64-1.39.66-2.97.98-4.73.98-1.63,0-3.13-.34-4.49-1.01-1.36-.67-2.41-1.58-3.14-2.74h-.1v14.59h-5.76V21.27h5.52ZM77.33,32.69c0-.9-.14-1.78-.41-2.66-.27-.88-.68-1.67-1.22-2.38-.54-.7-1.23-1.27-2.06-1.7-.83-.43-1.81-.65-2.93-.65-1.06,0-2,.22-2.83.67-.83.45-1.54,1.02-2.14,1.73-.59.71-1.04,1.5-1.34,2.4-.3.9-.46,1.79-.46,2.69s.15,1.78.46,2.66c.3.88.75,1.67,1.34,2.38.59.71,1.3,1.27,2.14,1.7.83.43,1.78.65,2.83.65,1.12,0,2.1-.22,2.93-.67.83-.45,1.52-1.02,2.06-1.73.54-.7.95-1.5,1.22-2.4.27-.9.41-1.79.41-2.69Z"/>
      <path class="cls-2" d="M94.28,21.27v3.22h.14c.29-.45.66-.9,1.13-1.37s1.03-.88,1.7-1.25c.67-.37,1.43-.67,2.28-.91.85-.24,1.8-.36,2.86-.36,1.63,0,3.14.31,4.51.94s2.56,1.48,3.55,2.57,1.76,2.37,2.3,3.84c.54,1.47.82,3.06.82,4.75s-.26,3.29-.79,4.78c-.53,1.49-1.28,2.78-2.26,3.89-.98,1.11-2.16,1.98-3.55,2.64-1.39.66-2.97.98-4.73.98-1.63,0-3.13-.34-4.49-1.01-1.36-.67-2.41-1.58-3.14-2.74h-.1v14.59h-5.76V21.27h5.52ZM107.72,32.69c0-.9-.14-1.78-.41-2.66-.27-.88-.68-1.67-1.22-2.38-.54-.7-1.23-1.27-2.06-1.7-.83-.43-1.81-.65-2.93-.65-1.06,0-2,.22-2.83.67-.83.45-1.54,1.02-2.14,1.73-.59.71-1.04,1.5-1.34,2.4-.3.9-.46,1.79-.46,2.69s.15,1.78.46,2.66c.3.88.75,1.67,1.34,2.38.59.71,1.3,1.27,2.14,1.7.83.43,1.78.65,2.83.65,1.12,0,2.1-.22,2.93-.67.83-.45,1.52-1.02,2.06-1.73.54-.7.95-1.5,1.22-2.4.27-.9.41-1.79.41-2.69Z"/>
      <path class="cls-2" d="M119.24,8.02h5.76v36.29h-5.76V8.02Z"/>
      <path class="cls-2" d="M153.99,33.08v.77c0,.26-.02.51-.05.77h-17.52c.06.83.28,1.59.65,2.28s.86,1.28,1.46,1.78,1.3.89,2.06,1.18c.77.29,1.57.43,2.4.43,1.44,0,2.66-.26,3.65-.79.99-.53,1.81-1.26,2.45-2.18l3.84,3.07c-2.27,3.07-5.57,4.61-9.89,4.61-1.79,0-3.44-.28-4.94-.84-1.5-.56-2.81-1.35-3.91-2.38-1.1-1.02-1.97-2.28-2.59-3.77s-.94-3.18-.94-5.06.31-3.54.94-5.06c.62-1.52,1.48-2.82,2.57-3.89,1.09-1.07,2.38-1.9,3.86-2.5,1.49-.59,3.1-.89,4.82-.89,1.6,0,3.08.26,4.44.79,1.36.53,2.54,1.31,3.53,2.35.99,1.04,1.77,2.34,2.33,3.89.56,1.55.84,3.37.84,5.45ZM148.23,30.49c0-.74-.1-1.44-.31-2.11-.21-.67-.54-1.26-.98-1.78-.45-.51-1.02-.92-1.7-1.22-.69-.3-1.5-.46-2.42-.46-1.73,0-3.19.52-4.39,1.56-1.2,1.04-1.86,2.38-1.99,4.01h11.81Z"/>
    </g>
  </g>
</svg>