<?xml version="1.0" encoding="UTF-8" standalone="no"?>
<!-- Generator: Adobe Illustrator 14.0.0, SVG Export Plug-In . SVG Version: 6.00 Build 43363)  -->

<svg
   version="1.1"
   id="Layer_1"
   x="0px"
   y="0px"
   width="238.92201"
   height="69.292"
   viewBox="0 0 238.92201 69.292003"
   enable-background="new 0 0 247 87.618"
   xml:space="preserve"
   sodipodi:docname="mep.svg"
   inkscape:version="1.3.2 (091e20e, 2023-11-25)"
   xmlns:inkscape="http://www.inkscape.org/namespaces/inkscape"
   xmlns:sodipodi="http://sodipodi.sourceforge.net/DTD/sodipodi-0.dtd"
   xmlns="http://www.w3.org/2000/svg"
   xmlns:svg="http://www.w3.org/2000/svg"><defs
   id="defs34" /><sodipodi:namedview
   id="namedview34"
   pagecolor="#ffffff"
   bordercolor="#000000"
   borderopacity="0.25"
   inkscape:showpageshadow="2"
   inkscape:pageopacity="0.0"
   inkscape:pagecheckerboard="0"
   inkscape:deskcolor="#d1d1d1"
   showgrid="false"
   inkscape:zoom="1.5506073"
   inkscape:cx="119.63055"
   inkscape:cy="32.245431"
   inkscape:window-width="1312"
   inkscape:window-height="449"
   inkscape:window-x="49"
   inkscape:window-y="38"
   inkscape:window-maximized="0"
   inkscape:current-layer="Layer_1" />
<g
   id="g34"
   transform="translate(-4.0369819,-11.326)">
	<path
   fill="#009dcd"
   d="m 69.162,46.413 c -0.449,0 -0.891,-0.121 -1.279,-0.351 L 57.106,39.685 c -2.591,-1.532 -4.138,-4.244 -4.138,-7.254 0,-3.012 1.547,-5.725 4.137,-7.256 l 10.783,-6.379 c 0.388,-0.229 0.83,-0.351 1.279,-0.351 0.887,0 1.72,0.474 2.173,1.237 0.708,1.195 0.309,2.744 -0.887,3.451 l -10.782,6.379 c -1.501,0.889 -1.662,2.336 -1.662,2.918 0,0.58 0.161,2.027 1.664,2.916 l 10.775,6.375 c 0.579,0.342 0.99,0.891 1.158,1.543 0.167,0.653 0.071,1.332 -0.272,1.91 -0.451,0.765 -1.283,1.239 -2.172,1.239"
   id="path1" />
	<path
   fill="#009dcd"
   d="m 6.562,46.413 c -0.889,0 -1.721,-0.474 -2.172,-1.237 -0.344,-0.58 -0.44,-1.258 -0.273,-1.91 0.167,-0.651 0.578,-1.199 1.159,-1.543 l 10.781,-6.379 c 1.495,-0.884 1.662,-2.332 1.664,-2.912 0,-0.584 -0.161,-2.033 -1.665,-2.922 L 5.282,23.135 C 4.701,22.792 4.29,22.245 4.123,21.592 3.956,20.94 4.052,20.262 4.395,19.684 4.847,18.92 5.679,18.447 6.568,18.447 c 0.449,0 0.891,0.121 1.28,0.351 l 10.774,6.375 c 2.593,1.533 4.14,4.245 4.14,7.256 0,3.01 -1.547,5.724 -4.14,7.256 L 7.841,46.061 c -0.388,0.231 -0.83,0.352 -1.279,0.352"
   id="path2" />
	<path
   fill="#009dcd"
   d="M 40.784,35.177 41.76,34.6 c 1.324,-0.785 1.468,-2.062 1.468,-2.574 -0.003,-0.516 -0.15,-1.793 -1.468,-2.574 L 19.545,16.268 c -0.581,-0.345 -0.992,-0.893 -1.159,-1.545 -0.167,-0.65 -0.071,-1.33 0.272,-1.908 0.452,-0.764 1.284,-1.238 2.173,-1.238 0.447,0 0.891,0.121 1.281,0.351 l 22.213,13.187 c 2.468,1.459 3.943,4.043 3.943,6.912 0,2.299 -0.971,4.463 -2.67,5.976 z"
   id="path3" />
	<path
   fill="#009dcd"
   d="m 40.957,19.717 13.166,-7.789 c 0.389,-0.23 0.832,-0.352 1.281,-0.352 0.888,0 1.72,0.475 2.171,1.237 0.343,0.58 0.439,1.258 0.272,1.909 -0.167,0.652 -0.578,1.201 -1.159,1.544 L 45.929,22.63 Z"
   id="path4" />
	<path
   fill="#009dcd"
   d="m 20.099,52.696 c -0.889,0 -1.721,-0.474 -2.172,-1.238 -0.343,-0.578 -0.439,-1.256 -0.272,-1.908 0.168,-0.653 0.579,-1.201 1.158,-1.543 l 10.717,-6.341 5.016,2.889 -13.168,7.79 c -0.388,0.23 -0.83,0.351 -1.279,0.351"
   id="path5" />
	<path
   fill="#009dcd"
   d="m 55.279,52.494 c -0.449,0 -0.891,-0.121 -1.278,-0.35 L 33.807,40.361 31.404,38.938 c -2.469,-1.46 -3.943,-4.046 -3.943,-6.913 0,-2.29 0.964,-4.449 2.653,-5.96 l 4.652,2.813 -0.821,0.59 c -1.3,0.768 -1.443,2.045 -1.443,2.557 0,0.513 0.143,1.791 1.468,2.574 l 12.84,7.596 9.758,5.61 c 0.576,0.341 0.987,0.889 1.155,1.542 0.167,0.652 0.071,1.331 -0.271,1.908 -0.452,0.766 -1.284,1.239 -2.173,1.239"
   id="path6" />
	<path
   fill="#5c5c60"
   d="M 109.451,33.59 97.595,21.61 v 28.311 c 0,1.692 -1.332,3.026 -3.026,3.026 -1.693,0 -3.026,-1.334 -3.026,-3.026 V 14.352 c 0,-1.695 1.333,-3.026 3.026,-3.026 1.21,0 1.816,0.362 3.026,1.571 l 14.759,15.007 14.762,-15.007 c 1.211,-1.209 1.813,-1.571 3.023,-1.571 1.696,0 3.026,1.331 3.026,3.026 v 35.569 c 0,1.692 -1.33,3.026 -3.026,3.026 -1.692,0 -3.023,-1.334 -3.023,-3.026 V 21.61 L 115.5,33.59 c -1.208,1.209 -1.813,1.571 -3.023,1.571 -1.21,0 -1.816,-0.362 -3.026,-1.571"
   id="path7" />
	<path
   fill="#5c5c60"
   d="m 229.77,11.326 c 7.26,0 13.189,5.927 13.189,13.188 0,7.259 -5.93,13.19 -13.189,13.19 H 213.92 V 49.8 c 0,1.696 -1.33,2.906 -3.024,2.906 -1.693,0 -3.024,-1.334 -3.024,-3.026 V 14.352 c 0,-1.695 1.331,-3.025 3.024,-3.025 h 18.874 z m -15.85,5.81 v 14.759 h 15.85 c 4.236,0 7.138,-3.51 7.138,-7.38 0,-3.874 -2.901,-7.379 -7.138,-7.379 z"
   id="path8" />
	<path
   fill="#5c5c60"
   d="m 186.037,46.654 c 1.692,0 3.024,1.214 3.024,2.905 0,1.695 -1.332,2.901 -3.024,2.901 h -29.039 c -1.692,0 -3.022,-1.327 -3.022,-3.023 V 14.352 c 0,-1.695 1.33,-3.026 3.022,-3.026 h 29.039 c 1.692,0 3.024,1.21 3.024,2.905 0,1.692 -1.332,2.905 -3.024,2.905 h -26.013 v 11.37 h 19.963 c 1.693,0 3.022,1.213 3.022,2.905 0,1.692 -1.329,2.905 -3.022,2.905 h -19.963 v 12.338 z"
   id="path9" />
	<path
   fill="#5c5c60"
   d="m 7.518,80.597 c -0.34,0 -0.583,-0.174 -0.729,-0.521 l -2.552,-6 C 4.188,73.965 4.164,73.864 4.164,73.773 c 0,-0.174 0.062,-0.32 0.187,-0.441 0.126,-0.122 0.278,-0.184 0.459,-0.184 0.319,0 0.538,0.153 0.656,0.458 l 2.104,5.262 2.135,-5.303 c 0.042,-0.117 0.118,-0.217 0.23,-0.297 0.11,-0.08 0.239,-0.12 0.385,-0.12 0.18,0 0.331,0.06 0.453,0.178 0.122,0.119 0.182,0.264 0.182,0.438 0,0.083 -0.02,0.173 -0.062,0.271 L 8.33,80.076 c -0.145,0.347 -0.392,0.521 -0.739,0.521 z"
   id="path10" />
	<path
   fill="#5c5c60"
   d="m 20.298,79.513 c -0.723,0.737 -1.636,1.105 -2.74,1.105 -1.104,0 -2.014,-0.365 -2.729,-1.094 -0.715,-0.73 -1.073,-1.615 -1.073,-2.657 v -0.021 c 0,-1.042 0.361,-1.931 1.083,-2.667 0.723,-0.734 1.636,-1.104 2.74,-1.104 1.104,0 2.014,0.365 2.729,1.094 0.715,0.729 1.073,1.614 1.073,2.656 v 0.021 c 0,1.042 -0.36,1.931 -1.083,2.667 M 15.804,78.68 c 0.469,0.5 1.061,0.75 1.776,0.75 0.715,0 1.304,-0.245 1.766,-0.738 0.461,-0.494 0.692,-1.102 0.692,-1.824 v -0.021 c 0,-0.722 -0.234,-1.335 -0.703,-1.839 -0.469,-0.503 -1.061,-0.755 -1.776,-0.755 -0.715,0 -1.304,0.249 -1.765,0.745 -0.462,0.496 -0.693,1.106 -0.693,1.828 v 0.021 c 0,0.722 0.233,1.333 0.703,1.833"
   id="path11" />
	<path
   fill="#5c5c60"
   d="m 25.089,79.909 v -6.124 c 0,-0.181 0.063,-0.332 0.188,-0.454 0.125,-0.121 0.277,-0.182 0.458,-0.182 0.173,0 0.323,0.061 0.448,0.182 0.125,0.122 0.187,0.273 0.187,0.454 v 6.124 c 0,0.181 -0.062,0.332 -0.187,0.453 -0.125,0.122 -0.275,0.183 -0.448,0.183 -0.181,0 -0.333,-0.061 -0.458,-0.183 -0.125,-0.121 -0.188,-0.272 -0.188,-0.453"
   id="path12" />
	<path
   fill="#5c5c60"
   d="m 33.787,80.618 c -1.056,0 -1.937,-0.361 -2.646,-1.083 -0.708,-0.724 -1.062,-1.611 -1.062,-2.667 v -0.021 c 0,-1.056 0.354,-1.948 1.062,-2.677 0.709,-0.729 1.608,-1.093 2.698,-1.093 0.951,0 1.785,0.273 2.5,0.821 0.167,0.126 0.25,0.296 0.25,0.512 0,0.173 -0.061,0.32 -0.182,0.441 -0.122,0.122 -0.273,0.184 -0.454,0.184 -0.145,0 -0.274,-0.042 -0.385,-0.125 -0.542,-0.438 -1.121,-0.657 -1.739,-0.657 -0.688,0 -1.261,0.249 -1.719,0.745 -0.458,0.496 -0.688,1.105 -0.688,1.828 v 0.021 c 0,0.724 0.23,1.333 0.688,1.833 0.458,0.501 1.031,0.75 1.719,0.75 0.666,0 1.274,-0.231 1.822,-0.698 0.111,-0.097 0.24,-0.145 0.386,-0.145 0.16,0 0.3,0.059 0.422,0.176 0.121,0.119 0.182,0.257 0.182,0.418 0,0.181 -0.069,0.333 -0.208,0.458 -0.743,0.652 -1.625,0.979 -2.646,0.979"
   id="path13" />
	<path
   fill="#5c5c60"
   d="m 40.818,80.492 c -0.181,0 -0.333,-0.062 -0.458,-0.188 -0.125,-0.125 -0.188,-0.277 -0.188,-0.458 v -6 c 0,-0.18 0.063,-0.333 0.188,-0.458 0.125,-0.125 0.277,-0.188 0.458,-0.188 h 4.239 c 0.16,0 0.296,0.057 0.407,0.167 0.11,0.111 0.166,0.247 0.166,0.406 0,0.16 -0.056,0.296 -0.166,0.407 -0.111,0.111 -0.247,0.166 -0.407,0.166 h -3.604 v 1.896 h 3.136 c 0.159,0 0.295,0.058 0.406,0.173 0.111,0.114 0.167,0.252 0.167,0.412 0,0.151 -0.056,0.283 -0.167,0.395 -0.111,0.111 -0.247,0.167 -0.406,0.167 h -3.136 v 1.958 h 3.656 c 0.153,0 0.287,0.056 0.402,0.167 0.114,0.111 0.171,0.247 0.171,0.406 0,0.16 -0.055,0.295 -0.166,0.405 -0.112,0.112 -0.247,0.167 -0.407,0.167 z"
   id="path14" />
	<path
   fill="#5c5c60"
   d="m 57.828,80.618 c -1.056,0 -1.937,-0.361 -2.646,-1.083 -0.708,-0.724 -1.062,-1.611 -1.062,-2.667 v -0.021 c 0,-1.056 0.354,-1.948 1.062,-2.677 0.709,-0.729 1.608,-1.093 2.698,-1.093 0.951,0 1.785,0.273 2.5,0.821 0.167,0.126 0.25,0.296 0.25,0.512 0,0.173 -0.061,0.32 -0.182,0.441 -0.122,0.122 -0.273,0.184 -0.454,0.184 -0.145,0 -0.274,-0.042 -0.385,-0.125 -0.542,-0.438 -1.121,-0.657 -1.739,-0.657 -0.688,0 -1.261,0.249 -1.719,0.745 -0.459,0.496 -0.688,1.105 -0.688,1.828 v 0.021 c 0,0.724 0.229,1.333 0.688,1.833 0.458,0.501 1.031,0.75 1.719,0.75 0.666,0 1.274,-0.231 1.822,-0.698 0.111,-0.097 0.24,-0.145 0.386,-0.145 0.159,0 0.3,0.059 0.422,0.176 0.121,0.119 0.182,0.257 0.182,0.418 0,0.181 -0.069,0.333 -0.208,0.458 -0.745,0.652 -1.625,0.979 -2.646,0.979"
   id="path15" />
	<path
   fill="#5c5c60"
   d="m 70.223,79.513 c -0.723,0.737 -1.636,1.105 -2.74,1.105 -1.104,0 -2.014,-0.365 -2.729,-1.094 -0.715,-0.73 -1.073,-1.615 -1.073,-2.657 v -0.021 c 0,-1.042 0.361,-1.931 1.083,-2.667 0.723,-0.734 1.636,-1.104 2.74,-1.104 1.104,0 2.014,0.365 2.729,1.094 0.715,0.729 1.073,1.614 1.073,2.656 v 0.021 c 0,1.042 -0.361,1.931 -1.083,2.667 M 65.728,78.68 c 0.469,0.5 1.061,0.75 1.776,0.75 0.715,0 1.304,-0.245 1.766,-0.738 0.461,-0.494 0.692,-1.102 0.692,-1.824 v -0.021 c 0,-0.722 -0.234,-1.335 -0.703,-1.839 -0.469,-0.503 -1.061,-0.755 -1.776,-0.755 -0.715,0 -1.304,0.249 -1.765,0.745 -0.462,0.496 -0.693,1.106 -0.693,1.828 v 0.021 c 0,0.722 0.234,1.333 0.703,1.833"
   id="path16" />
	<path
   fill="#5c5c60"
   d="m 74.941,79.92 v -6.115 c 0,-0.18 0.063,-0.333 0.188,-0.457 0.124,-0.126 0.277,-0.188 0.458,-0.188 h 0.135 c 0.25,0 0.448,0.113 0.594,0.343 l 2.208,3.459 2.219,-3.469 c 0.139,-0.223 0.333,-0.333 0.583,-0.333 h 0.136 c 0.18,0 0.333,0.062 0.458,0.188 0.125,0.124 0.188,0.277 0.188,0.457 v 6.104 c 0,0.181 -0.063,0.332 -0.188,0.453 -0.125,0.121 -0.278,0.183 -0.458,0.183 -0.174,0 -0.323,-0.062 -0.448,-0.188 -0.125,-0.125 -0.188,-0.273 -0.188,-0.447 v -4.374 l -1.781,2.677 c -0.146,0.222 -0.326,0.333 -0.541,0.333 -0.209,0 -0.386,-0.111 -0.532,-0.333 l -1.771,-2.657 v 4.365 c 0,0.174 -0.06,0.321 -0.182,0.442 -0.121,0.121 -0.272,0.183 -0.453,0.183 -0.181,0 -0.33,-0.062 -0.448,-0.183 C 75,80.242 74.941,80.094 74.941,79.92"
   id="path17" />
	<path
   fill="#5c5c60"
   d="m 86.066,79.92 v -6.115 c 0,-0.18 0.063,-0.333 0.188,-0.457 0.124,-0.126 0.277,-0.188 0.458,-0.188 h 0.135 c 0.25,0 0.448,0.113 0.594,0.343 l 2.208,3.459 2.219,-3.469 c 0.139,-0.223 0.333,-0.333 0.583,-0.333 h 0.136 c 0.18,0 0.333,0.062 0.458,0.188 0.125,0.124 0.188,0.277 0.188,0.457 v 6.104 c 0,0.181 -0.063,0.332 -0.188,0.453 -0.125,0.121 -0.278,0.183 -0.458,0.183 -0.174,0 -0.323,-0.062 -0.448,-0.188 -0.125,-0.125 -0.188,-0.273 -0.188,-0.447 v -4.374 l -1.781,2.677 c -0.146,0.222 -0.326,0.333 -0.541,0.333 -0.209,0 -0.386,-0.111 -0.532,-0.333 l -1.771,-2.657 v 4.365 c 0,0.174 -0.06,0.321 -0.182,0.442 -0.122,0.121 -0.273,0.183 -0.453,0.183 -0.181,0 -0.33,-0.062 -0.448,-0.183 -0.118,-0.121 -0.177,-0.269 -0.177,-0.443"
   id="path18" />
	<path
   fill="#5c5c60"
   d="m 100.18,80.607 c -0.965,0 -1.724,-0.274 -2.276,-0.823 -0.552,-0.548 -0.828,-1.344 -0.828,-2.385 v -3.614 c 0,-0.181 0.062,-0.332 0.187,-0.454 0.125,-0.121 0.278,-0.182 0.459,-0.182 0.173,0 0.322,0.061 0.447,0.182 0.126,0.122 0.188,0.273 0.188,0.454 v 3.562 c 0,0.667 0.161,1.18 0.484,1.536 0.323,0.358 0.776,0.536 1.36,0.536 0.576,0 1.026,-0.171 1.349,-0.515 0.322,-0.345 0.484,-0.845 0.484,-1.505 v -3.614 c 0,-0.181 0.063,-0.332 0.187,-0.454 0.125,-0.121 0.278,-0.182 0.459,-0.182 0.173,0 0.323,0.061 0.448,0.182 0.125,0.122 0.187,0.273 0.187,0.454 v 3.552 c 0,1.062 -0.278,1.873 -0.833,2.432 -0.556,0.559 -1.323,0.838 -2.302,0.838"
   id="path19" />
	<path
   fill="#5c5c60"
   d="m 107.159,79.92 v -6.115 c 0,-0.18 0.063,-0.333 0.188,-0.457 0.124,-0.126 0.277,-0.188 0.458,-0.188 h 0.135 c 0.243,0 0.465,0.125 0.667,0.374 l 3.646,4.719 v -4.479 c 0,-0.173 0.06,-0.32 0.182,-0.441 0.121,-0.122 0.269,-0.184 0.443,-0.184 0.173,0 0.323,0.062 0.448,0.184 0.125,0.121 0.187,0.269 0.187,0.441 v 6.125 c 0,0.182 -0.061,0.332 -0.182,0.453 -0.122,0.122 -0.27,0.184 -0.443,0.184 h -0.052 c -0.243,0 -0.465,-0.129 -0.667,-0.387 l -3.75,-4.854 v 4.625 c 0,0.174 -0.06,0.321 -0.182,0.442 -0.122,0.121 -0.269,0.183 -0.443,0.183 -0.173,0 -0.323,-0.062 -0.447,-0.183 -0.125,-0.121 -0.188,-0.268 -0.188,-0.442"
   id="path20" />
	<path
   fill="#5c5c60"
   d="m 117.543,79.909 v -6.124 c 0,-0.181 0.063,-0.332 0.188,-0.454 0.125,-0.121 0.277,-0.182 0.458,-0.182 0.174,0 0.323,0.061 0.448,0.182 0.125,0.122 0.187,0.273 0.187,0.454 v 6.124 c 0,0.181 -0.062,0.332 -0.187,0.453 -0.125,0.122 -0.274,0.183 -0.448,0.183 -0.181,0 -0.333,-0.061 -0.458,-0.183 -0.125,-0.121 -0.188,-0.272 -0.188,-0.453"
   id="path21" />
	<path
   fill="#5c5c60"
   d="m 126.241,80.618 c -1.056,0 -1.937,-0.361 -2.646,-1.083 -0.708,-0.724 -1.062,-1.611 -1.062,-2.667 v -0.021 c 0,-1.056 0.354,-1.948 1.062,-2.677 0.709,-0.729 1.608,-1.093 2.698,-1.093 0.951,0 1.785,0.273 2.5,0.821 0.167,0.126 0.25,0.296 0.25,0.512 0,0.173 -0.061,0.32 -0.182,0.441 -0.122,0.122 -0.273,0.184 -0.454,0.184 -0.145,0 -0.274,-0.042 -0.385,-0.125 -0.542,-0.438 -1.121,-0.657 -1.739,-0.657 -0.688,0 -1.261,0.249 -1.719,0.745 -0.458,0.496 -0.688,1.105 -0.688,1.828 v 0.021 c 0,0.724 0.23,1.333 0.688,1.833 0.458,0.501 1.031,0.75 1.719,0.75 0.666,0 1.274,-0.231 1.822,-0.698 0.111,-0.097 0.24,-0.145 0.386,-0.145 0.16,0 0.3,0.059 0.422,0.176 0.121,0.119 0.183,0.257 0.183,0.418 0,0.181 -0.069,0.333 -0.208,0.458 -0.743,0.652 -1.625,0.979 -2.647,0.979"
   id="path22" />
	<path
   fill="#5c5c60"
   d="m 132.126,79.951 c 0,-0.083 0.027,-0.181 0.084,-0.292 l 2.708,-6.041 c 0.16,-0.348 0.417,-0.521 0.771,-0.521 h 0.062 c 0.348,0 0.601,0.174 0.761,0.521 l 2.708,6.041 c 0.049,0.091 0.073,0.181 0.073,0.271 0,0.174 -0.058,0.32 -0.172,0.438 -0.114,0.117 -0.26,0.177 -0.433,0.177 -0.292,0 -0.5,-0.149 -0.625,-0.448 l -0.594,-1.365 h -3.542 l -0.614,1.407 c -0.11,0.271 -0.309,0.406 -0.594,0.406 -0.166,0 -0.307,-0.058 -0.422,-0.172 -0.113,-0.115 -0.171,-0.255 -0.171,-0.422 m 2.292,-2.354 h 2.562 L 135.7,74.65 Z"
   id="path23" />
	<path
   fill="#5c5c60"
   d="m 143.72,79.909 v -5.521 h -1.771 c -0.165,0 -0.307,-0.059 -0.421,-0.178 -0.114,-0.117 -0.172,-0.257 -0.172,-0.416 0,-0.16 0.058,-0.298 0.172,-0.417 0.114,-0.118 0.256,-0.177 0.421,-0.177 h 4.845 c 0.159,0 0.297,0.059 0.411,0.177 0.114,0.119 0.172,0.257 0.172,0.417 0,0.159 -0.058,0.299 -0.172,0.416 -0.114,0.119 -0.252,0.178 -0.411,0.178 h -1.781 v 5.521 c 0,0.174 -0.063,0.323 -0.188,0.448 -0.125,0.125 -0.277,0.188 -0.458,0.188 -0.181,0 -0.334,-0.062 -0.457,-0.188 -0.127,-0.125 -0.19,-0.274 -0.19,-0.448"
   id="path24" />
	<path
   fill="#5c5c60"
   d="m 150.834,79.909 v -6.124 c 0,-0.181 0.062,-0.332 0.188,-0.454 0.125,-0.121 0.277,-0.182 0.458,-0.182 0.174,0 0.323,0.061 0.448,0.182 0.125,0.122 0.188,0.273 0.188,0.454 v 6.124 c 0,0.181 -0.062,0.332 -0.188,0.453 -0.125,0.122 -0.274,0.183 -0.448,0.183 -0.181,0 -0.333,-0.061 -0.458,-0.183 -0.126,-0.121 -0.188,-0.272 -0.188,-0.453"
   id="path25" />
	<path
   fill="#5c5c60"
   d="m 162.365,79.513 c -0.723,0.737 -1.636,1.105 -2.74,1.105 -1.104,0 -2.014,-0.365 -2.729,-1.094 -0.716,-0.73 -1.073,-1.615 -1.073,-2.657 v -0.021 c 0,-1.042 0.36,-1.931 1.084,-2.667 0.722,-0.734 1.635,-1.104 2.739,-1.104 1.104,0 2.014,0.365 2.729,1.094 0.715,0.729 1.073,1.614 1.073,2.656 v 0.021 c 0,1.042 -0.361,1.931 -1.083,2.667 M 157.87,78.68 c 0.469,0.5 1.061,0.75 1.776,0.75 0.715,0 1.304,-0.245 1.766,-0.738 0.461,-0.494 0.692,-1.102 0.692,-1.824 v -0.021 c 0,-0.722 -0.234,-1.335 -0.703,-1.839 -0.468,-0.503 -1.062,-0.755 -1.776,-0.755 -0.714,0 -1.304,0.249 -1.765,0.745 -0.462,0.496 -0.693,1.106 -0.693,1.828 v 0.021 c 0,0.722 0.234,1.333 0.703,1.833"
   id="path26" />
	<path
   fill="#5c5c60"
   d="m 167.083,79.92 v -6.115 c 0,-0.18 0.063,-0.333 0.188,-0.457 0.124,-0.126 0.276,-0.188 0.458,-0.188 h 0.135 c 0.243,0 0.465,0.125 0.667,0.374 l 3.646,4.719 v -4.479 c 0,-0.173 0.061,-0.32 0.183,-0.441 0.121,-0.122 0.269,-0.184 0.442,-0.184 0.173,0 0.323,0.062 0.448,0.184 0.125,0.121 0.188,0.269 0.188,0.441 v 6.125 c 0,0.182 -0.062,0.332 -0.183,0.453 -0.122,0.122 -0.27,0.184 -0.442,0.184 h -0.053 c -0.242,0 -0.465,-0.129 -0.667,-0.387 l -3.75,-4.854 v 4.625 c 0,0.174 -0.06,0.321 -0.182,0.442 -0.122,0.121 -0.269,0.183 -0.443,0.183 -0.173,0 -0.322,-0.062 -0.446,-0.183 -0.126,-0.121 -0.189,-0.268 -0.189,-0.442"
   id="path27" />
	<path
   fill="#5c5c60"
   d="m 185.155,80.597 c -1.007,0 -1.92,-0.306 -2.739,-0.917 -0.167,-0.118 -0.25,-0.281 -0.25,-0.489 0,-0.167 0.06,-0.307 0.178,-0.422 0.117,-0.114 0.26,-0.172 0.427,-0.172 0.146,0 0.27,0.038 0.375,0.114 0.632,0.501 1.312,0.751 2.041,0.751 0.396,0 0.71,-0.086 0.942,-0.255 0.233,-0.171 0.35,-0.392 0.35,-0.662 v -0.021 c 0,-0.271 -0.111,-0.485 -0.333,-0.646 -0.224,-0.16 -0.66,-0.315 -1.313,-0.469 -0.416,-0.104 -0.764,-0.208 -1.041,-0.312 -0.277,-0.104 -0.527,-0.24 -0.751,-0.406 -0.222,-0.167 -0.383,-0.369 -0.483,-0.609 -0.101,-0.239 -0.151,-0.522 -0.151,-0.85 v -0.02 c 0,-0.625 0.233,-1.134 0.698,-1.526 0.465,-0.392 1.062,-0.589 1.792,-0.589 0.868,0 1.638,0.227 2.312,0.677 0.188,0.104 0.281,0.275 0.281,0.512 0,0.166 -0.059,0.307 -0.177,0.422 -0.118,0.114 -0.26,0.171 -0.427,0.171 -0.118,0 -0.229,-0.031 -0.333,-0.093 -0.569,-0.368 -1.13,-0.554 -1.678,-0.554 -0.36,0 -0.648,0.082 -0.864,0.245 -0.216,0.164 -0.323,0.37 -0.323,0.62 v 0.021 c 0,0.285 0.117,0.505 0.349,0.661 0.233,0.156 0.697,0.317 1.392,0.484 0.805,0.194 1.396,0.453 1.771,0.776 0.375,0.323 0.562,0.775 0.562,1.358 v 0.021 c 0,0.673 -0.239,1.205 -0.72,1.593 -0.48,0.39 -1.108,0.586 -1.887,0.586"
   id="path28" />
	<path
   fill="#5c5c60"
   d="M 193.165,79.909 V 77.66 l -2.51,-3.449 c -0.098,-0.145 -0.146,-0.295 -0.146,-0.447 0,-0.174 0.062,-0.318 0.188,-0.438 0.126,-0.118 0.278,-0.177 0.459,-0.177 0.243,0 0.451,0.129 0.625,0.385 l 2.031,2.927 2.062,-2.937 c 0.174,-0.258 0.379,-0.386 0.615,-0.386 0.18,0 0.33,0.062 0.448,0.183 0.118,0.122 0.177,0.269 0.177,0.442 0,0.146 -0.059,0.3 -0.177,0.458 l -2.49,3.406 v 2.281 c 0,0.181 -0.062,0.332 -0.188,0.453 -0.125,0.122 -0.277,0.183 -0.459,0.183 -0.18,0 -0.331,-0.061 -0.452,-0.183 -0.121,-0.12 -0.183,-0.271 -0.183,-0.452"
   id="path29" />
	<path
   fill="#5c5c60"
   d="m 202.738,80.597 c -1.008,0 -1.921,-0.306 -2.739,-0.917 -0.167,-0.118 -0.25,-0.281 -0.25,-0.489 0,-0.167 0.059,-0.307 0.177,-0.422 0.118,-0.114 0.26,-0.172 0.427,-0.172 0.146,0 0.271,0.038 0.375,0.114 0.632,0.501 1.312,0.751 2.041,0.751 0.396,0 0.71,-0.086 0.943,-0.255 0.232,-0.171 0.349,-0.392 0.349,-0.662 v -0.021 c 0,-0.271 -0.11,-0.485 -0.333,-0.646 -0.223,-0.161 -0.66,-0.315 -1.312,-0.469 -0.416,-0.104 -0.765,-0.208 -1.041,-0.312 -0.278,-0.104 -0.528,-0.24 -0.751,-0.406 -0.223,-0.167 -0.383,-0.369 -0.484,-0.609 -0.1,-0.239 -0.15,-0.522 -0.15,-0.85 v -0.02 c 0,-0.625 0.232,-1.134 0.697,-1.526 0.465,-0.392 1.062,-0.589 1.792,-0.589 0.868,0 1.639,0.227 2.312,0.677 0.188,0.104 0.28,0.275 0.28,0.512 0,0.166 -0.059,0.307 -0.177,0.422 -0.118,0.114 -0.26,0.171 -0.427,0.171 -0.118,0 -0.229,-0.031 -0.333,-0.093 -0.569,-0.368 -1.129,-0.554 -1.677,-0.554 -0.361,0 -0.649,0.082 -0.865,0.245 -0.215,0.164 -0.323,0.37 -0.323,0.62 v 0.021 c 0,0.285 0.117,0.505 0.35,0.661 0.233,0.156 0.696,0.317 1.391,0.484 0.805,0.194 1.396,0.453 1.771,0.776 0.375,0.323 0.562,0.775 0.562,1.358 v 0.021 c 0,0.673 -0.239,1.205 -0.719,1.593 -0.48,0.39 -1.108,0.586 -1.886,0.586"
   id="path30" />
	<path
   fill="#5c5c60"
   d="M 210.571,79.909 V 74.388 H 208.8 c -0.166,0 -0.307,-0.059 -0.421,-0.178 -0.115,-0.117 -0.172,-0.257 -0.172,-0.416 0,-0.16 0.057,-0.298 0.172,-0.417 0.114,-0.118 0.255,-0.177 0.421,-0.177 h 4.844 c 0.16,0 0.298,0.059 0.411,0.177 0.115,0.119 0.172,0.257 0.172,0.417 0,0.159 -0.057,0.299 -0.172,0.416 -0.113,0.119 -0.251,0.178 -0.411,0.178 h -1.78 v 5.521 c 0,0.174 -0.063,0.323 -0.188,0.448 -0.125,0.125 -0.276,0.188 -0.458,0.188 -0.181,0 -0.334,-0.062 -0.458,-0.188 -0.126,-0.125 -0.189,-0.274 -0.189,-0.448"
   id="path31" />
	<path
   fill="#5c5c60"
   d="m 218.259,80.492 c -0.182,0 -0.333,-0.062 -0.458,-0.188 -0.125,-0.125 -0.188,-0.277 -0.188,-0.458 v -6 c 0,-0.18 0.063,-0.333 0.188,-0.458 0.125,-0.125 0.276,-0.188 0.458,-0.188 h 4.238 c 0.16,0 0.296,0.057 0.407,0.167 0.11,0.111 0.166,0.247 0.166,0.406 0,0.16 -0.056,0.296 -0.166,0.407 -0.111,0.111 -0.247,0.166 -0.407,0.166 h -3.604 v 1.896 h 3.136 c 0.159,0 0.295,0.058 0.406,0.173 0.111,0.114 0.167,0.252 0.167,0.412 0,0.151 -0.056,0.283 -0.167,0.395 -0.111,0.112 -0.247,0.167 -0.406,0.167 h -3.136 v 1.958 h 3.656 c 0.152,0 0.286,0.056 0.401,0.167 0.114,0.111 0.171,0.247 0.171,0.406 0,0.16 -0.055,0.295 -0.166,0.405 -0.111,0.112 -0.247,0.167 -0.406,0.167 z"
   id="path32" />
	<path
   fill="#5c5c60"
   d="m 226.675,79.92 v -6.115 c 0,-0.18 0.062,-0.333 0.188,-0.457 0.124,-0.126 0.277,-0.188 0.458,-0.188 h 0.135 c 0.25,0 0.448,0.113 0.595,0.343 l 2.208,3.459 2.219,-3.469 c 0.139,-0.223 0.333,-0.333 0.583,-0.333 h 0.136 c 0.181,0 0.333,0.062 0.458,0.188 0.125,0.124 0.188,0.277 0.188,0.457 v 6.104 c 0,0.181 -0.063,0.332 -0.188,0.453 -0.125,0.121 -0.277,0.183 -0.458,0.183 -0.174,0 -0.322,-0.062 -0.447,-0.188 -0.125,-0.125 -0.188,-0.273 -0.188,-0.447 v -4.374 l -1.781,2.677 c -0.146,0.222 -0.326,0.333 -0.541,0.333 -0.209,0 -0.386,-0.111 -0.532,-0.333 l -1.771,-2.657 v 4.365 c 0,0.174 -0.06,0.321 -0.182,0.442 -0.122,0.121 -0.273,0.183 -0.453,0.183 -0.182,0 -0.33,-0.062 -0.448,-0.183 -0.118,-0.121 -0.179,-0.269 -0.179,-0.443"
   id="path33" />
	<path
   fill="#5c5c60"
   d="m 240.351,80.597 c -1.007,0 -1.92,-0.306 -2.739,-0.917 -0.166,-0.118 -0.249,-0.281 -0.249,-0.489 0,-0.167 0.058,-0.307 0.177,-0.422 0.118,-0.114 0.26,-0.172 0.427,-0.172 0.146,0 0.271,0.038 0.375,0.114 0.632,0.501 1.312,0.751 2.041,0.751 0.396,0 0.71,-0.086 0.943,-0.255 0.232,-0.171 0.349,-0.392 0.349,-0.662 v -0.021 c 0,-0.271 -0.111,-0.485 -0.333,-0.646 -0.223,-0.16 -0.66,-0.315 -1.312,-0.469 -0.416,-0.104 -0.765,-0.208 -1.041,-0.312 -0.278,-0.104 -0.528,-0.24 -0.751,-0.406 -0.223,-0.167 -0.384,-0.369 -0.484,-0.609 -0.1,-0.239 -0.151,-0.522 -0.151,-0.85 v -0.02 c 0,-0.625 0.233,-1.134 0.698,-1.526 0.465,-0.392 1.062,-0.589 1.792,-0.589 0.868,0 1.638,0.227 2.312,0.677 0.187,0.104 0.28,0.275 0.28,0.512 0,0.166 -0.059,0.307 -0.177,0.422 -0.118,0.114 -0.26,0.171 -0.427,0.171 -0.118,0 -0.229,-0.031 -0.333,-0.093 -0.57,-0.368 -1.129,-0.554 -1.677,-0.554 -0.361,0 -0.649,0.082 -0.865,0.245 -0.215,0.164 -0.323,0.37 -0.323,0.62 v 0.021 c 0,0.285 0.117,0.505 0.349,0.661 0.233,0.156 0.697,0.317 1.392,0.484 0.805,0.194 1.396,0.453 1.771,0.776 0.375,0.323 0.562,0.775 0.562,1.358 v 0.021 c 0,0.673 -0.239,1.205 -0.719,1.593 -0.481,0.39 -1.109,0.586 -1.887,0.586"
   id="path34" />
</g>
</svg>
