<?xml version="1.0" encoding="UTF-8" standalone="no"?>
<!-- Created with Inkscape (http://www.inkscape.org/) -->

<svg
   width="216.74654mm"
   height="38.792316mm"
   viewBox="0 0 216.74654 38.792316"
   version="1.1"
   id="svg1"
   xml:space="preserve"
   sodipodi:docname="neutrality.svg"
   inkscape:version="1.3.2 (091e20e, 2023-11-25)"
   xmlns:inkscape="http://www.inkscape.org/namespaces/inkscape"
   xmlns:sodipodi="http://sodipodi.sourceforge.net/DTD/sodipodi-0.dtd"
   xmlns="http://www.w3.org/2000/svg"
   xmlns:svg="http://www.w3.org/2000/svg"><sodipodi:namedview
     id="namedview1"
     pagecolor="#ffffff"
     bordercolor="#000000"
     borderopacity="0.25"
     inkscape:showpageshadow="2"
     inkscape:pageopacity="0.0"
     inkscape:pagecheckerboard="0"
     inkscape:deskcolor="#d1d1d1"
     inkscape:document-units="mm"
     inkscape:zoom="0.4204826"
     inkscape:cx="183.12291"
     inkscape:cy="38.051515"
     inkscape:window-width="1312"
     inkscape:window-height="805"
     inkscape:window-x="48"
     inkscape:window-y="38"
     inkscape:window-maximized="0"
     inkscape:current-layer="layer1" /><defs
     id="defs1" /><g
     inkscape:label="Layer 1"
     inkscape:groupmode="layer"
     id="layer1"
     transform="translate(25.544023,-24.096434)"><g
       id="g34"><path
         style="fill:#484f5a;fill-opacity:1"
         d="m 119.2777,54.835933 c -3.27194,-0.43961 -5.41062,-2.196951 -5.9621,-4.899013 -0.0504,-0.246767 -0.0916,-0.82444 -0.0916,-1.283719 0,-2.060227 0.67522,-3.58414 2.04404,-4.613232 1.46891,-1.104339 3.41547,-1.736237 8.2092,-2.664896 3.51918,-0.681745 4.17013,-1.010858 4.03228,-2.038644 -0.18578,-1.385047 -1.62165,-2.198303 -3.88524,-2.200535 -2.35945,-0.0023 -3.91646,1.043061 -4.24383,2.84933 -0.0857,0.472744 -0.14159,0.593654 -0.31514,0.681458 -0.1528,0.07731 -0.79463,0.107051 -2.32764,0.107859 -2.38582,0.0013 -2.57891,-0.03866 -2.86013,-0.591287 -0.18226,-0.358154 -0.13805,-0.840957 0.16098,-1.758021 0.95442,-2.926944 3.26747,-4.7978 6.839,-5.531564 1.07464,-0.220781 3.19376,-0.307508 4.19808,-0.17181 2.00994,0.27157 3.78229,1.173399 5.22208,2.657154 1.04025,1.072019 1.71037,2.168318 2.17469,3.557738 0.46667,1.396446 0.4784,1.601913 0.47869,8.383874 3e-4,6.811878 0.0191,6.543788 -0.48223,6.883558 -0.21742,0.14736 -0.41495,0.16074 -2.37301,0.16074 h -2.13585 l -0.21237,-0.21232 c -0.13063,-0.13059 -0.24259,-0.37402 -0.29086,-0.63241 -0.0864,-0.46232 -0.32178,-0.721606 -0.65514,-0.721606 -0.11647,0 -0.4603,0.195026 -0.79965,0.453576 -1.40788,1.07264 -2.93603,1.56488 -5.03095,1.62053 -0.65193,0.0173 -1.41393,7.8e-4 -1.69333,-0.0368 z"
         id="path21" /><path
         style="fill:#484f5a;fill-opacity:1"
         d="m 45.446948,54.700883 c -1.128532,-0.164844 -1.848801,-0.34818 -2.704407,-0.68837 -3.236604,-1.286877 -5.356219,-3.924599 -6.030234,-7.504231 -0.215503,-1.144519 -0.194631,-3.500073 0.04262,-4.810316 0.370835,-2.047944 1.14883,-3.889576 2.195736,-5.197633 0.473341,-0.591418 1.540968,-1.600803 2.107168,-1.992216 1.916912,-1.325161 4.205928,-1.942946 6.804012,-1.836345 2.818893,0.115662 4.994614,0.996657 6.731459,2.725709 1.878981,1.870549 2.812226,4.374271 2.969329,7.966153 0.04239,0.969084 0.03053,1.447707 -0.04126,1.665232 -0.201243,0.609773 0.283905,0.573133 -7.588725,0.573133 H 42.853487 L 42.606,45.849486 c -0.292489,0.292489 -0.301764,0.414912 -0.08022,1.058841 0.566905,1.647738 1.723135,2.70621 3.427688,3.137879 0.694435,0.175862 2.524404,0.171236 3.257636,-0.0082 1.234546,-0.302176 2.355717,-1.111066 2.921317,-2.107639 0.555626,-0.979 0.556272,-0.979035 2.883759,-0.157044 1.151948,0.40683 1.935354,0.730427 2.053167,0.84809 0.285261,0.284898 0.250251,0.702511 -0.110493,1.318027 -1.209732,2.064093 -3.224473,3.586998 -5.668008,4.28434 -1.896699,0.541283 -4.146976,0.725013 -5.843897,0.477143 z"
         id="path23" /><path
         style="fill:#484f5a;fill-opacity:1"
         d="m 147.83415,29.975789 c -0.12689,-0.06886 -0.26976,-0.198179 -0.3175,-0.287378 -0.0531,-0.09913 -0.0868,-1.039124 -0.0868,-2.417924 v -2.255745 l 0.24748,-0.247487 0.24749,-0.247488 h 2.45712 2.45713 l 0.23755,0.204212 0.23756,0.204211 0.0253,2.223704 c 0.0275,2.419816 -0.002,2.619677 -0.41398,2.832866 -0.35122,0.181622 -4.75441,0.173864 -5.09132,-0.009 z"
         id="path34" /><path
         style="fill:#56a8ea;fill-opacity:1"
         d="m -6.7904871,41.577659 c -0.1862662,-0.06711 -0.3472132,-0.122583 -0.3576592,-0.123284 -0.01045,-7.01e-4 -0.08665,-0.1251 -0.169333,-0.276441 -0.139646,-0.255592 -0.150341,-0.666664 -0.150341,-5.7785 0,-6.030672 -0.0082,-5.928149 0.498759,-6.205826 0.230217,-0.126087 0.5606444,-0.144174 2.6339077,-0.144174 2.6662728,0 2.8084152,0.02492 3.0632263,0.536978 0.1357451,0.272789 0.1591511,0.61908 0.1964404,2.906325 0.023283,1.428151 0.073993,2.628301 0.11268778,2.667 0.038695,0.0387 1.257895,0.08941 2.70933342,0.112697 3.0194013,0.04844 3.0684283,0.05881 3.3137107,0.701071 0.1203003,0.315002 0.1361215,0.691998 0.1135245,2.705125 -0.024972,2.224726 -0.034977,2.350786 -0.2045861,2.577771 -0.098081,0.131261 -0.3266814,0.283438 -0.508,0.338171 -0.2369545,0.07153 -1.8178848,0.1003 -5.6213369,0.102305 -4.399555,0.0023 -5.348762,-0.01778 -5.6303336,-0.119218 z"
         id="path33" /><path
         style="fill:#73d4fb;fill-opacity:1"
         d="m -24.829153,41.618149 c -0.142265,-0.04217 -0.351815,-0.175766 -0.465666,-0.296881 l -0.207002,-0.22021 -0.0248,-2.442661 c -0.02777,-2.735087 6.53e-4,-2.914651 0.504967,-3.18984 0.2516,-0.13729 0.560527,-0.156648 2.879514,-0.180432 2.24725,-0.02305 2.61274,-0.04477 2.709333,-0.160988 0.08506,-0.102341 0.121741,-0.765204 0.15399,-2.782532 0.04031,-2.5215 0.05082,-2.659547 0.219777,-2.885638 0.30717,-0.411045 0.675693,-0.461504 3.170838,-0.434162 2.520773,0.02762 2.587233,0.04261 2.860623,0.645048 0.126937,0.279715 0.141095,0.850409 0.141095,5.687248 0,5.916954 0.0093,5.807136 -0.518289,6.152914 -0.221898,0.145444 -0.564797,0.155656 -5.700905,0.169779 -3.066648,0.0084 -5.578318,-0.01862 -5.723472,-0.06164 z"
         id="path32" /><path
         style="fill:#484f5a;fill-opacity:1"
         d="m 163.38952,54.310467 c -2.8267,-0.358705 -4.0583,-1.596024 -4.35265,-4.372858 -0.0568,-0.535531 -0.0924,-2.984414 -0.0924,-6.356408 v -5.485254 l -0.21833,-0.205259 c -0.20197,-0.189871 -0.30073,-0.208432 -1.31742,-0.247592 -1.5086,-0.05811 -1.42325,0.07931 -1.4257,-2.295621 l -0.002,-1.829954 0.22321,-0.223212 c 0.21402,-0.214023 0.26142,-0.223212 1.15137,-0.223212 1.02271,0 1.47414,-0.132698 1.54646,-0.454583 0.0223,-0.09923 0.0505,-0.912876 0.0626,-1.808102 0.0257,-1.8991 -0.0576,-1.722744 1.12271,-2.377306 0.4191,-0.232425 1.34807,-0.750361 2.06437,-1.150967 1.4853,-0.83068 1.72852,-0.885512 2.13315,-0.480888 l 0.24748,0.247487 v 2.785754 2.785754 l 0.21828,0.205259 c 0.21321,0.200494 0.25628,0.205865 1.85609,0.231393 1.6317,0.02604 1.63863,0.02695 1.85606,0.244379 l 0.21824,0.218244 v 1.839576 1.839575 l -0.21692,0.21692 c -0.21615,0.216148 -0.22292,0.217018 -1.90282,0.244379 -1.62352,0.02644 -1.69303,0.0346 -1.87858,0.22035 l -0.19268,0.192892 v 5.310441 c 0,5.053311 0.008,5.32321 0.15964,5.574133 0.30266,0.499914 0.54472,0.574682 2.0187,0.623519 1.31639,0.04362 1.33438,0.04682 1.56634,0.278696 l 0.23465,0.234573 0.0259,1.771355 c 0.0384,2.628627 0.12267,2.548668 -2.66899,2.532456 -1.01432,-0.0059 -2.11092,-0.04455 -2.43689,-0.08592 z"
         id="path31" /><path
         style="fill:#484f5a;fill-opacity:1"
         d="m 147.97028,54.275127 c -0.14515,-0.07276 -0.30708,-0.227019 -0.35984,-0.342808 -0.0697,-0.153053 -0.0959,-2.961772 -0.0959,-10.288389 V 33.566068 l 0.24749,-0.247487 0.24749,-0.247487 h 2.38369 2.38369 l 0.24749,0.247487 0.24749,0.247487 v 10.122843 10.122844 l -0.24694,0.276502 -0.24693,0.276503 -2.2719,0.02132 c -1.92059,0.01803 -2.31271,8.69e-4 -2.53581,-0.110957 z"
         id="path30" /><path
         style="fill:#484f5a;fill-opacity:1"
         d="m 137.81072,54.324117 c -0.0983,-0.03974 -0.26027,-0.175808 -0.35984,-0.302385 l -0.18102,-0.230139 V 39.236141 c 0,-15.530531 -0.0152,-14.933616 0.38479,-15.087117 0.0754,-0.02893 1.22152,-0.05259 2.54698,-0.05259 h 2.40992 l 0.20782,0.207818 0.20782,0.207819 v 14.604864 c 0,10.741148 -0.0255,14.660835 -0.0964,14.816434 -0.19617,0.430549 -0.45674,0.474211 -2.79506,0.468364 -1.18042,-0.003 -2.22667,-0.03788 -2.32501,-0.07761 z"
         id="path29" /><path
         style="fill:#484f5a;fill-opacity:1"
         d="m 99.540939,54.273047 c -0.145151,-0.07161 -0.307076,-0.224933 -0.359833,-0.340722 -0.06974,-0.153053 -0.09592,-2.961772 -0.09592,-10.288389 V 33.566074 l 0.247487,-0.247487 0.247488,-0.247487 h 2.381029 2.38103 l 0.20782,0.207818 c 0.13567,0.135678 0.20825,0.304672 0.20906,0.486833 0.002,0.377419 0.16772,0.679498 0.44709,0.813455 0.30802,0.14769 0.48552,0.07915 1.03083,-0.398039 0.93399,-0.817308 2.23722,-1.253083 4.003,-1.33852 l 1.03717,-0.05018 v 2.505263 2.505263 l -0.2043,0.237555 -0.2043,0.237554 -1.6372,0.05484 c -1.73473,0.05811 -2.14156,0.134269 -2.81008,0.526046 -0.74832,0.438548 -1.1767,1.139518 -1.45596,2.382444 -0.13656,0.607774 -0.15579,1.290134 -0.18723,6.644534 -0.0218,3.719184 -0.0667,6.026397 -0.11913,6.124334 -0.18482,0.345325 -0.54479,0.396902 -2.75592,0.39487 -1.71426,-0.0016 -2.146511,-0.02575 -2.362128,-0.132124 z"
         id="path28" /><path
         style="fill:#484f5a;fill-opacity:1"
         d="M 90.15285,54.283327 C 88.231848,54.016615 87.133587,53.35567 86.511862,52.092142 85.930301,50.910238 85.935594,50.976733 85.882583,44.185874 l -0.04773,-6.114887 -0.190136,-0.190064 c -0.171385,-0.171319 -0.296631,-0.194506 -1.27,-0.235113 -0.593926,-0.02478 -1.131377,-0.07828 -1.194337,-0.118885 -0.280198,-0.180731 -0.351194,-0.619375 -0.351194,-2.16983 0,-1.550456 0.071,-1.9891 0.351194,-2.169831 0.06296,-0.04061 0.60359,-0.09289 1.201401,-0.116169 1.063012,-0.0414 1.091421,-0.04756 1.291166,-0.279888 0.200683,-0.233419 0.204239,-0.266135 0.204239,-1.879112 0,-1.583127 0.0068,-1.6491 0.1905,-1.853457 0.104775,-0.116545 1.109151,-0.72827 2.231947,-1.359388 2.065459,-1.160985 2.352077,-1.27162 2.746909,-1.060312 0.393013,0.210334 0.418644,0.411509 0.418644,3.285906 0,2.535201 0.0101,2.716646 0.16167,2.904038 0.157959,0.195292 0.200886,0.200851 1.870242,0.242213 l 1.708572,0.04233 0.204091,0.237555 c 0.201568,0.234617 0.204092,0.259399 0.204092,2.004337 0,1.765892 -1.08e-4,1.76691 -0.213868,2.02095 l -0.213868,0.254167 -1.698611,0.0275 -1.698611,0.0275 -0.206636,0.240401 -0.206636,0.2404 0.02361,5.262933 c 0.02174,4.845054 0.03549,5.284667 0.173215,5.536666 0.263289,0.481759 0.539022,0.5648 2.038033,0.613782 l 1.340967,0.04382 0.2042,0.237555 c 0.202442,0.235509 0.2042,0.2536 0.2042,2.101066 0,1.172978 -0.0339,1.926852 -0.09148,2.034447 -0.189478,0.354044 -0.54645,0.411177 -2.509299,0.401613 -1.014321,-0.0049 -2.187119,-0.05659 -2.606219,-0.114781 z"
         id="path27" /><path
         style="fill:#484f5a;fill-opacity:1"
         d="M 67.107852,54.665827 C 64.011629,54.175202 61.816189,51.983776 61.028687,48.597778 60.759036,47.438368 60.72153,46.27226 60.747595,39.85824 l 0.02592,-6.378521 0.237555,-0.204312 0.237555,-0.204312 h 2.329178 c 1.425663,0 2.391953,0.0336 2.491005,0.08661 0.379902,0.203317 0.375209,0.123816 0.419708,7.110059 l 0.04233,6.646333 0.195608,0.550334 c 0.556726,1.566315 1.830998,2.458745 3.504106,2.454081 2.024292,-0.0056 3.307276,-1.247998 3.889587,-3.766415 0.06648,-0.287532 0.114268,-2.388032 0.148958,-6.547902 l 0.05107,-6.12457 0.237554,-0.204263 0.237555,-0.204264 h 2.329178 c 1.43558,0 2.391672,0.03345 2.492069,0.08718 0.435049,0.232831 0.418668,-0.180505 0.418327,10.555452 -3.09e-4,9.736417 -0.0042,9.980141 -0.165284,10.244259 -0.257651,0.42256 -0.536748,0.463728 -2.93924,0.433549 -2.126424,-0.02671 -2.131664,-0.02723 -2.3511,-0.233532 -0.132779,-0.124831 -0.241461,-0.341436 -0.274273,-0.546628 -0.06361,-0.397795 -0.357209,-0.728277 -0.646999,-0.728277 -0.119569,0 -0.439598,0.18756 -0.771949,0.452417 -0.656348,0.523057 -1.441153,0.934221 -2.238869,1.172957 -0.628024,0.187951 -2.750667,0.282325 -3.5393,0.157359 z"
         id="path26" /><path
         style="fill:#484f5a;fill-opacity:1"
         d="m 15.320748,54.649877 c -0.402442,-0.233934 -0.394234,-0.01327 -0.394234,-10.599205 v -9.93853 l 0.1905,-0.2824 c 0.118413,-0.175536 0.296985,-0.309957 0.4719,-0.355223 0.154771,-0.04005 1.253331,-0.06148 2.441245,-0.04762 l 2.159843,0.0252 0.246923,0.276502 c 0.151346,0.169476 0.246922,0.370671 0.246922,0.519787 0,0.317504 0.231092,0.587619 0.556396,0.650351 0.224305,0.04326 0.340718,-0.01465 0.846667,-0.421174 1.249998,-1.004349 2.492081,-1.405187 4.354271,-1.405187 1.502723,0 2.517632,0.23336 3.732864,0.858306 2.123261,1.09191 3.482126,3.23823 3.921166,6.193461 0.115025,0.77425 0.135304,1.9011 0.135304,7.518696 v 6.607949 l -0.247488,0.247488 -0.247487,0.247487 h -2.381028 -2.381028 l -0.207818,-0.207818 -0.207818,-0.207819 -6.95e-4,-5.994015 c -4.04e-4,-3.484592 -0.0366,-6.313029 -0.08647,-6.756015 -0.25697,-2.282879 -1.385709,-3.504556 -3.375927,-3.653892 -2.124652,-0.159423 -3.487058,0.943331 -4.139966,3.350959 l -0.219911,0.810933 -0.04668,6.124573 -0.04668,6.124572 -0.237555,0.204261 -0.237554,0.204261 -2.344779,-0.0026 c -1.509589,-0.0017 -2.40038,-0.03489 -2.500878,-0.09331 z"
         id="path25" /><path
         style="fill:#ffffff;fill-opacity:1"
         d="m 51.443096,41.451411 c 0.286594,-0.225434 0.309484,-0.432582 0.124514,-1.126803 -0.443153,-1.663227 -1.561446,-2.776925 -3.112545,-3.099759 -0.602123,-0.125321 -2.068209,-0.124405 -2.594881,0.0016 -1.612351,0.385817 -2.980522,1.686525 -3.447779,3.277772 -0.14911,0.507795 -0.0925,0.768244 0.213605,0.982645 0.171126,0.119862 0.679803,0.135544 4.396592,0.135544 4.088695,0 4.208994,-0.0047 4.420494,-0.171021 z"
         id="path24" /><path
         style="fill:#ffffff;fill-opacity:1"
         d="m 123.38452,50.598322 c 2.26268,-0.46665 3.62656,-1.869673 4.02433,-4.139814 0.11804,-0.673655 0.1759,-2.550076 0.0786,-2.550076 -0.0251,0 -0.18706,0.0718 -0.35983,0.159565 -0.46585,0.236637 -1.54236,0.55993 -3.39917,1.02083 -2.6368,0.654508 -3.45898,0.988455 -4.1123,1.670307 -0.43784,0.456955 -0.63433,0.969416 -0.63433,1.654433 0,1.829257 1.79865,2.721805 4.40267,2.184755 z"
         id="path22" /><path
         style="fill:#82d3df;fill-opacity:1"
         d="m -6.6383211,59.727839 c -0.4831452,-0.108339 -0.7593122,-0.449387 -0.8284102,-1.023034 -0.02951,-0.244955 -0.04182,-2.769474 -0.02737,-5.61004 0.02443,-4.801705 0.03709,-5.184474 0.180069,-5.446503 0.290807,-0.532936 0.167624,-0.522511 6.1723241,-0.522366 5.0119484,1.22e-4 5.4659982,0.01184 5.7388862,0.148167 0.5584771,0.278991 0.5924035,0.452327 0.5924035,3.026702 0,2.565448 -0.029698,2.718104 -0.5924035,3.04512 -0.280126,0.162794 -0.4356983,0.172213 -2.8444643,0.172213 -2.03528322,0 -2.57631512,0.02339 -2.68816672,0.1162 -0.12428178,0.103128 -0.14008898,0.388878 -0.14050798,2.54 -2.893e-4,1.484594 -0.036242,2.555031 -0.092782,2.762467 -0.12872,0.472248 -0.3665452,0.695297 -0.8524748,0.799511 -0.5096966,0.10931 -4.1214362,0.10271 -4.6171052,-0.0084 z"
         id="path20" /><path
         style="fill:#5baad3;fill-opacity:1"
         d="m -18.220487,59.771729 c -0.628149,-0.154552 -0.739279,-0.225181 -0.895447,-0.569103 -0.143313,-0.315611 -0.159353,-0.583503 -0.161027,-2.689443 -0.002,-2.504075 -0.02849,-2.821165 -0.244194,-2.922223 -0.07627,-0.03573 -1.262616,-0.06751 -2.636332,-0.07061 -2.15649,-0.0049 -2.541453,-0.02524 -2.818214,-0.149068 -0.539074,-0.241194 -0.568472,-0.40098 -0.568321,-3.088961 1.15e-4,-2.06981 0.0179,-2.387798 0.148166,-2.648553 0.259955,-0.520372 0.194239,-0.515299 6.336996,-0.489172 l 5.526343,0.02351 0.253578,0.242986 c 0.421145,0.403553 0.446485,0.791844 0.418003,6.405156 -0.02842,5.600669 -0.0184,5.502081 -0.590381,5.812633 -0.248413,0.134874 -0.537874,0.154889 -2.440837,0.168769 -1.18745,0.0087 -2.2352,-0.003 -2.328333,-0.02592 z"
         id="path19" /><path
         style="fill:#484f5a;fill-opacity:1"
         d="m 171.89852,62.662752 -0.21166,-0.225961 V 60.45587 58.474948 l 0.23459,-0.234757 0.2346,-0.234758 1.6704,-0.05246 c 0.91872,-0.02886 1.79558,-0.09326 1.94858,-0.143118 0.4343,-0.141539 0.83042,-0.416677 1.19314,-0.828749 0.58648,-0.666279 1.51169,-2.661382 1.40174,-3.022705 -0.0312,-0.102464 -1.52285,-4.034398 -3.31482,-8.737631 -4.13644,-10.856527 -4.25723,-11.181114 -4.25723,-11.439558 0,-0.124891 0.10381,-0.318948 0.24748,-0.462621 l 0.24749,-0.247487 h 2.44709 2.44709 l 0.18626,0.198268 c 0.12545,0.133535 0.86294,2.21166 2.25879,6.364902 1.13989,3.391649 2.13542,6.236128 2.21228,6.321065 0.17836,0.197086 0.63318,0.20039 0.8623,0.0063 0.11294,-0.09569 0.30926,-0.582976 0.55432,-1.375833 0.2087,-0.675217 0.68947,-2.218267 1.06838,-3.429 0.37891,-1.210733 0.85566,-2.734733 1.05944,-3.386667 1.28371,-4.106861 1.38525,-4.401616 1.56704,-4.548825 0.1675,-0.135632 0.41039,-0.150174 2.50827,-0.150174 h 2.3228 l 0.20782,0.207818 c 0.15093,0.150936 0.20781,0.299933 0.20781,0.544357 0,0.35129 -0.35892,1.410777 -4.191,12.371158 -0.49657,1.420283 -1.04877,3.001433 -1.2271,3.513666 -0.17834,0.512233 -0.4772,1.369483 -0.66414,1.905 -0.18694,0.535517 -0.59207,1.697567 -0.90029,2.582333 -1.25267,3.595934 -1.84729,4.833417 -2.9392,6.116845 -0.95313,1.120296 -2.17657,1.863987 -3.75193,2.280683 -0.79222,0.209547 -0.99369,0.226259 -3.13267,0.259851 l -2.286,0.0359 z"
         id="path3" /></g></g></svg>
