<?xml version="1.0" encoding="UTF-8"?><svg id="svg24483" xmlns="http://www.w3.org/2000/svg" xmlns:xlink="http://www.w3.org/1999/xlink" viewBox="0 0 790.39 600.65"><defs><clipPath id="clippath"><rect x="154.04" y="308.36" width="38" height="41" style="fill:none;"/></clipPath><clipPath id="clippath-1"><path d="M154.12,308.74v29.41c0,1.07.62,2.03,1.61,2.5l17.07,8.15,17.06-8.09c.98-.46,1.62-1.45,1.62-2.51v-29.46h-37.36Z" style="fill:none;"/></clipPath><clipPath id="clippath-2"><rect x="159.04" y="317.36" width="28" height="19" style="fill:none;"/></clipPath><clipPath id="clippath-3"><path d="M167.37,318.33v.05c.04.07.05.13.05.19v.24l-.23-.09s-.18-.07-.43-.07c-.15,0-.3.02-.44.07h-.03s-.03,0-.03,0c-.08,0-.15,0-.22-.01l.03.11v.03c-.08.38-.41.55-.66.67l-.04.02c.08.05.15.12.22.25.09.15-.05.33-.47.71h.01c.07.03.14.05.2.07.24.11.2.27.18.31-.08.16-.2.29-.3.41-.11.12-.22.24-.28.38.07,0,.15.02.23.05l.18.09-.12.16-.05.08c-.19.27-.35.6-.51,1.07l.14.02v.14c0,.29-.09.48-.19.68l-.02.03-.02.02-.16.06c-.27,0-.54-.47-.67-.75-.11-.22-.36-.79-.36-1.34,0-1.34.2-1.58.32-1.73l.05-.11c0-.15-.06-.18-.24-.25-.12-.05-.27-.11-.38-.26-.19-.32-.59-.52-1-.52-.1,0-.19.01-.27.04.14.07.27.17.39.41.1.2,0,.32-.05.38l-.03.05v.16h-.17l-.13.02c-.11.03-.24.03-.33-.06-.2-.14-.53-.3-.85-.3-.16,0-.3.04-.43.11l-.04.14.06-.15.12.06.04.02.05.03.03.02.05.03.11.09.04.04.03.03.04.04.03.04.03.04.03.04.03.05.03.04.02.05.02.04.02.04.02.05.02.06.02.09v.16s-.05.08-.05.08l-.02.03-.02.02-.02.02-.02.02-.05.04h-.02s-.04.02-.04.02h-.02s-.03.02-.03.02h-.06s-.08,0-.08,0h-.03s-.02-.01-.02-.01l-.05-.02h-.02s-.13-.08-.13-.08l.08-.14-.09.13-.04-.03-.02-.02-.07-.05.09-.13-.11.12-.02-.02.1-.13-.11.12-.02-.02.11-.12-.12.11h0s-.03.13-.03.13v.06c-.03.28.05.61.33.73h.05s.05,0,.05,0c.2,0,.25.18.27.25l.04.1.03.02h.03s.04.02.04.02h.03s.09,0,.09,0h.05s.23-.04.23-.04h.06c.09,0,.16.02.23.07h.02s.04.05.04.05l.04.05.02.06v.03s.01.05.01.05v.02s-.01.04-.01.04v.02s-.02.04-.02.04v.02s-.04.04-.04.04l-.04.05-.09.09-.04.03-.08.03-.07.02h-.02s-.07,0-.07,0h-.08s-.06,0-.06,0l.02-.16-.04.16v-.16l-.02.16h-.02c0,.07.03.16.08.21.13.14.3.21.5.23h.07c.12,0,.23.07.28.19.06.14.03.34-.07.44l-.02.02c-.15.1-.29.17-.42.24-.25.14-.46.25-.62.45.28,0,.38.16.38.3,0,.22-.09.36-.2.46.12,0,.21.05.27.14.17.19-.05.41-.22.59-.07.07-.16.17-.23.25.07-.01.14-.02.21-.02.34,0,.56.17.62.47v.03c0,.16-.05.32-.15.47l.18-.02c.18,0,.27.07.31.15.11.15-.05.3-.19.43-.06.05-.12.12-.18.18.15-.03.3-.03.47.02l.07.02.03.06c.06.13.05.27-.03.39-.1.16-.31.28-.5.36.14.05.33.08.55.08.36,0,.75-.08,1-.2l.19-.09.05.2c.11.47.59.61.88.68.15.04.3.08.3.23v.07l-.05.05c-.25.23-.47.7-.41.88v.03c.06.48-.07.93-.35,1.23-.26.29-.63.43-1.07.43-.54,0-1.2-.08-1.43-.71-.12-.37-.34-.4-.64-.19l-.08.05-.09-.04c-.08-.04-.17-.05-.27-.05-.3,0-.63.19-.82.45.32.04.73.2.86.5.06.15.08.38-.21.66l-.05.05h-.07c-.4,0-.67.23-.78.66.23-.05.44-.07.62-.07.64,0,.75.31.77.45.05.35-.32.74-.89.96.22.15.41.22.59.22.21,0,.41-.08.68-.18.07-.03.14-.05.21-.08.14-.07.27-.05.35-.02l.05.02c.2.08.26.02.38-.28.05-.12.09-.23.18-.3.05-.05.13-.07.22-.07.08,0,.15.02.2.05.08.04.13.12.15.16v.02s.02.07.02.07v.09s.01.07.01.07v.07s0,.01,0,.01v.05s-.03.06-.03.06v.02s-.02.02-.02.02v.02s-.01.02-.01.02h0s.04.16.04.16l-.02-.16h.02s.05.15.05.15l-.03-.16.06.15-.04-.16.07-.03.1.13-.08-.14.07-.05.02-.02.05-.04.07-.07.1-.13.06-.1.16.07-.14-.09.04-.08.16.05-.15-.08.04-.08.16.04-.16-.06.09-.34.02-.1c0-.06.06-.23.12-.29l.07-.08.1-.09.02-.02.09-.06.05-.03h.01s.02-.02.02-.02l.05-.02h.02s.04,0,.04,0c.16-.04.32.03.49.11.2.09.45.21.84.21.19,0,.4-.03.63-.09-.05-.1-.1-.25.04-.37l.03-.02.18-.05c.21-.07.42-.13.62-.21.16-.14.36-.18.54-.23.07-.02.13-.03.19-.05-.05-.05-.09-.11-.09-.18v-.07l.05-.05c.07-.06.17-.09.3-.11h.05s-.05-.14-.05-.14c0-.16.14-.25.68-.54.16-.08.39-.21.52-.3-.15-.14-.29-.36-.32-.48-.04-.16.05-.26.14-.3l.08-.02c.23-.07.52-.16.67-.36l.03-.04.05-.02c.07-.02.24-.07.46-.14.67-.2,1.8-.54,2.33-.73l.23-.08v.33l-.12.02h0s.12,0,.12,0v.23s.02.06.02.06v.08s.02.06.02.06v.02c.04.17.09.29.18.38l.08.07c.15.12.34.21.66.28.08.02.18.02.3.02.15,0,.3-.01.46-.02.3-.02.64-.04.93,0,.29,0,.5.19.54.46.04.31-.15.69-.6.81-.39.1-.77.1-1.14.1h-.02c-.65-.07-.82-.25-1.06-.54l-.05-.06c-.05-.06-.06-.07-.23-.15-.1-.05-.18-.08-.28-.11-.13-.04-.26-.09-.4-.19l-.13-.11-.1-.13-.02-.03c-.11-.16-.19-.26-.32-.26-.14,0-.25.04-.33.12l-.09.09-.11-.07c-.25-.16-.69-.04-.93.25-.07.08-.12.16-.14.24h.05s.07-.02.07-.02h.16s.07.03.07.03h0l.07.03h.02s.06.04.06.04l.06.04.02.02.06.05h0s.05.06.05.06l.04.04h0s.01.03.01.03v.02s.05.08.05.08v.02c.04.05.05.12.03.24-.02.1-.11.29-.28.29l-.13-.04c-.1-.05-.19-.07-.28-.07-.3,0-.54.25-.64.5l-.04.15c.32-.14.68-.1.97.11.25.13.25.39.25.57v.12l-.11.04c-.45.14-.67.27-.83.87.42-.23.84-.23,1.23-.23h.07l.05.05c.22.21.5.28.69.15.18-.13.38-.34.53-.52.18-.21.29-.32.39-.36h.02s.09-.05.15-.05c.05,0,.16.02.23.14.09.14.04.36.02.42-.05.19-.2.32-.35.43.04.02.11.03.18.03.25,0,.4-.01.55-.07l.07-.03.11-.06.16-.05h.05s.12.09.12.09c.04.05.04.12.02.21l-.06.17c.32.03.52-.07.64-.29l.11-.2.16.17c.07.07.12.14.17.2l.11.15c.05-.21.16-.48.41-.64l.26-.16v.3c0,.08.09.33.17.47.04-.11.1-.23.15-.31,0,0,.12-.17.25-.18.14,0,.21.12.3.28.03.05.08.16.13.22.12-.25.32-.59.42-.68l.07-.06.09.02c.06.02.13.03.2.05.23.05.48.12.7.13-.22-.3-.29-.51-.29-.9v-.09s.02-.07.02-.07c.07-.2.24-.32.39-.42l.05-.04c.08-.05.17-.11.22-.18.18-.22.21-.3.21-.49-.05-.18-.25-.31-.45-.45-.11-.08-.22-.16-.32-.24-.45-.46-.1-1.14-.1-1.15l.11-.15.11-.09.11.09c.42.32.79.59,1.18.87.29.23.69.35,1.14.35.12,0,.25-.01.37-.03.14-.02.3-.03.46-.03.79,0,1.62.23,1.62.89,0,.4-.45.96-.9.96l-.12-.02h-.03s-.03-.02-.03-.02c-.16-.11-.24-.28-.32-.44-.09-.18-.14-.3-.25-.32h-.03c-.08-.05-.27.05-.45.21l-.08.07-.1-.04c-.61-.25-1.07-.09-1.42.48h.02c.1-.02.2-.04.3-.04.37,0,.7.13.92.35l.05.05v.06c0,.12-.07.17-.11.19-.04.03-.12.08-.27.33l-.04.07h-.07c-.31.07-.7.57-.76,1.1.37-.2.81-.36,1.35-.36h.07l.05.05c.14.13.14.36.14.46v.1l-.09.04c-.32.15-.62.24-.92.27.24.17.58.27.93.27.3,0,.57-.08.7-.2l.05-.05h.08c.34.05.6-.05.73-.25.1-.16.1-.36,0-.55-.04-.08-.04-.17,0-.25.05-.08.12-.14.21-.15h.12c.16-.01.31.06.42.19.16.18.24.49.22.79.14-.02.3-.14.44-.33h.01s.09-.15.09-.15c.05-.11.09-.2.11-.27l.02-.14h.14c.43,0,.73-.06,1.16-.37-.08-.04-.16-.08-.21-.13l-.03-.02c-.05-.05-.19-.16-.09-.33v-.02c.07-.09.21-.16.43-.28.07-.04.16-.08.22-.12-.06-.05-.12-.12-.12-.23v-.04l.02-.04c.05-.11.18-.18.29-.25l.1-.07c-.12-.03-.23-.09-.23-.22v-.06l.04-.04s.08-.08.18-.16c.13-.11.33-.27.49-.43-.22,0-.38-.05-.49-.17l-.08-.08.05-.1c.09-.18.2-.27.3-.32-.07-.02-.13-.05-.18-.11l-.02-.02v-.02c-.09-.14-.02-.3.06-.46.05-.11.11-.24.11-.36h0s-.06.02-.06.02c-.12.04-.21,0-.26-.07-.07-.11,0-.21.07-.35.03-.05.09-.15.11-.22-.14.05-.27.12-.41.18-.33.15-.67.31-1.1.31-.06,0-.13,0-.2-.01h-.07s-.06-.08-.06-.08l-.06-.11c-.08-.16-.2-.4-.6-.43l-.1.04c-.34.23-.84.48-1.23.48-.11,0-.21-.02-.3-.06l-.05-.02-.05-.03-.05-.04c-.25-.21-.36-.59-.45-.93,0-.04-.02-.1-.04-.17-.04-.16-.12-.54-.16-.61-.12-.19-.35-.34-.59-.5-.37-.25-.79-.54-1-1.04v-.02s-.04-.07-.04-.07l-.09-.27,1.44.2h.24s1-.08,1-.08l.63-.17.55-.29.33-.28.29-.39.02-.04.02-.04.02-.04.02-.05.07-.18.02-.05.02-.05.03-.1v-.05s.08-.46.08-.46v-.25s0-.04,0-.04c0-.1.03-.18.12-.23h0s.12-.07.12-.07l.15-.09.11-.07.1-.07.05-.04.06-.06.04-.04.05-.05v-.02s.04-.04.04-.04l.15.08-.14-.09.02-.04.16.07-.14-.09.02-.04.16.06-.14-.08.06-.12h0s.02-.07.02-.07v-.02s.02-.04.02-.04v-.03s.02-.06.02-.06v-.09s0-.08,0-.08v-.03s0-.06,0-.06v-.02l-.02-.08v-.04s-.04-.15-.04-.24h0s0-.07,0-.07v-.09s.01-.08.01-.08h0s.02-.09.02-.09v-.02l.02-.08v-.02s-.04.04-.04.04c-.19.17-.4.36-.65.36-.33,0-.56-.31-.75-1-.09.15-.24.28-.39.28h-.03s-.04,0-.04,0h-.02c-.26-.11-.46-.4-.66-.68-.06-.08-.14-.2-.21-.29l.02.15v.16s0,.04,0,.04v.03s-.02.04-.02.04v.03s-.04.03-.04.03l-.02.03-.03.04-.03.02-.07.04h-.04s-.03.02-.03.02h-.04s-.09,0-.09,0h-.05s-.04-.02-.04-.02l-.33-.18-.05-.03.08-.15-.1.13-.25-.17.06-.15-.08.14h-.02c.02.1.02.25-.12.39l-.04.04h-.05c-.1.02-.2.03-.3.03-.35,0-.61-.1-.83-.18v.05c0,.08-.02.15-.07.19h-.02c-.08.07-.18.1-.29.1.08.13.15.31.07.56l-.07.16-.02.04-.02.03-.02.03v.02s-.03.02-.03.02l-.12-.11.11.12-.04.04-.21.12-.12.04h-.04s-.02.02-.02.02h-.04s0,0,0,0h-.05s-.05.02-.05.02h-.09s-.2-.02-.2-.02h-.04s-.07-.03-.07-.03l-.07-.03-.04-.02h-.02s-.04-.04-.04-.04l-.02-.02-.03-.02-.06-.06-.03-.03-.02-.02-.02-.03-.02-.03-.03-.05c-.04-.07-.04-.14,0-.2.07-.14.27-.18.49-.22h.01c-.1-.13-.2-.33-.05-.67.06-.23.36-.39.73-.59.46-.25.98-.53,1.06-.93-.08.02-.18.04-.27.07-.2.05-.43.12-.62.12-.17,0-.31-.05-.41-.15-.07-.08-.12-.18-.14-.3-.59.41-1.16.58-1.67.52h-.03c-.25-.09-.46-.29-.71-.54-.29-.28-.61-.59-1.05-.73v.56h-.17c-.3,0-.6,0-.81.04.35.04.63.17.79.61.14.43-.3.68-.8.98-.35.2-.75.43-1.04.76l-.1.11-.12-.09c-.13-.09-.27-.25-.39-.38-.06-.07-.14-.16-.19-.2h-.33l.24-.27c.19-.21.29-.42.3-.61.01-.23-.09-.44-.13-.52l-.08-.14c-.17.07-.38.11-.58.11-.33,0-.55-.09-.62-.26-.02-.05-.04-.11-.02-.19l-.12.03h-.05c-.52,0-1.12,0-1.52.32l-.14.1-.1-.13c-.34-.42-.86-.74-1.34-.81h-.05s-.04-.05-.04-.05l-.05-.04c-.13.28-.36.41-.71.39M174.23,322c-.03-.22.07-.46.27-.69.29-.32.71-.54,1.09-.54.16,0,.3.04.43.1.27.18.48.39.7.61.25.26.51.52.85.7l.09.05v.1c0,.1,0,.2-.87.46-.18.05-.83.24-1.21.24-.89,0-1.33-.34-1.34-1.02M175.72,323.82c.77-.11,1.67-.35,2.54-.59,1.17-.31,2.37-.64,3.28-.64.62,0,1.97.3,1.97,1.22,0,.57-.21.88-.6,1.24l-.02.02c-.71.46-2.51.46-2.53.46-.42,0-1.55,0-2.05-.39-.25-.2-.31-.24-.33-.24-.25-.1-.47-.14-.78-.14-.64,0-1.33.18-2,.36-.64.17-1.25.33-1.79.33-.04,0-.11-.01-.16-.08-.23-.26-.36-1.72-.27-2.21v-.05s.3-.29.3-.29l.1.21c.27.56.81.85,1.61.85.23,0,.48-.02.74-.07h0Z" style="fill:none;"/></clipPath><radialGradient id="radial-gradient" cx="137.54" cy="353.9" fx="137.54" fy="353.9" r="11.5" gradientTransform="translate(33.05 674.82) scale(1.02 -.98)" gradientUnits="userSpaceOnUse"><stop offset="0" stop-color="#f2eac6"/><stop offset="0" stop-color="#f2e9c5"/><stop offset="0" stop-color="#f1e9c4"/><stop offset=".01" stop-color="#f1e8c3"/><stop offset=".02" stop-color="#f1e8c3"/><stop offset=".02" stop-color="#f0e7c2"/><stop offset=".02" stop-color="#f0e7c1"/><stop offset=".03" stop-color="#efe6c0"/><stop offset=".03" stop-color="#efe6c0"/><stop offset=".04" stop-color="#efe5bf"/><stop offset=".04" stop-color="#eee5be"/><stop offset=".04" stop-color="#eee4bd"/><stop offset=".05" stop-color="#eee4bc"/><stop offset=".05" stop-color="#ede4bc"/><stop offset=".05" stop-color="#ede3bb"/><stop offset=".06" stop-color="#ece3ba"/><stop offset=".06" stop-color="#ece3b9"/><stop offset=".07" stop-color="#ece2b9"/><stop offset=".07" stop-color="#ebe2b8"/><stop offset=".07" stop-color="#ebe1b7"/><stop offset=".08" stop-color="#ebe1b6"/><stop offset=".08" stop-color="#ebe1b6"/><stop offset=".09" stop-color="#eae0b5"/><stop offset=".09" stop-color="#eae0b4"/><stop offset=".09" stop-color="#eae0b3"/><stop offset=".1" stop-color="#e9dfb3"/><stop offset=".1" stop-color="#e9dfb2"/><stop offset=".11" stop-color="#e8deb1"/><stop offset=".11" stop-color="#e8deb0"/><stop offset=".11" stop-color="#e8deb0"/><stop offset=".12" stop-color="#e7ddaf"/><stop offset=".12" stop-color="#e7ddae"/><stop offset=".12" stop-color="#e7dcad"/><stop offset=".13" stop-color="#e6dcac"/><stop offset=".13" stop-color="#e6dbac"/><stop offset=".14" stop-color="#e6dbab"/><stop offset=".14" stop-color="#e6dbaa"/><stop offset=".14" stop-color="#e5daaa"/><stop offset=".15" stop-color="#e5daa9"/><stop offset=".15" stop-color="#e5daa9"/><stop offset=".16" stop-color="#e5daa8"/><stop offset=".16" stop-color="#e4d9a7"/><stop offset=".16" stop-color="#e4d9a7"/><stop offset=".17" stop-color="#e4d9a6"/><stop offset=".17" stop-color="#e4d8a5"/><stop offset=".18" stop-color="#e3d8a4"/><stop offset=".18" stop-color="#e3d7a4"/><stop offset=".18" stop-color="#e3d7a3"/><stop offset=".19" stop-color="#e3d7a2"/><stop offset=".19" stop-color="#e2d6a1"/><stop offset=".2" stop-color="#e2d6a1"/><stop offset=".2" stop-color="#e2d6a0"/><stop offset=".2" stop-color="#e2d69f"/><stop offset=".21" stop-color="#e1d59f"/><stop offset=".21" stop-color="#e1d59e"/><stop offset=".21" stop-color="#e1d59e"/><stop offset=".22" stop-color="#e0d59d"/><stop offset=".22" stop-color="#e0d49c"/><stop offset=".23" stop-color="#dfd49b"/><stop offset=".23" stop-color="#dfd49b"/><stop offset=".23" stop-color="#dfd39a"/><stop offset=".24" stop-color="#ded39a"/><stop offset=".24" stop-color="#ded299"/><stop offset=".25" stop-color="#ded299"/><stop offset=".25" stop-color="#ded298"/><stop offset=".25" stop-color="#ddd197"/><stop offset=".26" stop-color="#ddd196"/><stop offset=".26" stop-color="#ddd196"/><stop offset=".27" stop-color="#ddd195"/><stop offset=".27" stop-color="#dcd094"/><stop offset=".27" stop-color="#dcd093"/><stop offset=".28" stop-color="#dcd093"/><stop offset=".28" stop-color="#dccf92"/><stop offset=".29" stop-color="#dbcf92"/><stop offset=".29" stop-color="#dbce91"/><stop offset=".29" stop-color="#dbce90"/><stop offset=".3" stop-color="#dbce90"/><stop offset=".3" stop-color="#dacd8f"/><stop offset=".3" stop-color="#dacd8e"/><stop offset=".31" stop-color="#dacd8e"/><stop offset=".31" stop-color="#dacd8d"/><stop offset=".32" stop-color="#d9cc8d"/><stop offset=".32" stop-color="#d9cc8c"/><stop offset=".32" stop-color="#d9cc8b"/><stop offset=".33" stop-color="#d9cc8b"/><stop offset=".33" stop-color="#d8cb8a"/><stop offset=".34" stop-color="#d8cb89"/><stop offset=".34" stop-color="#d8cb89"/><stop offset=".34" stop-color="#d8ca88"/><stop offset=".35" stop-color="#d7ca88"/><stop offset=".35" stop-color="#d7c987"/><stop offset=".36" stop-color="#d7c986"/><stop offset=".36" stop-color="#d7c986"/><stop offset=".36" stop-color="#d6c885"/><stop offset=".37" stop-color="#d6c884"/><stop offset=".37" stop-color="#d6c884"/><stop offset=".38" stop-color="#d5c783"/><stop offset=".38" stop-color="#d5c782"/><stop offset=".38" stop-color="#d5c782"/><stop offset=".39" stop-color="#d5c781"/><stop offset=".39" stop-color="#d4c680"/><stop offset=".39" stop-color="#d4c680"/><stop offset=".4" stop-color="#d4c67f"/><stop offset=".4" stop-color="#d4c67e"/><stop offset=".41" stop-color="#d3c57e"/><stop offset=".41" stop-color="#d3c57d"/><stop offset=".41" stop-color="#d3c57d"/><stop offset=".42" stop-color="#d3c47c"/><stop offset=".42" stop-color="#d2c47c"/><stop offset=".43" stop-color="#d2c37b"/><stop offset=".43" stop-color="#d2c37b"/><stop offset=".43" stop-color="#d1c37a"/><stop offset=".44" stop-color="#d1c279"/><stop offset=".44" stop-color="#d0c279"/><stop offset=".45" stop-color="#d0c278"/><stop offset=".45" stop-color="#d0c277"/><stop offset=".45" stop-color="#cfc177"/><stop offset=".46" stop-color="#cfc176"/><stop offset=".46" stop-color="#cfc176"/><stop offset=".46" stop-color="#cfc175"/><stop offset=".47" stop-color="#cec074"/><stop offset=".47" stop-color="#cec073"/><stop offset=".48" stop-color="#cec073"/><stop offset=".48" stop-color="#cec072"/><stop offset=".48" stop-color="#cdbf72"/><stop offset=".49" stop-color="#cdbf71"/><stop offset=".49" stop-color="#cdbf71"/><stop offset=".5" stop-color="#cdbe70"/><stop offset=".5" stop-color="#ccbe6f"/><stop offset=".5" stop-color="#ccbd6e"/><stop offset=".51" stop-color="#ccbd6e"/><stop offset=".51" stop-color="#ccbd6d"/><stop offset=".52" stop-color="#cbbc6d"/><stop offset=".52" stop-color="#cbbc6c"/><stop offset=".52" stop-color="#cbbc6c"/><stop offset=".53" stop-color="#cbbc6b"/><stop offset=".53" stop-color="#cabb6a"/><stop offset=".54" stop-color="#cabb69"/><stop offset=".54" stop-color="#cabb69"/><stop offset=".54" stop-color="#cabb68"/><stop offset=".55" stop-color="#c9ba68"/><stop offset=".55" stop-color="#c9ba67"/><stop offset=".55" stop-color="#c9ba66"/><stop offset=".56" stop-color="#c9ba66"/><stop offset=".56" stop-color="#c8b965"/><stop offset=".57" stop-color="#c8b964"/><stop offset=".57" stop-color="#c8b964"/><stop offset=".57" stop-color="#c8b963"/><stop offset=".58" stop-color="#c7b863"/><stop offset=".58" stop-color="#c7b862"/><stop offset=".59" stop-color="#c7b861"/><stop offset=".59" stop-color="#c7b861"/><stop offset=".59" stop-color="#c6b760"/><stop offset=".6" stop-color="#c6b75f"/><stop offset=".6" stop-color="#c6b75e"/><stop offset=".61" stop-color="#c6b65e"/><stop offset=".61" stop-color="#c5b65d"/><stop offset=".61" stop-color="#c5b55c"/><stop offset=".62" stop-color="#c5b55c"/><stop offset=".62" stop-color="#c5b55b"/><stop offset=".62" stop-color="#c4b45b"/><stop offset=".63" stop-color="#c4b45a"/><stop offset=".63" stop-color="#c4b459"/><stop offset=".64" stop-color="#c3b358"/><stop offset=".64" stop-color="#c3b358"/><stop offset=".64" stop-color="#c3b357"/><stop offset=".65" stop-color="#c3b356"/><stop offset=".65" stop-color="#c2b255"/><stop offset=".66" stop-color="#c2b255"/><stop offset=".66" stop-color="#c2b254"/><stop offset=".66" stop-color="#c2b253"/><stop offset=".67" stop-color="#c1b152"/><stop offset=".67" stop-color="#c1b152"/><stop offset=".68" stop-color="#c1b151"/><stop offset=".68" stop-color="#c1b150"/><stop offset=".68" stop-color="#c0b050"/><stop offset=".69" stop-color="#c0b04f"/><stop offset=".69" stop-color="#c0b04f"/><stop offset=".7" stop-color="#c0b04e"/><stop offset=".7" stop-color="#bfaf4d"/><stop offset=".7" stop-color="#bfaf4d"/><stop offset=".71" stop-color="#bfaf4c"/><stop offset=".71" stop-color="#bfaf4b"/><stop offset=".71" stop-color="#beae4a"/><stop offset=".72" stop-color="#beae49"/><stop offset=".72" stop-color="#beae49"/><stop offset=".73" stop-color="#beae48"/><stop offset=".73" stop-color="#bdad47"/><stop offset=".73" stop-color="#bdad46"/><stop offset=".74" stop-color="#bdad46"/><stop offset=".74" stop-color="#bdac45"/><stop offset=".75" stop-color="#bcac45"/><stop offset=".75" stop-color="#bcab44"/><stop offset=".75" stop-color="#bcab44"/><stop offset=".76" stop-color="#bcab43"/><stop offset=".76" stop-color="#bbaa42"/><stop offset=".77" stop-color="#bbaa41"/><stop offset=".77" stop-color="#bbaa41"/><stop offset=".77" stop-color="#bbaa40"/><stop offset=".78" stop-color="#baa93f"/><stop offset=".78" stop-color="#baa93e"/><stop offset=".79" stop-color="#baa93e"/><stop offset=".79" stop-color="#baa93d"/><stop offset=".79" stop-color="#b9a83d"/><stop offset=".8" stop-color="#b9a83c"/><stop offset=".8" stop-color="#b9a83b"/><stop offset=".8" stop-color="#b9a83b"/><stop offset=".81" stop-color="#b8a73a"/><stop offset=".81" stop-color="#b8a739"/><stop offset=".82" stop-color="#b8a738"/><stop offset=".82" stop-color="#b8a738"/><stop offset=".82" stop-color="#b7a637"/><stop offset=".83" stop-color="#b7a636"/><stop offset=".83" stop-color="#b7a636"/><stop offset=".84" stop-color="#b7a635"/><stop offset=".84" stop-color="#b6a535"/><stop offset=".84" stop-color="#b6a534"/><stop offset=".85" stop-color="#b6a533"/><stop offset=".85" stop-color="#b6a533"/><stop offset=".86" stop-color="#b5a432"/><stop offset=".86" stop-color="#b5a431"/><stop offset=".86" stop-color="#b5a431"/><stop offset=".87" stop-color="#b5a430"/><stop offset=".87" stop-color="#b4a330"/><stop offset=".88" stop-color="#b4a32f"/><stop offset=".88" stop-color="#b4a32e"/><stop offset=".88" stop-color="#b3a22d"/><stop offset=".89" stop-color="#b3a22d"/><stop offset=".89" stop-color="#b3a22c"/><stop offset=".89" stop-color="#b3a22b"/><stop offset=".9" stop-color="#b2a12a"/><stop offset=".9" stop-color="#b2a12a"/><stop offset=".91" stop-color="#b2a129"/><stop offset=".91" stop-color="#b2a128"/><stop offset=".91" stop-color="#b1a028"/><stop offset=".92" stop-color="#b1a027"/><stop offset=".92" stop-color="#b1a027"/><stop offset=".93" stop-color="#b1a026"/><stop offset=".93" stop-color="#b09f25"/><stop offset=".93" stop-color="#b09f25"/><stop offset=".94" stop-color="#b09f24"/><stop offset=".94" stop-color="#b09f23"/><stop offset=".95" stop-color="#af9e23"/><stop offset=".95" stop-color="#af9e22"/><stop offset=".95" stop-color="#af9e22"/><stop offset=".96" stop-color="#ae9d21"/><stop offset="1" stop-color="#ae9d21"/></radialGradient><clipPath id="clippath-4"><rect x="173.04" y="334.36" width="1" height="1" style="fill:none;"/></clipPath><clipPath id="clippath-5"><polygon points="173.71 334.51 173.71 334.51 173.74 334.49 173.71 334.49 173.71 334.51" style="fill:none;"/></clipPath><radialGradient id="radial-gradient-2" cx="137.54" cy="353.9" fx="137.54" fy="353.9" r=".01" gradientTransform="translate(33.85 682.39) scale(1.02 -.98)" gradientUnits="userSpaceOnUse"><stop offset="0" stop-color="#f2eac6"/><stop offset="0" stop-color="#f2e9c5"/><stop offset="0" stop-color="#f1e9c4"/><stop offset=".01" stop-color="#f1e8c3"/><stop offset=".02" stop-color="#f1e8c3"/><stop offset=".02" stop-color="#f0e7c2"/><stop offset=".02" stop-color="#f0e7c1"/><stop offset=".03" stop-color="#efe6c0"/><stop offset=".03" stop-color="#efe6c0"/><stop offset=".04" stop-color="#efe5bf"/><stop offset=".04" stop-color="#eee5be"/><stop offset=".04" stop-color="#eee4bd"/><stop offset=".05" stop-color="#eee4bc"/><stop offset=".05" stop-color="#ede4bc"/><stop offset=".05" stop-color="#ede3bb"/><stop offset=".06" stop-color="#ece3ba"/><stop offset=".06" stop-color="#ece3b9"/><stop offset=".07" stop-color="#ece2b9"/><stop offset=".07" stop-color="#ebe2b8"/><stop offset=".07" stop-color="#ebe1b7"/><stop offset=".08" stop-color="#ebe1b6"/><stop offset=".08" stop-color="#ebe1b6"/><stop offset=".09" stop-color="#eae0b5"/><stop offset=".09" stop-color="#eae0b4"/><stop offset=".09" stop-color="#eae0b3"/><stop offset=".1" stop-color="#e9dfb3"/><stop offset=".1" stop-color="#e9dfb2"/><stop offset=".11" stop-color="#e8deb1"/><stop offset=".11" stop-color="#e8deb0"/><stop offset=".11" stop-color="#e8deb0"/><stop offset=".12" stop-color="#e7ddaf"/><stop offset=".12" stop-color="#e7ddae"/><stop offset=".12" stop-color="#e7dcad"/><stop offset=".13" stop-color="#e6dcac"/><stop offset=".13" stop-color="#e6dbac"/><stop offset=".14" stop-color="#e6dbab"/><stop offset=".14" stop-color="#e6dbaa"/><stop offset=".14" stop-color="#e5daaa"/><stop offset=".15" stop-color="#e5daa9"/><stop offset=".15" stop-color="#e5daa9"/><stop offset=".16" stop-color="#e5daa8"/><stop offset=".16" stop-color="#e4d9a7"/><stop offset=".16" stop-color="#e4d9a7"/><stop offset=".17" stop-color="#e4d9a6"/><stop offset=".17" stop-color="#e4d8a5"/><stop offset=".18" stop-color="#e3d8a4"/><stop offset=".18" stop-color="#e3d7a4"/><stop offset=".18" stop-color="#e3d7a3"/><stop offset=".19" stop-color="#e3d7a2"/><stop offset=".19" stop-color="#e2d6a1"/><stop offset=".2" stop-color="#e2d6a1"/><stop offset=".2" stop-color="#e2d6a0"/><stop offset=".2" stop-color="#e2d69f"/><stop offset=".21" stop-color="#e1d59f"/><stop offset=".21" stop-color="#e1d59e"/><stop offset=".21" stop-color="#e1d59e"/><stop offset=".22" stop-color="#e0d59d"/><stop offset=".22" stop-color="#e0d49c"/><stop offset=".23" stop-color="#dfd49b"/><stop offset=".23" stop-color="#dfd49b"/><stop offset=".23" stop-color="#dfd39a"/><stop offset=".24" stop-color="#ded39a"/><stop offset=".24" stop-color="#ded299"/><stop offset=".25" stop-color="#ded299"/><stop offset=".25" stop-color="#ded298"/><stop offset=".25" stop-color="#ddd197"/><stop offset=".26" stop-color="#ddd196"/><stop offset=".26" stop-color="#ddd196"/><stop offset=".27" stop-color="#ddd195"/><stop offset=".27" stop-color="#dcd094"/><stop offset=".27" stop-color="#dcd093"/><stop offset=".28" stop-color="#dcd093"/><stop offset=".28" stop-color="#dccf92"/><stop offset=".29" stop-color="#dbcf92"/><stop offset=".29" stop-color="#dbce91"/><stop offset=".29" stop-color="#dbce90"/><stop offset=".3" stop-color="#dbce90"/><stop offset=".3" stop-color="#dacd8f"/><stop offset=".3" stop-color="#dacd8e"/><stop offset=".31" stop-color="#dacd8e"/><stop offset=".31" stop-color="#dacd8d"/><stop offset=".32" stop-color="#d9cc8d"/><stop offset=".32" stop-color="#d9cc8c"/><stop offset=".32" stop-color="#d9cc8b"/><stop offset=".33" stop-color="#d9cc8b"/><stop offset=".33" stop-color="#d8cb8a"/><stop offset=".34" stop-color="#d8cb89"/><stop offset=".34" stop-color="#d8cb89"/><stop offset=".34" stop-color="#d8ca88"/><stop offset=".35" stop-color="#d7ca88"/><stop offset=".35" stop-color="#d7c987"/><stop offset=".36" stop-color="#d7c986"/><stop offset=".36" stop-color="#d7c986"/><stop offset=".36" stop-color="#d6c885"/><stop offset=".37" stop-color="#d6c884"/><stop offset=".37" stop-color="#d6c884"/><stop offset=".38" stop-color="#d5c783"/><stop offset=".38" stop-color="#d5c782"/><stop offset=".38" stop-color="#d5c782"/><stop offset=".39" stop-color="#d5c781"/><stop offset=".39" stop-color="#d4c680"/><stop offset=".39" stop-color="#d4c680"/><stop offset=".4" stop-color="#d4c67f"/><stop offset=".4" stop-color="#d4c67e"/><stop offset=".41" stop-color="#d3c57e"/><stop offset=".41" stop-color="#d3c57d"/><stop offset=".41" stop-color="#d3c57d"/><stop offset=".42" stop-color="#d3c47c"/><stop offset=".42" stop-color="#d2c47c"/><stop offset=".43" stop-color="#d2c37b"/><stop offset=".43" stop-color="#d2c37b"/><stop offset=".43" stop-color="#d1c37a"/><stop offset=".44" stop-color="#d1c279"/><stop offset=".44" stop-color="#d0c279"/><stop offset=".45" stop-color="#d0c278"/><stop offset=".45" stop-color="#d0c277"/><stop offset=".45" stop-color="#cfc177"/><stop offset=".46" stop-color="#cfc176"/><stop offset=".46" stop-color="#cfc176"/><stop offset=".46" stop-color="#cfc175"/><stop offset=".47" stop-color="#cec074"/><stop offset=".47" stop-color="#cec073"/><stop offset=".48" stop-color="#cec073"/><stop offset=".48" stop-color="#cec072"/><stop offset=".48" stop-color="#cdbf72"/><stop offset=".49" stop-color="#cdbf71"/><stop offset=".49" stop-color="#cdbf71"/><stop offset=".5" stop-color="#cdbe70"/><stop offset=".5" stop-color="#ccbe6f"/><stop offset=".5" stop-color="#ccbd6e"/><stop offset=".51" stop-color="#ccbd6e"/><stop offset=".51" stop-color="#ccbd6d"/><stop offset=".52" stop-color="#cbbc6d"/><stop offset=".52" stop-color="#cbbc6c"/><stop offset=".52" stop-color="#cbbc6c"/><stop offset=".53" stop-color="#cbbc6b"/><stop offset=".53" stop-color="#cabb6a"/><stop offset=".54" stop-color="#cabb69"/><stop offset=".54" stop-color="#cabb69"/><stop offset=".54" stop-color="#cabb68"/><stop offset=".55" stop-color="#c9ba68"/><stop offset=".55" stop-color="#c9ba67"/><stop offset=".55" stop-color="#c9ba66"/><stop offset=".56" stop-color="#c9ba66"/><stop offset=".56" stop-color="#c8b965"/><stop offset=".57" stop-color="#c8b964"/><stop offset=".57" stop-color="#c8b964"/><stop offset=".57" stop-color="#c8b963"/><stop offset=".58" stop-color="#c7b863"/><stop offset=".58" stop-color="#c7b862"/><stop offset=".59" stop-color="#c7b861"/><stop offset=".59" stop-color="#c7b861"/><stop offset=".59" stop-color="#c6b760"/><stop offset=".6" stop-color="#c6b75f"/><stop offset=".6" stop-color="#c6b75e"/><stop offset=".61" stop-color="#c6b65e"/><stop offset=".61" stop-color="#c5b65d"/><stop offset=".61" stop-color="#c5b55c"/><stop offset=".62" stop-color="#c5b55c"/><stop offset=".62" stop-color="#c5b55b"/><stop offset=".62" stop-color="#c4b45b"/><stop offset=".63" stop-color="#c4b45a"/><stop offset=".63" stop-color="#c4b459"/><stop offset=".64" stop-color="#c3b358"/><stop offset=".64" stop-color="#c3b358"/><stop offset=".64" stop-color="#c3b357"/><stop offset=".65" stop-color="#c3b356"/><stop offset=".65" stop-color="#c2b255"/><stop offset=".66" stop-color="#c2b255"/><stop offset=".66" stop-color="#c2b254"/><stop offset=".66" stop-color="#c2b253"/><stop offset=".67" stop-color="#c1b152"/><stop offset=".67" stop-color="#c1b152"/><stop offset=".68" stop-color="#c1b151"/><stop offset=".68" stop-color="#c1b150"/><stop offset=".68" stop-color="#c0b050"/><stop offset=".69" stop-color="#c0b04f"/><stop offset=".69" stop-color="#c0b04f"/><stop offset=".7" stop-color="#c0b04e"/><stop offset=".7" stop-color="#bfaf4d"/><stop offset=".7" stop-color="#bfaf4d"/><stop offset=".71" stop-color="#bfaf4c"/><stop offset=".71" stop-color="#bfaf4b"/><stop offset=".71" stop-color="#beae4a"/><stop offset=".72" stop-color="#beae49"/><stop offset=".72" stop-color="#beae49"/><stop offset=".73" stop-color="#beae48"/><stop offset=".73" stop-color="#bdad47"/><stop offset=".73" stop-color="#bdad46"/><stop offset=".74" stop-color="#bdad46"/><stop offset=".74" stop-color="#bdac45"/><stop offset=".75" stop-color="#bcac45"/><stop offset=".75" stop-color="#bcab44"/><stop offset=".75" stop-color="#bcab44"/><stop offset=".76" stop-color="#bcab43"/><stop offset=".76" stop-color="#bbaa42"/><stop offset=".77" stop-color="#bbaa41"/><stop offset=".77" stop-color="#bbaa41"/><stop offset=".77" stop-color="#bbaa40"/><stop offset=".78" stop-color="#baa93f"/><stop offset=".78" stop-color="#baa93e"/><stop offset=".79" stop-color="#baa93e"/><stop offset=".79" stop-color="#baa93d"/><stop offset=".79" stop-color="#b9a83d"/><stop offset=".8" stop-color="#b9a83c"/><stop offset=".8" stop-color="#b9a83b"/><stop offset=".8" stop-color="#b9a83b"/><stop offset=".81" stop-color="#b8a73a"/><stop offset=".81" stop-color="#b8a739"/><stop offset=".82" stop-color="#b8a738"/><stop offset=".82" stop-color="#b8a738"/><stop offset=".82" stop-color="#b7a637"/><stop offset=".83" stop-color="#b7a636"/><stop offset=".83" stop-color="#b7a636"/><stop offset=".84" stop-color="#b7a635"/><stop offset=".84" stop-color="#b6a535"/><stop offset=".84" stop-color="#b6a534"/><stop offset=".85" stop-color="#b6a533"/><stop offset=".85" stop-color="#b6a533"/><stop offset=".86" stop-color="#b5a432"/><stop offset=".86" stop-color="#b5a431"/><stop offset=".86" stop-color="#b5a431"/><stop offset=".87" stop-color="#b5a430"/><stop offset=".87" stop-color="#b4a330"/><stop offset=".88" stop-color="#b4a32f"/><stop offset=".88" stop-color="#b4a32e"/><stop offset=".88" stop-color="#b3a22d"/><stop offset=".89" stop-color="#b3a22d"/><stop offset=".89" stop-color="#b3a22c"/><stop offset=".89" stop-color="#b3a22b"/><stop offset=".9" stop-color="#b2a12a"/><stop offset=".9" stop-color="#b2a12a"/><stop offset=".91" stop-color="#b2a129"/><stop offset=".91" stop-color="#b2a128"/><stop offset=".91" stop-color="#b1a028"/><stop offset=".92" stop-color="#b1a027"/><stop offset=".92" stop-color="#b1a027"/><stop offset=".93" stop-color="#b1a026"/><stop offset=".93" stop-color="#b09f25"/><stop offset=".93" stop-color="#b09f25"/><stop offset=".94" stop-color="#b09f24"/><stop offset=".94" stop-color="#b09f23"/><stop offset=".95" stop-color="#af9e23"/><stop offset=".95" stop-color="#af9e22"/><stop offset=".95" stop-color="#af9e22"/><stop offset=".96" stop-color="#ae9d21"/><stop offset="1" stop-color="#ae9d21"/></radialGradient></defs><g id="surface1633"><path id="path13600" d="M152.28,338.15v-41.47h41.04v41.53c0,1.74-1.03,3.34-2.64,4.1l-17.87,8.48-17.88-8.54c-1.62-.77-2.64-2.36-2.64-4.1" style="fill:#fff;"/><g style="clip-path:url(#clippath);"><g id="g13606"><g style="clip-path:url(#clippath-1);"><g id="g13604"><path id="path13602" d="M165.23,308.03v12.9h-12.94v13.31h12.94v16.54h15.16v-16.54h12.94v-13.31h-12.94v-12.9h-15.16Z" style="fill:#d94726;"/></g></g></g></g><path id="path13608" d="M186.29,346.26l-13.48,6.39-13.49-6.39c-1.32-.62-2.86-.62-4.18,0l-2.71,1.29c-.09.04-.14.13-.14.23v7.49c0,.75.82,1.25,1.52.91l1.34-.64c1.32-.63,2.86-.63,4.18,0l12.33,5.85c.73.34,1.59.34,2.32,0l12.33-5.85c1.32-.62,2.86-.62,4.18,0l1.34.64c.7.33,1.52-.16,1.52-.91v-7.49c0-.09-.06-.18-.14-.23l-2.71-1.29c-1.32-.63-2.86-.63-4.18,0" style="fill:#e1f3fd;"/><path id="path13610" d="M188.37,345.79c-.71,0-1.43.16-2.08.47l-13.48,6.39-13.49-6.39c-.66-.31-1.37-.47-2.08-.47s-1.43.16-2.09.47l-2.71,1.29c-.09.04-.14.13-.14.23v7.49c0,.59.5,1.02,1.05,1.02.15,0,.31-.04.46-.11l1.34-.64c.66-.32,1.38-.47,2.09-.47s1.43.16,2.08.47l12.33,5.85c.37.17.76.26,1.16.26s.79-.09,1.16-.26l12.33-5.85c.66-.31,1.37-.47,2.08-.47s1.43.16,2.09.47l1.34.64c.15.07.31.11.46.11.55,0,1.05-.43,1.05-1.02v-7.49c0-.09-.05-.18-.14-.23l-2.71-1.29c-.66-.31-1.38-.47-2.09-.47M188.37,346.17c.66,0,1.33.15,1.92.43l2.64,1.26v7.41c0,.39-.34.64-.66.64-.1,0-.2-.02-.29-.07l-1.34-.64c-.7-.33-1.49-.51-2.27-.51s-1.56.18-2.25.51l-12.33,5.85c-.3.14-.65.22-.98.22s-.68-.07-.99-.22l-12.33-5.85c-.7-.33-1.48-.51-2.25-.51s-1.57.18-2.27.51l-1.34.64c-.09.04-.19.07-.29.07-.32,0-.66-.25-.66-.64v-7.41l2.64-1.26c.59-.29,1.26-.43,1.92-.43s1.32.15,1.91.43l13.48,6.39.18.08.17-.08,13.48-6.39c.59-.28,1.25-.43,1.91-.43"/><path id="path13612" d="M188.37,346.81c-.56,0-1.12.12-1.62.36l-13.95,6.62-13.95-6.62c-.5-.24-1.06-.36-1.62-.36s-1.12.13-1.63.37l-2.27,1.09v7.01l1.34-.64c.79-.38,1.68-.58,2.56-.58s1.76.2,2.55.57l12.33,5.85c.21.1.45.16.7.16s.48-.05.69-.16l12.33-5.85c.79-.37,1.67-.57,2.55-.57s1.77.2,2.56.58l1.34.64v-7.01l-2.27-1.09c-.5-.24-1.07-.37-1.63-.37M188.37,346.99c.54,0,1.07.12,1.55.35l2.17,1.04v6.62l-1.07-.51c-.82-.39-1.73-.6-2.64-.6s-1.81.2-2.63.59l-12.33,5.85c-.19.09-.4.14-.61.14s-.43-.05-.61-.14l-12.33-5.85c-.81-.39-1.72-.59-2.63-.59s-1.82.21-2.64.6l-1.07.51v-6.62l2.17-1.04c.48-.23,1.01-.35,1.55-.35s1.06.12,1.54.34l13.95,6.62.08.04.08-.04,13.95-6.62c.48-.22,1.01-.34,1.54-.34"/><path id="path13614" d="M193.32,308.03h-41.04v-11.36h41.04v11.36Z"/><g style="clip-path:url(#clippath-2);"><g id="g13620"><g style="clip-path:url(#clippath-3);"><g id="g13618"><path id="path13616" d="M159.25,317.94v17.99h27.34v-17.99h-27.34Z" style="fill:url(#radial-gradient);"/></g></g></g></g><g style="clip-path:url(#clippath-4);"><g id="g13626"><g style="clip-path:url(#clippath-5);"><g id="g13624"><path id="path13622" d="M173.71,334.49v.02h.03v-.02h-.03Z" style="fill:url(#radial-gradient-2);"/></g></g></g></g><path id="path13628" d="M185.75,332.31c-.15.08-.34.15-.61.16-.32.01-.67-.11-.82-.02.09.34.99.26,1.53.26-.45.43-.99.43-1.62.35,0,0,.01.09.17.16.34.13.79.21,1.09.28-.27.09-.54.27-1.45.09.09.27.82.52,1.18.62-.27.17-.6.25-.81.25-.44,0-1.74-.57-2.14.28-.03.07-.02.13,0,.17l.08.16c.04.09-.02.24-.04.27-.13.29-.61.27-.86.1-.04-.03-.1-.07-.15-.19-.05-.13-.08-.26.01-.39l.14-.02c.59.07.32-.62-.19-.45-.16.07-.25.22-.45.26-.03,0-.11,0-.16-.06-.18-.23-.17-.76.06-.81.07-.02.12.04.13.05.19.24.69-.02.55-.32l-.09-.15c-.16-.16-.56-.06-.41-.45.09-.18.28-.54.54-.54.23,0,.26.26.37.44.05.09.27.44.54.44.73,0,1.27-1.04,1-1.75-.36-.96-1.54-.61-2.45-.77-2.32-.35-2.96-1.71-4.37-3.43l-.13-.1c-.13-.06-.22-.04-.38.04-1.08.52-1.89.96-3.06,1.48-.19.09-.36.17-.64.27.19-.27.54-.72.73-.97-.73.34-1.27.87-2.26,1.31-.09,0-.19,0-.19-.09.1-.25.28-.35.45-.88-.09-.08-.13,0-.27.09-.99.7-1.54,1.31-2.44,1.14,0,.17.36.52.9.7-.26.25-1.17.17-1.62-.1-.09.44.71.7.9.79-.45.35-1.36,0-1.81-.17-.09,0,0,.09,0,.09.27.52,1.36.61,1.81.61-.73.35-1.45.54-2.26.1-.19.25.71.77.9.87,0,.17-.99.09-1.63-.43-.09.25.73.77.81.87-.36.34-1.1.03-1.36-.07-.07-.03-.12-.05-.15-.06l-.03.04c.09.35.54.54.91.7-.73.35-1.27-.09-1.54-.35-.18,0-.82.62-.82.7-.09.17,0,.35-.09.61-.08.16-.22.51-.32.54l-.09-.04c-.09-.1.03-.51-.13-.58-.81-.35-.73.44-1.08.7-.36.17-.9-.44-.9-.62,0-.07.07-.29.26-.16l.1.07h.11c.16-.04.16-.18.16-.25,0-.26-.09-.44-.45-.34-.08.04-.08.16-.23.19l-.14-.02c-.26-.27-.26-.88-.09-.96.27-.09.36.25.62.17.19-.09.19-.61,0-.69-.16-.09-.41.21-.59.05l-.02-.13c.11-.33.35-.7.52-.7.24,0,.27.45.57.69.05.04.32.2.4.23.58.27,1.26.18,1.65.03,1.63-.7.9-1.83,1.44-2.1,1.18-.52.64-1.04,1.09-1.31.09.09.09.52.36.62.1-.53.18-.87.73-.7.17.27.36.52.62.7.1,0,.1-.62.1-.87.45.34,1.16.34,1.08.17-.09-.09-.45-.52-.45-.7.45.27,1.18.1,1.08-.09-.09-.08-.17-.17-.17-.25.08-.18.45-.18.62-.18,0-.35-.35-.79,0-1.23.28.18.36.35.73.35,0-.25-.09-.61.09-.87.81,0,1.44,0,1.99-.09,1.17-.27,2.07-.7,3.34-.96.36-.09.63-.18.99-.27.5,0,1.05.43,1.3.83.07.11.3.54.38.64.32.41.69.79,1.11,1.07.37.27.73.61.91,1.04.18.29.25.66.39,1,.08.18.27.47.48.58.93.47,1.77-.68,2.19-.27l.07.11.06.11c.08.05.14.05.14.05.63,0,1.08-.09,1.62-.36.1,0-.71.96-1.62,1.06.18.17,1.44-.1,1.72-.27-.19.52-.9.88-1.63.79h-.05s.02.06.18.12c.34.07.99.14,1.23.14,0,.18-1.35.18-1.35.44,1.08-.17,1.18.18,1.63,0,.11.11-.07.27-.29.39M183.88,334.69c0,.13.04.41-.28.56,0-.43,0-.52-.37-.79-.08-.07.36-.01.59.14l.06.09ZM180.27,335.68c.26,0,.54,0,.71-.17.1.08.19.17.28.25-.18.18-.91.18-.99-.09M179.62,332.89c.1-.18.73-.62,1.09-.35-.09.09-.19.44-.19.44-.35-.18-.54-.18-.9-.09M178.18,331.67c.19.08.41.36.45.43.06.11.09.33-.09.44-.36.17-1.08.87-.36,1.66-.99-.18-.71-.87-.45-1.49.05-.11-.03-.13-.09-.09-.62.61-.45,1.22-.72,1.75-.35-.44-.18-1.14.1-1.48,0,0-.03-.04-.1,0-.45.25-.72,1.04-.91,1.48-.32-.33-.05-1.17,0-1.23,0,0,0-.05-.08,0-.45.35-.62.88-.82,1.39-.35-.25-.26-.69-.26-1.04-.27.17-.02.99-.66,1.21h-.11c-.11-.09-.02-.16.05-.25.14-.19.18-.39.07-.55l-.25-.23c-.33-.28-.66-.35-.98-.35-.34.05-.82.34-1.09.78-.08.11-.26.15-.45.09-.36-.09-.71-.7-.36-.97.19-.09.27.18.55.1.16-.09.17-.56-.12-.62-.09-.02-.16-.02-.26.02-.16.06-.25.23-.37.13l-.07-.12c-.05-.27.03-.82.38-.83.08,0,.12.07.14.09.07.12.14.18.22.18.38,0,.38-.26.31-.49-.01-.04-.04-.14-.14-.14-.19-.02-.45.08-.53-.07-.19-.25.17-.69.45-.69.35,0,.27.44.63.52.18.09.49.11.73.27.09.05.14.08.18.17.18.79,1.36.7,1.98.61,1.27-.17,2-1.04,1.09-1.64-.54-.36-1.35-.1-1.99-.18-.99-.17-1.17-.61-.9-1.31.08-.18.52-.29.64-.35.12-.07.62-.44.62-.26-.16.23-.25.62-.4.95l-.04.14c.05.07.12.09.18.04.54-.52.54-.69,1.25-1.13.27.61,1,.61,1.18,0,.46.44,1.03,1.02.99,1.13-.09.35-.26.88-.26,1.31.04.34.45.48.71.62M172.95,334.46c.26-.25.35-.43.45-.69.07-.11.24.02.36.09.27.17-.54.69-.8.61M170.14,331.15c.19-.27.64-.43.82-.18-.06.09-.09.24-.16.33l-.11.02c-.19-.09-.36-.17-.55-.17M160.61,334.73c.14.04.25.28.27.38l-.05.08c-.14.14-.71.13-.88.05.25-.08.43-.25.61-.49l.05-.02ZM160.26,332.05c-.09-.02-.32-.1-.59-.02.18-.34.52-.35.79-.35l.02.02c-.01.07-.07.14-.14.27l-.08.09ZM163.66,328.61l-.04-.11s-.07-.04-.15.03c-.82.52-1.36.34-1.46.34.91-.52.73-.61,1.18-1.31-.18-.25-.73.35-1.08.27.16-.08.25-.23.41-.52l.09-.2c.19-.43.5-.5.5-.5-.19-.17-1.18.52-1.18.52.27-.86.71-1.04.81-1.45v-.08s-.02-.03-.02-.03l-.11.04c-.62.65-1.06.74-1.5.74.1-.43,1.5-.7,1.62-1.45l-.02-.05c-.1,0-.28.29-.6.37-.27.08-.64.08-.73.08.36-.44.54-.52.9-.87-.36,0-.82.18-1.18.18l-.02-.06.06-.06c.54-.41,1.14-.32,1.14-.85,0-.15-.07-.3-.21-.39l-.14-.04c-.29,0-.82-.03-.73-.34.54.17.99-.09.8-.62-.16-.32-.47-.27-.79-.2-.11.04-.15,0-.17-.02-.23-.18-.06-.57.11-.64l.12-.05c.21-.07.38.22.53,0l.04-.13c.03-.51-.55-.29-.55-.53.09-.35.54-.54.82-.54.25,0-.13.46.34.53.07.01.2-.05.29-.14.31-.32-.18-.38-.17-.47,0-.32.67-.27.86-.13.1.05.21.23.08.35-.15.14-.29.29-.37.54-.05.15-.28,2.09.02,2.91.05.11.08.14.1.16.18.17.41.12.57.28.27.25,1,1.48.9,1.56-.18.27-.45.44-.63.62,0,.17.28.17.45.26.09,0-.54.62-.9.79v.09c.28.27.62.09.9.27-.18.44-.28.44-.54.87.09.17.99-.08,1.17,0,.1.67-1.34.79-1.52,0M160.57,319.88c.28-.08.73.09.82.17.02,0-.05.07-.1.15-.07.11-.15.25-.18.2-.26-.52-.71-.44-.54-.52M162.34,319.47c-.08-.13-.16-.21-.33-.29.36-.08.73,0,.91.35-.14,0-.28.11-.42.07-.08-.02-.12-.08-.16-.13M166.8,322.85c.28.17.37.44.46.61v.35c0,.08-.18.08-.28.08-1.08.44-.71,1.58-2.07,2.27h-.09c.91-.79.8-2.44,1.98-3.31M166.72,322.67c-.81.52-.81,1.31-1.72,1.14l-.02-.06c1-.84.94-1.34,1.55-1.61,0,.17.1.36.18.52M166.72,321.19c-.09.25-.09.35-.27.69-.71.18-.54.97-1.45,1.14-.09.02-.15,0-.18,0,.18-1.04,1.17-1.66,1.89-1.83M165.36,321.25c.28-.32.84-.53,1.09-.64l.13-.04c.14.01.15.1.23.18l.03.16c-.02.1-.06.12-.08.12-.27.14-.71.08-1.3.24-.09.03-.12,0-.09-.03M165.54,320.32c.28-.18.54-.27.9-.35v.35c-.27,0-.62.09-.99.17-.12.03,0-.13.09-.17M166.72,319.37c-.09.09-.18.25-.27.34-.27,0-.54-.09-.82-.25.73-.52,1.18-.18,1.09-.09M167.62,319.27c-.09.1-.19-.17-.64,0-.09,0-.18,0-.35-.17-.14-.16-.19-.09-.36-.36.54,0,.99,0,1.36.52M168.53,319.53h-.54c-.19-.35-.45-.7-.55-1.14.73.18,1.09.79,1.09,1.14M169.43,319.1c-.09.27-.19.43-.28.7,0,.06-.09-.1-.36-.18-.26-.52-.35-.88-.45-1.48.55.35.81.61,1.09.96M170.7,318.58l.22-.02.23.02c0,.09-.04.12-.1.17-.45.36-.9.79-1.16,1.23h-.45c.09-.52.36-1.31,1.27-1.39M171.01,319.23c.14-.05.67-.19.77-.2.3,0,.62.12.89.06.08-.02.09,0,.09,0-.18.27-.45.17-.9.27-.71.09-.9.25-1.36.77-.18,0-.18-.08-.26-.08.19-.51.39-.7.77-.82M172.85,319.45c-.08.23-.24.56-.49.6l-.14.02c-.41.06-.75,0-1.17.34-.09,0-.09-.09-.18,0-.09.08-.32-.13-.28-.17.91-.87,1.36-.7,2.17-.87,0,0,0,.09.09.09M172.85,320.58l-.09.1c-.36.17-.63-.1-.99.09-.09.07-.09-.09-.18-.18-.1,0-.3-.09-.28-.09.54-.25.99-.35,1.53.09M171.86,322.94c-.18-.43-.45-.79-.82-1.05.55-.08.55-.17.55-.17.27,0,.63.17.8.52.27.96.1,1.49.45,2.89-.54-.09-.71-1.58-.99-2.18M170.78,322.42c-.09,0,.09-.35.09-.35.09-.09.18,0,.28.08.9.79.45,2.27,1.36,3.06.09.17-.55,0-.73-.27-.54-.77-.27-1.39-.99-2.52M170.25,323.11q.09,0,.18-.09c.09-.09.17-.35.17-.27.37.35.64,1.05.64,1.75.18.79.54,1.05.45,1.05-.28-.08-.54-.27-.73-.43-.18-.35-.18-.96-.71-2.01M169.6,323.54c-.08,0,.37-.17.45-.25.28.44.45,1.04.45,1.56.19.52,0,1.14-.09,1.58-.63-.52-.37-1.39-.54-2.1-.09-.27-.19-.52-.28-.79M167.26,321.01c0-.09-.09-.34.17-.44.1,0,.19-.09.28-.17.09,0,.18.17.28.27-.1.25-.36.44-.28.69,0,0,.09.08.18.08.19-.08.36-.17.45-.43h.1s.09,0,.09.1c0,.08-.09.25-.09.34-.1.18-.36.27-.45.36-.1.08-.28.08-.28.18.09.17.18.25.28.34.09.1.18,0,.26,0,0,.1-.09.18-.09.35-.09,0-.28-.09-.36-.09-.09-.08-.18-.17-.18-.27,0-.09,0-.25-.09-.34h-.27q-.09.09-.09.17c0,.09,0,.17.09.17.17,0,.17.18.27.27.09.17.35.17.18.35-.09,0-.09.09-.18.17-.1,0-.1-.09-.1-.17-.17-.27-.35-.52-.54-.87.09-.35.28-.7.37-1.05M168.89,320.93c-.28-.09-1.09-.87-1.18-.87,0,0-.07.29-.42.34-.04,0-.13.02-.2-.04-.2-.14-.25-.55-.04-.8.03-.05.21-.08.28-.08.14,0,.27.09.38.32.36,0,.82.08,1.08.25.19,0,.28.18.28.35-.09.17-.09.43-.18.52M170.51,321.01c-.26-.09-1.08.27-1.44,0,.09-.25.36-.69.73-.69.26-.09.71.25.8.52,0,0,.1,0,.19-.08.18,0,.37,0,.54.17.09.09.09.18,0,.35-.09.09-.45.44-.62.09-.1-.09,0-.25-.19-.35M168.89,322.07c.09.17.18.25,0,.35,0,0-.1.09-.1,0l-.26-.27c-.19-.17-.36,0-.54,0v-.17c.45-.1.62-.44.8-.79h.1c.09.09-.28.52,0,.88M167.99,323.98c.18-.25.35-1.13.45-.96.35.7-.45,1.57-.64,1.48-.18,0-.37-1.04.19-1.57,0-.09.09,0,.09,0-.09.35-.19.69-.19,1.04h.1ZM169.43,322.59q-.09,0-.19.09c0,.27-.71.09-.8,0v-.35c.09-.09.18.27.35.27.19.09.19,0,.36-.17.09,0,0-.1,0-.1-.17-.25-.26-.69-.09-1.04h.18c.19.17,0,.52.19.61.09.1.17.18.26.18.28-.09.1-.35.19-.62.09-.08.26-.25.54-.25,0,.09,0,.17.09.25,0,.1.27.18.09.27-.17.27-.26.61-.35.96-.19.27-.9.52-1.46.87-.09-.08,0-.25-.09-.52.19,0,.37,0,.54-.09.1,0,.36.09.45-.09,0-.18-.09-.35-.26-.27M164.27,327.39c1-.7,1.27-1.39,2-2.18,0,.35,0,.96-.36,1.48-.36.54-1.27.62-1.63.7M166.89,328.43c-.18.18-.26.18-.45.54,0,0-.27-.7-.09-1.05.09-.09.28-.26.36-.44.09.27.09.7.18.96M166.72,327.04c-.09.44-1.09,1.49-2.17,1.31,2.62-1.56,1.53-2.87,2.17-3.84.18-.09.27-.34.54-.34,0,.34.27.52.17.69-.26.52-.63,1.58-.71,2.18M167.62,329.22c-.54-.52-.64-1.75-.64-2.44.1-.44.28-1.41.55-1.84,0,0,0,.1.09.1.26,0,.26-.1.54-.27,0,1.66-.99,1.39-.54,4.45M168.53,328.87c-.64-.09-.82-.96-.64-2,.1-.79.55-1.31.45-2.27.1,0,.27-.27.27-.43.63,1.31-.62,2.96.45,4.01-.63.17-.82-.62-.82-.44-.09.35.09.79.28,1.13M169.69,327.47c-.45-.35-.54-.52-.71-.96-.09-.79.26-1.57-.09-2.35,0-.1-.19-.27,0-.27.18-.08.35-.17.45-.27.35.35.35,1.49.35,1.84-.09.77-.26,1.13,0,2M173.04,322.51q0,.08-.09.08c-.1,0-.28-.08-.36-.44-.09-.35-.45-.61-.82-.7.09-.17,0-.34,0-.52.28-.09.54-.09.73.09.26.18.09.62.45,1.31,0,.1.09.1.09.18M173.13,323.19l.09-.08c.45.96,1.54,1.05,2.54.87,1.8-.25,4.24-1.22,5.78-1.22.54,0,1.8.27,1.8,1.05,0,.52-.18.79-.55,1.12-.54.35-1.89.44-2.43.44-.39,0-1.49,0-1.94-.36-.06-.05-.3-.24-.37-.27-.26-.11-.5-.16-.85-.16-1.27,0-2.71.69-3.79.69-.19,0-.36-1.56-.27-2.1M177.47,322.32c0,.1-1.36.53-1.91.53-.99,0-1.17-.43-1.17-.87-.09-.54.91-1.31,1.53-.97.54.35.9.97,1.54,1.31M173.94,320.76c.54-.52,1.53-.79,1.53-1.31.09-.67-.64-.76-.71-.79.27-.17.91.08,1.08.44.09.08.09-.61-.09-.96,0,0,.07,0,.19.07.71.51.7,1.18.44,1.68-.03.07.11.19.19.09.34-.68,1.21-.61,1.84-.85l.08-.02.06.08c-.16.08-.26.24-.34.33v.06s.09.05.17.05c1.17,0,1.8-.52,1.89-.44,0,.09-.19.52-1.89.96-.36.54.26.97.18,1.05-.45.09-.73-.18-.73-.62,0-.07,0-.08-.06-.09l-.07.05c-.45.62.42,1.45,1.03,1.61v.09s-.14.03-.26,0c-1.84-.34-1.47-1.74-3.01-1.67-.04,0-.16,0-.25.04-.45.14-1.1.64-1.26,1.2-.09.52.26,1.14.71,1.31,1.27.35,2.26-.26,3.35-.69.54.17,1.08.09,1.35-.18,0,0-.36-.09-.45-.25h.15c.58-.11.84-.29.75-.97.45,0,.9.53.99.7.28,0-.18-.79-.28-.96.55.17,1,.25,1.27.87.27,0-.18-1.14-.09-1.05.9.44.82,1.23.9,1.14.28-.35.09-.7.18-.96.54.25.98.59.75,1.09v.09s.07.05.07.05c.19,0,.45-.54.45-.62.28.35.45.79.28,1.14-.04.06-.07.08-.08.13l.02.06c.08.05.17,0,.24-.02.45-.25.36-.79.64-.96.25.91.1,1.43-.78,1.71-.16.05-.22.12-.22.12.1.44,0,.88-.18,1.23-.28.7-.81.96-1.44,1.22-.9.35-2.71.25-3.44-.27-.12-.1-.17-.17-.27-.25,1.17.34,4.24.52,4.78-1.14.45-1.14-.62-1.91-1.53-2.01-1.89-.17-3.52.62-5.78,1.31-1.08.27-2.98.18-2.98-1.31-.09-.61.1-1.13.64-1.56M179.62,334.81c0-.17.28-.7.55-.7,0,.18.09.35.18.53.09.09-.54.09-.73.17M170.59,334.11c-.45,0-.54.09-.8.18,0-.17.48-.57.76-.53l.04.05c0,.13,0,.14.1.3h-.1ZM170.42,332.63c0,.08-.05.06-.12.03l-.13-.05c-.24-.07-.4-.06-.57.02.09-.27.54-.44.82-.35.09.02-.09,0,0,.35M160.12,333.63l-.07.02c-.21-.06-.32-.05-.65.12.09-.35.63-.53.71-.43v.3ZM160.67,321.67l-.04.05c-.25.03-.51-.61-.42-.71.1,0,.1.27.55.35,0,.07-.07.21-.09.3M186.95,331.58c-.19,0-.55.09-.73-.1.18-.34.45-.25.45-.44-.09-.08-.27-.08-.36-.17-.09-.17.28-.52.19-.87-.1-.09-.18-.03-.28,0-.28.08.36-.52.09-.7-.62.18-1.08.62-1.8.53-.08-.09-.17-.57-.79-.61-.04,0-.11,0-.21.07-.39.27-1.1.61-1.43.36-.24-.16-.36-.55-.43-.88-.04-.18-.15-.71-.22-.82-.34-.54-1.3-.74-1.61-1.6,1.61.34,4.75.34,4.69-2.58l.06-.11c.26-.16,1.18-.55.96-1.58,0-.03-.03-.14-.02-.21,0-.21.02-.42.15-.62.05-.08.12-.14.12-.14-.45-.35-1.16,1.7-1.7-.46,0-.05-.09-.19-.19-.16,0,.18-.21.48-.36.44-.45-.17-.82-1.22-1.18-1.12.09.41.18.74-.05.77h-.08c-.34-.11-.6-.43-.95-.52-.09.18.09.35-.09.52-.64.1-.99-.17-1.36-.25,0,.08.07.15.09.3l-.02.07c-.16.12-.39,0-.49-.02l-.04.03c0,.15.37.31.24.72-.04.12-.08.18-.1.2-.2.22-.88.39-1.12-.08-.1-.18.54-.18.63-.27-.09-.17-.37-.27-.18-.7.09-.44,1.89-.77,1.81-1.75-.36-.09-1.54.7-1.45-.34-.09,0-.12.02-.14.04-.45.33-1.05.65-1.67.57-.54-.17-.99-1.14-1.98-1.31v.61c-.63,0-1.18,0-1.27.35.54,0,.9,0,1.09.52.18.54-1.09.79-1.81,1.57-.23-.16-.55-.61-.64-.61.21-.23.33-.47.34-.71.01-.23-.07-.45-.15-.6-.06-.12-.1-.18-.19-.27-.45.27-1.45.17-.99-.27-.09,0-.18-.09-.45,0-.54,0-1.18,0-1.63.35-.35-.44-.9-.79-1.44-.87-.09-.09-.18-.17-.26-.17-.1.43-.36.52-.82.43,0,.17.09.35.09.44,0,0-.46-.18-.99,0-.28,0-.54-.09-.64-.09,0,.09.28.25.28.34-.09.44-.63.54-.82.7.19.17.27.17.36.35.07.1-.54.61-.63.69.18.1.59.16.54.27-.18.35-.64.61-.64,1.04.1,0,.19-.08.36,0-.25.33-.43.73-.59,1.21-.04.09.02.15.06.17l.08.02c0,.25-.09.44-.18.61-.19.17-.9-1.04-.9-1.91,0-1.84.37-1.49.37-1.84,0-.43-.45-.34-.64-.61-.36-.61-1.36-.79-1.81-.35.28.09.45.09.64.44.09.18-.1.18-.1.35-.17,0-.26.09-.35,0-.36-.27-1.18-.61-1.71,0,.43.08.86.33.97.8v.11c-.2.44-.8-.31-.8-.31-.25.34-.26,1.14.28,1.38l.13.02c.18-.03.09.2.23.31l.17.07c.14.03.32-.01.46-.03.07,0,.12.01.17.05.08.06.07.13-.02.23l-.12.09c-.16.05-.33-.02-.49-.02,0,0-.04.33.12.5.17.18.41.29.7.29.18,0,.18.27.09.35-.54.35-.99.44-1.27,1.04.28-.08.54-.08.54.09,0,.27-.18.35-.35.54,0,0-.1,0-.1.08.19.09.45-.08.55.09.18.17-.64.61-.55.96.36-.09.81-.17.9.27,0,.25-.18.52-.45.69.36,0,.73-.17.82,0,.09.09-.54.44-.54.79.27-.08.45-.17.73-.08.18.35-.64.61-.73.61.27.44,1.44.35,1.98.1.19.77,1.18.77,1.18.87-.28.25-.54.78-.45,1.04.09.79-.36,1.48-1.27,1.48-.54,0-1.08-.08-1.27-.61-.18-.52-.54-.52-.9-.27-.54-.25-1.26.18-1.44.7.36-.09,1.44.27.81.87-.45,0-.9.27-.99,1.05,1.98-.52,1.71.7.36,1.05.8.69,1.17.44,1.89.17.13-.06.18-.03.27,0,.55.23.56-.47.73-.59.08-.07.18-.04.24-.01l.06.07c.11.38-.2.54-.02.62.59.09,1.02-.67,1.07-1.27l.08-.2c.1-.11.24-.27.38-.27.36-.09.73.62,2.17.18,0-.09-.19-.27-.09-.35.27-.09.54-.17.8-.27.28-.25.73-.17,1-.44-.1,0-.28-.08-.28-.17.09-.09.63-.09.54-.27,0,0-.09,0-.18-.08-.19-.09,1.27-.69,1.27-.87-.1,0-.55-.52-.36-.61.26-.08.62-.18.81-.44.26-.08,2.07-.62,2.8-.87,0,.61.07.92.32,1.14.18.16.39.26.75.34.54.08,1.09-.09,1.72,0,.54,0,.54.79-.09.96-.37.1-.73.1-1.09.1-.65-.07-.76-.25-.99-.54-.09-.08-.09-.09-.29-.2-.25-.13-.45-.13-.67-.29-.22-.15-.31-.56-.66-.56-.22,0-.36.09-.45.17-.55-.34-1.46.27-1.36.87.24-.16.65-.17.86.25.02.03.03.06.01.14-.02.08-.09.2-.16.14-.82-.44-1.44.69-1.16.96.26-.18.62-.27.99,0,.18.08.18.25.18.43-.54.17-.82.35-.99,1.23-.02.15.08.09.08.09.45-.35.91-.35,1.36-.35.27.27.64.35.9.17.38-.27.73-.79.89-.86.07-.03.13-.07.19.02.06.1,0,.3,0,.3-.05.2-.26.33-.45.45,0,.09.17.21.45.21.35,0,.55-.02.82-.18l.09-.02s.04,0,.02.09c-.03.14-.18.35-.11.35.45.09.81,0,1-.35.18.18.27.44.54.54,0-.27.09-.62.36-.79,0,.17.26.87.45.69,0-.06.09-.31.18-.45l.11-.1c.1,0,.27.63.51.55.1-.25.36-.69.45-.78.36.09.9.25,1.27.17-.36-.44-.45-.61-.45-1.04,0-.35.45-.45.65-.7.2-.25.25-.36.25-.61-.09-.35-.54-.54-.82-.79-.35-.35-.09-.91-.07-.96l.07-.09c.45.35.82.62,1.18.87.45.36,1.08.44,1.63.36.62-.09,1.89,0,1.89.7,0,.35-.45.88-.82.79-.27-.18-.27-.7-.62-.79-.19-.08-.45.09-.64.25-.62-.25-1.27-.17-1.71.7,0,.17.18.09.27.09.36-.09.82,0,1.08.27,0,.09-.09,0-.35.44-.45.09-.9.79-.9,1.39.02.08,0,.09.09.09.45-.25.91-.44,1.45-.44.09.09.09.27.09.35-.36.17-.71.27-1.08.27-.09,0-.07.11,0,.17.54.52,1.62.52,1.98.17.81.1,1.18-.52.9-1.04-.04-.07.03-.16.09-.17.45-.1.64.52.55.96.47.16.93-.51.99-.87.54,0,.9-.09,1.53-.62-.14,0-.35-.05-.47-.17-.07-.06-.12-.09-.09-.16.09-.11.59-.32.74-.45,0-.1-.19-.18-.19-.27.09-.17.54-.27.54-.52,0,0-.35,0-.35-.09.09-.1.71-.53.9-.87" style="fill-rule:evenodd;"/><path id="path13630" d="M173.76,333.85c-.11-.07-.29-.2-.36-.08-.1.25-.19.43-.45.69.26.09,1.08-.43.8-.61" style="fill:#00aeee;"/><path id="path13632" d="M162.34,319.47c.03.05.08.11.16.13.14.04.28-.07.42-.07-.18-.35-.54-.43-.91-.35.16.07.25.16.33.29" style="fill:#00aeee;"/><path id="path13634" d="M180.71,332.54c-.36-.27-.99.17-1.09.35.36-.1.55-.1.9.09,0,0,.1-.35.19-.44" style="fill:#00aeee;"/><path id="path13636" d="M161.11,320.41s.1-.09.18-.2c.05-.08.12-.15.1-.15-.09-.09-.54-.25-.81-.17-.18.09.27,0,.54.52" style="fill:#00aeee;"/><path id="path13638" d="M167.99,322.94c-.55.52-.36,1.57-.19,1.57.19.1.99-.78.64-1.48-.1-.17-.27.7-.45.96h-.1c0-.35.1-.69.19-1.04,0,0-.09-.09-.09,0" style="fill:#00aeee;"/><path id="path13640" d="M170.55,333.76c-.27-.04-.76.36-.76.53.26-.09.35-.18.8-.18h.1c-.09-.16-.1-.17-.1-.31l-.04-.04Z" style="fill:#00aeee;"/><path id="path13642" d="M160.46,331.67c-.27,0-.61.01-.79.35.27-.07.5.01.59.02l.08-.09c.07-.12.13-.2.14-.27l-.03-.02Z" style="fill:#00aeee;"/><path id="path13644" d="M160.61,334.73l-.05.02c-.17.24-.36.41-.61.49.16.08.73.09.88-.05l.05-.08c0-.11-.13-.35-.27-.38" style="fill:#00aeee;"/><path id="path13646" d="M170.8,331.3c.07-.09.1-.25.16-.33-.17-.25-.62-.09-.81.18.19,0,.36.09.55.17l.11-.02Z" style="fill:#00aeee;"/><path id="path13648" d="M159.41,333.76c.32-.16.43-.18.65-.12l.07-.02v-.3c-.09-.1-.62.08-.71.43" style="fill:#00aeee;"/><path id="path13650" d="M170.42,332.28c-.28-.09-.73.08-.82.35.18-.08.34-.09.57-.02l.13.05c.07.03.12.05.12-.03-.09-.35.09-.34,0-.35" style="fill:#00aeee;"/><path id="path13652" d="M160.21,321.01c-.09.09.17.74.42.71l.04-.05c.02-.09.09-.24.09-.31-.45-.09-.45-.35-.55-.35" style="fill:#00aeee;"/><path id="path13654" d="M180.27,335.68c.09.27.82.27.99.09-.09-.09-.18-.17-.28-.25-.18.17-.45.17-.71.17" style="fill:#00aeee;"/><path id="path13656" d="M180.18,334.11c-.27,0-.55.53-.55.7.19-.09.82-.09.73-.17-.09-.18-.18-.35-.18-.53" style="fill:#00aeee;"/><path id="path13658" d="M183.82,334.59c-.22-.15-.66-.21-.59-.14.37.27.37.36.37.79.31-.14.29-.43.28-.56l-.06-.09Z" style="fill:#00aeee;"/><path id="path13660" d="M179.02,299.56c-1.62.09-2.38-.96-3.78-.98-.57-.01-1.41.15-2.44.97-1.04-.82-1.87-.98-2.44-.97-1.4.02-2.16,1.07-3.78.98-.22-.01-.43-.05-.61-.09v5.48c.18.04.38.07.61.09,1.62.09,2.38-.96,3.78-.98.57,0,1.4.15,2.43.96v.02h.02s.01,0,.01,0v-.02c1.03-.82,1.86-.97,2.43-.96,1.4.03,2.16,1.08,3.78.98.22-.01.42-.04.61-.09v-5.48c-.18.04-.38.07-.61.09" style="fill:#e1f3fd;"/><path id="path13662" d="M164.81,305.49h8.61v.62h-8.61v-.62Z" style="fill:#ae9e2b;"/><path id="path13664" d="M165.45,306.11h-.64v-6.69h.64v6.69Z" style="fill:#ae9e2b;"/><path id="path13666" d="M180.79,305.49h-8.61v.62h8.61v-.62Z" style="fill:#ae9e2b;"/><path id="path13668" d="M180.15,306.11h.64v-6.69h-.64v6.69Z" style="fill:#ae9e2b;"/><path id="path13670" d="M163.75,304l1.1-.61v1.23l-1.1-.62Z" style="fill:#ae9e2b;"/><path id="path13672" d="M163.75,301.54l1.1-.62v1.23l-1.1-.61Z" style="fill:#ae9e2b;"/><path id="path13674" d="M181.86,304l-1.1-.61v1.23l1.1-.62Z" style="fill:#ae9e2b;"/><path id="path13676" d="M181.86,301.54l-1.1-.62v1.23l1.1-.61Z" style="fill:#ae9e2b;"/><path id="path13678" d="M179.63,298.9l-.13.03c-.17.04-.34.06-.51.07-.72.04-1.25-.2-1.81-.45-.57-.25-1.15-.52-1.92-.53h-.06c-.79,0-1.59.28-2.39.82-.8-.55-1.6-.82-2.39-.82h-.06c-.77.02-1.36.28-1.92.53-.56.25-1.09.5-1.81.45-.17,0-.34-.04-.51-.07l-.13-.03v.27l.07.02c.18.04.37.07.55.08.79.05,1.35-.21,1.95-.48.54-.25,1.09-.5,1.8-.51h.06c.76,0,1.53.28,2.3.83l.09.06.08-.06c.77-.55,1.55-.83,2.3-.83h.06c.71.01,1.27.26,1.8.51.55.25,1.07.48,1.77.48h.18c.18-.02.37-.04.55-.08l.07-.02v-.27Z" style="fill:#d94726;"/><path id="path13680" d="M193.32,296.67h-41.04v41.47c0,1.74,1.02,3.33,2.64,4.1l17.88,8.54,17.87-8.48c1.62-.77,2.64-2.36,2.64-4.1v-41.53ZM192.41,297.56v40.64c0,1.39-.84,2.7-2.13,3.31l-17.47,8.29-17.48-8.34c-1.31-.62-2.12-1.89-2.12-3.3v-40.59h39.21"/><path id="path13682" d="M172.18,357.82c-.34,0-.89-.05-1.24-.02l-.09-.08c.11-.13.22-.26.23-.41-.02-.4.02-.77,0-1.16,0-.12-.14-.22-.25-.37l.07-.04c.4-.01.89.05,1.24.02.12-.01.24-.03.31.06,0,.16.11.32.05.45-.18.05-.18-.12-.26-.2-.23-.14-.51-.14-.75-.12-.05-.02-.07.04-.04.1,0,.16,0,.32-.02.49.22.02.49.06.61-.11q.07-.03.11,0c.07.14,0,.16.03.23.02.11.02.23-.06.3-.1-.04-.12-.27-.32-.22-.11.01-.21-.02-.35.03-.03.21-.07.47,0,.72.16.16.62.17.81-.03.09-.08.11-.29.23-.3l.06.14c-.07.2-.14.5-.38.52" style="fill-rule:evenodd;"/><path id="path13684" d="M173.64,357.8c-.12,0-.29,0-.39-.04-.03-.07.04-.09.11-.12.18-.32.09-1.13.09-1.69-.11-.04-.37.03-.45.11-.09.08-.08.19-.21.25-.15-.05-.03-.23-.06-.3.04-.1,0-.17.03-.21.04-.09,1.28-.03,1.74-.02.18,0,.1.2.13.26,0,.12.07.25-.07.32-.16-.05-.11-.16-.2-.24-.06-.13-.28-.16-.41-.15-.1-.04-.09.07-.09.07-.05.43-.06,1.04,0,1.46.01.11.16.17.18.28-.09.08-.25.03-.41.02" style="fill-rule:evenodd;"/><path id="path13686" d="M169.69,354.59c-.16-.02-.33.18-.35.33-.18.28-.29.48-.48.76-.19.35-.32.78-.72.89-.23.05-.31.11-.46.02-.52-.06-1.31-.52-1.34-.96-.03-.38.25-.71.43-1.06.2-.35.54-.68.45-1.14-.07-.08-.14-.09-.06-.15.01-.07.16-.06.22.02.15.09.45.19.58.29.07.08.3.11.21.24-.17.05-.4.11-.5.25-.36.47-.57.97-.78,1.46-.1.21.09.45.23.62.14.09.43.19.66.21.54-.01.88-.94,1.08-1.36.1-.2.21-.49.1-.8-.07-.08,0-.07,0-.07.3.11.51.2.8.3-.01.08-.02.15-.09.14" style="fill-rule:evenodd;"/><path id="path13688" d="M166.72,353.15c-.41.25-.7.74-.9,1.16-.19.28-.38.63-.49.91-.09.06-.1.13-.18.2-.07,0-.22-.02-.3-.11,0,0-.06-.08-.05-.15-.05-.16-.06-.75-.07-1.27-.05-.29-.08-.67-.11-1.04-.06-.09-.04-.3-.12-.24-.27.34-.38.55-.58.98-.11.29-.3.63-.25.86.07.08.13.17.05.23s-.22-.02-.3-.11c-.14-.1-.36-.19-.51-.21.02-.14.09-.13.18-.2.31-.05.45-.55.63-.75.2-.42.29-.55.49-.9.08-.07.18-.21.11-.29-.22-.1-.39.03-.54.09-.09-.01-.16-.02-.08-.08,0-.07.1-.13.26-.19.16-.07.4-.18.62-.08.21.09.43.2.42.34.23.62.23,1.28.23,1.95.05.16-.03.22.03.37.28-.34.39-.7.58-1.04.04-.3.24-.64.03-.88,0-.07.08-.06.08-.06.37.11.66.29.94.48,0,.07-.08.06-.15.05" style="fill-rule:evenodd;"/><path id="path13690" d="M162.04,352.48c-.14-.02-.51-.13-.66-.29.2-.27.53-.46.78-.73.07.08-.11.94-.12,1.02M162.53,354.17c-.22-.09-.58-.29-.87-.39-.08,0-.14-.09-.07-.15.09-.07.16.02.16.02.33-.19.28-.49.32-.79-.28-.17-.64-.36-.86-.46-.27.27-.46.62-.42.92-.09.13-.22-.02-.3-.03-.14-.09-.28-.18-.43-.27-.07,0-.15-.02-.21-.1.09-.13.22.02.39-.1.67-.52,1.19-1.05,1.72-1.59.08-.06-.22-.1-.37-.11-.16-.02-.25.12-.31.04v-.07c.34-.19.74-.36,1.11-.18.36.18.38.64.34,1-.03.21-.16,1.38-.21,1.75-.02.15.04.3.09.46,0,0,0,.07-.08.06" style="fill-rule:evenodd;"/><path id="path13692" d="M160.89,350.59c-.15-.1-.21-.18-.37-.12-.18.14-.38.55-.48.77-.21.42-.41.84-.61,1.18,0,.07.13.24.04.38-.08,0-.16-.02-.16-.02-.21-.17-.43-.27-.65-.37-.07-.08-.14-.09-.06-.15.17-.05.48-.17.6-.46.19-.35.47-.76.67-1.18h-.07c-.65.29-1.24.74-1.83,1.2-.08.06-.14-.02-.14-.02-.04-.38,0-.6.07-1.26-.06-.08.02-.81-.05-.89-.25.27-.46.69-.58,1.05-.17.21-.37.55-.18.86,0,0,0,.08-.08.07-.29-.19-.58-.29-.87-.46v-.08c.39-.03.69-.51.95-.78.19-.35.46-.69.66-1.11,0-.07-.21-.18-.29-.18-.14-.09-.31.05-.47.1-.06-.08-.05-.16.02-.15.17-.2.49-.32.79-.2.3.11.57.35.62.58,0,.6-.06,1.18-.06,1.77v.07c.66-.44,1.26-.97,1.82-1.14.39-.03.53.06.59.15.15.09.21.17.21.24-.01.07-.08.06-.09.14" style="fill-rule:evenodd;"/><path id="path13694" d="M189.21,351.14c-.41.2-1.11.5-1.5.76-.07.01-.16-.05-.16-.05.05-.22.09-.45,0-.64-.29-.46-.5-.93-.78-1.39-.09-.13-.32-.18-.55-.29-.01-.07.06-.09.06-.09.48-.27,1.11-.5,1.51-.75.14-.09.27-.18.42-.12.11.2.34.31.37.52-.19.18-.3-.03-.45-.08-.37-.02-.71.16-.98.33-.07,0-.06.09.02.14.1.2.21.4.31.6.28-.11.63-.23.66-.52q.06-.07.13-.08c.17.12.1.2.19.26.09.12.18.27.13.41-.15.02-.33-.25-.53-.07-.13.09-.27.1-.4.26.11.27.24.61.49.86.31.1.86-.18.95-.55.05-.15-.06-.41.07-.51.08,0,.17.13.17.13.04.28.16.68-.11.86" style="fill-rule:evenodd;"/><path id="path13696" d="M186.3,352.53c-.14.09-.34.18-.49.2-.08-.06-.02-.14.05-.21,0-.5-.64-1.4-1.02-2.06-.15.02-.42.26-.46.41-.05.14.04.27-.09.43-.22.03-.19-.26-.27-.32-.02-.14-.1-.21-.11-.27-.02-.13,1.5-.83,2.05-1.11.21-.11.25.18.33.23.09.14.25.25.13.42-.22.03-.24-.12-.39-.17-.16-.12-.44-.01-.58.07-.14.02-.05.14-.05.14.23.54.61,1.27.97,1.73.09.12.31.1.39.23-.05.15-.27.18-.47.28" style="fill-rule:evenodd;"/><path id="path13698" d="M184.42,353.36c-.79-.4-1.51-.87-2.3-1.27.31.6.46,1.22,1.04,1.64.02.14.22.05.17.2-.06.08-.28.11-.34.18-.22.03-.33.26-.43.05.14-.58-.3-1.09-.52-1.63-.1-.2-.2-.41-.3-.53-.28.04-.38.4-.42.62-.06.07-.23-.05-.3-.04-.09-.13-.25-.25-.46-.15-.21.09-.41.19-.63.29.11.27.23.54.41.8,0,.07.07,0,.07,0,.28-.11.49-.21.54-.43h.07c.16.11.26.25.36.44-.15.02-.23-.04-.3-.03-.21.09-.42.12-.62.3.11.26.3.59.48.85.09.14.3.03.52,0,.41-.19.56-.64.51-1.05.08-.01.14-.1.15-.02.17.19.2.4.29.59.02.14.11.2-.04.22-.54.29-.96.48-1.51.77-.15.02-.21.09-.34.18-.08-.06-.07,0-.08-.06-.08.01,0-.07-.02-.14.07-.5-.2-.82-.5-1.49-.09-.13-.39-.73-.61-.7-.07.01-.06.08-.05.15l.02.14c-.08-.07-.22-.05-.36.05v.07c.05.28.16.54.34.8.27.39.43.94.91,1.23.08.06,0,.07-.05.14-.21.11-.5.14-.69.3-.17-.12-.04-.28-.05-.42-.04-.28-.15-.48-.33-.73-.12-.34-.22-.54-.41-.88-.05.15-.1.3-.07.5,0,.5-.02,1,.06,1.56,0,0-.07,0-.06.08-.07,0-.15-.05-.16-.12-.48-.29-1.17-1-1.71-1.28,0,0,.03.21.1.21.29.54.43,1.01.78,1.46.1.13.25.18.4.23-.07,0,0,.07-.06.07-.13.1-.2.11-.34.19-.14.02-.33.25-.42.12.17-.38-.12-.83-.23-1.11-.21-.39-.39-.73-.59-1.14h-.08c-.13.11-.1.31-.14.54q-.06.07-.14.09c-.02-.14-.05-.35.01-.5-.03-.21.08-.45.29-.54.2-.09.55-.21.73-.02.49.37.84.75,1.32,1.04l.06-.07c-.07-.5-.07-.99-.05-1.41-.03-.21.02-.44.28-.61.07-.07.28-.1.44-.05.06-.08.18-.24.25-.25.55-.28,1.02-.56,1.59-.77h.07c.09.12.11.26.26.24.05-.16.03-.29.15-.45.19-.23.61-.36.93-.19.53.15,1.52.87,1.9.96-.21-.4-.4-.73-.59-1.07-.17-.11-.35-.38-.58-.42-.07,0-.08-.06-.08-.06.28-.11.55-.29.82-.39.16.05-.04.22-.02.36.15.55.43,1.01.64,1.48.18.19.29.46.39.66.08.07-.26.25-.34.19" style="fill-rule:evenodd;"/><path id="path13700" d="M168.26,302.03c0,.3-.29.46-.57.46-.24,0-.44-.12-.55-.24v-.05l.14-.14h.05c.11.09.22.15.36.15s.25-.07.25-.19c0-.28-.77-.19-.77-.71,0-.28.24-.44.51-.44.2,0,.37.08.5.21v.05l-.12.15h-.05c-.11-.08-.2-.12-.31-.12-.13,0-.21.07-.21.16,0,.27.78.16.78.71"/><path id="path13702" d="M170.08,302.22v.05c-.14.14-.34.23-.57.23-.46,0-.84-.36-.84-.81s.38-.81.84-.81c.23,0,.43.09.57.23v.05l-.16.16h-.05c-.1-.08-.22-.13-.37-.13-.29,0-.51.22-.51.51s.22.51.51.51c.15,0,.27-.05.37-.13h.05l.16.16Z"/><path id="path13704" d="M170.6,300.89h.25l.04.04v1.51l-.04.04h-.25l-.04-.04v-1.51l.04-.04Z"/><path id="path13706" d="M172.39,302.23v.2l-.04.04h-.86l-.04-.04v-1.51l.04-.03h.86l.04.03v.2l-.04.04h-.57v.36h.54l.04.04v.2l-.04.04h-.54v.4h.57l.04.04Z"/><path id="path13708" d="M174.26,300.92v1.51l-.04.04h-.29l-.04-.02-.62-1.07v1.06l-.04.04h-.25l-.04-.04v-1.51l.04-.04h.29l.04.02.63,1.07v-1.06l.03-.04h.25l.04.04Z"/><path id="path13710" d="M175.81,300.92v.21l-.04.03h-.35v1.27l-.04.04h-.25l-.04-.04v-1.27h-.36l-.03-.03v-.21l.03-.04h1.03l.04.04Z"/><path id="path13712" d="M176.3,300.89h.25l.03.04v1.51l-.03.04h-.25l-.04-.04v-1.51l.04-.04Z"/><path id="path13714" d="M177.96,301.9l-.21-.61-.21.61h.43ZM178.44,302.46h-.26l-.04-.03-.1-.27h-.6l-.1.27-.04.03h-.26l-.03-.04.56-1.51.04-.02h.23l.05.02.56,1.51-.03.04Z"/><path id="path13716" d="M172.8,315.58l-.49-1.21-1.23.52.54-1.19-1.25-.48,1.25-.47-.54-1.19,1.23.52.49-1.21.49,1.21,1.23-.52-.54,1.19,1.25.47-1.25.48.54,1.19-1.23-.52-.49,1.21Z" style="fill:#fff;"/><path id="path13718" d="M172.77,343.39l-.49-1.21-1.23.52.54-1.19-1.25-.47,1.25-.48-.54-1.19,1.23.52.49-1.21.49,1.21,1.23-.52-.54,1.19,1.25.48-1.25.47.54,1.19-1.23-.52-.49,1.21Z" style="fill:#fff;"/><path id="path13720" d="M188.25,329.93l-.49-1.21-1.23.52.54-1.19-1.25-.48,1.25-.47-.54-1.19,1.23.52.49-1.21.49,1.21,1.23-.52-.54,1.19,1.25.47-1.25.48.54,1.19-1.23-.52-.49,1.21Z" style="fill:#fff;"/><path id="path13722" d="M157.45,329.93l-.49-1.21-1.23.52.54-1.19-1.25-.48,1.25-.47-.54-1.19,1.23.52.49-1.21.49,1.21,1.23-.52-.54,1.19,1.25.47-1.25.48.54,1.19-1.23-.52-.49,1.21Z" style="fill:#fff;"/><path id="path13724" d="M227.43,322.8c-.04,7.54-3.79,11.32-10.67,11.32s-10.78-3.06-10.78-10.07v-7.13c0-3.97-.44-7.21-.59-8.89.81.11,2.13.18,2.9.18s1.58-.07,2.32-.18c-.37,3.49-.48,8.16-.48,13.01,0,6.98,1.29,10.95,7.76,10.95,6.99,0,7.18-6.95,7.18-12.68,0-5.18-.04-8.86-.26-11.28.55.11,1.14.18,1.7.18.51,0,.99-.07,1.47-.18-.26,2.79-.51,8.93-.55,14.77"/><path id="path13726" d="M251.39,320.49c-.07,3.93-.04,9.91,0,13.41-.26-.07-.62-.11-.88-.11s-.62.04-.84.11c-5.34-6.29-11.37-12.79-17.34-19.1-.07,2.05-.11,4.7-.11,8,0,4.52.14,9.43.29,10.84-.52-.11-1.03-.19-1.5-.19-.51,0-1.02.07-1.54.19.26-1.41.77-10.84.77-17,0-3.97-.07-6.86-.14-8.55.25.04.69.07.95.07.29,0,.7-.04.98-.07,5.63,6.17,12.33,13.47,17.3,18.65,0-6.2,0-14.75-.29-18.43.48.11.99.18,1.46.18s.91-.07,1.39-.18c-.22,3.56-.48,9.03-.52,12.18"/><path id="path13728" d="M260.69,334.26c-3.2,0-6.51-1.55-8.09-2.69.62-.51.88-.66,1.58-1.58.52-.7.84-1.84.84-1.84.66,1.95,2.65,3.87,6.22,3.87s6.07-2.69,6.07-5.19c0-6.19-13.54-3.36-13.54-11.86,0-4.61,4.04-7.15,9.42-7.15,2.87,0,5.27.91,6.96,2.02-.77.63-.89.66-1.36,1.37-.37.55-.81,1.73-.81,1.73-.7-1.73-2.21-3.32-5.08-3.32s-4.97,1.8-4.97,4.05c0,6.15,14.06,3.68,14.02,11.68-.04,6.3-4.53,8.91-11.27,8.91"/><path id="path13730" d="M297.73,333.68c-.52-.07-1.03-.18-1.51-.18-.51,0-1.03.11-1.54.18-1.77-6.43-3.79-12.9-6.03-19.55h-.08c-1.36,4.2-4.63,13.53-6.43,19.55-.52-.07-1-.18-1.55-.18-.48,0-1.03.11-1.51.18-1.03-3.97-2.54-9.77-4.45-16.02-.59-1.98-2.75-7.98-3.34-9.34.81.11,2.02.18,2.8.18s1.54-.07,2.32-.18c1.62,6.87,3.27,12.94,5.37,20.18h.07c1.66-5.11,5.48-16.58,6.4-20.18.48.11.96.18,1.47.18.48,0,.96-.07,1.44-.18.84,3.64,4.93,15.84,6.18,20.18h.07c1.43-4.74,5.11-17.13,5.77-20.18.45.11.92.18,1.36.18.48,0,.92-.07,1.43-.18-1.18,3.16-6.51,19.37-8.24,25.36"/><path id="path13732" d="M230.77,340.74c-.22-.14-.46-.25-.72-.35-.22-.08-.45-.18-.65-.29-.19-.1-.34-.23-.46-.37-.11-.12-.16-.31-.16-.55,0-.14.02-.27.07-.38.05-.12.11-.21.2-.3.09-.08.18-.14.3-.19.22-.09.54-.09.72,0,.09.05.18.11.25.18.07.07.12.14.17.22.04.09.08.18.11.26l.05.14h.44l.04-.18c.04-.17.07-.31.11-.43.03-.1.07-.2.12-.3l.08-.16-.14-.11c-.2-.16-.42-.29-.65-.37-.48-.16-1.19-.16-1.71.02-.27.09-.5.23-.69.41-.19.17-.34.38-.45.63-.1.24-.15.5-.15.79,0,.41.08.74.25.99.16.24.36.44.59.6.22.14.46.27.72.37.23.09.46.19.66.29.19.1.34.22.46.37.11.12.16.31.16.54,0,.16-.03.31-.08.45-.05.14-.12.26-.21.36-.09.1-.2.18-.33.24-.27.11-.63.11-.9.01-.14-.05-.25-.11-.36-.2-.1-.08-.18-.17-.25-.27-.07-.1-.13-.2-.17-.3l-.05-.13h-.45l-.02.2c-.02.17-.04.31-.05.42-.02.11-.05.22-.1.35l-.05.14.12.1c.17.14.38.27.63.38.26.11.59.17,1,.17.37,0,.71-.06,1.01-.17.3-.11.56-.28.77-.48.21-.21.37-.46.48-.74.11-.28.16-.57.16-.89,0-.38-.08-.7-.25-.94-.16-.23-.36-.42-.59-.56"/><path id="path13734" d="M240.97,337.59l-.17-.04-.07.16c-.12.27-.25.54-.39.82-.14.28-.28.55-.43.83-.15.28-.3.55-.45.81-.08.14-.16.28-.24.41-.25-.45-.48-.88-.71-1.3-.28-.52-.55-1.05-.82-1.58l-.07-.14-.39.05c-.15.02-.3.02-.45,0l-.7-.1.24.39c.06.1.14.25.26.44l1.66,2.87c.1.17.18.31.24.41,0,.48,0,.94-.01,1.38,0,.45-.03.84-.06,1.15l-.03.27.27-.02c.26-.03.58-.03.84,0l.26.02-.02-.26c-.01-.13-.02-.3-.03-.51,0-.21-.02-.44-.02-.7,0-.25,0-.5-.01-.76,0-.24,0-.46,0-.68.09-.18.2-.38.31-.59.13-.24.29-.5.46-.8.17-.3.38-.62.6-.99s.48-.77.77-1.22l.28-.43-.51.1c-.33.07-.29.07-.61,0"/><path id="path13736" d="M251.53,342.29c-.15.36-.35.64-.59.84s-.5.34-.8.41c-.54.13-1.09.13-1.6.09-.12,0-.23-.02-.32-.04-.03-.58-.05-1.18-.05-1.79v-1.6c0-.33,0-.66.02-.98,0-.26.02-.51.03-.75.13-.02.28-.03.44-.04.54-.04,1.21-.04,1.72.08.28.07.52.19.71.37.2.18.36.43.47.74.12.32.18.74.18,1.25,0,.58-.08,1.05-.23,1.41M252.32,338.48c-.27-.29-.61-.51-1.01-.66-.57-.21-1.35-.25-2.13-.21-.45.03-.9.03-1.34.01-.23-.01-.45-.02-.68-.04h-.24s.06,1.43.06,1.43c.01.39.02.79.02,1.2v1.6c0,.41,0,.8-.02,1.2-.02.39-.04.79-.05,1.17v.24s.23-.02.23-.02c.2-.01.4-.02.59-.02h.61c.2,0,.4,0,.6,0,.56.02,1.15.02,1.79-.16.41-.11.8-.32,1.14-.59.35-.28.63-.65.86-1.1.22-.45.33-1.01.33-1.66,0-.5-.06-.95-.18-1.35-.12-.41-.32-.77-.57-1.05"/><path id="path13738" d="M263.8,337.63c-.07,0-.15-.01-.25-.04l-.29-.07.02.3c.03.54.05,1.12.06,1.73.01.61.02,1.25.02,1.89v.72c-.18-.19-.38-.41-.59-.64l-1.18-1.29c-.41-.46-.82-.92-1.24-1.39l-1.24-1.38h-.47l.02.23c.01.21.02.52.02.95,0,.43,0,.94,0,1.53,0,.2,0,.43,0,.69l-.02.8c-.01.27-.02.54-.04.81l-.04.76c-.01.23-.03.43-.04.59-.02.16-.03.26-.04.32l-.05.29.29-.04c.18-.03.41-.03.59,0l.28.04-.04-.28s-.01-.13-.02-.26l-.04-1.09c0-.22-.01-.43-.01-.64v-.6c-.01-.19-.02-.35-.02-.48,0-.5,0-.89.01-1.18v-.16c.66.72,1.32,1.45,1.99,2.18.78.86,1.52,1.71,2.21,2.53l.06.08h.45v-.52c0-.15,0-.32,0-.53l-.02-1.34c0-.23,0-.45,0-.66v-.56c0-.18,0-.41.02-.71.01-.29.03-.6.04-.91.02-.31.03-.6.04-.87.02-.27.03-.47.04-.61l.03-.31-.3.08c-.13.04-.2.04-.23.04"/><path id="path13740" d="M273.7,343.71l.09-.34-.34.07c-.14.03-.3.05-.48.07-.19.01-.4.02-.61.04-.22,0-.44.01-.66.01h-.42c0-.09,0-.19,0-.3,0-.23,0-.52,0-.87v-.92c0-.08,0-.15,0-.21.07,0,.14,0,.22,0h.59c.2.01.41.02.61.03.2.01.38.03.54.05l.29.04-.05-.29c-.02-.08-.02-.16-.02-.24s0-.17.02-.25l.05-.28-.29.03c-.13.01-.27.02-.41.03l-.48.03c-.17,0-.37.02-.57.02-.15,0-.32,0-.49,0,0-.09,0-.19,0-.3,0-.23,0-.46,0-.7s0-.43.01-.61c0-.12.02-.23.02-.36.2,0,.38,0,.54.02.21,0,.4.02.57.03l.5.04c.16.01.34.03.53.04l.28.02-.05-.27c-.02-.08-.02-.16-.02-.24s0-.16.02-.23l.05-.27-1.08.05c-.52.02-1.07.02-1.59,0-.27-.01-.54-.02-.81-.04h-.23s0,.23,0,.23c.02.4.04.79.05,1.19.02.39.02.79.02,1.2v1.6c0,.41,0,.8-.02,1.2-.02.39-.03.79-.05,1.18v.24s.23-.01.23-.01c.27-.01.54-.02.81-.02h1.64c.27,0,.53,0,.8.02l.3.02-.08-.29s-.02-.09-.02-.19v-.13s.02-.1.02-.1Z"/><path id="path13742" d="M283.71,337.59c-.33.07-.29.07-.62,0l-.17-.04-.07.16c-.12.27-.25.54-.38.82-.14.28-.28.55-.43.83-.15.28-.3.55-.45.81-.08.14-.16.28-.24.41-.25-.45-.48-.88-.71-1.3-.28-.52-.55-1.05-.82-1.58l-.07-.14-.39.05c-.14.02-.3.02-.45,0l-.7-.1.24.39c.06.1.15.25.26.44l1.66,2.87c.1.17.18.31.23.41,0,.48,0,.94,0,1.38,0,.45-.03.83-.06,1.15l-.03.27.26-.02c.27-.03.58-.03.85,0l.26.02-.02-.26c-.01-.13-.02-.3-.03-.51,0-.21-.02-.44-.02-.69,0-.25-.01-.5-.02-.77,0-.24,0-.46,0-.68.09-.18.2-.38.32-.59.13-.24.29-.5.46-.8s.38-.62.6-.99.49-.77.78-1.22l.28-.43-.5.1Z"/></g></svg>