<?xml version="1.0" encoding="UTF-8"?>
<svg id="svg24483" xmlns="http://www.w3.org/2000/svg" xmlns:xlink="http://www.w3.org/1999/xlink" version="1.1" viewBox="0 0 116.67 49.32">
  <!-- Generator: Adobe Illustrator 29.5.0, SVG Export Plug-In . SVG Version: 2.1.0 Build 137)  -->
  <defs>
    <style>
      .st0 {
        fill: none;
      }

      .st1 {
        fill: #d94726;
      }

      .st2 {
        fill: url(#radial-gradient);
      }

      .st3 {
        clip-path: url(#clippath-1);
      }

      .st4 {
        clip-path: url(#clippath-3);
      }

      .st5 {
        clip-path: url(#clippath-4);
      }

      .st6 {
        clip-path: url(#clippath-2);
      }

      .st7 {
        clip-path: url(#clippath-5);
      }

      .st8 {
        fill-rule: evenodd;
      }

      .st9 {
        fill: #fff;
      }

      .st10 {
        fill: #ae9e2b;
      }

      .st11 {
        fill: url(#radial-gradient1);
      }

      .st12 {
        fill: #e1f3fd;
      }

      .st13 {
        fill: #00aeee;
      }

      .st14 {
        clip-path: url(#clippath);
      }
    </style>
    <clipPath id="clippath">
      <rect class="st0" x="1.34" y="8.87" width="28.85" height="31.12"/>
    </clipPath>
    <clipPath id="clippath-1">
      <path class="st0" d="M1.4,9.15v22.33c0,.81.47,1.54,1.22,1.9l12.96,6.19,12.95-6.14c.74-.35,1.23-1.1,1.23-1.91V9.15H1.4h0Z"/>
    </clipPath>
    <clipPath id="clippath-2">
      <rect class="st0" x="5.13" y="15.7" width="21.26" height="14.42"/>
    </clipPath>
    <clipPath id="clippath-3">
      <path class="st0" d="M11.46,16.43v.04c.03.05.04.1.04.14v.18l-.17-.07s-.14-.05-.33-.05c-.11,0-.23.02-.33.05h-.05c-.06,0-.11,0-.17,0l.02.08v.02c-.06.29-.31.42-.5.51l-.03.02c.06.04.11.09.17.19.07.11-.04.25-.36.54h0c.05.02.11.04.15.05.18.08.15.2.14.24-.06.12-.15.22-.23.31-.08.09-.17.18-.21.29.05,0,.11.02.17.04l.14.07-.09.12-.04.06c-.14.2-.27.46-.39.81l.11.02v.11c0,.22-.07.36-.14.52l-.02.02-.02.02-.12.05c-.2,0-.41-.36-.51-.57-.08-.17-.27-.6-.27-1.02,0-1.02.15-1.2.24-1.31l.04-.08c0-.11-.05-.14-.18-.19-.09-.04-.2-.08-.29-.2-.14-.24-.45-.39-.76-.39-.08,0-.14,0-.2.03.11.05.2.13.3.31.08.15,0,.24-.04.29l-.02.04v.12h-.13l-.1.02c-.08.02-.18.02-.25-.05-.15-.11-.4-.23-.65-.23-.12,0-.23.03-.33.08l-.03.11.05-.11.09.05.03.02.04.02.02.02.04.02.08.07.03.03.02.02.03.03.02.03.02.03.02.03.02.04.02.03.02.04.02.03.02.03.02.04.02.05.02.07v.12l-.04.06-.02.02-.02.02-.02.02-.02.02-.04.03h-.02l-.03.02h-.02l-.02.02h-.14s-.04-.02-.04-.02h-.02l-.1-.06.06-.11-.07.1-.03-.02-.02-.02-.05-.04.07-.1-.08.09-.02-.02.08-.1-.08.09-.02-.02.08-.09-.09.08-.02.1v.05c-.02.21.04.46.25.55h.08c.15,0,.19.14.2.19l.03.08.02.02h.02l.03.02h.13l.17-.03h.05c.07,0,.12.02.17.05h.02l.03.04.03.04.02.05v.06s0,.02,0,.02v.03s0,.02,0,.02l-.02.03v.02l-.03.03-.03.04-.07.07-.03.02-.06.02-.05.02h-.17l.02-.12-.03.12v-.12l-.02.12h-.02c0,.05.02.12.06.16.1.11.23.16.38.17h.05c.09,0,.17.05.21.14.05.11.02.26-.05.33l-.02.02c-.11.08-.22.13-.32.18-.19.11-.35.19-.47.34.21,0,.29.12.29.23,0,.17-.07.27-.15.35.09,0,.16.04.2.11.13.14-.04.31-.17.45-.05.05-.12.13-.17.19.05,0,.11-.02.16-.02.26,0,.43.13.47.36v.02c0,.12-.04.24-.11.36l.14-.02c.14,0,.2.05.24.11.08.11-.04.23-.14.33-.05.04-.09.09-.14.14.11-.02.23-.02.36.02l.05.02.02.05c.05.1.04.2-.02.3-.08.12-.24.21-.38.27.11.04.25.06.42.06.27,0,.57-.06.76-.15l.14-.07.04.15c.08.36.45.46.67.52.11.03.23.06.23.17v.05l-.04.04c-.19.17-.36.53-.31.67v.02c.05.36-.05.71-.27.93-.2.22-.48.33-.81.33-.41,0-.91-.06-1.09-.54-.09-.28-.26-.3-.49-.14l-.06.04-.07-.03c-.06-.03-.13-.04-.2-.04-.23,0-.48.14-.62.34.24.03.55.15.65.38.05.11.06.29-.16.5l-.04.04h-.05c-.3,0-.51.17-.59.5.17-.04.33-.05.47-.05.49,0,.57.24.58.34.04.27-.24.56-.68.73.17.11.31.17.45.17.16,0,.31-.06.52-.14.05-.02.11-.04.16-.06.11-.05.2-.04.27-.02l.04.02c.15.06.2.02.29-.21.04-.09.07-.17.14-.23.04-.04.1-.05.17-.05.06,0,.11.02.15.04.06.03.1.09.11.12v.02l.02.05v.12s0,.05,0,.05h0v.05l-.02.05v.02l-.02.02v.03s.02.12.02.12l-.02-.12h.02l.04.11-.02-.12.05.11-.03-.12.05-.02.08.1-.06-.11.05-.04.02-.02.04-.03.05-.05.08-.1.05-.08.12.05-.11-.07.03-.06.12.04-.11-.06.03-.06.12.03-.12-.05.07-.26.02-.08s.05-.17.09-.22l.05-.06.08-.07.02-.02.07-.05.04-.02h0l.02-.02.04-.02h.05c.12-.03.24.02.37.08.15.07.34.16.64.16.14,0,.3-.02.48-.07-.04-.08-.08-.19.03-.28l.02-.02.14-.04c.16-.05.32-.1.47-.16.12-.11.27-.14.41-.17.05-.02.1-.02.14-.04-.04-.04-.07-.08-.07-.14v-.05l.04-.04c.05-.05.13-.07.23-.08h.04l-.04-.11c0-.12.11-.19.52-.41.12-.06.3-.16.39-.23-.11-.11-.22-.27-.24-.36-.03-.12.04-.2.11-.23l.06-.02c.17-.05.39-.12.51-.27l.02-.03.04-.02c.05-.02.18-.05.35-.11.51-.15,1.37-.41,1.77-.55l.17-.06v.25l-.09.02h.09v.17l.02.05v.06l.02.05v.02c.03.13.07.22.14.29l.06.05c.11.09.26.16.5.21.06.02.14.02.23.02.11,0,.23,0,.35-.02.23-.02.49-.03.71,0,.22,0,.38.14.41.35.03.24-.11.52-.46.61-.3.08-.58.08-.87.08h-.02c-.49-.05-.62-.19-.8-.41l-.04-.05s-.05-.05-.17-.11c-.08-.04-.14-.06-.21-.08-.1-.03-.2-.07-.3-.14l-.1-.08-.08-.1-.02-.02c-.08-.12-.14-.2-.24-.2-.11,0-.19.03-.25.09l-.07.07-.08-.05c-.19-.12-.52-.03-.71.19-.05.06-.09.12-.11.18h.04l.05-.02h.12l.05.02.05.02h.02l.05.03.05.03.02.02.05.04.04.05.03.03v.02s0,.02,0,.02l.04.06v.02s.04.09.02.18c-.02.08-.08.22-.21.22l-.1-.03c-.08-.04-.14-.05-.21-.05-.23,0-.41.19-.49.38l-.03.11c.24-.11.52-.08.74.08.19.1.19.3.19.43v.09l-.08.03c-.34.11-.51.2-.63.66.32-.17.64-.17.93-.17h.05l.04.04c.17.16.38.21.52.11.14-.1.29-.26.4-.39.14-.16.22-.24.3-.27h.02s.07-.04.11-.04c.04,0,.12.02.17.11.07.11.03.27.02.32-.04.14-.15.24-.27.33.03.02.08.02.14.02.19,0,.3,0,.42-.05l.05-.02.08-.05.12-.04h.04l.09.07s.03.09.02.16l-.05.13c.24.02.39-.05.49-.22l.08-.15.12.13c.05.05.09.11.13.15l.08.11c.04-.16.12-.36.31-.49l.2-.12v.23c0,.06.07.25.13.36.03-.08.08-.17.11-.24,0,0,.09-.13.19-.14.11,0,.16.09.23.21.02.04.06.12.1.17.09-.19.24-.45.32-.52l.05-.05.07.02s.1.02.15.04c.17.04.36.09.53.1-.17-.23-.22-.39-.22-.68v-.07l.02-.05c.05-.15.18-.24.3-.32l.04-.03c.06-.04.13-.08.17-.14.14-.17.16-.23.16-.37-.04-.14-.19-.24-.34-.34-.08-.06-.17-.12-.24-.18-.34-.35-.08-.87-.08-.87l.08-.11.08-.07.08.07c.32.24.6.45.9.66.22.17.52.27.87.27.09,0,.19,0,.28-.02.11-.02.23-.02.35-.02.6,0,1.23.17,1.23.68,0,.3-.34.73-.68.73l-.09-.02h-.02l-.02-.02c-.12-.08-.18-.21-.24-.33-.07-.14-.11-.23-.19-.24h-.02c-.06-.04-.2.04-.34.16l-.06.05-.08-.03c-.46-.19-.81-.07-1.08.36h.02c.08-.02.15-.03.23-.03.28,0,.53.1.7.27l.04.04v.05c0,.09-.05.13-.08.14-.03.02-.09.06-.2.25l-.03.05h-.05c-.24.05-.53.43-.58.84.28-.15.61-.27,1.02-.27h.05l.04.04c.11.1.11.27.11.35v.08l-.07.03c-.24.11-.47.18-.7.2.18.13.44.2.71.2.23,0,.43-.06.53-.15l.04-.04h.06c.26.04.46-.04.55-.19.08-.12.08-.27,0-.42-.03-.06-.03-.13,0-.19.04-.06.09-.11.16-.11h.09c.12,0,.24.05.32.14.12.14.18.37.17.6.11-.02.23-.11.33-.25h0l.07-.11c.04-.08.07-.15.08-.2l.02-.11h.11c.33,0,.55-.05.88-.28-.06-.03-.12-.06-.16-.1l-.02-.02s-.14-.12-.07-.25v-.02c.05-.07.16-.12.33-.21.05-.03.12-.06.17-.09-.05-.04-.09-.09-.09-.17v-.03l.02-.03c.04-.08.14-.14.22-.19l.08-.05c-.09-.02-.17-.07-.17-.17v-.05l.03-.03s.06-.06.14-.12c.1-.08.25-.2.37-.33-.17,0-.29-.04-.37-.13l-.06-.06.04-.08c.07-.14.15-.2.23-.24-.05-.02-.1-.04-.14-.08l-.02-.02v-.02c-.07-.11-.02-.23.05-.35.04-.08.08-.18.08-.27l-.05.02c-.09.03-.16,0-.2-.05-.05-.08,0-.16.05-.27.02-.04.07-.11.08-.17-.11.04-.2.09-.31.14-.25.11-.51.24-.84.24-.05,0-.1,0-.15,0h-.05l-.05-.06-.05-.08c-.06-.12-.15-.3-.46-.33l-.08.03c-.26.17-.64.36-.93.36-.08,0-.16-.02-.23-.05l-.04-.02-.04-.02-.04-.03c-.19-.16-.27-.45-.34-.71,0-.03-.02-.08-.03-.13-.03-.12-.09-.41-.12-.46-.09-.14-.27-.26-.45-.38-.28-.19-.6-.41-.76-.79v-.02l-.03-.05-.07-.2,1.09.15h.18l.76-.06.48-.13.42-.22.25-.21.22-.3.02-.03.02-.03.02-.03.02-.04.05-.14.02-.04.02-.04.02-.08v-.04l.06-.35v-.22c0-.08.02-.14.09-.17l.09-.05.11-.07.08-.05.08-.05.04-.03.05-.05.03-.03.04-.04v-.02l.03-.03.11.06-.11-.07.02-.03.12.05-.11-.07.02-.03.12.05-.11-.06.05-.09.02-.05v-.02l.02-.03v-.02l.02-.05v-.21l-.02-.06v-.03s-.03-.11-.03-.18v-.18s.02-.07.02-.07v-.02l.02-.06v-.02l-.03.03c-.14.13-.3.27-.49.27-.25,0-.43-.24-.57-.76-.07.11-.18.21-.3.21h-.07c-.2-.08-.35-.3-.5-.52-.05-.06-.11-.15-.16-.22l.02.11v.17l-.02.03v.02l-.03.02-.02.02-.02.03-.02.02-.05.03h-.03l-.02.02h-.14l-.03-.02-.25-.14-.04-.02.06-.11-.08.1-.19-.13.05-.11-.06.11h-.02c.02.08.02.19-.09.3l-.03.03h-.04c-.08.02-.15.02-.23.02-.27,0-.46-.08-.63-.14v.04c0,.06-.02.11-.05.14h-.02c-.06.05-.14.08-.22.08.06.1.11.24.05.43l-.05.12-.02.03-.02.02-.02.02v.02l-.02.02-.09-.08.08.09-.03.03-.16.09-.09.03h-.03l-.02.02h-.07l-.04.02h-.07l-.15-.02h-.03l-.05-.02-.05-.02-.03-.02h-.02l-.03-.03-.02-.02-.02-.02-.05-.05-.02-.02-.02-.02-.02-.02-.02-.02-.02-.04c-.03-.05-.03-.11,0-.15.05-.11.2-.14.37-.17h0c-.08-.1-.15-.25-.04-.51.05-.17.27-.3.55-.45.35-.19.74-.4.8-.71-.06.02-.14.03-.2.05-.15.04-.33.09-.47.09-.13,0-.24-.04-.31-.11-.05-.06-.09-.14-.11-.23-.45.31-.88.44-1.27.39h-.02c-.19-.07-.35-.22-.54-.41-.22-.21-.46-.45-.8-.55v.43h-.13c-.23,0-.46,0-.61.03.27.03.48.13.6.46.11.33-.23.52-.61.74-.27.15-.57.33-.79.58l-.08.08-.09-.07c-.1-.07-.2-.19-.3-.29-.05-.05-.11-.12-.14-.15h-.25l.18-.2c.14-.16.22-.32.23-.46,0-.17-.07-.33-.1-.39l-.06-.11c-.13.05-.29.08-.44.08-.25,0-.42-.07-.47-.2-.02-.04-.03-.08-.02-.14l-.09.02h-.04c-.39,0-.85,0-1.15.24l-.11.08-.08-.1c-.26-.32-.65-.56-1.02-.61h-.04l-.03-.04-.04-.03c-.1.21-.27.31-.54.3M16.66,19.22c-.02-.17.05-.35.2-.52.22-.24.54-.41.83-.41.12,0,.23.03.33.08.2.14.36.3.53.46.19.2.39.39.65.53l.07.04v.08c0,.08,0,.15-.66.35-.14.04-.63.18-.92.18-.68,0-1.01-.26-1.02-.77M17.79,20.6c.58-.08,1.27-.27,1.93-.45.89-.24,1.8-.49,2.49-.49.47,0,1.5.23,1.5.93,0,.43-.16.67-.46.94l-.02.02c-.54.35-1.91.35-1.92.35-.32,0-1.18,0-1.56-.3-.19-.15-.24-.18-.25-.18-.19-.08-.36-.11-.59-.11-.49,0-1.01.14-1.52.27-.49.13-.95.25-1.36.25-.03,0-.08,0-.12-.06-.17-.2-.27-1.31-.2-1.68v-.04l.23-.22.08.16c.2.43.61.65,1.22.65.17,0,.36-.02.56-.05h0Z"/>
    </clipPath>
    <radialGradient id="radial-gradient" cx="214.03" cy="383.43" fx="214.03" fy="383.43" r="11.5" gradientTransform="translate(-149.74 -261.47) scale(.77 .74)" gradientUnits="userSpaceOnUse">
      <stop offset="0" stop-color="#f2eac6"/>
      <stop offset="0" stop-color="#f2e9c5"/>
      <stop offset="0" stop-color="#f1e9c4"/>
      <stop offset="0" stop-color="#f1e8c3"/>
      <stop offset=".02" stop-color="#f1e8c3"/>
      <stop offset=".02" stop-color="#f0e7c2"/>
      <stop offset=".02" stop-color="#f0e7c1"/>
      <stop offset=".03" stop-color="#efe6c0"/>
      <stop offset=".03" stop-color="#efe6c0"/>
      <stop offset=".04" stop-color="#efe5bf"/>
      <stop offset=".04" stop-color="#eee5be"/>
      <stop offset=".04" stop-color="#eee4bd"/>
      <stop offset=".05" stop-color="#eee4bc"/>
      <stop offset=".05" stop-color="#ede4bc"/>
      <stop offset=".05" stop-color="#ede3bb"/>
      <stop offset=".06" stop-color="#ece3ba"/>
      <stop offset=".06" stop-color="#ece3b9"/>
      <stop offset=".07" stop-color="#ece2b9"/>
      <stop offset=".07" stop-color="#ebe2b8"/>
      <stop offset=".07" stop-color="#ebe1b7"/>
      <stop offset=".08" stop-color="#ebe1b6"/>
      <stop offset=".08" stop-color="#ebe1b6"/>
      <stop offset=".09" stop-color="#eae0b5"/>
      <stop offset=".09" stop-color="#eae0b4"/>
      <stop offset=".09" stop-color="#eae0b3"/>
      <stop offset=".1" stop-color="#e9dfb3"/>
      <stop offset=".1" stop-color="#e9dfb2"/>
      <stop offset=".11" stop-color="#e8deb1"/>
      <stop offset=".11" stop-color="#e8deb0"/>
      <stop offset=".11" stop-color="#e8deb0"/>
      <stop offset=".12" stop-color="#e7ddaf"/>
      <stop offset=".12" stop-color="#e7ddae"/>
      <stop offset=".12" stop-color="#e7dcad"/>
      <stop offset=".13" stop-color="#e6dcac"/>
      <stop offset=".13" stop-color="#e6dbac"/>
      <stop offset=".14" stop-color="#e6dbab"/>
      <stop offset=".14" stop-color="#e6dbaa"/>
      <stop offset=".14" stop-color="#e5daaa"/>
      <stop offset=".15" stop-color="#e5daa9"/>
      <stop offset=".15" stop-color="#e5daa9"/>
      <stop offset=".16" stop-color="#e5daa8"/>
      <stop offset=".16" stop-color="#e4d9a7"/>
      <stop offset=".16" stop-color="#e4d9a7"/>
      <stop offset=".17" stop-color="#e4d9a6"/>
      <stop offset=".17" stop-color="#e4d8a5"/>
      <stop offset=".18" stop-color="#e3d8a4"/>
      <stop offset=".18" stop-color="#e3d7a4"/>
      <stop offset=".18" stop-color="#e3d7a3"/>
      <stop offset=".19" stop-color="#e3d7a2"/>
      <stop offset=".19" stop-color="#e2d6a1"/>
      <stop offset=".2" stop-color="#e2d6a1"/>
      <stop offset=".2" stop-color="#e2d6a0"/>
      <stop offset=".2" stop-color="#e2d69f"/>
      <stop offset=".21" stop-color="#e1d59f"/>
      <stop offset=".21" stop-color="#e1d59e"/>
      <stop offset=".21" stop-color="#e1d59e"/>
      <stop offset=".22" stop-color="#e0d59d"/>
      <stop offset=".22" stop-color="#e0d49c"/>
      <stop offset=".23" stop-color="#dfd49b"/>
      <stop offset=".23" stop-color="#dfd49b"/>
      <stop offset=".23" stop-color="#dfd39a"/>
      <stop offset=".24" stop-color="#ded39a"/>
      <stop offset=".24" stop-color="#ded299"/>
      <stop offset=".25" stop-color="#ded299"/>
      <stop offset=".25" stop-color="#ded298"/>
      <stop offset=".25" stop-color="#ddd197"/>
      <stop offset=".26" stop-color="#ddd196"/>
      <stop offset=".26" stop-color="#ddd196"/>
      <stop offset=".27" stop-color="#ddd195"/>
      <stop offset=".27" stop-color="#dcd094"/>
      <stop offset=".27" stop-color="#dcd093"/>
      <stop offset=".28" stop-color="#dcd093"/>
      <stop offset=".28" stop-color="#dccf92"/>
      <stop offset=".29" stop-color="#dbcf92"/>
      <stop offset=".29" stop-color="#dbce91"/>
      <stop offset=".29" stop-color="#dbce90"/>
      <stop offset=".3" stop-color="#dbce90"/>
      <stop offset=".3" stop-color="#dacd8f"/>
      <stop offset=".3" stop-color="#dacd8e"/>
      <stop offset=".31" stop-color="#dacd8e"/>
      <stop offset=".31" stop-color="#dacd8d"/>
      <stop offset=".32" stop-color="#d9cc8d"/>
      <stop offset=".32" stop-color="#d9cc8c"/>
      <stop offset=".32" stop-color="#d9cc8b"/>
      <stop offset=".33" stop-color="#d9cc8b"/>
      <stop offset=".33" stop-color="#d8cb8a"/>
      <stop offset=".34" stop-color="#d8cb89"/>
      <stop offset=".34" stop-color="#d8cb89"/>
      <stop offset=".34" stop-color="#d8ca88"/>
      <stop offset=".35" stop-color="#d7ca88"/>
      <stop offset=".35" stop-color="#d7c987"/>
      <stop offset=".36" stop-color="#d7c986"/>
      <stop offset=".36" stop-color="#d7c986"/>
      <stop offset=".36" stop-color="#d6c885"/>
      <stop offset=".37" stop-color="#d6c884"/>
      <stop offset=".37" stop-color="#d6c884"/>
      <stop offset=".38" stop-color="#d5c783"/>
      <stop offset=".38" stop-color="#d5c782"/>
      <stop offset=".38" stop-color="#d5c782"/>
      <stop offset=".39" stop-color="#d5c781"/>
      <stop offset=".39" stop-color="#d4c680"/>
      <stop offset=".39" stop-color="#d4c680"/>
      <stop offset=".4" stop-color="#d4c67f"/>
      <stop offset=".4" stop-color="#d4c67e"/>
      <stop offset=".41" stop-color="#d3c57e"/>
      <stop offset=".41" stop-color="#d3c57d"/>
      <stop offset=".41" stop-color="#d3c57d"/>
      <stop offset=".42" stop-color="#d3c47c"/>
      <stop offset=".42" stop-color="#d2c47c"/>
      <stop offset=".43" stop-color="#d2c37b"/>
      <stop offset=".43" stop-color="#d2c37b"/>
      <stop offset=".43" stop-color="#d1c37a"/>
      <stop offset=".44" stop-color="#d1c279"/>
      <stop offset=".44" stop-color="#d0c279"/>
      <stop offset=".45" stop-color="#d0c278"/>
      <stop offset=".45" stop-color="#d0c277"/>
      <stop offset=".45" stop-color="#cfc177"/>
      <stop offset=".46" stop-color="#cfc176"/>
      <stop offset=".46" stop-color="#cfc176"/>
      <stop offset=".46" stop-color="#cfc175"/>
      <stop offset=".47" stop-color="#cec074"/>
      <stop offset=".47" stop-color="#cec073"/>
      <stop offset=".48" stop-color="#cec073"/>
      <stop offset=".48" stop-color="#cec072"/>
      <stop offset=".48" stop-color="#cdbf72"/>
      <stop offset=".49" stop-color="#cdbf71"/>
      <stop offset=".49" stop-color="#cdbf71"/>
      <stop offset=".5" stop-color="#cdbe70"/>
      <stop offset=".5" stop-color="#ccbe6f"/>
      <stop offset=".5" stop-color="#ccbd6e"/>
      <stop offset=".51" stop-color="#ccbd6e"/>
      <stop offset=".51" stop-color="#ccbd6d"/>
      <stop offset=".52" stop-color="#cbbc6d"/>
      <stop offset=".52" stop-color="#cbbc6c"/>
      <stop offset=".52" stop-color="#cbbc6c"/>
      <stop offset=".53" stop-color="#cbbc6b"/>
      <stop offset=".53" stop-color="#cabb6a"/>
      <stop offset=".54" stop-color="#cabb69"/>
      <stop offset=".54" stop-color="#cabb69"/>
      <stop offset=".54" stop-color="#cabb68"/>
      <stop offset=".55" stop-color="#c9ba68"/>
      <stop offset=".55" stop-color="#c9ba67"/>
      <stop offset=".55" stop-color="#c9ba66"/>
      <stop offset=".56" stop-color="#c9ba66"/>
      <stop offset=".56" stop-color="#c8b965"/>
      <stop offset=".57" stop-color="#c8b964"/>
      <stop offset=".57" stop-color="#c8b964"/>
      <stop offset=".57" stop-color="#c8b963"/>
      <stop offset=".58" stop-color="#c7b863"/>
      <stop offset=".58" stop-color="#c7b862"/>
      <stop offset=".59" stop-color="#c7b861"/>
      <stop offset=".59" stop-color="#c7b861"/>
      <stop offset=".59" stop-color="#c6b760"/>
      <stop offset=".6" stop-color="#c6b75f"/>
      <stop offset=".6" stop-color="#c6b75e"/>
      <stop offset=".61" stop-color="#c6b65e"/>
      <stop offset=".61" stop-color="#c5b65d"/>
      <stop offset=".61" stop-color="#c5b55c"/>
      <stop offset=".62" stop-color="#c5b55c"/>
      <stop offset=".62" stop-color="#c5b55b"/>
      <stop offset=".62" stop-color="#c4b45b"/>
      <stop offset=".63" stop-color="#c4b45a"/>
      <stop offset=".63" stop-color="#c4b459"/>
      <stop offset=".64" stop-color="#c3b358"/>
      <stop offset=".64" stop-color="#c3b358"/>
      <stop offset=".64" stop-color="#c3b357"/>
      <stop offset=".65" stop-color="#c3b356"/>
      <stop offset=".65" stop-color="#c2b255"/>
      <stop offset=".66" stop-color="#c2b255"/>
      <stop offset=".66" stop-color="#c2b254"/>
      <stop offset=".66" stop-color="#c2b253"/>
      <stop offset=".67" stop-color="#c1b152"/>
      <stop offset=".67" stop-color="#c1b152"/>
      <stop offset=".68" stop-color="#c1b151"/>
      <stop offset=".68" stop-color="#c1b150"/>
      <stop offset=".68" stop-color="#c0b050"/>
      <stop offset=".69" stop-color="#c0b04f"/>
      <stop offset=".69" stop-color="#c0b04f"/>
      <stop offset=".7" stop-color="#c0b04e"/>
      <stop offset=".7" stop-color="#bfaf4d"/>
      <stop offset=".7" stop-color="#bfaf4d"/>
      <stop offset=".71" stop-color="#bfaf4c"/>
      <stop offset=".71" stop-color="#bfaf4b"/>
      <stop offset=".71" stop-color="#beae4a"/>
      <stop offset=".72" stop-color="#beae49"/>
      <stop offset=".72" stop-color="#beae49"/>
      <stop offset=".73" stop-color="#beae48"/>
      <stop offset=".73" stop-color="#bdad47"/>
      <stop offset=".73" stop-color="#bdad46"/>
      <stop offset=".74" stop-color="#bdad46"/>
      <stop offset=".74" stop-color="#bdac45"/>
      <stop offset=".75" stop-color="#bcac45"/>
      <stop offset=".75" stop-color="#bcab44"/>
      <stop offset=".75" stop-color="#bcab44"/>
      <stop offset=".76" stop-color="#bcab43"/>
      <stop offset=".76" stop-color="#bbaa42"/>
      <stop offset=".77" stop-color="#bbaa41"/>
      <stop offset=".77" stop-color="#bbaa41"/>
      <stop offset=".77" stop-color="#bbaa40"/>
      <stop offset=".78" stop-color="#baa93f"/>
      <stop offset=".78" stop-color="#baa93e"/>
      <stop offset=".79" stop-color="#baa93e"/>
      <stop offset=".79" stop-color="#baa93d"/>
      <stop offset=".79" stop-color="#b9a83d"/>
      <stop offset=".8" stop-color="#b9a83c"/>
      <stop offset=".8" stop-color="#b9a83b"/>
      <stop offset=".8" stop-color="#b9a83b"/>
      <stop offset=".81" stop-color="#b8a73a"/>
      <stop offset=".81" stop-color="#b8a739"/>
      <stop offset=".82" stop-color="#b8a738"/>
      <stop offset=".82" stop-color="#b8a738"/>
      <stop offset=".82" stop-color="#b7a637"/>
      <stop offset=".83" stop-color="#b7a636"/>
      <stop offset=".83" stop-color="#b7a636"/>
      <stop offset=".84" stop-color="#b7a635"/>
      <stop offset=".84" stop-color="#b6a535"/>
      <stop offset=".84" stop-color="#b6a534"/>
      <stop offset=".85" stop-color="#b6a533"/>
      <stop offset=".85" stop-color="#b6a533"/>
      <stop offset=".86" stop-color="#b5a432"/>
      <stop offset=".86" stop-color="#b5a431"/>
      <stop offset=".86" stop-color="#b5a431"/>
      <stop offset=".87" stop-color="#b5a430"/>
      <stop offset=".87" stop-color="#b4a330"/>
      <stop offset=".88" stop-color="#b4a32f"/>
      <stop offset=".88" stop-color="#b4a32e"/>
      <stop offset=".88" stop-color="#b3a22d"/>
      <stop offset=".89" stop-color="#b3a22d"/>
      <stop offset=".89" stop-color="#b3a22c"/>
      <stop offset=".89" stop-color="#b3a22b"/>
      <stop offset=".9" stop-color="#b2a12a"/>
      <stop offset=".9" stop-color="#b2a12a"/>
      <stop offset=".91" stop-color="#b2a129"/>
      <stop offset=".91" stop-color="#b2a128"/>
      <stop offset=".91" stop-color="#b1a028"/>
      <stop offset=".92" stop-color="#b1a027"/>
      <stop offset=".92" stop-color="#b1a027"/>
      <stop offset=".93" stop-color="#b1a026"/>
      <stop offset=".93" stop-color="#b09f25"/>
      <stop offset=".93" stop-color="#b09f25"/>
      <stop offset=".94" stop-color="#b09f24"/>
      <stop offset=".94" stop-color="#b09f23"/>
      <stop offset=".95" stop-color="#af9e23"/>
      <stop offset=".95" stop-color="#af9e22"/>
      <stop offset=".95" stop-color="#af9e22"/>
      <stop offset=".96" stop-color="#ae9d21"/>
      <stop offset="1" stop-color="#ae9d21"/>
    </radialGradient>
    <clipPath id="clippath-4">
      <rect class="st0" x="15.76" y="28.6" width=".76" height=".76"/>
    </clipPath>
    <clipPath id="clippath-5">
      <polygon class="st0" points="16.27 28.72 16.27 28.72 16.29 28.7 16.27 28.7 16.27 28.72"/>
    </clipPath>
    <radialGradient id="radial-gradient1" cx="214.03" cy="383.43" fx="214.03" fy="383.43" r="0" gradientTransform="translate(-149.13 -255.73) scale(.77 .74)" gradientUnits="userSpaceOnUse">
      <stop offset="0" stop-color="#f2eac6"/>
      <stop offset="0" stop-color="#f2e9c5"/>
      <stop offset="0" stop-color="#f1e9c4"/>
      <stop offset="0" stop-color="#f1e8c3"/>
      <stop offset=".02" stop-color="#f1e8c3"/>
      <stop offset=".02" stop-color="#f0e7c2"/>
      <stop offset=".02" stop-color="#f0e7c1"/>
      <stop offset=".03" stop-color="#efe6c0"/>
      <stop offset=".03" stop-color="#efe6c0"/>
      <stop offset=".04" stop-color="#efe5bf"/>
      <stop offset=".04" stop-color="#eee5be"/>
      <stop offset=".04" stop-color="#eee4bd"/>
      <stop offset=".05" stop-color="#eee4bc"/>
      <stop offset=".05" stop-color="#ede4bc"/>
      <stop offset=".05" stop-color="#ede3bb"/>
      <stop offset=".06" stop-color="#ece3ba"/>
      <stop offset=".06" stop-color="#ece3b9"/>
      <stop offset=".07" stop-color="#ece2b9"/>
      <stop offset=".07" stop-color="#ebe2b8"/>
      <stop offset=".07" stop-color="#ebe1b7"/>
      <stop offset=".08" stop-color="#ebe1b6"/>
      <stop offset=".08" stop-color="#ebe1b6"/>
      <stop offset=".09" stop-color="#eae0b5"/>
      <stop offset=".09" stop-color="#eae0b4"/>
      <stop offset=".09" stop-color="#eae0b3"/>
      <stop offset=".1" stop-color="#e9dfb3"/>
      <stop offset=".1" stop-color="#e9dfb2"/>
      <stop offset=".11" stop-color="#e8deb1"/>
      <stop offset=".11" stop-color="#e8deb0"/>
      <stop offset=".11" stop-color="#e8deb0"/>
      <stop offset=".12" stop-color="#e7ddaf"/>
      <stop offset=".12" stop-color="#e7ddae"/>
      <stop offset=".12" stop-color="#e7dcad"/>
      <stop offset=".13" stop-color="#e6dcac"/>
      <stop offset=".13" stop-color="#e6dbac"/>
      <stop offset=".14" stop-color="#e6dbab"/>
      <stop offset=".14" stop-color="#e6dbaa"/>
      <stop offset=".14" stop-color="#e5daaa"/>
      <stop offset=".15" stop-color="#e5daa9"/>
      <stop offset=".15" stop-color="#e5daa9"/>
      <stop offset=".16" stop-color="#e5daa8"/>
      <stop offset=".16" stop-color="#e4d9a7"/>
      <stop offset=".16" stop-color="#e4d9a7"/>
      <stop offset=".17" stop-color="#e4d9a6"/>
      <stop offset=".17" stop-color="#e4d8a5"/>
      <stop offset=".18" stop-color="#e3d8a4"/>
      <stop offset=".18" stop-color="#e3d7a4"/>
      <stop offset=".18" stop-color="#e3d7a3"/>
      <stop offset=".19" stop-color="#e3d7a2"/>
      <stop offset=".19" stop-color="#e2d6a1"/>
      <stop offset=".2" stop-color="#e2d6a1"/>
      <stop offset=".2" stop-color="#e2d6a0"/>
      <stop offset=".2" stop-color="#e2d69f"/>
      <stop offset=".21" stop-color="#e1d59f"/>
      <stop offset=".21" stop-color="#e1d59e"/>
      <stop offset=".21" stop-color="#e1d59e"/>
      <stop offset=".22" stop-color="#e0d59d"/>
      <stop offset=".22" stop-color="#e0d49c"/>
      <stop offset=".23" stop-color="#dfd49b"/>
      <stop offset=".23" stop-color="#dfd49b"/>
      <stop offset=".23" stop-color="#dfd39a"/>
      <stop offset=".24" stop-color="#ded39a"/>
      <stop offset=".24" stop-color="#ded299"/>
      <stop offset=".25" stop-color="#ded299"/>
      <stop offset=".25" stop-color="#ded298"/>
      <stop offset=".25" stop-color="#ddd197"/>
      <stop offset=".26" stop-color="#ddd196"/>
      <stop offset=".26" stop-color="#ddd196"/>
      <stop offset=".27" stop-color="#ddd195"/>
      <stop offset=".27" stop-color="#dcd094"/>
      <stop offset=".27" stop-color="#dcd093"/>
      <stop offset=".28" stop-color="#dcd093"/>
      <stop offset=".28" stop-color="#dccf92"/>
      <stop offset=".29" stop-color="#dbcf92"/>
      <stop offset=".29" stop-color="#dbce91"/>
      <stop offset=".29" stop-color="#dbce90"/>
      <stop offset=".3" stop-color="#dbce90"/>
      <stop offset=".3" stop-color="#dacd8f"/>
      <stop offset=".3" stop-color="#dacd8e"/>
      <stop offset=".31" stop-color="#dacd8e"/>
      <stop offset=".31" stop-color="#dacd8d"/>
      <stop offset=".32" stop-color="#d9cc8d"/>
      <stop offset=".32" stop-color="#d9cc8c"/>
      <stop offset=".32" stop-color="#d9cc8b"/>
      <stop offset=".33" stop-color="#d9cc8b"/>
      <stop offset=".33" stop-color="#d8cb8a"/>
      <stop offset=".34" stop-color="#d8cb89"/>
      <stop offset=".34" stop-color="#d8cb89"/>
      <stop offset=".34" stop-color="#d8ca88"/>
      <stop offset=".35" stop-color="#d7ca88"/>
      <stop offset=".35" stop-color="#d7c987"/>
      <stop offset=".36" stop-color="#d7c986"/>
      <stop offset=".36" stop-color="#d7c986"/>
      <stop offset=".36" stop-color="#d6c885"/>
      <stop offset=".37" stop-color="#d6c884"/>
      <stop offset=".37" stop-color="#d6c884"/>
      <stop offset=".38" stop-color="#d5c783"/>
      <stop offset=".38" stop-color="#d5c782"/>
      <stop offset=".38" stop-color="#d5c782"/>
      <stop offset=".39" stop-color="#d5c781"/>
      <stop offset=".39" stop-color="#d4c680"/>
      <stop offset=".39" stop-color="#d4c680"/>
      <stop offset=".4" stop-color="#d4c67f"/>
      <stop offset=".4" stop-color="#d4c67e"/>
      <stop offset=".41" stop-color="#d3c57e"/>
      <stop offset=".41" stop-color="#d3c57d"/>
      <stop offset=".41" stop-color="#d3c57d"/>
      <stop offset=".42" stop-color="#d3c47c"/>
      <stop offset=".42" stop-color="#d2c47c"/>
      <stop offset=".43" stop-color="#d2c37b"/>
      <stop offset=".43" stop-color="#d2c37b"/>
      <stop offset=".43" stop-color="#d1c37a"/>
      <stop offset=".44" stop-color="#d1c279"/>
      <stop offset=".44" stop-color="#d0c279"/>
      <stop offset=".45" stop-color="#d0c278"/>
      <stop offset=".45" stop-color="#d0c277"/>
      <stop offset=".45" stop-color="#cfc177"/>
      <stop offset=".46" stop-color="#cfc176"/>
      <stop offset=".46" stop-color="#cfc176"/>
      <stop offset=".46" stop-color="#cfc175"/>
      <stop offset=".47" stop-color="#cec074"/>
      <stop offset=".47" stop-color="#cec073"/>
      <stop offset=".48" stop-color="#cec073"/>
      <stop offset=".48" stop-color="#cec072"/>
      <stop offset=".48" stop-color="#cdbf72"/>
      <stop offset=".49" stop-color="#cdbf71"/>
      <stop offset=".49" stop-color="#cdbf71"/>
      <stop offset=".5" stop-color="#cdbe70"/>
      <stop offset=".5" stop-color="#ccbe6f"/>
      <stop offset=".5" stop-color="#ccbd6e"/>
      <stop offset=".51" stop-color="#ccbd6e"/>
      <stop offset=".51" stop-color="#ccbd6d"/>
      <stop offset=".52" stop-color="#cbbc6d"/>
      <stop offset=".52" stop-color="#cbbc6c"/>
      <stop offset=".52" stop-color="#cbbc6c"/>
      <stop offset=".53" stop-color="#cbbc6b"/>
      <stop offset=".53" stop-color="#cabb6a"/>
      <stop offset=".54" stop-color="#cabb69"/>
      <stop offset=".54" stop-color="#cabb69"/>
      <stop offset=".54" stop-color="#cabb68"/>
      <stop offset=".55" stop-color="#c9ba68"/>
      <stop offset=".55" stop-color="#c9ba67"/>
      <stop offset=".55" stop-color="#c9ba66"/>
      <stop offset=".56" stop-color="#c9ba66"/>
      <stop offset=".56" stop-color="#c8b965"/>
      <stop offset=".57" stop-color="#c8b964"/>
      <stop offset=".57" stop-color="#c8b964"/>
      <stop offset=".57" stop-color="#c8b963"/>
      <stop offset=".58" stop-color="#c7b863"/>
      <stop offset=".58" stop-color="#c7b862"/>
      <stop offset=".59" stop-color="#c7b861"/>
      <stop offset=".59" stop-color="#c7b861"/>
      <stop offset=".59" stop-color="#c6b760"/>
      <stop offset=".6" stop-color="#c6b75f"/>
      <stop offset=".6" stop-color="#c6b75e"/>
      <stop offset=".61" stop-color="#c6b65e"/>
      <stop offset=".61" stop-color="#c5b65d"/>
      <stop offset=".61" stop-color="#c5b55c"/>
      <stop offset=".62" stop-color="#c5b55c"/>
      <stop offset=".62" stop-color="#c5b55b"/>
      <stop offset=".62" stop-color="#c4b45b"/>
      <stop offset=".63" stop-color="#c4b45a"/>
      <stop offset=".63" stop-color="#c4b459"/>
      <stop offset=".64" stop-color="#c3b358"/>
      <stop offset=".64" stop-color="#c3b358"/>
      <stop offset=".64" stop-color="#c3b357"/>
      <stop offset=".65" stop-color="#c3b356"/>
      <stop offset=".65" stop-color="#c2b255"/>
      <stop offset=".66" stop-color="#c2b255"/>
      <stop offset=".66" stop-color="#c2b254"/>
      <stop offset=".66" stop-color="#c2b253"/>
      <stop offset=".67" stop-color="#c1b152"/>
      <stop offset=".67" stop-color="#c1b152"/>
      <stop offset=".68" stop-color="#c1b151"/>
      <stop offset=".68" stop-color="#c1b150"/>
      <stop offset=".68" stop-color="#c0b050"/>
      <stop offset=".69" stop-color="#c0b04f"/>
      <stop offset=".69" stop-color="#c0b04f"/>
      <stop offset=".7" stop-color="#c0b04e"/>
      <stop offset=".7" stop-color="#bfaf4d"/>
      <stop offset=".7" stop-color="#bfaf4d"/>
      <stop offset=".71" stop-color="#bfaf4c"/>
      <stop offset=".71" stop-color="#bfaf4b"/>
      <stop offset=".71" stop-color="#beae4a"/>
      <stop offset=".72" stop-color="#beae49"/>
      <stop offset=".72" stop-color="#beae49"/>
      <stop offset=".73" stop-color="#beae48"/>
      <stop offset=".73" stop-color="#bdad47"/>
      <stop offset=".73" stop-color="#bdad46"/>
      <stop offset=".74" stop-color="#bdad46"/>
      <stop offset=".74" stop-color="#bdac45"/>
      <stop offset=".75" stop-color="#bcac45"/>
      <stop offset=".75" stop-color="#bcab44"/>
      <stop offset=".75" stop-color="#bcab44"/>
      <stop offset=".76" stop-color="#bcab43"/>
      <stop offset=".76" stop-color="#bbaa42"/>
      <stop offset=".77" stop-color="#bbaa41"/>
      <stop offset=".77" stop-color="#bbaa41"/>
      <stop offset=".77" stop-color="#bbaa40"/>
      <stop offset=".78" stop-color="#baa93f"/>
      <stop offset=".78" stop-color="#baa93e"/>
      <stop offset=".79" stop-color="#baa93e"/>
      <stop offset=".79" stop-color="#baa93d"/>
      <stop offset=".79" stop-color="#b9a83d"/>
      <stop offset=".8" stop-color="#b9a83c"/>
      <stop offset=".8" stop-color="#b9a83b"/>
      <stop offset=".8" stop-color="#b9a83b"/>
      <stop offset=".81" stop-color="#b8a73a"/>
      <stop offset=".81" stop-color="#b8a739"/>
      <stop offset=".82" stop-color="#b8a738"/>
      <stop offset=".82" stop-color="#b8a738"/>
      <stop offset=".82" stop-color="#b7a637"/>
      <stop offset=".83" stop-color="#b7a636"/>
      <stop offset=".83" stop-color="#b7a636"/>
      <stop offset=".84" stop-color="#b7a635"/>
      <stop offset=".84" stop-color="#b6a535"/>
      <stop offset=".84" stop-color="#b6a534"/>
      <stop offset=".85" stop-color="#b6a533"/>
      <stop offset=".85" stop-color="#b6a533"/>
      <stop offset=".86" stop-color="#b5a432"/>
      <stop offset=".86" stop-color="#b5a431"/>
      <stop offset=".86" stop-color="#b5a431"/>
      <stop offset=".87" stop-color="#b5a430"/>
      <stop offset=".87" stop-color="#b4a330"/>
      <stop offset=".88" stop-color="#b4a32f"/>
      <stop offset=".88" stop-color="#b4a32e"/>
      <stop offset=".88" stop-color="#b3a22d"/>
      <stop offset=".89" stop-color="#b3a22d"/>
      <stop offset=".89" stop-color="#b3a22c"/>
      <stop offset=".89" stop-color="#b3a22b"/>
      <stop offset=".9" stop-color="#b2a12a"/>
      <stop offset=".9" stop-color="#b2a12a"/>
      <stop offset=".91" stop-color="#b2a129"/>
      <stop offset=".91" stop-color="#b2a128"/>
      <stop offset=".91" stop-color="#b1a028"/>
      <stop offset=".92" stop-color="#b1a027"/>
      <stop offset=".92" stop-color="#b1a027"/>
      <stop offset=".93" stop-color="#b1a026"/>
      <stop offset=".93" stop-color="#b09f25"/>
      <stop offset=".93" stop-color="#b09f25"/>
      <stop offset=".94" stop-color="#b09f24"/>
      <stop offset=".94" stop-color="#b09f23"/>
      <stop offset=".95" stop-color="#af9e23"/>
      <stop offset=".95" stop-color="#af9e22"/>
      <stop offset=".95" stop-color="#af9e22"/>
      <stop offset=".96" stop-color="#ae9d21"/>
      <stop offset="1" stop-color="#ae9d21"/>
    </radialGradient>
  </defs>
  <g id="surface1633">
    <path id="path13600" class="st9" d="M0,31.48V0h31.15v31.53c0,1.32-.78,2.54-2,3.11l-13.57,6.44-13.57-6.48C.78,34.01,0,32.8,0,31.48"/>
    <g class="st14">
      <g id="g13606">
        <g class="st3">
          <g id="g13604">
            <path id="path13602" class="st1" d="M9.83,8.62v9.79H0v10.1h9.82v12.56h11.51v-12.56h9.82v-10.1h-9.82v-9.79h-11.51Z"/>
          </g>
        </g>
      </g>
    </g>
    <path id="path13608" class="st12" d="M25.82,37.64l-10.23,4.85-10.24-4.85c-1-.47-2.17-.47-3.17,0l-2.06.98c-.07.03-.11.1-.11.17v5.69c0,.57.62.95,1.15.69l1.02-.49c1-.48,2.17-.48,3.17,0l9.36,4.44c.55.26,1.21.26,1.76,0l9.36-4.44c1-.47,2.17-.47,3.17,0l1.02.49c.53.25,1.15-.12,1.15-.69v-5.69c0-.07-.05-.14-.11-.17l-2.06-.98c-1-.48-2.17-.48-3.17,0"/>
    <path id="path13610" d="M27.4,37.28c-.54,0-1.09.12-1.58.36l-10.23,4.85-10.24-4.85c-.5-.24-1.04-.36-1.58-.36s-1.09.12-1.59.36l-2.06.98c-.07.03-.11.1-.11.17v5.69c0,.45.38.77.8.77.11,0,.24-.03.35-.08l1.02-.49c.5-.24,1.05-.36,1.59-.36s1.09.12,1.58.36l9.36,4.44c.28.13.58.2.88.2s.6-.07.88-.2l9.36-4.44c.5-.24,1.04-.36,1.58-.36s1.09.12,1.59.36l1.02.49c.11.05.24.08.35.08.42,0,.8-.33.8-.77v-5.69c0-.07-.04-.14-.11-.17l-2.06-.98c-.5-.24-1.05-.36-1.59-.36M27.4,37.57c.5,0,1.01.11,1.46.33l2,.96v5.63c0,.3-.26.49-.5.49-.08,0-.15-.02-.22-.05l-1.02-.49c-.53-.25-1.13-.39-1.72-.39s-1.18.14-1.71.39l-9.36,4.44c-.23.11-.49.17-.74.17s-.52-.05-.75-.17l-9.36-4.44c-.53-.25-1.12-.39-1.71-.39s-1.19.14-1.72.39l-1.02.49c-.07.03-.14.05-.22.05-.24,0-.5-.19-.5-.49v-5.63l2-.96c.45-.22.96-.33,1.46-.33s1,.11,1.45.33l10.23,4.85.14.06.13-.06,10.23-4.85c.45-.21.95-.33,1.45-.33"/>
    <path id="path13612" d="M27.4,38.05c-.43,0-.85.09-1.23.27l-10.59,5.03-10.59-5.03c-.38-.18-.8-.27-1.23-.27s-.85.1-1.24.28l-1.72.83v5.32l1.02-.49c.6-.29,1.28-.44,1.94-.44s1.34.15,1.94.43l9.36,4.44c.16.08.34.12.53.12s.36-.04.52-.12l9.36-4.44c.6-.28,1.27-.43,1.94-.43s1.34.15,1.94.44l1.02.49v-5.32l-1.72-.83c-.38-.18-.81-.28-1.24-.28M27.4,38.19c.41,0,.81.09,1.18.27l1.65.79v5.03l-.81-.39c-.62-.3-1.31-.46-2-.46s-1.37.15-2,.45l-9.36,4.44c-.14.07-.3.11-.46.11s-.33-.04-.46-.11l-9.36-4.44c-.61-.3-1.31-.45-2-.45s-1.38.16-2,.46l-.81.39v-5.03l1.65-.79c.36-.17.77-.27,1.18-.27s.8.09,1.17.26l10.59,5.03.06.03.06-.03,10.59-5.03c.36-.17.77-.26,1.17-.26"/>
    <path id="path13614" d="M31.15,8.62H0V0h31.15v8.62Z"/>
    <g class="st6">
      <g id="g13620">
        <g class="st4">
          <g id="g13618">
            <path id="path13616" class="st2" d="M5.29,16.14v13.66h20.75v-13.66H5.29Z"/>
          </g>
        </g>
      </g>
    </g>
    <g class="st5">
      <g id="g13626">
        <g class="st7">
          <g id="g13624">
            <path id="path13622" class="st11" d="M16.27,28.7v.02h.02v-.02h-.02Z"/>
          </g>
        </g>
      </g>
    </g>
    <path id="path13628" class="st8" d="M25.41,27.05c-.11.06-.26.11-.46.12-.24,0-.51-.08-.62-.02.07.26.75.2,1.16.2-.34.33-.75.33-1.23.27,0,0,0,.07.13.12.26.1.6.16.83.21-.2.07-.41.2-1.1.07.07.2.62.39.9.47-.2.13-.46.19-.61.19-.33,0-1.32-.43-1.62.21-.02.05-.02.1,0,.13l.06.12c.03.07-.02.18-.03.2-.1.22-.46.2-.65.08-.03-.02-.08-.05-.11-.14-.04-.1-.06-.2,0-.3l.11-.02c.45.05.24-.47-.14-.34-.12.05-.19.17-.34.2-.02,0-.08,0-.12-.05-.14-.17-.13-.58.05-.61.05-.02.09.03.1.04.14.18.52-.02.42-.24l-.07-.11c-.12-.12-.43-.05-.31-.34.07-.14.21-.41.41-.41.17,0,.2.2.28.33.04.07.2.33.41.33.55,0,.96-.79.76-1.33-.27-.73-1.17-.46-1.86-.58-1.76-.27-2.25-1.3-3.32-2.6l-.1-.08c-.1-.05-.17-.03-.29.03-.82.39-1.43.73-2.32,1.12-.14.07-.27.13-.49.2.14-.2.41-.55.55-.74-.55.26-.96.66-1.72.99-.07,0-.14,0-.14-.07.08-.19.21-.27.34-.67-.07-.06-.1,0-.2.07-.75.53-1.17.99-1.85.87,0,.13.27.39.68.53-.2.19-.89.13-1.23-.08-.07.33.54.53.68.6-.34.27-1.03,0-1.37-.13-.07,0,0,.07,0,.07.2.39,1.03.46,1.37.46-.55.27-1.1.41-1.72.08-.14.19.54.58.68.66,0,.13-.75.07-1.24-.33-.07.19.55.58.61.66-.27.26-.84.02-1.03-.05-.05-.02-.09-.04-.11-.05l-.02.03c.07.27.41.41.69.53-.55.27-.96-.07-1.17-.27-.14,0-.62.47-.62.53-.07.13,0,.27-.07.46-.06.12-.17.39-.24.41l-.07-.03c-.07-.08.02-.39-.1-.44-.61-.27-.55.33-.82.53-.27.13-.68-.33-.68-.47,0-.05.05-.22.2-.12l.08.05h.08c.12-.03.12-.14.12-.19,0-.2-.07-.33-.34-.26-.06.03-.06.12-.17.14l-.11-.02c-.2-.2-.2-.67-.07-.73.2-.07.27.19.47.13.14-.07.14-.46,0-.52-.12-.07-.31.16-.45.04l-.02-.1c.08-.25.27-.53.39-.53.18,0,.2.34.43.52.04.03.24.15.3.17.44.2.96.14,1.25.02,1.24-.53.68-1.39,1.09-1.59.9-.39.49-.79.83-.99.07.07.07.39.27.47.08-.4.14-.66.55-.53.13.2.27.39.47.53.08,0,.08-.47.08-.66.34.26.88.26.82.13-.07-.07-.34-.39-.34-.53.34.2.9.08.82-.07-.07-.06-.13-.13-.13-.19.06-.14.34-.14.47-.14,0-.27-.27-.6,0-.93.21.14.27.27.55.27,0-.19-.07-.46.07-.66.61,0,1.09,0,1.51-.07.89-.2,1.57-.53,2.54-.73.27-.07.48-.14.75-.2.38,0,.8.33.99.63.05.08.23.41.29.49.24.31.52.6.84.81.28.2.55.46.69.79.14.22.19.5.3.76.06.14.2.36.36.44.71.36,1.34-.52,1.66-.2l.05.08.05.08c.06.04.11.04.11.04.48,0,.82-.07,1.23-.27.08,0-.54.73-1.23.8.14.13,1.09-.08,1.31-.2-.14.39-.68.67-1.24.6h-.04s.02.05.14.09c.26.05.75.11.93.11,0,.14-1.02.14-1.02.33.82-.13.9.14,1.24,0,.08.08-.05.2-.22.3M23.99,28.85c0,.1.03.31-.21.43,0-.33,0-.39-.28-.6-.06-.05.27,0,.45.11l.05.07ZM21.25,29.61c.2,0,.41,0,.54-.13.08.06.14.13.21.19-.14.14-.69.14-.75-.07M20.75,27.49c.08-.14.55-.47.83-.27-.07.07-.14.33-.14.33-.27-.14-.41-.14-.68-.07M19.66,26.56c.14.06.31.27.34.33.05.08.07.25-.07.33-.27.13-.82.66-.27,1.26-.75-.14-.54-.66-.34-1.13.04-.08-.02-.1-.07-.07-.47.46-.34.93-.55,1.33-.27-.33-.14-.87.08-1.12,0,0-.02-.03-.08,0-.34.19-.55.79-.69,1.12-.24-.25-.04-.89,0-.93,0,0,0-.04-.06,0-.34.27-.47.67-.62,1.06-.27-.19-.2-.52-.2-.79-.2.13-.02.75-.5.92h-.08c-.08-.07-.02-.12.04-.19.11-.14.14-.3.05-.42l-.19-.17c-.25-.21-.5-.27-.74-.27-.26.04-.62.26-.83.59-.06.08-.2.11-.34.07-.27-.07-.54-.53-.27-.74.14-.07.2.14.42.08.12-.07.13-.43-.09-.47-.07-.02-.12-.02-.2.02-.12.05-.19.17-.28.1l-.05-.09c-.04-.2.02-.62.29-.63.06,0,.09.05.11.07.05.09.11.14.17.14.29,0,.29-.2.24-.37,0-.03-.03-.11-.11-.11-.14-.02-.34.06-.4-.05-.14-.19.13-.52.34-.52.27,0,.2.33.48.39.14.07.37.08.55.2.07.04.11.06.14.13.14.6,1.03.53,1.5.46.96-.13,1.52-.79.83-1.24-.41-.27-1.02-.08-1.51-.14-.75-.13-.89-.46-.68-.99.06-.14.39-.22.49-.27.09-.05.47-.33.47-.2-.12.17-.19.47-.3.72l-.03.11c.04.05.09.07.14.03.41-.39.41-.52.95-.86.2.46.76.46.9,0,.35.33.78.77.75.86-.07.27-.2.67-.2.99.03.26.34.36.54.47M15.69,28.68c.2-.19.27-.33.34-.52.05-.08.18.02.27.07.2.13-.41.52-.61.46M13.56,26.17c.14-.2.49-.33.62-.14-.05.07-.07.18-.12.25l-.08.02c-.14-.07-.27-.13-.42-.13M6.32,28.88c.11.03.19.21.2.29l-.04.06c-.11.11-.54.1-.67.04.19-.06.33-.19.46-.37l.04-.02ZM6.06,26.85c-.07-.02-.24-.08-.45-.02.14-.26.39-.27.6-.27l.02.02c0,.05-.05.11-.11.2l-.06.07h0ZM8.64,24.24l-.03-.08s-.05-.03-.11.02c-.62.39-1.03.26-1.11.26.69-.39.55-.46.9-.99-.14-.19-.55.27-.82.2.12-.06.19-.17.31-.39l.07-.15c.14-.33.38-.38.38-.38-.14-.13-.9.39-.9.39.2-.65.54-.79.61-1.1v-.06l-.02-.02-.08.03c-.47.49-.8.56-1.14.56.08-.33,1.14-.53,1.23-1.1l-.02-.04c-.08,0-.21.22-.46.28-.2.06-.49.06-.55.06.27-.33.41-.39.68-.66-.27,0-.62.14-.9.14l-.02-.05.05-.05c.41-.31.87-.24.87-.65,0-.11-.05-.23-.16-.3l-.11-.03c-.22,0-.62-.02-.55-.26.41.13.75-.07.61-.47-.12-.24-.36-.2-.6-.15-.08.03-.11,0-.13-.02-.17-.14-.05-.43.08-.49l.09-.04c.16-.05.29.17.4,0l.03-.1c.02-.39-.42-.22-.42-.4.07-.27.41-.41.62-.41.19,0-.1.35.26.4.05,0,.15-.04.22-.11.24-.24-.14-.29-.13-.36,0-.24.51-.2.65-.1.08.04.16.17.06.27-.11.11-.22.22-.28.41-.04.11-.21,1.59.02,2.21.04.08.06.11.08.12.14.13.31.09.43.21.2.19.76,1.12.68,1.18-.14.2-.34.33-.48.47,0,.13.21.13.34.2.07,0-.41.47-.68.6v.07c.21.2.47.07.68.2-.14.33-.21.33-.41.66.07.13.75-.06.89,0,.08.51-1.02.6-1.15,0M6.29,17.61c.21-.06.55.07.62.13.02,0-.04.05-.08.11-.05.08-.11.19-.14.15-.2-.39-.54-.33-.41-.39M7.64,17.3c-.06-.1-.12-.16-.25-.22.27-.06.55,0,.69.27-.11,0-.21.08-.32.05-.06-.02-.09-.06-.12-.1M11.02,19.87c.21.13.28.33.35.46v.27c0,.06-.14.06-.21.06-.82.33-.54,1.2-1.57,1.72h-.07c.69-.6.61-1.85,1.5-2.51M10.96,19.73c-.61.39-.61.99-1.31.87l-.02-.05c.76-.64.71-1.02,1.18-1.22,0,.13.08.27.14.39M10.96,18.61c-.07.19-.07.27-.2.52-.54.14-.41.74-1.1.87-.07.02-.11,0-.14,0,.14-.79.89-1.26,1.43-1.39M9.93,18.65c.21-.24.64-.4.83-.49l.1-.03c.11,0,.11.08.17.14l.02.12c-.02.08-.05.09-.06.09-.2.11-.54.06-.99.18-.07.02-.09,0-.07-.02M10.07,17.95c.21-.14.41-.2.68-.27v.27c-.2,0-.47.07-.75.13-.09.02,0-.1.07-.13M10.96,17.22c-.07.07-.14.19-.2.26-.2,0-.41-.07-.62-.19.55-.39.9-.14.83-.07M11.64,17.15c-.07.08-.14-.13-.49,0-.07,0-.14,0-.27-.13-.11-.12-.14-.07-.27-.27.41,0,.75,0,1.03.39M12.34,17.35h-.41c-.14-.27-.34-.53-.42-.87.55.14.83.6.83.87M13.02,17.02c-.07.2-.14.33-.21.53,0,.05-.07-.08-.27-.14-.2-.39-.27-.67-.34-1.12.42.27.61.46.83.73M13.98,16.62l.17-.02.17.02c0,.07-.03.09-.08.13-.34.27-.68.6-.88.93h-.34c.07-.39.27-.99.96-1.06M14.22,17.12c.11-.04.51-.14.58-.15.23,0,.47.09.68.05.06-.02.07,0,.07,0-.14.2-.34.13-.68.2-.54.07-.68.19-1.03.58-.14,0-.14-.06-.2-.06.14-.39.3-.53.58-.62M15.62,17.29c-.06.17-.18.43-.37.46l-.11.02c-.31.05-.57,0-.89.26-.07,0-.07-.07-.14,0-.07.06-.24-.1-.21-.13.69-.66,1.03-.53,1.65-.66,0,0,0,.07.07.07M15.62,18.14l-.07.08c-.27.13-.48-.08-.75.07-.07.05-.07-.07-.14-.14-.08,0-.23-.07-.21-.07.41-.19.75-.27,1.16.07M14.86,19.93c-.14-.33-.34-.6-.62-.8.42-.06.42-.13.42-.13.2,0,.48.13.61.39.2.73.08,1.13.34,2.19-.41-.07-.54-1.2-.75-1.65M14.04,19.54c-.07,0,.07-.27.07-.27.07-.07.14,0,.21.06.68.6.34,1.72,1.03,2.32.07.13-.42,0-.55-.2-.41-.58-.2-1.06-.75-1.91M13.64,20.06s.09-.02.14-.07c.07-.07.13-.27.13-.2.28.27.49.8.49,1.33.14.6.41.8.34.8-.21-.06-.41-.2-.55-.33-.14-.27-.14-.73-.54-1.53M13.15,20.39c-.06,0,.28-.13.34-.19.21.33.34.79.34,1.18.14.39,0,.87-.07,1.2-.48-.39-.28-1.06-.41-1.59-.07-.2-.14-.39-.21-.6M11.37,18.47c0-.07-.07-.26.13-.33.08,0,.14-.07.21-.13.07,0,.14.13.21.2-.08.19-.27.33-.21.52,0,0,.07.06.14.06.14-.06.27-.13.34-.33h.08s.07,0,.07.08c0,.06-.07.19-.07.26-.08.14-.27.2-.34.27-.08.06-.21.06-.21.14.07.13.14.19.21.26.07.08.14,0,.2,0,0,.08-.07.14-.07.27-.07,0-.21-.07-.27-.07-.07-.06-.14-.13-.14-.2,0-.07,0-.19-.07-.26h-.2s-.07.09-.07.13c0,.07,0,.13.07.13.13,0,.13.14.2.2.07.13.27.13.14.27-.07,0-.07.07-.14.13-.08,0-.08-.07-.08-.13-.13-.2-.27-.39-.41-.66.07-.27.21-.53.28-.8M12.61,18.41c-.21-.07-.83-.66-.9-.66,0,0-.05.22-.32.26-.03,0-.1.02-.15-.03-.15-.11-.19-.42-.03-.61.02-.04.16-.06.21-.06.11,0,.2.07.29.24.27,0,.62.06.82.19.14,0,.21.14.21.27-.07.13-.07.33-.14.39M13.84,18.47c-.2-.07-.82.2-1.09,0,.07-.19.27-.52.55-.52.2-.07.54.19.61.39,0,0,.08,0,.14-.06.14,0,.28,0,.41.13.07.07.07.14,0,.27-.07.07-.34.33-.47.07-.08-.07,0-.19-.14-.27M12.61,19.27c.07.13.14.19,0,.27,0,0-.08.07-.08,0l-.2-.2c-.14-.13-.27,0-.41,0v-.13c.34-.08.47-.33.61-.6h.08c.07.07-.21.39,0,.67M11.93,20.72c.14-.19.27-.86.34-.73.27.53-.34,1.19-.49,1.12-.14,0-.28-.79.14-1.19,0-.07.07,0,.07,0-.07.27-.14.52-.14.79h.08ZM13.02,19.67s-.09.02-.14.07c0,.2-.54.07-.61,0v-.27c.07-.07.14.2.27.2.14.07.14,0,.27-.13.07,0,0-.08,0-.08-.13-.19-.2-.52-.07-.79h.14c.14.13,0,.39.14.46.07.08.13.14.2.14.21-.07.08-.27.14-.47.07-.06.2-.19.41-.19,0,.07,0,.13.07.19,0,.08.2.14.07.2-.13.2-.2.46-.27.73-.14.2-.68.39-1.11.66-.07-.06,0-.19-.07-.39.14,0,.28,0,.41-.07.08,0,.27.07.34-.07,0-.14-.07-.27-.2-.2M9.1,23.31c.76-.53.96-1.06,1.52-1.65,0,.27,0,.73-.27,1.12-.27.41-.96.47-1.24.53M11.09,24.1c-.14.14-.2.14-.34.41,0,0-.2-.53-.07-.8.07-.07.21-.2.27-.33.07.2.07.53.14.73M10.96,23.05c-.07.33-.83,1.13-1.65.99,1.99-1.18,1.16-2.18,1.65-2.92.14-.07.2-.26.41-.26,0,.26.2.39.13.52-.2.39-.48,1.2-.54,1.65M11.64,24.7c-.41-.39-.49-1.33-.49-1.85.08-.33.21-1.07.42-1.4,0,0,0,.08.07.08.2,0,.2-.08.41-.2,0,1.26-.75,1.06-.41,3.38M12.34,24.44c-.49-.07-.62-.73-.49-1.52.08-.6.42-.99.34-1.72.08,0,.2-.2.2-.33.48.99-.47,2.25.34,3.04-.48.13-.62-.47-.62-.33-.07.27.07.6.21.86M13.22,23.37c-.34-.27-.41-.39-.54-.73-.07-.6.2-1.19-.07-1.78,0-.08-.14-.2,0-.2.14-.06.27-.13.34-.2.27.27.27,1.13.27,1.4-.07.58-.2.86,0,1.52M15.76,19.61s-.02.06-.07.06c-.08,0-.21-.06-.27-.33-.07-.27-.34-.46-.62-.53.07-.13,0-.26,0-.39.21-.07.41-.07.55.07.2.14.07.47.34.99,0,.08.07.08.07.14M15.83,20.12l.07-.06c.34.73,1.17.8,1.93.66,1.37-.19,3.22-.93,4.39-.93.41,0,1.37.2,1.37.8,0,.39-.14.6-.42.85-.41.27-1.43.33-1.84.33-.3,0-1.13,0-1.47-.27-.05-.04-.23-.18-.28-.2-.2-.08-.38-.12-.65-.12-.96,0-2.06.52-2.88.52-.14,0-.27-1.18-.2-1.59M19.12,19.46c0,.08-1.03.4-1.45.4-.75,0-.89-.33-.89-.66-.07-.41.69-.99,1.16-.74.41.27.68.74,1.17.99M16.44,18.28c.41-.39,1.16-.6,1.16-.99.07-.51-.49-.58-.54-.6.2-.13.69.06.82.33.07.06.07-.46-.07-.73,0,0,.05,0,.14.05.54.39.53.9.33,1.28-.02.05.08.14.14.07.26-.52.92-.46,1.4-.65l.06-.02.05.06c-.12.06-.2.18-.26.25v.05s.07.04.13.04c.89,0,1.37-.39,1.43-.33,0,.07-.14.39-1.43.73-.27.41.2.74.14.8-.34.07-.55-.14-.55-.47,0-.05,0-.06-.05-.07l-.05.04c-.34.47.32,1.1.78,1.22v.07s-.11.02-.2,0c-1.4-.26-1.12-1.32-2.28-1.27-.03,0-.12,0-.19.03-.34.11-.84.49-.96.91-.07.39.2.87.54.99.96.27,1.72-.2,2.54-.52.41.13.82.07,1.02-.14,0,0-.27-.07-.34-.19h.11c.44-.08.64-.22.57-.74.34,0,.68.4.75.53.21,0-.14-.6-.21-.73.42.13.76.19.96.66.2,0-.14-.87-.07-.8.68.33.62.93.68.87.21-.27.07-.53.14-.73.41.19.74.45.57.83v.07l.05.04c.14,0,.34-.41.34-.47.21.27.34.6.21.87-.03.05-.05.06-.06.1l.02.05c.06.04.13,0,.18-.02.34-.19.27-.6.49-.73.19.69.08,1.09-.59,1.3-.12.04-.17.09-.17.09.08.33,0,.67-.14.93-.21.53-.61.73-1.09.93-.68.27-2.06.19-2.61-.2-.09-.08-.13-.13-.2-.19.89.26,3.22.39,3.63-.87.34-.87-.47-1.45-1.16-1.53-1.43-.13-2.67.47-4.39.99-.82.2-2.26.14-2.26-.99-.07-.46.08-.86.49-1.18M20.75,28.95c0-.13.21-.53.42-.53,0,.14.07.27.14.4.07.07-.41.07-.55.13M13.9,28.41c-.34,0-.41.07-.61.14,0-.13.36-.43.58-.4l.03.04c0,.1,0,.11.08.23h-.08,0ZM13.77,27.29c0,.06-.04.05-.09.02l-.1-.04c-.18-.05-.3-.05-.43.02.07-.2.41-.33.62-.27.07.02-.07,0,0,.27M5.95,28.05l-.05.02c-.16-.05-.24-.04-.49.09.07-.27.48-.4.54-.33v.23h0ZM6.37,18.97l-.03.04c-.19.02-.39-.46-.32-.54.08,0,.08.2.42.27,0,.05-.05.16-.07.23M26.32,26.49c-.14,0-.42.07-.55-.08.14-.26.34-.19.34-.33-.07-.06-.2-.06-.27-.13-.07-.13.21-.39.14-.66-.08-.07-.14-.02-.21,0-.21.06.27-.39.07-.53-.47.14-.82.47-1.37.4-.06-.07-.13-.43-.6-.46-.03,0-.08,0-.16.05-.3.2-.84.46-1.09.27-.18-.12-.27-.42-.33-.67-.03-.14-.11-.54-.17-.62-.26-.41-.99-.56-1.22-1.21,1.22.26,3.61.26,3.56-1.96l.05-.08c.2-.12.9-.42.73-1.2,0-.02-.02-.11-.02-.16,0-.16.02-.32.11-.47.04-.06.09-.11.09-.11-.34-.27-.88,1.29-1.29-.35,0-.04-.07-.14-.14-.12,0,.14-.16.36-.27.33-.34-.13-.62-.93-.9-.85.07.31.14.56-.04.58h-.06c-.26-.08-.46-.33-.72-.39-.07.14.07.27-.07.39-.49.08-.75-.13-1.03-.19,0,.06.05.11.07.23l-.02.05c-.12.09-.3,0-.37-.02l-.03.02c0,.11.28.24.18.55-.03.09-.06.14-.08.15-.15.17-.67.3-.85-.06-.08-.14.41-.14.48-.2-.07-.13-.28-.2-.14-.53.07-.33,1.43-.58,1.37-1.33-.27-.07-1.17.53-1.1-.26-.07,0-.09.02-.11.03-.34.25-.8.49-1.27.43-.41-.13-.75-.87-1.5-.99v.46c-.48,0-.9,0-.96.27.41,0,.68,0,.83.39.14.41-.83.6-1.37,1.19-.17-.12-.42-.46-.49-.46.16-.17.25-.36.26-.54,0-.17-.05-.34-.11-.46-.05-.09-.08-.14-.14-.2-.34.2-1.1.13-.75-.2-.07,0-.14-.07-.34,0-.41,0-.9,0-1.24.27-.27-.33-.68-.6-1.09-.66-.07-.07-.14-.13-.2-.13-.08.33-.27.39-.62.33,0,.13.07.27.07.33,0,0-.35-.14-.75,0-.21,0-.41-.07-.49-.07,0,.07.21.19.21.26-.07.33-.48.41-.62.53.14.13.2.13.27.27.05.08-.41.46-.48.52.14.08.45.12.41.2-.14.27-.49.46-.49.79.08,0,.14-.06.27,0-.19.25-.33.55-.45.92-.03.07.02.11.05.13l.06.02c0,.19-.07.33-.14.46-.14.13-.68-.79-.68-1.45,0-1.4.28-1.13.28-1.4,0-.33-.34-.26-.49-.46-.27-.46-1.03-.6-1.37-.27.21.07.34.07.49.33.07.14-.08.14-.08.27-.13,0-.2.07-.27,0-.27-.2-.9-.46-1.3,0,.33.06.65.25.74.61v.08c-.15.33-.61-.24-.61-.24-.19.26-.2.87.21,1.05l.1.02c.14-.02.07.15.17.24l.13.05c.11.02.24,0,.35-.02.05,0,.09,0,.13.04.06.05.05.1-.02.17l-.09.07c-.12.04-.25-.02-.37-.02,0,0-.03.25.09.38.13.14.31.22.53.22.14,0,.14.2.07.27-.41.27-.75.33-.96.79.21-.06.41-.06.41.07,0,.2-.14.27-.27.41,0,0-.08,0-.08.06.14.07.34-.06.42.07.14.13-.49.46-.42.73.27-.07.61-.13.68.2,0,.19-.14.39-.34.52.27,0,.55-.13.62,0,.07.07-.41.33-.41.6.2-.06.34-.13.55-.06.14.27-.49.46-.55.46.2.33,1.09.27,1.5.08.14.58.9.58.9.66-.21.19-.41.59-.34.79.07.6-.27,1.12-.96,1.12-.41,0-.82-.06-.96-.46-.14-.39-.41-.39-.68-.2-.41-.19-.96.14-1.09.53.27-.07,1.09.2.61.66-.34,0-.68.2-.75.8,1.5-.39,1.3.53.27.8.61.52.89.33,1.43.13.1-.05.14-.02.2,0,.42.17.43-.36.55-.45.06-.05.14-.03.18,0l.05.05c.08.29-.15.41-.02.47.45.07.77-.51.81-.96l.06-.15c.08-.08.18-.2.29-.2.27-.07.55.47,1.65.14,0-.07-.14-.2-.07-.27.2-.07.41-.13.61-.2.21-.19.55-.13.76-.33-.08,0-.21-.06-.21-.13.07-.07.48-.07.41-.2,0,0-.07,0-.14-.06-.14-.07.96-.52.96-.66-.08,0-.42-.39-.27-.46.2-.06.47-.14.61-.33.2-.06,1.57-.47,2.13-.66,0,.46.05.7.24.87.14.12.3.2.57.26.41.06.83-.07,1.31,0,.41,0,.41.6-.07.73-.28.08-.55.08-.83.08-.49-.05-.58-.19-.75-.41-.07-.06-.07-.07-.22-.15-.19-.1-.34-.1-.51-.22-.17-.11-.24-.43-.5-.43-.17,0-.27.07-.34.13-.42-.26-1.11.2-1.03.66.18-.12.49-.13.65.19.02.02.02.05,0,.11-.02.06-.07.15-.12.11-.62-.33-1.09.52-.88.73.2-.14.47-.2.75,0,.14.06.14.19.14.33-.41.13-.62.27-.75.93-.02.11.06.07.06.07.34-.27.69-.27,1.03-.27.2.2.49.27.68.13.29-.2.55-.6.68-.65.05-.02.1-.05.14.02.05.08,0,.23,0,.23-.04.15-.2.25-.34.34,0,.07.13.16.34.16.27,0,.42-.02.62-.14l.07-.02s.03,0,.02.07c-.02.11-.14.27-.08.27.34.07.61,0,.76-.27.14.14.2.33.41.41,0-.2.07-.47.27-.6,0,.13.2.66.34.52,0-.05.07-.24.14-.34l.08-.08c.08,0,.2.48.39.42.08-.19.27-.52.34-.59.27.07.68.19.96.13-.27-.33-.34-.46-.34-.79,0-.27.34-.34.49-.53s.19-.27.19-.46c-.07-.27-.41-.41-.62-.6-.27-.27-.07-.69-.05-.73l.05-.07c.34.27.62.47.9.66.34.27.82.33,1.24.27.47-.07,1.43,0,1.43.53,0,.27-.34.67-.62.6-.2-.14-.2-.53-.47-.6-.14-.06-.34.07-.49.19-.47-.19-.96-.13-1.3.53,0,.13.14.07.2.07.27-.07.62,0,.82.2,0,.07-.07,0-.27.33-.34.07-.68.6-.68,1.06.02.06,0,.07.07.07.34-.19.69-.33,1.1-.33.07.07.07.2.07.27-.27.13-.54.2-.82.2-.07,0-.05.08,0,.13.41.39,1.23.39,1.5.13.61.08.9-.39.68-.79-.03-.05.02-.12.07-.13.34-.08.49.39.42.73.36.12.71-.39.75-.66.41,0,.68-.07,1.16-.47-.11,0-.27-.04-.36-.13-.05-.05-.09-.07-.07-.12.07-.08.45-.24.56-.34,0-.08-.14-.14-.14-.2.07-.13.41-.2.41-.39,0,0-.27,0-.27-.07.07-.08.54-.4.68-.66"/>
    <path id="path13630" class="st13" d="M16.31,28.22c-.08-.05-.22-.15-.27-.06-.08.19-.14.33-.34.52.2.07.82-.33.61-.46"/>
    <path id="path13632" class="st13" d="M7.64,17.3s.06.08.12.1c.11.03.21-.05.32-.05-.14-.27-.41-.33-.69-.27.12.05.19.12.25.22"/>
    <path id="path13634" class="st13" d="M21.58,27.22c-.27-.2-.75.13-.83.27.27-.08.42-.08.68.07,0,0,.08-.27.14-.33"/>
    <path id="path13636" class="st13" d="M6.7,18.01s.08-.07.14-.15c.04-.06.09-.11.08-.11-.07-.07-.41-.19-.61-.13-.14.07.2,0,.41.39"/>
    <path id="path13638" class="st13" d="M11.93,19.93c-.42.39-.27,1.19-.14,1.19.14.08.75-.59.49-1.12-.08-.13-.2.53-.34.73h-.08c0-.27.08-.52.14-.79,0,0-.07-.07-.07,0"/>
    <path id="path13640" class="st13" d="M13.87,28.15c-.2-.03-.58.27-.58.4.2-.07.27-.14.61-.14h.08c-.07-.12-.08-.13-.08-.24l-.03-.03h0Z"/>
    <path id="path13642" class="st13" d="M6.21,26.56c-.2,0-.46,0-.6.27.2-.05.38,0,.45.02l.06-.07c.05-.09.1-.15.11-.2l-.02-.02h0Z"/>
    <path id="path13644" class="st13" d="M6.32,28.88l-.04.02c-.13.18-.27.31-.46.37.12.06.55.07.67-.04l.04-.06c0-.08-.1-.27-.2-.29"/>
    <path id="path13646" class="st13" d="M14.06,26.28c.05-.07.08-.19.12-.25-.13-.19-.47-.07-.61.14.14,0,.27.07.42.13l.08-.02h0Z"/>
    <path id="path13648" class="st13" d="M5.41,28.15c.24-.12.33-.14.49-.09l.05-.02v-.23c-.07-.08-.47.06-.54.33"/>
    <path id="path13650" class="st13" d="M13.77,27.02c-.21-.07-.55.06-.62.27.14-.06.26-.07.43-.02l.1.04c.05.02.09.04.09-.02-.07-.27.07-.26,0-.27"/>
    <path id="path13652" class="st13" d="M6.02,18.47c-.07.07.13.56.32.54l.03-.04c.02-.07.07-.18.07-.24-.34-.07-.34-.27-.42-.27"/>
    <path id="path13654" class="st13" d="M21.25,29.61c.07.2.62.2.75.07-.07-.07-.14-.13-.21-.19-.14.13-.34.13-.54.13"/>
    <path id="path13656" class="st13" d="M21.18,28.41c-.2,0-.42.4-.42.53.14-.07.62-.07.55-.13-.07-.14-.14-.27-.14-.4"/>
    <path id="path13658" class="st13" d="M23.94,28.78c-.17-.11-.5-.16-.45-.11.28.2.28.27.28.6.24-.11.22-.33.21-.43l-.05-.07Z"/>
    <path id="path13660" class="st12" d="M20.3,2.19c-1.23.07-1.81-.73-2.87-.74-.43,0-1.07.11-1.85.74-.79-.62-1.42-.74-1.85-.74-1.06.02-1.64.81-2.87.74-.17,0-.33-.04-.46-.07v4.16c.14.03.29.05.46.07,1.23.07,1.81-.73,2.87-.74.43,0,1.06.11,1.84.73v.02h.02v-.02c.78-.62,1.41-.74,1.84-.73,1.06.02,1.64.82,2.87.74.17,0,.32-.03.46-.07V2.12c-.14.03-.29.05-.46.07"/>
    <path id="path13662" class="st10" d="M9.51,6.69h6.54v.47h-6.54v-.47Z"/>
    <path id="path13664" class="st10" d="M10,7.16h-.49V2.08h.49v5.08Z"/>
    <path id="path13666" class="st10" d="M21.64,6.69h-6.54v.47h6.54v-.47Z"/>
    <path id="path13668" class="st10" d="M21.16,7.16h.49V2.08h-.49v5.08Z"/>
    <path id="path13670" class="st10" d="M8.71,5.56l.84-.46v.93l-.84-.47h0Z"/>
    <path id="path13672" class="st10" d="M8.71,3.69l.84-.47v.93l-.84-.46h0Z"/>
    <path id="path13674" class="st10" d="M22.45,5.56l-.84-.46v.93l.84-.47h0Z"/>
    <path id="path13676" class="st10" d="M22.45,3.69l-.84-.47v.93l.84-.46h0Z"/>
    <path id="path13678" class="st1" d="M20.76,1.69l-.1.02c-.13.03-.26.05-.39.05-.55.03-.95-.15-1.37-.34-.43-.19-.87-.39-1.46-.4h-.05c-.6,0-1.21.21-1.81.62-.61-.42-1.21-.62-1.81-.62h-.05c-.58.02-1.03.21-1.46.4s-.83.38-1.37.34c-.13,0-.26-.03-.39-.05l-.1-.02v.2l.05.02c.14.03.28.05.42.06.6.04,1.02-.16,1.48-.36.41-.19.83-.38,1.37-.39h.05c.58,0,1.16.21,1.75.63l.07.05.06-.05c.58-.42,1.18-.63,1.75-.63h.05c.54,0,.96.2,1.37.39.42.19.81.36,1.34.36h.14c.14-.02.28-.03.42-.06l.05-.02v-.2h0Z"/>
    <path id="path13680" d="M31.15,0H0v31.48c0,1.32.77,2.53,2,3.11l13.57,6.48,13.57-6.44c1.23-.58,2-1.79,2-3.11V0h0ZM30.46.67v30.85c0,1.06-.64,2.05-1.62,2.51l-13.26,6.29-13.27-6.33c-.99-.47-1.61-1.43-1.61-2.51V.68h29.77"/>
    <path id="path13682" class="st8" d="M15.11,46.41c-.26,0-.68-.04-.94-.02l-.07-.06c.08-.1.17-.2.17-.31-.02-.3.02-.58,0-.88,0-.09-.11-.17-.19-.28l.05-.03c.3,0,.68.04.94.02.09,0,.18-.02.24.05,0,.12.08.24.04.34-.14.04-.14-.09-.2-.15-.17-.11-.39-.11-.57-.09-.04-.02-.05.03-.03.08,0,.12,0,.24-.02.37.17.02.37.05.46-.08.04-.02.06-.02.08,0,.05.11,0,.12.02.17.02.08.02.17-.05.23-.08-.03-.09-.2-.24-.17-.08,0-.16-.02-.27.02-.02.16-.05.36,0,.55.12.12.47.13.61-.02.07-.06.08-.22.17-.23l.05.11c-.05.15-.11.38-.29.39"/>
    <path id="path13684" class="st8" d="M16.21,46.4c-.09,0-.22,0-.3-.03-.02-.05.03-.07.08-.09.14-.24.07-.86.07-1.28-.08-.03-.28.02-.34.08-.07.06-.06.14-.16.19-.11-.04-.02-.17-.05-.23.03-.08,0-.13.02-.16.03-.07.97-.02,1.32-.02.14,0,.08.15.1.2,0,.09.05.19-.05.24-.12-.04-.08-.12-.15-.18-.05-.1-.21-.12-.31-.11-.08-.03-.07.05-.07.05-.04.33-.05.79,0,1.11,0,.08.12.13.14.21-.07.06-.19.02-.31.02"/>
    <path id="path13686" class="st8" d="M13.22,43.96c-.12-.02-.25.14-.27.25-.14.21-.22.36-.36.58-.14.27-.24.59-.55.68-.17.04-.24.08-.35.02-.39-.05-.99-.39-1.02-.73-.02-.29.19-.54.33-.8.15-.27.41-.52.34-.87-.05-.06-.11-.07-.05-.11,0-.05.12-.05.17.02.11.07.34.14.44.22.05.06.23.08.16.18-.13.04-.3.08-.38.19-.27.36-.43.74-.59,1.11-.08.16.07.34.17.47.11.07.33.14.5.16.41,0,.67-.71.82-1.03.08-.15.16-.37.08-.61-.05-.06,0-.05,0-.05.23.08.39.15.61.23,0,.06-.02.11-.07.11"/>
    <path id="path13688" class="st8" d="M10.96,42.87c-.31.19-.53.56-.68.88-.14.21-.29.48-.37.69-.07.05-.08.1-.14.15-.05,0-.17-.02-.23-.08,0,0-.05-.06-.04-.11-.04-.12-.05-.57-.05-.96-.04-.22-.06-.51-.08-.79-.05-.07-.03-.23-.09-.18-.2.26-.29.42-.44.74-.08.22-.23.48-.19.65.05.06.1.13.04.17s-.17-.02-.23-.08c-.11-.08-.27-.14-.39-.16.02-.11.07-.1.14-.15.24-.04.34-.42.48-.57.15-.32.22-.42.37-.68.06-.05.14-.16.08-.22-.17-.08-.3.02-.41.07-.07,0-.12-.02-.06-.06,0-.05.08-.1.2-.14.12-.05.3-.14.47-.06.16.07.33.15.32.26.17.47.17.97.17,1.48.04.12-.02.17.02.28.21-.26.3-.53.44-.79.03-.23.18-.49.02-.67,0-.05.06-.05.06-.05.28.08.5.22.71.36,0,.05-.06.05-.11.04"/>
    <path id="path13690" class="st8" d="M7.41,42.36c-.11-.02-.39-.1-.5-.22.15-.2.4-.35.59-.55.05.06-.08.71-.09.77M7.78,43.64c-.17-.07-.44-.22-.66-.3-.06,0-.11-.07-.05-.11.07-.05.12.02.12.02.25-.14.21-.37.24-.6-.21-.13-.49-.27-.65-.35-.2.2-.35.47-.32.7-.07.1-.17-.02-.23-.02-.11-.07-.21-.14-.33-.2-.05,0-.11-.02-.16-.08.07-.1.17.02.3-.08.51-.39.9-.8,1.31-1.21.06-.05-.17-.08-.28-.08-.12-.02-.19.09-.24.03v-.05c.26-.14.56-.27.84-.14.27.14.29.49.26.76-.02.16-.12,1.05-.16,1.33-.02.11.03.23.07.35,0,0,0,.05-.06.05"/>
    <path id="path13692" class="st8" d="M6.54,40.92c-.11-.08-.16-.14-.28-.09-.14.11-.29.42-.36.58-.16.32-.31.64-.46.9,0,.05.1.18.03.29-.06,0-.12-.02-.12-.02-.16-.13-.33-.2-.49-.28-.05-.06-.11-.07-.05-.11.13-.04.36-.13.46-.35.14-.27.36-.58.51-.9h-.05c-.49.22-.94.56-1.39.91-.06.05-.11-.02-.11-.02-.03-.29,0-.46.05-.96-.05-.06.02-.61-.04-.68-.19.2-.35.52-.44.8-.13.16-.28.42-.14.65,0,0,0,.06-.06.05-.22-.14-.44-.22-.66-.35v-.06c.3-.02.52-.39.72-.59.14-.27.35-.52.5-.84,0-.05-.16-.14-.22-.14-.11-.07-.24.04-.36.08-.05-.06-.04-.12.02-.11.13-.15.37-.24.6-.15.23.08.43.27.47.44,0,.46-.05.9-.05,1.34v.05c.5-.33.96-.74,1.38-.87.3-.02.4.05.45.11.11.07.16.13.16.18,0,.05-.06.05-.07.11"/>
    <path id="path13694" class="st8" d="M28.03,41.34c-.31.15-.84.38-1.14.58-.05,0-.12-.04-.12-.04.04-.17.07-.34,0-.49-.22-.35-.38-.71-.59-1.06-.07-.1-.24-.14-.42-.22,0-.05.05-.07.05-.07.36-.2.84-.38,1.15-.57.11-.07.2-.14.32-.09.08.15.26.24.28.39-.14.14-.23-.02-.34-.06-.28-.02-.54.12-.74.25-.05,0-.05.07.02.11.08.15.16.3.24.46.21-.08.48-.17.5-.39.03-.04.06-.06.1-.06.13.09.08.15.14.2.07.09.14.2.1.31-.11.02-.25-.19-.4-.05-.1.07-.2.08-.3.2.08.2.18.46.37.65.24.08.65-.14.72-.42.04-.11-.05-.31.05-.39.06,0,.13.1.13.1.03.21.12.52-.08.65"/>
    <path id="path13696" class="st8" d="M25.83,42.4c-.11.07-.26.14-.37.15-.06-.05-.02-.11.04-.16,0-.38-.49-1.06-.77-1.56-.11.02-.32.2-.35.31-.04.11.03.2-.07.33-.17.02-.14-.2-.2-.24-.02-.11-.08-.16-.08-.2-.02-.1,1.14-.63,1.56-.84.16-.08.19.14.25.17.07.11.19.19.1.32-.17.02-.18-.09-.3-.13-.12-.09-.33,0-.44.05-.11.02-.04.11-.04.11.17.41.46.96.74,1.31.07.09.24.08.3.17-.04.11-.2.14-.36.21"/>
    <path id="path13698" class="st8" d="M24.4,43.03c-.6-.3-1.15-.66-1.75-.96.24.46.35.93.79,1.24.02.11.17.04.13.15-.05.06-.21.08-.26.14-.17.02-.25.2-.33.04.11-.44-.23-.83-.39-1.24-.08-.15-.15-.31-.23-.4-.21.03-.29.3-.32.47-.05.05-.17-.04-.23-.03-.07-.1-.19-.19-.35-.11-.16.07-.31.14-.48.22.08.2.17.41.31.61,0,.05.05,0,.05,0,.21-.08.37-.16.41-.33h.05c.12.08.2.19.27.33-.11.02-.17-.03-.23-.02-.16.07-.32.09-.47.23.08.2.23.45.36.65.07.11.23.02.39,0,.31-.14.43-.49.39-.8.06,0,.11-.08.11-.02.13.14.15.3.22.45.02.11.08.15-.03.17-.41.22-.73.36-1.15.58-.11.02-.16.07-.26.14-.06-.05-.05,0-.06-.05-.06,0,0-.05-.02-.11.05-.38-.15-.62-.38-1.13-.07-.1-.3-.55-.46-.53-.05,0-.05.06-.04.11l.02.11c-.06-.05-.17-.04-.27.04v.05c.04.21.12.41.26.61.2.3.33.71.69.93.06.05,0,.05-.04.11-.16.08-.38.11-.52.23-.13-.09-.03-.21-.04-.32-.03-.21-.11-.36-.25-.55-.09-.26-.17-.41-.31-.67-.04.11-.08.23-.05.38,0,.38-.02.76.05,1.18,0,0-.05,0-.05.06-.05,0-.11-.04-.12-.09-.36-.22-.89-.76-1.3-.97,0,0,.02.16.08.16.22.41.33.77.59,1.11.08.1.19.14.3.17-.05,0,0,.05-.05.05-.1.08-.15.08-.26.14-.11.02-.25.19-.32.09.13-.29-.09-.63-.17-.84-.16-.3-.3-.55-.45-.87h-.06c-.1.08-.08.24-.11.41-.03.04-.07.06-.11.07-.02-.11-.04-.27,0-.38-.02-.16.06-.34.22-.41.15-.07.42-.16.55-.02.37.28.64.57,1,.79l.05-.05c-.05-.38-.05-.75-.04-1.07-.02-.16.02-.33.21-.46.05-.05.21-.08.33-.04.05-.06.14-.18.19-.19.42-.21.77-.43,1.21-.58h.05c.07.09.08.2.2.18.04-.12.02-.22.11-.34.14-.17.46-.27.71-.14.4.11,1.15.66,1.44.73-.16-.3-.3-.55-.45-.81-.13-.08-.27-.29-.44-.32-.05,0-.06-.05-.06-.05.21-.08.42-.22.62-.3.12.04-.03.17-.02.27.11.42.33.77.49,1.12.14.14.22.35.3.5.06.05-.2.19-.26.14"/>
    <path id="path13700" d="M12.13,4.06c0,.23-.22.35-.43.35-.18,0-.33-.09-.42-.18v-.04l.11-.11h.04c.08.07.17.11.27.11s.19-.05.19-.14c0-.21-.58-.14-.58-.54,0-.21.18-.33.39-.33.15,0,.28.06.38.16v.04l-.09.11h-.04c-.08-.06-.15-.09-.24-.09-.1,0-.16.05-.16.12,0,.2.59.12.59.54"/>
    <path id="path13702" d="M13.51,4.21v.04c-.11.11-.26.17-.43.17-.35,0-.64-.27-.64-.61s.29-.61.64-.61c.17,0,.33.07.43.17v.04l-.12.12h-.04c-.08-.06-.17-.1-.28-.1-.22,0-.39.17-.39.39s.17.39.39.39c.11,0,.2-.04.28-.1h.04l.12.12v-.02Z"/>
    <path id="path13704" d="M13.91,3.2h.19l.03.03v1.15l-.03.03h-.19l-.03-.03v-1.15l.03-.03Z"/>
    <path id="path13706" d="M15.27,4.21v.15l-.03.03h-.65l-.03-.03v-1.15l.03-.02h.65l.03.02v.15l-.03.03h-.43v.27h.41l.03.03v.15l-.03.03h-.41v.3h.43l.03.03h0Z"/>
    <path id="path13708" d="M16.69,3.22v1.15l-.03.03h-.22l-.03-.02-.47-.81v.8l-.03.03h-.19l-.03-.03v-1.15l.03-.03h.22l.03.02.48.81v-.8l.02-.03h.19l.03.03h0Z"/>
    <path id="path13710" d="M17.86,3.22v.16l-.03.02h-.27v.96l-.03.03h-.19l-.03-.03v-.96h-.27l-.02-.02v-.16l.02-.03h.78l.03.03h0Z"/>
    <path id="path13712" d="M18.23,3.2h.19l.02.03v1.15l-.02.03h-.19l-.03-.03v-1.15l.03-.03Z"/>
    <path id="path13714" d="M19.49,3.96l-.16-.46-.16.46h.33,0ZM19.86,4.39h-.2l-.03-.02-.08-.2h-.46l-.08.2-.03.02h-.2l-.02-.03.43-1.15.03-.02h.17l.04.02.43,1.15-.02.03h.02Z"/>
    <path id="path13716" class="st9" d="M15.58,14.35l-.37-.92-.93.39.41-.9-.95-.36.95-.36-.41-.9.93.39.37-.92.37.92.93-.39-.41.9.95.36-.95.36.41.9-.93-.39-.37.92Z"/>
    <path id="path13718" class="st9" d="M15.55,35.46l-.37-.92-.93.39.41-.9-.95-.36.95-.36-.41-.9.93.39.37-.92.37.92.93-.39-.41.9.95.36-.95.36.41.9-.93-.39-.37.92Z"/>
    <path id="path13720" class="st9" d="M27.31,25.24l-.37-.92-.93.39.41-.9-.95-.36.95-.36-.41-.9.93.39.37-.92.37.92.93-.39-.41.9.95.36-.95.36.41.9-.93-.39-.37.92Z"/>
    <path id="path13722" class="st9" d="M3.92,25.24l-.37-.92-.93.39.41-.9-.95-.36.95-.36-.41-.9.93.39.37-.92.37.92.93-.39-.41.9.95.36-.95.36.41.9-.93-.39-.37.92Z"/>
    <path id="path13724" d="M57.05,19.83c-.03,5.72-2.88,8.59-8.1,8.59s-8.18-2.32-8.18-7.64v-5.41c0-3.01-.33-5.47-.45-6.75.61.08,1.62.14,2.2.14s1.2-.05,1.76-.14c-.28,2.65-.36,6.19-.36,9.88,0,5.3.98,8.31,5.89,8.31,5.31,0,5.45-5.28,5.45-9.63,0-3.93-.03-6.73-.2-8.56.42.08.87.14,1.29.14.39,0,.75-.05,1.12-.14-.2,2.12-.39,6.78-.42,11.21"/>
    <path id="path13726" d="M75.24,18.07c-.05,2.98-.03,7.52,0,10.18-.2-.05-.47-.08-.67-.08s-.47.03-.64.08c-4.05-4.77-8.63-9.71-13.16-14.5-.05,1.56-.08,3.57-.08,6.07,0,3.43.11,7.16.22,8.23-.39-.08-.78-.14-1.14-.14-.39,0-.77.05-1.17.14.2-1.07.58-8.23.58-12.91,0-3.01-.05-5.21-.11-6.49.19.03.52.05.72.05.22,0,.53-.03.74-.05,4.27,4.68,9.36,10.23,13.13,14.16,0-4.71,0-11.2-.22-13.99.36.08.75.14,1.11.14s.69-.05,1.06-.14c-.17,2.7-.36,6.85-.39,9.25"/>
    <path id="path13728" d="M82.3,28.53c-2.43,0-4.94-1.18-6.14-2.04.47-.39.67-.5,1.2-1.2.39-.53.64-1.4.64-1.4.5,1.48,2.01,2.94,4.72,2.94s4.61-2.04,4.61-3.94c0-4.7-10.28-2.55-10.28-9,0-3.5,3.07-5.43,7.15-5.43,2.18,0,4,.69,5.28,1.53-.58.48-.68.5-1.03,1.04-.28.42-.61,1.31-.61,1.31-.53-1.31-1.68-2.52-3.86-2.52s-3.77,1.37-3.77,3.07c0,4.67,10.67,2.79,10.64,8.87-.03,4.78-3.44,6.76-8.56,6.76"/>
    <path id="path13730" d="M110.41,28.09c-.39-.05-.78-.14-1.15-.14-.39,0-.78.08-1.17.14-1.34-4.88-2.88-9.79-4.58-14.84h-.06c-1.03,3.19-3.51,10.27-4.88,14.84-.39-.05-.76-.14-1.18-.14-.36,0-.78.08-1.15.14-.78-3.01-1.93-7.42-3.38-12.16-.45-1.5-2.09-6.06-2.54-7.09.61.08,1.53.14,2.13.14s1.17-.05,1.76-.14c1.23,5.22,2.48,9.82,4.08,15.32h.05c1.26-3.88,4.16-12.59,4.86-15.32.36.08.73.14,1.12.14.36,0,.73-.05,1.09-.14.64,2.76,3.74,12.02,4.69,15.32h.05c1.09-3.6,3.88-13,4.38-15.32.34.08.7.14,1.03.14.36,0,.7-.05,1.09-.14-.9,2.4-4.94,14.7-6.26,19.25"/>
    <path id="path13732" d="M59.58,33.45c-.17-.11-.35-.19-.55-.27-.17-.06-.34-.14-.49-.22-.14-.08-.26-.17-.35-.28-.08-.09-.12-.24-.12-.42,0-.11.02-.2.05-.29.04-.09.08-.16.15-.23.07-.06.14-.11.23-.14.17-.07.41-.07.55,0,.07.04.14.08.19.14s.09.11.13.17c.03.07.06.14.08.2l.04.11h.33l.03-.14c.03-.13.05-.24.08-.33.02-.08.05-.15.09-.23l.06-.12-.11-.08c-.15-.12-.32-.22-.49-.28-.36-.12-.9-.12-1.3.02-.2.07-.38.17-.52.31-.14.13-.26.29-.34.48-.08.18-.11.38-.11.6,0,.31.06.56.19.75.12.18.27.33.45.46.17.11.35.2.55.28.17.07.35.14.5.22.14.08.26.17.35.28.08.09.12.24.12.41,0,.12-.02.24-.06.34s-.09.2-.16.27c-.07.08-.15.14-.25.18-.2.08-.48.08-.68,0-.11-.04-.19-.08-.27-.15-.08-.06-.14-.13-.19-.2-.05-.08-.1-.15-.13-.23l-.04-.1h-.34l-.02.15c-.02.13-.03.24-.04.32-.02.08-.04.17-.08.27l-.04.11.09.08c.13.11.29.2.48.29.2.08.45.13.76.13.28,0,.54-.05.77-.13.23-.08.43-.21.58-.36.16-.16.28-.35.36-.56s.12-.43.12-.68c0-.29-.06-.53-.19-.71-.12-.17-.27-.32-.45-.43"/>
    <path id="path13734" d="M67.33,31.06l-.13-.03-.05.12c-.09.2-.19.41-.3.62s-.21.42-.33.63-.23.42-.34.61c-.06.11-.12.21-.18.31-.19-.34-.36-.67-.54-.99-.21-.39-.42-.8-.62-1.2l-.05-.11-.3.04c-.11.02-.23.02-.34,0l-.53-.08.18.3c.05.08.11.19.2.33l1.26,2.18c.08.13.14.24.18.31,0,.36,0,.71,0,1.05,0,.34-.02.64-.05.87l-.02.2.2-.02c.2-.02.44-.02.64,0l.2.02-.02-.2c0-.1-.02-.23-.02-.39,0-.16-.02-.33-.02-.53s0-.38,0-.58v-.52c.07-.14.15-.29.24-.45.1-.18.22-.38.35-.61.13-.23.29-.47.46-.75s.36-.58.58-.93l.21-.33-.39.08c-.25.05-.22.05-.46,0"/>
    <path id="path13736" d="M75.34,34.62c-.11.27-.27.49-.45.64s-.38.26-.61.31c-.41.1-.83.1-1.21.07-.09,0-.17-.02-.24-.03-.02-.44-.04-.9-.04-1.36v-1.21c0-.25,0-.5.02-.74,0-.2.02-.39.02-.57.1-.02.21-.02.33-.03.41-.03.92-.03,1.31.06.21.05.39.14.54.28.15.14.27.33.36.56.09.24.14.56.14.95,0,.44-.06.8-.17,1.07M75.94,31.73c-.2-.22-.46-.39-.77-.5-.43-.16-1.02-.19-1.62-.16-.34.02-.68.02-1.02,0-.17,0-.34-.02-.52-.03h-.18l.05,1.09c0,.3.02.6.02.91v1.21c0,.31,0,.61-.02.91-.02.3-.03.6-.04.89v.18l.17-.02c.15,0,.3-.02.45-.02h.92c.43.02.87.02,1.36-.12.31-.08.61-.24.87-.45.27-.21.48-.49.65-.84.17-.34.25-.77.25-1.26,0-.38-.05-.72-.14-1.02-.09-.31-.24-.58-.43-.8"/>
    <path id="path13738" d="M84.66,31.09c-.05,0-.11,0-.19-.03l-.22-.05.02.23c.02.41.04.85.05,1.31,0,.46.02.95.02,1.43v.55c-.14-.14-.29-.31-.45-.49l-.9-.98c-.31-.35-.62-.7-.94-1.06l-.94-1.05h-.36l.02.17c0,.16.02.39.02.72v1.69l-.02.61c0,.2-.02.41-.03.61l-.03.58c0,.17-.02.33-.03.45-.02.12-.02.2-.03.24l-.04.22.22-.03c.14-.02.31-.02.45,0l.21.03-.03-.21s0-.1-.02-.2l-.03-.83c0-.17,0-.33,0-.49v-.46c0-.14-.02-.27-.02-.36,0-.38,0-.68,0-.9v-.12c.5.55,1,1.1,1.51,1.65.59.65,1.15,1.3,1.68,1.92l.05.06h.34v-.8l-.02-1.02v-.93c0-.14,0-.31.02-.54,0-.22.02-.46.03-.69.02-.24.02-.46.03-.66.02-.2.02-.36.03-.46l.02-.24-.23.06c-.1.03-.15.03-.17.03"/>
    <path id="path13740" d="M92.17,35.7l.07-.26-.26.05c-.11.02-.23.04-.36.05-.14,0-.3.02-.46.03-.17,0-.33,0-.5,0h-.32v-1.75h.61c.15,0,.31.02.46.02.15,0,.29.02.41.04l.22.03-.04-.22c-.02-.06-.02-.12-.02-.18s0-.13.02-.19l.04-.21-.22.02c-.1,0-.2.02-.31.02l-.36.02c-.13,0-.28.02-.43.02h-.37v-.76c0-.18,0-.33,0-.46,0-.09.02-.17.02-.27.15,0,.29,0,.41.02.16,0,.3.02.43.02l.38.03c.12,0,.26.02.4.03l.21.02-.04-.2c-.02-.06-.02-.12-.02-.18s0-.12.02-.17l.04-.2-.82.04c-.39.02-.81.02-1.21,0-.2,0-.41-.02-.61-.03h-.17v.17c.02.3.03.6.04.9.02.3.02.6.02.91v1.21c0,.31,0,.61-.02.91-.02.3-.02.6-.04.9v.18h.17c.2-.02.41-.02.61-.02h1.24c.2,0,.4,0,.61.02l.23.02-.06-.22s-.02-.07-.02-.14v-.1l.02-.08-.02-.03Z"/>
    <path id="path13742" d="M99.77,31.06c-.25.05-.22.05-.47,0l-.13-.03-.05.12c-.09.2-.19.41-.29.62-.11.21-.21.42-.33.63s-.23.42-.34.61c-.06.11-.12.21-.18.31-.19-.34-.36-.67-.54-.99-.21-.39-.42-.8-.62-1.2l-.05-.11-.3.04c-.11.02-.23.02-.34,0l-.53-.08.18.3c.05.08.11.19.2.33l1.26,2.18c.08.13.14.24.17.31v1.05c0,.34-.02.63-.05.87l-.02.2.2-.02c.2-.02.44-.02.65,0l.2.02-.02-.2c0-.1-.02-.23-.02-.39,0-.16-.02-.33-.02-.52s0-.38-.02-.58v-.52c.07-.14.15-.29.24-.45.1-.18.22-.38.35-.61s.29-.47.46-.75.37-.58.59-.93l.21-.33-.38.08h-.02Z"/>
  </g>
</svg>