<?xml version="1.0" encoding="UTF-8" standalone="no"?>
<svg
   width="757.98871"
   height="690.84668"
   viewBox="0 0 757.98871 690.84668"
   fill="none"
   version="1.1"
   id="svg743"
   sodipodi:docname="webserverr.svg"
   inkscape:version="1.2.2 (b0a8486541, 2022-12-01)"
   xmlns:inkscape="http://www.inkscape.org/namespaces/inkscape"
   xmlns:sodipodi="http://sodipodi.sourceforge.net/DTD/sodipodi-0.dtd"
   xmlns:xlink="http://www.w3.org/1999/xlink"
   xmlns="http://www.w3.org/2000/svg"
   xmlns:svg="http://www.w3.org/2000/svg">
  <defs
     id="defs747">
    <linearGradient
       inkscape:collect="always"
       id="linearGradient1461">
      <stop
         style="stop-color:#080006;stop-opacity:1;"
         offset="0"
         id="stop1457" />
      <stop
         style="stop-color:#080006;stop-opacity:0;"
         offset="1"
         id="stop1459" />
    </linearGradient>
    <linearGradient
       inkscape:collect="always"
       xlink:href="#linearGradient1461"
       id="linearGradient1463"
       x1="111.23117"
       y1="58.878738"
       x2="298.53506"
       y2="58.878738"
       gradientUnits="userSpaceOnUse" />
  </defs>
  <sodipodi:namedview
     id="namedview745"
     pagecolor="#ffffff"
     bordercolor="#666666"
     borderopacity="1.0"
     inkscape:showpageshadow="2"
     inkscape:pageopacity="0.0"
     inkscape:pagecheckerboard="0"
     inkscape:deskcolor="#d1d1d1"
     showgrid="false"
     inkscape:zoom="1.3185703"
     inkscape:cx="316.63082"
     inkscape:cy="285.15734"
     inkscape:window-width="2327"
     inkscape:window-height="1220"
     inkscape:window-x="371"
     inkscape:window-y="232"
     inkscape:window-maximized="0"
     inkscape:current-layer="svg743" />
  <text
     xml:space="preserve"
     style="font-size:32px;line-height:125%;font-family:Sans;letter-spacing:0px;word-spacing:0px;fill:none;stroke:#000000;stroke-width:1px;stroke-linecap:butt;stroke-linejoin:miter;stroke-opacity:1"
     x="130.82814"
     y="103.21829"
     id="text819"><tspan
       sodipodi:role="line"
       id="tspan817"
       x="130.82814"
       y="103.21829" /></text>
  <text
     xml:space="preserve"
     style="font-size:32px;line-height:125%;font-family:Sans;letter-spacing:0px;word-spacing:0px;fill:none;stroke:#000000;stroke-width:1px;stroke-linecap:butt;stroke-linejoin:miter;stroke-opacity:1"
     x="120.03274"
     y="116.40424"
     id="text823"><tspan
       sodipodi:role="line"
       id="tspan821"
       x="120.03274"
       y="116.40424" /></text>
  <g
     id="g9897"
     transform="translate(217.71811,90.477471)">
    <rect
       y="149.93906"
       width="757.76367"
       height="449"
       fill="#c0df9a"
       id="rect629"
       ry="2.1876531"
       x="-217.71887"
       rx="1.2880528"
       transform="matrix(0.99999648,0.00265456,0,1,0,0)"
       style="stroke-width:0.767321" />
    <path
       d="m -192.69541,565.36688 v -23.273 h 4.9205 v 19.216 h 9.9773 v 4.057 z m 18.0654,0 v -17.455 h 4.8409 v 17.455 z m 2.4318,-19.705 c -0.7197,0 -1.3371,-0.238 -1.8523,-0.715 -0.5076,-0.485 -0.7614,-1.065 -0.7614,-1.739 0,-0.667 0.2538,-1.239 0.7614,-1.716 0.5152,-0.485 1.1326,-0.727 1.8523,-0.727 0.7197,0 1.3333,0.242 1.8409,0.727 0.5151,0.477 0.7727,1.049 0.7727,1.716 0,0.674 -0.2576,1.254 -0.7727,1.739 -0.5076,0.477 -1.1212,0.715 -1.8409,0.715 z m 14.1733,20.046 c -1.7652,0 -3.2917,-0.375 -4.5796,-1.125 -1.2803,-0.758 -2.2689,-1.811 -2.9659,-3.159 -0.6969,-1.356 -1.0454,-2.928 -1.0454,-4.716 0,-1.803 0.3485,-3.379 1.0454,-4.727 0.697,-1.356 1.6856,-2.409 2.9659,-3.159 1.2879,-0.758 2.8144,-1.137 4.5796,-1.137 1.7651,0 3.2879,0.379 4.5682,1.137 1.2878,0.75 2.2803,1.803 2.9772,3.159 0.697,1.348 1.0455,2.924 1.0455,4.727 0,1.788 -0.3485,3.36 -1.0455,4.716 -0.6969,1.348 -1.6894,2.401 -2.9772,3.159 -1.2803,0.75 -2.8031,1.125 -4.5682,1.125 z m 0.0227,-3.75 c 0.803,0 1.4735,-0.227 2.0114,-0.682 0.5379,-0.462 0.9432,-1.091 1.2159,-1.886 0.2803,-0.796 0.4204,-1.701 0.4204,-2.716 0,-1.015 -0.1401,-1.921 -0.4204,-2.716 -0.2727,-0.796 -0.678,-1.424 -1.2159,-1.886 -0.5379,-0.463 -1.2084,-0.694 -2.0114,-0.694 -0.8106,0 -1.4924,0.231 -2.0454,0.694 -0.5455,0.462 -0.9584,1.09 -1.2387,1.886 -0.2727,0.795 -0.4091,1.701 -0.4091,2.716 0,1.015 0.1364,1.92 0.4091,2.716 0.2803,0.795 0.6932,1.424 1.2387,1.886 0.553,0.455 1.2348,0.682 2.0454,0.682 z m 16.5568,-6.682 v 10.091 h -4.8409 v -17.455 h 4.6137 v 3.08 h 0.2045 c 0.3864,-1.015 1.0341,-1.818 1.9432,-2.409 0.9091,-0.599 2.0113,-0.898 3.3068,-0.898 1.2121,0 2.2689,0.265 3.1705,0.796 0.9015,0.53 1.6022,1.288 2.1022,2.272 0.5,0.978 0.75,2.144 0.75,3.5 v 11.114 h -4.8409 v -10.25 c 0.008,-1.068 -0.2651,-1.902 -0.8182,-2.5 -0.553,-0.606 -1.3144,-0.909 -2.2841,-0.909 -0.6515,0 -1.2272,0.14 -1.7272,0.42 -0.4925,0.281 -0.8788,0.69 -1.1591,1.228 -0.2727,0.53 -0.4129,1.17 -0.4205,1.92 z m 29.5883,-2.386 -4.432,0.272 c -0.076,-0.378 -0.239,-0.719 -0.489,-1.022 -0.25,-0.311 -0.579,-0.557 -0.9883,-0.739 -0.4015,-0.189 -0.8826,-0.284 -1.4432,-0.284 -0.75,0 -1.3826,0.159 -1.8977,0.477 -0.5152,0.311 -0.7727,0.728 -0.7727,1.25 0,0.417 0.1666,0.769 0.5,1.057 0.3333,0.288 0.9053,0.519 1.7159,0.693 l 3.159,0.637 c 1.697,0.348 2.962,0.909 3.796,1.681 0.833,0.773 1.25,1.788 1.25,3.046 0,1.144 -0.338,2.148 -1.012,3.011 -0.667,0.864 -1.583,1.538 -2.75,2.023 -1.159,0.477 -2.496,0.716 -4.0112,0.716 -2.3106,0 -4.1515,-0.481 -5.5227,-1.443 -1.3637,-0.97 -2.1629,-2.288 -2.3978,-3.955 l 4.7614,-0.25 c 0.1439,0.705 0.4924,1.243 1.0455,1.614 0.553,0.363 1.2613,0.545 2.125,0.545 0.8484,0 1.5298,-0.163 2.0458,-0.488 0.522,-0.334 0.787,-0.762 0.795,-1.284 -0.008,-0.44 -0.193,-0.8 -0.557,-1.08 -0.363,-0.288 -0.924,-0.508 -1.6816,-0.659 l -3.0227,-0.602 c -1.7045,-0.341 -2.9735,-0.932 -3.8068,-1.773 -0.8258,-0.841 -1.2387,-1.913 -1.2387,-3.216 0,-1.121 0.3031,-2.087 0.9091,-2.898 0.6137,-0.81 1.4735,-1.435 2.5796,-1.875 1.1136,-0.439 2.4167,-0.659 3.9091,-0.659 2.205,0 3.939,0.466 5.205,1.398 1.272,0.932 2.015,2.201 2.227,3.807 z m 24.923002,0.841 c 0,2.538 -0.481,4.697 -1.443,6.477 -0.955,1.78 -2.258,3.14 -3.909,4.079 -1.644,0.932 -3.493,1.398 -5.546,1.398 -2.068,0 -3.924002,-0.47 -5.568002,-1.409 -1.644,-0.939 -2.943,-2.299 -3.898,-4.079 -0.954,-1.781 -1.431,-3.936 -1.431,-6.466 0,-2.538 0.477,-4.697 1.431,-6.478 0.955,-1.78 2.254,-3.136 3.898,-4.068 1.644,-0.939 3.500002,-1.409 5.568002,-1.409 2.053,0 3.902,0.47 5.546,1.409 1.651,0.932 2.954,2.288 3.909,4.068 0.962,1.781 1.443,3.94 1.443,6.478 z m -4.989,0 c 0,-1.644 -0.246,-3.031 -0.738,-4.159 -0.485,-1.129 -1.171,-1.985 -2.057,-2.569 -0.886,-0.583 -1.924,-0.875 -3.114,-0.875 -1.189,0 -2.227002,0.292 -3.113002,0.875 -0.887,0.584 -1.576,1.44 -2.068,2.569 -0.485,1.128 -0.728,2.515 -0.728,4.159 0,1.644 0.243,3.03 0.728,4.159 0.492,1.129 1.181,1.985 2.068,2.568 0.886,0.583 1.924002,0.875 3.113002,0.875 1.19,0 2.228,-0.292 3.114,-0.875 0.886,-0.583 1.572,-1.439 2.057,-2.568 0.492,-1.129 0.738,-2.515 0.738,-4.159 z m 21.259,-4.944 c -0.091,-0.916 -0.481,-1.628 -1.17,-2.136 -0.69,-0.507 -1.625,-0.761 -2.807,-0.761 -0.803,0 -1.481,0.113 -2.034,0.341 -0.553,0.219 -0.978,0.526 -1.273,0.92 -0.288,0.394 -0.432,0.841 -0.432,1.341 -0.015,0.417 0.072,0.78 0.261,1.091 0.197,0.311 0.466,0.579 0.807,0.807 0.341,0.219 0.735,0.413 1.182,0.579 0.447,0.159 0.924,0.296 1.432,0.409 l 2.091,0.5 c 1.015,0.228 1.947,0.531 2.795,0.909 0.849,0.379 1.584,0.845 2.205,1.398 0.621,0.553 1.102,1.205 1.443,1.955 0.348,0.75 0.526,1.61 0.534,2.579 -0.008,1.425 -0.371,2.659 -1.091,3.705 -0.712,1.038 -1.742,1.845 -3.091,2.42 -1.341,0.568 -2.958,0.853 -4.852,0.853 -1.879,0 -3.515,-0.288 -4.909,-0.864 -1.386,-0.576 -2.47,-1.428 -3.25,-2.557 -0.773,-1.136 -1.178,-2.542 -1.216,-4.216 h 4.761 c 0.053,0.78 0.277,1.432 0.671,1.955 0.401,0.515 0.935,0.905 1.602,1.17 0.674,0.258 1.436,0.387 2.284,0.387 0.833,0 1.557,-0.122 2.171,-0.364 0.621,-0.243 1.102,-0.58 1.443,-1.011 0.341,-0.432 0.511,-0.928 0.511,-1.489 0,-0.523 -0.155,-0.962 -0.466,-1.318 -0.303,-0.356 -0.75,-0.659 -1.341,-0.909 -0.583,-0.25 -1.299,-0.478 -2.147,-0.682 l -2.534,-0.637 c -1.963,-0.477 -3.512,-1.223 -4.648,-2.238 -1.137,-1.015 -1.701,-2.383 -1.693,-4.102 -0.008,-1.41 0.367,-2.641 1.125,-3.694 0.765,-1.053 1.814,-1.875 3.147,-2.466 1.334,-0.59 2.849,-0.886 4.546,-0.886 1.727,0 3.235,0.296 4.523,0.886 1.295,0.591 2.303,1.413 3.022,2.466 0.72,1.053 1.091,2.273 1.114,3.659 z"
       fill="#000000"
       id="path631" />
    <rect
       y="-17.633118"
       width="757.98871"
       height="135"
       fill="#ffca5f"
       id="rect633"
       x="-217.71811"
       style="stroke-width:0.840097" />
    <path
       id="path635"
       d="m 220.30489,2.0941832 h 6.068 l 6.409,15.6362998 h 0.273 l 6.409,-15.6362998 h 6.068 V 25.366883 h -4.773 v -15.1477 h -0.193 l -6.023,15.0341 h -3.25 l -6.022,-15.0909 h -0.194 v 15.2045 h -4.772 z m 29.19,23.2726998 V 7.9123832 h 4.841 V 25.366883 Z m 2.432,-19.7044998 c -0.72,0 -1.337,-0.2387 -1.852,-0.716 -0.508,-0.4848 -0.762,-1.0643 -0.762,-1.7386 0,-0.6667 0.254,-1.2386 0.762,-1.7159 0.515,-0.4848 1.132,-0.72729995 1.852,-0.72729995 0.72,0 1.333,0.24249995 1.841,0.72729995 0.515,0.4773 0.773,1.0492 0.773,1.7159 0,0.6743 -0.258,1.2538 -0.773,1.7386 -0.508,0.4773 -1.121,0.716 -1.841,0.716 z m 14.173,20.0453998 c -1.788,0 -3.326,-0.3788 -4.613,-1.1364 -1.281,-0.7651 -2.266,-1.8257 -2.955,-3.1818 -0.682,-1.356 -1.023,-2.9166 -1.023,-4.6818 0,-1.7879 0.345,-3.3561 1.034,-4.7045 0.697,-1.3561 1.686,-2.4128998 2.966,-3.1704998 1.281,-0.7651 2.803,-1.1477 4.568,-1.1477 1.523,0 2.857,0.2765 4,0.8295 1.144,0.5531 2.05,1.3296 2.716,2.3295998 0.667,1 1.034,2.1742 1.103,3.5227 h -4.569 c -0.128,-0.8712 -0.469,-1.572 -1.022,-2.1023 -0.546,-0.5379 -1.262,-0.8068 -2.148,-0.8068 -0.75,0 -1.405,0.2046 -1.966,0.6136 -0.553,0.4016 -0.985,0.9887 -1.295,1.7614 -0.311,0.7727 -0.466,1.7083 -0.466,2.8068 0,1.1137 0.151,2.0606 0.454,2.8409 0.311,0.7803 0.746,1.375 1.307,1.7841 0.561,0.4091 1.216,0.6137 1.966,0.6137 0.553,0 1.049,-0.1137 1.489,-0.3409 0.447,-0.2273 0.814,-0.5569 1.102,-0.9887 0.295,-0.4394 0.489,-0.9659 0.579,-1.5795 h 4.569 c -0.076,1.3333 -0.44,2.5075 -1.091,3.5227 -0.644,1.0076 -1.534,1.7955 -2.671,2.3636 -1.136,0.5682 -2.481,0.8523 -4.034,0.8523 z m 10.895,-0.3409 V 7.9123832 h 4.693 v 3.0453998 h 0.182 c 0.318,-1.0832998 0.852,-1.9014998 1.602,-2.4544998 0.75,-0.5606 1.614,-0.8409 2.591,-0.8409 0.243,0 0.504,0.0151 0.784,0.0454 0.281,0.0303 0.527,0.072 0.739,0.125 v 4.2954998 c -0.227,-0.0682 -0.542,-0.1288 -0.943,-0.1819 -0.402,-0.053 -0.769,-0.0795 -1.102,-0.0795 -0.713,0 -1.349,0.1553 -1.91,0.4659 -0.553,0.303 -0.992,0.7273 -1.318,1.2727 -0.318,0.5455 -0.477,1.1743 -0.477,1.8864 v 9.875 z m 20.168,0.3409 c -1.765,0 -3.292,-0.375 -4.58,-1.125 -1.28,-0.7576 -2.269,-1.8106 -2.966,-3.1591 -0.697,-1.356 -1.045,-2.928 -1.045,-4.7159 0,-1.803 0.348,-3.3788 1.045,-4.7273 0.697,-1.356 1.686,-2.4090998 2.966,-3.1590998 1.288,-0.7575 2.815,-1.1363 4.58,-1.1363 1.765,0 3.288,0.3788 4.568,1.1363 1.288,0.75 2.28,1.8030998 2.977,3.1590998 0.697,1.3485 1.046,2.9243 1.046,4.7273 0,1.7879 -0.349,3.3599 -1.046,4.7159 -0.697,1.3485 -1.689,2.4015 -2.977,3.1591 -1.28,0.75 -2.803,1.125 -4.568,1.125 z m 0.022,-3.75 c 0.803,0 1.474,-0.2273 2.012,-0.6818 0.538,-0.4621 0.943,-1.0909 1.216,-1.8864 0.28,-0.7954 0.42,-1.7007 0.42,-2.7159 0,-1.0151 -0.14,-1.9204 -0.42,-2.7159 -0.273,-0.7954 -0.678,-1.4242 -1.216,-1.8864 -0.538,-0.4621 -1.209,-0.6931 -2.012,-0.6931 -0.81,0 -1.492,0.231 -2.045,0.6931 -0.545,0.4622 -0.958,1.091 -1.239,1.8864 -0.272,0.7955 -0.409,1.7008 -0.409,2.7159 0,1.0152 0.137,1.9205 0.409,2.7159 0.281,0.7955 0.694,1.4243 1.239,1.8864 0.553,0.4545 1.235,0.6818 2.045,0.6818 z m 11.807,3.4091 V 2.0941832 h 9.182 c 1.765,0 3.269,0.3371 4.511,1.0113 1.243,0.6667 2.19,1.5947 2.841,2.7841 0.659,1.1818 0.989,2.5455 0.989,4.0909 0,1.5454998 -0.333,2.9090998 -1,4.0908998 -0.667,1.1819 -1.633,2.1023 -2.898,2.7614 -1.257,0.6591 -2.78,0.9886 -4.568,0.9886 h -5.852 v -3.9431 h 5.057 c 0.947,0 1.727,-0.1629 2.34,-0.4887 0.622,-0.3333 1.084,-0.7916 1.387,-1.375 0.31,-0.5909 0.466,-1.2689 0.466,-2.0340998 0,-0.7727 -0.156,-1.4469 -0.466,-2.0227 -0.303,-0.5833 -0.765,-1.0341 -1.387,-1.3523 -0.621,-0.3257 -2.363,-0.4886 -2.363,-0.4886 h -3.318 V 25.366883 Z m 23.617,6.5455 c -0.614,0 -1.19,-0.0493 -1.728,-0.1478 -0.53,-0.0909 -0.969,-0.2083 -1.318,-0.3522 l 1.091,-3.6137 c 0.568,0.1743 1.08,0.269 1.534,0.2841 0.462,0.0152 0.86,-0.0909 1.193,-0.3182 0.341,-0.2272 0.618,-0.6136 0.83,-1.1591 l 0.284,-0.7386 -6.261,-17.9544998 h 5.091 l 3.613,12.8180998 h 0.182 l 3.648,-12.8180998 h 5.125 l -6.784,19.3408998 c -0.326,0.9394 -0.769,1.7575 -1.33,2.4545 -0.553,0.7046 -1.254,1.2462 -2.102,1.625 -0.849,0.3864 -1.871,0.5796 -3.068,0.5796 z m 25.045,-23.9999998 v 3.6362998 h -10.511 V 7.9123832 Z m -8.125,-4.1819 h 4.841 V 20.003283 c 0,0.4469 0.068,0.7954 0.205,1.0454 0.136,0.2424 0.325,0.4129 0.568,0.5114 0.25,0.0985 0.538,0.1477 0.863,0.1477 0.228,0 0.455,-0.0189 0.682,-0.0568 0.228,-0.0455 0.402,-0.0796 0.523,-0.1023 l 0.761,3.6023 c -0.242,0.0757 -0.583,0.1629 -1.022,0.2614 -0.44,0.106 -0.974,0.1704 -1.603,0.1931 -1.166,0.0455 -2.189,-0.1098 -3.068,-0.4659 -0.871,-0.356 -1.549,-0.9091 -2.034,-1.6591 -0.485,-0.75 -0.723,-1.6969 -0.716,-2.8409 z m 16.494,11.5454998 v 10.0909 h -4.84 V 2.0941832 h 4.704 v 8.8976998 h 0.205 c 0.394,-1.0302998 1.03,-1.8370998 1.909,-2.4204998 0.879,-0.5909 1.981,-0.8863 3.307,-0.8863 1.212,0 2.269,0.2651 3.17,0.7954 0.909,0.5228 1.614,1.2766 2.114,2.2613998 0.507,0.9773 0.757,2.1477 0.75,3.5114 v 11.1136 h -4.841 v -10.25 c 0.007,-1.0758 -0.265,-1.9129 -0.818,-2.5114 -0.546,-0.5984 -1.311,-0.8977 -2.296,-0.8977 -0.659,0 -1.242,0.1402 -1.75,0.4205 -0.5,0.2803 -0.894,0.6894 -1.182,1.2272 -0.28,0.5303 -0.424,1.1705 -0.432,1.9205 z m 23.015,10.4318 c -1.765,0 -3.292,-0.375 -4.58,-1.125 -1.28,-0.7576 -2.269,-1.8106 -2.966,-3.1591 -0.697,-1.356 -1.045,-2.928 -1.045,-4.7159 0,-1.803 0.348,-3.3788 1.045,-4.7273 0.697,-1.356 1.686,-2.4090998 2.966,-3.1590998 1.288,-0.7575 2.815,-1.1363 4.58,-1.1363 1.765,0 3.288,0.3788 4.568,1.1363 1.288,0.75 2.28,1.8030998 2.977,3.1590998 0.697,1.3485 1.046,2.9243 1.046,4.7273 0,1.7879 -0.349,3.3599 -1.046,4.7159 -0.697,1.3485 -1.689,2.4015 -2.977,3.1591 -1.28,0.75 -2.803,1.125 -4.568,1.125 z m 0.022,-3.75 c 0.803,0 1.474,-0.2273 2.012,-0.6818 0.538,-0.4621 0.943,-1.0909 1.216,-1.8864 0.28,-0.7954 0.42,-1.7007 0.42,-2.7159 0,-1.0151 -0.14,-1.9204 -0.42,-2.7159 -0.273,-0.7954 -0.678,-1.4242 -1.216,-1.8864 -0.538,-0.4621 -1.209,-0.6931 -2.012,-0.6931 -0.81,0 -1.492,0.231 -2.045,0.6931 -0.545,0.4622 -0.958,1.091 -1.239,1.8864 -0.272,0.7955 -0.409,1.7008 -0.409,2.7159 0,1.0152 0.137,1.9205 0.409,2.7159 0.281,0.7955 0.694,1.4243 1.239,1.8864 0.553,0.4545 1.235,0.6818 2.045,0.6818 z m 16.557,-6.6818 v 10.0909 h -4.841 V 7.9123832 h 4.614 v 3.0794998 h 0.204 c 0.387,-1.0151998 1.035,-1.8181998 1.944,-2.4090998 0.909,-0.5985 2.011,-0.8977 3.306,-0.8977 1.213,0 2.269,0.2651 3.171,0.7954 0.901,0.5303 1.602,1.2879 2.102,2.2727998 0.5,0.9772 0.75,2.1439 0.75,3.5 v 11.1136 h -4.841 v -10.25 c 0.008,-1.0682 -0.265,-1.9015 -0.818,-2.5 -0.553,-0.6061 -1.314,-0.9091 -2.284,-0.9091 -0.651,0 -1.227,0.1402 -1.727,0.4205 -0.493,0.2803 -0.879,0.6894 -1.159,1.2272 -0.273,0.5303 -0.413,1.1705 -0.421,1.9205 z" />
    <rect
       x="-26.718107"
       y="48.366882"
       width="148"
       height="44"
       fill="#ffe0a2"
       id="rect637" />
    <path
       d="M 12.379892,67.913883 H 9.2688921 c -0.057,-0.403 -0.173,-0.76 -0.348,-1.073 -0.175,-0.317 -0.4,-0.587 -0.675,-0.809 -0.274,-0.223 -0.591,-0.393 -0.951,-0.512 -0.355,-0.118 -0.741,-0.177 -1.158,-0.177 -0.753,0 -1.409,0.187 -1.967,0.561 -0.559,0.369 -0.992,0.909 -1.3,1.619 -0.308,0.706 -0.462,1.563 -0.462,2.571 0,1.037 0.154,1.908 0.462,2.614 0.313,0.705 0.748,1.238 1.307,1.598 0.559,0.36 1.205,0.54 1.939,0.54 0.412,0 0.793,-0.055 1.143,-0.164 0.355,-0.109 0.67,-0.267 0.945,-0.476 0.274,-0.213 0.502,-0.471 0.682,-0.774 0.184,-0.303 0.312,-0.648 0.383,-1.037 l 3.1109999,0.015 c -0.08,0.667 -0.282,1.311 -0.604,1.931 -0.317,0.616 -0.745,1.168 -1.285,1.655 -0.5349999,0.483 -1.1739999,0.867 -1.9179999,1.151 -0.738,0.279 -1.574,0.419 -2.507,0.419 -1.297,0 -2.457,-0.294 -3.48,-0.881 -1.018,-0.587 -1.82299995,-1.437 -2.41499995,-2.55 -0.587,-1.112 -0.88,-2.459 -0.88,-4.041 0,-1.586 0.298,-2.935 0.894,-4.048 0.597,-1.113 1.40699995,-1.96 2.42899995,-2.543 1.023,-0.587 2.174,-0.88 3.452,-0.88 0.843,0 1.624,0.118 2.344,0.355 0.724,0.237 1.366,0.582 1.9249999,1.037 0.558,0.45 1.013,1.001 1.363,1.655 0.355,0.653 0.583,1.401 0.682,2.244 z m 15.572,2.18 c 0,1.586 -0.301,2.936 -0.902,4.049 -0.597,1.112 -1.411,1.962 -2.443,2.549 -1.028,0.583 -2.183,0.874 -3.466,0.874 -1.293,0 -2.453,-0.294 -3.48,-0.881 -1.028,-0.587 -1.84,-1.437 -2.437,-2.55 -0.596,-1.112 -0.894,-2.459 -0.894,-4.041 0,-1.586 0.298,-2.935 0.894,-4.048 0.597,-1.113 1.409,-1.96 2.437,-2.543 1.027,-0.587 2.187,-0.88 3.48,-0.88 1.283,0 2.438,0.293 3.466,0.88 1.032,0.583 1.846,1.43 2.443,2.543 0.601,1.113 0.902,2.462 0.902,4.048 z m -3.118,0 c 0,-1.027 -0.154,-1.894 -0.462,-2.599 -0.303,-0.706 -0.731,-1.241 -1.285,-1.605 -0.554,-0.365 -1.203,-0.547 -1.946,-0.547 -0.744,0 -1.392,0.182 -1.946,0.547 -0.554,0.364 -0.985,0.899 -1.293,1.605 -0.303,0.705 -0.455,1.572 -0.455,2.599 0,1.028 0.152,1.894 0.455,2.6 0.308,0.705 0.739,1.24 1.293,1.605 0.554,0.364 1.202,0.547 1.946,0.547 0.743,0 1.392,-0.183 1.946,-0.547 0.554,-0.365 0.982,-0.9 1.285,-1.605 0.308,-0.706 0.462,-1.572 0.462,-2.6 z m 17.562,-7.272 v 14.545 h -2.656 l -6.328,-9.155 h -0.107 v 9.155 h -3.075 v -14.545 h 2.699 l 6.278,9.147 h 0.128 v -9.147 z m 10.431,4.183 c -0.056,-0.573 -0.3,-1.018 -0.731,-1.335 -0.431,-0.318 -1.016,-0.476 -1.754,-0.476 -0.502,0 -0.926,0.071 -1.272,0.213 -0.345,0.137 -0.61,0.329 -0.795,0.575 -0.18,0.246 -0.27,0.526 -0.27,0.838 -0.009,0.261 0.045,0.488 0.163,0.682 0.123,0.194 0.292,0.362 0.505,0.504 0.213,0.138 0.459,0.258 0.738,0.362 0.28,0.1 0.578,0.185 0.895,0.256 l 1.307,0.313 c 0.634,0.142 1.217,0.331 1.747,0.568 0.53,0.237 0.99,0.528 1.378,0.873 0.388,0.346 0.689,0.753 0.902,1.222 0.218,0.469 0.329,1.006 0.334,1.612 -0.005,0.89 -0.232,1.662 -0.682,2.316 -0.445,0.648 -1.089,1.152 -1.932,1.512 -0.838,0.355 -1.849,0.533 -3.033,0.533 -1.174,0 -2.197,-0.18 -3.068,-0.54 -0.866,-0.36 -1.543,-0.892 -2.031,-1.598 -0.483,-0.71 -0.736,-1.588 -0.76,-2.635 h 2.976 c 0.033,0.488 0.173,0.895 0.419,1.222 0.251,0.322 0.585,0.566 1.001,0.731 0.422,0.161 0.898,0.242 1.428,0.242 0.521,0 0.973,-0.076 1.356,-0.227 0.389,-0.152 0.689,-0.363 0.902,-0.633 0.214,-0.269 0.32,-0.58 0.32,-0.93 0,-0.327 -0.097,-0.601 -0.291,-0.824 -0.19,-0.222 -0.469,-0.412 -0.838,-0.568 -0.365,-0.156 -0.812,-0.298 -1.343,-0.426 l -1.583,-0.398 c -1.227,-0.298 -2.195,-0.765 -2.905,-1.399 -0.71,-0.634 -1.063,-1.489 -1.058,-2.564 -0.005,-0.881 0.229,-1.65 0.703,-2.308 0.478,-0.658 1.134,-1.172 1.967,-1.541 0.833,-0.37 1.78,-0.554 2.841,-0.554 1.08,0 2.022,0.184 2.827,0.554 0.809,0.369 1.439,0.883 1.889,1.541 0.45,0.658 0.682,1.42 0.696,2.287 z m 18.582,3.089 c 0,1.586 -0.301,2.936 -0.902,4.049 -0.597,1.112 -1.411,1.962 -2.443,2.549 -1.028,0.583 -2.183,0.874 -3.466,0.874 -1.293,0 -2.453,-0.294 -3.48,-0.881 -1.028,-0.587 -1.84,-1.437 -2.436,-2.55 -0.597,-1.112 -0.895,-2.459 -0.895,-4.041 0,-1.586 0.298,-2.935 0.895,-4.048 0.596,-1.113 1.408,-1.96 2.436,-2.543 1.027,-0.587 2.187,-0.88 3.48,-0.88 1.283,0 2.438,0.293 3.466,0.88 1.032,0.583 1.846,1.43 2.443,2.543 0.601,1.113 0.902,2.462 0.902,4.048 z m -3.118,0 c 0,-1.027 -0.154,-1.894 -0.462,-2.599 -0.303,-0.706 -0.731,-1.241 -1.285,-1.605 -0.554,-0.365 -1.203,-0.547 -1.946,-0.547 -0.744,0 -1.392,0.182 -1.946,0.547 -0.554,0.364 -0.985,0.899 -1.293,1.605 -0.303,0.705 -0.454,1.572 -0.454,2.599 0,1.028 0.151,1.894 0.454,2.6 0.308,0.705 0.739,1.24 1.293,1.605 0.554,0.364 1.202,0.547 1.946,0.547 0.743,0 1.392,-0.183 1.946,-0.547 0.554,-0.365 0.982,-0.9 1.285,-1.605 0.308,-0.706 0.462,-1.572 0.462,-2.6 z m 5.396,7.273 v -14.545 h 3.075 v 12.009 h 6.236 v 2.536 z m 11.347,0 v -14.545 h 9.802 v 2.535 h -6.726 v 3.466 h 6.221 v 2.535 h -6.221 v 3.473 h 6.754 v 2.536 z"
       fill="#000000"
       id="path639" />
    <rect
       x="-202.71811"
       y="48.366882"
       width="148"
       height="44"
       fill="#ffe0a2"
       id="rect641" />
    <path
       d="m -160.00791,65.356884 v -2.535 h 11.946 v 2.535 h -4.4531 v 12.01 h -3.0397 v -12.01 z m 16.9887,-2.535 v 14.545 h -3.0753 v -14.545 z m 2.5301,0 h 3.7927 l 4.0056,9.772 h 0.1705 l 4.0057,-9.772 h 3.7926 v 14.545 h -2.983 v -9.467 h -0.1207 l -3.7642,9.396 h -2.0313 l -3.7642,-9.432 h -0.1207 v 9.503 h -2.983 z m 18.3008,14.545 v -14.545 h 9.8012 v 2.535 h -6.7259 v 3.466 h 6.2219 v 2.535 h -6.2219 v 3.473 h 6.7539 v 2.536 z m 12.2462,0 v -14.545 h 5.739 c 1.098,0 2.036,0.196 2.812,0.589 0.781,0.388 1.376,0.94 1.783002,1.655 0.412,0.71 0.618,1.546 0.618,2.507 0,0.966 -0.209,1.797 -0.625,2.493 -0.417002,0.691 -1.021002,1.221 -1.811002,1.591 -0.786,0.369 -1.738,0.554 -2.856,0.554 h -3.842 v -2.472 h 3.345 c 0.587,0 1.075,-0.08 1.463,-0.241 0.389,-0.161 0.677,-0.403 0.867,-0.725 0.194,-0.322 0.291,-0.722 0.291,-1.2 0,-0.483 -0.097,-0.89 -0.291,-1.222 -0.19,-0.331 -0.481,-0.582 -0.874,-0.752 -0.388,-0.176 -0.878,-0.263 -1.47,-0.263 h -2.074 v 12.031 z m 7.855,-6.619 3.615002,6.619 h -3.395002 l -3.537,-6.619 z"
       fill="#000000"
       id="path643" />
    <rect
       x="-25.718107"
       y="413.36688"
       width="147"
       height="59"
       fill="#668b37"
       id="rect645" />
    <path
       d="m 21.620892,439.81988 c -0.066,-0.62 -0.345,-1.103 -0.838,-1.449 -0.487,-0.345 -1.122,-0.518 -1.903,-0.518 -0.549,0 -1.02,0.083 -1.413,0.248 -0.393,0.166 -0.694,0.391 -0.902,0.675 -0.209,0.284 -0.315,0.609 -0.32,0.973 0,0.303 0.069,0.566 0.206,0.788 0.142,0.223 0.334,0.412 0.575,0.569 0.242,0.151 0.509,0.279 0.803,0.383 0.293,0.104 0.589,0.192 0.888,0.263 l 1.363,0.341 c 0.55,0.128 1.077,0.301 1.584,0.518 0.511,0.218 0.968,0.493 1.371,0.824 0.407,0.332 0.729,0.732 0.966,1.2 0.236,0.469 0.355,1.018 0.355,1.648 0,0.852 -0.218,1.603 -0.654,2.252 -0.435,0.644 -1.065,1.148 -1.889,1.512 -0.819,0.36 -1.811,0.54 -2.976,0.54 -1.131,0 -2.114,-0.175 -2.947,-0.525 -0.829,-0.351 -1.477,-0.862 -1.946,-1.534 -0.464,-0.673 -0.715,-1.492 -0.753,-2.458 h 2.592 c 0.038,0.507 0.195,0.928 0.469,1.264 0.275,0.337 0.632,0.587 1.073,0.753 0.445,0.166 0.942,0.249 1.491,0.249 0.573,0 1.075,-0.085 1.506,-0.256 0.435,-0.175 0.776,-0.417 1.022,-0.724 0.247,-0.313 0.372,-0.677 0.377,-1.094 -0.005,-0.379 -0.116,-0.691 -0.334,-0.938 -0.218,-0.251 -0.523,-0.459 -0.916,-0.625 -0.388,-0.17 -0.843,-0.322 -1.364,-0.454 l -1.655,-0.426 c -1.197,-0.308 -2.144,-0.774 -2.84,-1.399 -0.692,-0.63 -1.037,-1.466 -1.037,-2.508 0,-0.857 0.232,-1.607 0.696,-2.251 0.468,-0.644 1.105,-1.143 1.91,-1.499 0.805,-0.359 1.717,-0.539 2.735,-0.539 1.032,0 1.936,0.18 2.713,0.539 0.781,0.356 1.394,0.85 1.839,1.485 0.445,0.63 0.675,1.354 0.689,2.173 z m 5.084,10.547 v -14.545 h 9.46 v 2.208 h -6.825 v 3.949 h 6.335 v 2.209 h -6.335 v 3.97 h 6.882 v 2.209 z m 12.148,0 v -14.545 h 5.455 c 1.117,0 2.055,0.194 2.812,0.582 0.763,0.388 1.338,0.933 1.726,1.633 0.393,0.696 0.59,1.509 0.59,2.437 0,0.932 -0.199,1.742 -0.597,2.429 -0.393,0.681 -0.973,1.209 -1.74,1.583 -0.767,0.37 -1.709,0.554 -2.827,0.554 h -3.885 v -2.187 h 3.53 c 0.654,0 1.189,-0.09 1.605,-0.27 0.417,-0.185 0.725,-0.452 0.924,-0.803 0.203,-0.355 0.305,-0.79 0.305,-1.306 0,-0.517 -0.102,-0.957 -0.305,-1.321 -0.204,-0.37 -0.514,-0.649 -0.931,-0.839 -0.416,-0.194 -0.954,-0.291 -1.612,-0.291 h -2.415 v 12.344 z m 7.515,-6.591 3.6,6.591 h -2.94 l -3.537,-6.591 z m 8.128,-7.954 v 14.545 h -2.635 v -14.545 z m 4.721,14.545 h -2.812 l 5.121,-14.545 h 3.252 l 5.128,14.545 h -2.812 l -3.885,-11.562 h -0.114 z m 0.093,-5.703 h 7.67 v 2.116 h -7.67 z m 12.512,5.703 v -14.545 h 2.635 v 12.336 h 6.406 v 2.209 z"
       fill="#ffffff"
       id="path647" />
    <rect
       x="263.28189"
       y="304.36688"
       width="147"
       height="59"
       fill="#668b37"
       id="rect649" />
    <path
       d="m 316.66289,326.82188 3.785,11.448 h 0.149 l 3.779,-11.448 h 2.897 l -5.127,14.545 h -3.253 l -5.121,-14.545 z m 15.161,0 v 14.545 h -2.635 v -14.545 z m 2.854,14.545 v -14.545 h 5.454 c 1.118,0 2.055,0.194 2.813,0.582 0.762,0.388 1.337,0.933 1.725,1.633 0.393,0.696 0.59,1.509 0.59,2.437 0,0.932 -0.199,1.742 -0.597,2.429 -0.393,0.681 -0.973,1.209 -1.74,1.583 -0.767,0.37 -1.709,0.554 -2.826,0.554 h -3.885 v -2.187 h 3.53 c 0.653,0 1.188,-0.09 1.605,-0.27 0.416,-0.185 0.724,-0.452 0.923,-0.803 0.204,-0.355 0.305,-0.79 0.305,-1.306 0,-0.517 -0.101,-0.957 -0.305,-1.321 -0.204,-0.37 -0.514,-0.649 -0.93,-0.839 -0.417,-0.194 -0.955,-0.291 -1.613,-0.291 h -2.414 v 12.344 z m 7.514,-6.591 3.601,6.591 h -2.941 l -3.537,-6.591 z m 4.854,-5.746 v -2.208 h 11.605 v 2.208 h -4.495 v 12.337 h -2.614 v -12.337 z"
       fill="#ffffff"
       id="path651" />
    <rect
       x="-201.71811"
       y="413.36688"
       width="147"
       height="59"
       fill="#668b37"
       id="rect653" />
    <path
       d="m -158.92261,438.02988 v -2.208 h 11.6051 v 2.208 h -4.4958 v 12.337 h -2.6136 v -12.337 z m 16.4772,-2.208 v 14.545 h -2.6349 v -14.545 z m 2.8534,0 h 3.2244 l 4.3182,10.539 h 0.1704 l 4.3182,-10.539 h 3.2244 v 14.545 h -2.5284 v -9.993 h -0.1349 l -4.0199,9.95 h -1.8892 l -4.0199,-9.971 h -0.1349 v 10.014 h -2.5284 z m 18.125,14.545 v -14.545 h 9.4599 v 2.208 h -6.825 v 3.949 h 6.335 v 2.209 h -6.335 v 3.97 h 6.882 v 2.209 z m 12.1489,0 v -14.545 h 5.454 c 1.117,0 2.055,0.194 2.813,0.582 0.762,0.388 1.337002,0.933 1.725002,1.633 0.393,0.696 0.59,1.509 0.59,2.437 0,0.932 -0.199,1.742 -0.597,2.429 -0.393,0.681 -0.973002,1.209 -1.740002,1.583 -0.767,0.37 -1.709,0.554 -2.826,0.554 h -3.885 v -2.187 h 3.529 c 0.654,0 1.189,-0.09 1.606,-0.27 0.416,-0.185 0.724,-0.452 0.923,-0.803 0.203,-0.355 0.305,-0.79 0.305,-1.306 0,-0.517 -0.102,-0.957 -0.305,-1.321 -0.204,-0.37 -0.514,-0.649 -0.931,-0.839 -0.416,-0.194 -0.954,-0.291 -1.612,-0.291 h -2.415 v 12.344 z m 7.514,-6.591 3.601002,6.591 h -2.941002 l -3.537,-6.591 z"
       fill="#ffffff"
       id="path655" />
    <rect
       x="149.28189"
       y="187.36688"
       width="147"
       height="106"
       fill="#668b37"
       id="rect657" />
    <path
       d="m 215.66989,208.82188 v 14.545 h -2.344 l -6.854,-9.908 h -0.12 v 9.908 h -2.635 v -14.545 h 2.358 l 6.846,9.914 h 0.128 v -9.914 z m 2.871,14.545 v -14.545 h 9.318 v 2.208 h -6.683 v 3.949 h 6.044 v 2.209 h -6.044 v 6.179 z m 19.623,-10.547 c -0.066,-0.62 -0.345,-1.103 -0.838,-1.449 -0.487,-0.345 -1.122,-0.518 -1.903,-0.518 -0.549,0 -1.02,0.083 -1.413,0.248 -0.393,0.166 -0.694,0.391 -0.902,0.675 -0.209,0.284 -0.315,0.609 -0.32,0.973 0,0.303 0.069,0.566 0.206,0.788 0.142,0.223 0.334,0.412 0.575,0.569 0.242,0.151 0.509,0.279 0.803,0.383 0.293,0.104 0.589,0.192 0.888,0.263 l 1.363,0.341 c 0.55,0.128 1.077,0.301 1.584,0.518 0.511,0.218 0.968,0.493 1.371,0.824 0.407,0.332 0.729,0.732 0.966,1.2 0.236,0.469 0.355,1.018 0.355,1.648 0,0.852 -0.218,1.603 -0.654,2.252 -0.435,0.644 -1.065,1.148 -1.889,1.512 -0.819,0.36 -1.811,0.54 -2.976,0.54 -1.131,0 -2.114,-0.175 -2.947,-0.525 -0.829,-0.351 -1.477,-0.862 -1.946,-1.534 -0.464,-0.673 -0.715,-1.492 -0.753,-2.458 h 2.592 c 0.038,0.507 0.195,0.928 0.469,1.264 0.275,0.337 0.632,0.587 1.073,0.753 0.445,0.166 0.942,0.249 1.491,0.249 0.573,0 1.075,-0.085 1.506,-0.256 0.435,-0.175 0.776,-0.417 1.022,-0.724 0.247,-0.313 0.372,-0.677 0.377,-1.094 -0.005,-0.379 -0.116,-0.691 -0.334,-0.938 -0.218,-0.251 -0.523,-0.459 -0.916,-0.625 -0.388,-0.17 -0.843,-0.322 -1.364,-0.454 l -1.655,-0.426 c -1.197,-0.308 -2.144,-0.774 -2.84,-1.399 -0.692,-0.63 -1.037,-1.466 -1.037,-2.508 0,-0.857 0.232,-1.607 0.696,-2.251 0.468,-0.644 1.105,-1.143 1.91,-1.499 0.805,-0.359 1.716,-0.539 2.734,-0.539 1.033,0 1.937,0.18 2.714,0.539 0.781,0.356 1.394,0.85 1.839,1.485 0.445,0.63 0.675,1.354 0.689,2.173 z"
       fill="#ffffff"
       id="path659" />
    <rect
       x="174.28189"
       y="237.36688"
       width="97"
       height="44"
       fill="#4c6729"
       id="rect661" />
    <path
       d="m 198.54589,266.36688 v -14.545 h 3.075 v 12.009 h 6.236 v 2.536 z m 13.802,0 -4.162,-14.545 h 3.359 l 2.408,10.106 h 0.121 l 2.656,-10.106 h 2.876 l 2.649,10.127 h 0.128 l 2.408,-10.127 h 3.359 l -4.162,14.545 h -2.997 l -2.77,-9.51 h -0.113 l -2.763,9.51 z m 20.523,-14.545 v 14.545 h -3.075 v -14.545 z m 2.531,14.545 v -14.545 h 5.738 c 1.104,0 2.043,0.21 2.82,0.632 0.776,0.416 1.368,0.996 1.775,1.74 0.412,0.738 0.618,1.591 0.618,2.557 0,0.965 -0.208,1.818 -0.625,2.556 -0.416,0.739 -1.02,1.314 -1.811,1.726 -0.786,0.412 -1.737,0.618 -2.855,0.618 h -3.657 v -2.464 h 3.16 c 0.592,0 1.08,-0.102 1.463,-0.306 0.388,-0.208 0.677,-0.495 0.867,-0.859 0.194,-0.369 0.291,-0.793 0.291,-1.271 0,-0.483 -0.097,-0.905 -0.291,-1.265 -0.19,-0.364 -0.479,-0.646 -0.867,-0.845 -0.388,-0.203 -0.881,-0.305 -1.477,-0.305 h -2.074 v 12.031 z"
       fill="#ffffff"
       id="path663" />
    <rect
       x="263.28189"
       y="413.36688"
       width="147"
       height="59"
       fill="#668b37"
       id="rect669" />
    <path
       d="m 284.71689,450.36688 v -14.545 h 9.46 v 2.208 h -6.825 v 3.949 h 6.335 v 2.209 h -6.335 v 3.97 h 6.882 v 2.209 z m 11.509,-12.337 v -2.208 h 11.605 v 2.208 h -4.496 v 12.337 h -2.613 v -12.337 z m 13.842,12.337 v -14.545 h 2.635 v 6.157 h 6.74 v -6.157 h 2.642 v 14.545 h -2.642 v -6.179 h -6.74 v 6.179 z m 14.883,0 v -14.545 h 9.46 v 2.208 h -6.825 v 3.949 h 6.335 v 2.209 h -6.335 v 3.97 h 6.882 v 2.209 z m 12.148,0 v -14.545 h 5.455 c 1.117,0 2.055,0.194 2.813,0.582 0.762,0.388 1.337,0.933 1.725,1.633 0.393,0.696 0.59,1.509 0.59,2.437 0,0.932 -0.199,1.742 -0.597,2.429 -0.393,0.681 -0.973,1.209 -1.74,1.583 -0.767,0.37 -1.709,0.554 -2.826,0.554 h -3.885 v -2.187 h 3.529 c 0.654,0 1.189,-0.09 1.606,-0.27 0.416,-0.185 0.724,-0.452 0.923,-0.803 0.203,-0.355 0.305,-0.79 0.305,-1.306 0,-0.517 -0.102,-0.957 -0.305,-1.321 -0.204,-0.37 -0.514,-0.649 -0.931,-0.839 -0.416,-0.194 -0.954,-0.291 -1.612,-0.291 h -2.415 v 12.344 z m 7.515,-6.591 3.601,6.591 h -2.941 l -3.537,-6.591 z m 17.446,-7.954 v 14.545 h -2.343 l -6.854,-9.908 h -0.121 v 9.908 h -2.635 v -14.545 h 2.358 l 6.847,9.914 h 0.128 v -9.914 z m 2.872,14.545 v -14.545 h 9.46 v 2.208 h -6.826 v 3.949 h 6.336 v 2.209 h -6.336 v 3.97 h 6.883 v 2.209 z m 11.509,-12.337 v -2.208 h 11.605 v 2.208 h -4.496 v 12.337 h -2.614 v -12.337 z"
       fill="#ffffff"
       id="path671" />
    <rect
       x="348.28189"
       y="187.36688"
       width="86"
       height="59"
       fill="#668b37"
       id="rect673" />
    <path
       d="m 374.58489,223.36688 h -2.813 l 5.121,-14.545 h 3.253 l 5.127,14.545 h -2.812 l -3.885,-11.562 h -0.114 z m 0.092,-5.703 h 7.67 v 2.116 h -7.67 z m 12.512,5.703 v -14.545 h 5.455 c 1.117,0 2.055,0.194 2.812,0.582 0.763,0.388 1.338,0.933 1.726,1.633 0.393,0.696 0.59,1.509 0.59,2.437 0,0.932 -0.199,1.742 -0.597,2.429 -0.393,0.681 -0.973,1.209 -1.74,1.583 -0.767,0.37 -1.709,0.554 -2.827,0.554 h -3.885 v -2.187 h 3.53 c 0.654,0 1.189,-0.09 1.605,-0.27 0.417,-0.185 0.725,-0.452 0.924,-0.803 0.203,-0.355 0.305,-0.79 0.305,-1.306 0,-0.517 -0.102,-0.957 -0.305,-1.321 -0.204,-0.37 -0.514,-0.649 -0.931,-0.839 -0.416,-0.194 -0.954,-0.291 -1.612,-0.291 h -2.415 v 12.344 z m 7.515,-6.591 3.6,6.591 h -2.94 l -3.537,-6.591 z m 5.493,6.591 v -14.545 h 5.455 c 1.117,0 2.055,0.208 2.812,0.625 0.762,0.416 1.338,0.989 1.726,1.718 0.393,0.725 0.59,1.549 0.59,2.472 0,0.933 -0.197,1.761 -0.59,2.486 -0.393,0.724 -0.973,1.295 -1.74,1.711 -0.767,0.412 -1.712,0.618 -2.834,0.618 h -3.615 v -2.166 h 3.26 c 0.653,0 1.188,-0.114 1.605,-0.341 0.417,-0.227 0.725,-0.54 0.923,-0.937 0.204,-0.398 0.306,-0.855 0.306,-1.371 0,-0.516 -0.102,-0.971 -0.306,-1.364 -0.198,-0.393 -0.509,-0.698 -0.93,-0.916 -0.417,-0.222 -0.954,-0.334 -1.612,-0.334 h -2.415 v 12.344 z"
       fill="#ffffff"
       id="path675" />
    <rect
       x="-26.718107"
       y="187.36688"
       width="147"
       height="59"
       fill="#668b37"
       id="rect681" />
    <path
       d="m 26.662892,209.82188 3.785,11.448 h 0.149 l 3.779,-11.448 h 2.897 l -5.127,14.545 h -3.253 l -5.121,-14.545 z m 15.161,0 v 14.545 h -2.635 v -14.545 z m 2.854,14.545 v -14.545 h 5.454 c 1.118,0 2.055,0.194 2.813,0.582 0.762,0.388 1.337,0.933 1.725,1.633 0.393,0.696 0.59,1.509 0.59,2.437 0,0.932 -0.199,1.742 -0.597,2.429 -0.393,0.681 -0.973,1.209 -1.74,1.583 -0.767,0.37 -1.709,0.554 -2.826,0.554 h -3.885 v -2.187 h 3.53 c 0.653,0 1.188,-0.09 1.605,-0.27 0.416,-0.185 0.724,-0.452 0.923,-0.803 0.204,-0.355 0.305,-0.79 0.305,-1.306 0,-0.517 -0.101,-0.957 -0.305,-1.321 -0.204,-0.37 -0.514,-0.649 -0.93,-0.839 -0.417,-0.194 -0.955,-0.291 -1.613,-0.291 h -2.414 v 12.344 z m 7.514,-6.591 3.601,6.591 h -2.941 l -3.537,-6.591 z m 4.854,-5.746 v -2.208 h 11.605 v 2.208 h -4.495 v 12.337 h -2.614 v -12.337 z"
       fill="#ffffff"
       id="path683" />
    <rect
       x="149.28189"
       y="48.366882"
       width="148"
       height="44"
       fill="#ffe0a2"
       id="rect689" />
    <path
       d="m 207.17389,62.821884 3.516,11.051 h 0.135 l 3.522,-11.051 h 3.409 l -5.014,14.545 h -3.963 l -5.021,-14.545 z m 12.333,14.545 v -14.545 h 9.631 v 2.535 h -6.556 v 3.466 h 5.917 v 2.535 h -5.917 v 6.009 z m 19.59,-10.362 c -0.057,-0.573 -0.301,-1.018 -0.732,-1.335 -0.43,-0.318 -1.015,-0.476 -1.754,-0.476 -0.502,0 -0.925,0.071 -1.271,0.213 -0.346,0.137 -0.611,0.329 -0.796,0.575 -0.179,0.246 -0.269,0.526 -0.269,0.838 -0.01,0.261 0.045,0.488 0.163,0.682 0.123,0.194 0.291,0.362 0.504,0.504 0.213,0.138 0.459,0.258 0.739,0.362 0.279,0.1 0.577,0.185 0.895,0.256 l 1.306,0.313 c 0.635,0.142 1.217,0.331 1.748,0.568 0.53,0.237 0.989,0.528 1.377,0.873 0.389,0.346 0.689,0.753 0.902,1.222 0.218,0.469 0.33,1.006 0.334,1.612 -0.004,0.89 -0.232,1.662 -0.682,2.316 -0.445,0.648 -1.089,1.152 -1.931,1.512 -0.838,0.355 -1.849,0.533 -3.033,0.533 -1.174,0 -2.197,-0.18 -3.068,-0.54 -0.867,-0.36 -1.544,-0.892 -2.031,-1.598 -0.483,-0.71 -0.737,-1.588 -0.76,-2.635 h 2.975 c 0.034,0.488 0.173,0.895 0.419,1.222 0.251,0.322 0.585,0.566 1.002,0.731 0.421,0.161 0.897,0.242 1.427,0.242 0.521,0 0.973,-0.076 1.357,-0.227 0.388,-0.152 0.689,-0.363 0.902,-0.633 0.213,-0.269 0.32,-0.58 0.32,-0.93 0,-0.327 -0.097,-0.601 -0.292,-0.824 -0.189,-0.222 -0.468,-0.412 -0.838,-0.568 -0.364,-0.156 -0.812,-0.298 -1.342,-0.426 l -1.584,-0.398 c -1.226,-0.298 -2.194,-0.765 -2.905,-1.399 -0.71,-0.634 -1.063,-1.489 -1.058,-2.564 -0.005,-0.881 0.23,-1.65 0.703,-2.308 0.478,-0.658 1.134,-1.172 1.968,-1.541 0.833,-0.37 1.78,-0.554 2.84,-0.554 1.08,0 2.022,0.184 2.827,0.554 0.81,0.369 1.44,0.883 1.889,1.541 0.45,0.658 0.682,1.42 0.696,2.287 z"
       fill="#000000"
       id="path691" />
    <rect
       x="325.28189"
       y="48.366882"
       width="148"
       height="44"
       fill="#ffe0a2"
       id="rect693" />
    <path
       d="m 375.54589,77.366884 v -14.545 h 3.075 v 12.009 h 6.236 v 2.536 z m 13.802,0 -4.162,-14.545 h 3.359 l 2.408,10.106 h 0.121 l 2.656,-10.106 h 2.876 l 2.649,10.127 h 0.128 l 2.408,-10.127 h 3.359 l -4.162,14.545 h -2.997 l -2.77,-9.51 h -0.113 l -2.763,9.51 z m 20.523,-14.545 v 14.545 h -3.075 v -14.545 z m 2.531,14.545 v -14.545 h 5.738 c 1.104,0 2.043,0.21 2.82,0.632 0.776,0.416 1.368,0.996 1.775,1.74 0.412,0.738 0.618,1.591 0.618,2.557 0,0.965 -0.208,1.818 -0.625,2.556 -0.416,0.739 -1.02,1.314 -1.811,1.726 -0.786,0.412 -1.737,0.618 -2.855,0.618 h -3.657 v -2.464 h 3.16 c 0.592,0 1.08,-0.102 1.463,-0.306 0.388,-0.208 0.677,-0.495 0.867,-0.859 0.194,-0.369 0.291,-0.793 0.291,-1.271 0,-0.483 -0.097,-0.905 -0.291,-1.265 -0.19,-0.364 -0.479,-0.646 -0.867,-0.845 -0.388,-0.203 -0.881,-0.305 -1.477,-0.305 h -2.074 v 12.031 z"
       fill="#000000"
       id="path695" />
    <path
       d="m 223.28189,92.366884 -11.757,19.876996 23.093,0.243 z m -1,94.999996 11.757,-19.877 -23.093,-0.243 z m -1.189,-77.022 -0.621,59.002 3.999,0.042 0.621,-59.002 z"
       fill="#000000"
       id="path713" />
    <path
       d="m 46.281892,92.366884 -11.757,19.876996 23.093,0.243 z m -1,94.999996 11.757,-19.877 -23.093,-0.243 z m -1.189,-77.022 -0.621,59.002 3.999,0.042 0.621,-59.002 z"
       fill="#000000"
       id="path715" />
    <path
       d="m 47.281892,246.36688 -11.547,20 h 23.094 z m 0,167 11.547,-20 h -23.094 z m -2,-149 v 131 h 4 v -131 z"
       fill="#000000"
       id="path717" />
    <path
       d="m -128.71811,92.366884 -11.547,19.999996 h 23.094 z m 0,320.999996 11.547,-20 h -23.094 z m -2,-303 v 285 h 4 v -285 z"
       fill="#000000"
       id="path719" />
    <path
       d="m 451.28189,92.366884 -11.547,19.999996 h 23.094 z m -2,17.999996 v 224 h 4 v -224 z"
       fill="#000000"
       id="path723" />
    <path
       fill-rule="evenodd"
       clip-rule="evenodd"
       d="m 222.28189,293.36688 -11.116,20.065 9.547,-0.058 0.569,26.455 v 1.99 h 22 v 9.547 l 20,-11.547 -20,-11.547 v 9.547 h -18.043 l -0.527,-24.469 9.547,-0.057 z"
       fill="#000000"
       id="path725" />
    <path
       d="m 391.28189,92.366884 -11.547,19.999996 h 23.094 z m 0,94.999996 11.547,-20 h -23.094 z m -2,-77 v 59 h 4 v -59 z"
       fill="#000000"
       id="path727" />
    <path
       d="m 391.28189,246.36688 -22.141,6.567 16.758,15.891 z m -55,58 22.141,-6.567 -16.758,-15.891 z m 41.163,-46.315 -30.229,31.878 2.903,2.752 30.229,-31.878 z"
       fill="#000000"
       id="path729" />
    <path
       d="m 336.28189,363.36688 -11.547,20 h 23.094 z m 0,50 11.547,-20 h -23.094 z m -2,-32 v 14 h 4 v -14 z"
       fill="#000000"
       id="path731" />
    <path
       d="m 345.28189,217.36688 -15,-8.66 v 17.32 z m -51,0 15,8.66 v -17.32 z m 37.5,-1.5 h -24 v 3 h 24 z"
       fill="#000000"
       id="path733" />
    <path
       d="m 411.28189,334.36688 20,11.547 v -23.094 z m 42,-2 h -24 v 4 h 24 z"
       fill="#000000"
       id="path741" />
    <text
       xml:space="preserve"
       style="font-size:32px;line-height:125%;font-family:Sans;letter-spacing:0px;word-spacing:0px;fill:#000000;fill-opacity:1;stroke:#000000;stroke-width:1px;stroke-linecap:butt;stroke-linejoin:miter;stroke-opacity:1"
       x="-2.22"
       y="24.82"
       id="text877"><tspan
         sodipodi:role="line"
         id="tspan875"
         x="-2.22"
         y="24.82"
         style="fill:#000000;fill-opacity:1">microPython</tspan></text>
    <rect
       style="opacity:0.945;fill:#62c65f;fill-opacity:1;stroke:#000000;stroke-width:0"
       id="rect5885"
       width="536.69421"
       height="70.251076"
       x="-126.69741"
       y="-90.47747" />
    <text
       xml:space="preserve"
       style="font-size:32px;line-height:125%;font-family:Sans;letter-spacing:0px;word-spacing:0px;fill:#051304;fill-opacity:1;stroke:#000000;stroke-width:1px;stroke-linecap:butt;stroke-linejoin:miter;stroke-opacity:1"
       x="45.729073"
       y="-46.373367"
       id="text8385"><tspan
         sodipodi:role="line"
         id="tspan8383"
         x="45.729073"
         y="-46.373367">webserver</tspan></text>
  </g>
</svg>
