<?xml version="1.0" encoding="utf-8"?>
<!-- Generator: Adobe Illustrator 24.1.0, SVG Export Plug-In . SVG Version: 6.00 Build 0)  -->
<svg version="1.1" id="Ebene_1" xmlns="http://www.w3.org/2000/svg" xmlns:xlink="http://www.w3.org/1999/xlink" x="0px" y="0px"
	 viewBox="0 0 155.9 155.9" style="enable-background:new 0 0 155.9 155.9;" xml:space="preserve">
<style type="text/css">
	.st0{fill:#B7B7B7;}
	.st1{clip-path:url(#SVGID_2_);}
	.st2{opacity:0.1;}
	.st3{fill:#FFFFFF;}
	.st4{opacity:0.8;fill:#FFFFFF;}
	.st5{filter:url(#Adobe_OpacityMaskFilter);}
	.st6{filter:url(#Adobe_OpacityMaskFilter_1_);}
	.st7{mask:url(#SVGID_4_);fill:url(#SVGID_5_);}
	.st8{fill:url(#SVGID_6_);}
	.st9{filter:url(#Adobe_OpacityMaskFilter_2_);}
	.st10{filter:url(#Adobe_OpacityMaskFilter_3_);}
	.st11{mask:url(#SVGID_7_);fill:url(#SVGID_8_);}
	.st12{fill:url(#SVGID_9_);}
	.st13{filter:url(#Adobe_OpacityMaskFilter_4_);}
	.st14{filter:url(#Adobe_OpacityMaskFilter_5_);}
	.st15{mask:url(#SVGID_10_);fill:url(#SVGID_11_);}
	.st16{fill:url(#SVGID_12_);}
	.st17{filter:url(#Adobe_OpacityMaskFilter_6_);}
	.st18{filter:url(#Adobe_OpacityMaskFilter_7_);}
	.st19{mask:url(#SVGID_13_);fill:url(#SVGID_14_);}
	.st20{fill:url(#SVGID_15_);}
	.st21{filter:url(#Adobe_OpacityMaskFilter_8_);}
	.st22{filter:url(#Adobe_OpacityMaskFilter_9_);}
	.st23{mask:url(#SVGID_16_);fill:url(#SVGID_17_);}
	.st24{fill:url(#SVGID_18_);}
	.st25{filter:url(#Adobe_OpacityMaskFilter_10_);}
	.st26{filter:url(#Adobe_OpacityMaskFilter_11_);}
	.st27{mask:url(#SVGID_19_);fill:url(#SVGID_20_);}
	.st28{fill:url(#SVGID_21_);}
	.st29{filter:url(#Adobe_OpacityMaskFilter_12_);}
	.st30{filter:url(#Adobe_OpacityMaskFilter_13_);}
	.st31{mask:url(#SVGID_22_);fill:url(#SVGID_23_);}
	.st32{fill:url(#SVGID_24_);}
	.st33{filter:url(#Adobe_OpacityMaskFilter_14_);}
	.st34{filter:url(#Adobe_OpacityMaskFilter_15_);}
	.st35{mask:url(#SVGID_25_);fill:url(#SVGID_26_);}
	.st36{fill:url(#SVGID_27_);}
	.st37{filter:url(#Adobe_OpacityMaskFilter_16_);}
	.st38{filter:url(#Adobe_OpacityMaskFilter_17_);}
	.st39{mask:url(#SVGID_28_);fill:url(#SVGID_29_);}
	.st40{fill:url(#SVGID_30_);}
	.st41{filter:url(#Adobe_OpacityMaskFilter_18_);}
	.st42{filter:url(#Adobe_OpacityMaskFilter_19_);}
	.st43{mask:url(#SVGID_31_);fill:url(#SVGID_32_);}
	.st44{fill:url(#SVGID_33_);}
	.st45{filter:url(#Adobe_OpacityMaskFilter_20_);}
	.st46{filter:url(#Adobe_OpacityMaskFilter_21_);}
	.st47{mask:url(#SVGID_34_);fill:url(#SVGID_35_);}
	.st48{fill:url(#SVGID_36_);}
	.st49{fill:#00974C;}
	.st50{fill:#646363;}
	.st51{fill:#A9D08C;}
	.st52{fill:#838382;}
	.st53{fill:#009D3D;}
	.st54{clip-path:url(#SVGID_37_);fill:#009D3D;}
	.st55{clip-path:url(#SVGID_37_);fill:#4FB163;}
	.st56{clip-path:url(#SVGID_37_);fill:#94C994;}
</style>
<rect x="-164" y="258.5" class="st0" width="155.4" height="108.9"/>
<g>
	<g>
		<defs>
			<rect id="SVGID_1_" x="0" width="155.9" height="108.9"/>
		</defs>
		<use xlink:href="#SVGID_1_"  style="overflow:visible;fill:#B7B7B7;"/>
		<clipPath id="SVGID_2_">
			<use xlink:href="#SVGID_1_"  style="overflow:visible;"/>
		</clipPath>
		<g class="st1">
			<g class="st2">
				<path class="st3" d="M209.8,99.6v-0.9h-18.4l0.4-0.4l-50-59.3h30.2v-0.6l0.3,0.3l8-9.4h15.1v-1h-15.3v0.5l-0.2-0.3l-8,9.4H141
					L95-16.6h0.5L117.9,10l0.3-0.4v0.5h36.5v-1h-36.3L96.7-16.6h12.4v-0.3l0.2,0.2l13.3-15.7h34.3v-0.9h-33.5l1.8-2.2h18.7v-0.9
					h-17.9l8.2-9.7h-0.7l-8.2,9.7H97.3v0.5L97-36.4l-5.6,6.8H31.2l1-1.2h47.5v-0.9H33l3.7-4.4h42.8v-0.9h-42l4.8-5.7H77v-1H43.1
					l3.4-4h36.4v-0.9H46.5v0.5l-0.3-0.4l-4.1,4.8H26.9v0.4l-0.2-0.3L14.8-29.6h-66.5l-0.1-0.2v0.2h-50.8v1h51l1.8,2.4h-52.8v1H-49
					l1.8,2.3h-55.4v0.9h56.1l1.1,1.4h-57.2v0.6h57.7l0.6,0.8h-58.3v1h59l0.8,1h-59.8v0.6h60.3l0.6,0.8h-60.9v1H-41l1.5,2h-63.1v0.9
					h63.8l1.1,1.4h-64.9v1h65.7l0.5,0.7h-66.2V-8h66.9l0.4,0.5l-0.2,0.3h-67.1v1h67.3v-0.4l0.2,0.3l0.4-0.4l1.6,2h-69.5v0.9h70.1
					l1.1,1.4h-71.2v0.9h71.9l1.2,1.5h-73.1v0.9h73.8l0.5,0.7h-74.4v1h75.2l0.7,0.9h-75.9v0.9H-26l0.9,1.1h-77.5v0.9h78.2l1.1,1.4
					h-79.3v1h80l1.9,2.4h-81.9v0.9H-20l1.9,2.5h-84.4v1h85.2l1.7,2.2h-86.9v0.9H-15l1.7,2.2h-89.3v1h90l2.3,3h-62v0.5l-0.3-0.3
					l-0.7,0.9h-18.5v0.5l-0.3-0.3l-4,4.8h-6.5v1h5.7l-1,1.2h-4.8v0.9h4.9v-0.4l0.3,0.3l1.7-2h8l-4.2,4.9h-10.7v1h10.9v-0.5l0.3,0.3
					l4.8-5.7h9.3v-0.4l0.2,0.3l1.6-1.9h67.2l9.7,11.5h-104v0.9H2.2l8.3,9.9l0.3-0.4v0.5h5.1l1.7,2l0.6-0.6L17,52.1h3.6l4.2,5
					l0.3-0.4v0.5h32.8l-10.1,12H23.2v0.4L23,69.3l-4.3,5.2H-96.7l-5.9-7v1.4l4.8,5.7h-4.8v0.9h5.6l1.8,2.1h-7.3v0.9h8.1l1.4,1.6
					h-9.5v1h10.3l2.3,2.7h-12.6v0.9h13.4l8.6,10.2l0.3-0.3V95h6.5l62.7,74.4h1.2L-72.6,95h5.6l30.8,36.5l0.3-0.4v0.6h11.5l-0.2,0.3
					l19,22.5l0.3-0.3v0.5H9.9L28,176h1.1L11,154.5h32.1v-1H-5.2l-18.5-21.9h44.9l17.9,21.3l0.3-0.3v0.5h6.9l10.8,12.8l0.5-0.6
					l-10.9-13l-0.3,0.3v-0.4h-6.9l-17.3-20.5h11.1v-0.5l0.3,0.3l7.3-8.7l6.4,7.6l0.6-0.7l-2.5-3h7.7l35.6,42.2l0.3-0.3v0.5h47.6
					v-0.5l0.3,0.3l21.4-25.3h6.9l21.1,24.9h1.2l-21.7-25.8l-0.3,0.4v-0.5H159l16.8-19.9h24.8v-0.9h-25v0.4l-0.2-0.3l-17.5,20.7H119
					l-0.4-0.5h4.7v-1H110l-16.5-19.6h30.8v-0.9H92.6l-9.8-11.6h59.3v-0.5l0.3,0.3l13.2-15.7h11.9l5.4,6.4l0.3-0.3v0.4H209.8z
					 M94.5-17.2l-2.7-3.2l-0.2,0.2v-0.3H70.9V-21H37.8L37-22h54l4,4.8H94.5z M-31.4-10.6l1.2-1.4h9l-1.2,1.4H-31.4z M-23.2-9.7
					L-23.8-9h-9l0.6-0.7H-23.2z M29.3-28.6l-2,2.4h-4l-0.1-0.1l1.9-2.3H29.3z M26-29.6l1-1.2h4.1l-1,1.2H26z M6.2-18.2v-0.5l0.3,0.4
					L7.9-20h1.3l-2.3,2.7h-22.6l0.9-1H6.2z M-14-19.2l0.6-0.8H6.7L6-19.2H-14z M24.5-23.5l0.2,0.2L24.5-23h-4.1l0.5-0.5H24.5z
					 M21.6-24.5l0.7-0.8H23l0.7,0.8H21.6z M17.8-20h2.6l0.8,0.9l-1.5,1.8h-4.1L17.8-20z M14.4-17.2H8l2.3-2.7h6.4L14.4-17.2z
					 M19.1-21.5l0.8,0.9h-1.5L19.1-21.5z M18.6-23.5h1.1L19.3-23H19L18.6-23.5z M21.8-18.4l1,1.1h-1.9L21.8-18.4z M21.8-19.7
					L21.6-20H22L21.8-19.7z M21-20.6L19.8-22h3.9l-1.2,1.4H21z M24.8-22h1l1.2,1.4h-3.4L24.8-22z M20.5-24.5h-2.8l-0.7-0.8h4.2
					L20.5-24.5z M17.2-20.6h-6.4l1.2-1.4h6.4L17.2-20.6z M9.7-20.6H8.4L9.6-22h1.3L9.7-20.6z M6.4-16.6l-0.6,0.8h-22.6l0.6-0.8H6.4z
					 M5.9-14.9v-0.5L6.2-15l1.4-1.6h6.4l-3.1,3.7h-30.1l1.7-2H5.9z M15-16.6h4.1L16-12.9h-4.1L15-16.6z M20.3-16.6h2.9l3.1,3.7h-9.2
					L20.3-16.6z M22.3-19l0.8-0.9h4.4l2.3,2.7h-6L22.3-19z M26.9-22h8.9l1.2,1.4h-8.9L26.9-22z M26.1-23l-0.3-0.3l0.2-0.2h8.5L35-23
					H26.1z M25.8-24.5h-0.9l-0.7-0.8h2.3L25.8-24.5z M22.7-27l-1.4-1.6h2.7L22.7-27z M22.1-26.4L22.1-26.4l-5.9,0.1l-0.3-0.4
					l1.5-1.7h3L22.1-26.4z M16.6-24.5h-2.5l0.7-0.8h1.1L16.6-24.5z M17.4-23.5l0.5,0.5h-5l0.5-0.5H17.4z M13-24.5h-1.3l0.7-0.8h1.3
					L13-24.5z M12.2-23.5L11.7-23h-1.3l0.5-0.5H12.2z M10.5-24.5H-9.6l0.7-0.8h20.1L10.5-24.5z M9.7-23.5L9.2-23h-20.1l0.5-0.5H9.7z
					 M8.4-22l-1.2,1.4h-20.1l1.2-1.4H8.4z M-12-23h-9l0.5-0.5h9L-12-23z M-12.8-22l-1.2,1.4h-9l1.2-1.4H-12.8z M-14.5-20l-0.6,0.8
					h-9l0.6-0.8H-14.5z M-16-18.2l-0.9,1h-9l0.9-1H-16z M-17.4-16.6l-0.6,0.8h-9l0.6-0.8H-17.4z M-18.8-14.9l-1.7,2h-9l1.7-2H-18.8z
					 M-22-9.7H8L7.4-9h-30.1L-22-9.7z M-21.2-10.6l1.2-1.4H10l-1.2,1.4H-21.2z M11.2-12h4.1l-1.2,1.4H10L11.2-12z M16.4-12h10.7
					l1.2,1.4h-13L16.4-12z M28.2-12h6l1.2,1.4h-6L28.2-12z M27.5-12.9l-3.1-3.7h6l3.1,3.7H27.5z M28.7-20h9h33.3h20.5l2.2,2.7H31
					L28.7-20z M109-17.2H96.2l-4.7-5.6l-0.3,0.3V-23h-55L35-24.4l-0.3,0.4v-0.5h-7.8l0.7-0.8h81.5v-0.5l0.3,0.3l5.9-6.9h6.5
					L109-17.2z M91.5-28.6v-0.5l0.3,0.4l5.7-6.8h26.9l-1.8,2.2h-7.5v0.5l-0.3-0.4l-5.9,7H28.4l2-2.4H91.5z M31.9-31.8h-5.1v0.4
					l-0.3-0.3l-1.7,2h-6.4l5.5-6.6h11.7L31.9-31.8z M27.2-42.8h14.1l-4.8,5.7H23.8v0.4L23.5-37l-6.2,7.4H16L27.2-42.8z M15-28.4h1.3
					l-0.9,1.1l-0.6-0.8L15-28.4z M14.8-26.6l-0.3,0.3h-1.3l0.9-1.1L14.8-26.6z M13.3-28.4l0.2,0.3L12-26.3H-8.1l1.8-2.1H13.3z
					 M-49.1-26.3l-1.8-2.4h43.7l-2,2.4H-49.1z M-46.5-23l-1.8-2.3h38.3l-0.7,0.8h-10v0.5l-0.3-0.4l-1.2,1.4H-46.5z M-44.7-20.6
					l-1.1-1.4H-23l-1.2,1.4H-44.7z M-43.6-19.2l-0.6-0.8h19.5l-0.6,0.8H-43.6z M-42.1-17.2l-0.8-1h16.7l-0.9,1H-42.1z M-41-15.9
					l-0.6-0.8h14.1l-0.6,0.8H-41z M-40.3-14.9H-29l-1.7,2h-8L-40.3-14.9z M-37-10.6L-38-12h6.6l-1.2,1.4H-37z M-34.9-7.9L-34.9-7.9
					L-34.9-7.9L-34.9-7.9z M-35.7-9l-0.5-0.7h2.8L-34-9H-35.7z M-34.3-7.2l0.7-0.8h9l-2.7,3.3h-5.1L-34.3-7.2z M-27.5,1.6L-28,0.9
					h19.7V0h-20.4l-1.2-1.5h3.1v-0.9h-3.9l-1.1-1.4h4.6v-0.5l0.3,0.3l3.4-4H7.7v-0.5l0.3,0.3l1.2-1.5h4.1L3.8,1.6H-27.5z M-25.3,4.5
					h2.1l1,1.1h-2.2L-25.3,4.5z M-22.6,7.9l-1.1-1.4h2.3l1.2,1.4H-22.6z M70,12.6l4.3,5.1H53.6l-2.5-3L50.8,15v-0.4H21.3L15.8,8
					l-0.3,0.3V7.9h-26.4L-12,6.5h40.1l5,5.9l0.3-0.3v0.5H70z M8.6,17.7l-1.1-1.3h14.3l1.7,2l0.2-0.3v0.5h29.5l5,5.9H24.1l-5.6-6.8
					l-0.3,0.3v-0.4H8.6z M-8,11.2l-2-2.4h25.4l4.9,5.7H5.9l-2.7-3.2l-0.3,0.4v-0.5H-8z M-9.1,11.2h-7.2l-2-2.4h7.2L-9.1,11.2z
					 M-8.3,12.1l2.1,2.5h-7.2l-2.1-2.5H-8.3z M-7.2,12.1h9.9l2.1,2.5h-9.9L-7.2,12.1z M6.3,16.4l1.1,1.3h-9.9l-1.1-1.3H6.3z
					 M8.2,18.6l1.8,2.2H0.1l-1.8-2.2H8.2z M22.9,16.4h21.8v-0.9h6l1.8,2.2H24L22.9,16.4z M-11.9,7.9h-7.2l-1.2-1.4h7.2L-11.9,7.9z
					 M-21,5.6l-1-1.1h7.2l1,1.1H-21z M-21.9,8.8h2.4l2,2.4H-20L-21.9,8.8z M-17.4,14.6l-1.9-2.5h2.7l2.1,2.5H-17.4z M-15,17.7
					l-1.7-2.2h2.9l0.6,0.8l0.3-0.3v0.4h8.1l1.1,1.3H-15z M-12.6,20.8l-1.7-2.2h11.4l1.8,2.2H-12.6z M-11.8,21.7h11.6l7.5,8.9L7.8,30
					l-6.9-8.2h9.9l10,11.8l0.2-0.3v0.4h44v-1H21.2l-9.2-11h2l7.7,9.1l0.3-0.4V31h61.3V30H22.2l-7.7-9.2l-0.3,0.3v-0.4h-3l-1.8-2.2
					H18l5.6,6.8L24,25v0.5h35.1l3.6,4.3l0.3-0.3V30h36.8v-1H63.2l-2.9-3.5h30.6v-1H59.4l-5-5.9h20.7l2.9,3.4l0.2-0.3v0.4h32.5v-1
					H78.4l-2.2-2.6h12.9v-0.9H75.4l-5-5.9l-0.3,0.3v-0.5H33.6l-5-5.9l-0.3,0.4V5.6h-41.1l-1-1.1h9.4V3.5h-18.5l0-0.1l-0.1,0.1H-26
					l-0.7-0.9H4V2.1l0.3,0.3L14.4-9.7h14.6l0,0l0,0h7.1l2.1,2.5l0.6-0.6l-1.5-1.8h10.2L62.8,8.4l0.3-0.3v0.5h23.2v-1H63.2L47.8-10.6
					H36.5L35.4-12h27.6L76.9,4.5l0.3-0.4v0.5h13.5v-1H77.3L63.4-12.8l-0.2,0.3v-0.4H34.6l-3.1-3.7h62.8l46,54.6H74.4v0.5L74,38.1
					l-6.5,7.7l-3.8-4.4l-0.2,0.3v-0.5h-51L-1.2,24.9l-0.2,0.3v-0.5h-8.1L-11.8,21.7z M-6.5,28.7l-2.3-3h7.1l13,15.5H7.8L-2.7,28.9
					l-0.2,0.3v-0.4H-6.5z M-77.5,30.7h-8.4l0.9-1.1h8.4L-77.5,30.7z M-75.7,28.7H-85v0.5l-0.3-0.4l-1.6,1.9h-8l3.3-4h17.5
					L-75.7,28.7z M-74.6,28.7l1.6-1.9h62.2l1.6,1.9H-74.6z M-8,28.7l-2.3-2.7l-0.2,0.3v-0.4h-61.6l0.1-0.1h62.6l2.3,3H-8z
					 M-7.2,29.7h0.8l8.9,11.5v-0.9l-8.2-10.6H-3l9.7,11.5H2.5L-7.2,29.7z M10.9,51.2l-7.7-9.1h4.2l7.7,9.1H10.9z M16.2,51.2
					l-7.7-9.1h3.6l7.6,9.1H16.2z M25.3,56.3l-3.5-4.2h26.6v-0.9H21l-7.7-9.1h50l3.7,4.4l-8.3,9.8H25.3z M48.2,70.1h35.1l6.2,7.4h-54
					l-1.8-2.1h9.9v-0.5l0.3,0.3L48.2,70.1z M23.4,70.1H47l-3.6,4.3H19.8L23.4,70.1z M19,75.4h13.6l1.8,2.1H17.2L19,75.4z
					 M-95.9,75.4H17.8l-1.8,2.1H0.7h-94.8L-95.9,75.4z M-93.3,78.4h94h15.5h18.9l4.5,5.3H2.1l-3-3.6l-0.2,0.3V80h-90.8L-93.3,78.4z
					 M40.4,84.6l19.9,23.7h-8.1v0.5l-0.2-0.3l-8.3,9.7H31.2L2.9,84.6H40.4z M1,83.8h-19l-2.3-2.7h19L1,83.8z M-91.1,81h69.7l2.3,2.7
					h-69.7L-91.1,81z M-35.8,130.7l-30.8-36.5l-0.2,0.3v-0.4h-13.3l-8-9.5h69.7l38.8,46H-35.8z M33.2,130.7H21.5l-38.8-46h19
					l29,34.4l0.3-0.3v0.5h7l2.4,2.9L33.2,130.7z M39.2,119.2h3.7l-1.9,2.2L39.2,119.2z M45,125.7v0.3l-3.3-4l2.4-2.9h1.4v-0.9h-0.6
					l0.6-0.7l6.9,8.2H45z M118.7,143.5l10.9,12.9l0.5-0.6l-10.3-12.3h37.3L136.4,168H89.2l-34.9-41.4h22.5v-0.9H53.5l-7.5-8.9
					l6.4-7.6h8.7l9.4,11.2l0.6-0.7l-8.8-10.4h9.8l28.7,34.1l0.3-0.4v0.4H118.7z M109.6,141.9l0.3-0.4v0.6h7.6l0.4,0.5h-16.6
					l-28.8-34.1l-0.3,0.4v-0.6H61.5l-20-23.7h19.8L109.6,141.9z M155.4,92.1v0.5l-0.2-0.3l-13.2,15.6H82.1v0.1L61.8,83.9l-0.3,0.3
					v-0.4H40.8l-4.5-5.3h54l6.4,7.6l0.3-0.3v0.4h64.7l5,6H155.4z M168.6,93.1h6.7v-1h-7.5l-5.7-6.7l-0.3,0.3v-0.5H97.2l-5.7-6.8H99
					v-0.9h-8.3l-6.9-8.2l-0.3,0.4v-0.4H49l10.1-12h73.2v-0.9H59.8l7.7-9.1l0,0l0.3-0.3v0.5h75.7v-1H68.2l6.3-7.5h66.7l50.3,59.7
					h-18.1L168.6,93.1z"/>
				<path class="st3" d="M29.6,176.3h-1.8L9.7,154.8H-5.7v-0.1l0,0.1l-0.2-0.2L-25,131.9l0,0h-11.2v-0.1l0,0l-30.9-36.6h-4.9
					l62.7,74.4h-1.9l-0.1-0.1l-62.6-74.3h-6.6v0l0,0.1l-8.7-10.4h-13.3v-1.4h12.1l-1.9-2.2h-10.2v-1.5h9l-0.9-1.1h-8v-1.4h6.8
					l-1.3-1.6h-5.5v-1.4l0,0v-5.3v-2.1l6,7.5h115l4.5-5.3l0.1,0.1h24.7l9.7-11.5H24.9v0l-0.1,0.1l-4.3-5.2h-2.9l0.9,1.1l-0.9,1
					l-1.8-2.1l-5.2,0l0,0l-8.5-10h-104.6v-1.4H0.8l-9.2-11h-66.9l-1.7,2l0,0v0h-9.5l-4.9,5.8l0-0.1v0.1h-11.1v-1.5H-92l3.7-4.4h-7.3
					l-1.8,2.1l0,0v0h-5.2v-1.4h4.6l0.5-0.7h-5.2v-1.5h6.4l4.1-5l0.1,0.1v-0.1h18.6l0.8-1l0,0v-0.1h61.7l-1.9-2.5h-89.9v-1.5h88.8
					l-1.3-1.6h-87.5v-1.4h86.4l-1.3-1.6h-85.1v-1.5h83.9l-1.5-1.9h-82.4V11h81.3l-1.5-1.9h-79.9V7.6h78.7l-0.7-0.9h-78.1V5.3h77
					l-0.5-0.6h-76.5V3.3h75.4l-0.3-0.4h-75.1V1.3h73.9l-0.2-0.2h-73.7v-1.4H-30l-0.8-1h-71.8v-1.4h70.7l-0.7-0.9h-70V-5h68.9l-1-1.3
					l-0.4,0.5l0-0.1h-67.5v-1.5h67l0,0l-0.2-0.3h-66.8v-1.4h65.7L-37-9.4h-65.5v-1.5h64.4l-0.7-0.9h-63.7v-1.4h62.6l-1.2-1.5h-61.5
					v-1.5h60.3l-0.2-0.2h-60.1v-1.1h59.3l-0.4-0.5h-58.9v-1.5h57.7l-0.2-0.2h-57.6v-1.1h56.7l-0.7-0.9h-56v-1.4h54.8l-1.4-1.8h-53.4
					v-1.5h52.3l-1.4-1.9h-50.8v-1.5H-52v-0.6l0.5,0.6h66.3l12-14.2l0,0h15.2l4.2-5l0.1,0.1v0h37v1.4H46.7l-3,3.5h33.6v1.5H42.4
					l-4.4,5.2h41.7v1.4h-43L33.6-32h46.5v1.4H32.4l-0.6,0.7h59.5l0,0v0l0,0l5.7-6.8l0.1,0.1v0h28l8.2-9.7h1.4l-8.2,9.7h17.6v1.4
					h-18.8l-1.4,1.7h33.2v1.4h-34.4l-13.3,15.8v0h0l-0.1,0.1l-0.1-0.1H97.2l21.2,25.2l0,0v0.1H155v1.5h-36.9l23.1,27.4h30.7l0,0l0,0
					l8.1-9.5v-0.1h15.8v1.5h-15.2l-8.1,9.6l0,0v0.1h-29.9l49.8,59l-0.2,0.2h18.1v1.4h-37.2v-0.1l-0.1,0.1l-5.5-6.5h-11.6l-13.3,15.8
					l0,0h-59l9.4,11.1h31.7v1.4H94l16.1,19.1h13.4v1.5h34.3l17.6-20.9l0.1,0.1h25.5v1.4h-25l-16.4,19.4h6l0,0l0.2,0.2l22.1,26.2
					h-1.8l-0.1-0.1l-21-24.9h-6.7l-21.5,25.5l0,0v0l-48.1,0l0,0l-0.2-0.2l-35.5-42.1h-7l2.3,2.7l-0.9,1.1l-6.4-7.6l-7.3,8.7
					l-0.1-0.1v0.1H22.9l16.8,20h7v0l0,0L58,165.2l-0.9,1l-10.9-12.9h-2.9v1.5H11.5L29.6,176.3z M28.1,175.8h0.5l-18.1-21.5h32.4
					v-0.5h-48v0.5H10L28.1,175.8z M-10.9,169.2h0.5l-62.7-74.4h6.1v-0.4h-13v0.4h6.4l0.1,0.1L-10.9,169.2z M89.3,168.7h47.1v-0.5
					H89.3V168.7z M45.2,126.4h8.1l35.5,42.1l0.2-0.3l-35.2-41.8h22.7V126H53.4l-7.7-9.1l6.5-7.7l-0.2-0.2l-8.1,9.6H31.3v0.4h6.9
					l2.6,3.1l-7.4,8.7l0.3,0.3l7.3-8.7l6.4,7.6l0.2-0.3l-6.4-7.5l2.6-3.1h1.2v-0.4h-0.9l1.2-1.4l7.5,8.8h-7.7V126.4z M136.6,168.2
					l0.2,0.3l21.2-25.2h7v-0.4h-6.6l17.1-20.3l-0.2-0.3L158,142.8h-39.1l-0.8-1h4.9v-0.5h-12.8v0.5h7.4l0.8,1h-17.1v0.4h17.4
					l10.8,12.8l0.2-0.3l-10.5-12.5h38.4L136.6,168.2z M186.3,168.2h0.5l-21.2-25.1l-0.3,0.3L186.3,168.2z M89.3,167.8h47l20.2-24
					h-36.2l10.1,12l-0.9,1l-11-13h-17.7l-0.1,0.1L72,109.5h-9.1l8.6,10.2l-0.9,1.1L61,109.5h-8.5l-6.2,7.3l7.3,8.6H77v1.4H54.9
					L89.3,167.8z M46.5,152.9l10.6,12.6l0.2-0.3l-10.6-12.6L46.5,152.9z M-24.3,131.9L-5.7,154l0.3-0.3L-24,131.6L-24.3,131.9z
					 M-5.1,153.3h44.3v-0.1l0,0.1l-18-21.4h-44.3L-5.1,153.3z M39.7,152.8h6.5v-0.4h-6.5V152.8z M-24.2,131.4h45.6l17.8,21.1
					l0.2-0.3l-17.6-20.9h11.4v-0.5H21.4l-0.1-0.1l-39.1-46.4H1.9l0.1,0.1l28.8,34.2l0.2-0.3l-28.7-34h38.2l0.1,0.1l20.3,24.1h-8.4
					v0.5h8.8l9.3,11l0.2-0.3l-9-10.7H72v-0.5H61.3l-0.1-0.1L41,84.4h20.3V84H40.6l-4.9-5.8h54.7l6.3,7.5l0.3-0.3l0,0l-6-7.2h7.8
					v-0.4h-8.2l-6.8-8.1L83.5,70l6.5,7.7H35.3l-2.2-2.6h10.2v-0.4H19.2l4-4.7l-0.3-0.3l-4.2,5H-96.8l-5.8-6.6v0.6l5.3,6h-5.3v0.4
					h5.7l2.2,2.6h-7.9v0.4h8.3l1.8,2.1h-10v0.5h10.4l2.7,3.3h-13.2v0.4h13.5l8.5,10.1l0.3-0.3l-8.3-9.8h70.3l0.1,0.1L21,130.9h-56.6
					v0.5H-24.2z M72.3,109.2l28.5,33.9l0.3-0.4l-28.6-33.8L72.3,109.2z M101.4,142.3h8.1L61.2,84.9H42.1l19.5,23.2h10.9v0.1l0.1-0.1
					l0.2,0.2L101.4,142.3z M61.5,84.5l48,57l0.2-0.3l-16.9-20H124v-0.4H92.5l-10.6-12.6L61.8,84.3L61.5,84.5z M-66.8,94.9l30.5,36.2
					l0.2-0.3l-30.5-36.2L-66.8,94.9z M21.7,130.4h11.4l7.1-8.3l-2.2-2.6h-7.1l0,0L1.6,84.9h-18.3L21.7,130.4z M-35.7,130.4h55.5
					l-38.4-45.5h-69l7.5,8.9h13.4l0,0L-35.7,130.4L-35.7,130.4L-35.7,130.4L-35.7,130.4z M44.8,125.5h7l-6.1-7.3v1.3h-1.5l-2.2,2.6
					L44.8,125.5z M175.9,122.4h24.5V122h-24.5V122.4z M45.4,118h0.2H45.4L45.4,118z M31.4,118h12.3l8.3-9.9v-0.1h7.8L40.2,84.9H3.4
					L31.4,118z M82.3,108.6h59.6v-0.5H82.3V108.6z M142.2,108l0.2,0.3L155.4,93l-0.2-0.2L142.2,108z M82.1,107.7h59.7L155.2,92v-0.1
					h11l-4.6-5.4H96.8v-0.1l-0.1,0.1l-6.5-7.7H36.8l4.1,4.8h20.8l0,0L82.1,107.7z M173.4,99.3h36.2v-0.4h-36.2V99.3z M155.7,92.8
					h11.9l5.3,6.3l0.3-0.3l-5.1-6h7v-0.5h-7.4l-5.6-6.6l-0.2,0.3l5.3,6.3h-11.5V92.8z M173.4,98.4h17.4L141,39.2H74.5l-5.8,7h75.1
					v1.5H67.6v-0.1l0,0.1l0,0L60.4,56h72.1v1.4H59.2l-9.7,11.5h34.2l0.1-0.1l7,8.4h8.5v1.4H92l5.3,6.3h64.8V85l0-0.1l5.8,6.9h7.7
					v1.5h-6.4L173.4,98.4z M74.6,38.7h66.6l0.1,0.1l50.2,59.5l0.1-0.1l-50.2-59.5h30.5v-0.5h-30.9L94.5-16.9h1.2l22.3,26.4l0.2-0.3
					l-22-26.1h12.7V-17H96.1l-4.6-5.4l-0.3,0.3l4.3,5.2h-1.2l-2.6-3.1l0,0l2.5,3.1H30.9l-2.7-3.3h63.2v-0.1H70.7v-0.4h-33l-1.3-1.5
					h54.5v-0.4H36.1L35-24l-0.2,0.3l0.8,0.9H26l-0.5-0.6l0.4-0.5h8.5v-0.5h-8.1l1.1-1.3h81.4V-26h-81l2.4-2.9h61v-0.5H30.7l1.5-1.7
					h47.4v-0.4H32.5l4.1-4.9h42.7v-0.4H37l5.2-6.2h34.5v-0.5H42.6l3.7-4.5l-0.2-0.3l-4,4.7h-15v0.5h14.6l-5.2,6.2H24v0.4h12.2
					L32-31.5h-5v0.4h4.6l-1.5,1.7h-4.8l1.4-1.6l-0.2-0.3L25-29.4h-7.1l5.8-6.9l-0.2-0.3l-6.1,7.2h-1.9l11.4-13.6l-0.2-0.3L14.9-29.4
					h-117.5v0.5h51.1l2.2,2.9h-53.3v0.5h53.7l2.2,2.8h-55.9v0.4h56.2l1.5,1.9h-57.7v0.1h57.8l1,1.3h-58.8v0.5h59.1l1.2,1.5h-60.3
					v0.1h60.4l1,1.3h-61.4v0.5h61.7l1.9,2.5h-63.7v0.4h64l1.5,1.9h-65.4v0.5h65.8l0.9,1.2h-66.7v0.4h67.1l0.6,0.8l-0.3,0.4l0.2,0.3
					l0.4-0.4l2.1,2.7h-70v0.4h70.3l1.5,1.9h-71.7v0.4h72.1l1.6,2h-73.6v0.4h74l0.9,1.2h-74.9v0.5h75.3l1.1,1.4h-76.4v0.4h76.7
					l1.3,1.6h-78v0.4h78.3l1.5,1.9h-79.8v0.5h80.1l2.3,2.9h-82.4v0.4h82.7l2.3,3h-85v0.5h85.3l2.1,2.7h-87.4v0.4h87.7l2.1,2.7h-89.8
					v0.5h90.1l2.7,3.5H-72v0.5h62.6l2.7,3.5h-1.5l-2.2-2.6l-0.2,0.3l2,2.4h-66.5l2-2.4h62.3V26h-61.8l0.4-0.5l-0.2-0.3l-0.6,0.7
					h-18.3v0.5h17.9l-2,2.4h-9.2v0.5h8.7l-1.3,1.5l0.2,0.3l1.5-1.8h67.4l10.1,12h-104.5v0.4H2.3l8.2,9.7l0.2-0.3l-8-9.5v0l-0.4-0.6
					l-10-11.9h1.4l8.5,11v-0.1l-8.4-10.9h3.1v-0.5h-3.5l-2.7-3.5h7.6V25h-7.9l-2.7-3.5h12.3l7.4,8.8L7.5,30l-7.2-8.5h10.6l9.9,11.7
					l0.2-0.3l-9.6-11.4h2.5V21H11l-2.2-2.7h9.1v-0.4H8.4L7,16.2h15l1.6,1.9l0.2-0.3l-1.4-1.6h22.1v-0.9h6.1v-0.5H21.2l-5.4-6.4
					l-0.2,0.3l5.2,6.1h-15l-2.6-3.1l-0.3,0.3l2.3,2.8H-5.3l-2.5-3H2.7v-0.4H-8.1l-2.4-2.9h25.9V8.1h-26.2l-1.6-1.9h40.6V5.8h-40.9
					l-1.4-1.6h9.7V3.8h-21.6l-1.1-1.4H3.7V1.8h-31.3l-0.9-1.2h20V0.2h-20.3l-1.6-2h3.4v-0.4h-3.7l-1.5-1.9h4.9v-0.4h-5.2l-2.1-2.7
					l0.9-1.1h9.7l-3,3.6l0.3,0.3l3.3-3.9h31v-0.4h-30.6l1-1.2H8.6L7.7-8.9l0.3,0.3l1.1-1.3h4.8L4,1.8L4.3,2l10.1-12h22l2,2.3
					l0.2-0.3l-1.8-2.1h10.8l15.2,18L63,7.8L47.7-10.4H36.4l-1.6-1.9h28.1v-0.4H34.5l-3.6-4.2h63.4l0.1,0.1l46.4,55H74.6V38.7z
					 M97.3,85.9h64.3v-0.5H97.3V85.9z M35.6,77.2H89l-5.8-6.8H48.3l-4.5,5.3l0,0h-9.6L35.6,77.2z M43.6,74.6l0.2,0.3l4.2-5h35.2
					v-0.4H48.4L58.9,57h73v-0.4H59.3l8.2-9.8l0,0l0.1-0.1h-0.1l6.7-7.9L74,38.5l-6.5,7.7l-3.8-4.5L63.5,42l3.8,4.5l-8.5,10.1H25.4
					V57h33.1L47.9,69.4H23.5v0.4h24.1L43.6,74.6z M20.3,74.2h23l3.2-3.8H23.5L20.3,74.2z M16.5,51.8h4.3l4.1,4.9l0.2-0.3l-3.9-4.6
					h26.9v-0.4H20.8l-8.1-9.6h50.5v-0.4H12.4L-1.2,25.3l-0.2,0.3l13.4,15.9H7.6L-2.7,29.2l-0.2,0.2l0,0l10,11.9H2.8v0.4h4.8l8.1,9.6
					h-4.6v0.4H16l1.5,1.8l0.2-0.3L16.5,51.8z M25.4,56h33.2l8.1-9.5l-3.5-4.1H13.8l7.2,8.6h27.5v1.4H22.3L25.4,56L25.4,56L25.4,56z
					 M11.1,50.9h3.5l-7.2-8.6H3.8L11.1,50.9L11.1,50.9L11.1,50.9z M68.1,47.1h75.2v-0.5H68.1V47.1z M63.7,41l3.8,4.4l6.5-7.7
					l0.1,0.1v-0.1h65.6L94.1-16.4H32l2.7,3.2h28.6l0,0l14,16.6l0,0v0h13.5v1.5h-14V4.8l-0.1,0.1l-14-16.7H35.9l0.7,0.9h11.3
					L63.3,7.4h23.2v1.5H62.9V8.8l0,0.1L47.4-9.4h-9.5l1.3,1.6l-0.9,1l-2.2-2.6h-6.8l-0.1,0.2L29-9.4H14.6L4.3,2.8L4.2,2.7v0.1h-30.4
					l0.3,0.4h2.9l0.2-0.2l0.2,0.2H-4v1.4h-9.1l0.5,0.6h41.2v0.1l0.1-0.1l5.1,6h36.6v0.1l0-0.1l5.1,6.1h13.8v1.4H76.8l1.7,2.1h32.4
					v1.5H78l0,0l0,0h0v0L75,18.9H55l4.6,5.4h31.5v1.5H60.8l2.5,3H100v1.5H83.5v1H21.7v0l0,0L13.9,22h-1.4l8.8,10.5h44v1.5H20.8l0,0
					L10.7,22H1.4l6.7,8l-0.9,1.1L-0.3,22h-11l1.9,2.5h8.2v0.1l13.8,16.4L63.7,41L63.7,41z M7.9,40.9h3l-12.6-15h-6.5l1.9,2.5h3.7
					v0.1L7.9,40.9z M2.8,40.9h3.4l-9.2-11h-2l7.9,10.2V40.9z M172.2,38.1l0.2,0.3l7.8-9.1L180,29L172.2,38.1z M-102.6,37.3H-92v-0.5
					h-10.6V37.3z M-91.7,36.7l0.3,0.3l4.7-5.5h9.2V31h-8.8l1.3-1.5l-0.2-0.2l-1.5,1.8h-8.7l3.7-4.4l-0.2-0.3l-3.9,4.7h-6.7v0.5h6.3
					l-1.3,1.6l0.2,0.3l1.5-1.8h8.7L-91.7,36.7z M-102.6,33.6h4.7v-0.4h-4.7V33.6z M21.3,33.4h43.5V33H21.3V33.4z M-6.6,29.9l1.3,1.6
					l-1.2-1.6H-6.6z M22.2,30.7H83v-0.4H22.2V30.7z M-85.3,30.5h7.7l0.5-0.5h-7.7L-85.3,30.5z M-94.4,30.5h7.3l1.7-2l0.1,0.1v-0.1
					h9.4l1.2-1.4h-16.8L-94.4,30.5z M14.2,21.6l7.5,8.9l0.3-0.3l-7.5-8.9L14.2,21.6z M22.3,29.8h40.1l-3.4-4H23.7v0l0,0l-5.8-6.9h-8
					l1.4,1.6h3.1v0l0-0.1L22.3,29.8z M63.3,29.7h36.3v-0.5H63.3V29.7z M24.2,25.3h35l3.5,4.2l0.2-0.3l-3.3-3.9h30.9v-0.5H59.3
					l-5.4-6.4h21.3l2.7,3.2l0.2-0.3l-2.5-3h13.1v-0.4H75.3l-4.9-5.8l-0.2,0.3l0,0l4.6,5.5H53.5l-2.4-2.9l-0.3,0.3l2.2,2.6H24v0.4
					h29.4l5.4,6.4H24.2V25.3z M180.5,29.1h14.8v-0.5h-14.8V29.1z M-7.9,28.4h0.2l-1.9-2.5H-10L-7.9,28.4z M-74.1,28.4h64.4l-1.2-1.4
					h-62L-74.1,28.4z M18.2,18.4L18.2,18.4l5.4,6.5l0.2-0.3l-5.4-6.5L18.2,18.4z M24.2,24.3h33.5l-4.6-5.4H23.5v-0.1l-1.8-2.1H8
					l0.6,0.8h9.7v0.1l0.1-0.1L24.2,24.3L24.2,24.3L24.2,24.3L24.2,24.3z M78.4,21.9h32v-0.5h-32V21.9z M53.8,17.4h20l-3.9-4.6H33.2
					v-0.1l-0.1,0.1l-5.1-6h-39.4l0.7,0.9h26.5l0,0l5.7,6.7h29.6v0l0-0.1L53.8,17.4z M24.1,17.4h27.9l-1.4-1.6h-5.6v0.9H23.5
					L24.1,17.4z M6.1,14.3h13.6l-4.4-5.2H-9.5l1.6,1.9h11V11l0.1-0.1L6.1,14.3z M-5.1,14.3h9.2l-1.6-1.9h-9.2L-5.1,14.3z M33.7,12.3
					h36.2v-0.5H33.7V12.3z M28.4,6.4l4.8,5.6l0.3-0.3l-4.8-5.6L28.4,6.4z M118.5,9.8h36V9.4h-36V9.8z M63.4,8.4H86V7.9H63.4V8.4z
					 M77.4,4.4h13V3.9h-13V4.4z M63.2-12.2L76.9,4.1l0.2-0.3L63.4-12.4L63.2-12.2z M-27.4,1.3H3.7l9.1-10.8H9.3L8-7.8L7.9-7.9v0.1
					h-31.2l-3.5,4.1l-0.1-0.1v0.1h-4.3l0.7,0.9h4v1.4h-2.9l0.8,1h20.5v1.4h-19.4L-27.4,1.3z M-32.3-5h4.8l2.3-2.8h-8.4L-34-7.2
					L-32.3-5z M-102.6-6.5h67v-0.5h-67V-6.5z M-22.1-9.2H7.3l0.2-0.2h-29.4L-22.1-9.2z M109.2-17.2L109.2-17.2l13.2-15.5h34.2v-0.4
					h-33.8l2.3-2.7h18.5v-0.4h-18.2l8.2-9.7h-0.1l-8.2,9.7H97.6v0.4h27.4l-2.3,2.7h-7.4v0.4h7L109.2-17.2z M96.3-17.5l12.6,0v-0.3
					l0.1,0.2l12.3-14.6h-5.8l-6,7.1l0,0v0.1H27.7l-0.3,0.3h7.5v0l0.1-0.1l1.3,1.5h55.1v0.1l0-0.1L96.3-17.5z M31.1-17.5h62.1
					l-1.8-2.2H29.2L31.1-17.5z M71.2-20.8h20.5l-0.8-0.9H37.5l0.4,0.5h33.2V-20.8z M26.3-23.2h8.2l0,0l0,0l0,0L26.3-23.2L26.3-23.2z
					 M109.1-26.1l0.2,0.3l5.7-6.6l-0.3-0.3L109.1-26.1z M29-26.5h79.8l6-7.2l0.1,0.1h7.6l1.4-1.7H97.7l-5.8,6.9l0-0.1H30.5L29-26.5z
					 M91.6-29.5l0.2,0.3l5.4-6.5L97-36L91.6-29.5z M26.5-29.9H30l0.6-0.7h-3.5L26.5-29.9z M19-29.9h5.8l1.8-2.2l0,0h5.2l3.3-3.9h-11
					L19-29.9z M16.6-29.9h0.6l6.3-7.5v-0.1h12.8l4.4-5.2H27.3L16.6-29.9z M46.7-48.1h36v-0.4h-36V-48.1z M41.1,121.8l-2.4-2.8h4.8
					L41.1,121.8z M39.8,119.5l1.3,1.6l1.3-1.6H39.8z M40.2,84H2l-2.9-3.4l-0.2,0.3L1.5,84h-19.6l-2.7-3.3h19.5v-0.5h-90.7l-1.8-2.1
					H35.2L40.2,84z M2.2,83.5h36.8L35,78.7H-92.8l0.9,1.1h91v0.1L2.2,83.5z M-17.9,83.5H0.5l-1.9-2.2h-18.3L-17.9,83.5z M-18.6,84
					h-70.3l-2.7-3.3h70.3L-18.6,84z M-88.7,83.5h69l-1.9-2.2h-69L-88.7,83.5z M34.9,77.7H16.6l2.2-2.6h13.8L34.9,77.7z M17.7,77.2
					h16.1l-1.3-1.6H19.1L17.7,77.2z M16.2,77.7H-94.2l-2.2-2.6H18.4L16.2,77.7z M-94,77.2H15.9l1.3-1.6H-95.3L-94,77.2z M20.4,51.4
					h-4.3L8,41.8h4.3L20.4,51.4z M16.3,50.9h2.9l-7.2-8.6h-3L16.3,50.9z M10.5,21H0l-2.2-2.7H8.3L10.5,21z M0.2,20.5h9.2L8,18.9
					h-9.2L0.2,20.5z M-0.5,21h-12.2l-2.1-2.7h12.1L-0.5,21z M-12.5,20.5h10.9L-3,18.9h-10.8L-12.5,20.5z M7.9,17.9H-2.7l-1.5-1.8
					H6.4L7.9,17.9z M-2.4,17.4h9.2l-0.6-0.8h-9.2L-2.4,17.4z M-3.1,17.9h-12l-2.1-2.7h3.5l0.5,0.6l0.5-0.6v0.8h8L-3.1,17.9z
					 M-14.9,17.4h10.7l-0.6-0.8h-8.3v-0.1l-0.1,0.1l-0.7-0.9h-2.3L-14.9,17.4z M-5.7,14.8h-7.8l-2.5-3h7.8L-5.7,14.8z M-13.3,14.3
					h6.5l-1.6-1.9h-6.5L-13.3,14.3z M-14,14.8h-3.5l-2.3-3h3.3L-14,14.8z M-17.3,14.3h2.2l-1.6-1.9h-2L-17.3,14.3z M-8.5,11.5h-7.8
					l-2.5-2.9h7.8L-8.5,11.5z M-16.1,11h6.5l-1.6-1.9h-6.5L-16.1,11z M-16.9,11.5h-3.3l-2.3-2.9h3.1L-16.9,11.5z M-19.9,11h1.9
					l-1.6-1.9h-1.8L-19.9,11z M-11.4,8.1h-7.8l-1.6-1.9h7.9L-11.4,8.1z M-19,7.6h6.5l-0.7-0.9h-6.5L-19,7.6z M-19.7,8.1h-3l-1.5-1.9
					h2.9L-19.7,8.1z M-22.5,7.6h1.7l-0.7-0.9h-1.6L-22.5,7.6z M-13.3,5.8h-7.9l-1.4-1.6h7.9L-13.3,5.8z M-20.9,5.3h6.5l-0.5-0.6
					h-6.5L-20.9,5.3z M-21.6,5.8h-2.9l-1.3-1.6h2.8L-21.6,5.8z M-24.3,5.3h1.6l-0.5-0.6h-1.5L-24.3,5.3z M-34.9-7.5l-0.6-0.8h1.2
					L-34.9-7.5z M-23.7-8.7h-9.7l1-1.2h9.7L-23.7-8.7z M-32.3-9.2h8.4l0.2-0.2h-8.4L-32.3-9.2z M-33.9-8.7h-1.9l-0.9-1.2h3.9
					L-33.9-8.7z M-35.5-9.2h1.4l0.2-0.2h-1.8L-35.5-9.2z M35.9-10.4h-6.6l-1.6-1.9h6.6L35.9-10.4z M29.5-10.9h5.3l-0.7-0.9h-5.3
					L29.5-10.9z M28.8-10.4H14.7l1.6-1.9h10.9L28.8-10.4z M15.8-10.9h11.9L27-11.8H16.5L15.8-10.9z M14.3-10.4H9.4l1.6-1.9h4.8
					L14.3-10.4z M10.5-10.9H14l0.7-0.9h-3.5L10.5-10.9z M9-10.4h-30.7l1.6-1.9h30.7L9-10.4z M-20.7-10.9H8.7l0.7-0.9H-20L-20.7-10.9
					z M-22.3-10.4H-32l1.6-1.9h9.7L-22.3-10.4z M-30.9-10.9h8.4l0.7-0.9h-8.4L-30.9-10.9z M-32.5-10.4h-4.6l-1.5-1.9h7.7L-32.5-10.4
					z M-36.8-10.9h4.1l0.7-0.9h-5.5L-36.8-10.9z M34-12.7h-6.6l-3.6-4.2h6.6L34-12.7z M27.6-13.2h5.3l-2.7-3.2h-5.3L27.6-13.2z
					 M26.9-12.7H16.6l3.6-4.2h3.2L26.9-12.7z M17.7-13.2h8.1l-2.7-3.2h-2.7L17.7-13.2z M16.2-12.7h-4.8l3.6-4.2h4.8L16.2-12.7z
					 M12.4-13.2h3.5l2.7-3.2h-3.5L12.4-13.2z M10.9-12.7h-30.7l2.1-2.5H5.6v-0.5h-23l1.1-1.3H6.9l-1,1.2l0.3,0.3l1.2-1.5h7
					L10.9-12.7z M-18.8-13.2h29.4l2.7-3.2H7.7l-1.5,1.8l0-0.1v0h-23.7L-18.8-13.2z M-16.3-16.1H5.6l0.2-0.2h-21.9L-16.3-16.1z
					 M-20.4-12.7h-9.7l2.1-2.5h9.7L-20.4-12.7z M-29-13.2h8.4l1.3-1.5h-8.4L-29-13.2z M-30.6-12.7h-8.3l-1.9-2.5h12.3L-30.6-12.7z
					 M-38.6-13.2h7.8l1.3-1.5h-10.2L-38.6-13.2z M-17.9-15.6h-9.7l1.1-1.3h9.7L-17.9-15.6z M-26.5-16.1h8.4l0.2-0.2h-8.4L-26.5-16.1
					z M-28.1-15.6h-13.1l-1-1.3H-27L-28.1-15.6z M-40.9-16.1h12.6l0.2-0.2h-13L-40.9-16.1z M30.4-17h-6.6L22-19l1-1.2h4.6L30.4-17z
					 M24-17.5h5.3l-1.9-2.2h-4.2L22.7-19L24-17.5z M23.3-17h-3l1.5-1.8L23.3-17z M21.3-17.5h0.8L21.8-18L21.3-17.5z M19.8-17H15
					l2.7-3.3h2.8l1,1.2L19.8-17z M16.1-17.5h3.5l1.3-1.6l-0.6-0.7H18L16.1-17.5z M14.5-17h-7l2.7-3.3h7L14.5-17z M8.6-17.5h5.7
					l1.9-2.2h-5.7L8.6-17.5z M7-17h-23.2l1.3-1.5H6V-19h-20.6l1.1-1.3H7.2l-1,1.1l0.3,0.3l1.2-1.5h1.9L7-17z M-15.2-17.5H6.7
					l1.9-2.2H8L6.5-18l0,0v0h-21.2L-15.2-17.5z M-13.5-19.5H5.9l0.2-0.2h-19.4L-13.5-19.5z M-16.7-17h-9.7l1.3-1.5h9.7L-16.7-17z
					 M-25.3-17.5h8.4l0.4-0.5h-8.4L-25.3-17.5z M-26.9-17h-15.3l-1.2-1.5h17.7L-26.9-17z M-41.9-17.5h14.8l0.4-0.5h-15.6L-41.9-17.5
					z M-15.1-19h-9.7l1.1-1.3h9.7L-15.1-19z M-23.7-19.5h8.4l0.2-0.2h-8.4L-23.7-19.5z M-25.3-19h-18.5l-1-1.3h20.5L-25.3-19z
					 M-43.5-19.5h18l0.2-0.2h-18.4L-43.5-19.5z M21.8-19.3L21-20.2h1.5L21.8-19.3z M37.6-20.3H28l-1.6-1.9h9.5L37.6-20.3z
					 M28.3-20.8h8.2l-0.8-0.9h-8.2L28.3-20.8z M27.5-20.3h-4.5l1.6-1.9h1.2L27.5-20.3z M24.2-20.8h2.3l-0.8-0.9h-0.7L24.2-20.8z
					 M22.6-20.3h-1.7l-1.6-1.9h5L22.6-20.3z M21.2-20.8h1.2l0.8-0.9h-2.8L21.2-20.8z M20.4-20.3h-2.6l1.3-1.5L20.4-20.3z M18.9-20.8
					h0.4l-0.2-0.2L18.9-20.8z M17.4-20.3h-7l1.6-1.9H19L17.4-20.3z M11.4-20.8h5.7l0.8-0.9h-5.7L11.4-20.8z M9.8-20.3H7.9l1.6-1.9
					h1.9L9.8-20.3z M9-20.8h0.6l0.8-0.9H9.7L9-20.8z M7.3-20.3h-20.7l1.6-1.9H9L7.3-20.3z M-12.3-20.8H7.1l0.8-0.9h-19.4L-12.3-20.8
					z M-13.9-20.3h-9.7l1.6-1.9h9.7L-13.9-20.3z M-22.5-20.8h8.4l0.8-0.9h-8.4L-22.5-20.8z M-24.1-20.3h-20.7l-1.5-1.9h23.8
					L-24.1-20.3z M-44.5-20.8h20.2l0.8-0.9h-21.7L-44.5-20.8z M24.6-22.7h-4.8l0.9-1h4l0.4,0.5L24.6-22.7z M20.9-23.2h3.5l0,0
					L20.9-23.2L20.9-23.2z M19.4-22.7h-0.4l-0.9-1h2.2L19.4-22.7z M18.4-22.7h-6.1l0.9-1h4.3L18.4-22.7z M13.4-23.2h3.9l0,0
					L13.4-23.2L13.4-23.2z M11.8-22.7H9.9l0.9-1h1.9L11.8-22.7z M11-23.2h0.6l0,0L11-23.2L11-23.2z M9.3-22.7h-20.7l0.9-1h20.7
					L9.3-22.7z M-10.3-23.2H9.1l0,0L-10.3-23.2L-10.3-23.2z M-11.9-22.7h-9.7l0.8-0.9l-0.2-0.3l-1.1,1.3h-24.5l-2.2-2.8h39.3
					l-1.1,1.3h-9.8v0.5h9.4L-11.9-22.7z M-20.5-23.2h8.4l0,0L-20.5-23.2L-20.5-23.2L-20.5-23.2L-20.5-23.2z M-46.4-23.2h24l1.3-1.5
					l0.1,0.1v0h10.1l0.3-0.3h-37.2L-46.4-23.2z M25.9-24.2h-1.2l-1.1-1.3H27L25.9-24.2z M25-24.7h0.7l0.3-0.3h-1.2L25-24.7z
					 M24.3-24.2h-3.2l1.1-1.3h0.9L24.3-24.2z M22.2-24.7h1L22.9-25h-0.4L22.2-24.7z M20.6-24.2h-3l-1.1-1.3h5.3L20.6-24.2z
					 M17.9-24.7h2.5l0.3-0.3h-3.1L17.9-24.7z M17.1-24.2h-3.6l1.1-1.3H16L17.1-24.2z M14.7-24.7h1.4L15.8-25h-0.8L14.7-24.7z
					 M13.1-24.2h-1.9l1.1-1.3h1.9L13.1-24.2z M12.2-24.7h0.6l0.3-0.3h-0.6L12.2-24.7z M10.6-24.2h-20.7l1.1-1.3h20.7L10.6-24.2z
					 M-9.1-24.7h19.4l0.3-0.3H-8.8L-9.1-24.7z M27.4-26h-4.2l-0.3-0.4l2.1-2.5h4.8L27.4-26z M23.7-26.5h3.5l1.6-1.9h-3.5L23.7-26.5z
					 M22.2-26h-6l-0.5-0.6l1.7-2h3.3l1.9,2.3L22.2-26z M16.4-26.5h5.3l-1.3-1.6h-2.8l-1.2,1.5L16.4-26.5z M14.6-26h-1.9l1.5-1.8
					l1,1.2L14.6-26z M13.8-26.5h0.6l0.1-0.1L14.1-27L13.8-26.5z M12.1-26H-8.6l2.2-2.6h19.9l0.4,0.5L12.1-26z M-7.5-26.5h19.4
					l1.3-1.6l0,0H-6.2L-7.5-26.5z M-9.1-26h-40.1l-2.2-2.9h44.7L-9.1-26z M-49-26.5h39.6l1.6-1.9h-42.6L-49-26.5z M22.7-26.6
					l-1.9-2.3h3.8L22.7-26.6z M21.9-28.4l0.8,1l0.8-1H21.9z M15.4-26.9l-1-1.2l0.5-0.5h1.9L15.4-26.9z M15.1-28.1l0.3,0.4l0.3-0.4
					L15.1-28.1L15.1-28.1z"/>
			</g>
			<g>
				<path class="st4" d="M-80.1,119.5c1.4,0,2.5-1.1,2.5-2.5c0-0.5-0.1-1-0.4-1.3l3.7-3.7c0.4,0.3,0.9,0.4,1.4,0.4
					c1.2,0,2.2-0.8,2.5-2H39.6l8.5,8.5c-0.2,0.4-0.3,0.8-0.3,1.2c0,1.4,1.1,2.5,2.5,2.5c1.2,0,2.2-0.8,2.5-2H90l4.5,4.5
					c-0.2,0.4-0.4,0.8-0.4,1.3c0,1.4,1.1,2.5,2.5,2.5c1.2,0,2.2-0.8,2.5-2h3c0.2,1.1,1.2,2,2.5,2c1.4,0,2.5-1.1,2.5-2.5
					c0-1.4-1.1-2.5-2.5-2.5c-1.2,0-2.2,0.8-2.5,2h-3c-0.2-1.1-1.2-2-2.5-2c-0.5,0-1,0.2-1.4,0.5l-3.7-3.7h52.8c0.2,1.1,1.2,2,2.5,2
					c1.4,0,2.5-1.1,2.5-2.5c0-1.4-1.1-2.5-2.5-2.5c-1.2,0-2.2,0.8-2.5,2H90.4l-15-15c0.2-0.2,0.3-0.5,0.3-0.8H133
					c0.2,1.1,1.2,2,2.5,2c1.4,0,2.5-1.1,2.5-2.5s-1.1-2.5-2.5-2.5c-1.2,0-2.2,0.8-2.5,2H75.8c-0.2-1.1-1.2-2-2.5-2
					c-0.5,0-1,0.2-1.4,0.4l-3.3-3.3c0.2-0.3,0.3-0.6,0.4-0.9h12.8c0.2,1.2,1.2,2,2.5,2c1.4,0,2.5-1.1,2.5-2.5c0-1.4-1.1-2.5-2.5-2.5
					c-1.2,0-2.2,0.8-2.4,1.9H69c-0.3-1.1-1.2-1.9-2.4-1.9c-0.5,0-1,0.2-1.4,0.4L50,79.3h-60.3c-0.2-1.1-1.2-2-2.5-2
					c-0.5,0-0.9,0.1-1.3,0.4l-7.1-7.1h-28.2l-3.9-3.9c0.2-0.4,0.4-0.8,0.4-1.3c0-1.4-1.1-2.5-2.5-2.5c-1.2,0-2.2,0.9-2.5,2H-65
					c-0.2-1.1-1.2-2-2.5-2c-1.4,0-2.5,1.1-2.5,2.5c0,0.5,0.1,0.9,0.4,1.3l-15.9,15.9c-0.4-0.3-0.9-0.4-1.4-0.4c-1.2,0-2.2,0.9-2.5,2
					h-13.3v1.1h13.4c0.2,1.1,1.2,2,2.4,2c1.4,0,2.5-1.1,2.5-2.5c0-0.5-0.1-1-0.4-1.3l15.8-15.8c0.4,0.3,0.9,0.4,1.4,0.4
					c1.2,0,2.2-0.8,2.5-2h7.1c0.2,1.1,1.2,2,2.5,2c0.5,0,1-0.2,1.4-0.4l3.2,3.2h-7.7c-0.2-1.1-1.2-2-2.5-2c-1.4,0-2.5,1.1-2.5,2.5
					c0,0.5,0.2,1,0.4,1.4l-22.8,22.8c-0.4-0.3-0.9-0.5-1.4-0.5c-1.3,0-2.3,0.9-2.5,2.2h-12.9V98h13c0.1,0.3,0.2,0.5,0.3,0.7
					l-2.4,2.4c-0.4-0.3-0.9-0.5-1.5-0.5c-1.3,0-2.3,0.9-2.5,2.1h-6.9v1.1h6.9c0.3,1.1,1.3,1.8,2.4,1.8c1.4,0,2.5-1.1,2.5-2.5
					c0-0.4-0.1-0.8-0.3-1.2l2.5-2.5c0.4,0.2,0.8,0.4,1.3,0.4c1.1,0,2.1-0.8,2.4-1.8h22c0.1,0.3,0.2,0.5,0.3,0.7l-9.1,9.1
					c-0.4-0.3-0.9-0.4-1.4-0.4c-1.2,0-2.2,0.8-2.5,2h-27.2v1.1h27.2c0.1,0.3,0.2,0.6,0.4,0.8l-3.6,3.6c-0.4-0.3-0.9-0.4-1.4-0.4
					c-1.2,0-2.3,0.9-2.5,2.1h-20v1.1h20.1C-82.2,118.7-81.2,119.5-80.1,119.5z M66.6,99.1c0.5,0,1-0.1,1.3-0.4l3.3,3.3
					c-0.2,0.3-0.3,0.5-0.3,0.8H32.4c-0.2-1.1-1.2-2-2.5-2c-0.5,0-1,0.2-1.4,0.4L25.3,98c0.2-0.3,0.3-0.6,0.4-1h38.4
					C64.3,98.2,65.4,99.1,66.6,99.1z M-10.3,80.3h59.9l14.9,14.9c-0.1,0.2-0.3,0.5-0.3,0.8H25.7c-0.3-1.1-1.2-1.9-2.4-1.9
					c-0.5,0-1,0.2-1.4,0.5l-6.1-6.1c0.2-0.4,0.3-0.8,0.3-1.2c0-1.4-1.1-2.5-2.5-2.5c-1.2,0-2.1,0.8-2.4,1.9H-2.7
					c-0.3-1.1-1.3-1.9-2.4-1.9c-0.5,0-1,0.2-1.4,0.5l-4.1-4.1C-10.5,80.8-10.4,80.6-10.3,80.3z M21.1,95.3c-0.1,0.2-0.2,0.4-0.3,0.7
					H6.6C6.3,94.8,5.3,94,4.1,94c-0.5,0-1,0.2-1.4,0.4L-3,88.6c0.2-0.3,0.3-0.6,0.4-1h13.7c0.2,1.2,1.2,2.1,2.5,2.1
					c0.6,0,1.1-0.2,1.5-0.5L21.1,95.3z M-12.8,82.3c0.5,0,1-0.2,1.4-0.5l4.1,4.1c-0.1,0.2-0.2,0.4-0.3,0.6h-24.3
					c-0.3-1.1-1.3-1.9-2.4-1.9c-0.3,0-0.6,0.1-0.9,0.2l-4.4-4.4c0,0,0-0.1,0-0.1h24.2C-15,81.5-14,82.3-12.8,82.3z M-36.5,88.1
					l-7.3,7.3c-0.4-0.3-0.9-0.5-1.5-0.5c-1.3,0-2.3,0.9-2.5,2.2h-10.2c0-0.3-0.2-0.7-0.3-1l14.6-14.6c0.5,0.5,1.1,0.9,1.9,0.9
					c0.8,0,1.4-0.4,1.9-0.9l4,4c-0.5,0.5-0.7,1.1-0.7,1.8C-36.7,87.5-36.6,87.8-36.5,88.1z M-21.6,71.6l6.8,6.8
					c-0.2,0.3-0.3,0.6-0.4,0.9h-24.2c-0.2-1.1-1.2-2-2.5-2c-0.2,0-0.4,0-0.6,0.1l-5.8-5.8H-21.6z M-62.9,96.9h-21.9
					c0-0.3-0.2-0.6-0.3-0.9l22.8-22.8c0.4,0.2,0.8,0.4,1.3,0.4c1.2,0,2.2-0.8,2.5-2h8.7l6.3,6.3c-0.5,0.5-0.9,1.1-0.9,1.9
					c0,0.2,0,0.4,0.1,0.6L-59,95.2c-0.4-0.3-0.9-0.4-1.4-0.4C-61.7,94.8-62.7,95.7-62.9,96.9z M-61.7,99.4c0.4,0.2,0.8,0.4,1.3,0.4
					c1.1,0,2.1-0.8,2.4-1.8h10.3c0.3,1,1.3,1.8,2.4,1.8c1.4,0,2.5-1.1,2.5-2.5c0-0.4-0.1-0.8-0.3-1.2L-36,89
					c0.5,0.4,1.1,0.7,1.8,0.7c0.7,0,1.3-0.3,1.8-0.7l9.6,9.6c-0.2,0.4-0.4,0.8-0.4,1.3c0,1.4,1.1,2.5,2.5,2.5c1.2,0,2.2-0.8,2.5-2
					h6.8c0.2,1.1,1.2,2,2.5,2c1.4,0,2.5-1.1,2.5-2.5c0-1.4-1.1-2.5-2.5-2.5c-1.2,0-2.2,0.8-2.5,2h-6.8c-0.2-1.1-1.2-2-2.5-2
					c-0.5,0-1,0.2-1.4,0.5l-9.7-9.7c0.1-0.1,0.1-0.3,0.1-0.4h24.2c0.2,1.2,1.2,2.1,2.5,2.1c0.5,0,0.9-0.1,1.3-0.4L2,95.2
					c-0.2,0.4-0.4,0.8-0.4,1.3c0,1.4,1.1,2.5,2.5,2.5c1.2,0,2.2-0.9,2.5-2h14.2c0.2,1.2,1.2,2,2.5,2c0.5,0,0.9-0.1,1.3-0.4l3.3,3.3
					c-0.3,0.4-0.4,0.9-0.4,1.4c0,1.4,1.1,2.5,2.5,2.5c1.2,0,2.2-0.8,2.5-2h38.5c0.2,1.1,1.2,2,2.5,2c0.5,0,1-0.2,1.4-0.4l14.3,14.3
					H52.8c-0.2-1.1-1.2-2-2.5-2c-0.5,0-1,0.2-1.5,0.5l-8.8-8.8H-70.5c-0.1-0.3-0.2-0.6-0.3-0.8L-61.7,99.4z"/>
				<path class="st4" d="M-83.6,75.1c1.4,0,2.5-1.1,2.5-2.5c0-0.5-0.1-0.9-0.3-1.2l7.8-7.8c0.4,0.2,0.7,0.3,1.2,0.3
					c1.2,0,2.2-0.8,2.5-2H0.8c0.2,1.1,1.2,2,2.5,2c0.5,0,1-0.2,1.4-0.4l8.8,8.8c-0.2,0.4-0.4,0.8-0.4,1.3c0,1.4,1.1,2.5,2.5,2.5
					c1.2,0,2.2-0.8,2.5-2h123.5c0.2,1.1,1.2,2,2.5,2c1.4,0,2.5-1.1,2.5-2.5c0-1.4-1.1-2.5-2.5-2.5c-1.2,0-2.2,0.8-2.5,2H18
					c-0.2-1.1-1.2-2-2.5-2c-0.5,0-1,0.2-1.4,0.4l-8.8-8.8c0.2-0.2,0.3-0.5,0.3-0.8h62.5c0.2,1.1,1.2,2,2.5,2c1.4,0,2.5-1.1,2.5-2.5
					c0-1.4-1.1-2.5-2.5-2.5c-1.2,0-2.2,0.8-2.5,2H5.7c-0.2-1.1-1.2-2-2.5-2c-0.5,0-1,0.2-1.4,0.4l-3.7-3.7c0.1-0.2,0.2-0.5,0.3-0.8
					h122.3c0.2,1.1,1.2,2,2.5,2c1.4,0,2.5-1.1,2.5-2.5c0-1.4-1.1-2.5-2.5-2.5c-1.2,0-2.2,0.9-2.5,2H-1.6c-0.2-1.1-1.2-2-2.5-2
					c-0.5,0-0.9,0.1-1.3,0.4l-6.7-6.7c0.2-0.3,0.3-0.7,0.3-1.2c0-1.4-1.1-2.5-2.5-2.5c-1.2,0-2.2,0.9-2.5,2h-37.1l5.4-5.4h41.2
					c0.2,1.1,1.2,2,2.5,2c0.6,0,1.1-0.2,1.5-0.5l0.9,0.9c-0.3,0.4-0.4,0.9-0.4,1.4c0,1.4,1.1,2.5,2.5,2.5c1.2,0,2.2-0.9,2.5-2h23
					c0.2,1.1,1.2,2,2.5,2c1.4,0,2.5-1.1,2.5-2.5c0-0.5-0.2-1-0.4-1.4l1-1c0.4,0.4,1,0.6,1.6,0.6c1.2,0,2.2-0.8,2.5-2h22.2
					c0.2,1.1,1.2,2,2.5,2c1.4,0,2.5-1.1,2.5-2.5c0-1.4-1.1-2.5-2.5-2.5c-1.2,0-2.2,0.8-2.5,2H34.9c-0.1-0.4-0.3-0.8-0.5-1.1l5-5
					c0.4,0.3,0.9,0.5,1.5,0.5c1.2,0,2.2-0.8,2.5-2h46.5c0.2,1.1,1.2,2,2.5,2c1.4,0,2.5-1.1,2.5-2.5c0-1.4-1.1-2.5-2.5-2.5
					c-1.2,0-2.2,0.8-2.5,2H43.3c-0.1-0.3-0.2-0.7-0.4-0.9l6.2-6.2c0.3,0.2,0.7,0.2,1.1,0.2c1,0,1.9-0.6,2.3-1.5h51.4
					c0.4,0.9,1.3,1.5,2.3,1.5c1.4,0,2.5-1.1,2.5-2.5c0-1.4-1.1-2.5-2.5-2.5c-1.4,0-2.5,1.1-2.5,2.4h-51c0-1.3-1.1-2.4-2.5-2.4
					c-1.4,0-2.5,1.1-2.5,2.5c0,0.6,0.2,1.2,0.6,1.6L42.1,27c-0.4-0.2-0.8-0.3-1.2-0.3c-1.2,0-2.2,0.8-2.5,2H25.3
					c-0.2-1.1-1.2-2-2.5-2c-0.5,0-1,0.2-1.4,0.4l-3.9-3.9c0.3-0.4,0.4-0.9,0.4-1.4c0-0.4-0.1-0.9-0.3-1.2L28.5,9.7
					c0.4,0.3,0.9,0.4,1.4,0.4c1.4,0,2.5-1.1,2.5-2.5c0-1.4-1.1-2.5-2.5-2.5c-1.4,0-2.5,1.1-2.5,2.5c0,0.5,0.1,0.9,0.4,1.3L17,19.7
					c-0.4-0.3-0.9-0.5-1.5-0.5c-0.5,0-1,0.2-1.4,0.4L8,13.6c0.1-0.3,0.2-0.6,0.2-1c0-0.8-0.4-1.5-1-2h2.1c0.2,1.1,1.2,2,2.5,2
					c1.4,0,2.5-1.1,2.5-2.5c0-0.5-0.2-1-0.4-1.4l7.4-7.4c0.4,0.3,1,0.6,1.6,0.6c1.2,0,2.2-0.8,2.5-2H35c0.2,1.1,1.2,2,2.5,2
					c0.5,0,0.9-0.1,1.2-0.3l5.1,5.1c-0.1,0.3-0.2,0.6-0.2,1c0,1.4,1.1,2.5,2.5,2.5c1.1,0,2.1-0.7,2.4-1.7h19.6
					c0.3,1,1.3,1.7,2.4,1.7c1.4,0,2.5-1.1,2.5-2.5c0-1.4-1.1-2.5-2.5-2.5c-1.3,0-2.3,1-2.5,2.2H48.6c-0.1-1.2-1.2-2.2-2.5-2.2
					c-0.6,0-1.2,0.3-1.7,0.7l-5-5c0.2-0.3,0.3-0.6,0.4-0.9h23.4c0.2,1.1,1.2,2,2.5,2c1.4,0,2.5-1.1,2.5-2.5c0-1.4-1.1-2.5-2.5-2.5
					c-1.2,0-2.2,0.8-2.5,2H39.9c-0.2-1.1-1.2-2-2.5-2c-0.5,0-1.1,0.2-1.5,0.5l-5.3-5.3L31-8.5c0.4,0.3,0.9,0.4,1.4,0.4
					c1.2,0,2.3-0.9,2.5-2.1h28.3c0.2,1.2,1.2,2.1,2.5,2.1c1.4,0,2.5-1.1,2.5-2.5c0-1.4-1.1-2.5-2.5-2.5c-1.2,0-2.1,0.8-2.4,1.9H34.8
					c-0.3-1.1-1.3-1.9-2.4-1.9c-1.4,0-2.5,1.1-2.5,2.5c0,0.5,0.1,1,0.4,1.3l-0.4,0.4l-1.7-1.7h-64.3c-0.2-1.1-1.2-2-2.5-2
					c-0.4,0-0.8,0.1-1.2,0.3l-2.9-2.9h-59.9v1.1h59.5l2.5,2.5c-0.2,0.3-0.4,0.6-0.5,1h-61.5v1.1H-41c0.2,1.1,1.2,2,2.5,2
					c0.6,0,1.1-0.2,1.5-0.5l5.6,5.6c-0.3,0.3-0.5,0.7-0.6,1.2h-5.4c-0.2-1.1-1.2-2-2.5-2c-1.4,0-2.5,1.1-2.5,2.5
					c0,0.5,0.2,1,0.4,1.4l-5.6,5.6c-0.5-0.4-1.1-0.7-1.7-0.7c-0.5,0-0.9,0.1-1.3,0.4l-2.4-2.4c0.1-0.3,0.2-0.6,0.2-0.9
					c0-1.4-1.1-2.5-2.5-2.5c-1.2,0-2.2,0.8-2.5,2h-44.7v1.1h44.7c0.2,1.1,1.2,2,2.5,2c0.7,0,1.3-0.3,1.7-0.7l2.2,2.2
					c-0.3,0.4-0.5,0.9-0.5,1.4c0,0.7,0.3,1.3,0.7,1.7l-2.3,2.3H-72c-0.2-1.1-1.2-2-2.5-2c-1.4,0-2.5,1.1-2.5,2.5
					c0,0.5,0.2,1,0.4,1.4l-2.4,2.4h-23.6v1.1H-80l-3.8,3.8c-0.3-0.2-0.7-0.3-1.1-0.3c-1.2,0-2.3,0.9-2.5,2.1h-15.2V24h15.2
					c0.3,1.1,1.3,1.9,2.4,1.9c1.4,0,2.5-1.1,2.5-2.5c0-0.6-0.2-1.1-0.5-1.5l4.5-4.5h18.1c0.2,1.1,1.2,2,2.5,2c1.4,0,2.5-1.1,2.5-2.5
					c0-0.4-0.1-0.8-0.3-1.1l2.6-2.6h6.2c0.3,1.1,1.2,1.9,2.4,1.9c0.4,0,0.8-0.1,1.1-0.3l7.9,7.9c-0.2,0.3-0.3,0.6-0.4,0.9h-27.2
					c-0.2-1.1-1.2-2-2.4-2c-1.4,0-2.5,1.1-2.5,2.5c0,0.5,0.2,1,0.4,1.4l-6.6,6.6c-0.4-0.3-0.9-0.5-1.5-0.5c-1.2,0-2.2,0.8-2.5,2
					h-24.6v1.1H-78c0.1,0.3,0.2,0.7,0.4,0.9l-6.4,6.4c-0.4-0.2-0.8-0.3-1.2-0.3c-1.2,0-2.2,0.9-2.5,2h-14.9v1.1h14.9
					c0.1,0.3,0.2,0.5,0.3,0.7l-3.7,3.7c-0.4-0.2-0.8-0.4-1.3-0.4c-1.2,0-2.2,0.9-2.5,2h-7.7v1.1h7.7c0.2,1.1,1.2,2,2.5,2
					c1.4,0,2.5-1.1,2.5-2.5c0-0.5-0.2-1-0.4-1.4l3.7-3.7c0.4,0.3,0.9,0.5,1.5,0.5c1.2,0,2.2-0.9,2.5-2h24.4c0,0.2,0,0.3,0,0.5
					c0,0.5,0.1,0.9,0.4,1.3l-12.8,12.8c-0.4-0.3-0.9-0.5-1.5-0.5c-1.2,0-2.2,0.8-2.5,2h-27.7v1.1h27.7c0.1,0.4,0.2,0.7,0.5,1
					l-7.7,7.7c-0.4-0.3-0.9-0.5-1.5-0.5c-1.2,0-2.2,0.8-2.5,2h-16.6v1.1H-86C-85.8,74.3-84.8,75.1-83.6,75.1z M-56.3,15
					c-0.4-0.4-1-0.6-1.6-0.6c-1.2,0-2.2,0.8-2.5,2h-17.1l1.6-1.6c0.4,0.3,0.9,0.4,1.4,0.4c1.2,0,2.2-0.8,2.5-2h17.5L-56.3,15z
					 M-53.5,44.8h36.8c0.2,1.1,1.2,2,2.5,2c0.6,0,1.1-0.2,1.5-0.5l6.6,6.6c-0.2,0.3-0.3,0.6-0.4,0.9h-37.9c-0.2-1.1-1.2-2-2.5-2
					c-0.6,0-1.1,0.2-1.5,0.5l-5.6-5.6c0.3-0.4,0.5-0.9,0.5-1.5C-53.4,45.1-53.5,44.9-53.5,44.8z M29.1,40c-0.4-0.2-0.8-0.4-1.3-0.4
					c-1.2,0-2.2,0.8-2.4,2h-23c-0.3-1.1-1.2-2-2.4-2c-0.5,0-0.9,0.1-1.3,0.4l-1-1c0.1-0.2,0.2-0.4,0.2-0.6H30c0,0.2,0.1,0.4,0.2,0.6
					L29.1,40z M14.3,23.9c0.4,0.2,0.8,0.3,1.2,0.3c0.5,0,0.9-0.1,1.3-0.4l3.9,3.9c-0.3,0.4-0.4,0.9-0.4,1.4c0,1.4,1.1,2.5,2.5,2.5
					c1.2,0,2.2-0.8,2.5-2h13.1c0.1,0.3,0.2,0.5,0.3,0.7l-5.2,5.2c-0.3-0.2-0.7-0.3-1.1-0.3c-1.2,0-2.2,0.8-2.5,2H-2.2
					c-0.2-1.1-1.2-2-2.5-2c-0.4,0-0.8,0.1-1.1,0.3l-4.2-4.2c0.1-0.2,0.3-0.5,0.3-0.8H5.1c0.2,1.1,1.2,2,2.5,2c1.4,0,2.5-1.1,2.5-2.5
					c0-0.5-0.2-1-0.5-1.4L14.3,23.9z M13.1,8c-0.4-0.2-0.8-0.4-1.3-0.4c-1.2,0-2.2,0.8-2.5,2h-25.1c-0.2-1.1-1.2-2-2.5-2
					c-0.5,0-1,0.2-1.4,0.4l-7.8-7.8c0.1-0.1,0.1-0.3,0.1-0.4h47.6c0,0.2,0.1,0.4,0.2,0.6L13.1,8z M4.2,10.6
					c-0.5,0.4-0.8,0.9-0.9,1.5h-20c0.5-0.4,0.8-0.9,1-1.5H4.2z M35.3-1.9C35.1-1.7,35-1.5,35-1.2h-9.6c-0.1-0.4-0.3-0.7-0.5-1
					l5.1-5.1L35.3-1.9z M-36.4-8.9c0.1-0.2,0.2-0.4,0.2-0.6h63.9l1.4,1.4L24-2.9c-0.3-0.2-0.7-0.3-1.1-0.3c-1.2,0-2.2,0.8-2.5,2
					h-47.6c-0.2-1.1-1.2-2-2.5-2c-0.3,0-0.6,0.1-0.9,0.2L-36.4-8.9z M-46.8,12.1H-52l1.7-1.7c0.3,0.1,0.6,0.2,0.9,0.2
					c0.5,0,1-0.2,1.4-0.5l1.3,1.3C-46.7,11.7-46.8,11.9-46.8,12.1z M-44.3,10.1c-0.6,0-1.1,0.2-1.6,0.6l-1.3-1.3
					c0.2-0.4,0.4-0.8,0.4-1.3c0-0.3-0.1-0.6-0.2-0.9l5.8-5.8c0.4,0.3,0.9,0.4,1.4,0.4c1.2,0,2.2-0.8,2.5-2h5.4c0.2,1.1,1.2,2,2.5,2
					c0.7,0,1.3-0.3,1.7-0.7l7.6,7.6c-0.3,0.4-0.4,0.9-0.4,1.4c0,0.8,0.4,1.6,1,2h-22.3C-42.1,11-43.1,10.1-44.3,10.1z M-42.4,14.2
					c0.2-0.3,0.4-0.6,0.5-1H3.3c0.3,1.1,1.2,1.9,2.4,1.9c0.7,0,1.2-0.3,1.7-0.7l6,6c-0.2,0.4-0.4,0.8-0.4,1.3c0,0.6,0.2,1.1,0.5,1.5
					l-4.7,4.7c-0.4-0.2-0.8-0.4-1.3-0.4c-1.2,0-2.2,0.8-2.5,2H-9.7c-0.2-1.1-1.2-2-2.5-2c-0.5,0-0.9,0.1-1.3,0.4l-2.3-2.3
					c0.3-0.4,0.4-0.9,0.4-1.4c0-1.4-1.1-2.5-2.5-2.5c-1.2,0-2.2,0.8-2.4,2h-10.5c-0.2-1.1-1.2-2-2.4-2c-0.4,0-0.9,0.1-1.2,0.3
					L-42.4,14.2z M-14.2,28.7c-0.2,0.3-0.3,0.6-0.4,0.9h-10c-0.2-1.1-1.2-2-2.5-2c-0.5,0-1,0.2-1.4,0.5l-2.6-2.6
					c0.1-0.2,0.2-0.5,0.3-0.7h10.5c0.2,1.1,1.2,2,2.5,2c0.5,0,0.9-0.1,1.3-0.4L-14.2,28.7z M-82.8,43.7c-0.1-0.3-0.2-0.7-0.4-0.9
					l6.4-6.4c0.4,0.2,0.8,0.3,1.3,0.3c1.2,0,2.2-0.8,2.5-2h3.5c0.2,1.1,1.2,2,2.5,2c0.5,0,1-0.2,1.4-0.4l7.4,7.4H-82.8z M-65.1,35.6
					c0.2-0.4,0.4-0.8,0.4-1.3c0-1.4-1.1-2.5-2.5-2.5c-1.2,0-2.2,0.8-2.5,2h-3.5c-0.1-0.3-0.2-0.5-0.3-0.7l6.6-6.6
					c0.4,0.2,0.8,0.4,1.3,0.4c1.2,0,2.2-0.9,2.5-2h27.2c0.2,1.1,1.2,2,2.5,2c0.6,0,1.1-0.2,1.5-0.5l2.5,2.5
					c-0.2,0.4-0.4,0.8-0.4,1.3c0,1.4,1.1,2.5,2.5,2.5c1.2,0,2.2-0.8,2.5-2h10c0.2,1.1,1.2,2,2.5,2c0.5,0,1-0.2,1.4-0.4l4.1,4.1
					c-0.2,0.3-0.4,0.6-0.5,1h-41.6l-5.9,5.9c-0.4-0.2-0.8-0.4-1.3-0.4c-0.6,0-1.1,0.2-1.5,0.5L-65.1,35.6z M-57.3,47.4
					c0.4,0.3,0.9,0.4,1.4,0.4c0.4,0,0.9-0.1,1.2-0.3l5.7,5.7c-0.2,0.4-0.3,0.8-0.3,1.2c0,1.4,1.1,2.5,2.5,2.5c1.2,0,2.2-0.9,2.5-2
					h37.9c0.2,1.1,1.2,2,2.5,2c0.5,0,1-0.2,1.4-0.5L1.1,60c-0.2,0.3-0.3,0.5-0.3,0.8H-70c0-0.2-0.1-0.4-0.2-0.6L-57.3,47.4z"/>
				<path class="st4" d="M121.6,129.1c-0.3-1.1-1.2-1.9-2.4-1.9c-1.4,0-2.5,1.1-2.5,2.5c0,0.5,0.2,1,0.4,1.4l-17.3,17.3H44.5
					l-13.7-13.7c0.2-0.3,0.3-0.6,0.4-0.9h43.5c0.2,1.1,1.2,2,2.5,2c1.4,0,2.5-1.1,2.5-2.5c0-1.4-1.1-2.5-2.5-2.5
					c-1.2,0-2.2,0.8-2.5,2H31.1c-0.2-1.1-1.2-2-2.5-2c-0.5,0-1,0.2-1.4,0.5L15,118.9c0.3-0.4,0.4-0.9,0.4-1.4c0-1.4-1.1-2.5-2.5-2.5
					c-1.2,0-2.2,0.8-2.5,2h-65.4l-16,16c-0.4-0.4-1-0.7-1.7-0.7c-1.4,0-2.5,1.1-2.5,2.4h-27.5v1.1h27.7c0.4,0.9,1.3,1.5,2.3,1.5
					c1.4,0,2.5-1.1,2.5-2.5c0-0.3-0.1-0.7-0.2-1l15.8-15.8h65c0.2,1.1,1.2,2,2.5,2c0.5,0,0.9-0.1,1.3-0.4l12.3,12.3
					c-0.1,0.2-0.2,0.5-0.3,0.7H15.9c-0.2-1.1-1.2-2-2.5-2c-0.5,0-0.9,0.1-1.3,0.4l-3.8-3.8c0.3-0.4,0.4-0.9,0.4-1.4
					c0-1.4-1.1-2.5-2.5-2.5c-1.2,0-2.2,0.8-2.5,2h-47.9c-0.2-1.1-1.2-2-2.5-2c-1.4,0-2.5,1.1-2.5,2.5c0,0.5,0.1,0.9,0.4,1.3
					l-16.4,16.4c-0.4-0.2-0.8-0.4-1.3-0.4c-1.2,0-2.2,0.8-2.5,2h-33.7v1.1h33.7c0.2,1.1,1.2,2,2.5,2c1.4,0,2.5-1.1,2.5-2.5
					c0-0.5-0.2-1-0.4-1.4l16.3-16.3c0.4,0.3,0.9,0.4,1.4,0.4c1.2,0,2.2-0.8,2.5-2H3.8c0.2,1.1,1.2,2,2.5,2c0.5,0,0.9-0.1,1.3-0.4
					l3.8,3.8c-0.3,0.4-0.4,0.9-0.4,1.4c0,1.4,1.1,2.5,2.5,2.5c1.2,0,2.2-0.8,2.5-2h10.3c0.2,1.1,1.2,2,2.5,2c0.5,0,0.9-0.1,1.3-0.4
					l14.1,14h56.2l17.6-17.6c0.4,0.2,0.8,0.4,1.3,0.4c1.2,0,2.2-0.9,2.5-2L121.6,129.1z"/>
				<g>
					<defs>
						<filter id="Adobe_OpacityMaskFilter" filterUnits="userSpaceOnUse" x="109.9" y="124.6" width="18.6" height="11.4">
							<feColorMatrix  type="matrix" values="1 0 0 0 0  0 1 0 0 0  0 0 1 0 0  0 0 0 1 0"/>
						</filter>
					</defs>
					<mask maskUnits="userSpaceOnUse" x="109.9" y="124.6" width="18.6" height="11.4" id="SVGID_4_">
						<g class="st5">
							<defs>
								<filter id="Adobe_OpacityMaskFilter_1_" filterUnits="userSpaceOnUse" x="109.9" y="124.6" width="18.6" height="11.4">
									<feColorMatrix  type="matrix" values="1 0 0 0 0  0 1 0 0 0  0 0 1 0 0  0 0 0 1 0"/>
								</filter>
							</defs>
							<mask maskUnits="userSpaceOnUse" x="109.9" y="124.6" width="18.6" height="11.4" id="SVGID_4_">
								<g class="st6">
									<ellipse class="st3" cx="119.2" cy="130.3" rx="9.3" ry="5.7"/>
								</g>
							</mask>
							
								<radialGradient id="SVGID_5_" cx="813.3584" cy="136.1556" r="6.3505" gradientTransform="matrix(1.4644 0 0 0.9 -1071.8799 7.7454)" gradientUnits="userSpaceOnUse">
								<stop  offset="0.1527" style="stop-color:#FFFFFF"/>
								<stop  offset="0.1713" style="stop-color:#F3F2F3"/>
								<stop  offset="0.3408" style="stop-color:#949196"/>
								<stop  offset="0.5005" style="stop-color:#555258"/>
								<stop  offset="0.6457" style="stop-color:#2C2B31"/>
								<stop  offset="0.7738" style="stop-color:#131418"/>
								<stop  offset="0.8799" style="stop-color:#040507"/>
								<stop  offset="0.9507" style="stop-color:#020203"/>
							</radialGradient>
							<ellipse class="st7" cx="119.2" cy="130.3" rx="9.3" ry="5.7"/>
						</g>
					</mask>
					
						<radialGradient id="SVGID_6_" cx="813.3584" cy="136.1556" r="6.3505" gradientTransform="matrix(1.4644 0 0 0.9 -1071.8799 7.7454)" gradientUnits="userSpaceOnUse">
						<stop  offset="0.8571" style="stop-color:#FFFFFF"/>
						<stop  offset="0.8734" style="stop-color:#FCFCFC"/>
						<stop  offset="0.8864" style="stop-color:#F2F2F2"/>
						<stop  offset="0.8983" style="stop-color:#E1E1E1"/>
						<stop  offset="0.9095" style="stop-color:#C9C9C9"/>
						<stop  offset="0.9202" style="stop-color:#ABABAB"/>
						<stop  offset="0.9306" style="stop-color:#858585"/>
						<stop  offset="0.9407" style="stop-color:#585858"/>
						<stop  offset="0.9503" style="stop-color:#262626"/>
						<stop  offset="0.9524" style="stop-color:#1A1A1A"/>
					</radialGradient>
					<ellipse class="st8" cx="119.2" cy="130.3" rx="9.3" ry="5.7"/>
					<defs>
						<filter id="Adobe_OpacityMaskFilter_2_" filterUnits="userSpaceOnUse" x="136.3" y="114.4" width="18.6" height="11.4">
							<feColorMatrix  type="matrix" values="1 0 0 0 0  0 1 0 0 0  0 0 1 0 0  0 0 0 1 0"/>
						</filter>
					</defs>
					<mask maskUnits="userSpaceOnUse" x="136.3" y="114.4" width="18.6" height="11.4" id="SVGID_7_">
						<g class="st9">
							<defs>
								<filter id="Adobe_OpacityMaskFilter_3_" filterUnits="userSpaceOnUse" x="136.3" y="114.4" width="18.6" height="11.4">
									<feColorMatrix  type="matrix" values="1 0 0 0 0  0 1 0 0 0  0 0 1 0 0  0 0 0 1 0"/>
								</filter>
							</defs>
							<mask maskUnits="userSpaceOnUse" x="136.3" y="114.4" width="18.6" height="11.4" id="SVGID_7_">
								<g class="st10">
									<ellipse class="st3" cx="145.6" cy="120.1" rx="9.3" ry="5.7"/>
								</g>
							</mask>
							
								<radialGradient id="SVGID_8_" cx="831.3807" cy="124.8934" r="6.3505" gradientTransform="matrix(1.4644 0 0 0.9 -1071.8799 7.7454)" gradientUnits="userSpaceOnUse">
								<stop  offset="0.1527" style="stop-color:#FFFFFF"/>
								<stop  offset="0.1713" style="stop-color:#F3F2F3"/>
								<stop  offset="0.3408" style="stop-color:#949196"/>
								<stop  offset="0.5005" style="stop-color:#555258"/>
								<stop  offset="0.6457" style="stop-color:#2C2B31"/>
								<stop  offset="0.7738" style="stop-color:#131418"/>
								<stop  offset="0.8799" style="stop-color:#040507"/>
								<stop  offset="0.9507" style="stop-color:#020203"/>
							</radialGradient>
							<ellipse class="st11" cx="145.6" cy="120.1" rx="9.3" ry="5.7"/>
						</g>
					</mask>
					
						<radialGradient id="SVGID_9_" cx="831.3807" cy="124.8934" r="6.3505" gradientTransform="matrix(1.4644 0 0 0.9 -1071.8799 7.7454)" gradientUnits="userSpaceOnUse">
						<stop  offset="0.8571" style="stop-color:#FFFFFF"/>
						<stop  offset="0.8734" style="stop-color:#FCFCFC"/>
						<stop  offset="0.8864" style="stop-color:#F2F2F2"/>
						<stop  offset="0.8983" style="stop-color:#E1E1E1"/>
						<stop  offset="0.9095" style="stop-color:#C9C9C9"/>
						<stop  offset="0.9202" style="stop-color:#ABABAB"/>
						<stop  offset="0.9306" style="stop-color:#858585"/>
						<stop  offset="0.9407" style="stop-color:#585858"/>
						<stop  offset="0.9503" style="stop-color:#262626"/>
						<stop  offset="0.9524" style="stop-color:#1A1A1A"/>
					</radialGradient>
					<ellipse class="st12" cx="145.6" cy="120.1" rx="9.3" ry="5.7"/>
					<defs>
						<filter id="Adobe_OpacityMaskFilter_4_" filterUnits="userSpaceOnUse" x="7.9" y="127.6" width="11.4" height="11.4">
							<feColorMatrix  type="matrix" values="1 0 0 0 0  0 1 0 0 0  0 0 1 0 0  0 0 0 1 0"/>
						</filter>
					</defs>
					<mask maskUnits="userSpaceOnUse" x="7.9" y="127.6" width="11.4" height="11.4" id="SVGID_10_">
						<g class="st13">
							<defs>
								<filter id="Adobe_OpacityMaskFilter_5_" filterUnits="userSpaceOnUse" x="7.9" y="127.6" width="11.4" height="11.4">
									<feColorMatrix  type="matrix" values="1 0 0 0 0  0 1 0 0 0  0 0 1 0 0  0 0 0 1 0"/>
								</filter>
							</defs>
							<mask maskUnits="userSpaceOnUse" x="7.9" y="127.6" width="11.4" height="11.4" id="SVGID_10_">
								<g class="st14">
									<ellipse class="st3" cx="13.7" cy="133.3" rx="5.7" ry="5.7"/>
								</g>
							</mask>
							
								<radialGradient id="SVGID_11_" cx="344.3509" cy="139.4719" r="6.3507" gradientTransform="matrix(0.9007 0 0 0.9 -296.4968 7.7454)" gradientUnits="userSpaceOnUse">
								<stop  offset="0.1527" style="stop-color:#FFFFFF"/>
								<stop  offset="0.1713" style="stop-color:#F3F2F3"/>
								<stop  offset="0.3408" style="stop-color:#949196"/>
								<stop  offset="0.5005" style="stop-color:#555258"/>
								<stop  offset="0.6457" style="stop-color:#2C2B31"/>
								<stop  offset="0.7738" style="stop-color:#131418"/>
								<stop  offset="0.8799" style="stop-color:#040507"/>
								<stop  offset="0.9507" style="stop-color:#020203"/>
							</radialGradient>
							<ellipse class="st15" cx="13.7" cy="133.3" rx="5.7" ry="5.7"/>
						</g>
					</mask>
					
						<radialGradient id="SVGID_12_" cx="344.3509" cy="139.4719" r="6.3507" gradientTransform="matrix(0.9007 0 0 0.9 -296.4968 7.7454)" gradientUnits="userSpaceOnUse">
						<stop  offset="0.5429" style="stop-color:#FFFFFF"/>
						<stop  offset="0.621" style="stop-color:#FCFCFC"/>
						<stop  offset="0.6834" style="stop-color:#F2F2F2"/>
						<stop  offset="0.7404" style="stop-color:#E1E1E1"/>
						<stop  offset="0.7942" style="stop-color:#C9C9C9"/>
						<stop  offset="0.8457" style="stop-color:#ABABAB"/>
						<stop  offset="0.8955" style="stop-color:#858585"/>
						<stop  offset="0.9439" style="stop-color:#585858"/>
						<stop  offset="0.9901" style="stop-color:#262626"/>
						<stop  offset="1" style="stop-color:#1A1A1A"/>
					</radialGradient>
					<ellipse class="st16" cx="13.7" cy="133.3" rx="5.7" ry="5.7"/>
					<defs>
						<filter id="Adobe_OpacityMaskFilter_6_" filterUnits="userSpaceOnUse" x="-72" y="140.3" width="11.4" height="11.4">
							<feColorMatrix  type="matrix" values="1 0 0 0 0  0 1 0 0 0  0 0 1 0 0  0 0 0 1 0"/>
						</filter>
					</defs>
					<mask maskUnits="userSpaceOnUse" x="-72" y="140.3" width="11.4" height="11.4" id="SVGID_13_">
						<g class="st17">
							<defs>
								<filter id="Adobe_OpacityMaskFilter_7_" filterUnits="userSpaceOnUse" x="-72" y="140.3" width="11.4" height="11.4">
									<feColorMatrix  type="matrix" values="1 0 0 0 0  0 1 0 0 0  0 0 1 0 0  0 0 0 1 0"/>
								</filter>
							</defs>
							<mask maskUnits="userSpaceOnUse" x="-72" y="140.3" width="11.4" height="11.4" id="SVGID_13_">
								<g class="st18">
									
										<ellipse transform="matrix(2.025171e-03 -1 1 2.025171e-03 -212.1608 79.3588)" class="st3" cx="-66.3" cy="146" rx="5.7" ry="5.7"/>
								</g>
							</mask>
							
								<radialGradient id="SVGID_14_" cx="255.5526" cy="153.5884" r="6.3507" gradientTransform="matrix(0.9007 0 0 0.9 -296.4968 7.7454)" gradientUnits="userSpaceOnUse">
								<stop  offset="0.1527" style="stop-color:#FFFFFF"/>
								<stop  offset="0.1713" style="stop-color:#F3F2F3"/>
								<stop  offset="0.3408" style="stop-color:#949196"/>
								<stop  offset="0.5005" style="stop-color:#555258"/>
								<stop  offset="0.6457" style="stop-color:#2C2B31"/>
								<stop  offset="0.7738" style="stop-color:#131418"/>
								<stop  offset="0.8799" style="stop-color:#040507"/>
								<stop  offset="0.9507" style="stop-color:#020203"/>
							</radialGradient>
							<ellipse class="st19" cx="-66.3" cy="146" rx="5.7" ry="5.7"/>
						</g>
					</mask>
					
						<radialGradient id="SVGID_15_" cx="255.5526" cy="153.5884" r="6.3507" gradientTransform="matrix(0.9007 0 0 0.9 -296.4968 7.7454)" gradientUnits="userSpaceOnUse">
						<stop  offset="0.5429" style="stop-color:#FFFFFF"/>
						<stop  offset="0.621" style="stop-color:#FCFCFC"/>
						<stop  offset="0.6834" style="stop-color:#F2F2F2"/>
						<stop  offset="0.7404" style="stop-color:#E1E1E1"/>
						<stop  offset="0.7942" style="stop-color:#C9C9C9"/>
						<stop  offset="0.8457" style="stop-color:#ABABAB"/>
						<stop  offset="0.8955" style="stop-color:#858585"/>
						<stop  offset="0.9439" style="stop-color:#585858"/>
						<stop  offset="0.9901" style="stop-color:#262626"/>
						<stop  offset="1" style="stop-color:#1A1A1A"/>
					</radialGradient>
					<ellipse class="st20" cx="-66.3" cy="146" rx="5.7" ry="5.7"/>
					<defs>
						<filter id="Adobe_OpacityMaskFilter_8_" filterUnits="userSpaceOnUse" x="-47.2" y="73.6" width="11.4" height="11.4">
							<feColorMatrix  type="matrix" values="1 0 0 0 0  0 1 0 0 0  0 0 1 0 0  0 0 0 1 0"/>
						</filter>
					</defs>
					<mask maskUnits="userSpaceOnUse" x="-47.2" y="73.6" width="11.4" height="11.4" id="SVGID_16_">
						<g class="st21">
							<defs>
								<filter id="Adobe_OpacityMaskFilter_9_" filterUnits="userSpaceOnUse" x="-47.2" y="73.6" width="11.4" height="11.4">
									<feColorMatrix  type="matrix" values="1 0 0 0 0  0 1 0 0 0  0 0 1 0 0  0 0 0 1 0"/>
								</filter>
							</defs>
							<mask maskUnits="userSpaceOnUse" x="-47.2" y="73.6" width="11.4" height="11.4" id="SVGID_16_">
								<g class="st22">
									<ellipse class="st3" cx="-41.5" cy="79.3" rx="5.7" ry="5.7"/>
								</g>
							</mask>
							
								<radialGradient id="SVGID_17_" cx="283.1063" cy="79.5265" r="6.3507" gradientTransform="matrix(0.9007 0 0 0.9 -296.4968 7.7454)" gradientUnits="userSpaceOnUse">
								<stop  offset="0.1527" style="stop-color:#FFFFFF"/>
								<stop  offset="0.1713" style="stop-color:#F3F2F3"/>
								<stop  offset="0.3408" style="stop-color:#949196"/>
								<stop  offset="0.5005" style="stop-color:#555258"/>
								<stop  offset="0.6457" style="stop-color:#2C2B31"/>
								<stop  offset="0.7738" style="stop-color:#131418"/>
								<stop  offset="0.8799" style="stop-color:#040507"/>
								<stop  offset="0.9507" style="stop-color:#020203"/>
							</radialGradient>
							<ellipse class="st23" cx="-41.5" cy="79.3" rx="5.7" ry="5.7"/>
						</g>
					</mask>
					
						<radialGradient id="SVGID_18_" cx="283.1063" cy="79.5265" r="6.3507" gradientTransform="matrix(0.9007 0 0 0.9 -296.4968 7.7454)" gradientUnits="userSpaceOnUse">
						<stop  offset="0.5429" style="stop-color:#FFFFFF"/>
						<stop  offset="0.621" style="stop-color:#FCFCFC"/>
						<stop  offset="0.6834" style="stop-color:#F2F2F2"/>
						<stop  offset="0.7404" style="stop-color:#E1E1E1"/>
						<stop  offset="0.7942" style="stop-color:#C9C9C9"/>
						<stop  offset="0.8457" style="stop-color:#ABABAB"/>
						<stop  offset="0.8955" style="stop-color:#858585"/>
						<stop  offset="0.9439" style="stop-color:#585858"/>
						<stop  offset="0.9901" style="stop-color:#262626"/>
						<stop  offset="1" style="stop-color:#1A1A1A"/>
					</radialGradient>
					<ellipse class="st24" cx="-41.5" cy="79.3" rx="5.7" ry="5.7"/>
					<defs>
						<filter id="Adobe_OpacityMaskFilter_10_" filterUnits="userSpaceOnUse" x="-38.4" y="18.5" width="11.4" height="11.4">
							<feColorMatrix  type="matrix" values="1 0 0 0 0  0 1 0 0 0  0 0 1 0 0  0 0 0 1 0"/>
						</filter>
					</defs>
					<mask maskUnits="userSpaceOnUse" x="-38.4" y="18.5" width="11.4" height="11.4" id="SVGID_19_">
						<g class="st25">
							<defs>
								<filter id="Adobe_OpacityMaskFilter_11_" filterUnits="userSpaceOnUse" x="-38.4" y="18.5" width="11.4" height="11.4">
									<feColorMatrix  type="matrix" values="1 0 0 0 0  0 1 0 0 0  0 0 1 0 0  0 0 0 1 0"/>
								</filter>
							</defs>
							<mask maskUnits="userSpaceOnUse" x="-38.4" y="18.5" width="11.4" height="11.4" id="SVGID_19_">
								<g class="st26">
									<ellipse class="st3" cx="-32.7" cy="24.2" rx="5.7" ry="5.7"/>
								</g>
							</mask>
							
								<radialGradient id="SVGID_20_" cx="292.9096" cy="18.328" r="6.3507" gradientTransform="matrix(0.9007 0 0 0.9 -296.4968 7.7454)" gradientUnits="userSpaceOnUse">
								<stop  offset="0.1527" style="stop-color:#FFFFFF"/>
								<stop  offset="0.1713" style="stop-color:#F3F2F3"/>
								<stop  offset="0.3408" style="stop-color:#949196"/>
								<stop  offset="0.5005" style="stop-color:#555258"/>
								<stop  offset="0.6457" style="stop-color:#2C2B31"/>
								<stop  offset="0.7738" style="stop-color:#131418"/>
								<stop  offset="0.8799" style="stop-color:#040507"/>
								<stop  offset="0.9507" style="stop-color:#020203"/>
							</radialGradient>
							<ellipse class="st27" cx="-32.7" cy="24.2" rx="5.7" ry="5.7"/>
						</g>
					</mask>
					
						<radialGradient id="SVGID_21_" cx="292.9096" cy="18.328" r="6.3507" gradientTransform="matrix(0.9007 0 0 0.9 -296.4968 7.7454)" gradientUnits="userSpaceOnUse">
						<stop  offset="0.5429" style="stop-color:#FFFFFF"/>
						<stop  offset="0.621" style="stop-color:#FCFCFC"/>
						<stop  offset="0.6834" style="stop-color:#F2F2F2"/>
						<stop  offset="0.7404" style="stop-color:#E1E1E1"/>
						<stop  offset="0.7942" style="stop-color:#C9C9C9"/>
						<stop  offset="0.8457" style="stop-color:#ABABAB"/>
						<stop  offset="0.8955" style="stop-color:#858585"/>
						<stop  offset="0.9439" style="stop-color:#585858"/>
						<stop  offset="0.9901" style="stop-color:#262626"/>
						<stop  offset="1" style="stop-color:#1A1A1A"/>
					</radialGradient>
					<ellipse class="st28" cx="-32.7" cy="24.2" rx="5.7" ry="5.7"/>
					<defs>
						<filter id="Adobe_OpacityMaskFilter_12_" filterUnits="userSpaceOnUse" x="-91.9" y="78.5" width="11.4" height="11.4">
							<feColorMatrix  type="matrix" values="1 0 0 0 0  0 1 0 0 0  0 0 1 0 0  0 0 0 1 0"/>
						</filter>
					</defs>
					<mask maskUnits="userSpaceOnUse" x="-91.9" y="78.5" width="11.4" height="11.4" id="SVGID_22_">
						<g class="st29">
							<defs>
								<filter id="Adobe_OpacityMaskFilter_13_" filterUnits="userSpaceOnUse" x="-91.9" y="78.5" width="11.4" height="11.4">
									<feColorMatrix  type="matrix" values="1 0 0 0 0  0 1 0 0 0  0 0 1 0 0  0 0 0 1 0"/>
								</filter>
							</defs>
							<mask maskUnits="userSpaceOnUse" x="-91.9" y="78.5" width="11.4" height="11.4" id="SVGID_22_">
								<g class="st30">
									
										<ellipse transform="matrix(2.025171e-03 -1 1 2.025171e-03 -170.222 -2.1901)" class="st3" cx="-86.2" cy="84.2" rx="5.7" ry="5.7"/>
								</g>
							</mask>
							
								<radialGradient id="SVGID_23_" cx="233.4723" cy="84.9369" r="6.3507" gradientTransform="matrix(0.9007 0 0 0.9 -296.4968 7.7454)" gradientUnits="userSpaceOnUse">
								<stop  offset="0.1527" style="stop-color:#FFFFFF"/>
								<stop  offset="0.1713" style="stop-color:#F3F2F3"/>
								<stop  offset="0.3408" style="stop-color:#949196"/>
								<stop  offset="0.5005" style="stop-color:#555258"/>
								<stop  offset="0.6457" style="stop-color:#2C2B31"/>
								<stop  offset="0.7738" style="stop-color:#131418"/>
								<stop  offset="0.8799" style="stop-color:#040507"/>
								<stop  offset="0.9507" style="stop-color:#020203"/>
							</radialGradient>
							<ellipse class="st31" cx="-86.2" cy="84.2" rx="5.7" ry="5.7"/>
						</g>
					</mask>
					
						<radialGradient id="SVGID_24_" cx="233.4723" cy="84.9369" r="6.3507" gradientTransform="matrix(0.9007 0 0 0.9 -296.4968 7.7454)" gradientUnits="userSpaceOnUse">
						<stop  offset="0.5429" style="stop-color:#FFFFFF"/>
						<stop  offset="0.621" style="stop-color:#FCFCFC"/>
						<stop  offset="0.6834" style="stop-color:#F2F2F2"/>
						<stop  offset="0.7404" style="stop-color:#E1E1E1"/>
						<stop  offset="0.7942" style="stop-color:#C9C9C9"/>
						<stop  offset="0.8457" style="stop-color:#ABABAB"/>
						<stop  offset="0.8955" style="stop-color:#858585"/>
						<stop  offset="0.9439" style="stop-color:#585858"/>
						<stop  offset="0.9901" style="stop-color:#262626"/>
						<stop  offset="1" style="stop-color:#1A1A1A"/>
					</radialGradient>
					<ellipse class="st32" cx="-86.2" cy="84.2" rx="5.7" ry="5.7"/>
					<defs>
						<filter id="Adobe_OpacityMaskFilter_14_" filterUnits="userSpaceOnUse" x="-44.1" y="-15.9" width="11.4" height="11.4">
							<feColorMatrix  type="matrix" values="1 0 0 0 0  0 1 0 0 0  0 0 1 0 0  0 0 0 1 0"/>
						</filter>
					</defs>
					<mask maskUnits="userSpaceOnUse" x="-44.1" y="-15.9" width="11.4" height="11.4" id="SVGID_25_">
						<g class="st33">
							<defs>
								<filter id="Adobe_OpacityMaskFilter_15_" filterUnits="userSpaceOnUse" x="-44.1" y="-15.9" width="11.4" height="11.4">
									<feColorMatrix  type="matrix" values="1 0 0 0 0  0 1 0 0 0  0 0 1 0 0  0 0 0 1 0"/>
								</filter>
							</defs>
							<mask maskUnits="userSpaceOnUse" x="-44.1" y="-15.9" width="11.4" height="11.4" id="SVGID_25_">
								<g class="st34">
									<ellipse class="st3" cx="-38.4" cy="-10.2" rx="5.7" ry="5.7"/>
								</g>
							</mask>
							
								<radialGradient id="SVGID_26_" cx="286.5589" cy="-19.9262" r="6.3507" gradientTransform="matrix(0.9007 0 0 0.9 -296.4968 7.7454)" gradientUnits="userSpaceOnUse">
								<stop  offset="0.1527" style="stop-color:#FFFFFF"/>
								<stop  offset="0.1713" style="stop-color:#F3F2F3"/>
								<stop  offset="0.3408" style="stop-color:#949196"/>
								<stop  offset="0.5005" style="stop-color:#555258"/>
								<stop  offset="0.6457" style="stop-color:#2C2B31"/>
								<stop  offset="0.7738" style="stop-color:#131418"/>
								<stop  offset="0.8799" style="stop-color:#040507"/>
								<stop  offset="0.9507" style="stop-color:#020203"/>
							</radialGradient>
							<ellipse class="st35" cx="-38.4" cy="-10.2" rx="5.7" ry="5.7"/>
						</g>
					</mask>
					
						<radialGradient id="SVGID_27_" cx="286.5589" cy="-19.9262" r="6.3507" gradientTransform="matrix(0.9007 0 0 0.9 -296.4968 7.7454)" gradientUnits="userSpaceOnUse">
						<stop  offset="0.5429" style="stop-color:#FFFFFF"/>
						<stop  offset="0.621" style="stop-color:#FCFCFC"/>
						<stop  offset="0.6834" style="stop-color:#F2F2F2"/>
						<stop  offset="0.7404" style="stop-color:#E1E1E1"/>
						<stop  offset="0.7942" style="stop-color:#C9C9C9"/>
						<stop  offset="0.8457" style="stop-color:#ABABAB"/>
						<stop  offset="0.8955" style="stop-color:#858585"/>
						<stop  offset="0.9439" style="stop-color:#585858"/>
						<stop  offset="0.9901" style="stop-color:#262626"/>
						<stop  offset="1" style="stop-color:#1A1A1A"/>
					</radialGradient>
					<ellipse class="st36" cx="-38.4" cy="-10.2" rx="5.7" ry="5.7"/>
					<defs>
						<filter id="Adobe_OpacityMaskFilter_16_" filterUnits="userSpaceOnUse" x="-14.8" y="93.7" width="11.4" height="11.4">
							<feColorMatrix  type="matrix" values="1 0 0 0 0  0 1 0 0 0  0 0 1 0 0  0 0 0 1 0"/>
						</filter>
					</defs>
					<mask maskUnits="userSpaceOnUse" x="-14.8" y="93.7" width="11.4" height="11.4" id="SVGID_28_">
						<g class="st37">
							<defs>
								<filter id="Adobe_OpacityMaskFilter_17_" filterUnits="userSpaceOnUse" x="-14.8" y="93.7" width="11.4" height="11.4">
									<feColorMatrix  type="matrix" values="1 0 0 0 0  0 1 0 0 0  0 0 1 0 0  0 0 0 1 0"/>
								</filter>
							</defs>
							<mask maskUnits="userSpaceOnUse" x="-14.8" y="93.7" width="11.4" height="11.4" id="SVGID_28_">
								<g class="st38">
									
										<ellipse transform="matrix(1 -2.039580e-03 2.039580e-03 1 -0.2028 -1.839837e-02)" class="st3" cx="-9.1" cy="99.4" rx="5.7" ry="5.7"/>
								</g>
							</mask>
							
								<radialGradient id="SVGID_29_" cx="319.0571" cy="101.8556" r="6.3506" gradientTransform="matrix(0.9007 0 0 0.9 -296.4968 7.7454)" gradientUnits="userSpaceOnUse">
								<stop  offset="0.1527" style="stop-color:#FFFFFF"/>
								<stop  offset="0.1713" style="stop-color:#F3F2F3"/>
								<stop  offset="0.3408" style="stop-color:#949196"/>
								<stop  offset="0.5005" style="stop-color:#555258"/>
								<stop  offset="0.6457" style="stop-color:#2C2B31"/>
								<stop  offset="0.7738" style="stop-color:#131418"/>
								<stop  offset="0.8799" style="stop-color:#040507"/>
								<stop  offset="0.9507" style="stop-color:#020203"/>
							</radialGradient>
							<path class="st39" d="M-3.4,99.4c0,3.2-2.6,5.7-5.7,5.7c-3.2,0-5.7-2.6-5.7-5.7c0-3.2,2.6-5.7,5.7-5.7
								C-6,93.7-3.4,96.3-3.4,99.4z"/>
						</g>
					</mask>
					
						<radialGradient id="SVGID_30_" cx="319.0571" cy="101.8556" r="6.3506" gradientTransform="matrix(0.9007 0 0 0.9 -296.4968 7.7454)" gradientUnits="userSpaceOnUse">
						<stop  offset="0.5429" style="stop-color:#FFFFFF"/>
						<stop  offset="0.621" style="stop-color:#FCFCFC"/>
						<stop  offset="0.6834" style="stop-color:#F2F2F2"/>
						<stop  offset="0.7404" style="stop-color:#E1E1E1"/>
						<stop  offset="0.7942" style="stop-color:#C9C9C9"/>
						<stop  offset="0.8457" style="stop-color:#ABABAB"/>
						<stop  offset="0.8955" style="stop-color:#858585"/>
						<stop  offset="0.9439" style="stop-color:#585858"/>
						<stop  offset="0.9901" style="stop-color:#262626"/>
						<stop  offset="1" style="stop-color:#1A1A1A"/>
					</radialGradient>
					<path class="st40" d="M-3.4,99.4c0,3.2-2.6,5.7-5.7,5.7c-3.2,0-5.7-2.6-5.7-5.7c0-3.2,2.6-5.7,5.7-5.7
						C-6,93.7-3.4,96.3-3.4,99.4z"/>
					<defs>
						<filter id="Adobe_OpacityMaskFilter_18_" filterUnits="userSpaceOnUse" x="71.1" y="127.6" width="11.4" height="11.4">
							<feColorMatrix  type="matrix" values="1 0 0 0 0  0 1 0 0 0  0 0 1 0 0  0 0 0 1 0"/>
						</filter>
					</defs>
					<mask maskUnits="userSpaceOnUse" x="71.1" y="127.6" width="11.4" height="11.4" id="SVGID_31_">
						<g class="st41">
							<defs>
								<filter id="Adobe_OpacityMaskFilter_19_" filterUnits="userSpaceOnUse" x="71.1" y="127.6" width="11.4" height="11.4">
									<feColorMatrix  type="matrix" values="1 0 0 0 0  0 1 0 0 0  0 0 1 0 0  0 0 0 1 0"/>
								</filter>
							</defs>
							<mask maskUnits="userSpaceOnUse" x="71.1" y="127.6" width="11.4" height="11.4" id="SVGID_31_">
								<g class="st42">
									<ellipse class="st3" cx="76.8" cy="133.3" rx="5.7" ry="5.7"/>
								</g>
							</mask>
							
								<radialGradient id="SVGID_32_" cx="414.4294" cy="139.4719" r="6.3507" gradientTransform="matrix(0.9007 0 0 0.9 -296.4968 7.7454)" gradientUnits="userSpaceOnUse">
								<stop  offset="0.1527" style="stop-color:#FFFFFF"/>
								<stop  offset="0.1713" style="stop-color:#F3F2F3"/>
								<stop  offset="0.3408" style="stop-color:#949196"/>
								<stop  offset="0.5005" style="stop-color:#555258"/>
								<stop  offset="0.6457" style="stop-color:#2C2B31"/>
								<stop  offset="0.7738" style="stop-color:#131418"/>
								<stop  offset="0.8799" style="stop-color:#040507"/>
								<stop  offset="0.9507" style="stop-color:#020203"/>
							</radialGradient>
							<ellipse class="st43" cx="76.8" cy="133.3" rx="5.7" ry="5.7"/>
						</g>
					</mask>
					
						<radialGradient id="SVGID_33_" cx="414.4294" cy="139.4719" r="6.3507" gradientTransform="matrix(0.9007 0 0 0.9 -296.4968 7.7454)" gradientUnits="userSpaceOnUse">
						<stop  offset="0.5429" style="stop-color:#FFFFFF"/>
						<stop  offset="0.621" style="stop-color:#FCFCFC"/>
						<stop  offset="0.6834" style="stop-color:#F2F2F2"/>
						<stop  offset="0.7404" style="stop-color:#E1E1E1"/>
						<stop  offset="0.7942" style="stop-color:#C9C9C9"/>
						<stop  offset="0.8457" style="stop-color:#ABABAB"/>
						<stop  offset="0.8955" style="stop-color:#858585"/>
						<stop  offset="0.9439" style="stop-color:#585858"/>
						<stop  offset="0.9901" style="stop-color:#262626"/>
						<stop  offset="1" style="stop-color:#1A1A1A"/>
					</radialGradient>
					<ellipse class="st44" cx="76.8" cy="133.3" rx="5.7" ry="5.7"/>
					<defs>
						<filter id="Adobe_OpacityMaskFilter_20_" filterUnits="userSpaceOnUse" x="-72.7" y="28.9" width="11.4" height="11.4">
							<feColorMatrix  type="matrix" values="1 0 0 0 0  0 1 0 0 0  0 0 1 0 0  0 0 0 1 0"/>
						</filter>
					</defs>
					<mask maskUnits="userSpaceOnUse" x="-72.7" y="28.9" width="11.4" height="11.4" id="SVGID_34_">
						<g class="st45">
							<defs>
								<filter id="Adobe_OpacityMaskFilter_21_" filterUnits="userSpaceOnUse" x="-72.7" y="28.9" width="11.4" height="11.4">
									<feColorMatrix  type="matrix" values="1 0 0 0 0  0 1 0 0 0  0 0 1 0 0  0 0 0 1 0"/>
								</filter>
							</defs>
							<mask maskUnits="userSpaceOnUse" x="-72.7" y="28.9" width="11.4" height="11.4" id="SVGID_34_">
								<g class="st46">
									<path class="st3" d="M-61.3,34.6c0,3.2-2.6,5.7-5.7,5.7c-3.2,0-5.7-2.6-5.7-5.7c0-3.2,2.6-5.7,5.7-5.7
										C-63.9,28.9-61.3,31.5-61.3,34.6z"/>
								</g>
							</mask>
							
								<radialGradient id="SVGID_35_" cx="254.7697" cy="29.8537" r="6.3506" gradientTransform="matrix(0.9007 0 0 0.9 -296.4968 7.7454)" gradientUnits="userSpaceOnUse">
								<stop  offset="0.1527" style="stop-color:#FFFFFF"/>
								<stop  offset="0.1713" style="stop-color:#F3F2F3"/>
								<stop  offset="0.3408" style="stop-color:#949196"/>
								<stop  offset="0.5005" style="stop-color:#555258"/>
								<stop  offset="0.6457" style="stop-color:#2C2B31"/>
								<stop  offset="0.7738" style="stop-color:#131418"/>
								<stop  offset="0.8799" style="stop-color:#040507"/>
								<stop  offset="0.9507" style="stop-color:#020203"/>
							</radialGradient>
							<path class="st47" d="M-61.3,34.6c0,3.2-2.6,5.7-5.7,5.7c-3.2,0-5.7-2.6-5.7-5.7c0-3.2,2.6-5.7,5.7-5.7
								C-63.9,28.9-61.3,31.5-61.3,34.6z"/>
						</g>
					</mask>
					
						<radialGradient id="SVGID_36_" cx="254.7697" cy="29.8537" r="6.3506" gradientTransform="matrix(0.9007 0 0 0.9 -296.4968 7.7454)" gradientUnits="userSpaceOnUse">
						<stop  offset="0.5429" style="stop-color:#FFFFFF"/>
						<stop  offset="0.621" style="stop-color:#FCFCFC"/>
						<stop  offset="0.6834" style="stop-color:#F2F2F2"/>
						<stop  offset="0.7404" style="stop-color:#E1E1E1"/>
						<stop  offset="0.7942" style="stop-color:#C9C9C9"/>
						<stop  offset="0.8457" style="stop-color:#ABABAB"/>
						<stop  offset="0.8955" style="stop-color:#858585"/>
						<stop  offset="0.9439" style="stop-color:#585858"/>
						<stop  offset="0.9901" style="stop-color:#262626"/>
						<stop  offset="1" style="stop-color:#1A1A1A"/>
					</radialGradient>
					<path class="st48" d="M-61.3,34.6c0,3.2-2.6,5.7-5.7,5.7c-3.2,0-5.7-2.6-5.7-5.7c0-3.2,2.6-5.7,5.7-5.7
						C-63.9,28.9-61.3,31.5-61.3,34.6z"/>
				</g>
			</g>
		</g>
	</g>
	<circle class="st49" cx="13.6" cy="87.2" r="3.1"/>
	<circle class="st49" cx="69.8" cy="7.8" r="3.1"/>
	<g>
		<path class="st50" d="M40.5,44.8c-0.7-1.1-1.6-2-2.6-2.8c-1-0.8-2.1-1.3-3.3-1.7c-1.2-0.4-2.5-0.6-3.8-0.6c-2.4,0-4.5,0.5-6.3,1.4
			s-3.2,2.2-4.3,3.7c-1.1,1.5-1.9,3.2-2.5,5.2c-0.5,1.9-0.8,3.9-0.8,5.9c0,2,0.3,3.9,0.8,5.9c0.5,1.9,1.4,3.7,2.5,5.2
			c1.1,1.5,2.5,2.7,4.3,3.7c1.7,0.9,3.8,1.4,6.3,1.4c1.7,0,3.3-0.3,4.6-0.9c1.4-0.6,2.6-1.5,3.5-2.5c1-1.1,1.8-2.3,2.4-3.7
			c0.6-1.4,1-3,1.2-4.6h3.5c-0.2,2.3-0.8,4.3-1.6,6.1c-0.8,1.8-1.9,3.4-3.2,4.6c-1.3,1.3-2.8,2.2-4.6,2.9c-1.8,0.7-3.7,1-5.9,1
			c-2.9,0-5.4-0.5-7.6-1.6c-2.2-1-4-2.4-5.4-4.2c-1.4-1.7-2.5-3.8-3.2-6.1c-0.7-2.3-1.1-4.7-1.1-7.2c0-2.5,0.4-4.9,1.1-7.2
			c0.7-2.3,1.8-4.3,3.2-6.1c1.4-1.8,3.2-3.2,5.4-4.2c2.2-1,4.7-1.6,7.6-1.6c1.7,0,3.5,0.3,5.1,0.8c1.7,0.5,3.2,1.3,4.5,2.3
			c1.4,1,2.5,2.3,3.4,3.7c0.9,1.5,1.5,3.2,1.7,5.1h-3.5C41.8,47.1,41.2,45.9,40.5,44.8z"/>
		<path class="st50" d="M51.3,47.6L60,70.2l8.2-22.6h3.2L59.9,78.2c-0.5,1.1-0.9,2.1-1.3,2.8c-0.4,0.7-0.9,1.3-1.4,1.7
			c-0.5,0.4-1.1,0.7-1.7,0.9s-1.5,0.3-2.5,0.3c-0.7,0-1.2-0.1-1.5-0.1c-0.4,0-0.7-0.1-1-0.2v-2.7c0.4,0.1,0.7,0.1,1.1,0.2
			s0.7,0.1,1.1,0.1c0.7,0,1.3-0.1,1.8-0.3c0.5-0.2,0.9-0.5,1.2-0.8c0.3-0.4,0.6-0.8,0.9-1.3c0.2-0.5,0.5-1.1,0.8-1.7l1.1-3
			L47.8,47.6H51.3z"/>
		<path class="st50" d="M77.8,37.5v15.2h0.1c0.3-1,0.8-1.8,1.5-2.5c0.6-0.7,1.4-1.3,2.2-1.8c0.8-0.5,1.7-0.9,2.7-1.1
			c1-0.2,1.9-0.4,2.9-0.4c2,0,3.8,0.4,5.3,1.1c1.5,0.8,2.7,1.8,3.7,3.1c1,1.3,1.7,2.8,2.2,4.5c0.5,1.7,0.7,3.5,0.7,5.4
			c0,1.9-0.2,3.7-0.7,5.4c-0.5,1.7-1.2,3.2-2.2,4.5c-1,1.3-2.2,2.3-3.7,3s-3.2,1.1-5.3,1.1c-2.2,0-4.1-0.5-5.8-1.5
			c-1.7-1-2.9-2.4-3.7-4.3h-0.1v5h-3V37.5H77.8z M95.3,56.8c-0.3-1.4-0.8-2.6-1.5-3.6c-0.7-1.1-1.6-1.9-2.7-2.6s-2.4-1-4-1
			c-1.7,0-3.2,0.3-4.3,1c-1.2,0.7-2.1,1.5-2.9,2.6c-0.7,1.1-1.3,2.3-1.6,3.6c-0.3,1.4-0.5,2.7-0.5,4.1c0,1.4,0.2,2.7,0.5,4.1
			c0.3,1.4,0.9,2.6,1.6,3.6c0.7,1.1,1.7,1.9,2.9,2.6c1.2,0.7,2.6,1,4.3,1c1.5,0,2.9-0.3,4-1s2-1.5,2.7-2.6c0.7-1.1,1.2-2.3,1.5-3.6
			c0.3-1.4,0.5-2.7,0.5-4.1C95.8,59.5,95.6,58.2,95.3,56.8z"/>
		<path class="st50" d="M106.5,65.4c0.3,1.3,0.8,2.4,1.6,3.4c0.7,1,1.6,1.8,2.7,2.5c1.1,0.7,2.4,1,4,1c2.4,0,4.2-0.6,5.5-1.8
			c1.3-1.2,2.3-2.9,2.8-4.9h3.2c-0.7,3-1.9,5.3-3.8,7c-1.8,1.6-4.4,2.5-7.8,2.5c-2.1,0-3.9-0.4-5.4-1.1c-1.5-0.7-2.8-1.7-3.7-3
			s-1.7-2.8-2.1-4.5c-0.5-1.7-0.7-3.5-0.7-5.4c0-1.7,0.2-3.5,0.7-5.1c0.5-1.7,1.2-3.2,2.1-4.5c1-1.3,2.2-2.4,3.7-3.2
			c1.5-0.8,3.3-1.2,5.4-1.2c2.1,0,3.9,0.4,5.4,1.3c1.5,0.9,2.7,2,3.7,3.4c0.9,1.4,1.6,3,2,4.8c0.4,1.8,0.6,3.6,0.5,5.5H106
			C106,62.9,106.1,64.1,106.5,65.4z M122.5,55.5c-0.4-1.1-1-2.1-1.7-3c-0.7-0.9-1.6-1.6-2.6-2.1c-1-0.5-2.2-0.8-3.5-0.8
			c-1.3,0-2.5,0.3-3.5,0.8c-1,0.5-1.9,1.2-2.6,2.1c-0.7,0.9-1.3,1.9-1.7,3c-0.4,1.1-0.7,2.3-0.8,3.5h17.2
			C123.1,57.8,122.9,56.6,122.5,55.5z"/>
		<path class="st50" d="M133.7,47.6v6.2h0.1c0.8-2.2,2.1-3.8,3.8-5c1.7-1.2,3.8-1.7,6.2-1.6v3.2c-1.5-0.1-2.8,0.1-4,0.6
			s-2.2,1.1-3.1,2c-0.9,0.9-1.6,1.9-2,3.1c-0.5,1.2-0.7,2.5-0.7,3.9v14.1h-3.2V47.6H133.7z"/>
	</g>
	<circle class="st51" cx="84.2" cy="96.1" r="3.1"/>
</g>
<rect x="0" y="108.9" class="st3" width="155.9" height="47"/>
<g>
	<g>
		<g>
			<path class="st52" d="M31.2,140.5c0.4,0,0.7,0.1,1,0.3c0.2,0.2,0.3,0.5,0.3,0.9c0,0.3,0,0.5-0.1,0.7c-0.1,0.2-0.2,0.4-0.3,0.6
				c-0.1,0.2-0.3,0.3-0.5,0.4c-0.2,0.1-0.5,0.1-0.8,0.1h-1.2l0.6-3H31.2z M30.7,142.9c0.2,0,0.3,0,0.4-0.1c0.1-0.1,0.2-0.1,0.3-0.3
				c0.1-0.1,0.2-0.2,0.2-0.4c0-0.1,0.1-0.3,0.1-0.4c0-0.1,0-0.2,0-0.3c0-0.1-0.1-0.2-0.1-0.2c-0.1-0.1-0.1-0.1-0.2-0.1
				c-0.1,0-0.2-0.1-0.3-0.1h-0.5l-0.4,1.9H30.7z"/>
			<path class="st52" d="M33.2,142.6C33.2,142.6,33.2,142.6,33.2,142.6L33.2,142.6c0,0.2,0,0.3,0.1,0.4c0.1,0.1,0.2,0.1,0.4,0.1
				c0.1,0,0.1,0,0.2,0c0,0,0.1,0,0.1-0.1c0,0,0.1-0.1,0.1-0.1c0,0,0.1-0.1,0.1-0.1h0.6c0,0.1-0.1,0.2-0.2,0.3
				c-0.1,0.1-0.1,0.2-0.2,0.2c-0.1,0.1-0.2,0.1-0.3,0.1c-0.1,0-0.3,0-0.4,0c-0.1,0-0.3,0-0.4-0.1c-0.1,0-0.2-0.1-0.3-0.2
				c-0.1-0.1-0.1-0.2-0.2-0.3c0-0.1-0.1-0.3-0.1-0.4c0-0.2,0-0.3,0.1-0.5c0.1-0.2,0.1-0.3,0.2-0.4c0.1-0.1,0.2-0.2,0.4-0.3
				c0.1-0.1,0.3-0.1,0.5-0.1c0.2,0,0.3,0,0.4,0.1c0.1,0,0.2,0.1,0.3,0.2c0.1,0.1,0.2,0.2,0.2,0.3c0,0.1,0.1,0.3,0.1,0.4
				c0,0.1,0,0.2,0,0.3L33.2,142.6C33.2,142.6,33.2,142.6,33.2,142.6z M34.2,142c0-0.1,0-0.1-0.1-0.1c0,0-0.1-0.1-0.1-0.1
				c-0.1,0-0.1,0-0.2,0c-0.1,0-0.2,0-0.2,0c-0.1,0-0.1,0.1-0.2,0.1c0,0-0.1,0.1-0.1,0.1c0,0.1-0.1,0.1-0.1,0.2h1
				C34.2,142.1,34.2,142.1,34.2,142z"/>
			<path class="st52" d="M36.5,141.3l-0.1,0.4H36l-0.2,1.1c0,0,0,0,0,0.1c0,0,0,0,0,0c0,0,0,0.1,0,0.1s0,0,0,0c0,0,0,0,0.1,0
				c0,0,0,0,0.1,0c0.1,0,0.1,0,0.2,0l-0.1,0.5c-0.1,0-0.1,0-0.2,0c-0.1,0-0.1,0-0.2,0c-0.1,0-0.1,0-0.2,0c-0.1,0-0.1,0-0.2-0.1
				c-0.1,0-0.1-0.1-0.1-0.1c0-0.1,0-0.1,0-0.2c0,0,0-0.1,0-0.1c0,0,0-0.1,0-0.1l0.2-1.2H35l0.1-0.4h0.4l0.1-0.7h0.6l-0.1,0.7H36.5z"
				/>
			<path class="st52" d="M37,142.6C37,142.6,37,142.6,37,142.6L37,142.6c0,0.2,0,0.3,0.1,0.4c0.1,0.1,0.2,0.1,0.4,0.1
				c0.1,0,0.1,0,0.2,0c0,0,0.1,0,0.1-0.1c0,0,0.1-0.1,0.1-0.1c0,0,0.1-0.1,0.1-0.1h0.6c0,0.1-0.1,0.2-0.2,0.3
				c-0.1,0.1-0.1,0.2-0.2,0.2c-0.1,0.1-0.2,0.1-0.3,0.1c-0.1,0-0.3,0-0.4,0c-0.1,0-0.3,0-0.4-0.1c-0.1,0-0.2-0.1-0.3-0.2
				c-0.1-0.1-0.1-0.2-0.2-0.3c0-0.1-0.1-0.3-0.1-0.4c0-0.2,0-0.3,0.1-0.5c0.1-0.2,0.1-0.3,0.2-0.4c0.1-0.1,0.2-0.2,0.4-0.3
				c0.1-0.1,0.3-0.1,0.5-0.1c0.2,0,0.3,0,0.4,0.1c0.1,0,0.2,0.1,0.3,0.2c0.1,0.1,0.2,0.2,0.2,0.3c0,0.1,0.1,0.3,0.1,0.4
				c0,0.1,0,0.2,0,0.3L37,142.6C37,142.6,37,142.6,37,142.6z M38.1,142c0-0.1,0-0.1-0.1-0.1c0,0-0.1-0.1-0.1-0.1c-0.1,0-0.1,0-0.2,0
				c-0.1,0-0.2,0-0.2,0s-0.1,0.1-0.2,0.1c0,0-0.1,0.1-0.1,0.1c0,0.1-0.1,0.1-0.1,0.2h1C38.1,142.1,38.1,142.1,38.1,142z"/>
			<path class="st52" d="M40.4,141.8c-0.1-0.1-0.2-0.1-0.3-0.1c-0.1,0-0.2,0-0.3,0.1c-0.1,0.1-0.1,0.1-0.2,0.2
				c0,0.1-0.1,0.2-0.1,0.3c0,0.1,0,0.2,0,0.3c0,0.1,0,0.1,0,0.2c0,0.1,0,0.1,0.1,0.1c0,0,0.1,0.1,0.1,0.1c0.1,0,0.1,0,0.2,0
				c0.1,0,0.1,0,0.2,0c0.1,0,0.1-0.1,0.1-0.1c0,0,0.1-0.1,0.1-0.1s0-0.1,0.1-0.2H41c-0.1,0.3-0.2,0.5-0.4,0.6
				c-0.2,0.1-0.4,0.2-0.7,0.2c-0.3,0-0.5-0.1-0.7-0.2c-0.2-0.1-0.3-0.4-0.3-0.7c0-0.2,0-0.4,0.1-0.5c0.1-0.2,0.1-0.3,0.2-0.4
				c0.1-0.1,0.2-0.2,0.4-0.3c0.2-0.1,0.3-0.1,0.5-0.1c0.1,0,0.3,0,0.4,0c0.1,0,0.2,0.1,0.3,0.1c0.1,0.1,0.2,0.1,0.2,0.3
				c0.1,0.1,0.1,0.2,0.1,0.4h-0.6C40.5,141.9,40.4,141.9,40.4,141.8z"/>
			<path class="st52" d="M42.7,141.3l-0.1,0.4h-0.4l-0.2,1.1c0,0,0,0,0,0.1c0,0,0,0,0,0c0,0,0,0.1,0,0.1s0,0,0,0c0,0,0,0,0.1,0
				c0,0,0,0,0.1,0c0.1,0,0.1,0,0.2,0l-0.1,0.5c-0.1,0-0.1,0-0.2,0c-0.1,0-0.1,0-0.2,0c-0.1,0-0.1,0-0.2,0c-0.1,0-0.1,0-0.2-0.1
				c-0.1,0-0.1-0.1-0.1-0.1c0-0.1,0-0.1,0-0.2c0,0,0-0.1,0-0.1c0,0,0-0.1,0-0.1l0.2-1.2h-0.4l0.1-0.4h0.4l0.1-0.7h0.6l-0.1,0.7H42.7
				z"/>
			<path class="st52" d="M44.1,141.6c0.1-0.1,0.1-0.2,0.2-0.2c0.1-0.1,0.2-0.1,0.3-0.1c0.1,0,0.2,0,0.4,0c0.1,0,0.2,0,0.3,0
				c0.1,0,0.2,0,0.3,0.1c0.1,0,0.2,0.1,0.2,0.2c0.1,0.1,0.1,0.2,0.1,0.3c0,0.1,0,0.2,0,0.4l-0.2,0.9c0,0,0,0.1,0,0.1
				c0,0.1,0,0.1,0,0.1c0,0,0,0.1,0,0.1h-0.6v-0.2c-0.1,0.1-0.2,0.2-0.3,0.2c-0.1,0-0.2,0.1-0.4,0.1c-0.1,0-0.2,0-0.3,0
				c-0.1,0-0.2-0.1-0.2-0.1c-0.1-0.1-0.1-0.1-0.1-0.2c0-0.1,0-0.1,0-0.2c0-0.2,0.1-0.4,0.2-0.5c0.1-0.1,0.3-0.2,0.6-0.2
				c0.1,0,0.3,0,0.4,0c0.1,0,0.2,0,0.3,0c0.1,0,0.1,0,0.2-0.1c0,0,0.1-0.1,0.1-0.2c0-0.1,0-0.1,0-0.1c0,0-0.1-0.1-0.1-0.1
				c0,0-0.1,0-0.1,0c0,0-0.1,0-0.1,0c-0.1,0-0.2,0-0.3,0.1c-0.1,0.1-0.1,0.1-0.2,0.2H44C44,141.8,44,141.7,44.1,141.6z M45,142.5
				c-0.1,0-0.2,0-0.3,0c-0.1,0-0.1,0-0.2,0c-0.1,0-0.1,0-0.1,0.1c0,0-0.1,0.1-0.1,0.1c0,0,0,0.1,0,0.2c0,0.1,0,0.1,0.1,0.2
				c0.1,0,0.1,0.1,0.2,0.1c0.1,0,0.2,0,0.2,0c0.1,0,0.1-0.1,0.2-0.1c0,0,0.1-0.1,0.1-0.2c0-0.1,0-0.1,0.1-0.2l0.1-0.2
				C45.2,142.5,45.1,142.5,45,142.5z"/>
			<path class="st52" d="M47.1,141.3l-0.1,0.3h0c0.2-0.2,0.4-0.4,0.8-0.4c0.4,0,0.6,0.2,0.6,0.6c0,0,0,0.1,0,0.1c0,0,0,0.1,0,0.1
				c0,0,0,0.1,0,0.1c0,0,0,0.1,0,0.1l-0.3,1.3h-0.6l0.3-1.3c0,0,0-0.1,0-0.1c0-0.1,0-0.1,0-0.1c0-0.1,0-0.1-0.1-0.2
				c-0.1,0-0.1-0.1-0.2-0.1c-0.1,0-0.2,0-0.2,0.1c-0.1,0-0.1,0.1-0.2,0.1c0,0.1-0.1,0.1-0.1,0.2c0,0.1-0.1,0.1-0.1,0.2l-0.2,1.2
				h-0.6l0.4-2.2H47.1z"/>
			<path class="st52" d="M50.1,143.2c-0.1,0.1-0.2,0.2-0.3,0.3c-0.1,0.1-0.2,0.1-0.4,0.1c-0.3,0-0.5-0.1-0.6-0.2
				c-0.1-0.2-0.2-0.4-0.2-0.6c0-0.2,0-0.4,0.1-0.5c0-0.2,0.1-0.3,0.2-0.5c0.1-0.1,0.2-0.2,0.4-0.3c0.1-0.1,0.3-0.1,0.5-0.1
				c0.1,0,0.2,0,0.4,0.1c0.1,0.1,0.2,0.1,0.2,0.3h0l0.2-1.1h0.6l-0.6,3h-0.6L50.1,143.2L50.1,143.2z M49.6,141.8
				c-0.1,0.1-0.2,0.1-0.2,0.2c-0.1,0.1-0.1,0.2-0.1,0.3c0,0.1,0,0.2,0,0.3c0,0.1,0,0.1,0,0.2c0,0.1,0,0.1,0.1,0.2
				c0,0,0.1,0.1,0.1,0.1c0.1,0,0.1,0,0.2,0c0.1,0,0.2,0,0.3-0.1c0.1-0.1,0.1-0.1,0.2-0.2c0.1-0.1,0.1-0.2,0.1-0.3c0-0.1,0-0.2,0-0.3
				c0-0.1,0-0.3-0.1-0.3c-0.1-0.1-0.2-0.1-0.3-0.1C49.8,141.7,49.7,141.7,49.6,141.8z"/>
			<path class="st52" d="M54,140.5c0.2,0,0.3,0,0.4,0s0.2,0.1,0.3,0.1c0.1,0.1,0.2,0.2,0.2,0.3c0.1,0.1,0.1,0.3,0.1,0.4
				c0,0.2,0,0.3-0.1,0.4c-0.1,0.1-0.1,0.2-0.3,0.3c-0.1,0.1-0.2,0.2-0.4,0.2c-0.1,0-0.3,0.1-0.4,0.1h-0.8l-0.2,1.1h-0.7l0.6-3H54z
				 M53.9,141.9c0.2,0,0.3,0,0.4-0.1c0.1-0.1,0.1-0.2,0.1-0.4c0-0.1,0-0.1,0-0.2c0,0-0.1-0.1-0.1-0.1c0,0-0.1,0-0.1-0.1
				c-0.1,0-0.1,0-0.2,0h-0.6l-0.2,0.9H53.9z"/>
			<path class="st52" d="M56,141.3l-0.1,0.4l0,0c0.1-0.2,0.2-0.3,0.3-0.3c0.1-0.1,0.3-0.1,0.4-0.1c0.1,0,0.1,0,0.2,0l-0.1,0.6
				c0,0-0.1,0-0.1,0c0,0-0.1,0-0.1,0c-0.1,0-0.2,0-0.3,0.1c-0.1,0-0.1,0.1-0.2,0.2c-0.1,0.1-0.1,0.1-0.1,0.2s-0.1,0.2-0.1,0.3
				l-0.2,1h-0.6l0.4-2.2H56z"/>
			<path class="st52" d="M56.8,142.1c0.1-0.2,0.1-0.3,0.2-0.4c0.1-0.1,0.2-0.2,0.4-0.3c0.2-0.1,0.3-0.1,0.5-0.1c0.1,0,0.3,0,0.4,0.1
				c0.1,0,0.2,0.1,0.3,0.2c0.1,0.1,0.2,0.2,0.2,0.3c0,0.1,0.1,0.2,0.1,0.4c0,0.2,0,0.4-0.1,0.5c-0.1,0.2-0.1,0.3-0.2,0.4
				c-0.1,0.1-0.2,0.2-0.4,0.3c-0.2,0.1-0.3,0.1-0.5,0.1c-0.3,0-0.5-0.1-0.7-0.2c-0.2-0.2-0.3-0.4-0.3-0.7
				C56.7,142.4,56.7,142.3,56.8,142.1z M57.3,142.8c0,0.1,0,0.1,0.1,0.2c0,0,0.1,0.1,0.1,0.1c0.1,0,0.1,0,0.2,0c0.1,0,0.2,0,0.3-0.1
				s0.1-0.1,0.2-0.2c0.1-0.1,0.1-0.2,0.1-0.3c0-0.1,0-0.2,0-0.3c0-0.1,0-0.3-0.1-0.3c-0.1-0.1-0.2-0.1-0.3-0.1c-0.1,0-0.2,0-0.3,0.1
				s-0.1,0.1-0.2,0.2c-0.1,0.1-0.1,0.2-0.1,0.3c0,0.1,0,0.2,0,0.3C57.3,142.7,57.3,142.7,57.3,142.8z"/>
			<path class="st52" d="M60.7,141.3l-0.1,0.4h-0.4l-0.2,1.1c0,0,0,0,0,0.1c0,0,0,0,0,0c0,0,0,0.1,0,0.1s0,0,0,0c0,0,0,0,0.1,0
				c0,0,0,0,0.1,0c0.1,0,0.1,0,0.2,0l-0.1,0.5c-0.1,0-0.1,0-0.2,0c-0.1,0-0.1,0-0.2,0c-0.1,0-0.1,0-0.2,0c-0.1,0-0.1,0-0.2-0.1
				c-0.1,0-0.1-0.1-0.1-0.1c0-0.1,0-0.1,0-0.2c0,0,0-0.1,0-0.1c0,0,0-0.1,0-0.1l0.2-1.2h-0.4l0.1-0.4h0.4l0.1-0.7h0.6l-0.1,0.7H60.7
				z"/>
			<path class="st52" d="M61.2,142.6C61.2,142.6,61.2,142.6,61.2,142.6L61.2,142.6c0,0.2,0,0.3,0.1,0.4c0.1,0.1,0.2,0.1,0.4,0.1
				c0.1,0,0.1,0,0.2,0c0,0,0.1,0,0.1-0.1c0,0,0.1-0.1,0.1-0.1c0,0,0.1-0.1,0.1-0.1h0.6c0,0.1-0.1,0.2-0.2,0.3
				c-0.1,0.1-0.1,0.2-0.2,0.2c-0.1,0.1-0.2,0.1-0.3,0.1c-0.1,0-0.3,0-0.4,0c-0.1,0-0.3,0-0.4-0.1c-0.1,0-0.2-0.1-0.3-0.2
				c-0.1-0.1-0.1-0.2-0.2-0.3c0-0.1-0.1-0.3-0.1-0.4c0-0.2,0-0.3,0.1-0.5c0.1-0.2,0.1-0.3,0.2-0.4c0.1-0.1,0.2-0.2,0.4-0.3
				c0.1-0.1,0.3-0.1,0.5-0.1c0.2,0,0.3,0,0.4,0.1c0.1,0,0.2,0.1,0.3,0.2c0.1,0.1,0.2,0.2,0.2,0.3c0,0.1,0.1,0.3,0.1,0.4
				c0,0.1,0,0.2,0,0.3L61.2,142.6C61.2,142.6,61.2,142.6,61.2,142.6z M62.2,142c0-0.1,0-0.1-0.1-0.1c0,0-0.1-0.1-0.1-0.1
				c-0.1,0-0.1,0-0.2,0c-0.1,0-0.2,0-0.2,0c-0.1,0-0.1,0.1-0.2,0.1c0,0-0.1,0.1-0.1,0.1c0,0.1-0.1,0.1-0.1,0.2h1
				C62.2,142.1,62.2,142.1,62.2,142z"/>
			<path class="st52" d="M64.5,141.8c-0.1-0.1-0.2-0.1-0.3-0.1c-0.1,0-0.2,0-0.3,0.1c-0.1,0.1-0.1,0.1-0.2,0.2
				c0,0.1-0.1,0.2-0.1,0.3c0,0.1,0,0.2,0,0.3c0,0.1,0,0.1,0,0.2c0,0.1,0,0.1,0.1,0.1c0,0,0.1,0.1,0.1,0.1c0.1,0,0.1,0,0.2,0
				c0.1,0,0.1,0,0.2,0c0.1,0,0.1-0.1,0.1-0.1c0,0,0.1-0.1,0.1-0.1c0,0,0-0.1,0.1-0.2h0.6c-0.1,0.3-0.2,0.5-0.4,0.6
				c-0.2,0.1-0.4,0.2-0.7,0.2c-0.3,0-0.5-0.1-0.7-0.2c-0.2-0.1-0.3-0.4-0.3-0.7c0-0.2,0-0.4,0.1-0.5c0.1-0.2,0.1-0.3,0.2-0.4
				c0.1-0.1,0.2-0.2,0.4-0.3c0.2-0.1,0.3-0.1,0.5-0.1c0.1,0,0.3,0,0.4,0c0.1,0,0.2,0.1,0.3,0.1c0.1,0.1,0.2,0.1,0.2,0.3
				c0.1,0.1,0.1,0.2,0.1,0.4h-0.6C64.6,141.9,64.6,141.9,64.5,141.8z"/>
			<path class="st52" d="M66.9,141.3l-0.1,0.4h-0.4l-0.2,1.1c0,0,0,0,0,0.1c0,0,0,0,0,0c0,0,0,0.1,0,0.1c0,0,0,0,0,0c0,0,0,0,0.1,0
				c0,0,0,0,0.1,0c0.1,0,0.1,0,0.2,0l-0.1,0.5c-0.1,0-0.1,0-0.2,0s-0.1,0-0.2,0c-0.1,0-0.1,0-0.2,0c-0.1,0-0.1,0-0.2-0.1
				c-0.1,0-0.1-0.1-0.1-0.1c0-0.1,0-0.1,0-0.2c0,0,0-0.1,0-0.1c0,0,0-0.1,0-0.1l0.2-1.2h-0.4l0.1-0.4h0.4l0.1-0.7h0.6l-0.1,0.7H66.9
				z"/>
			<path class="st53" d="M68.3,142.3l-0.3,1.2h-1.3l0.3-1.2H68.3z"/>
		</g>
		<g>
			<defs>
				<path id="SVGID_3_" d="M106.5,120.6c0.4,0,0.7-0.1,1.1-0.1c3.9,0,7.3,1.9,9.4,4.8h-2.2C112.9,122.7,109.9,120.9,106.5,120.6z
					 M114.8,138.7c-1.9,2.6-4.9,4.5-8.3,4.8c0.4,0,0.7,0.1,1.1,0.1c3.9,0,7.3-1.9,9.4-4.8H114.8z M117.9,128.6v8.6
					c0.8-1.5,1.2-3.3,1.2-5.1c0-1.2-0.2-2.3-0.5-3.4H117.9z M113.4,143.4c0.4,0,0.7,0.1,1.1,0.1c6.4,0,11.5-5.1,11.5-11.5
					c0-6.3-5.1-11.5-11.5-11.5c-0.4,0-0.7,0-1.1,0.1c5.8,0.6,10.4,5.5,10.4,11.4C123.8,138,119.2,142.9,113.4,143.4z M99.7,120.6
					c0.4,0,0.7-0.1,1.1-0.1c3.9,0,7.3,1.9,9.4,4.8H108C106.1,122.7,103.1,120.9,99.7,120.6z M108,138.7c-1.9,2.6-4.9,4.5-8.3,4.8
					c0.4,0,0.7,0.1,1.1,0.1c3.9,0,7.3-1.9,9.4-4.8H108z"/>
			</defs>
			<clipPath id="SVGID_37_">
				<use xlink:href="#SVGID_3_"  style="overflow:visible;"/>
			</clipPath>
			<path class="st54" d="M99.7,143.4c0.4,0,0.7,0.1,1.1,0.1c6.3,0,11.5-5.1,11.5-11.5c0-6.3-5.1-11.5-11.5-11.5
				c-0.4,0-0.7,0-1.1,0.1c5.8,0.6,10.4,5.5,10.4,11.4C110.1,138,105.5,142.9,99.7,143.4z"/>
			<path class="st55" d="M106.5,143.4c0.4,0,0.7,0.1,1.1,0.1c6.3,0,11.5-5.1,11.5-11.5c0-6.3-5.1-11.5-11.5-11.5
				c-0.4,0-0.7,0-1.1,0.1c5.8,0.6,10.4,5.5,10.4,11.4C116.9,138,112.4,142.9,106.5,143.4z"/>
			<path class="st56" d="M113.4,143.4c0.4,0,0.7,0.1,1.1,0.1c6.4,0,11.5-5.1,11.5-11.5c0-6.3-5.1-11.5-11.5-11.5
				c-0.4,0-0.7,0-1.1,0.1c5.8,0.6,10.4,5.5,10.4,11.4C123.8,138,119.2,142.9,113.4,143.4z"/>
		</g>
		<g>
			<path class="st52" d="M32.4,125.8v4.7h5v-4.7h2.7v12.4h-2.7v-5.3h-5v5.3h-2.7v-12.4H32.4z"/>
			<path class="st52" d="M51.4,125.8v2.3h-6.5v2.6h6v2.1h-6v3h6.7v2.3h-9.4v-12.4H51.4z"/>
			<path class="st52" d="M55.8,125.8l5.2,8.3h0v-8.3h2.5v12.4h-2.7l-5.1-8.3h0v8.3h-2.5v-12.4H55.8z"/>
			<path class="st52" d="M67.8,135.1c0.1,0.3,0.3,0.5,0.6,0.7c0.2,0.2,0.5,0.3,0.9,0.4c0.3,0.1,0.7,0.1,1,0.1c0.2,0,0.5,0,0.8-0.1
				c0.3,0,0.5-0.1,0.8-0.2c0.2-0.1,0.4-0.3,0.6-0.5c0.2-0.2,0.2-0.5,0.2-0.8c0-0.3-0.1-0.6-0.3-0.8c-0.2-0.2-0.5-0.4-0.8-0.5
				c-0.3-0.1-0.7-0.3-1.2-0.4c-0.4-0.1-0.9-0.2-1.3-0.3c-0.5-0.1-0.9-0.3-1.4-0.4c-0.4-0.2-0.8-0.4-1.2-0.6c-0.3-0.3-0.6-0.6-0.8-1
				c-0.2-0.4-0.3-0.9-0.3-1.4c0-0.6,0.1-1.2,0.4-1.7c0.3-0.5,0.6-0.9,1.1-1.2c0.4-0.3,0.9-0.5,1.5-0.7c0.6-0.1,1.1-0.2,1.7-0.2
				c0.6,0,1.3,0.1,1.9,0.2c0.6,0.1,1.1,0.4,1.6,0.7c0.5,0.3,0.8,0.7,1.1,1.2c0.3,0.5,0.4,1.1,0.4,1.8h-2.6c0-0.4-0.1-0.7-0.2-0.9
				c-0.1-0.2-0.3-0.4-0.5-0.6c-0.2-0.1-0.5-0.2-0.8-0.3c-0.3-0.1-0.6-0.1-0.9-0.1c-0.2,0-0.4,0-0.7,0.1c-0.2,0-0.4,0.1-0.6,0.2
				c-0.2,0.1-0.3,0.3-0.4,0.4c-0.1,0.2-0.2,0.4-0.2,0.7c0,0.2,0,0.4,0.1,0.6c0.1,0.1,0.3,0.3,0.5,0.4c0.3,0.1,0.6,0.3,1.1,0.4
				c0.5,0.1,1.1,0.3,1.9,0.5c0.2,0,0.6,0.1,1,0.3c0.4,0.1,0.8,0.3,1.2,0.6c0.4,0.3,0.8,0.6,1,1.1c0.3,0.4,0.4,1,0.4,1.7
				c0,0.6-0.1,1.1-0.3,1.6c-0.2,0.5-0.5,0.9-1,1.3c-0.4,0.4-1,0.6-1.6,0.8c-0.6,0.2-1.4,0.3-2.2,0.3c-0.7,0-1.3-0.1-2-0.3
				c-0.6-0.2-1.2-0.4-1.7-0.8c-0.5-0.4-0.9-0.8-1.2-1.4c-0.3-0.6-0.4-1.2-0.4-2h2.6C67.6,134.5,67.6,134.8,67.8,135.1z"/>
			<path class="st52" d="M76.6,129.5c0.3-0.8,0.7-1.5,1.2-2.1c0.5-0.6,1.2-1.1,1.9-1.4s1.6-0.5,2.6-0.5c1,0,1.8,0.2,2.6,0.5
				c0.8,0.3,1.4,0.8,1.9,1.4c0.5,0.6,0.9,1.3,1.2,2.1c0.3,0.8,0.4,1.6,0.4,2.6c0,0.9-0.1,1.7-0.4,2.5c-0.3,0.8-0.7,1.5-1.2,2
				c-0.5,0.6-1.2,1-1.9,1.4c-0.8,0.3-1.6,0.5-2.6,0.5c-0.9,0-1.8-0.2-2.6-0.5c-0.8-0.3-1.4-0.8-1.9-1.4c-0.5-0.6-0.9-1.3-1.2-2
				c-0.3-0.8-0.4-1.6-0.4-2.5C76.2,131.1,76.3,130.3,76.6,129.5z M79.1,133.6c0.1,0.5,0.3,0.9,0.6,1.3c0.3,0.4,0.6,0.7,1,0.9
				c0.4,0.2,0.9,0.4,1.6,0.4c0.6,0,1.1-0.1,1.6-0.4c0.4-0.2,0.8-0.6,1-0.9c0.3-0.4,0.5-0.8,0.6-1.3c0.1-0.5,0.2-1,0.2-1.5
				c0-0.5-0.1-1.1-0.2-1.6c-0.1-0.5-0.3-1-0.6-1.4c-0.3-0.4-0.6-0.7-1-1c-0.4-0.2-0.9-0.4-1.6-0.4c-0.6,0-1.1,0.1-1.6,0.4
				c-0.4,0.2-0.8,0.6-1,1c-0.3,0.4-0.5,0.9-0.6,1.4c-0.1,0.5-0.2,1-0.2,1.6C78.9,132.6,79,133.1,79.1,133.6z"/>
			<path class="st52" d="M92.6,125.8v10.1h6v2.3h-8.7v-12.4H92.6z"/>
			<path class="st52" d="M105,125.8c0.8,0,1.5,0.1,2.2,0.4c0.7,0.3,1.3,0.6,1.8,1.1c0.5,0.5,0.9,1.1,1.2,1.9
				c0.3,0.8,0.4,1.7,0.4,2.7c0,0.9-0.1,1.7-0.3,2.5c-0.2,0.8-0.6,1.4-1,2c-0.5,0.6-1.1,1-1.7,1.3c-0.7,0.3-1.5,0.5-2.5,0.5h-5.3
				v-12.4H105z M104.8,135.9c0.4,0,0.8-0.1,1.1-0.2c0.4-0.1,0.7-0.3,1-0.6c0.3-0.3,0.5-0.7,0.7-1.2c0.2-0.5,0.3-1.1,0.3-1.7
				c0-0.6-0.1-1.2-0.2-1.7c-0.1-0.5-0.3-0.9-0.6-1.3c-0.3-0.4-0.6-0.6-1.1-0.8c-0.5-0.2-1-0.3-1.7-0.3h-1.9v7.8H104.8z"/>
			<path class="st52" d="M111,128.1v-2.3h10.1v2.3h-3.7v10.1h-2.7v-10.1H111z"/>
		</g>
	</g>
</g>
</svg>
