<?xml version="1.0" encoding="utf-8"?>
<!-- Generator: Adobe Illustrator 24.1.0, SVG Export Plug-In . SVG Version: 6.00 Build 0)  -->
<svg version="1.1" id="Layer_1" xmlns="http://www.w3.org/2000/svg" xmlns:xlink="http://www.w3.org/1999/xlink" x="0px" y="0px"
	 viewBox="0 0 548.7 138.8" style="enable-background:new 0 0 548.7 138.8;" xml:space="preserve">
<style type="text/css">
	.st0{fill:#183552;}
	.st1{fill:#5AB7CF;}
</style>
<path class="st0" d="M41.2,16.8H17.3C7.8,16.8,0,24.4,0,33.6V118h15.2V94.6c0-1.2,1-2.1,2.1-2.1h23.8c15.6,0,28.2-12.2,28.2-27.3
	V44.1C69.4,29.1,56.7,16.8,41.2,16.8z M54.2,65.1c0,7-5.8,12.6-13,12.6H17.3c-1.2,0-2.1-1-2.1-2.1v-42c0-1.2,1-2.1,2.1-2.1h23.8
	c7.2,0,13,5.6,13,12.6L54.2,65.1L54.2,65.1z"/>
<g id="LINE_22_">
	<path class="st0" d="M169,31.8h23.8c7.2,0,13,5.6,13,12.6v48.3H221V44.3c0-15.1-12.6-27.3-28.2-27.3H169c-9.6,0-17.3,7.5-17.3,16.8
		v58.8h15.2V33.8C166.9,32.7,167.9,31.8,169,31.8z"/>
</g>
<path class="st0" d="M95.4,62.2H130c8.4,0,15.2-6.6,15.2-14.7v-3.1c0-15.1-12.6-27.3-28.2-27.3h-13c-15.6,0-28.2,12.2-28.2,27.3
	v25.2c0,12.7,10.7,23.1,23.8,23.1h40.8V77.9H99.7c-4.8,0-8.7-3.8-8.7-8.4v-3.1C91,64.1,92.9,62.2,95.4,62.2z M91,44.3
	c0-7,5.8-12.6,13-12.6h13c7.2,0,13,5.6,13,12.6v1.1c0,1.2-1,2.1-2.1,2.1H93.2c-1.2,0-2.1-1-2.1-2.1L91,44.3L91,44.3z"/>
<g id="ARC_6_">
	<path class="st0" d="M377.2,31.8c-1.2,0-2.1,1-2.1,2.1v58.8h-15.2V33.8c0-9.3,7.8-16.8,17.3-16.8H401c15.6,0,28.2,12.2,28.2,27.3
		v48.3H414V44.3c0-7-5.8-12.6-13-12.6L377.2,31.8z"/>
</g>
<path class="st0" d="M303.6,62.2h34.7c8.4,0,15.2-6.6,15.2-14.7v-3.1c0-15.1-12.6-27.3-28.2-27.3h-13c-15.6,0-28.2,12.2-28.2,27.3
	v25.2c0,12.7,10.7,23.1,23.8,23.1h41V77.9h-41c-4.8,0-8.7-3.8-8.7-8.4v-3.1C299.2,64.1,301.1,62.2,303.6,62.2z M299.2,44.3
	c0-7,5.8-12.6,13-12.6h13c7.2,0,13,5.6,13,12.6v1.1c0,1.2-1,2.1-2.1,2.1h-34.7c-1.2,0-2.1-1-2.1-2.1L299.2,44.3L299.2,44.3z"/>
<g id="LINE_21_">
	<path class="st0" d="M280.7,31.6h-23.9c-1.2,0-2.1,1-2.1,2.1v35.8c0,4.7,3.9,8.4,8.7,8.4h15.1v14.7h-15.1
		c-13.2,0-23.9-10.4-23.9-23.1V33.7c0-1.2-1-2.1-2.1-2.1h-13.2V16.9h13c1.2,0,2.1-1,2.1-2.1V0h15.2v14.8c0,1.2,1,2.1,2.1,2.1h23.9
		v14.8H280.7z"/>
</g>
<path class="st1" d="M539.9,17.7c-1-0.3-2.8-0.6-3.9-0.6H454c-8.1,0-14.7,6.6-14.7,14.7v53.8c-0.2,3.5,2,8,4.9,10l53.2,40.7
	c5.5,4.2,13.4,3.2,17.7-2.4c0.7-0.9,1.7-2.7,2-3.8l31-96.6C550.2,26.9,546.6,19.8,539.9,17.7z M510.3,37.3l-16.1,50
	c-0.1,0.4-0.4,1-0.7,1.3c-1.4,1.9-4,2.2-5.9,0.8l-33-25.2c-0.5-0.3-0.8-1.1-0.8-1.7V33.8c0-1.2,1-2.1,2.1-2.1h50.3
	c0.3,0,1,0.1,1.3,0.2C509.8,32.7,511.1,35,510.3,37.3z"/>
</svg>
