<?xml version="1.0" encoding="utf-8"?>
<!-- Generator: Adobe Illustrator 25.2.1, SVG Export Plug-In . SVG Version: 6.00 Build 0)  -->
<!DOCTYPE svg PUBLIC "-//W3C//DTD SVG 1.1//EN" "http://www.w3.org/Graphics/SVG/1.1/DTD/svg11.dtd" [
	<!ENTITY st0 "fill:#3F37AC;stroke:#3F37AC;stroke-width:2.5;stroke-miterlimit:10;">
	<!ENTITY st1 "fill:#3F37AC;stroke:#3F37AC;stroke-width:3;stroke-miterlimit:10;">
	<!ENTITY st2 "fill:#3F37AC;stroke:#3F37AC;stroke-miterlimit:10;">
]>
<svg version="1.1"
	 id="svg26" inkscape:version="0.92.5 (2060ec1f9f, 2020-04-08)" sodipodi:docname="proofcraft.svg" xmlns:cc="http://creativecommons.org/ns#" xmlns:dc="http://purl.org/dc/elements/1.1/" xmlns:inkscape="http://www.inkscape.org/namespaces/inkscape" xmlns:rdf="http://www.w3.org/1999/02/22-rdf-syntax-ns#" xmlns:sodipodi="http://sodipodi.sourceforge.net/DTD/sodipodi-0.dtd" xmlns:svg="http://www.w3.org/2000/svg"
	 xmlns="http://www.w3.org/2000/svg" xmlns:xlink="http://www.w3.org/1999/xlink" x="0px" y="0px" viewBox="0 0 483.1 163.5"
	 style="enable-background:new 0 0 483.1 163.5;" xml:space="preserve">
<sodipodi:namedview  bordercolor="#666666" borderopacity="1" fit-margin-bottom="0" fit-margin-left="0" fit-margin-right="0" fit-margin-top="0" gridtolerance="10" guidetolerance="10" id="namedview28" inkscape:current-layer="svg26" inkscape:cx="139.31771" inkscape:cy="99.398328" inkscape:pageopacity="0" inkscape:pageshadow="2" inkscape:window-height="480" inkscape:window-width="640" inkscape:zoom="1.6140419" objecttolerance="10" pagecolor="#ffffff" showgrid="false">
	</sodipodi:namedview>
<path id="path2" inkscape:connector-curvature="0" style="&st0;" d="M69.3,140c3.7-0.2,7.2-0.4,10.7-0.7c0.9-0.1,1.8-0.1,2.6,0.2
	c0.7,0.3,1.6,1.3,1.6,1.9c-0.3,0.8-1,1.5-1.9,1.7c-1.7,0.1-3.4,0.1-5.2,0c-2.2,0.1-4.4,0.3-7,0.4c0.2,1.1,1.1,4.6,1.2,5.5
	c0.4,1.3-0.3,2.7-1.6,3.1h-0.1c-1.7,0.2-2.9-0.4-3.7-2.4c-0.4-1-0.6-1.9-0.8-3c-0.2-1-0.3-1.9-0.5-3c-2.5,0.3-4.9,0.5-7.3,0.8
	c-15,1.9-29.9,4.7-44.6,8.3c-0.3,1.5-0.8,3-1.4,4.4c-0.9,1.5-1.6,1.9-2.3,1.8c-0.6-0.1-0.9-0.6-1-1.8c-0.1-1.6,0.1-2.3,0.1-3.3
	c-1.4,0.6-2.9,0.9-4.4,1.1c-1.4,0.1-2.7-0.6-2.7-1.4c0-1,1.3-1.9,2.5-2.4s3.1-0.8,4.9-1.3c0.6-1.6,11.5-39.3,20.7-56.1
	c16.7-29,37-55.8,60.8-79.3c1.9-1.9,3-4.7,4.5-7.1c0.2-0.5,0.5-1,0.8-1.5c0.6-0.7,1.3-1.6,2-1.7c0.6-0.1,1.3,0.8,2.3,1.5
	c1.2-1,2.4-1.9,3.9-3.2c0.5-0.5,1.1-0.8,1.7-1.1c0.7-0.2,1.3-0.2,2-0.2c-0.1,0.7-0.4,1.4-0.9,2c-1.4,1.4-2.6,2.7-4.1,4.1
	c-1.5,1.2-2.9,2.5-4.3,3.8c-1.9,2-4,4.1-5.3,6.5c-13,23.7-20.9,49.8-23.3,76.7c-1.4,13.8-1.6,27.7-0.5,41.5
	C68.9,137,69.1,138.2,69.3,140L69.3,140z M86.2,23.1l-0.4-0.2c-0.4,0.4-0.8,0.8-1.2,1.2C65.6,44.2,49,66.5,35.2,90.4
	c-9.3,16.3-16.4,33.8-21.1,52c-0.4,1.9-0.9,4.4-1.2,6.5c1.9-0.4,34.8-7.3,50.2-8.7c1.3-0.1,1.5-0.7,1.5-1.8c-0.2-6-0.5-12-0.5-18
	c0-31.6,6.6-62.8,19.4-91.7C84.4,26.8,85.3,25,86.2,23.1L86.2,23.1z"/>
<path id="path4" inkscape:connector-curvature="0" style="&st1;" d="M432,156.1h45.8v-46.3c-2.9,0.3-5.6,0.6-8.3,0.9
	c-4.2,0.5-8.5,1.2-12.7,1.6c-1.3,0-2.5-0.5-3.3-1.5c-0.4-1-0.4-2.2,0.3-3.1c0.8-0.8,2.4-1.6,3.4-1.3c7,2.2,11.8,0.3,18.8-0.2
	c1.4-0.3,2.9-0.2,4.3,0.3c1.1,0.6,1.7,1.6,1.4,4.1c-0.5,4.1-0.8,8.3-0.8,12.5c-0.1,11.4,0.1,22.8,0.3,34.2c0,2.1-0.9,2.3-2.6,2.2
	c-13.9-1.3-27.9-0.9-41.7,1.3c-1.2,0.2-3.2,0.9-4.5,1.1c-0.9,0.2-1.9,0.1-2.7-0.2c-1.6-0.6-1.8-1.6-1.6-3.1c0.2-1.4,0.3-2.8,0.3-4.2
	c-0.2-5.9-0.9-11.9-1.3-17.9c0-1.3,0.5-2.6,1.3-3.7c0.8-0.5,1.8-0.5,2.6,0c0.8,1.1,1.2,2.3,1.3,3.7c0,6.2-0.1,12.5-0.2,18.7
	C431.8,155.5,431.9,155.8,432,156.1L432,156.1z"/>
<path id="path6" inkscape:connector-curvature="0" style="&st2;" d="M137.3,124.1c-1,0.1-1.9-0.3-2.7-0.9c-0.7-0.7-1-1.7-0.9-2.7
	V88.3c-0.1-2,1.3-3.7,3.3-3.9s3.7,1.3,3.9,3.3c0,0.2,0,0.4,0,0.5v32.2c0.1,1-0.3,1.9-0.9,2.7C139.3,123.9,138.3,124.2,137.3,124.1
	L137.3,124.1z M137.3,99.5c0-2.7,0.7-5.4,2.1-7.7c1.4-2.3,3.4-4.1,5.7-5.4c2.4-1.3,5.2-2,7.9-2c2.9,0,5,0.5,6.4,1.4s2,2,1.6,3.3
	c-0.1,0.6-0.4,1.1-0.8,1.6c-0.4,0.4-0.9,0.6-1.4,0.7c-0.6,0.1-1.2,0.1-1.7-0.1c-2.7-0.6-5.5-0.7-8.3-0.2c-2.2,0.4-4.2,1.4-5.8,3
	c-1.4,1.5-2.2,3.4-2.1,5.5L137.3,99.5z"/>
<path id="path8" inkscape:connector-curvature="0" style="&st2;" d="M183.7,124.4c-3.6,0.1-7.2-0.8-10.3-2.6c-2.9-1.7-5.4-4.1-7-7.1
	c-3.4-6.5-3.4-14.3,0-20.7c1.6-2.9,4.1-5.4,7-7.1c6.4-3.4,14.1-3.4,20.5,0c2.9,1.7,5.4,4.1,7,7.1c3.4,6.5,3.4,14.2,0,20.8
	c-1.6,3-4.1,5.4-7,7.1C190.8,123.6,187.3,124.5,183.7,124.4z M183.7,118c2.3,0,4.6-0.6,6.6-1.7c1.9-1.1,3.5-2.8,4.5-4.8
	c1.1-2.2,1.7-4.6,1.6-7c0-2.4-0.5-4.8-1.6-7c-1-2-2.6-3.6-4.5-4.8c-4.1-2.3-9.1-2.3-13.2,0c-1.9,1.1-3.5,2.8-4.5,4.8
	c-1.1,2.2-1.7,4.6-1.7,7c-0.1,2.4,0.5,4.8,1.7,7c1.1,2,2.6,3.6,4.5,4.8C179.1,117.4,181.4,118,183.7,118z"/>
<path id="path10" inkscape:connector-curvature="0" style="&st2;" d="M227.5,124.4c-3.6,0.1-7.2-0.8-10.3-2.6
	c-2.9-1.7-5.3-4.1-7-7.1c-3.4-6.5-3.4-14.3,0-20.7c1.7-2.9,4.1-5.4,7-7.1c6.4-3.4,14.1-3.4,20.5,0c2.9,1.7,5.3,4.1,7,7.1
	c3.4,6.5,3.4,14.2,0,20.8c-1.6,3-4.1,5.4-7,7.1C234.6,123.6,231,124.5,227.5,124.4z M227.5,118c2.3,0,4.6-0.6,6.6-1.7
	c1.9-1.1,3.5-2.8,4.5-4.8c1.1-2.2,1.7-4.6,1.6-7c0-2.4-0.5-4.8-1.6-7c-1-2-2.6-3.6-4.5-4.8c-4.1-2.3-9.1-2.3-13.2,0
	c-1.9,1.2-3.5,2.8-4.5,4.8c-1.1,2.2-1.7,4.6-1.6,7c-0.1,2.4,0.5,4.8,1.6,7c1.1,2,2.6,3.6,4.5,4.8C222.9,117.4,225.2,118,227.5,118z"
	/>
<path id="path12" inkscape:connector-curvature="0" style="&st2;" d="M254,92.4c-0.9,0-1.8-0.3-2.4-0.9c-0.6-0.6-0.9-1.3-0.9-2.2
	c0-0.9,0.3-1.7,0.9-2.3c0.7-0.6,1.6-0.9,2.4-0.9h17.8c0.9,0,1.8,0.3,2.5,0.9c0.6,0.6,1,1.4,0.9,2.3c0,0.8-0.3,1.6-0.9,2.2
	c-0.7,0.6-1.6,0.9-2.5,0.9H254z M260.6,124.1c-2,0-3.5-1.6-3.5-3.6v-0.1V85c-0.1-3.1,0.6-6.2,2-9c1.3-2.5,3.3-4.5,5.7-5.9
	c2.6-1.5,5.5-2.2,8.5-2.1c1,0,1.9,0.3,2.6,0.9s1,1.5,1,2.4s-0.3,1.7-1,2.3c-0.7,0.7-1.7,1-2.6,1c-1.6,0-3.3,0.4-4.7,1.2
	c-1.3,0.8-2.4,2-3.1,3.4c-0.8,1.6-1.2,3.3-1.1,5.1v36.2c0,1-0.3,2-1,2.7C262.7,123.9,261.7,124.2,260.6,124.1z"/>
<path id="path14" inkscape:connector-curvature="0" style="&st2;" d="M299.2,124.4c-3.6,0.1-7.1-0.8-10.3-2.6
	c-2.9-1.7-5.4-4.2-7.1-7.1c-1.7-3.1-2.6-6.6-2.5-10.2c-0.1-3.6,0.8-7.2,2.5-10.4c1.6-3,4-5.4,6.9-7.1c3.1-1.7,6.6-2.6,10.1-2.6
	c2.7,0,5.3,0.5,7.8,1.6c2.4,1.1,4.6,2.8,6.3,4.9c0.6,0.6,0.9,1.5,0.7,2.4c-0.2,0.9-0.8,1.6-1.5,2.2c-0.6,0.5-1.5,0.6-2.2,0.5
	c-0.9-0.2-1.6-0.6-2.2-1.3c-2.2-2.5-5.4-3.8-8.8-3.8c-2.3,0-4.5,0.5-6.5,1.7c-1.9,1.1-3.4,2.8-4.4,4.7c-1.1,2.2-1.6,4.7-1.6,7.1
	s0.5,4.8,1.6,6.9c1,2,2.6,3.6,4.5,4.8c2,1.2,4.3,1.8,6.7,1.8c1.5,0,3-0.2,4.4-0.6c1.3-0.4,2.5-1,3.5-1.9c0.7-0.6,1.5-0.9,2.4-1
	c0.8-0.1,1.6,0.2,2.2,0.7c0.7,0.5,1.2,1.3,1.4,2.2c0.1,0.9-0.2,1.7-0.9,2.3C308.7,122.8,304,124.6,299.2,124.4L299.2,124.4z"/>
<path id="path16" inkscape:connector-curvature="0" style="&st2;" d="M324.8,124.1c-1,0.1-1.9-0.3-2.7-0.9c-0.7-0.7-1-1.7-0.9-2.7
	V88.3c-0.2-1.8,1.1-3.4,2.9-3.6c0.2,0,0.5,0,0.7,0c1.7-0.2,3.4,1,3.6,2.7c0,0.3,0,0.6,0,0.9v32.2c0.1,1-0.3,1.9-0.9,2.7
	C326.8,123.9,325.8,124.2,324.8,124.1z M324.8,99.5c0-2.7,0.7-5.4,2.1-7.7c1.4-2.3,3.4-4.2,5.7-5.4c2.4-1.3,5.2-2,7.9-2
	c2.9,0,5,0.5,6.5,1.4s2,2,1.6,3.3c-0.1,0.6-0.4,1.1-0.8,1.6c-0.4,0.4-0.9,0.6-1.4,0.7c-0.6,0.1-1.2,0.1-1.7-0.1
	c-2.7-0.6-5.5-0.7-8.3-0.2c-2.2,0.4-4.2,1.4-5.8,3c-1.4,1.5-2.2,3.4-2.1,5.5L324.8,99.5z"/>
<path id="path18" inkscape:connector-curvature="0" style="&st2;" d="M367.9,124.4c-3.3,0.1-6.6-0.9-9.4-2.6
	c-2.8-1.8-5.1-4.2-6.6-7.1c-1.6-3.1-2.5-6.6-2.4-10.2c-0.1-3.6,0.9-7.1,2.6-10.2c5.5-9.5,17.7-12.8,27.2-7.3c3,1.7,5.5,4.2,7.3,7.3
	c1.8,3.1,2.7,6.6,2.6,10.2h-2.8c0.1,3.5-0.8,7-2.4,10.2c-1.5,2.9-3.8,5.4-6.6,7.1C374.5,123.6,371.2,124.5,367.9,124.4z M369.3,118
	c2.3,0,4.6-0.6,6.5-1.8c1.9-1.2,3.5-2.8,4.5-4.8c1.1-2.1,1.7-4.5,1.6-6.9c0.1-2.4-0.5-4.8-1.6-7c-1.1-2-2.6-3.6-4.5-4.8
	c-4-2.4-9-2.4-13.1,0c-1.9,1.2-3.5,2.8-4.6,4.8c-1.2,2.1-1.7,4.6-1.7,7s0.5,4.8,1.7,6.9c1.1,2,2.7,3.7,4.6,4.8
	C364.8,117.4,367.1,118,369.3,118L369.3,118z M385.5,124.2c-2,0.1-3.6-1.5-3.7-3.5c0-0.1,0-0.1,0-0.2v-11l1.4-7.6l6,2.6v16.1
	c0.1,2-1.5,3.6-3.5,3.7C385.6,124.2,385.6,124.2,385.5,124.2L385.5,124.2z"/>
<path id="path20" inkscape:connector-curvature="0" style="&st2;" d="M397.7,92.4c-0.9,0-1.8-0.3-2.5-0.9c-0.6-0.6-0.9-1.3-0.9-2.2
	c0-0.9,0.3-1.7,0.9-2.3c0.7-0.6,1.6-0.9,2.5-0.9h17.8c0.9,0,1.8,0.3,2.5,0.9c0.6,0.6,0.9,1.4,0.9,2.3c0,0.8-0.3,1.6-0.9,2.2
	c-0.7,0.6-1.6,0.9-2.5,0.9H397.7z M404.4,124.1c-2,0-3.5-1.6-3.5-3.6v-0.1V85c-0.1-3.1,0.6-6.2,2-9c1.3-2.5,3.3-4.5,5.7-5.9
	c2.6-1.5,5.5-2.2,8.5-2.1c1,0,1.9,0.3,2.6,0.9s1,1.5,1,2.4s-0.3,1.7-1,2.3c-0.7,0.7-1.7,1-2.6,1c-1.6,0-3.3,0.4-4.7,1.2
	c-1.3,0.8-2.4,2-3.1,3.4c-0.8,1.6-1.2,3.3-1.1,5.1v36.2c0,1-0.3,2-1,2.7C406.4,123.9,405.4,124.2,404.4,124.1z"/>
<path id="path22" inkscape:connector-curvature="0" style="&st2;" d="M424.9,92.4c-0.9,0-1.8-0.3-2.5-0.9c-0.6-0.5-1-1.3-0.9-2.2
	c0-0.9,0.3-1.7,0.9-2.3c0.7-0.6,1.6-0.9,2.5-0.9h16.6c0.9,0,1.8,0.3,2.5,0.9c0.6,0.6,1,1.4,0.9,2.3c0,0.8-0.3,1.6-0.9,2.2
	c-0.7,0.6-1.6,0.9-2.5,0.9H424.9z M440.9,124.1c-2.3,0-4.5-0.6-6.5-1.8c-1.9-1.2-3.5-3-4.5-5c-1.1-2.2-1.7-4.7-1.7-7.1V75.8
	c0-1,0.3-1.9,1-2.6c1.4-1.4,3.7-1.5,5.1-0.1c0.7,0.7,1.1,1.7,1.1,2.7v34.3c-0.1,1.7,0.5,3.5,1.6,4.8c0.9,1.2,2.4,1.9,3.9,1.9h2.5
	c0.8,0,1.6,0.4,2.2,1c0.6,0.7,0.9,1.6,0.9,2.6s-0.4,2-1.2,2.6c-0.9,0.7-2,1-3.1,1L440.9,124.1z"/>
<path id="path24" inkscape:connector-curvature="0" style="&st2;" d="M96.8,124.1c-2,0-3.7-1.6-3.7-3.6v-0.1V61.6c0-1,0.4-2,1.1-2.7
	s1.7-1,2.7-1h14.4c3.3-0.1,6.7,0.8,9.6,2.4c2.7,1.5,5,3.8,6.5,6.5c1.6,3,2.4,6.3,2.3,9.7c0.1,3.3-0.7,6.5-2.3,9.4
	c-1.5,2.7-3.8,4.9-6.5,6.4c-2.9,1.6-6.2,2.4-9.6,2.3h-10.6v25.8c0,1-0.3,1.9-1,2.7C98.8,123.8,97.8,124.2,96.8,124.1L96.8,124.1z
	 M100.5,87.7h10.7c2,0,4.1-0.5,5.8-1.4c1.7-0.9,3.1-2.3,4-4c1-1.8,1.5-3.7,1.4-5.8c0-2.1-0.4-4.2-1.4-6.1c-0.9-1.7-2.3-3.1-4-4.1
	c-1.8-1-3.8-1.6-5.8-1.5h-10.7V87.7z"/>
</svg>
